G04*
G04 #@! TF.GenerationSoftware,Altium Limited,Altium Designer,25.1.2 (22)*
G04*
G04 Layer_Color=32896*
%FSLAX44Y44*%
%MOMM*%
G71*
G04*
G04 #@! TF.SameCoordinates,47DE64E8-2747-4DE2-8CAA-9D4F0D5BEAA4*
G04*
G04*
G04 #@! TF.FilePolarity,Positive*
G04*
G01*
G75*
%ADD10C,0.2000*%
%ADD11C,0.1200*%
%ADD12C,0.2540*%
%ADD41C,0.1000*%
%ADD81C,0.2500*%
%ADD82C,0.5000*%
D10*
X403754Y575798D02*
Y568800D01*
X407252D01*
X408419Y569967D01*
Y574632D01*
X407252Y575798D01*
X403754D01*
X415416Y574632D02*
X414250Y575798D01*
X411918D01*
X410751Y574632D01*
Y573465D01*
X411918Y572299D01*
X414250D01*
X415416Y571133D01*
Y569967D01*
X414250Y568800D01*
X411918D01*
X410751Y569967D01*
X417749Y575798D02*
X420082D01*
X418915D01*
Y568800D01*
X417749D01*
X420082D01*
X423581Y574632D02*
X424747Y575798D01*
X427079D01*
X428246Y574632D01*
Y569967D01*
X427079Y568800D01*
X424747D01*
X423581Y569967D01*
Y574632D01*
X507168Y574798D02*
X511833D01*
X509501D01*
Y567800D01*
X514166Y574798D02*
Y570133D01*
X516498Y567800D01*
X518831Y570133D01*
Y574798D01*
X362253Y895800D02*
X364585D01*
X363419D01*
Y902798D01*
X362253Y901632D01*
X368084Y902798D02*
Y898133D01*
X370417Y895800D01*
X372749Y898133D01*
Y902798D01*
X375082Y901632D02*
X376248Y902798D01*
X378581D01*
X379747Y901632D01*
Y900465D01*
X378581Y899299D01*
X379747Y898133D01*
Y896966D01*
X378581Y895800D01*
X376248D01*
X375082Y896966D01*
Y898133D01*
X376248Y899299D01*
X375082Y900465D01*
Y901632D01*
X376248Y899299D02*
X378581D01*
X369255Y564798D02*
Y557800D01*
Y561299D01*
X373920D01*
Y564798D01*
Y557800D01*
X376253Y564798D02*
Y557800D01*
X379751D01*
X380918Y558967D01*
Y563632D01*
X379751Y564798D01*
X376253D01*
X383250Y557800D02*
Y564798D01*
X385583Y562466D01*
X387915Y564798D01*
Y557800D01*
X390248Y564798D02*
X392580D01*
X391414D01*
Y557800D01*
X390248D01*
X392580D01*
X396079Y563632D02*
X397246Y564798D01*
X399578D01*
X400745Y563632D01*
Y558967D01*
X399578Y557800D01*
X397246D01*
X396079Y558967D01*
Y563632D01*
X427834Y907632D02*
X426667Y908798D01*
X424335D01*
X423168Y907632D01*
Y906465D01*
X424335Y905299D01*
X426667D01*
X427834Y904133D01*
Y902966D01*
X426667Y901800D01*
X424335D01*
X423168Y902966D01*
X430166Y908798D02*
Y901800D01*
X433665D01*
X434831Y902966D01*
Y907632D01*
X433665Y908798D01*
X430166D01*
X471419Y908632D02*
X470253Y909798D01*
X467920D01*
X466754Y908632D01*
Y903966D01*
X467920Y902800D01*
X470253D01*
X471419Y903966D01*
Y906299D01*
X469086D01*
X473752Y902800D02*
Y909798D01*
X477251D01*
X478417Y908632D01*
Y906299D01*
X477251Y905133D01*
X473752D01*
X480749Y909798D02*
X483082D01*
X481916D01*
Y902800D01*
X480749D01*
X483082D01*
X490080Y909798D02*
X487747D01*
X486581Y908632D01*
Y903966D01*
X487747Y902800D01*
X490080D01*
X491246Y903966D01*
Y908632D01*
X490080Y909798D01*
X471002Y574632D02*
X469836Y575798D01*
X467503D01*
X466337Y574632D01*
Y569967D01*
X467503Y568800D01*
X469836D01*
X471002Y569967D01*
X473335Y568800D02*
Y573466D01*
X475667Y575798D01*
X478000Y573466D01*
Y568800D01*
Y572299D01*
X473335D01*
X480332Y568800D02*
Y575798D01*
X482665Y573466D01*
X484997Y575798D01*
Y568800D01*
X487330D02*
X489663D01*
X488496D01*
Y575798D01*
X487330Y574632D01*
X469836Y563632D02*
X468670Y564798D01*
X466337D01*
X465171Y563632D01*
Y558966D01*
X466337Y557800D01*
X468670D01*
X469836Y558966D01*
X472169Y557800D02*
Y562465D01*
X474501Y564798D01*
X476834Y562465D01*
Y557800D01*
Y561299D01*
X472169D01*
X479166Y557800D02*
Y564798D01*
X481499Y562465D01*
X483831Y564798D01*
Y557800D01*
X486164Y563632D02*
X487330Y564798D01*
X489663D01*
X490829Y563632D01*
Y558966D01*
X489663Y557800D01*
X487330D01*
X486164Y558966D01*
Y563632D01*
X346836Y569798D02*
Y562800D01*
X350335D01*
X351501Y563967D01*
Y568632D01*
X350335Y569798D01*
X346836D01*
X358498Y568632D02*
X357332Y569798D01*
X355000D01*
X353833Y568632D01*
Y567466D01*
X355000Y566299D01*
X357332D01*
X358498Y565133D01*
Y563967D01*
X357332Y562800D01*
X355000D01*
X353833Y563967D01*
X360831Y562800D02*
X363164D01*
X361997D01*
Y569798D01*
X360831Y568632D01*
X383081Y914798D02*
X378415D01*
Y911299D01*
X380748Y912465D01*
X381914D01*
X383081Y911299D01*
Y908966D01*
X381914Y907800D01*
X379582D01*
X378415Y908966D01*
X385413Y914798D02*
Y910133D01*
X387746Y907800D01*
X390078Y910133D01*
Y914798D01*
X528335Y909798D02*
X523670D01*
Y902800D01*
X528335D01*
X523670Y906299D02*
X526002D01*
X530667Y909798D02*
X535332D01*
X533000D01*
Y902800D01*
X537665Y909798D02*
Y902800D01*
Y906299D01*
X542330D01*
Y909798D01*
Y902800D01*
X503754Y557800D02*
Y564798D01*
X507253D01*
X508419Y563632D01*
Y561299D01*
X507253Y560133D01*
X503754D01*
X515416Y563632D02*
X514250Y564798D01*
X511918D01*
X510751Y563632D01*
Y558967D01*
X511918Y557800D01*
X514250D01*
X515416Y558967D01*
X517749Y564798D02*
X520082D01*
X518915D01*
Y557800D01*
X517749D01*
X520082D01*
X527079D02*
X524747D01*
X523581Y558967D01*
Y561299D01*
X524747Y562466D01*
X527079D01*
X528246Y561299D01*
Y560133D01*
X523581D01*
X413421Y563798D02*
Y556800D01*
Y560299D01*
X418086D01*
Y563798D01*
Y556800D01*
X420419Y563798D02*
Y556800D01*
X423918D01*
X425084Y557967D01*
Y562632D01*
X423918Y563798D01*
X420419D01*
X427416Y556800D02*
Y563798D01*
X429749Y561466D01*
X432082Y563798D01*
Y556800D01*
X434414Y563798D02*
X436747D01*
X435581D01*
Y556800D01*
X434414D01*
X436747D01*
X440246D02*
X442578D01*
X441412D01*
Y563798D01*
X440246Y562632D01*
X526669Y575798D02*
Y569967D01*
X527836Y568800D01*
X530168D01*
X531334Y569967D01*
Y575798D01*
X538332Y574632D02*
X537166Y575798D01*
X534833D01*
X533667Y574632D01*
Y573466D01*
X534833Y572299D01*
X537166D01*
X538332Y571133D01*
Y569967D01*
X537166Y568800D01*
X534833D01*
X533667Y569967D01*
X540665Y575798D02*
Y568800D01*
X544164D01*
X545330Y569967D01*
Y571133D01*
X544164Y572299D01*
X540665D01*
X544164D01*
X545330Y573466D01*
Y574632D01*
X544164Y575798D01*
X540665D01*
X387670Y901632D02*
X388836Y902798D01*
X391169D01*
X392335Y901632D01*
Y900465D01*
X391169Y899299D01*
X390002D01*
X391169D01*
X392335Y898133D01*
Y896966D01*
X391169Y895800D01*
X388836D01*
X387670Y896966D01*
X394667Y902798D02*
Y898133D01*
X397000Y895800D01*
X399333Y898133D01*
Y902798D01*
X401665Y901632D02*
X402831Y902798D01*
X405164D01*
X406330Y901632D01*
Y900465D01*
X405164Y899299D01*
X403998D01*
X405164D01*
X406330Y898133D01*
Y896966D01*
X405164Y895800D01*
X402831D01*
X401665Y896966D01*
D11*
X446000Y547500D02*
Y585300D01*
X560000Y547300D02*
Y585100D01*
X332000Y547300D02*
Y585100D01*
X560000D01*
X332000Y547300D02*
X560000D01*
X332000Y924300D02*
X560000D01*
X332000Y886500D02*
Y924300D01*
Y886500D02*
X560000D01*
Y924300D01*
X446000Y886500D02*
Y924300D01*
Y547500D02*
Y585300D01*
X560000Y547300D02*
Y585100D01*
X332000Y547300D02*
Y585100D01*
X560000D01*
X332000Y547300D02*
X560000D01*
X332000Y924300D02*
X560000D01*
X332000Y886500D02*
Y924300D01*
Y886500D02*
X560000D01*
Y924300D01*
X446000Y886500D02*
Y924300D01*
D12*
X229062Y845800D02*
G03*
X229062Y845800I-8062J0D01*
G01*
X471000Y728800D02*
Y742800D01*
X463000Y735800D02*
X478000D01*
X261000Y720800D02*
Y830800D01*
X196000Y720800D02*
X261000D01*
X196000Y830800D02*
X261000D01*
X471000Y728800D02*
Y742800D01*
X463000Y735800D02*
X478000D01*
D41*
X216806Y745811D02*
X225803D01*
X222804Y748810D01*
X225803Y751809D01*
X216806D01*
X225803Y754808D02*
Y757807D01*
Y756308D01*
X219805D01*
Y754808D01*
Y762306D02*
X225803D01*
X222804D01*
X221305Y763805D01*
X219805Y765304D01*
Y766804D01*
X225803Y775801D02*
Y772802D01*
X224304Y771303D01*
X221305D01*
X219805Y772802D01*
Y775801D01*
X221305Y777301D01*
X222804D01*
Y771303D01*
X225803Y780300D02*
Y783299D01*
Y781799D01*
X216806D01*
Y780300D01*
X225803Y792296D02*
Y789297D01*
X224304Y787797D01*
X221305D01*
X219805Y789297D01*
Y792296D01*
X221305Y793795D01*
X222804D01*
Y787797D01*
X225803Y796794D02*
Y801293D01*
X224304Y802792D01*
X222804Y801293D01*
Y798294D01*
X221305Y796794D01*
X219805Y798294D01*
Y802792D01*
X225803Y805791D02*
Y810290D01*
X224304Y811789D01*
X222804Y810290D01*
Y807291D01*
X221305Y805791D01*
X219805Y807291D01*
Y811789D01*
X231502Y761556D02*
X230003Y760056D01*
Y757057D01*
X231502Y755558D01*
X237500D01*
X239000Y757057D01*
Y760056D01*
X237500Y761556D01*
X233002Y764555D02*
X237500D01*
X239000Y766054D01*
Y770553D01*
X233002D01*
X231502Y775051D02*
X233002D01*
Y773552D01*
Y776551D01*
Y775051D01*
X237500D01*
X239000Y776551D01*
Y782549D02*
Y785548D01*
X237500Y787048D01*
X234501D01*
X233002Y785548D01*
Y782549D01*
X234501Y781049D01*
X237500D01*
X239000Y782549D01*
X233002Y790046D02*
X237500D01*
X239000Y791546D01*
Y796045D01*
X233002D01*
X231502Y800543D02*
X233002D01*
Y799044D01*
Y802043D01*
Y800543D01*
X237500D01*
X239000Y802043D01*
D81*
X358424Y817251D02*
Y826751D01*
X341424Y817251D02*
Y826751D01*
X358424D01*
X341424Y817251D02*
X358424D01*
X308920Y817250D02*
Y826750D01*
X325920Y817250D02*
Y826750D01*
X308920Y817250D02*
X325920D01*
X308920Y826750D02*
X325920D01*
D82*
X711000Y570800D02*
X731000D01*
X691000D02*
X711000D01*
Y590800D01*
Y550800D02*
Y570800D01*
Y900800D02*
X731000D01*
X691000D02*
X711000D01*
Y920800D01*
Y880800D02*
Y900800D01*
X231000D02*
X251000D01*
X211000D02*
X231000D01*
Y920800D01*
Y880800D02*
Y900800D01*
Y570800D02*
X251000D01*
X211000D02*
X231000D01*
Y590800D01*
Y550800D02*
Y570800D01*
M02*
