G04*
G04 #@! TF.GenerationSoftware,Altium Limited,Altium Designer,25.1.2 (22)*
G04*
G04 Layer_Physical_Order=3*
G04 Layer_Color=128*
%FSLAX44Y44*%
%MOMM*%
G71*
G04*
G04 #@! TF.SameCoordinates,47DE64E8-2747-4DE2-8CAA-9D4F0D5BEAA4*
G04*
G04*
G04 #@! TF.FilePolarity,Negative*
G04*
G01*
G75*
%ADD46C,1.1500*%
%ADD53C,1.0160*%
%ADD56C,2.0500*%
%ADD57C,1.5500*%
%ADD58C,4.1000*%
%ADD59C,0.7300*%
%ADD60C,1.5000*%
%ADD61C,3.3000*%
%ADD62C,3.6000*%
%ADD63C,0.6000*%
%ADD64C,2.7500*%
D46*
X130000Y610000D02*
D03*
X147000Y575000D02*
D03*
X115000D02*
D03*
X162000Y610000D02*
D03*
X115000Y600000D02*
D03*
X130000Y570000D02*
D03*
X115000Y620000D02*
D03*
X162000Y650000D02*
D03*
Y630000D02*
D03*
Y590000D02*
D03*
Y570000D02*
D03*
X147000Y620000D02*
D03*
X130000Y630000D02*
D03*
Y590000D02*
D03*
X147000Y600000D02*
D03*
X130000Y650000D02*
D03*
X115000Y645000D02*
D03*
X147000D02*
D03*
D53*
X0Y0D02*
X1100000D01*
X1100000Y980000D02*
X1100000Y0D01*
X0Y980000D02*
X1100000Y980000D01*
X0Y0D02*
Y980000D01*
D56*
X170000Y730000D02*
D03*
D57*
Y930000D02*
D03*
D58*
X955000Y830000D02*
D03*
X755000D02*
D03*
X575000D02*
D03*
X455000D02*
D03*
D59*
X1948000Y310000D02*
D03*
X1936000D02*
D03*
X1924000D02*
D03*
X1912000D02*
D03*
X1900000D02*
D03*
X1888000D02*
D03*
X1948000Y322000D02*
D03*
X1936000D02*
D03*
X1924000D02*
D03*
X1912000D02*
D03*
X1900000D02*
D03*
X1888000D02*
D03*
X1948000Y334000D02*
D03*
X1936000D02*
D03*
X1924000D02*
D03*
X1912000D02*
D03*
X1900000D02*
D03*
X1888000D02*
D03*
X1948000Y346000D02*
D03*
X1936000D02*
D03*
X1924000D02*
D03*
X1912000D02*
D03*
X1900000D02*
D03*
X1888000D02*
D03*
X1948000Y358000D02*
D03*
X1936000D02*
D03*
X1924000D02*
D03*
X1912000D02*
D03*
X1900000D02*
D03*
X1888000D02*
D03*
X1948000Y370000D02*
D03*
X1936000D02*
D03*
X1924000D02*
D03*
X1912000D02*
D03*
X1900000D02*
D03*
X1888000D02*
D03*
D60*
X1047000Y665100D02*
D03*
Y639700D02*
D03*
Y614300D02*
D03*
Y588900D02*
D03*
Y563500D02*
D03*
Y411100D02*
D03*
Y436500D02*
D03*
Y461900D02*
D03*
Y487300D02*
D03*
Y512700D02*
D03*
Y538100D02*
D03*
Y690500D02*
D03*
X1021600Y334900D02*
D03*
X1047000D02*
D03*
X1021600Y385700D02*
D03*
X1047000D02*
D03*
X1021600Y436500D02*
D03*
Y487300D02*
D03*
Y538100D02*
D03*
Y588900D02*
D03*
Y639700D02*
D03*
Y690500D02*
D03*
Y309500D02*
D03*
Y360300D02*
D03*
Y411100D02*
D03*
Y461900D02*
D03*
Y512700D02*
D03*
Y563500D02*
D03*
Y614300D02*
D03*
Y665100D02*
D03*
X1047000Y309500D02*
D03*
Y360300D02*
D03*
D61*
X1072400Y741300D02*
D03*
Y258700D02*
D03*
D62*
X1050000Y50000D02*
D03*
Y920000D02*
D03*
X50000D02*
D03*
Y50000D02*
D03*
D63*
X461000Y493750D02*
D03*
Y499250D02*
D03*
X487027Y505211D02*
D03*
X487000Y510750D02*
D03*
D64*
X151800Y675700D02*
D03*
X95000D02*
D03*
X151800Y544300D02*
D03*
X95000D02*
D03*
M02*
