G04*
G04 #@! TF.GenerationSoftware,Altium Limited,Altium Designer,25.1.2 (22)*
G04*
G04 Layer_Physical_Order=1*
G04 Layer_Color=255*
%FSLAX44Y44*%
%MOMM*%
G71*
G04*
G04 #@! TF.SameCoordinates,47DE64E8-2747-4DE2-8CAA-9D4F0D5BEAA4*
G04*
G04*
G04 #@! TF.FilePolarity,Positive*
G04*
G01*
G75*
%ADD15R,0.2000X0.7000*%
%ADD16R,2.0000X1.4500*%
%ADD17R,1.5000X0.8000*%
G04:AMPARAMS|DCode=19|XSize=0.81mm|YSize=0.22mm|CornerRadius=0.0275mm|HoleSize=0mm|Usage=FLASHONLY|Rotation=0.000|XOffset=0mm|YOffset=0mm|HoleType=Round|Shape=RoundedRectangle|*
%AMROUNDEDRECTD19*
21,1,0.8100,0.1650,0,0,0.0*
21,1,0.7550,0.2200,0,0,0.0*
1,1,0.0550,0.3775,-0.0825*
1,1,0.0550,-0.3775,-0.0825*
1,1,0.0550,-0.3775,0.0825*
1,1,0.0550,0.3775,0.0825*
%
%ADD19ROUNDEDRECTD19*%
G04:AMPARAMS|DCode=20|XSize=0.22mm|YSize=0.81mm|CornerRadius=0.0275mm|HoleSize=0mm|Usage=FLASHONLY|Rotation=0.000|XOffset=0mm|YOffset=0mm|HoleType=Round|Shape=RoundedRectangle|*
%AMROUNDEDRECTD20*
21,1,0.2200,0.7550,0,0,0.0*
21,1,0.1650,0.8100,0,0,0.0*
1,1,0.0550,0.0825,-0.3775*
1,1,0.0550,-0.0825,-0.3775*
1,1,0.0550,-0.0825,0.3775*
1,1,0.0550,0.0825,0.3775*
%
%ADD20ROUNDEDRECTD20*%
%ADD21R,2.0000X5.5000*%
%ADD40R,6.5000X6.5000*%
%ADD41C,0.1000*%
%ADD42C,0.1801*%
%ADD43C,3.3660*%
%ADD44C,1.2580*%
%ADD45C,1.6500*%
%ADD46C,1.1500*%
%ADD47C,5.8000*%
%ADD48C,0.5300*%
%ADD49R,1.6500X1.6500*%
%ADD50R,1.2580X1.2580*%
%ADD51C,3.0000*%
%ADD52C,0.4000*%
D15*
X352000Y890000D02*
D03*
X404000Y920800D02*
D03*
X416000D02*
D03*
X400000Y890000D02*
D03*
X416000D02*
D03*
X500000Y920800D02*
D03*
X440000D02*
D03*
X428000D02*
D03*
X480000D02*
D03*
X460000D02*
D03*
X520000D02*
D03*
X544000D02*
D03*
X532000D02*
D03*
X444000Y890000D02*
D03*
X428000D02*
D03*
X484000D02*
D03*
X464000D02*
D03*
X520000D02*
D03*
X504000D02*
D03*
X544000D02*
D03*
X532000D02*
D03*
X400000Y581600D02*
D03*
X412000D02*
D03*
X364000D02*
D03*
X352000D02*
D03*
X388000D02*
D03*
X376000D02*
D03*
X352000Y550800D02*
D03*
X376000D02*
D03*
X364000D02*
D03*
X388000D02*
D03*
X412000D02*
D03*
X400000D02*
D03*
X484000Y581600D02*
D03*
X496000D02*
D03*
X436000D02*
D03*
X424000D02*
D03*
X472000D02*
D03*
X532000D02*
D03*
X508000D02*
D03*
X520000Y550800D02*
D03*
Y581600D02*
D03*
X532000Y550800D02*
D03*
X472000D02*
D03*
X436000D02*
D03*
X424000D02*
D03*
X460000D02*
D03*
X448000D02*
D03*
X484000D02*
D03*
X508000D02*
D03*
X496000D02*
D03*
X536000D02*
D03*
X408000Y581600D02*
D03*
X404000D02*
D03*
X432000D02*
D03*
X428000D02*
D03*
X528000Y550800D02*
D03*
X524000D02*
D03*
X420000Y920800D02*
D03*
X416000Y581600D02*
D03*
X468000Y550800D02*
D03*
X488000D02*
D03*
X396000Y920800D02*
D03*
X424000D02*
D03*
X476000Y550800D02*
D03*
X392000Y920800D02*
D03*
X388000D02*
D03*
X384000D02*
D03*
X380000D02*
D03*
X376000D02*
D03*
X372000D02*
D03*
X408000D02*
D03*
X420000Y581600D02*
D03*
X544000Y550800D02*
D03*
X480000D02*
D03*
X504000D02*
D03*
X500000D02*
D03*
X540000D02*
D03*
X432000Y920800D02*
D03*
X512000Y550800D02*
D03*
X516000D02*
D03*
X412000Y920800D02*
D03*
X464000Y550800D02*
D03*
X492000D02*
D03*
X424000Y890000D02*
D03*
X348000Y550800D02*
D03*
Y581600D02*
D03*
X356000Y550800D02*
D03*
Y581600D02*
D03*
X360000Y550800D02*
D03*
Y581600D02*
D03*
X368000Y550800D02*
D03*
Y581600D02*
D03*
X372000Y550800D02*
D03*
Y581600D02*
D03*
X380000Y550800D02*
D03*
Y581600D02*
D03*
X384000Y550800D02*
D03*
Y581600D02*
D03*
X392000Y550800D02*
D03*
Y581600D02*
D03*
X396000Y550800D02*
D03*
Y581600D02*
D03*
X404000Y550800D02*
D03*
X408000D02*
D03*
X416000D02*
D03*
X420000D02*
D03*
X428000D02*
D03*
X432000D02*
D03*
X440000D02*
D03*
Y581600D02*
D03*
X444000Y550800D02*
D03*
Y581600D02*
D03*
X448000D02*
D03*
X452000Y550800D02*
D03*
Y581600D02*
D03*
X456000Y550800D02*
D03*
Y581600D02*
D03*
X460000D02*
D03*
X464000D02*
D03*
X468000D02*
D03*
X476000D02*
D03*
X480000D02*
D03*
X488000D02*
D03*
X492000D02*
D03*
X500000D02*
D03*
X504000D02*
D03*
X512000D02*
D03*
X516000D02*
D03*
X524000D02*
D03*
X528000D02*
D03*
X536000D02*
D03*
X540000D02*
D03*
X544000D02*
D03*
X348000Y890000D02*
D03*
Y920800D02*
D03*
X352000D02*
D03*
X356000Y890000D02*
D03*
Y920800D02*
D03*
X360000Y890000D02*
D03*
Y920800D02*
D03*
X364000Y890000D02*
D03*
Y920800D02*
D03*
X368000Y890000D02*
D03*
Y920800D02*
D03*
X372000Y890000D02*
D03*
X376000D02*
D03*
X380000D02*
D03*
X384000D02*
D03*
X388000D02*
D03*
X392000D02*
D03*
X396000D02*
D03*
X400000Y920800D02*
D03*
X404000Y890000D02*
D03*
X408000D02*
D03*
X412000D02*
D03*
X420000D02*
D03*
X432000D02*
D03*
X436000D02*
D03*
Y920800D02*
D03*
X440000Y890000D02*
D03*
X444000Y920800D02*
D03*
X448000Y890000D02*
D03*
Y920800D02*
D03*
X452000Y890000D02*
D03*
Y920800D02*
D03*
X456000Y890000D02*
D03*
Y920800D02*
D03*
X460000Y890000D02*
D03*
X464000Y920800D02*
D03*
X468000Y890000D02*
D03*
Y920800D02*
D03*
X472000Y890000D02*
D03*
Y920800D02*
D03*
X476000Y890000D02*
D03*
Y920800D02*
D03*
X480000Y890000D02*
D03*
X484000Y920800D02*
D03*
X488000Y890000D02*
D03*
Y920800D02*
D03*
X492000Y890000D02*
D03*
Y920800D02*
D03*
X496000Y890000D02*
D03*
Y920800D02*
D03*
X500000Y890000D02*
D03*
X504000Y920800D02*
D03*
X508000Y890000D02*
D03*
Y920800D02*
D03*
X512000Y890000D02*
D03*
Y920800D02*
D03*
X516000Y890000D02*
D03*
Y920800D02*
D03*
X524000Y890000D02*
D03*
Y920800D02*
D03*
X528000Y890000D02*
D03*
Y920800D02*
D03*
X536000Y890000D02*
D03*
Y920800D02*
D03*
X540000Y890000D02*
D03*
Y920800D02*
D03*
D16*
X39500Y848750D02*
D03*
X122500D02*
D03*
X39500Y711250D02*
D03*
X122500D02*
D03*
D17*
X96500Y757000D02*
D03*
Y779000D02*
D03*
Y812000D02*
D03*
Y768000D02*
D03*
Y746000D02*
D03*
Y735000D02*
D03*
Y790000D02*
D03*
Y801000D02*
D03*
D19*
X1957500Y370000D02*
D03*
Y366000D02*
D03*
Y362000D02*
D03*
Y358000D02*
D03*
Y354000D02*
D03*
Y350000D02*
D03*
Y346000D02*
D03*
Y342000D02*
D03*
Y338000D02*
D03*
Y334000D02*
D03*
Y330000D02*
D03*
Y326000D02*
D03*
Y322000D02*
D03*
Y318000D02*
D03*
Y314000D02*
D03*
Y310000D02*
D03*
X1878500D02*
D03*
Y314000D02*
D03*
Y318000D02*
D03*
Y322000D02*
D03*
Y326000D02*
D03*
Y330000D02*
D03*
Y334000D02*
D03*
Y338000D02*
D03*
Y342000D02*
D03*
Y346000D02*
D03*
Y350000D02*
D03*
Y354000D02*
D03*
Y358000D02*
D03*
Y362000D02*
D03*
Y366000D02*
D03*
Y370000D02*
D03*
D20*
X1888000Y379500D02*
D03*
X1892000D02*
D03*
X1896000D02*
D03*
X1900000D02*
D03*
X1904000D02*
D03*
X1908000D02*
D03*
X1912000D02*
D03*
X1916000D02*
D03*
X1920000D02*
D03*
X1924000D02*
D03*
X1928000D02*
D03*
X1932000D02*
D03*
X1936000D02*
D03*
X1940000D02*
D03*
X1944000D02*
D03*
X1948000D02*
D03*
Y300500D02*
D03*
X1944000D02*
D03*
X1940000D02*
D03*
X1936000D02*
D03*
X1932000D02*
D03*
X1928000D02*
D03*
X1924000D02*
D03*
X1920000D02*
D03*
X1916000D02*
D03*
X1912000D02*
D03*
X1908000D02*
D03*
X1904000D02*
D03*
X1900000D02*
D03*
X1896000D02*
D03*
X1892000D02*
D03*
X1888000D02*
D03*
D21*
X2071000Y244500D02*
D03*
Y339500D02*
D03*
D40*
X1918000Y340000D02*
D03*
D41*
X498750Y520768D02*
X512000Y534018D01*
X501000Y519836D02*
X516000Y534836D01*
Y550800D01*
X512000Y534018D02*
Y550800D01*
X461000Y499250D02*
X462250D01*
X462500Y495250D02*
X463907D01*
X461000Y493750D02*
X462500Y495250D01*
X463907D02*
X466250Y497593D01*
X462250Y499250D02*
X500000Y537000D01*
X488657Y509250D02*
X492318D01*
X488657Y509250D02*
X488657Y509250D01*
X488750Y507000D02*
X493250D01*
X501000Y514750D01*
X487000Y505250D02*
X488750Y507000D01*
X492318Y509250D02*
X498750Y515682D01*
X487000Y505238D02*
X487027Y505211D01*
X487000Y505238D02*
Y505250D01*
X501000Y514750D02*
Y519836D01*
X500000Y537000D02*
Y550800D01*
X466250Y497750D02*
X504000Y535500D01*
X466250Y497593D02*
Y497750D01*
X504000Y535500D02*
Y550800D01*
X488500Y509250D02*
X488657D01*
X487000Y510750D02*
X488500Y509250D01*
X498750Y515682D02*
Y520768D01*
D42*
X62000Y533264D02*
X92500Y502764D01*
X58949Y532000D02*
X89449Y501500D01*
X58949Y532000D02*
Y611014D01*
X91236Y498449D02*
X192764D01*
X89449Y500236D02*
X91236Y498449D01*
X89449Y500236D02*
Y501500D01*
X92500D02*
X191500D01*
X62000Y533264D02*
Y609750D01*
X92500Y501500D02*
Y502764D01*
X58949Y611014D02*
X98449Y650514D01*
X62000Y609750D02*
X101500Y649250D01*
X192764Y498449D02*
X231398Y537083D01*
X191500Y501500D02*
X230134Y540134D01*
X474232Y558250D02*
X476000Y556482D01*
X174982Y518500D02*
X217783Y561301D01*
X176246Y515449D02*
X219047Y558250D01*
X475496Y561301D02*
X480000Y556797D01*
X217783Y561301D02*
X475496D01*
X219047Y558250D02*
X474232D01*
X476000Y550800D02*
Y556482D01*
X136301Y515449D02*
X176246D01*
X137565Y518500D02*
X174982D01*
X99449Y569004D02*
Y607670D01*
X102680Y610900D01*
X106750D01*
X102500Y606406D02*
X103943Y607850D01*
X108000D01*
X115000Y600850D01*
X106750Y610900D02*
X115000Y619150D01*
Y620000D01*
Y600000D02*
Y600850D01*
X102500Y570268D02*
Y606406D01*
X133051Y658886D02*
X133496Y658440D01*
X129764Y663801D02*
X133051Y660514D01*
Y658886D02*
Y660514D01*
X113000Y660750D02*
X128500D01*
X128136Y663801D02*
X129764D01*
X130000Y650000D02*
Y659250D01*
X128500Y660750D02*
X130000Y659250D01*
X101500Y649250D02*
X113000Y660750D01*
X133496Y658440D02*
X138441Y653496D01*
X111736Y663801D02*
X128136D01*
X130000Y630000D02*
X138441Y638441D01*
Y646504D01*
X100236Y652301D02*
X111736Y663801D01*
X98449Y650514D02*
X100236Y652301D01*
X138441Y646504D02*
Y653496D01*
X231398Y537083D02*
X459630D01*
X230134Y540134D02*
X458366D01*
X464000Y545768D02*
Y550800D01*
X458366Y540134D02*
X464000Y545768D01*
X459630Y537083D02*
X468000Y545453D01*
Y550800D01*
X480000D02*
Y556797D01*
X121528Y534537D02*
Y551240D01*
X102500Y570268D02*
X121528Y551240D01*
Y534537D02*
X137565Y518500D01*
X118477Y533273D02*
X136301Y515449D01*
X118477Y533273D02*
Y549977D01*
X99449Y569004D02*
X118477Y549977D01*
D43*
X151800Y675700D02*
D03*
X95000D02*
D03*
X151800Y544300D02*
D03*
X95000D02*
D03*
D44*
X130000Y610000D02*
D03*
X147000Y575000D02*
D03*
X115000D02*
D03*
X162000Y610000D02*
D03*
X115000Y600000D02*
D03*
X130000Y570000D02*
D03*
X115000Y620000D02*
D03*
X162000Y650000D02*
D03*
Y630000D02*
D03*
Y590000D02*
D03*
Y570000D02*
D03*
X147000Y620000D02*
D03*
X130000Y630000D02*
D03*
Y590000D02*
D03*
X147000Y600000D02*
D03*
X130000Y650000D02*
D03*
X147000Y645000D02*
D03*
D45*
X170000Y730000D02*
D03*
X1047000Y665100D02*
D03*
Y639700D02*
D03*
Y614300D02*
D03*
Y588900D02*
D03*
Y563500D02*
D03*
Y411100D02*
D03*
Y436500D02*
D03*
Y461900D02*
D03*
Y487300D02*
D03*
Y512700D02*
D03*
Y538100D02*
D03*
X1021600Y334900D02*
D03*
X1047000D02*
D03*
X1021600Y385700D02*
D03*
X1047000D02*
D03*
X1021600Y436500D02*
D03*
Y487300D02*
D03*
Y538100D02*
D03*
Y588900D02*
D03*
Y639700D02*
D03*
Y690500D02*
D03*
Y309500D02*
D03*
Y360300D02*
D03*
Y411100D02*
D03*
Y461900D02*
D03*
Y512700D02*
D03*
Y563500D02*
D03*
Y614300D02*
D03*
Y665100D02*
D03*
X1047000Y309500D02*
D03*
Y360300D02*
D03*
D46*
X170000Y930000D02*
D03*
D47*
X955000Y830000D02*
D03*
X755000D02*
D03*
X575000D02*
D03*
X455000D02*
D03*
D48*
X1948000Y310000D02*
D03*
X1936000D02*
D03*
X1924000D02*
D03*
X1912000D02*
D03*
X1900000D02*
D03*
X1888000D02*
D03*
X1948000Y322000D02*
D03*
X1936000D02*
D03*
X1924000D02*
D03*
X1912000D02*
D03*
X1900000D02*
D03*
X1888000D02*
D03*
X1948000Y334000D02*
D03*
X1936000D02*
D03*
X1924000D02*
D03*
X1912000D02*
D03*
X1900000D02*
D03*
X1888000D02*
D03*
X1948000Y346000D02*
D03*
X1936000D02*
D03*
X1924000D02*
D03*
X1912000D02*
D03*
X1900000D02*
D03*
X1888000D02*
D03*
X1948000Y358000D02*
D03*
X1936000D02*
D03*
X1924000D02*
D03*
X1912000D02*
D03*
X1900000D02*
D03*
X1888000D02*
D03*
X1948000Y370000D02*
D03*
X1936000D02*
D03*
X1924000D02*
D03*
X1912000D02*
D03*
X1900000D02*
D03*
X1888000D02*
D03*
D49*
X1047000Y690500D02*
D03*
D50*
X115000Y645000D02*
D03*
D51*
X1050000Y50000D02*
D03*
Y920000D02*
D03*
X50000D02*
D03*
Y50000D02*
D03*
D52*
X461000Y493750D02*
D03*
Y499250D02*
D03*
X487027Y505211D02*
D03*
X487000Y510750D02*
D03*
M02*
