G04*
G04 #@! TF.GenerationSoftware,Altium Limited,Altium Designer,25.1.2 (22)*
G04*
G04 Layer_Color=8421504*
%FSLAX44Y44*%
%MOMM*%
G71*
G04*
G04 #@! TF.SameCoordinates,47DE64E8-2747-4DE2-8CAA-9D4F0D5BEAA4*
G04*
G04*
G04 #@! TF.FilePolarity,Positive*
G04*
G01*
G75*
%ADD15R,0.2000X0.7000*%
%ADD16R,2.0000X1.4500*%
%ADD17R,1.5000X0.8000*%
%ADD18R,1.3700X1.3700*%
G04:AMPARAMS|DCode=19|XSize=0.81mm|YSize=0.22mm|CornerRadius=0.0275mm|HoleSize=0mm|Usage=FLASHONLY|Rotation=0.000|XOffset=0mm|YOffset=0mm|HoleType=Round|Shape=RoundedRectangle|*
%AMROUNDEDRECTD19*
21,1,0.8100,0.1650,0,0,0.0*
21,1,0.7550,0.2200,0,0,0.0*
1,1,0.0550,0.3775,-0.0825*
1,1,0.0550,-0.3775,-0.0825*
1,1,0.0550,-0.3775,0.0825*
1,1,0.0550,0.3775,0.0825*
%
%ADD19ROUNDEDRECTD19*%
G04:AMPARAMS|DCode=20|XSize=0.22mm|YSize=0.81mm|CornerRadius=0.0275mm|HoleSize=0mm|Usage=FLASHONLY|Rotation=0.000|XOffset=0mm|YOffset=0mm|HoleType=Round|Shape=RoundedRectangle|*
%AMROUNDEDRECTD20*
21,1,0.2200,0.7550,0,0,0.0*
21,1,0.1650,0.8100,0,0,0.0*
1,1,0.0550,0.0825,-0.3775*
1,1,0.0550,-0.0825,-0.3775*
1,1,0.0550,-0.0825,0.3775*
1,1,0.0550,0.0825,0.3775*
%
%ADD20ROUNDEDRECTD20*%
%ADD21R,2.0000X5.5000*%
G36*
X1946550Y354850D02*
X1932850D01*
Y368550D01*
X1946550D01*
Y354850D01*
D02*
G37*
G36*
X1924850D02*
X1911150D01*
Y368550D01*
X1924850D01*
Y354850D01*
D02*
G37*
G36*
X1903150D02*
X1889450D01*
Y368550D01*
X1903150D01*
Y354850D01*
D02*
G37*
G36*
X1946550Y333150D02*
X1932850D01*
Y346850D01*
X1946550D01*
Y333150D01*
D02*
G37*
G36*
X1903150D02*
X1889450D01*
Y346850D01*
X1903150D01*
Y333150D01*
D02*
G37*
G36*
X1946550Y311450D02*
X1932850D01*
Y325150D01*
X1946550D01*
Y311450D01*
D02*
G37*
G36*
X1924850D02*
X1911150D01*
Y325150D01*
X1924850D01*
Y311450D01*
D02*
G37*
G36*
X1903150D02*
X1889450D01*
Y325150D01*
X1903150D01*
Y311450D01*
D02*
G37*
D15*
X352000Y890000D02*
D03*
X404000Y920800D02*
D03*
X416000D02*
D03*
X400000Y890000D02*
D03*
X416000D02*
D03*
X500000Y920800D02*
D03*
X440000D02*
D03*
X428000D02*
D03*
X480000D02*
D03*
X460000D02*
D03*
X520000D02*
D03*
X544000D02*
D03*
X532000D02*
D03*
X444000Y890000D02*
D03*
X428000D02*
D03*
X484000D02*
D03*
X464000D02*
D03*
X520000D02*
D03*
X504000D02*
D03*
X544000D02*
D03*
X532000D02*
D03*
X400000Y581600D02*
D03*
X412000D02*
D03*
X364000D02*
D03*
X352000D02*
D03*
X388000D02*
D03*
X376000D02*
D03*
X352000Y550800D02*
D03*
X376000D02*
D03*
X364000D02*
D03*
X388000D02*
D03*
X412000D02*
D03*
X400000D02*
D03*
X484000Y581600D02*
D03*
X496000D02*
D03*
X436000D02*
D03*
X424000D02*
D03*
X472000D02*
D03*
X532000D02*
D03*
X508000D02*
D03*
X520000Y550800D02*
D03*
Y581600D02*
D03*
X532000Y550800D02*
D03*
X472000D02*
D03*
X436000D02*
D03*
X424000D02*
D03*
X460000D02*
D03*
X448000D02*
D03*
X484000D02*
D03*
X508000D02*
D03*
X496000D02*
D03*
X536000D02*
D03*
X408000Y581600D02*
D03*
X404000D02*
D03*
X432000D02*
D03*
X428000D02*
D03*
X528000Y550800D02*
D03*
X524000D02*
D03*
X420000Y920800D02*
D03*
X416000Y581600D02*
D03*
X468000Y550800D02*
D03*
X488000D02*
D03*
X396000Y920800D02*
D03*
X424000D02*
D03*
X476000Y550800D02*
D03*
X392000Y920800D02*
D03*
X388000D02*
D03*
X384000D02*
D03*
X380000D02*
D03*
X376000D02*
D03*
X372000D02*
D03*
X408000D02*
D03*
X420000Y581600D02*
D03*
X544000Y550800D02*
D03*
X480000D02*
D03*
X504000D02*
D03*
X500000D02*
D03*
X540000D02*
D03*
X432000Y920800D02*
D03*
X512000Y550800D02*
D03*
X516000D02*
D03*
X412000Y920800D02*
D03*
X464000Y550800D02*
D03*
X492000D02*
D03*
X424000Y890000D02*
D03*
X348000Y550800D02*
D03*
Y581600D02*
D03*
X356000Y550800D02*
D03*
Y581600D02*
D03*
X360000Y550800D02*
D03*
Y581600D02*
D03*
X368000Y550800D02*
D03*
Y581600D02*
D03*
X372000Y550800D02*
D03*
Y581600D02*
D03*
X380000Y550800D02*
D03*
Y581600D02*
D03*
X384000Y550800D02*
D03*
Y581600D02*
D03*
X392000Y550800D02*
D03*
Y581600D02*
D03*
X396000Y550800D02*
D03*
Y581600D02*
D03*
X404000Y550800D02*
D03*
X408000D02*
D03*
X416000D02*
D03*
X420000D02*
D03*
X428000D02*
D03*
X432000D02*
D03*
X440000D02*
D03*
Y581600D02*
D03*
X444000Y550800D02*
D03*
Y581600D02*
D03*
X448000D02*
D03*
X452000Y550800D02*
D03*
Y581600D02*
D03*
X456000Y550800D02*
D03*
Y581600D02*
D03*
X460000D02*
D03*
X464000D02*
D03*
X468000D02*
D03*
X476000D02*
D03*
X480000D02*
D03*
X488000D02*
D03*
X492000D02*
D03*
X500000D02*
D03*
X504000D02*
D03*
X512000D02*
D03*
X516000D02*
D03*
X524000D02*
D03*
X528000D02*
D03*
X536000D02*
D03*
X540000D02*
D03*
X544000D02*
D03*
X348000Y890000D02*
D03*
Y920800D02*
D03*
X352000D02*
D03*
X356000Y890000D02*
D03*
Y920800D02*
D03*
X360000Y890000D02*
D03*
Y920800D02*
D03*
X364000Y890000D02*
D03*
Y920800D02*
D03*
X368000Y890000D02*
D03*
Y920800D02*
D03*
X372000Y890000D02*
D03*
X376000D02*
D03*
X380000D02*
D03*
X384000D02*
D03*
X388000D02*
D03*
X392000D02*
D03*
X396000D02*
D03*
X400000Y920800D02*
D03*
X404000Y890000D02*
D03*
X408000D02*
D03*
X412000D02*
D03*
X420000D02*
D03*
X432000D02*
D03*
X436000D02*
D03*
Y920800D02*
D03*
X440000Y890000D02*
D03*
X444000Y920800D02*
D03*
X448000Y890000D02*
D03*
Y920800D02*
D03*
X452000Y890000D02*
D03*
Y920800D02*
D03*
X456000Y890000D02*
D03*
Y920800D02*
D03*
X460000Y890000D02*
D03*
X464000Y920800D02*
D03*
X468000Y890000D02*
D03*
Y920800D02*
D03*
X472000Y890000D02*
D03*
Y920800D02*
D03*
X476000Y890000D02*
D03*
Y920800D02*
D03*
X480000Y890000D02*
D03*
X484000Y920800D02*
D03*
X488000Y890000D02*
D03*
Y920800D02*
D03*
X492000Y890000D02*
D03*
Y920800D02*
D03*
X496000Y890000D02*
D03*
Y920800D02*
D03*
X500000Y890000D02*
D03*
X504000Y920800D02*
D03*
X508000Y890000D02*
D03*
Y920800D02*
D03*
X512000Y890000D02*
D03*
Y920800D02*
D03*
X516000Y890000D02*
D03*
Y920800D02*
D03*
X524000Y890000D02*
D03*
Y920800D02*
D03*
X528000Y890000D02*
D03*
Y920800D02*
D03*
X536000Y890000D02*
D03*
Y920800D02*
D03*
X540000Y890000D02*
D03*
Y920800D02*
D03*
D16*
X39500Y848750D02*
D03*
X122500D02*
D03*
X39500Y711250D02*
D03*
X122500D02*
D03*
D17*
X96500Y757000D02*
D03*
Y779000D02*
D03*
Y812000D02*
D03*
Y768000D02*
D03*
Y746000D02*
D03*
Y735000D02*
D03*
Y790000D02*
D03*
Y801000D02*
D03*
D18*
X1918000Y340000D02*
D03*
D19*
X1957500Y370000D02*
D03*
Y366000D02*
D03*
Y362000D02*
D03*
Y358000D02*
D03*
Y354000D02*
D03*
Y350000D02*
D03*
Y346000D02*
D03*
Y342000D02*
D03*
Y338000D02*
D03*
Y334000D02*
D03*
Y330000D02*
D03*
Y326000D02*
D03*
Y322000D02*
D03*
Y318000D02*
D03*
Y314000D02*
D03*
Y310000D02*
D03*
X1878500D02*
D03*
Y314000D02*
D03*
Y318000D02*
D03*
Y322000D02*
D03*
Y326000D02*
D03*
Y330000D02*
D03*
Y334000D02*
D03*
Y338000D02*
D03*
Y342000D02*
D03*
Y346000D02*
D03*
Y350000D02*
D03*
Y354000D02*
D03*
Y358000D02*
D03*
Y362000D02*
D03*
Y366000D02*
D03*
Y370000D02*
D03*
D20*
X1888000Y379500D02*
D03*
X1892000D02*
D03*
X1896000D02*
D03*
X1900000D02*
D03*
X1904000D02*
D03*
X1908000D02*
D03*
X1912000D02*
D03*
X1916000D02*
D03*
X1920000D02*
D03*
X1924000D02*
D03*
X1928000D02*
D03*
X1932000D02*
D03*
X1936000D02*
D03*
X1940000D02*
D03*
X1944000D02*
D03*
X1948000D02*
D03*
Y300500D02*
D03*
X1944000D02*
D03*
X1940000D02*
D03*
X1936000D02*
D03*
X1932000D02*
D03*
X1928000D02*
D03*
X1924000D02*
D03*
X1920000D02*
D03*
X1916000D02*
D03*
X1912000D02*
D03*
X1908000D02*
D03*
X1904000D02*
D03*
X1900000D02*
D03*
X1896000D02*
D03*
X1892000D02*
D03*
X1888000D02*
D03*
D21*
X2071000Y244500D02*
D03*
Y339500D02*
D03*
M02*
