G04*
G04 #@! TF.GenerationSoftware,Altium Limited,Altium Designer,25.1.2 (22)*
G04*
G04 Layer_Physical_Order=4*
G04 Layer_Color=16711680*
%FSLAX44Y44*%
%MOMM*%
G71*
G04*
G04 #@! TF.SameCoordinates,47DE64E8-2747-4DE2-8CAA-9D4F0D5BEAA4*
G04*
G04*
G04 #@! TF.FilePolarity,Positive*
G04*
G01*
G75*
%ADD41C,0.1000*%
%ADD43C,3.3660*%
%ADD44C,1.2580*%
%ADD45C,1.6500*%
%ADD46C,1.1500*%
%ADD47C,5.8000*%
%ADD48C,0.5300*%
%ADD49R,1.6500X1.6500*%
%ADD50R,1.2580X1.2580*%
%ADD51C,3.0000*%
%ADD52C,0.4000*%
%ADD65R,0.9542X2.7062*%
%ADD66R,0.8000X0.9500*%
%ADD67R,1.0500X0.9000*%
%ADD68R,0.6000X1.2000*%
%ADD69R,2.4130X3.4290*%
%ADD70R,1.5000X2.1200*%
%ADD71R,2.7062X0.9542*%
%ADD72R,2.7500X1.2000*%
%ADD73R,1.5500X0.3000*%
D41*
X152500Y724836D02*
Y782232D01*
Y724836D02*
X381586Y495750D01*
X154750Y725768D02*
X382518Y498000D01*
X154750Y725768D02*
Y783164D01*
X459343Y495250D02*
X460250D01*
X381586Y495750D02*
X458843D01*
X459343Y495250D01*
X461000Y498000D02*
Y499250D01*
X461000Y493750D02*
Y495000D01*
X382518Y498000D02*
X461000D01*
X460250Y495250D02*
X460750D01*
X461000Y495000D01*
Y499250D02*
X461000Y499250D01*
X175250Y745268D02*
X411268Y509250D01*
X485500D01*
X485238Y507000D02*
X487027Y505211D01*
X485500Y509250D02*
X487000Y510750D01*
X410336Y507000D02*
X485238D01*
X173000Y744336D02*
X410336Y507000D01*
X132233Y802500D02*
X152500Y782232D01*
X117250Y802500D02*
X132233D01*
X130414Y807500D02*
X154750Y783164D01*
X117250Y807500D02*
X130414D01*
X173000Y744336D02*
Y781232D01*
X175250Y745268D02*
Y782164D01*
X136732Y817500D02*
X173000Y781232D01*
X117250Y817500D02*
X136732D01*
X134915Y822500D02*
X175250Y782164D01*
X117250Y822500D02*
X134915D01*
D43*
X151800Y675700D02*
D03*
X95000D02*
D03*
X151800Y544300D02*
D03*
X95000D02*
D03*
D44*
X130000Y610000D02*
D03*
X147000Y575000D02*
D03*
X115000D02*
D03*
X162000Y610000D02*
D03*
X115000Y600000D02*
D03*
X130000Y570000D02*
D03*
X115000Y620000D02*
D03*
X162000Y650000D02*
D03*
Y630000D02*
D03*
Y590000D02*
D03*
Y570000D02*
D03*
X147000Y620000D02*
D03*
X130000Y630000D02*
D03*
Y590000D02*
D03*
X147000Y600000D02*
D03*
X130000Y650000D02*
D03*
X147000Y645000D02*
D03*
D45*
X170000Y730000D02*
D03*
X1047000Y665100D02*
D03*
Y639700D02*
D03*
Y614300D02*
D03*
Y588900D02*
D03*
Y563500D02*
D03*
Y411100D02*
D03*
Y436500D02*
D03*
Y461900D02*
D03*
Y487300D02*
D03*
Y512700D02*
D03*
Y538100D02*
D03*
X1021600Y334900D02*
D03*
X1047000D02*
D03*
X1021600Y385700D02*
D03*
X1047000D02*
D03*
X1021600Y436500D02*
D03*
Y487300D02*
D03*
Y538100D02*
D03*
Y588900D02*
D03*
Y639700D02*
D03*
Y690500D02*
D03*
Y309500D02*
D03*
Y360300D02*
D03*
Y411100D02*
D03*
Y461900D02*
D03*
Y512700D02*
D03*
Y563500D02*
D03*
Y614300D02*
D03*
Y665100D02*
D03*
X1047000Y309500D02*
D03*
Y360300D02*
D03*
D46*
X170000Y930000D02*
D03*
D47*
X955000Y830000D02*
D03*
X755000D02*
D03*
X575000D02*
D03*
X455000D02*
D03*
D48*
X1948000Y310000D02*
D03*
X1936000D02*
D03*
X1924000D02*
D03*
X1912000D02*
D03*
X1900000D02*
D03*
X1888000D02*
D03*
X1948000Y322000D02*
D03*
X1936000D02*
D03*
X1924000D02*
D03*
X1912000D02*
D03*
X1900000D02*
D03*
X1888000D02*
D03*
X1948000Y334000D02*
D03*
X1936000D02*
D03*
X1924000D02*
D03*
X1912000D02*
D03*
X1900000D02*
D03*
X1888000D02*
D03*
X1948000Y346000D02*
D03*
X1936000D02*
D03*
X1924000D02*
D03*
X1912000D02*
D03*
X1900000D02*
D03*
X1888000D02*
D03*
X1948000Y358000D02*
D03*
X1936000D02*
D03*
X1924000D02*
D03*
X1912000D02*
D03*
X1900000D02*
D03*
X1888000D02*
D03*
X1948000Y370000D02*
D03*
X1936000D02*
D03*
X1924000D02*
D03*
X1912000D02*
D03*
X1900000D02*
D03*
X1888000D02*
D03*
D49*
X1047000Y690500D02*
D03*
D50*
X115000Y645000D02*
D03*
D51*
X1050000Y50000D02*
D03*
Y920000D02*
D03*
X50000D02*
D03*
Y50000D02*
D03*
D52*
X461000Y493750D02*
D03*
Y499250D02*
D03*
X487027Y505211D02*
D03*
X487000Y510750D02*
D03*
D65*
X276250Y835000D02*
D03*
X243750D02*
D03*
D66*
X343424Y822001D02*
D03*
X356424D02*
D03*
X323920Y822000D02*
D03*
X310920D02*
D03*
D67*
X320000Y774000D02*
D03*
Y790000D02*
D03*
D68*
X336419Y793500D02*
D03*
Y770500D02*
D03*
X345920D02*
D03*
X355420D02*
D03*
Y793500D02*
D03*
X345920D02*
D03*
D69*
X295920Y782000D02*
D03*
X237500D02*
D03*
D70*
X315000Y752150D02*
D03*
Y709850D02*
D03*
D71*
X347000Y721750D02*
D03*
Y754250D02*
D03*
D72*
X125000Y726500D02*
D03*
Y933500D02*
D03*
D73*
X117250Y737500D02*
D03*
X192750Y740000D02*
D03*
X117250Y742500D02*
D03*
X192750Y745000D02*
D03*
X117250Y747500D02*
D03*
X192750Y750000D02*
D03*
X117250Y752500D02*
D03*
X192750Y755000D02*
D03*
X117250Y757500D02*
D03*
X192750Y780000D02*
D03*
X117250Y782500D02*
D03*
X192750Y784999D02*
D03*
X117250Y797500D02*
D03*
X192750Y805000D02*
D03*
Y810000D02*
D03*
X117250Y812500D02*
D03*
X192750Y815000D02*
D03*
Y820000D02*
D03*
Y825000D02*
D03*
X117250Y827500D02*
D03*
X192750Y830000D02*
D03*
X117250Y832500D02*
D03*
X192750Y835000D02*
D03*
X117250Y837500D02*
D03*
X192750Y840000D02*
D03*
X117250Y842499D02*
D03*
X192750Y845000D02*
D03*
X117250Y847500D02*
D03*
X192750Y850000D02*
D03*
X117250Y852500D02*
D03*
X192750Y855000D02*
D03*
X117250Y857500D02*
D03*
X192750Y860000D02*
D03*
X117250Y862500D02*
D03*
X192750Y865000D02*
D03*
X117250Y867500D02*
D03*
X192750Y870000D02*
D03*
X117250Y872500D02*
D03*
X192750Y875000D02*
D03*
X117250Y877500D02*
D03*
X192750Y880000D02*
D03*
X117250Y882500D02*
D03*
X192750Y885000D02*
D03*
X117250Y887500D02*
D03*
X192750Y890000D02*
D03*
X117250Y892500D02*
D03*
X192750Y895000D02*
D03*
X117250Y897500D02*
D03*
X192750Y899999D02*
D03*
X117250Y902500D02*
D03*
X192750Y905000D02*
D03*
X117250Y907500D02*
D03*
X192750Y909999D02*
D03*
X117250Y912500D02*
D03*
X192750Y915000D02*
D03*
X117250Y917500D02*
D03*
X192750Y920000D02*
D03*
X117250Y922500D02*
D03*
Y817500D02*
D03*
Y822500D02*
D03*
Y792500D02*
D03*
Y807500D02*
D03*
Y802500D02*
D03*
Y787500D02*
D03*
X192750Y800000D02*
D03*
Y795000D02*
D03*
Y790000D02*
D03*
M02*
