G04*
G04 #@! TF.GenerationSoftware,Altium Limited,Altium Designer,25.1.2 (22)*
G04*
G04 Layer_Color=65535*
%FSLAX44Y44*%
%MOMM*%
G71*
G04*
G04 #@! TF.SameCoordinates,47DE64E8-2747-4DE2-8CAA-9D4F0D5BEAA4*
G04*
G04*
G04 #@! TF.FilePolarity,Positive*
G04*
G01*
G75*
%ADD10C,0.2000*%
%ADD11C,0.1200*%
%ADD12C,0.2540*%
%ADD13C,0.1270*%
%ADD14C,0.1500*%
D10*
X97500Y862500D02*
G03*
X97500Y862500I-1000J0D01*
G01*
X1869400Y370000D02*
G03*
X1869400Y370000I-1000J0D01*
G01*
X1048000Y777500D02*
G03*
X1048000Y777500I-1000J0D01*
G01*
D11*
X231000Y935800D02*
G03*
X196000Y900800I0J-35000D01*
G01*
Y570800D02*
G03*
X231000Y535800I35000J0D01*
G01*
X711000D02*
G03*
X746000Y570800I0J35000D01*
G01*
Y900800D02*
G03*
X711000Y935800I-35000J0D01*
G01*
X332000Y886500D02*
X342000D01*
X332000Y924300D02*
X342000D01*
X332000Y547300D02*
X342000D01*
X332000Y585100D02*
X342000D01*
X550000D02*
X560000D01*
X550000Y547300D02*
X560000D01*
Y585100D01*
X332000Y547300D02*
Y585100D01*
Y886500D02*
Y924300D01*
X560000Y886500D02*
Y924300D01*
X746000Y570800D02*
Y900800D01*
X231000Y535800D02*
X711000D01*
X196000Y570800D02*
Y900800D01*
X231000Y935800D02*
X711000D01*
D12*
X229602Y845800D02*
G03*
X229602Y845800I-8602J0D01*
G01*
X196000Y830800D02*
X261000D01*
Y720800D02*
Y830800D01*
X196000Y720800D02*
X261000D01*
X196000D02*
X231000D01*
X589000Y630800D02*
Y778800D01*
X442000Y630800D02*
X589000D01*
X442000D02*
Y778800D01*
X589000D01*
X299000Y637800D02*
X320000D01*
X299000Y610800D02*
Y637800D01*
Y610800D02*
X320000D01*
Y637800D01*
X300000Y698800D02*
X321000D01*
X300000Y671800D02*
Y698800D01*
Y671800D02*
X321000D01*
Y698800D01*
X215000Y697800D02*
X236000D01*
X215000Y670800D02*
Y697800D01*
Y670800D02*
X236000D01*
Y697800D01*
X215000Y638800D02*
X236000D01*
X215000Y611800D02*
Y638800D01*
Y611800D02*
X236000D01*
Y638800D01*
X290000Y627800D02*
Y678800D01*
X243000Y627800D02*
X290000D01*
X243000D02*
Y678800D01*
X290000D01*
X606000Y777800D02*
X732000D01*
Y630800D02*
Y777800D01*
X606000Y630800D02*
X732000D01*
X606000D02*
Y777800D01*
X277540Y596672D02*
Y606669D01*
X282539D01*
X284205Y605003D01*
Y601671D01*
X282539Y600005D01*
X277540D01*
X280872D02*
X284205Y596672D01*
X289203Y603337D02*
X292535D01*
X294201Y601671D01*
Y596672D01*
X289203D01*
X287537Y598339D01*
X289203Y600005D01*
X294201D01*
X297534Y596672D02*
X302532D01*
X304198Y598339D01*
X302532Y600005D01*
X299200D01*
X297534Y601671D01*
X299200Y603337D01*
X304198D01*
X307530Y593340D02*
Y603337D01*
X312529D01*
X314195Y601671D01*
Y598339D01*
X312529Y596672D01*
X307530D01*
X317527Y606669D02*
Y596672D01*
X322526D01*
X324192Y598339D01*
Y600005D01*
Y601671D01*
X322526Y603337D01*
X317527D01*
X332522Y596672D02*
X329190D01*
X327524Y598339D01*
Y601671D01*
X329190Y603337D01*
X332522D01*
X334188Y601671D01*
Y600005D01*
X327524D01*
X337521Y603337D02*
Y596672D01*
Y600005D01*
X339187Y601671D01*
X340853Y603337D01*
X342519D01*
X347518D02*
Y596672D01*
Y600005D01*
X349184Y601671D01*
X350850Y603337D01*
X352516D01*
X357514D02*
Y598339D01*
X359180Y596672D01*
X364179D01*
Y595006D01*
X362513Y593340D01*
X360847D01*
X364179Y596672D02*
Y603337D01*
X377508Y596672D02*
Y606669D01*
X382506D01*
X384172Y605003D01*
Y601671D01*
X382506Y600005D01*
X377508D01*
X387505Y596672D02*
X390837D01*
X389171D01*
Y603337D01*
X387505D01*
X412497Y605003D02*
X410830Y606669D01*
X407498D01*
X405832Y605003D01*
Y598339D01*
X407498Y596672D01*
X410830D01*
X412497Y598339D01*
X417495Y596672D02*
X420827D01*
X422493Y598339D01*
Y601671D01*
X420827Y603337D01*
X417495D01*
X415829Y601671D01*
Y598339D01*
X417495Y596672D01*
X425826D02*
Y603337D01*
X427492D01*
X429158Y601671D01*
Y596672D01*
Y601671D01*
X430824Y603337D01*
X432490Y601671D01*
Y596672D01*
X435822Y593340D02*
Y603337D01*
X440821D01*
X442487Y601671D01*
Y598339D01*
X440821Y596672D01*
X435822D01*
X445819Y603337D02*
Y598339D01*
X447485Y596672D01*
X452484D01*
Y603337D01*
X457482Y605003D02*
Y603337D01*
X455816D01*
X459148D01*
X457482D01*
Y598339D01*
X459148Y596672D01*
X469145D02*
X465813D01*
X464147Y598339D01*
Y601671D01*
X465813Y603337D01*
X469145D01*
X470811Y601671D01*
Y600005D01*
X464147D01*
X484140Y596672D02*
Y606669D01*
X487472Y603337D01*
X490805Y606669D01*
Y596672D01*
X495803D02*
X499135D01*
X500802Y598339D01*
Y601671D01*
X499135Y603337D01*
X495803D01*
X494137Y601671D01*
Y598339D01*
X495803Y596672D01*
X510798Y606669D02*
Y596672D01*
X505800D01*
X504134Y598339D01*
Y601671D01*
X505800Y603337D01*
X510798D01*
X514131D02*
Y598339D01*
X515797Y596672D01*
X520795D01*
Y603337D01*
X524127Y596672D02*
X527460D01*
X525793D01*
Y606669D01*
X524127D01*
X537456Y596672D02*
X534124D01*
X532458Y598339D01*
Y601671D01*
X534124Y603337D01*
X537456D01*
X539123Y601671D01*
Y600005D01*
X532458D01*
X557450Y596672D02*
Y606669D01*
X552452Y601671D01*
X559116D01*
X509203Y701672D02*
X507537Y703338D01*
X504205D01*
X502538Y701672D01*
Y695008D01*
X504205Y693342D01*
X507537D01*
X509203Y695008D01*
X512535Y693342D02*
Y703338D01*
X517534D01*
X519200Y701672D01*
Y698340D01*
X517534Y696674D01*
X512535D01*
X522532Y703338D02*
Y695008D01*
X524198Y693342D01*
X527530D01*
X529197Y695008D01*
Y703338D01*
X660540Y700340D02*
Y710337D01*
X665538D01*
X667205Y708671D01*
Y705339D01*
X665538Y703672D01*
X660540D01*
X663872D02*
X667205Y700340D01*
X670537D02*
Y707005D01*
X673869Y710337D01*
X677201Y707005D01*
Y700340D01*
Y705339D01*
X670537D01*
X680534Y700340D02*
Y710337D01*
X683866Y707005D01*
X687198Y710337D01*
Y700340D01*
X253392Y649784D02*
Y659781D01*
X258390D01*
X260056Y658115D01*
Y654783D01*
X258390Y653117D01*
X253392D01*
X263389Y659781D02*
Y649784D01*
X266721Y653117D01*
X270053Y649784D01*
Y659781D01*
X273385Y649784D02*
Y659781D01*
X278384D01*
X280050Y658115D01*
Y654783D01*
X278384Y653117D01*
X273385D01*
X276717D02*
X280050Y649784D01*
X197278Y959327D02*
Y944092D01*
X204895D01*
X207435Y946631D01*
Y956788D01*
X204895Y959327D01*
X197278D01*
X212513D02*
Y944092D01*
X220131D01*
X222670Y946631D01*
Y956788D01*
X220131Y959327D01*
X212513D01*
X227748Y944092D02*
X232826D01*
X230287D01*
Y959327D01*
X227748Y956788D01*
X2045890Y392653D02*
X2056047D01*
Y390114D01*
X2045890Y379957D01*
Y377418D01*
X2056047D01*
X2071282Y379957D02*
Y390114D01*
X2068743Y392653D01*
X2063664D01*
X2061125Y390114D01*
Y379957D01*
X2063664Y377418D01*
X2068743D01*
X2066203Y382496D02*
X2071282Y377418D01*
X2068743D02*
X2071282Y379957D01*
X2076360Y377418D02*
X2081438D01*
X2078899D01*
Y392653D01*
X2076360Y390114D01*
X1868852Y409163D02*
Y396467D01*
X1871391Y393928D01*
X1876470D01*
X1879009Y396467D01*
Y409163D01*
X1884087Y393928D02*
X1889165D01*
X1886626D01*
Y409163D01*
X1884087Y406624D01*
X1013126Y876523D02*
X1023283Y861288D01*
Y876523D02*
X1013126Y861288D01*
X1028361D02*
Y876523D01*
X1035979D01*
X1038518Y873984D01*
Y868905D01*
X1035979Y866366D01*
X1028361D01*
X1043596Y861288D02*
X1048674D01*
X1046135D01*
Y876523D01*
X1043596Y873984D01*
X63457Y779555D02*
Y774476D01*
Y777015D01*
X76152D01*
X78692Y774476D01*
Y771937D01*
X76152Y769398D01*
X65996Y784633D02*
X63457Y787172D01*
Y792251D01*
X65996Y794790D01*
X68535D01*
X71074Y792251D01*
Y789711D01*
Y792251D01*
X73613Y794790D01*
X76152D01*
X78692Y792251D01*
Y787172D01*
X76152Y784633D01*
X10331Y718027D02*
X5252D01*
X7792D01*
Y705331D01*
X5252Y702792D01*
X2713D01*
X174Y705331D01*
X25566Y702792D02*
X15409D01*
X25566Y712949D01*
Y715488D01*
X23027Y718027D01*
X17948D01*
X15409Y715488D01*
D13*
X52700Y848750D02*
X109300D01*
X52700Y711250D02*
X109300D01*
X135700D02*
X141000D01*
X135700Y848750D02*
X141000D01*
Y711250D02*
Y848750D01*
X3000Y711250D02*
X26300D01*
X3000D02*
Y848750D01*
X26300D01*
X1878000Y374300D02*
Y380000D01*
Y300000D02*
Y305700D01*
X1958000Y374300D02*
Y380000D01*
Y300000D02*
Y305700D01*
X1878000Y380000D02*
X1883700D01*
X1878000Y300000D02*
X1883700D01*
X1952300Y380000D02*
X1958000D01*
X1952300Y300000D02*
X1958000D01*
X2046000Y233500D02*
Y350500D01*
X2057850D01*
X2046000Y233500D02*
X2057850D01*
X2096000D02*
Y350500D01*
X2084150Y233500D02*
X2096000D01*
X2084150Y350500D02*
X2096000D01*
X115030Y677500D02*
X131770D01*
X500D02*
X74970D01*
X171830D02*
X172500D01*
X115030Y542500D02*
X131770D01*
X500D02*
X74970D01*
X171830D02*
X172500D01*
Y677500D01*
X500Y542500D02*
Y677500D01*
D14*
X1047400Y283700D02*
X1059900D01*
X1047400Y235000D02*
X1100000D01*
X1047400D02*
Y283700D01*
X1059900D02*
Y716300D01*
X1047400Y765000D02*
X1100000D01*
X1047400Y716300D02*
X1059900D01*
X1047400D02*
Y765000D01*
M02*
