M48
;Layer_Color=9474304
;FILE_FORMAT=4:4
METRIC,LZ
;TYPE=PLATED
T01F00S00C0.2000
T02F00S00C0.3300
T03F00S00C0.7500
T04F00S00C1.1000
T05F00S00C2.3500
T06F00S00C3.7000
;TYPE=NON_PLATED
T07F00S00C1.1500
T08F00S00C1.6500
T09F00S00C2.9000
T10F00S00C3.2000
%
T01
X00461Y0049375
Y0049925
X00487027Y00505211
X00487Y0051075
T02
X01888Y0031
X019
X01912
X01924
X01936
X01948
Y00322
X01936
X01924
X01912
X019
X01888
Y00334
X019
X01912
X01924
X01936
X01948
Y00346
X01936
X01924
X01912
X019
X01888
Y00358
X019
X01912
X01924
X01936
X01948
Y0037
X01936
X01924
X01912
X019
X01888
T03
X00115Y00575
X0013Y0057
Y0059
Y0061
Y0063
Y0065
X00115Y00645
Y0062
Y006
X00147
Y0062
X00162Y0061
Y0063
Y0065
X00147Y00645
Y00575
X00162Y0057
Y0059
T04
X010216Y003095
Y003349
X01047
Y003095
Y003603
Y003857
Y004111
Y004365
Y004619
Y004873
X010216
Y004619
Y004365
Y004111
Y003857
Y003603
Y005127
X01047
Y005381
Y005635
Y005889
Y006143
Y006397
Y006651
Y006905
X010216
Y006651
Y006397
Y006143
Y005889
Y005635
Y005381
T05
X00095Y005443
X001518
Y006757
X00095
T06
X00455Y0083
X00575
X00755
X00955
T07
X0017Y0093
T08
X0017Y0073
T09
X010724Y002587
Y007413
T10
X0005Y0005
X0105
Y0092
X0005
M30
