G04*
G04 #@! TF.GenerationSoftware,Altium Limited,Altium Designer,24.6.1 (21)*
G04*
G04 Layer_Color=16711935*
%FSLAX44Y44*%
%MOMM*%
G71*
G04*
G04 #@! TF.SameCoordinates,CCAA4E5F-2FC3-434B-9A72-F03C45C484B0*
G04*
G04*
G04 #@! TF.FilePolarity,Negative*
G04*
G01*
G75*
%ADD47C,3.0000*%
%ADD48C,3.4000*%
%ADD50C,2.4050*%
%ADD51R,1.4480X1.4480*%
%ADD52C,1.4480*%
%ADD53C,3.4500*%
%ADD54C,1.5740*%
%ADD55C,6.2500*%
%ADD56R,1.5740X1.5740*%
%ADD57R,1.7000X1.7000*%
%ADD58C,1.7500*%
%ADD59R,1.5580X1.5580*%
%ADD60C,1.5580*%
%ADD61C,1.7000*%
%ADD62C,2.6000*%
%ADD63R,2.6000X2.6000*%
%ADD113C,4.5500*%
D47*
X986400Y716300D02*
D03*
Y233700D02*
D03*
D48*
X809091Y345000D02*
D03*
X669091D02*
D03*
X246400Y35000D02*
D03*
X930400Y55000D02*
D03*
Y895000D02*
D03*
X246400Y915000D02*
D03*
D50*
X102700Y758700D02*
D03*
Y921300D02*
D03*
D51*
X93800Y804200D02*
D03*
D52*
X111600Y814400D02*
D03*
X93800Y824600D02*
D03*
X111600Y834800D02*
D03*
X93800Y845000D02*
D03*
X111600Y855200D02*
D03*
X93800Y865400D02*
D03*
X111600Y875600D02*
D03*
D53*
X68400Y776500D02*
D03*
Y903500D02*
D03*
D54*
X790300Y165300D02*
D03*
X764900Y190700D02*
D03*
X739500D02*
D03*
X714100D02*
D03*
X688700D02*
D03*
X663300D02*
D03*
X764900Y165300D02*
D03*
X739500D02*
D03*
X714100D02*
D03*
X688700D02*
D03*
X663300D02*
D03*
X637900Y190700D02*
D03*
Y165300D02*
D03*
X612500Y190700D02*
D03*
X587100D02*
D03*
X561700D02*
D03*
X536300D02*
D03*
X510900D02*
D03*
X485500D02*
D03*
X612500Y165300D02*
D03*
X587100D02*
D03*
X561700D02*
D03*
X536300D02*
D03*
X510900D02*
D03*
X485500D02*
D03*
X460100Y190700D02*
D03*
Y165300D02*
D03*
X434700Y190700D02*
D03*
X409300D02*
D03*
X383900D02*
D03*
X358500D02*
D03*
X333100D02*
D03*
X307700D02*
D03*
X434700Y165300D02*
D03*
X409300D02*
D03*
X383900D02*
D03*
X358500D02*
D03*
X333100D02*
D03*
X307700D02*
D03*
D55*
X839000Y668000D02*
D03*
X259000D02*
D03*
Y178000D02*
D03*
X839000D02*
D03*
D56*
X790300Y190700D02*
D03*
D57*
X1046000Y57000D02*
D03*
X960400Y665500D02*
D03*
D58*
X1046000Y82000D02*
D03*
Y107000D02*
D03*
Y132000D02*
D03*
D59*
X845250Y870000D02*
D03*
D60*
Y770000D02*
D03*
Y795000D02*
D03*
Y820000D02*
D03*
Y845000D02*
D03*
X1072000Y907000D02*
D03*
Y797000D02*
D03*
D61*
X935000Y665500D02*
D03*
Y640100D02*
D03*
Y309900D02*
D03*
Y386100D02*
D03*
Y411500D02*
D03*
Y436900D02*
D03*
Y462300D02*
D03*
Y487700D02*
D03*
Y513100D02*
D03*
Y538500D02*
D03*
Y563900D02*
D03*
Y589300D02*
D03*
Y614700D02*
D03*
Y284500D02*
D03*
X960400Y309900D02*
D03*
Y386100D02*
D03*
Y335300D02*
D03*
Y411500D02*
D03*
Y436900D02*
D03*
Y360700D02*
D03*
Y284500D02*
D03*
Y462300D02*
D03*
Y487700D02*
D03*
Y513100D02*
D03*
Y538500D02*
D03*
Y563900D02*
D03*
Y589300D02*
D03*
Y614700D02*
D03*
Y640100D02*
D03*
X909600Y411500D02*
D03*
Y386100D02*
D03*
Y360700D02*
D03*
Y335300D02*
D03*
Y309900D02*
D03*
Y284500D02*
D03*
Y462300D02*
D03*
Y436900D02*
D03*
Y487700D02*
D03*
Y538500D02*
D03*
Y513100D02*
D03*
Y563900D02*
D03*
Y665500D02*
D03*
Y640100D02*
D03*
Y614700D02*
D03*
Y589300D02*
D03*
X935000Y360700D02*
D03*
Y335300D02*
D03*
D62*
X972000Y827000D02*
D03*
D63*
Y877000D02*
D03*
D113*
X769000Y910000D02*
D03*
Y620000D02*
D03*
X329000Y910000D02*
D03*
Y620000D02*
D03*
M02*
