G04*
G04 #@! TF.GenerationSoftware,Altium Limited,Altium Designer,24.6.1 (21)*
G04*
G04 Layer_Color=32896*
%FSLAX44Y44*%
%MOMM*%
G71*
G04*
G04 #@! TF.SameCoordinates,CCAA4E5F-2FC3-434B-9A72-F03C45C484B0*
G04*
G04*
G04 #@! TF.FilePolarity,Positive*
G04*
G01*
G75*
%ADD10C,0.2000*%
%ADD16C,0.1500*%
D10*
X1070000Y775000D02*
G03*
X1100000Y805000I0J30000D01*
G01*
D16*
X906706Y945385D02*
G03*
X960000Y930000I53294J84615D01*
G01*
X906706Y945385D02*
G03*
X890718Y950000I-15988J-25385D01*
G01*
Y0D02*
G03*
X906706Y4615I0J30000D01*
G01*
X960000Y20000D02*
G03*
X906706Y4615I0J-100000D01*
G01*
X1027000Y775000D02*
G03*
X1014000Y762000I0J-13000D01*
G01*
Y188000D02*
G03*
X1027000Y175000I13000J0D01*
G01*
X0Y20000D02*
G03*
X20000Y0I20000J0D01*
G01*
Y950000D02*
G03*
X0Y930000I0J-20000D01*
G01*
X1100000Y900000D02*
G03*
X1070000Y930000I-30000J-0D01*
G01*
Y20000D02*
G03*
X1100000Y50000I0J30000D01*
G01*
Y145000D02*
G03*
X1070000Y175000I-30000J0D01*
G01*
X960000Y930000D02*
X1070000D01*
X20000Y950000D02*
X890718Y950000D01*
X20000Y-0D02*
X890718Y0D01*
X960000Y20000D02*
X1070000D01*
X1027000Y175000D02*
X1070000D01*
X1100000Y50000D02*
Y145000D01*
X1014000Y188000D02*
Y762000D01*
X1027000Y775000D02*
X1070000D01*
X0Y20000D02*
Y930000D01*
X1100000Y805000D02*
Y900000D01*
M02*
