G04*
G04 #@! TF.GenerationSoftware,Altium Limited,Altium Designer,25.3.3 (18)*
G04*
G04 Layer_Color=65535*
%FSLAX44Y44*%
%MOMM*%
G71*
G04*
G04 #@! TF.SameCoordinates,DC2281EB-3176-4783-8F17-9C8BCD24AA64*
G04*
G04*
G04 #@! TF.FilePolarity,Positive*
G04*
G01*
G75*
%ADD10C,0.2000*%
%ADD11C,0.1500*%
%ADD12C,0.2540*%
%ADD13C,0.6000*%
%ADD14C,0.2500*%
%ADD15C,0.1000*%
%ADD16C,0.3000*%
%ADD17C,0.1200*%
%ADD18C,0.1270*%
%ADD19C,0.1524*%
%ADD20C,0.1800*%
G36*
X970500Y147000D02*
X963000D01*
Y165750D01*
X970500D01*
Y147000D01*
D02*
G37*
G36*
X467380Y447476D02*
X467795Y447425D01*
X468002Y447373D01*
X468184Y447295D01*
Y445792D01*
X468158Y445818D01*
X468106Y445844D01*
X468002Y445896D01*
X467847Y445948D01*
X467691Y446000D01*
X467484Y446026D01*
X467277Y446077D01*
X466966D01*
X466888Y446051D01*
X466785D01*
X466500Y445948D01*
X466344Y445896D01*
X466189Y445792D01*
X466007Y445689D01*
X465852Y445533D01*
X465722Y445352D01*
X465593Y445119D01*
X465463Y444860D01*
X465386Y444575D01*
X465334Y444212D01*
X465308Y443823D01*
Y442217D01*
X467769D01*
Y440766D01*
X465308D01*
Y431698D01*
X463624D01*
Y440766D01*
X461836D01*
Y442217D01*
X463624D01*
Y443901D01*
Y443927D01*
Y443979D01*
Y444057D01*
X463650Y444186D01*
X463676Y444471D01*
X463753Y444860D01*
X463857Y445274D01*
X464012Y445715D01*
X464246Y446129D01*
X464557Y446518D01*
X464608Y446570D01*
X464738Y446673D01*
X464945Y446829D01*
X465204Y447010D01*
X465567Y447191D01*
X465956Y447347D01*
X466422Y447450D01*
X466940Y447502D01*
X467199D01*
X467380Y447476D01*
D02*
G37*
G36*
X424399D02*
X424814Y447425D01*
X425021Y447373D01*
X425202Y447295D01*
Y445792D01*
X425176Y445818D01*
X425125Y445844D01*
X425021Y445896D01*
X424865Y445948D01*
X424710Y446000D01*
X424503Y446026D01*
X424295Y446077D01*
X423984D01*
X423907Y446051D01*
X423803D01*
X423518Y445948D01*
X423363Y445896D01*
X423207Y445792D01*
X423026Y445689D01*
X422870Y445533D01*
X422741Y445352D01*
X422611Y445119D01*
X422482Y444860D01*
X422404Y444575D01*
X422352Y444212D01*
X422326Y443823D01*
Y442217D01*
X424788D01*
Y440766D01*
X422326D01*
Y431698D01*
X420642D01*
Y440766D01*
X418855D01*
Y442217D01*
X420642D01*
Y443901D01*
Y443927D01*
Y443979D01*
Y444057D01*
X420668Y444186D01*
X420694Y444471D01*
X420772Y444860D01*
X420876Y445274D01*
X421031Y445715D01*
X421264Y446129D01*
X421575Y446518D01*
X421627Y446570D01*
X421757Y446673D01*
X421964Y446829D01*
X422223Y447010D01*
X422585Y447191D01*
X422974Y447347D01*
X423441Y447450D01*
X423959Y447502D01*
X424218D01*
X424399Y447476D01*
D02*
G37*
G36*
X475697Y447036D02*
X475801Y447010D01*
X476060Y446932D01*
X476189Y446829D01*
X476319Y446725D01*
X476345Y446699D01*
X476371Y446673D01*
X476500Y446518D01*
X476604Y446259D01*
X476630Y446103D01*
X476656Y445948D01*
Y445922D01*
Y445870D01*
X476630Y445792D01*
X476604Y445689D01*
X476526Y445456D01*
X476422Y445326D01*
X476319Y445196D01*
X476293D01*
X476267Y445145D01*
X476189Y445093D01*
X476086Y445041D01*
X475852Y444937D01*
X475697Y444911D01*
X475541Y444886D01*
X475464D01*
X475386Y444911D01*
X475282D01*
X475023Y445015D01*
X474894Y445067D01*
X474764Y445171D01*
Y445196D01*
X474712Y445222D01*
X474609Y445378D01*
X474505Y445637D01*
X474479Y445792D01*
X474453Y445948D01*
Y445974D01*
Y446026D01*
X474479Y446103D01*
X474505Y446233D01*
X474583Y446466D01*
X474661Y446595D01*
X474764Y446725D01*
X474790Y446751D01*
X474816Y446777D01*
X474972Y446906D01*
X475231Y447010D01*
X475386Y447036D01*
X475541Y447062D01*
X475619D01*
X475697Y447036D01*
D02*
G37*
G36*
X351131Y442450D02*
X351364Y442398D01*
X351623Y442347D01*
X351908Y442243D01*
X352245Y442113D01*
X352556Y441932D01*
X352893Y441699D01*
X353204Y441440D01*
X353489Y441077D01*
X353748Y440663D01*
X353981Y440170D01*
X354137Y439600D01*
X354266Y438927D01*
X354292Y438175D01*
Y431698D01*
X352608D01*
Y437735D01*
Y437761D01*
Y437813D01*
Y437890D01*
Y438020D01*
X352582Y438331D01*
X352530Y438694D01*
X352478Y439108D01*
X352375Y439523D01*
X352245Y439911D01*
X352064Y440248D01*
X352038Y440274D01*
X351960Y440378D01*
X351831Y440507D01*
X351623Y440663D01*
X351390Y440792D01*
X351079Y440922D01*
X350691Y441025D01*
X350250Y441051D01*
X350199D01*
X350069Y441025D01*
X349888Y440999D01*
X349629Y440922D01*
X349344Y440818D01*
X349033Y440637D01*
X348722Y440378D01*
X348437Y440041D01*
X348411Y439989D01*
X348333Y439859D01*
X348204Y439652D01*
X348074Y439367D01*
X347919Y439030D01*
X347815Y438642D01*
X347711Y438175D01*
X347686Y437683D01*
Y431698D01*
X346002D01*
Y437942D01*
Y437968D01*
Y438072D01*
X345976Y438227D01*
Y438434D01*
X345924Y438668D01*
X345872Y438927D01*
X345794Y439212D01*
X345691Y439497D01*
X345561Y439782D01*
X345406Y440067D01*
X345224Y440326D01*
X344991Y440559D01*
X344706Y440766D01*
X344395Y440922D01*
X344007Y441025D01*
X343592Y441051D01*
X343540D01*
X343411Y441025D01*
X343203Y440999D01*
X342944Y440948D01*
X342659Y440818D01*
X342348Y440663D01*
X342038Y440429D01*
X341753Y440118D01*
X341727Y440067D01*
X341649Y439963D01*
X341519Y439756D01*
X341416Y439471D01*
X341286Y439108D01*
X341157Y438694D01*
X341079Y438227D01*
X341053Y437683D01*
Y431698D01*
X339369D01*
Y442217D01*
X341053D01*
Y440533D01*
X341079D01*
X341105Y440559D01*
X341131Y440611D01*
X341208Y440714D01*
X341286Y440844D01*
X341545Y441155D01*
X341908Y441518D01*
X342374Y441854D01*
X342918Y442165D01*
X343255Y442295D01*
X343592Y442398D01*
X343955Y442450D01*
X344343Y442476D01*
X344525D01*
X344732Y442450D01*
X344991Y442398D01*
X345276Y442321D01*
X345613Y442217D01*
X345924Y442062D01*
X346235Y441854D01*
X346260Y441828D01*
X346364Y441751D01*
X346494Y441621D01*
X346675Y441440D01*
X346856Y441207D01*
X347038Y440948D01*
X347193Y440637D01*
X347323Y440274D01*
X347349Y440300D01*
X347375Y440378D01*
X347452Y440481D01*
X347530Y440611D01*
X347660Y440792D01*
X347815Y440974D01*
X347996Y441181D01*
X348204Y441388D01*
X348437Y441569D01*
X348696Y441777D01*
X348981Y441958D01*
X349292Y442139D01*
X349629Y442269D01*
X349991Y442373D01*
X350406Y442450D01*
X350820Y442476D01*
X350976D01*
X351131Y442450D01*
D02*
G37*
G36*
X443778Y442373D02*
X444115Y442347D01*
X444271Y442295D01*
X444426Y442243D01*
Y440481D01*
X444400Y440507D01*
X444348Y440533D01*
X444245Y440585D01*
X444089Y440663D01*
X443908Y440740D01*
X443675Y440792D01*
X443415Y440818D01*
X443131Y440844D01*
X443079D01*
X442949Y440818D01*
X442768Y440792D01*
X442509Y440714D01*
X442224Y440585D01*
X441939Y440404D01*
X441628Y440144D01*
X441343Y439808D01*
X441317Y439756D01*
X441239Y439626D01*
X441110Y439393D01*
X440980Y439082D01*
X440851Y438694D01*
X440721Y438201D01*
X440643Y437657D01*
X440617Y437035D01*
Y431698D01*
X438933D01*
Y442217D01*
X440617D01*
Y440041D01*
X440643D01*
Y440067D01*
X440669Y440093D01*
X440721Y440222D01*
X440799Y440429D01*
X440928Y440689D01*
X441058Y440948D01*
X441265Y441233D01*
X441472Y441518D01*
X441731Y441777D01*
X441757Y441802D01*
X441861Y441880D01*
X442016Y441984D01*
X442224Y442088D01*
X442483Y442191D01*
X442768Y442295D01*
X443079Y442373D01*
X443415Y442398D01*
X443649D01*
X443778Y442373D01*
D02*
G37*
G36*
X513186Y435870D02*
X511787D01*
X511580Y446440D01*
X513367D01*
X513186Y435870D01*
D02*
G37*
G36*
X546970Y433590D02*
X548213Y434885D01*
X549742D01*
X546296Y431595D01*
X546270D01*
X542825Y434885D01*
X544353D01*
X545597Y433616D01*
Y445948D01*
X546970D01*
Y433590D01*
D02*
G37*
G36*
X536943D02*
X538187Y434885D01*
X539716D01*
X536270Y431595D01*
X536244D01*
X532798Y434885D01*
X534327D01*
X535570Y433616D01*
Y445948D01*
X536943D01*
Y433590D01*
D02*
G37*
G36*
X526917D02*
X528161Y434885D01*
X529689D01*
X526243Y431595D01*
X526217D01*
X522772Y434885D01*
X524300D01*
X525544Y433616D01*
Y445948D01*
X526917D01*
Y433590D01*
D02*
G37*
G36*
X373879Y431698D02*
X372220D01*
X368256Y442217D01*
X370096D01*
X372738Y434574D01*
X372764Y434548D01*
X372790Y434445D01*
X372842Y434263D01*
X372894Y434082D01*
X372972Y433849D01*
X373023Y433590D01*
X373127Y433097D01*
X373153D01*
Y433123D01*
X373179Y433227D01*
X373205Y433382D01*
X373231Y433564D01*
X373283Y433797D01*
X373334Y434030D01*
X373490Y434522D01*
X376288Y442217D01*
X378076D01*
X373879Y431698D01*
D02*
G37*
G36*
X493858Y440455D02*
X493884D01*
X493910Y440481D01*
X493936Y440533D01*
X494014Y440637D01*
X494118Y440766D01*
X494247Y440922D01*
X494377Y441103D01*
X494558Y441284D01*
X494765Y441466D01*
X494998Y441647D01*
X495257Y441828D01*
X495853Y442165D01*
X496190Y442295D01*
X496553Y442398D01*
X496916Y442450D01*
X497330Y442476D01*
X497486D01*
X497667Y442450D01*
X497900Y442398D01*
X498159Y442347D01*
X498470Y442243D01*
X498781Y442113D01*
X499118Y441932D01*
X499455Y441699D01*
X499765Y441440D01*
X500076Y441077D01*
X500335Y440663D01*
X500569Y440170D01*
X500750Y439600D01*
X500854Y438927D01*
X500905Y438175D01*
Y431698D01*
X499221D01*
Y437761D01*
Y437787D01*
Y437890D01*
X499196Y438072D01*
Y438279D01*
X499144Y438512D01*
X499092Y438797D01*
X499014Y439108D01*
X498910Y439419D01*
X498781Y439704D01*
X498625Y440015D01*
X498418Y440300D01*
X498185Y440533D01*
X497900Y440740D01*
X497563Y440922D01*
X497201Y441025D01*
X496760Y441051D01*
X496708D01*
X496553Y441025D01*
X496320Y440999D01*
X496035Y440922D01*
X495724Y440818D01*
X495361Y440637D01*
X495024Y440404D01*
X494688Y440093D01*
X494662Y440041D01*
X494558Y439911D01*
X494428Y439704D01*
X494273Y439419D01*
X494118Y439082D01*
X493988Y438668D01*
X493884Y438175D01*
X493858Y437657D01*
Y431698D01*
X492174D01*
Y447269D01*
X493858D01*
Y440455D01*
D02*
G37*
G36*
X476371Y431698D02*
X474687D01*
Y442217D01*
X476371D01*
Y431698D01*
D02*
G37*
G36*
X471267D02*
X469583D01*
Y447269D01*
X471267D01*
Y431698D01*
D02*
G37*
G36*
X320974Y446414D02*
X321259Y446388D01*
X321544Y446336D01*
X322166Y446181D01*
X322192D01*
X322296Y446129D01*
X322451Y446077D01*
X322658Y446000D01*
X322892Y445896D01*
X323125Y445766D01*
X323591Y445456D01*
X323617Y445430D01*
X323695Y445378D01*
X323798Y445248D01*
X323928Y445119D01*
X324083Y444937D01*
X324239Y444730D01*
X324394Y444471D01*
X324524Y444212D01*
X324550Y444186D01*
X324576Y444082D01*
X324627Y443927D01*
X324705Y443720D01*
X324783Y443487D01*
X324835Y443176D01*
X324860Y442865D01*
X324886Y442502D01*
Y442476D01*
Y442373D01*
Y442217D01*
X324860Y442036D01*
X324835Y441802D01*
X324783Y441569D01*
X324653Y441077D01*
Y441051D01*
X324602Y440974D01*
X324550Y440844D01*
X324472Y440689D01*
X324265Y440326D01*
X323980Y439937D01*
X323954Y439911D01*
X323902Y439859D01*
X323824Y439756D01*
X323695Y439652D01*
X323539Y439523D01*
X323358Y439367D01*
X322943Y439082D01*
X322917Y439056D01*
X322840Y439030D01*
X322710Y438953D01*
X322555Y438875D01*
X322347Y438797D01*
X322140Y438694D01*
X321622Y438538D01*
Y438486D01*
X321648D01*
X321674Y438460D01*
X321829Y438383D01*
X322037Y438253D01*
X322244Y438098D01*
X322270D01*
X322296Y438072D01*
X322425Y437968D01*
X322581Y437813D01*
X322762Y437605D01*
X322814Y437554D01*
X322917Y437424D01*
X323073Y437217D01*
X323254Y436958D01*
Y436932D01*
X323306Y436906D01*
X323358Y436828D01*
X323410Y436725D01*
X323591Y436440D01*
X323798Y436103D01*
X326571Y431698D01*
X324524D01*
X322037Y435818D01*
X322011Y435844D01*
X321985Y435921D01*
X321907Y436025D01*
X321829Y436155D01*
X321622Y436465D01*
X321389Y436802D01*
X321363Y436828D01*
X321337Y436880D01*
X321182Y437035D01*
X320974Y437243D01*
X320741Y437450D01*
X320715D01*
X320689Y437502D01*
X320534Y437605D01*
X320301Y437735D01*
X320016Y437839D01*
X319990D01*
X319938Y437864D01*
X319860Y437890D01*
X319757Y437916D01*
X319472Y437942D01*
X319135Y437968D01*
X317736D01*
Y431698D01*
X316000D01*
Y446440D01*
X320741D01*
X320974Y446414D01*
D02*
G37*
G36*
X512668Y433771D02*
X512771Y433745D01*
X513030Y433667D01*
X513160Y433564D01*
X513289Y433460D01*
X513315Y433434D01*
X513341Y433408D01*
X513393Y433331D01*
X513471Y433227D01*
X513600Y432968D01*
X513626Y432812D01*
X513652Y432631D01*
Y432605D01*
Y432553D01*
X513626Y432476D01*
X513600Y432346D01*
X513497Y432087D01*
X513419Y431958D01*
X513289Y431828D01*
X513264D01*
X513238Y431776D01*
X513160Y431724D01*
X513056Y431673D01*
X512823Y431569D01*
X512668Y431543D01*
X512512Y431517D01*
X512435D01*
X512331Y431543D01*
X512227Y431569D01*
X511968Y431647D01*
X511813Y431724D01*
X511683Y431828D01*
Y431854D01*
X511631Y431880D01*
X511580Y431958D01*
X511528Y432061D01*
X511424Y432320D01*
X511398Y432476D01*
X511372Y432631D01*
Y432657D01*
Y432709D01*
X511398Y432812D01*
X511424Y432916D01*
X511502Y433201D01*
X511580Y433331D01*
X511683Y433460D01*
X511709Y433486D01*
X511735Y433512D01*
X511813Y433564D01*
X511916Y433642D01*
X512175Y433745D01*
X512331Y433771D01*
X512512Y433797D01*
X512590D01*
X512668Y433771D01*
D02*
G37*
G36*
X506320Y442217D02*
X508963D01*
Y440766D01*
X506320D01*
Y434833D01*
Y434781D01*
Y434652D01*
X506346Y434471D01*
X506372Y434237D01*
X506476Y433745D01*
X506553Y433512D01*
X506657Y433331D01*
X506683Y433305D01*
X506735Y433253D01*
X506812Y433201D01*
X506942Y433123D01*
X507097Y433020D01*
X507305Y432968D01*
X507564Y432916D01*
X507849Y432890D01*
X507952D01*
X508082Y432916D01*
X508237Y432942D01*
X508600Y433046D01*
X508781Y433123D01*
X508963Y433227D01*
Y431776D01*
X508937D01*
X508859Y431724D01*
X508730Y431673D01*
X508548Y431621D01*
X508315Y431569D01*
X508056Y431517D01*
X507745Y431491D01*
X507382Y431465D01*
X507253D01*
X507123Y431491D01*
X506942Y431517D01*
X506735Y431569D01*
X506502Y431621D01*
X506268Y431724D01*
X506009Y431854D01*
X505750Y432009D01*
X505517Y432217D01*
X505284Y432450D01*
X505077Y432761D01*
X504895Y433097D01*
X504766Y433512D01*
X504662Y433978D01*
X504636Y434522D01*
Y440766D01*
X502823D01*
Y442217D01*
X504636D01*
Y444756D01*
X506320Y445326D01*
Y442217D01*
D02*
G37*
G36*
X450696Y442450D02*
X450877Y442424D01*
X451084Y442398D01*
X451551Y442321D01*
X452043Y442139D01*
X452587Y441906D01*
X452846Y441751D01*
X453105Y441569D01*
X453338Y441362D01*
X453572Y441129D01*
X453597Y441103D01*
X453623Y441077D01*
X453675Y440999D01*
X453753Y440870D01*
X453831Y440740D01*
X453934Y440585D01*
X454038Y440378D01*
X454142Y440170D01*
X454245Y439911D01*
X454349Y439626D01*
X454452Y439341D01*
X454530Y439005D01*
X454660Y438253D01*
X454711Y437864D01*
Y437424D01*
Y436543D01*
X447250D01*
Y436517D01*
Y436465D01*
Y436362D01*
X447276Y436258D01*
Y436103D01*
X447302Y435921D01*
X447379Y435533D01*
X447483Y435092D01*
X447664Y434626D01*
X447872Y434186D01*
X448183Y433797D01*
X448234Y433745D01*
X448338Y433642D01*
X448545Y433512D01*
X448830Y433331D01*
X449193Y433149D01*
X449633Y433020D01*
X450126Y432916D01*
X450696Y432864D01*
X450877D01*
X451007Y432890D01*
X451162D01*
X451343Y432916D01*
X451784Y433020D01*
X452276Y433149D01*
X452846Y433357D01*
X453416Y433642D01*
X453701Y433823D01*
X453986Y434030D01*
Y432450D01*
X453960D01*
X453934Y432398D01*
X453831Y432346D01*
X453727Y432294D01*
X453597Y432217D01*
X453416Y432139D01*
X453235Y432035D01*
X453002Y431958D01*
X452742Y431854D01*
X452457Y431750D01*
X451836Y431595D01*
X451110Y431491D01*
X450281Y431439D01*
X450074D01*
X449919Y431465D01*
X449737Y431491D01*
X449504Y431517D01*
X449012Y431621D01*
X448442Y431776D01*
X447872Y432035D01*
X447587Y432217D01*
X447302Y432398D01*
X447043Y432605D01*
X446784Y432864D01*
X446758Y432890D01*
X446732Y432942D01*
X446680Y433020D01*
X446576Y433123D01*
X446499Y433279D01*
X446395Y433460D01*
X446265Y433667D01*
X446162Y433901D01*
X446032Y434186D01*
X445929Y434471D01*
X445799Y434807D01*
X445721Y435170D01*
X445644Y435559D01*
X445566Y435973D01*
X445540Y436440D01*
X445514Y436906D01*
Y436932D01*
Y437010D01*
Y437139D01*
X445540Y437321D01*
X445566Y437528D01*
X445592Y437761D01*
X445618Y438046D01*
X445695Y438331D01*
X445851Y438979D01*
X446084Y439652D01*
X446240Y439963D01*
X446447Y440300D01*
X446654Y440611D01*
X446887Y440922D01*
X446913Y440948D01*
X446965Y440999D01*
X447043Y441077D01*
X447146Y441155D01*
X447276Y441284D01*
X447431Y441414D01*
X447639Y441544D01*
X447846Y441699D01*
X448338Y441984D01*
X448934Y442243D01*
X449271Y442321D01*
X449608Y442398D01*
X449970Y442450D01*
X450359Y442476D01*
X450566D01*
X450696Y442450D01*
D02*
G37*
G36*
X431627D02*
X431835Y442424D01*
X432068Y442398D01*
X432586Y442295D01*
X433182Y442113D01*
X433467Y442010D01*
X433778Y441854D01*
X434089Y441673D01*
X434374Y441492D01*
X434659Y441259D01*
X434918Y440999D01*
X434944Y440974D01*
X434969Y440922D01*
X435047Y440844D01*
X435125Y440740D01*
X435229Y440585D01*
X435332Y440404D01*
X435462Y440196D01*
X435591Y439963D01*
X435695Y439678D01*
X435825Y439393D01*
X435928Y439056D01*
X436032Y438694D01*
X436110Y438305D01*
X436187Y437890D01*
X436213Y437450D01*
X436239Y436984D01*
Y436958D01*
Y436880D01*
Y436750D01*
X436213Y436569D01*
X436187Y436362D01*
X436161Y436103D01*
X436110Y435844D01*
X436058Y435533D01*
X435902Y434885D01*
X435643Y434212D01*
X435488Y433875D01*
X435280Y433564D01*
X435073Y433253D01*
X434814Y432942D01*
X434788Y432916D01*
X434736Y432890D01*
X434659Y432812D01*
X434555Y432709D01*
X434400Y432605D01*
X434244Y432476D01*
X434037Y432320D01*
X433804Y432191D01*
X433545Y432061D01*
X433260Y431906D01*
X432949Y431776D01*
X432586Y431673D01*
X432223Y431569D01*
X431835Y431517D01*
X431420Y431465D01*
X430980Y431439D01*
X430746D01*
X430591Y431465D01*
X430410Y431491D01*
X430177Y431517D01*
X429917Y431569D01*
X429632Y431621D01*
X429037Y431802D01*
X428726Y431932D01*
X428415Y432061D01*
X428104Y432243D01*
X427819Y432424D01*
X427534Y432657D01*
X427249Y432916D01*
X427223Y432942D01*
X427197Y432994D01*
X427119Y433072D01*
X427042Y433175D01*
X426938Y433331D01*
X426809Y433512D01*
X426679Y433719D01*
X426575Y433952D01*
X426446Y434237D01*
X426316Y434522D01*
X426187Y434833D01*
X426083Y435196D01*
X425928Y435973D01*
X425902Y436388D01*
X425876Y436828D01*
Y436854D01*
Y436958D01*
Y437087D01*
X425902Y437269D01*
X425928Y437476D01*
X425954Y437735D01*
X426005Y438020D01*
X426057Y438331D01*
X426213Y439005D01*
X426472Y439704D01*
X426653Y440041D01*
X426834Y440378D01*
X427042Y440689D01*
X427301Y440974D01*
X427327Y440999D01*
X427379Y441051D01*
X427456Y441103D01*
X427560Y441207D01*
X427715Y441310D01*
X427897Y441440D01*
X428104Y441595D01*
X428337Y441725D01*
X428596Y441854D01*
X428907Y442010D01*
X429218Y442139D01*
X429581Y442243D01*
X429943Y442347D01*
X430358Y442424D01*
X430798Y442450D01*
X431239Y442476D01*
X431472D01*
X431627Y442450D01*
D02*
G37*
G36*
X413466D02*
X413647Y442424D01*
X413854Y442398D01*
X414321Y442321D01*
X414813Y442139D01*
X415357Y441906D01*
X415616Y441751D01*
X415875Y441569D01*
X416109Y441362D01*
X416342Y441129D01*
X416368Y441103D01*
X416394Y441077D01*
X416445Y440999D01*
X416523Y440870D01*
X416601Y440740D01*
X416704Y440585D01*
X416808Y440378D01*
X416912Y440170D01*
X417015Y439911D01*
X417119Y439626D01*
X417223Y439341D01*
X417300Y439005D01*
X417430Y438253D01*
X417482Y437864D01*
Y437424D01*
Y436543D01*
X410020D01*
Y436517D01*
Y436465D01*
Y436362D01*
X410046Y436258D01*
Y436103D01*
X410072Y435921D01*
X410150Y435533D01*
X410253Y435092D01*
X410435Y434626D01*
X410642Y434186D01*
X410953Y433797D01*
X411005Y433745D01*
X411108Y433642D01*
X411315Y433512D01*
X411600Y433331D01*
X411963Y433149D01*
X412404Y433020D01*
X412896Y432916D01*
X413466Y432864D01*
X413647D01*
X413777Y432890D01*
X413932D01*
X414114Y432916D01*
X414554Y433020D01*
X415046Y433149D01*
X415616Y433357D01*
X416186Y433642D01*
X416471Y433823D01*
X416756Y434030D01*
Y432450D01*
X416730D01*
X416704Y432398D01*
X416601Y432346D01*
X416497Y432294D01*
X416368Y432217D01*
X416186Y432139D01*
X416005Y432035D01*
X415772Y431958D01*
X415513Y431854D01*
X415228Y431750D01*
X414606Y431595D01*
X413880Y431491D01*
X413051Y431439D01*
X412844D01*
X412689Y431465D01*
X412507Y431491D01*
X412274Y431517D01*
X411782Y431621D01*
X411212Y431776D01*
X410642Y432035D01*
X410357Y432217D01*
X410072Y432398D01*
X409813Y432605D01*
X409554Y432864D01*
X409528Y432890D01*
X409502Y432942D01*
X409450Y433020D01*
X409347Y433123D01*
X409269Y433279D01*
X409165Y433460D01*
X409036Y433667D01*
X408932Y433901D01*
X408802Y434186D01*
X408699Y434471D01*
X408569Y434807D01*
X408492Y435170D01*
X408414Y435559D01*
X408336Y435973D01*
X408310Y436440D01*
X408284Y436906D01*
Y436932D01*
Y437010D01*
Y437139D01*
X408310Y437321D01*
X408336Y437528D01*
X408362Y437761D01*
X408388Y438046D01*
X408466Y438331D01*
X408621Y438979D01*
X408854Y439652D01*
X409010Y439963D01*
X409217Y440300D01*
X409424Y440611D01*
X409657Y440922D01*
X409683Y440948D01*
X409735Y440999D01*
X409813Y441077D01*
X409916Y441155D01*
X410046Y441284D01*
X410201Y441414D01*
X410409Y441544D01*
X410616Y441699D01*
X411108Y441984D01*
X411704Y442243D01*
X412041Y442321D01*
X412378Y442398D01*
X412741Y442450D01*
X413129Y442476D01*
X413336D01*
X413466Y442450D01*
D02*
G37*
G36*
X398336Y440352D02*
X398362D01*
X398387Y440378D01*
X398413Y440455D01*
X398491Y440559D01*
X398595Y440689D01*
X398724Y440844D01*
X398880Y441025D01*
X399061Y441207D01*
X399294Y441414D01*
X399527Y441621D01*
X399786Y441802D01*
X400097Y441984D01*
X400408Y442139D01*
X400771Y442269D01*
X401160Y442398D01*
X401548Y442450D01*
X401989Y442476D01*
X402196D01*
X402326Y442450D01*
X402481Y442424D01*
X402688Y442398D01*
X403154Y442295D01*
X403647Y442139D01*
X404165Y441880D01*
X404424Y441725D01*
X404683Y441518D01*
X404916Y441310D01*
X405149Y441051D01*
X405175Y441025D01*
X405201Y440974D01*
X405253Y440896D01*
X405331Y440792D01*
X405409Y440637D01*
X405512Y440481D01*
X405616Y440274D01*
X405745Y440041D01*
X405849Y439782D01*
X405953Y439497D01*
X406056Y439186D01*
X406134Y438849D01*
X406264Y438098D01*
X406315Y437683D01*
Y437243D01*
Y437217D01*
Y437139D01*
Y436984D01*
X406289Y436802D01*
Y436595D01*
X406238Y436336D01*
X406212Y436025D01*
X406160Y435714D01*
X406004Y435041D01*
X405771Y434341D01*
X405616Y434004D01*
X405460Y433667D01*
X405253Y433331D01*
X405020Y433020D01*
X404994Y432994D01*
X404968Y432942D01*
X404890Y432864D01*
X404787Y432787D01*
X404657Y432657D01*
X404502Y432528D01*
X404320Y432372D01*
X404113Y432243D01*
X403880Y432087D01*
X403621Y431932D01*
X402999Y431698D01*
X402662Y431595D01*
X402326Y431517D01*
X401937Y431465D01*
X401522Y431439D01*
X401315D01*
X401185Y431465D01*
X401004Y431491D01*
X400797Y431543D01*
X400331Y431673D01*
X399838Y431880D01*
X399553Y432009D01*
X399294Y432191D01*
X399061Y432398D01*
X398802Y432631D01*
X398569Y432890D01*
X398362Y433201D01*
X398336D01*
Y431698D01*
X396652D01*
Y447269D01*
X398336D01*
Y440352D01*
D02*
G37*
G36*
X384345Y442450D02*
X384527Y442424D01*
X384734Y442398D01*
X385200Y442321D01*
X385692Y442139D01*
X386237Y441906D01*
X386496Y441751D01*
X386755Y441569D01*
X386988Y441362D01*
X387221Y441129D01*
X387247Y441103D01*
X387273Y441077D01*
X387325Y440999D01*
X387402Y440870D01*
X387480Y440740D01*
X387584Y440585D01*
X387687Y440378D01*
X387791Y440170D01*
X387895Y439911D01*
X387998Y439626D01*
X388102Y439341D01*
X388180Y439005D01*
X388309Y438253D01*
X388361Y437864D01*
Y437424D01*
Y436543D01*
X380900D01*
Y436517D01*
Y436465D01*
Y436362D01*
X380925Y436258D01*
Y436103D01*
X380951Y435921D01*
X381029Y435533D01*
X381133Y435092D01*
X381314Y434626D01*
X381521Y434186D01*
X381832Y433797D01*
X381884Y433745D01*
X381988Y433642D01*
X382195Y433512D01*
X382480Y433331D01*
X382843Y433149D01*
X383283Y433020D01*
X383775Y432916D01*
X384345Y432864D01*
X384527D01*
X384656Y432890D01*
X384812D01*
X384993Y432916D01*
X385433Y433020D01*
X385926Y433149D01*
X386496Y433357D01*
X387066Y433642D01*
X387351Y433823D01*
X387636Y434030D01*
Y432450D01*
X387610D01*
X387584Y432398D01*
X387480Y432346D01*
X387377Y432294D01*
X387247Y432217D01*
X387066Y432139D01*
X386884Y432035D01*
X386651Y431958D01*
X386392Y431854D01*
X386107Y431750D01*
X385485Y431595D01*
X384760Y431491D01*
X383931Y431439D01*
X383723D01*
X383568Y431465D01*
X383387Y431491D01*
X383153Y431517D01*
X382661Y431621D01*
X382091Y431776D01*
X381521Y432035D01*
X381236Y432217D01*
X380951Y432398D01*
X380692Y432605D01*
X380433Y432864D01*
X380407Y432890D01*
X380381Y432942D01*
X380330Y433020D01*
X380226Y433123D01*
X380148Y433279D01*
X380045Y433460D01*
X379915Y433667D01*
X379811Y433901D01*
X379682Y434186D01*
X379578Y434471D01*
X379449Y434807D01*
X379371Y435170D01*
X379293Y435559D01*
X379216Y435973D01*
X379190Y436440D01*
X379164Y436906D01*
Y436932D01*
Y437010D01*
Y437139D01*
X379190Y437321D01*
X379216Y437528D01*
X379241Y437761D01*
X379267Y438046D01*
X379345Y438331D01*
X379501Y438979D01*
X379734Y439652D01*
X379889Y439963D01*
X380096Y440300D01*
X380304Y440611D01*
X380537Y440922D01*
X380563Y440948D01*
X380615Y440999D01*
X380692Y441077D01*
X380796Y441155D01*
X380925Y441284D01*
X381081Y441414D01*
X381288Y441544D01*
X381495Y441699D01*
X381988Y441984D01*
X382584Y442243D01*
X382920Y442321D01*
X383257Y442398D01*
X383620Y442450D01*
X384008Y442476D01*
X384216D01*
X384345Y442450D01*
D02*
G37*
G36*
X362505D02*
X362712Y442424D01*
X362945Y442398D01*
X363464Y442295D01*
X364059Y442113D01*
X364344Y442010D01*
X364655Y441854D01*
X364966Y441673D01*
X365251Y441492D01*
X365536Y441259D01*
X365795Y440999D01*
X365821Y440974D01*
X365847Y440922D01*
X365925Y440844D01*
X366002Y440740D01*
X366106Y440585D01*
X366210Y440404D01*
X366339Y440196D01*
X366469Y439963D01*
X366572Y439678D01*
X366702Y439393D01*
X366806Y439056D01*
X366909Y438694D01*
X366987Y438305D01*
X367065Y437890D01*
X367091Y437450D01*
X367117Y436984D01*
Y436958D01*
Y436880D01*
Y436750D01*
X367091Y436569D01*
X367065Y436362D01*
X367039Y436103D01*
X366987Y435844D01*
X366935Y435533D01*
X366780Y434885D01*
X366521Y434212D01*
X366365Y433875D01*
X366158Y433564D01*
X365951Y433253D01*
X365691Y432942D01*
X365666Y432916D01*
X365614Y432890D01*
X365536Y432812D01*
X365433Y432709D01*
X365277Y432605D01*
X365122Y432476D01*
X364914Y432320D01*
X364681Y432191D01*
X364422Y432061D01*
X364137Y431906D01*
X363826Y431776D01*
X363464Y431673D01*
X363101Y431569D01*
X362712Y431517D01*
X362298Y431465D01*
X361857Y431439D01*
X361624D01*
X361469Y431465D01*
X361287Y431491D01*
X361054Y431517D01*
X360795Y431569D01*
X360510Y431621D01*
X359914Y431802D01*
X359603Y431932D01*
X359292Y432061D01*
X358981Y432243D01*
X358696Y432424D01*
X358411Y432657D01*
X358126Y432916D01*
X358101Y432942D01*
X358075Y432994D01*
X357997Y433072D01*
X357919Y433175D01*
X357816Y433331D01*
X357686Y433512D01*
X357556Y433719D01*
X357453Y433952D01*
X357323Y434237D01*
X357194Y434522D01*
X357064Y434833D01*
X356961Y435196D01*
X356805Y435973D01*
X356779Y436388D01*
X356753Y436828D01*
Y436854D01*
Y436958D01*
Y437087D01*
X356779Y437269D01*
X356805Y437476D01*
X356831Y437735D01*
X356883Y438020D01*
X356935Y438331D01*
X357090Y439005D01*
X357349Y439704D01*
X357531Y440041D01*
X357712Y440378D01*
X357919Y440689D01*
X358178Y440974D01*
X358204Y440999D01*
X358256Y441051D01*
X358334Y441103D01*
X358437Y441207D01*
X358593Y441310D01*
X358774Y441440D01*
X358981Y441595D01*
X359215Y441725D01*
X359474Y441854D01*
X359785Y442010D01*
X360095Y442139D01*
X360458Y442243D01*
X360821Y442347D01*
X361235Y442424D01*
X361676Y442450D01*
X362116Y442476D01*
X362349D01*
X362505Y442450D01*
D02*
G37*
G36*
X332814D02*
X332996Y442424D01*
X333203Y442398D01*
X333669Y442321D01*
X334161Y442139D01*
X334706Y441906D01*
X334965Y441751D01*
X335224Y441569D01*
X335457Y441362D01*
X335690Y441129D01*
X335716Y441103D01*
X335742Y441077D01*
X335794Y440999D01*
X335871Y440870D01*
X335949Y440740D01*
X336053Y440585D01*
X336156Y440378D01*
X336260Y440170D01*
X336364Y439911D01*
X336467Y439626D01*
X336571Y439341D01*
X336649Y439005D01*
X336778Y438253D01*
X336830Y437864D01*
Y437424D01*
Y436543D01*
X329369D01*
Y436517D01*
Y436465D01*
Y436362D01*
X329394Y436258D01*
Y436103D01*
X329420Y435921D01*
X329498Y435533D01*
X329602Y435092D01*
X329783Y434626D01*
X329990Y434186D01*
X330301Y433797D01*
X330353Y433745D01*
X330457Y433642D01*
X330664Y433512D01*
X330949Y433331D01*
X331312Y433149D01*
X331752Y433020D01*
X332244Y432916D01*
X332814Y432864D01*
X332996D01*
X333125Y432890D01*
X333281D01*
X333462Y432916D01*
X333902Y433020D01*
X334395Y433149D01*
X334965Y433357D01*
X335535Y433642D01*
X335820Y433823D01*
X336105Y434030D01*
Y432450D01*
X336079D01*
X336053Y432398D01*
X335949Y432346D01*
X335845Y432294D01*
X335716Y432217D01*
X335535Y432139D01*
X335353Y432035D01*
X335120Y431958D01*
X334861Y431854D01*
X334576Y431750D01*
X333954Y431595D01*
X333229Y431491D01*
X332400Y431439D01*
X332192D01*
X332037Y431465D01*
X331856Y431491D01*
X331623Y431517D01*
X331130Y431621D01*
X330560Y431776D01*
X329990Y432035D01*
X329705Y432217D01*
X329420Y432398D01*
X329161Y432605D01*
X328902Y432864D01*
X328876Y432890D01*
X328850Y432942D01*
X328799Y433020D01*
X328695Y433123D01*
X328617Y433279D01*
X328514Y433460D01*
X328384Y433667D01*
X328280Y433901D01*
X328151Y434186D01*
X328047Y434471D01*
X327918Y434807D01*
X327840Y435170D01*
X327762Y435559D01*
X327685Y435973D01*
X327659Y436440D01*
X327633Y436906D01*
Y436932D01*
Y437010D01*
Y437139D01*
X327659Y437321D01*
X327685Y437528D01*
X327710Y437761D01*
X327736Y438046D01*
X327814Y438331D01*
X327970Y438979D01*
X328203Y439652D01*
X328358Y439963D01*
X328565Y440300D01*
X328773Y440611D01*
X329006Y440922D01*
X329032Y440948D01*
X329084Y440999D01*
X329161Y441077D01*
X329265Y441155D01*
X329394Y441284D01*
X329550Y441414D01*
X329757Y441544D01*
X329964Y441699D01*
X330457Y441984D01*
X331053Y442243D01*
X331389Y442321D01*
X331726Y442398D01*
X332089Y442450D01*
X332477Y442476D01*
X332685D01*
X332814Y442450D01*
D02*
G37*
G36*
X484195D02*
X484376Y442424D01*
X484583Y442373D01*
X485050Y442269D01*
X485568Y442062D01*
X485827Y441906D01*
X486086Y441751D01*
X486345Y441544D01*
X486578Y441310D01*
X486811Y441051D01*
X487019Y440740D01*
X487071D01*
Y442217D01*
X488755D01*
Y432528D01*
Y432502D01*
Y432476D01*
Y432398D01*
Y432268D01*
X488729Y431983D01*
X488677Y431621D01*
X488599Y431180D01*
X488470Y430688D01*
X488288Y430170D01*
X488055Y429652D01*
X487770Y429108D01*
X487407Y428590D01*
X486941Y428097D01*
X486423Y427657D01*
X486112Y427449D01*
X485775Y427294D01*
X485412Y427139D01*
X485050Y427009D01*
X484635Y426905D01*
X484195Y426828D01*
X483703Y426776D01*
X483210Y426750D01*
X482873D01*
X482718Y426776D01*
X482511Y426802D01*
X482070Y426854D01*
X481526Y426931D01*
X480956Y427061D01*
X480386Y427242D01*
X479816Y427501D01*
Y429185D01*
X479842D01*
X479894Y429133D01*
X479998Y429108D01*
X480127Y429030D01*
X480283Y428952D01*
X480464Y428875D01*
X480904Y428693D01*
X481423Y428512D01*
X481993Y428356D01*
X482588Y428253D01*
X483184Y428201D01*
X483340D01*
X483547Y428227D01*
X483780Y428279D01*
X484091Y428330D01*
X484402Y428408D01*
X484765Y428538D01*
X485127Y428719D01*
X485490Y428926D01*
X485853Y429211D01*
X486164Y429522D01*
X486475Y429937D01*
X486708Y430403D01*
X486915Y430947D01*
X487019Y431569D01*
X487071Y432294D01*
Y433460D01*
X487019D01*
X486993Y433434D01*
X486967Y433382D01*
X486889Y433279D01*
X486786Y433149D01*
X486656Y432994D01*
X486526Y432812D01*
X486319Y432631D01*
X486112Y432450D01*
X485879Y432268D01*
X485620Y432087D01*
X485309Y431906D01*
X484998Y431750D01*
X484635Y431621D01*
X484247Y431517D01*
X483832Y431465D01*
X483392Y431439D01*
X483210D01*
X483081Y431465D01*
X482899Y431491D01*
X482718Y431517D01*
X482277Y431621D01*
X481785Y431776D01*
X481241Y432035D01*
X480982Y432191D01*
X480723Y432372D01*
X480490Y432605D01*
X480257Y432838D01*
Y432864D01*
X480205Y432916D01*
X480153Y432994D01*
X480075Y433097D01*
X479972Y433227D01*
X479868Y433408D01*
X479765Y433616D01*
X479661Y433823D01*
X479557Y434082D01*
X479454Y434367D01*
X479350Y434678D01*
X479246Y435015D01*
X479117Y435766D01*
X479091Y436155D01*
X479065Y436595D01*
Y436621D01*
Y436725D01*
Y436854D01*
X479091Y437035D01*
X479117Y437269D01*
X479143Y437528D01*
X479169Y437813D01*
X479220Y438149D01*
X479376Y438823D01*
X479609Y439548D01*
X479739Y439885D01*
X479920Y440222D01*
X480101Y440559D01*
X480334Y440870D01*
X480360Y440896D01*
X480386Y440948D01*
X480464Y441025D01*
X480568Y441129D01*
X480697Y441233D01*
X480853Y441388D01*
X481060Y441518D01*
X481267Y441673D01*
X481500Y441828D01*
X481759Y441958D01*
X482381Y442217D01*
X482718Y442321D01*
X483055Y442398D01*
X483443Y442450D01*
X483858Y442476D01*
X484065D01*
X484195Y442450D01*
D02*
G37*
G36*
X919441Y837203D02*
X919707Y837173D01*
X920018Y837084D01*
X923024Y836062D01*
X923039D01*
X923054Y836048D01*
X923099Y836033D01*
X923158Y836003D01*
X923306Y835944D01*
X923498Y835826D01*
X923720Y835692D01*
X923957Y835500D01*
X924194Y835278D01*
X924431Y835011D01*
Y834996D01*
X924461Y834981D01*
X924491Y834937D01*
X924520Y834878D01*
X924609Y834715D01*
X924713Y834522D01*
X924831Y834271D01*
X924920Y834004D01*
X924979Y833708D01*
X925009Y833397D01*
Y832316D01*
X924994Y832257D01*
X924979Y832123D01*
X924935Y831946D01*
X924861Y831753D01*
X924772Y831546D01*
X924624Y831353D01*
X924431Y831190D01*
X924402Y831176D01*
X924328Y831131D01*
X924209Y831072D01*
X924031Y831028D01*
X923839Y830983D01*
X923587Y830968D01*
X923321Y830998D01*
X923173Y831028D01*
X923024Y831072D01*
X916820Y833175D01*
X916805D01*
X916775Y833190D01*
X916746Y833204D01*
X916686Y833234D01*
X916524Y833308D01*
X916346Y833412D01*
X916124Y833560D01*
X915902Y833738D01*
X915680Y833945D01*
X915472Y834197D01*
Y834211D01*
X915458Y834226D01*
X915398Y834315D01*
X915324Y834448D01*
X915235Y834626D01*
X915161Y834833D01*
X915087Y835085D01*
X915028Y835337D01*
X915013Y835603D01*
Y835722D01*
X915043Y835840D01*
X915072Y836003D01*
X915132Y836181D01*
X915206Y836359D01*
X915324Y836522D01*
X915487Y836684D01*
X915502Y836699D01*
X915576Y836744D01*
X915680Y836788D01*
X915828Y836847D01*
X916020Y836877D01*
X916242Y836892D01*
X916509Y836862D01*
X916657Y836833D01*
X916820Y836788D01*
X916835D01*
X916894Y836758D01*
X916983Y836729D01*
X917086Y836684D01*
X917338Y836551D01*
X917442Y836477D01*
X917545Y836388D01*
X917560Y836373D01*
X917590Y836359D01*
X917634Y836299D01*
X917708Y836240D01*
X917782Y836151D01*
X917856Y836048D01*
X917960Y835914D01*
X918049Y835766D01*
Y835855D01*
X918064Y835914D01*
X918079Y836092D01*
X918123Y836285D01*
X918182Y836507D01*
X918286Y836714D01*
X918434Y836907D01*
X918626Y837069D01*
X918656Y837084D01*
X918715Y837114D01*
X918834Y837158D01*
X918997Y837188D01*
X919204Y837217D01*
X919441Y837203D01*
D02*
G37*
G36*
X918523Y830495D02*
X918538D01*
X918552Y830480D01*
X918641Y830435D01*
X918774Y830347D01*
X918834Y830287D01*
X918908Y830213D01*
X921011Y827474D01*
X924194Y828466D01*
X924209D01*
X924224D01*
X924313Y828481D01*
X924431D01*
X924535Y828451D01*
X924550D01*
X924565Y828436D01*
X924653Y828392D01*
X924772Y828303D01*
X924816Y828244D01*
X924875Y828170D01*
Y828155D01*
X924905Y828140D01*
X924949Y828051D01*
X924994Y827918D01*
X925023Y827770D01*
Y827740D01*
X924994Y827666D01*
X924935Y827577D01*
X924890Y827533D01*
X924831Y827488D01*
X921751Y826526D01*
X922921Y825015D01*
X924520Y824468D01*
X924535D01*
X924565Y824453D01*
X924653Y824408D01*
X924772Y824320D01*
X924890Y824201D01*
Y824186D01*
X924905Y824172D01*
X924949Y824083D01*
X924994Y823964D01*
X925009Y823801D01*
Y823772D01*
X924994Y823698D01*
X924964Y823594D01*
X924890Y823490D01*
X924861Y823475D01*
X924801Y823446D01*
X924683D01*
X924609D01*
X924520Y823475D01*
X918523Y825519D01*
X918508D01*
X918493Y825534D01*
X918404Y825578D01*
X918286Y825652D01*
X918152Y825786D01*
Y825800D01*
X918138Y825815D01*
X918079Y825904D01*
X918034Y826037D01*
X918019Y826185D01*
Y826215D01*
X918034Y826289D01*
X918079Y826378D01*
X918152Y826467D01*
X918167Y826481D01*
X918241Y826511D01*
X918360Y826541D01*
X918434Y826526D01*
X918523Y826511D01*
X921470Y825504D01*
X918152Y829813D01*
X918138Y829828D01*
X918123Y829843D01*
X918064Y829932D01*
X918019Y830050D01*
X917990Y830109D01*
Y830213D01*
X918005Y830272D01*
X918064Y830376D01*
X918093Y830421D01*
X918152Y830480D01*
X918182Y830495D01*
X918256Y830524D01*
X918375D01*
X918449D01*
X918523Y830495D01*
D02*
G37*
G36*
Y823609D02*
X926001Y821077D01*
X926016D01*
X926031Y821062D01*
X926075Y821047D01*
X926134Y821017D01*
X926282Y820943D01*
X926475Y820840D01*
X926697Y820692D01*
X926934Y820514D01*
X927171Y820277D01*
X927408Y820010D01*
Y819995D01*
X927437Y819981D01*
X927467Y819936D01*
X927496Y819877D01*
X927600Y819714D01*
X927704Y819522D01*
X927807Y819270D01*
X927911Y819003D01*
X927970Y818707D01*
X928000Y818396D01*
Y816367D01*
X927985Y816293D01*
X927926Y816190D01*
X927896Y816145D01*
X927837Y816086D01*
X927807Y816071D01*
X927734Y816057D01*
X927630Y816042D01*
X927571Y816057D01*
X927496Y816071D01*
X927482D01*
X927467Y816086D01*
X927378Y816131D01*
X927274Y816205D01*
X927156Y816308D01*
Y816323D01*
X927126Y816338D01*
X927082Y816427D01*
X927038Y816560D01*
X927008Y816738D01*
Y818811D01*
X926993Y818900D01*
X926963Y819003D01*
X926934Y819122D01*
X926889Y819255D01*
X926815Y819403D01*
X926712Y819551D01*
X926697Y819566D01*
X926667Y819611D01*
X926593Y819685D01*
X926519Y819759D01*
X926415Y819847D01*
X926297Y819936D01*
X926149Y820025D01*
X926001Y820084D01*
X925009Y820425D01*
Y818352D01*
X924994Y818293D01*
X924979Y818145D01*
X924935Y817967D01*
X924861Y817774D01*
X924772Y817567D01*
X924624Y817374D01*
X924431Y817212D01*
X924402Y817197D01*
X924328Y817152D01*
X924209Y817093D01*
X924031Y817049D01*
X923839Y817004D01*
X923587Y816990D01*
X923321Y817019D01*
X923173Y817049D01*
X923024Y817093D01*
X918523Y818618D01*
X918508D01*
X918493Y818633D01*
X918404Y818678D01*
X918286Y818766D01*
X918152Y818900D01*
Y818914D01*
X918138Y818929D01*
X918079Y819018D01*
X918034Y819137D01*
X918019Y819285D01*
Y819314D01*
X918034Y819388D01*
X918079Y819492D01*
X918152Y819581D01*
X918167Y819596D01*
X918241Y819625D01*
X918360Y819640D01*
X918434D01*
X918523Y819611D01*
X923024Y818085D01*
X923039D01*
X923099Y818071D01*
X923173Y818056D01*
X923261Y818041D01*
X923380D01*
X923498Y818056D01*
X923617Y818071D01*
X923735Y818130D01*
X923750Y818145D01*
X923809Y818204D01*
X923883Y818278D01*
X923957Y818381D01*
Y818396D01*
X923972Y818411D01*
X923987Y818500D01*
X924002Y818618D01*
X924017Y818752D01*
Y820751D01*
X918523Y822617D01*
X918508D01*
X918493Y822631D01*
X918404Y822676D01*
X918286Y822765D01*
X918152Y822898D01*
Y822913D01*
X918138Y822928D01*
X918079Y823016D01*
X918034Y823135D01*
X918019Y823283D01*
Y823313D01*
X918034Y823387D01*
X918079Y823490D01*
X918152Y823579D01*
X918167Y823594D01*
X918241Y823624D01*
X918360Y823638D01*
X918434D01*
X918523Y823609D01*
D02*
G37*
G36*
X915517Y817656D02*
X915546Y817641D01*
X915620Y817597D01*
X915724Y817523D01*
X915843Y817404D01*
Y817389D01*
X915872Y817374D01*
X915917Y817286D01*
X915976Y817152D01*
X915991Y817064D01*
X916005Y816975D01*
Y814235D01*
X918538Y816027D01*
X918700Y816086D01*
X918730Y816101D01*
X918804Y816131D01*
X918923Y816160D01*
X919085Y816190D01*
X919278Y816219D01*
X919500D01*
X919752Y816190D01*
X920018Y816116D01*
X923010Y815094D01*
X923024D01*
X923039Y815079D01*
X923084Y815064D01*
X923143Y815035D01*
X923306Y814976D01*
X923498Y814857D01*
X923720Y814724D01*
X923957Y814531D01*
X924194Y814309D01*
X924431Y814043D01*
Y814028D01*
X924461Y814013D01*
X924491Y813969D01*
X924520Y813909D01*
X924609Y813746D01*
X924713Y813554D01*
X924831Y813302D01*
X924920Y813036D01*
X924979Y812739D01*
X925009Y812429D01*
Y811348D01*
X924994Y811288D01*
X924979Y811155D01*
X924935Y810977D01*
X924861Y810785D01*
X924772Y810577D01*
X924624Y810385D01*
X924431Y810222D01*
X924402Y810207D01*
X924328Y810163D01*
X924209Y810104D01*
X924031Y810059D01*
X923839Y810015D01*
X923587Y810000D01*
X923321Y810030D01*
X923173Y810059D01*
X923024Y810104D01*
X920018Y811125D01*
X920004D01*
X919974Y811140D01*
X919944Y811155D01*
X919885Y811185D01*
X919722Y811259D01*
X919530Y811362D01*
X919308Y811510D01*
X919071Y811688D01*
X918834Y811925D01*
X918612Y812192D01*
Y812206D01*
X918582Y812221D01*
X918552Y812266D01*
X918523Y812325D01*
X918419Y812488D01*
X918315Y812695D01*
X918212Y812932D01*
X918108Y813199D01*
X918049Y813495D01*
X918019Y813806D01*
Y814191D01*
X915887Y812680D01*
X915872D01*
X915857Y812665D01*
X915813Y812651D01*
X915754Y812636D01*
X915620Y812621D01*
X915546Y812636D01*
X915458Y812651D01*
X915428Y812665D01*
X915369Y812695D01*
X915265Y812769D01*
X915161Y812873D01*
Y812888D01*
X915132Y812902D01*
X915117Y812947D01*
X915087Y812991D01*
X915043Y813139D01*
X915013Y813332D01*
Y817345D01*
X915028Y817434D01*
X915087Y817523D01*
X915117Y817567D01*
X915176Y817611D01*
X915206Y817626D01*
X915280Y817656D01*
X915383Y817671D01*
X915443D01*
X915517Y817656D01*
D02*
G37*
G36*
X920382Y804725D02*
Y803082D01*
X920405D01*
X920471D01*
X920560D01*
X920693D01*
X920871D01*
X921093D01*
X921337D01*
X921626Y803104D01*
X921936D01*
X922269D01*
X922669Y803126D01*
X923069D01*
X923513Y803148D01*
X923979D01*
X924467Y803170D01*
X925000Y803193D01*
Y801550D01*
X924978D01*
X924889D01*
X924756D01*
X924578Y801572D01*
X924356D01*
X924112D01*
X923823D01*
X923490Y801594D01*
X923157D01*
X922780D01*
X922003Y801617D01*
X921204D01*
X920382D01*
Y796200D01*
X919162Y796000D01*
X919139D01*
X919117Y796022D01*
X919073Y796044D01*
X919006Y796089D01*
X918895Y796133D01*
X918762Y796222D01*
X918606Y796333D01*
X918384Y796466D01*
X918140Y796644D01*
X917830Y796844D01*
X917474Y797088D01*
X917053Y797399D01*
X916586Y797732D01*
X916031Y798131D01*
X915410Y798597D01*
X915365Y798620D01*
X915254Y798708D01*
X915077Y798842D01*
X914855Y798997D01*
X914588Y799197D01*
X914277Y799419D01*
X913634Y799907D01*
X912968Y800373D01*
X912657Y800595D01*
X912368Y800795D01*
X912124Y800950D01*
X911947Y801084D01*
X911813Y801172D01*
X911747Y801195D01*
Y803193D01*
X911769D01*
X911858D01*
X911969D01*
X912169Y803170D01*
X912391D01*
X912701Y803148D01*
X913057D01*
X913456D01*
X913922Y803126D01*
X914455D01*
X915054Y803104D01*
X915698D01*
X916431Y803082D01*
X917208D01*
X918074D01*
X918984D01*
Y803415D01*
X918962Y803637D01*
Y803925D01*
X918940Y804236D01*
X918917Y804591D01*
X918873Y804946D01*
X920382Y804725D01*
D02*
G37*
G36*
X922961Y790508D02*
X923137Y790473D01*
X923365Y790421D01*
X923611Y790315D01*
X923875Y790157D01*
X924016Y790051D01*
X924139Y789928D01*
X924262Y789788D01*
X924385Y789630D01*
Y789612D01*
X924402Y789594D01*
X924437Y789542D01*
X924473Y789454D01*
X924525Y789366D01*
X924578Y789243D01*
X924631Y789102D01*
X924684Y788926D01*
X924754Y788751D01*
X924807Y788540D01*
X924859Y788294D01*
X924894Y788030D01*
X924947Y787749D01*
X924965Y787450D01*
X925000Y787098D01*
Y786518D01*
X924982Y786413D01*
Y786272D01*
X924965Y786097D01*
X924947Y785921D01*
X924912Y785534D01*
X924842Y785077D01*
X924754Y784603D01*
X924631Y784093D01*
Y784075D01*
X924613Y784040D01*
X924596Y783970D01*
X924560Y783882D01*
X924490Y783671D01*
X924385Y783425D01*
X924262Y783161D01*
X924121Y782950D01*
X924051Y782862D01*
X923980Y782792D01*
X923893Y782757D01*
X923822Y782739D01*
X923787D01*
X923734Y782757D01*
X923646Y782792D01*
X923559Y782845D01*
X923541Y782862D01*
X923488Y782915D01*
X923453Y782986D01*
X923436Y783073D01*
Y783091D01*
X923453Y783144D01*
X923471Y783232D01*
X923541Y783355D01*
Y783372D01*
X923576Y783425D01*
X923611Y783513D01*
X923664Y783636D01*
X923717Y783776D01*
X923787Y783952D01*
X923857Y784163D01*
X923928Y784392D01*
X923998Y784638D01*
X924068Y784901D01*
X924139Y785183D01*
X924191Y785499D01*
X924279Y786132D01*
X924297Y786466D01*
X924314Y786817D01*
Y787063D01*
X924297Y787186D01*
Y787327D01*
X924262Y787643D01*
X924209Y788012D01*
X924139Y788382D01*
X924033Y788733D01*
X923893Y789032D01*
Y789050D01*
X923875Y789067D01*
X923822Y789155D01*
X923717Y789278D01*
X923594Y789419D01*
X923436Y789542D01*
X923260Y789665D01*
X923049Y789753D01*
X922926Y789788D01*
X922803D01*
X922785D01*
X922768D01*
X922680Y789770D01*
X922539Y789735D01*
X922381Y789682D01*
X922205Y789577D01*
X922029Y789419D01*
X921942Y789331D01*
X921871Y789208D01*
X921801Y789085D01*
X921731Y788926D01*
Y788909D01*
X921713Y788891D01*
X921695Y788839D01*
X921678Y788768D01*
X921660Y788663D01*
X921625Y788540D01*
X921608Y788399D01*
X921572Y788241D01*
X921537Y788048D01*
X921520Y787819D01*
X921485Y787573D01*
X921467Y787309D01*
X921449Y787011D01*
X921432Y786694D01*
X921414Y786343D01*
Y785411D01*
X921397Y785323D01*
X921379Y785218D01*
X921344Y785112D01*
X921291Y785024D01*
X921221Y784954D01*
X921115Y784937D01*
X921098D01*
X921063Y784954D01*
X920992Y784972D01*
X920922Y785007D01*
X920852Y785077D01*
X920781Y785183D01*
X920746Y785306D01*
X920729Y785499D01*
Y786272D01*
X920711Y786501D01*
X920694Y786765D01*
X920658Y787046D01*
X920623Y787362D01*
X920571Y787696D01*
X920500Y788012D01*
X920395Y788329D01*
X920289Y788610D01*
X920149Y788874D01*
X920008Y789102D01*
X919815Y789278D01*
X919709Y789331D01*
X919604Y789383D01*
X919481Y789401D01*
X919358Y789419D01*
X919340D01*
X919270Y789401D01*
X919165Y789383D01*
X919024Y789331D01*
X918883Y789260D01*
X918725Y789137D01*
X918584Y788962D01*
X918444Y788733D01*
X918426Y788698D01*
X918391Y788610D01*
X918338Y788452D01*
X918268Y788223D01*
X918198Y787960D01*
X918145Y787608D01*
X918110Y787222D01*
X918092Y786765D01*
Y786659D01*
X918110Y786536D01*
Y786360D01*
X918145Y786167D01*
X918180Y785956D01*
X918233Y785710D01*
X918286Y785464D01*
X918373Y785200D01*
X918479Y784954D01*
X918620Y784708D01*
X918778Y784480D01*
X918953Y784269D01*
X919182Y784093D01*
X919428Y783970D01*
X919709Y783864D01*
X919727D01*
X919780Y783847D01*
X919850Y783812D01*
X919938Y783776D01*
X920026Y783724D01*
X920096Y783653D01*
X920149Y783583D01*
X920166Y783495D01*
Y783443D01*
X920114Y783355D01*
X920078Y783284D01*
X920026Y783249D01*
X919938Y783214D01*
X919815Y783196D01*
X918004D01*
X917987D01*
X917916D01*
X917811Y783214D01*
X917706Y783232D01*
X917600Y783284D01*
X917495Y783337D01*
X917424Y783425D01*
X917407Y783530D01*
Y783583D01*
X917442Y783636D01*
X917477Y783706D01*
X917547Y783776D01*
X917653Y783829D01*
X917811Y783864D01*
X918004Y783882D01*
X918496D01*
X918479Y783900D01*
X918444Y783935D01*
X918391Y783987D01*
X918321Y784075D01*
X918251Y784181D01*
X918145Y784321D01*
X918057Y784480D01*
X917952Y784655D01*
X917846Y784866D01*
X917758Y785095D01*
X917653Y785341D01*
X917582Y785604D01*
X917512Y785903D01*
X917459Y786220D01*
X917424Y786554D01*
X917407Y786923D01*
Y787151D01*
X917424Y787274D01*
X917442Y787415D01*
X917477Y787749D01*
X917530Y788118D01*
X917635Y788505D01*
X917758Y788891D01*
X917934Y789243D01*
Y789260D01*
X917952Y789278D01*
X918022Y789383D01*
X918145Y789524D01*
X918303Y789700D01*
X918496Y789876D01*
X918743Y790016D01*
X919041Y790122D01*
X919182Y790139D01*
X919358Y790157D01*
X919375D01*
X919410D01*
X919463Y790139D01*
X919551D01*
X919744Y790069D01*
X919867Y790034D01*
X919991Y789964D01*
X920131Y789893D01*
X920272Y789788D01*
X920412Y789665D01*
X920535Y789507D01*
X920676Y789331D01*
X920799Y789137D01*
X920905Y788891D01*
X921010Y788628D01*
X921115Y789120D01*
Y789137D01*
X921133Y789208D01*
X921186Y789313D01*
X921238Y789454D01*
X921309Y789612D01*
X921414Y789770D01*
X921555Y789946D01*
X921713Y790104D01*
X921731Y790122D01*
X921801Y790174D01*
X921889Y790245D01*
X922012Y790315D01*
X922188Y790385D01*
X922363Y790456D01*
X922574Y790508D01*
X922803Y790526D01*
X922820D01*
X922838D01*
X922891D01*
X922961Y790508D01*
D02*
G37*
G36*
X924508Y781087D02*
X924560Y781052D01*
X924631Y780982D01*
X924684Y780911D01*
X924719Y780788D01*
X924736Y780630D01*
Y778046D01*
X924719Y777959D01*
X924701Y777888D01*
X924648Y777800D01*
X924596Y777712D01*
X924508Y777660D01*
X924402Y777642D01*
X924385D01*
X924350D01*
X924297Y777660D01*
X924227Y777695D01*
X924156Y777765D01*
X924103Y777835D01*
X924068Y777959D01*
X924051Y778117D01*
Y779031D01*
X918655D01*
X924736Y774074D01*
Y772404D01*
X924719Y772316D01*
X924701Y772246D01*
X924648Y772158D01*
X924596Y772070D01*
X924508Y772018D01*
X924402Y772000D01*
X924385D01*
X924350D01*
X924297Y772018D01*
X924227Y772053D01*
X924156Y772123D01*
X924103Y772193D01*
X924068Y772316D01*
X924051Y772475D01*
Y773283D01*
X918338D01*
Y772404D01*
X918321Y772316D01*
X918303Y772246D01*
X918251Y772158D01*
X918198Y772070D01*
X918110Y772018D01*
X918004Y772000D01*
X917987D01*
X917952D01*
X917899Y772018D01*
X917829Y772053D01*
X917758Y772123D01*
X917706Y772193D01*
X917670Y772316D01*
X917653Y772475D01*
Y774953D01*
X917670Y775041D01*
X917688Y775129D01*
X917741Y775199D01*
X917794Y775287D01*
X917881Y775340D01*
X918004Y775357D01*
X918022D01*
X918057D01*
X918110Y775340D01*
X918163Y775304D01*
X918233Y775234D01*
X918286Y775164D01*
X918321Y775041D01*
X918338Y774883D01*
Y773969D01*
X923752D01*
X917653Y778908D01*
Y780701D01*
X917670Y780788D01*
X917688Y780876D01*
X917741Y780947D01*
X917794Y781034D01*
X917881Y781087D01*
X918004Y781105D01*
X918022D01*
X918057D01*
X918110Y781087D01*
X918163Y781052D01*
X918233Y780982D01*
X918286Y780911D01*
X918321Y780788D01*
X918338Y780630D01*
Y779716D01*
X924051D01*
Y780701D01*
X924068Y780788D01*
X924086Y780876D01*
X924139Y780947D01*
X924191Y781034D01*
X924279Y781087D01*
X924402Y781105D01*
X924420D01*
X924455D01*
X924508Y781087D01*
D02*
G37*
G36*
X922314Y766344D02*
X922380Y766255D01*
X922491Y766144D01*
X922602Y766011D01*
X922625Y765989D01*
X922691Y765922D01*
X922780Y765811D01*
X922869Y765678D01*
X922891Y765633D01*
X922958Y765545D01*
X923046Y765411D01*
X923135Y765256D01*
X923157Y765212D01*
X923180Y765123D01*
X923202Y765012D01*
X923224Y764856D01*
Y764834D01*
X923202Y764745D01*
X923180Y764612D01*
X923113Y764501D01*
X923091Y764479D01*
X923024Y764435D01*
X922935Y764346D01*
X922824Y764279D01*
X922847D01*
X922869Y764235D01*
X923002Y764124D01*
X923202Y763924D01*
X923402Y763680D01*
Y763658D01*
X923446Y763613D01*
X923490Y763547D01*
X923557Y763458D01*
X923690Y763236D01*
X923823Y762947D01*
X923846Y762903D01*
X923890Y762792D01*
X923934Y762659D01*
X924001Y762503D01*
Y762481D01*
X924023Y762392D01*
X924045Y762259D01*
X924068Y762148D01*
Y762104D01*
X924090Y762037D01*
X924112Y761948D01*
Y761882D01*
X924134Y761726D01*
Y761637D01*
X924112Y761526D01*
X924068Y761393D01*
X924023Y761238D01*
X923957Y761083D01*
X923846Y760905D01*
X923690Y760727D01*
X923668Y760705D01*
X923601Y760661D01*
X923513Y760594D01*
X923379Y760527D01*
X923246Y760439D01*
X923069Y760372D01*
X922869Y760328D01*
X922669Y760305D01*
X922625D01*
X922514Y760328D01*
X922314Y760350D01*
X922070Y760394D01*
X922047D01*
X922003Y760416D01*
X921870Y760461D01*
X921714Y760483D01*
X921648Y760505D01*
X921603D01*
X921581D01*
X921559D01*
X921492Y760461D01*
X921470Y760439D01*
X921448Y760350D01*
X921470Y760305D01*
X921515Y760239D01*
X921603Y760106D01*
X921626Y760083D01*
X921714Y759973D01*
X921848Y759817D01*
X922025Y759595D01*
X922047Y759573D01*
X922070Y759551D01*
X922136Y759529D01*
X922181Y759506D01*
X922292Y759417D01*
X922314Y759395D01*
X922358Y759351D01*
X922447Y759262D01*
X922536Y759173D01*
X922736Y758929D01*
X922935Y758685D01*
Y758663D01*
X922980Y758641D01*
X923046Y758507D01*
X923135Y758352D01*
X923180Y758174D01*
Y757974D01*
X923157Y757930D01*
Y757775D01*
X923180Y757753D01*
X923268Y757686D01*
X923379Y757597D01*
X923535Y757464D01*
X923579Y757442D01*
X923668Y757353D01*
X923823Y757220D01*
X924023Y757042D01*
X924045Y757020D01*
X924068Y756975D01*
X924134Y756909D01*
X924201Y756798D01*
X924223Y756776D01*
X924267Y756709D01*
X924334Y756620D01*
X924445Y756487D01*
X924467Y756465D01*
X924489Y756443D01*
X924600Y756310D01*
X924734Y756132D01*
X924867Y755910D01*
Y755888D01*
X924889Y755866D01*
X924933Y755755D01*
X924978Y755577D01*
X925000Y755377D01*
Y755288D01*
X924978Y755200D01*
X924956Y755111D01*
Y755089D01*
X924911Y755044D01*
X924889Y754955D01*
X924822Y754867D01*
Y754844D01*
X924778Y754778D01*
X924734Y754689D01*
X924667Y754600D01*
X924645Y754578D01*
X924600Y754534D01*
X924534Y754445D01*
X924445Y754334D01*
X924423D01*
X924356Y754312D01*
X924245Y754267D01*
X924090Y754223D01*
X923934Y754178D01*
X923757Y754134D01*
X923379Y754045D01*
X923357D01*
X923291Y754023D01*
X923202D01*
X923069Y754001D01*
X922758Y753979D01*
X922425Y753956D01*
X922403D01*
X922380D01*
X922314Y753934D01*
X922292D01*
X922269D01*
X922203Y753912D01*
X922181Y753823D01*
X922203Y753757D01*
X922292Y753668D01*
D01*
X922314Y753646D01*
X922380Y753557D01*
X922491Y753446D01*
X922602Y753313D01*
X922625Y753290D01*
X922691Y753224D01*
X922780Y753113D01*
X922869Y752980D01*
X922891Y752935D01*
X922958Y752846D01*
X923046Y752713D01*
X923135Y752558D01*
X923157Y752513D01*
X923180Y752425D01*
X923202Y752314D01*
X923224Y752158D01*
Y752136D01*
X923202Y752047D01*
X923180Y751914D01*
X923113Y751803D01*
X923091Y751781D01*
X923024Y751736D01*
X922935Y751648D01*
X922824Y751581D01*
X922847D01*
X922869Y751537D01*
X923002Y751426D01*
X923202Y751226D01*
X923402Y750982D01*
Y750959D01*
X923446Y750915D01*
X923490Y750848D01*
X923557Y750760D01*
X923690Y750538D01*
X923823Y750249D01*
X923846Y750205D01*
X923890Y750094D01*
X923934Y749960D01*
X924001Y749805D01*
Y749783D01*
X924023Y749694D01*
X924045Y749561D01*
X924068Y749450D01*
Y749406D01*
X924090Y749339D01*
X924112Y749250D01*
Y749184D01*
X924134Y749028D01*
Y748939D01*
X924112Y748828D01*
X924068Y748695D01*
X924023Y748540D01*
X923957Y748384D01*
X923846Y748207D01*
X923690Y748029D01*
X923668Y748007D01*
X923601Y747962D01*
X923513Y747896D01*
X923379Y747829D01*
X923246Y747740D01*
X923069Y747674D01*
X922869Y747629D01*
X922669Y747607D01*
X922625D01*
X922514Y747629D01*
X922314Y747652D01*
X922070Y747696D01*
X922047D01*
X922003Y747718D01*
X921870Y747763D01*
X921714Y747785D01*
X921648Y747807D01*
X921603D01*
X921581D01*
X921559D01*
X921492Y747763D01*
X921470Y747740D01*
X921448Y747652D01*
X921470Y747607D01*
X921515Y747541D01*
X921603Y747408D01*
X921626Y747385D01*
X921714Y747274D01*
X921848Y747119D01*
X922025Y746897D01*
X922047Y746875D01*
X922070Y746852D01*
X922136Y746830D01*
X922181Y746808D01*
X922292Y746719D01*
X922247D01*
X922173Y746682D01*
X922203Y746653D01*
X922358Y746519D01*
X922380Y746497D01*
X922403Y746453D01*
X922536Y746320D01*
X922558Y746275D01*
X922647Y746187D01*
X922758Y746053D01*
X922891Y745898D01*
X922913Y745854D01*
X922980Y745765D01*
X923091Y745654D01*
X923202Y745498D01*
X923224Y745454D01*
X923291Y745365D01*
X923379Y745232D01*
X923468Y745077D01*
X923490Y745054D01*
X923535Y744966D01*
X923579Y744832D01*
X923646Y744699D01*
X923668Y744655D01*
X923690Y744566D01*
X923735Y744433D01*
X923779Y744277D01*
Y744011D01*
X923757Y743878D01*
Y743856D01*
X923735Y743767D01*
X923690Y743634D01*
X923624Y743500D01*
X923601Y743478D01*
X923535Y743412D01*
X923424Y743301D01*
X923268Y743190D01*
X923246D01*
X923157Y743145D01*
X923046Y743123D01*
X922913Y743101D01*
X922869D01*
X922780D01*
X922625D01*
X922469D01*
X922447D01*
X922358Y743123D01*
X922225Y743145D01*
X922092Y743167D01*
X922047D01*
X921959Y743190D01*
X921848Y743234D01*
X921714Y743278D01*
X921692D01*
X921603Y743301D01*
X921492Y743345D01*
X921359Y743367D01*
X921315Y743389D01*
X921248Y743412D01*
X921137Y743434D01*
X921026Y743478D01*
X921004D01*
X920960Y743500D01*
X920804Y743567D01*
X920782Y743589D01*
X920738Y743611D01*
X920582Y743656D01*
X920560D01*
X920516D01*
X920383D01*
X920360D01*
X920316D01*
X920183D01*
X920138D01*
X920072D01*
X919939D01*
X919827Y743634D01*
X919805D01*
X919716D01*
X919628Y743589D01*
X919517Y743545D01*
X919494D01*
X919472Y743500D01*
X919428Y743456D01*
X919383Y743389D01*
X919361Y743367D01*
X919339Y743323D01*
X919273Y743190D01*
X919295D01*
X919361Y743167D01*
X919450Y743145D01*
X919539Y743101D01*
X919561D01*
X919605Y743079D01*
X919761Y743034D01*
X919805Y743012D01*
X919894Y742990D01*
X920050Y742923D01*
X920205Y742857D01*
X920249Y742834D01*
X920338Y742812D01*
X920493Y742746D01*
X920649Y742679D01*
X920671D01*
X920715Y742657D01*
X920871Y742546D01*
X920893Y742524D01*
X920915Y742501D01*
X921048Y742413D01*
X921071D01*
X921093Y742390D01*
X921248Y742324D01*
X921448Y742257D01*
X921670Y742168D01*
X921692D01*
X921714Y742146D01*
X921848Y742102D01*
X922047Y742035D01*
X922247Y741924D01*
X922269D01*
X922314Y741880D01*
X922380Y741858D01*
X922469Y741791D01*
X922713Y741680D01*
X922958Y741525D01*
X922980D01*
X923024Y741480D01*
X923069Y741458D01*
X923157Y741391D01*
X923357Y741280D01*
X923579Y741125D01*
X923601D01*
X923624Y741103D01*
X923735Y741014D01*
X923890Y740881D01*
X924068Y740748D01*
X924112Y740725D01*
X924201Y740637D01*
X924312Y740526D01*
X924423Y740392D01*
X924445Y740370D01*
X924489Y740304D01*
X924534Y740215D01*
X924600Y740126D01*
X924623Y740104D01*
X924645Y740037D01*
X924667Y739971D01*
X924689Y739882D01*
Y739793D01*
X924667Y739704D01*
X924623Y739615D01*
X924600Y739593D01*
X924578Y739549D01*
X924467Y739393D01*
X924445Y739371D01*
X924401Y739327D01*
X924312Y739260D01*
X924201Y739194D01*
X924179Y739172D01*
X924090Y739127D01*
X923979Y739083D01*
X923846Y739038D01*
X923823D01*
X923735Y739016D01*
X923646Y738994D01*
X923513Y738950D01*
X923468D01*
X923379Y738927D01*
X923268Y738905D01*
X923113D01*
X923091D01*
X923069D01*
X922958D01*
X922802D01*
X922717Y738915D01*
X922891Y738705D01*
X922913Y738683D01*
X922935Y738639D01*
X923002Y738572D01*
X923069Y738461D01*
X923224Y738217D01*
X923379Y737884D01*
X923402Y737862D01*
X923468Y737795D01*
X923624Y737617D01*
X923646Y737595D01*
X923690Y737529D01*
X923779Y737440D01*
X923890Y737284D01*
X924001Y737129D01*
X924112Y736929D01*
X924223Y736730D01*
X924334Y736485D01*
Y736463D01*
X924378Y736374D01*
X924401Y736241D01*
X924445Y736064D01*
X924489Y735864D01*
X924534Y735620D01*
X924556Y735331D01*
X924578Y735042D01*
Y734931D01*
X924556Y734820D01*
X924534Y734709D01*
Y734687D01*
X924512Y734643D01*
X924467Y734487D01*
Y734465D01*
X924423Y734443D01*
X924356Y734310D01*
X924245Y734154D01*
X924156Y733999D01*
X924134Y733955D01*
X924068Y733866D01*
X923979Y733755D01*
X923868Y733622D01*
X923846Y733599D01*
X923779Y733555D01*
X923690Y733488D01*
X923579Y733422D01*
X923557Y733400D01*
X923490Y733377D01*
X923402Y733333D01*
X923268Y733311D01*
X923224D01*
X923135D01*
X922980Y733289D01*
X922802D01*
X922780D01*
X922736D01*
X922669Y733311D01*
X922558Y733333D01*
X922536D01*
X922447Y733355D01*
X922380Y733377D01*
X922292D01*
X922247D01*
X922158Y733355D01*
X922025Y733311D01*
X921870Y733244D01*
X921825Y733222D01*
X921737Y733178D01*
X921581Y733089D01*
X921404Y733000D01*
X921337Y733089D01*
X921315D01*
X921270Y733111D01*
X921182Y733155D01*
X921093Y733222D01*
X921071Y733244D01*
X920982Y733311D01*
X920893Y733400D01*
X920760Y733555D01*
X920738Y733577D01*
X920693Y733644D01*
X920627Y733755D01*
X920560Y733866D01*
X920538Y733888D01*
X920493Y733955D01*
X920427Y734043D01*
X920338Y734154D01*
X920316Y734177D01*
X920249Y734265D01*
X920161Y734376D01*
X920027Y734532D01*
X919872Y734709D01*
X919716Y734909D01*
X919361Y735331D01*
X919339Y735353D01*
X919317Y735397D01*
X919250Y735464D01*
X919184Y735531D01*
X919028Y735753D01*
X918873Y735975D01*
Y735997D01*
X918829Y736041D01*
X918784Y736086D01*
X918740Y736174D01*
X918629Y736374D01*
X918518Y736596D01*
X918495D01*
X918473Y736641D01*
X918429Y736685D01*
X918362Y736774D01*
X918296Y736863D01*
X918207Y736996D01*
X918096Y737151D01*
X918007Y737351D01*
X917985Y737373D01*
X917963Y737440D01*
X917918Y737551D01*
X917852Y737662D01*
X917763Y737951D01*
X917741Y738106D01*
X917719Y738239D01*
Y738328D01*
X917763Y738394D01*
X917807Y738461D01*
X917830Y738483D01*
X917852Y738505D01*
X917918Y738550D01*
X918007Y738572D01*
X918518D01*
X918540D01*
X918562D01*
X918695Y738550D01*
X918851Y738505D01*
X919028Y738394D01*
X919073Y738372D01*
X919162Y738283D01*
X919273Y738128D01*
X919428Y737928D01*
X919450Y737884D01*
X919494Y737795D01*
X919539Y737662D01*
X919628Y737506D01*
X919650Y737462D01*
X919694Y737373D01*
X919761Y737240D01*
X919850Y737085D01*
X919872Y737063D01*
X919916Y737018D01*
X920027Y736885D01*
X920116Y736796D01*
X920205Y736685D01*
X920227Y736663D01*
X920249Y736618D01*
X920316Y736552D01*
X920383Y736441D01*
X920493Y736308D01*
X920627Y736152D01*
X920760Y735975D01*
X920915Y735775D01*
X920938Y735731D01*
X921026Y735642D01*
X921159Y735486D01*
X921270Y735353D01*
X921293Y735331D01*
X921359Y735264D01*
X921448Y735175D01*
X921515Y735109D01*
X921537Y735087D01*
X921626Y735064D01*
X921759Y734998D01*
X921914Y734954D01*
X921959D01*
X922070Y734931D01*
X922225Y734909D01*
X922425D01*
X922469D01*
X922558D01*
X922669Y734931D01*
X922802Y734976D01*
X922824Y734998D01*
X922891Y735020D01*
X922980Y735087D01*
X923069Y735175D01*
Y735198D01*
X923113Y735242D01*
X923157Y735331D01*
X923202Y735442D01*
Y735464D01*
X923246Y735553D01*
X923291Y735686D01*
X923335Y735864D01*
X923313Y735886D01*
X923291Y735953D01*
X923268Y736086D01*
X923224Y736241D01*
Y736285D01*
X923180Y736396D01*
X923157Y736574D01*
X923091Y736774D01*
Y736796D01*
X923046Y736818D01*
X923024Y736885D01*
X922958Y736974D01*
X922847Y737173D01*
X922691Y737418D01*
Y737440D01*
X922647Y737484D01*
X922602Y737551D01*
X922558Y737640D01*
X922403Y737862D01*
X922247Y738106D01*
X922225Y738128D01*
X922181Y738217D01*
Y738239D01*
X922158Y738261D01*
X922070Y738372D01*
X922047Y738394D01*
X922003Y738439D01*
X921914Y738528D01*
X921803Y738639D01*
X921781Y738661D01*
X921692Y738750D01*
X921559Y738883D01*
X921404Y739061D01*
X921437Y739077D01*
X921426Y739083D01*
X921381Y739127D01*
X921315Y739216D01*
X921293Y739238D01*
X921270Y739283D01*
X921248Y739349D01*
X921226Y739438D01*
Y739504D01*
X921270Y739571D01*
X921315Y739638D01*
Y739660D01*
X921359Y739682D01*
X921381Y739704D01*
X921426Y739726D01*
X921448D01*
X921492D01*
X921559D01*
X921670D01*
X921692D01*
X921759Y739749D01*
X921870D01*
X922003Y739771D01*
X922025D01*
X922070D01*
X922136Y739793D01*
X922203Y739815D01*
X922425Y739837D01*
X922669Y739904D01*
X922691D01*
X922713Y739926D01*
X922824Y739971D01*
X922935Y740060D01*
X922958Y740104D01*
X922980Y740148D01*
Y740193D01*
X922958Y740259D01*
X922913Y740348D01*
X922847Y740437D01*
X922736Y740570D01*
X922602Y740703D01*
X922425Y740836D01*
X922403Y740859D01*
X922314Y740903D01*
X922203Y740992D01*
X922070Y741081D01*
X921892Y741192D01*
X921692Y741325D01*
X921248Y741547D01*
X921226D01*
X921182Y741591D01*
X921026Y741680D01*
X921004Y741702D01*
X920960Y741724D01*
X920804Y741813D01*
X920782D01*
X920738Y741835D01*
X920582Y741880D01*
X920560D01*
X920493Y741902D01*
X920360Y741946D01*
X920338D01*
X920294Y741969D01*
X920183Y742057D01*
X920161Y742080D01*
X920116Y742102D01*
X920072Y742146D01*
X920005Y742168D01*
X919983Y742191D01*
X919916Y742213D01*
X919827Y742235D01*
X919739Y742279D01*
X919716D01*
X919650Y742302D01*
X919561Y742346D01*
X919472Y742368D01*
X919450D01*
X919383Y742390D01*
X919228Y742457D01*
X919206Y742479D01*
X919162Y742501D01*
X919095Y742524D01*
X919028Y742546D01*
X919006Y742524D01*
X918940Y742435D01*
X918873Y742324D01*
X918806Y742213D01*
X918784Y742191D01*
X918740Y742146D01*
X918673Y742102D01*
X918606Y742057D01*
X918584D01*
X918540Y742013D01*
X918407Y741969D01*
X918384D01*
X918340D01*
X918207Y741991D01*
X918185D01*
X918140Y742013D01*
X918029Y742080D01*
X918007Y742102D01*
X917963Y742124D01*
X917852Y742213D01*
X917830Y742235D01*
X917807Y742257D01*
X917719Y742346D01*
X917696Y742368D01*
X917674Y742390D01*
X917563Y742457D01*
Y742590D01*
X917541Y742679D01*
Y742701D01*
X917519Y742768D01*
X917452Y742923D01*
X917430Y742945D01*
X917385Y742968D01*
X917341D01*
X917319D01*
X917297Y742990D01*
X917208Y743034D01*
X917186Y743079D01*
X917163Y743167D01*
Y743234D01*
X917141Y743345D01*
Y743389D01*
X917119Y743456D01*
Y743567D01*
X917163Y743656D01*
X917186Y743678D01*
X917208Y743700D01*
X917252Y743722D01*
X917341D01*
X917452D01*
X917585D01*
X917763Y743700D01*
Y743722D01*
X917785Y743767D01*
X917874Y743878D01*
Y743900D01*
X917896Y743944D01*
X917963Y744055D01*
X917985Y744078D01*
X918029Y744144D01*
X918118Y744255D01*
X918207Y744366D01*
X918229Y744388D01*
X918273Y744455D01*
X918429Y744633D01*
X918451Y744655D01*
X918518Y744721D01*
X918629Y744788D01*
X918740Y744855D01*
X918762Y744877D01*
X918829Y744899D01*
X918917Y744943D01*
X919028Y744988D01*
X919051D01*
X919117Y745010D01*
X919228Y745032D01*
X919339Y745054D01*
X919361D01*
X919428Y745077D01*
X919517D01*
X919628D01*
X919672D01*
X919761D01*
X919872D01*
X920027Y745054D01*
X920050D01*
X920138Y745032D01*
X920272Y745010D01*
X920405Y744988D01*
X920427D01*
X920471Y744966D01*
X920516Y744943D01*
X920604Y744877D01*
X920627Y744855D01*
X920671Y744832D01*
X920738Y744788D01*
X920826Y744766D01*
X920871D01*
X920982D01*
X921026D01*
X921093D01*
X921137D01*
X921226Y744721D01*
X921359Y744677D01*
X921515Y744633D01*
X921537D01*
X921626Y744588D01*
X921759Y744566D01*
X921892Y744544D01*
X921914D01*
X922003D01*
X922092D01*
X922181Y744566D01*
X922203D01*
X922247Y744610D01*
X922292Y744655D01*
X922358Y744721D01*
Y744744D01*
X922380Y744766D01*
Y744921D01*
X922358Y744966D01*
X922292Y745121D01*
X922269Y745143D01*
X922225Y745232D01*
X922158Y745321D01*
X922070Y745454D01*
X922047Y745476D01*
X921981Y745565D01*
X921892Y745676D01*
X921781Y745809D01*
X921759Y745831D01*
X921692Y745898D01*
X921603Y745987D01*
X921515Y746076D01*
X921492Y746098D01*
X921426Y746164D01*
X921359Y746253D01*
X921270Y746320D01*
X921377Y746369D01*
X921359Y746386D01*
X921226Y746497D01*
X921204Y746519D01*
X921159Y746542D01*
X921071Y746586D01*
X920982Y746653D01*
X920471Y747363D01*
X920449Y747385D01*
X920360Y747474D01*
X920227Y747607D01*
X920072Y747785D01*
X920050Y747807D01*
X920027Y747829D01*
X919961Y747896D01*
X919894Y747985D01*
X919694Y748207D01*
X919450Y748473D01*
X919428D01*
X919383Y748518D01*
X919295Y748562D01*
X919206Y748628D01*
X919184Y748651D01*
X919117Y748695D01*
X919028Y748784D01*
X918917Y748895D01*
X918895Y748917D01*
X918851Y748984D01*
X918784Y749072D01*
X918695Y749161D01*
X918673Y749184D01*
X918629Y749250D01*
X918473Y749406D01*
X918451Y749428D01*
X918384Y749494D01*
X918296Y749583D01*
X918185Y749694D01*
X918163Y749716D01*
X918096Y749783D01*
X918007Y749872D01*
X917896Y749960D01*
X917874Y749983D01*
X917830Y750049D01*
X917763Y750160D01*
X917696Y750271D01*
X917674Y750294D01*
X917652Y750382D01*
X917630Y750493D01*
X917607Y750627D01*
Y750738D01*
X917630Y750848D01*
X917674Y750937D01*
Y750959D01*
X917719Y751004D01*
X917763Y751048D01*
X917830Y751070D01*
X917874Y751048D01*
X917963Y751004D01*
X918096Y750937D01*
X918251Y750871D01*
X918340Y750915D01*
Y750937D01*
X918318Y750982D01*
X918296Y751070D01*
X918251Y751159D01*
X918185Y751381D01*
X918118Y751581D01*
Y751603D01*
X918096Y751625D01*
X918074Y751714D01*
X918052Y751825D01*
X918029Y751892D01*
Y752003D01*
X918052Y752136D01*
X918074Y752291D01*
X918140Y752469D01*
X918207Y752624D01*
X918318Y752802D01*
X918473Y752935D01*
X918495Y752957D01*
X918562Y753002D01*
X918651Y753046D01*
X918784Y753113D01*
X918962Y753179D01*
X919184Y753246D01*
X919450Y753268D01*
X919739Y753290D01*
X919761D01*
X919850D01*
X919983Y753268D01*
X920138Y753246D01*
X920183D01*
X920272Y753224D01*
X920427Y753202D01*
X920604Y753135D01*
X920627D01*
X920649Y753113D01*
X920782Y753068D01*
X920938Y753002D01*
X921093Y752913D01*
X921115Y752891D01*
X921204Y752846D01*
X921293Y752780D01*
X921381Y752713D01*
X921404D01*
X921448Y752735D01*
X921559Y752802D01*
X921581Y752846D01*
X921603Y752935D01*
Y752980D01*
X921559Y753068D01*
Y753091D01*
X921515Y753135D01*
X921470Y753202D01*
X921404Y753290D01*
X921381Y753313D01*
X921315Y753379D01*
X921226Y753468D01*
X921093Y753579D01*
X921048Y753601D01*
X920960Y753668D01*
X920804Y753801D01*
X920627Y753956D01*
X920604D01*
X920582Y753979D01*
X920449Y754023D01*
X920227Y754090D01*
X919961Y754134D01*
X919939D01*
X919894Y754156D01*
X919805D01*
X919694Y754178D01*
X919561Y754201D01*
X919383Y754245D01*
X919006Y754289D01*
X918984D01*
X918917Y754312D01*
X918806D01*
X918695Y754334D01*
X918384Y754378D01*
X918074Y754423D01*
X918052D01*
X918007Y754445D01*
X917918D01*
X917830Y754467D01*
X917607Y754534D01*
X917408Y754578D01*
X917385D01*
X917341Y754600D01*
X917274Y754622D01*
X917186Y754645D01*
X916942Y754733D01*
X916631Y754822D01*
X916298Y754933D01*
X915965Y755044D01*
X915610Y755155D01*
X915321Y755244D01*
X915277Y755266D01*
X915210Y755288D01*
X915077Y755333D01*
X914921Y755377D01*
X914766Y755422D01*
X914633Y755466D01*
X914500Y755510D01*
X914433Y755533D01*
X914389Y755555D01*
X914278Y755577D01*
X914122Y755644D01*
X913900Y755732D01*
X913656Y755843D01*
X913390Y755954D01*
X912857Y756199D01*
X912835Y756221D01*
X912746Y756265D01*
X912613Y756332D01*
X912457Y756421D01*
X912257Y756532D01*
X912058Y756643D01*
X911658Y756909D01*
X911636Y756931D01*
X911591Y756975D01*
X911458Y757086D01*
X911436Y757109D01*
X911392Y757153D01*
X911325Y757220D01*
X911236Y757309D01*
Y757331D01*
X911214Y757375D01*
X911170Y757442D01*
X911125Y757531D01*
X911014Y757730D01*
X910903Y757974D01*
X910881Y757997D01*
X910859Y758085D01*
X910837Y758174D01*
X910792Y758307D01*
X910770Y758330D01*
X910748Y758419D01*
X910726Y758530D01*
Y758707D01*
X910748Y758818D01*
X910837Y758951D01*
X910903Y759018D01*
X910992Y759062D01*
X911036Y759084D01*
X911103Y759107D01*
X911170Y759151D01*
X911281Y759173D01*
X911414Y759195D01*
X911569Y759218D01*
X911747D01*
X911769D01*
X911813D01*
X911880D01*
X911969D01*
X912191Y759173D01*
X912479Y759129D01*
X912502D01*
X912546Y759107D01*
X912613D01*
X912724Y759084D01*
X912990Y759018D01*
X913301Y758907D01*
X913323D01*
X913412Y758863D01*
X913523Y758818D01*
X913678Y758774D01*
X914033Y758641D01*
X914211Y758574D01*
X914366Y758530D01*
X914389D01*
X914433Y758507D01*
X914566Y758463D01*
X914722Y758419D01*
X914788D01*
X914833Y758396D01*
X914877D01*
X914966Y758352D01*
X915121Y758285D01*
X915343Y758196D01*
X915365D01*
X915388Y758174D01*
X915454Y758152D01*
X915543Y758108D01*
X915787Y757974D01*
X916098Y757819D01*
X916120Y757797D01*
X916187Y757775D01*
X916298Y757708D01*
X916409Y757664D01*
X916697Y757508D01*
X916831Y757420D01*
X916964Y757353D01*
X916986D01*
X917008Y757331D01*
X917119Y757264D01*
X917252Y757197D01*
X917297Y757175D01*
X917341Y757153D01*
X917385Y757109D01*
X917474Y757020D01*
X917519Y756975D01*
X917630Y756865D01*
X917852D01*
X917874D01*
X917918Y756842D01*
X917963Y756820D01*
X918007Y756776D01*
X918029D01*
X918052Y756754D01*
X918140Y756709D01*
X918229Y756665D01*
X918340Y756598D01*
X918473Y756532D01*
X918806Y756332D01*
X918829Y756310D01*
X918895Y756287D01*
X918984Y756221D01*
X919117Y756154D01*
X919273Y756043D01*
X919450Y755932D01*
X919872Y755666D01*
X919894D01*
X919916Y755621D01*
X920050Y755533D01*
X920227Y755422D01*
X920427Y755311D01*
X920471Y755288D01*
X920560Y755266D01*
X920715Y755222D01*
X920849Y755200D01*
X921692D01*
X921737D01*
X921848Y755222D01*
X922003Y755266D01*
X922181Y755288D01*
X922225Y755311D01*
X922336Y755333D01*
X922469Y755377D01*
X922647Y755422D01*
X922669D01*
X922691D01*
X922824Y755466D01*
X922980Y755510D01*
X923135Y755599D01*
X923157Y755621D01*
X923202Y755688D01*
X923268Y755777D01*
X923291Y755910D01*
Y756043D01*
X923268Y756132D01*
X923224Y756332D01*
X923113Y756532D01*
Y756554D01*
X923069Y756576D01*
X922958Y756687D01*
X922780Y756820D01*
X922536Y756931D01*
X922514Y756887D01*
X922469Y756776D01*
X922380Y756643D01*
X922292Y756532D01*
X922269Y756509D01*
X922203Y756465D01*
X922092Y756421D01*
X921981Y756398D01*
X921959D01*
X921914Y756421D01*
X921781Y756465D01*
X921759D01*
X921714Y756487D01*
X921626Y756532D01*
X921537Y756554D01*
X921515D01*
X921492D01*
X921404Y756576D01*
X921381D01*
X921359Y756598D01*
X921226Y756620D01*
X921182Y756643D01*
X921093Y756687D01*
X920960Y756776D01*
X920782Y756887D01*
X920383Y757153D01*
X920183Y757286D01*
X920027Y757420D01*
X920005Y757442D01*
X919961Y757486D01*
X919894Y757553D01*
X919805Y757642D01*
X919672Y757863D01*
X919628Y757974D01*
X919605Y758085D01*
Y758130D01*
X919628Y758219D01*
X919650Y758307D01*
Y758396D01*
X919672Y758463D01*
Y758574D01*
X919628Y758707D01*
Y758729D01*
X919605Y758774D01*
X919583Y758840D01*
Y758907D01*
X919605Y758973D01*
X919628Y759062D01*
X919694Y759129D01*
X919716Y759151D01*
X919783Y759173D01*
X919872Y759195D01*
X920005D01*
X920027D01*
X920072D01*
X920161Y759173D01*
X920272D01*
X920405Y759129D01*
X920538Y759084D01*
X920715Y759040D01*
X920893Y758951D01*
X920915D01*
X920960Y758907D01*
X921048Y758885D01*
X921137Y758840D01*
X921337Y758752D01*
X921404Y758729D01*
X921448Y758707D01*
X921470Y758729D01*
X921515Y758752D01*
X921559Y758796D01*
Y758818D01*
X921515Y758907D01*
Y758929D01*
X921492Y758951D01*
X921404Y759040D01*
X921426D01*
X921492Y759062D01*
X921581Y759084D01*
X921714Y759129D01*
X921737Y759151D01*
X921825Y759195D01*
X921936Y759262D01*
X922070Y759329D01*
X922092D01*
X922114Y759351D01*
X922203Y759395D01*
X922158Y759373D01*
X922003Y759329D01*
X921848Y759262D01*
X921803Y759240D01*
X921714Y759195D01*
X921559Y759129D01*
X921404Y759040D01*
X921381Y759062D01*
X921359Y759084D01*
X921226Y759195D01*
X921204Y759218D01*
X921159Y759240D01*
X921071Y759284D01*
X920982Y759351D01*
X920471Y760061D01*
X920449Y760083D01*
X920360Y760172D01*
X920227Y760305D01*
X920072Y760483D01*
X920050Y760505D01*
X920027Y760527D01*
X919961Y760594D01*
X919894Y760683D01*
X919694Y760905D01*
X919450Y761171D01*
X919428D01*
X919383Y761216D01*
X919295Y761260D01*
X919206Y761327D01*
X919184Y761349D01*
X919117Y761393D01*
X919028Y761482D01*
X918917Y761593D01*
X918895Y761615D01*
X918851Y761682D01*
X918784Y761771D01*
X918695Y761860D01*
X918673Y761882D01*
X918629Y761948D01*
X918473Y762104D01*
X918451Y762126D01*
X918384Y762193D01*
X918296Y762281D01*
X918185Y762392D01*
X918163Y762414D01*
X918096Y762481D01*
X918007Y762570D01*
X917896Y762659D01*
X917874Y762681D01*
X917830Y762747D01*
X917763Y762858D01*
X917696Y762969D01*
X917674Y762992D01*
X917652Y763080D01*
X917630Y763191D01*
X917607Y763325D01*
Y763436D01*
X917630Y763547D01*
X917674Y763635D01*
Y763658D01*
X917719Y763702D01*
X917763Y763746D01*
X917830Y763769D01*
X917874Y763746D01*
X917963Y763702D01*
X918096Y763635D01*
X918251Y763569D01*
X918340Y763613D01*
Y763635D01*
X918318Y763680D01*
X918296Y763769D01*
X918251Y763857D01*
X918185Y764079D01*
X918118Y764279D01*
Y764301D01*
X918096Y764324D01*
X918074Y764412D01*
X918052Y764523D01*
X918029Y764590D01*
Y764701D01*
X918052Y764834D01*
X918074Y764990D01*
X918140Y765167D01*
X918207Y765323D01*
X918318Y765500D01*
X918473Y765633D01*
X918495Y765656D01*
X918562Y765700D01*
X918651Y765744D01*
X918784Y765811D01*
X918962Y765878D01*
X919184Y765944D01*
X919450Y765966D01*
X919739Y765989D01*
X919761D01*
X919850D01*
X919983Y765966D01*
X920138Y765944D01*
X920183D01*
X920272Y765922D01*
X920427Y765900D01*
X920604Y765833D01*
X920627D01*
X920649Y765811D01*
X920782Y765767D01*
X920938Y765700D01*
X921093Y765611D01*
X921115Y765589D01*
X921204Y765545D01*
X921293Y765478D01*
X921381Y765411D01*
X921404D01*
X921448Y765434D01*
X921559Y765500D01*
X921581Y765545D01*
X921603Y765633D01*
Y765678D01*
X921559Y765767D01*
Y765789D01*
X921515Y765833D01*
X921470Y765900D01*
X921404Y765989D01*
X921448Y766011D01*
X921537Y766055D01*
X921692Y766100D01*
X921848Y766166D01*
X921892Y766188D01*
X921981Y766233D01*
X922136Y766299D01*
X922292Y766366D01*
X922314Y766344D01*
D02*
G37*
G36*
X920202Y728706D02*
X920291D01*
X920424Y728662D01*
X920712Y728595D01*
X921023Y728462D01*
X921356Y728307D01*
X921645Y728085D01*
X921756Y727952D01*
X921845Y727796D01*
X921911Y727641D01*
X921933Y727463D01*
Y727108D01*
X921911Y726886D01*
X921800Y726220D01*
Y726198D01*
X921778Y726109D01*
X921756Y725976D01*
X921734Y725820D01*
X921711Y725443D01*
X921689Y725265D01*
Y725021D01*
X921711Y724910D01*
X921734Y724755D01*
X921756Y724599D01*
X921822Y724400D01*
X921889Y724200D01*
X922000Y724000D01*
X921978D01*
X921933Y724022D01*
X921845Y724044D01*
X921756Y724089D01*
X921489Y724222D01*
X921179Y724400D01*
X920890Y724622D01*
X920624Y724910D01*
X920535Y725088D01*
X920446Y725265D01*
X920402Y725465D01*
X920379Y725665D01*
Y725798D01*
X920402Y725954D01*
X920424Y726131D01*
X920557Y727108D01*
Y727308D01*
X920579Y727485D01*
Y727796D01*
X920557Y727929D01*
X920513Y728085D01*
X920468Y728262D01*
X920402Y728440D01*
X920291Y728595D01*
X920135Y728728D01*
X920157D01*
X920202Y728706D01*
D02*
G37*
G36*
X924889Y718388D02*
X921907Y717181D01*
X924889D01*
Y715101D01*
X916734D01*
Y717181D01*
X919369D01*
X919342Y717195D01*
X919272Y717223D01*
X919161Y717265D01*
X919023Y717334D01*
X918856Y717417D01*
X918676Y717500D01*
X918468Y717598D01*
X918246Y717695D01*
X917816Y717916D01*
X917622Y718027D01*
X917428Y718138D01*
X917261Y718235D01*
X917109Y718333D01*
X916998Y718430D01*
X916928Y718499D01*
X916915Y718513D01*
X916887Y718568D01*
X916832Y718638D01*
X916776Y718749D01*
X916734Y718873D01*
X916679Y719012D01*
X916651Y719165D01*
X916637Y719331D01*
Y719539D01*
X916651Y719678D01*
X916665Y719844D01*
X916679Y720011D01*
X916707Y720177D01*
X916748Y720343D01*
X918204D01*
Y720274D01*
X918218Y720205D01*
X918232Y720122D01*
X918288Y719927D01*
X918329Y719844D01*
X918399Y719775D01*
X918412Y719761D01*
X918454Y719733D01*
X918496Y719719D01*
X918551Y719678D01*
X918621Y719650D01*
X918718Y719595D01*
X918829Y719539D01*
X918967Y719470D01*
X919120Y719387D01*
X919300Y719303D01*
X919522Y719192D01*
X919758Y719081D01*
X920035Y718957D01*
X920354Y718804D01*
X924889Y720760D01*
Y718388D01*
D02*
G37*
G36*
Y712425D02*
X921006D01*
Y711856D01*
X924889D01*
Y709637D01*
X916734D01*
Y711856D01*
X919785D01*
Y712425D01*
X916734D01*
Y714644D01*
X924889D01*
Y712425D01*
D02*
G37*
G36*
Y707363D02*
X924584D01*
X924598Y707349D01*
X924653Y707307D01*
X924709Y707238D01*
X924792Y707113D01*
X924834Y707044D01*
X924861Y706947D01*
X924903Y706850D01*
X924931Y706725D01*
X924958Y706586D01*
X924986Y706433D01*
X925000Y706267D01*
Y706003D01*
X924986Y705920D01*
Y705823D01*
X924958Y705698D01*
X924931Y705560D01*
X924889Y705407D01*
X924834Y705255D01*
X924778Y705102D01*
X924695Y704949D01*
X924584Y704811D01*
X924459Y704686D01*
X924320Y704589D01*
X924140Y704506D01*
X923946Y704450D01*
X923724Y704436D01*
X922088D01*
X922060D01*
X921991D01*
X921893Y704464D01*
X921769Y704492D01*
X921616Y704533D01*
X921463Y704603D01*
X921297Y704700D01*
X921144Y704825D01*
X921131Y704839D01*
X921075Y704908D01*
X920978Y705019D01*
X920923Y705088D01*
X920853Y705171D01*
X920784Y705282D01*
X920715Y705393D01*
X920631Y705532D01*
X920534Y705671D01*
X920437Y705837D01*
X920340Y706017D01*
X920229Y706212D01*
X920118Y706433D01*
Y706447D01*
X920104Y706461D01*
X920063Y706544D01*
X919994Y706655D01*
X919924Y706794D01*
X919827Y706919D01*
X919744Y707030D01*
X919647Y707113D01*
X919605Y707127D01*
X919564Y707141D01*
X918343D01*
X918329D01*
X918274D01*
X918218Y707127D01*
X918135Y707099D01*
X918066Y707057D01*
X917996Y706988D01*
X917955Y706905D01*
X917941Y706780D01*
Y706766D01*
X917955Y706725D01*
X917996Y706655D01*
X918066Y706586D01*
X918121Y706544D01*
X918177Y706503D01*
X918260Y706475D01*
X918357Y706447D01*
X918468Y706420D01*
X918607Y706392D01*
X918745Y706378D01*
X918926D01*
X918940D01*
X918953D01*
X918995D01*
X919050D01*
X919134D01*
X919217D01*
X919314Y706392D01*
X919439D01*
X919453D01*
X919494Y706406D01*
X919564D01*
X919633Y706420D01*
X919813Y706433D01*
X919896D01*
X919966D01*
Y704506D01*
X918343D01*
X918329D01*
X918274D01*
X918191Y704520D01*
X918080Y704547D01*
X917955Y704575D01*
X917816Y704631D01*
X917664Y704700D01*
X917511Y704811D01*
X917358Y704936D01*
X917206Y705088D01*
X917067Y705282D01*
X916942Y705518D01*
X916832Y705782D01*
X916748Y706101D01*
X916693Y706475D01*
X916679Y706669D01*
Y706988D01*
X916693Y707099D01*
X916707Y707238D01*
X916734Y707418D01*
X916776Y707598D01*
X916818Y707806D01*
X916901Y708015D01*
X916984Y708223D01*
X917095Y708430D01*
X917247Y708611D01*
X917414Y708791D01*
X917608Y708930D01*
X917844Y709041D01*
X918107Y709110D01*
X918412Y709138D01*
X924889D01*
Y707363D01*
D02*
G37*
G36*
Y701857D02*
X918024D01*
Y701094D01*
X924889D01*
Y699014D01*
X916734Y699000D01*
Y704007D01*
X924889D01*
Y701857D01*
D02*
G37*
%LPC*%
G36*
X320093Y444886D02*
X317736D01*
Y439523D01*
X320301D01*
X320456Y439548D01*
X320845Y439600D01*
X321259Y439704D01*
X321285D01*
X321363Y439756D01*
X321441Y439782D01*
X321570Y439859D01*
X321881Y440041D01*
X322192Y440274D01*
X322218Y440300D01*
X322270Y440352D01*
X322347Y440429D01*
X322425Y440533D01*
X322632Y440792D01*
X322840Y441155D01*
Y441181D01*
X322866Y441259D01*
X322917Y441362D01*
X322969Y441518D01*
X322995Y441673D01*
X323047Y441880D01*
X323073Y442347D01*
Y442373D01*
Y442398D01*
Y442554D01*
X323021Y442761D01*
X322969Y443020D01*
X322892Y443331D01*
X322736Y443642D01*
X322555Y443927D01*
X322296Y444212D01*
X322270Y444238D01*
X322140Y444316D01*
X321985Y444419D01*
X321726Y444549D01*
X321415Y444678D01*
X321052Y444782D01*
X320586Y444860D01*
X320093Y444886D01*
D02*
G37*
G36*
X450333Y441051D02*
X450126D01*
X449919Y440999D01*
X449633Y440948D01*
X449323Y440844D01*
X448960Y440689D01*
X448623Y440481D01*
X448286Y440196D01*
X448260Y440170D01*
X448157Y440041D01*
X448027Y439859D01*
X447846Y439600D01*
X447664Y439290D01*
X447509Y438901D01*
X447379Y438460D01*
X447276Y437968D01*
X452976D01*
Y437994D01*
Y438020D01*
Y438098D01*
X452950Y438201D01*
X452924Y438460D01*
X452872Y438797D01*
X452794Y439160D01*
X452665Y439523D01*
X452483Y439885D01*
X452250Y440222D01*
X452224Y440248D01*
X452121Y440352D01*
X451965Y440481D01*
X451758Y440637D01*
X451473Y440792D01*
X451136Y440922D01*
X450773Y441025D01*
X450333Y441051D01*
D02*
G37*
G36*
X431109D02*
X430954D01*
X430850Y441025D01*
X430539Y440999D01*
X430177Y440922D01*
X429762Y440792D01*
X429347Y440585D01*
X428933Y440300D01*
X428726Y440144D01*
X428544Y439937D01*
X428493Y439885D01*
X428389Y439730D01*
X428259Y439471D01*
X428078Y439134D01*
X427897Y438694D01*
X427767Y438175D01*
X427663Y437579D01*
X427612Y436880D01*
Y436854D01*
Y436802D01*
Y436699D01*
X427638Y436569D01*
Y436414D01*
X427663Y436232D01*
X427741Y435818D01*
X427845Y435351D01*
X428000Y434859D01*
X428233Y434367D01*
X428544Y433927D01*
X428596Y433875D01*
X428726Y433771D01*
X428933Y433590D01*
X429218Y433408D01*
X429581Y433201D01*
X430021Y433020D01*
X430539Y432916D01*
X431109Y432864D01*
X431265D01*
X431368Y432890D01*
X431679Y432916D01*
X432042Y432994D01*
X432431Y433123D01*
X432871Y433305D01*
X433260Y433564D01*
X433622Y433901D01*
X433648Y433952D01*
X433752Y434108D01*
X433907Y434341D01*
X434063Y434678D01*
X434218Y435118D01*
X434374Y435636D01*
X434477Y436232D01*
X434503Y436932D01*
Y436958D01*
Y437010D01*
Y437113D01*
Y437269D01*
X434477Y437424D01*
X434451Y437605D01*
X434400Y438046D01*
X434296Y438538D01*
X434141Y439030D01*
X433907Y439523D01*
X433622Y439963D01*
X433571Y440015D01*
X433467Y440144D01*
X433260Y440300D01*
X432975Y440507D01*
X432612Y440714D01*
X432197Y440870D01*
X431679Y440999D01*
X431109Y441051D01*
D02*
G37*
G36*
X413103D02*
X412896D01*
X412689Y440999D01*
X412404Y440948D01*
X412093Y440844D01*
X411730Y440689D01*
X411393Y440481D01*
X411057Y440196D01*
X411031Y440170D01*
X410927Y440041D01*
X410797Y439859D01*
X410616Y439600D01*
X410435Y439290D01*
X410279Y438901D01*
X410150Y438460D01*
X410046Y437968D01*
X415746D01*
Y437994D01*
Y438020D01*
Y438098D01*
X415720Y438201D01*
X415694Y438460D01*
X415642Y438797D01*
X415564Y439160D01*
X415435Y439523D01*
X415254Y439885D01*
X415020Y440222D01*
X414995Y440248D01*
X414891Y440352D01*
X414735Y440481D01*
X414528Y440637D01*
X414243Y440792D01*
X413906Y440922D01*
X413544Y441025D01*
X413103Y441051D01*
D02*
G37*
G36*
X401574D02*
X401445D01*
X401341Y441025D01*
X401056Y440999D01*
X400719Y440922D01*
X400356Y440792D01*
X399968Y440611D01*
X399579Y440352D01*
X399216Y440015D01*
X399191Y439963D01*
X399087Y439833D01*
X398932Y439626D01*
X398776Y439315D01*
X398621Y438953D01*
X398465Y438512D01*
X398362Y438020D01*
X398336Y437450D01*
Y435973D01*
Y435947D01*
Y435921D01*
X398362Y435766D01*
X398387Y435507D01*
X398439Y435222D01*
X398543Y434859D01*
X398698Y434496D01*
X398880Y434134D01*
X399165Y433771D01*
X399216Y433745D01*
X399320Y433642D01*
X399501Y433486D01*
X399761Y433331D01*
X400071Y433149D01*
X400434Y433020D01*
X400849Y432916D01*
X401315Y432864D01*
X401470D01*
X401574Y432890D01*
X401833Y432916D01*
X402196Y433020D01*
X402559Y433149D01*
X402973Y433357D01*
X403362Y433642D01*
X403543Y433823D01*
X403699Y434030D01*
Y434056D01*
X403725Y434082D01*
X403776Y434160D01*
X403828Y434237D01*
X403906Y434367D01*
X403984Y434522D01*
X404139Y434885D01*
X404295Y435351D01*
X404450Y435896D01*
X404553Y436543D01*
X404580Y437295D01*
Y437321D01*
Y437372D01*
Y437450D01*
Y437579D01*
X404553Y437735D01*
X404528Y437890D01*
X404476Y438279D01*
X404372Y438719D01*
X404243Y439186D01*
X404035Y439626D01*
X403750Y440041D01*
X403725Y440093D01*
X403595Y440196D01*
X403414Y440352D01*
X403180Y440559D01*
X402869Y440740D01*
X402507Y440896D01*
X402066Y440999D01*
X401574Y441051D01*
D02*
G37*
G36*
X383983D02*
X383775D01*
X383568Y440999D01*
X383283Y440948D01*
X382972Y440844D01*
X382609Y440689D01*
X382273Y440481D01*
X381936Y440196D01*
X381910Y440170D01*
X381806Y440041D01*
X381677Y439859D01*
X381495Y439600D01*
X381314Y439290D01*
X381159Y438901D01*
X381029Y438460D01*
X380925Y437968D01*
X386625D01*
Y437994D01*
Y438020D01*
Y438098D01*
X386599Y438201D01*
X386573Y438460D01*
X386522Y438797D01*
X386444Y439160D01*
X386314Y439523D01*
X386133Y439885D01*
X385900Y440222D01*
X385874Y440248D01*
X385770Y440352D01*
X385615Y440481D01*
X385407Y440637D01*
X385122Y440792D01*
X384786Y440922D01*
X384423Y441025D01*
X383983Y441051D01*
D02*
G37*
G36*
X361987D02*
X361831D01*
X361728Y441025D01*
X361417Y440999D01*
X361054Y440922D01*
X360639Y440792D01*
X360225Y440585D01*
X359810Y440300D01*
X359603Y440144D01*
X359422Y439937D01*
X359370Y439885D01*
X359266Y439730D01*
X359137Y439471D01*
X358955Y439134D01*
X358774Y438694D01*
X358645Y438175D01*
X358541Y437579D01*
X358489Y436880D01*
Y436854D01*
Y436802D01*
Y436699D01*
X358515Y436569D01*
Y436414D01*
X358541Y436232D01*
X358619Y435818D01*
X358722Y435351D01*
X358878Y434859D01*
X359111Y434367D01*
X359422Y433927D01*
X359474Y433875D01*
X359603Y433771D01*
X359810Y433590D01*
X360095Y433408D01*
X360458Y433201D01*
X360899Y433020D01*
X361417Y432916D01*
X361987Y432864D01*
X362142D01*
X362246Y432890D01*
X362557Y432916D01*
X362919Y432994D01*
X363308Y433123D01*
X363748Y433305D01*
X364137Y433564D01*
X364500Y433901D01*
X364526Y433952D01*
X364629Y434108D01*
X364785Y434341D01*
X364940Y434678D01*
X365096Y435118D01*
X365251Y435636D01*
X365355Y436232D01*
X365381Y436932D01*
Y436958D01*
Y437010D01*
Y437113D01*
Y437269D01*
X365355Y437424D01*
X365329Y437605D01*
X365277Y438046D01*
X365173Y438538D01*
X365018Y439030D01*
X364785Y439523D01*
X364500Y439963D01*
X364448Y440015D01*
X364344Y440144D01*
X364137Y440300D01*
X363852Y440507D01*
X363489Y440714D01*
X363075Y440870D01*
X362557Y440999D01*
X361987Y441051D01*
D02*
G37*
G36*
X332452D02*
X332244D01*
X332037Y440999D01*
X331752Y440948D01*
X331441Y440844D01*
X331078Y440689D01*
X330742Y440481D01*
X330405Y440196D01*
X330379Y440170D01*
X330275Y440041D01*
X330146Y439859D01*
X329964Y439600D01*
X329783Y439290D01*
X329628Y438901D01*
X329498Y438460D01*
X329394Y437968D01*
X335094D01*
Y437994D01*
Y438020D01*
Y438098D01*
X335068Y438201D01*
X335042Y438460D01*
X334991Y438797D01*
X334913Y439160D01*
X334783Y439523D01*
X334602Y439885D01*
X334369Y440222D01*
X334343Y440248D01*
X334239Y440352D01*
X334084Y440481D01*
X333876Y440637D01*
X333591Y440792D01*
X333255Y440922D01*
X332892Y441025D01*
X332452Y441051D01*
D02*
G37*
G36*
X484117D02*
X483962D01*
X483858Y441025D01*
X483573Y440999D01*
X483236Y440922D01*
X482848Y440766D01*
X482433Y440559D01*
X482044Y440300D01*
X481863Y440118D01*
X481682Y439911D01*
X481656Y439859D01*
X481604Y439782D01*
X481552Y439704D01*
X481397Y439445D01*
X481241Y439082D01*
X481086Y438642D01*
X480930Y438098D01*
X480827Y437450D01*
X480801Y436725D01*
Y436699D01*
Y436647D01*
Y436543D01*
X480827Y436440D01*
Y436284D01*
X480853Y436103D01*
X480904Y435714D01*
X481008Y435274D01*
X481163Y434781D01*
X481345Y434315D01*
X481630Y433901D01*
X481682Y433849D01*
X481785Y433745D01*
X481967Y433564D01*
X482226Y433382D01*
X482562Y433201D01*
X482951Y433020D01*
X483392Y432916D01*
X483884Y432864D01*
X484013D01*
X484117Y432890D01*
X484376Y432916D01*
X484687Y432994D01*
X485050Y433097D01*
X485438Y433279D01*
X485801Y433512D01*
X486164Y433849D01*
X486216Y433901D01*
X486319Y434030D01*
X486449Y434263D01*
X486630Y434548D01*
X486786Y434937D01*
X486941Y435377D01*
X487045Y435870D01*
X487071Y436440D01*
Y437994D01*
Y438020D01*
Y438046D01*
Y438201D01*
X487019Y438434D01*
X486967Y438719D01*
X486863Y439056D01*
X486708Y439419D01*
X486501Y439782D01*
X486216Y440144D01*
X486190Y440196D01*
X486060Y440300D01*
X485879Y440429D01*
X485646Y440611D01*
X485335Y440766D01*
X484972Y440922D01*
X484557Y441025D01*
X484117Y441051D01*
D02*
G37*
G36*
X916612Y835826D02*
X916524D01*
X916435Y835811D01*
X916331Y835781D01*
X916242Y835737D01*
X916227Y835722D01*
X916213Y835707D01*
X916183Y835663D01*
X916139Y835603D01*
X916065Y835455D01*
X916050Y835352D01*
X916035Y835248D01*
Y835189D01*
X916050Y835129D01*
X916065Y835041D01*
X916124Y834848D01*
X916168Y834730D01*
X916242Y834611D01*
X916257Y834596D01*
X916272Y834567D01*
X916316Y834508D01*
X916390Y834434D01*
X916464Y834360D01*
X916568Y834300D01*
X916686Y834226D01*
X916820Y834167D01*
X918375Y833649D01*
X918108Y834152D01*
X917693Y834893D01*
X917679Y834907D01*
X917649Y834952D01*
X917619Y835011D01*
X917560Y835100D01*
X917442Y835263D01*
X917383Y835352D01*
X917323Y835426D01*
X917309Y835441D01*
X917279Y835470D01*
X917234Y835515D01*
X917175Y835574D01*
X917012Y835692D01*
X916924Y835751D01*
X916820Y835781D01*
X916805D01*
X916761Y835796D01*
X916701Y835811D01*
X916612Y835826D01*
D02*
G37*
G36*
X919663Y836151D02*
X919545Y836136D01*
X919426Y836107D01*
X919322Y836048D01*
X919308Y836033D01*
X919278Y836018D01*
X919233Y835974D01*
X919174Y835900D01*
X919115Y835826D01*
X919071Y835707D01*
X919041Y835574D01*
X919026Y835426D01*
Y834360D01*
X919041Y834271D01*
X919056Y834167D01*
X919100Y834048D01*
X919145Y833915D01*
X919219Y833767D01*
X919308Y833619D01*
Y833604D01*
X919337Y833589D01*
X919396Y833501D01*
X919500Y833397D01*
X919633Y833293D01*
X919648D01*
X919663Y833279D01*
X919752Y833219D01*
X919870Y833145D01*
X920018Y833086D01*
X923024Y832064D01*
X923039D01*
X923099Y832049D01*
X923173Y832035D01*
X923261Y832020D01*
X923380D01*
X923498Y832035D01*
X923617Y832049D01*
X923735Y832109D01*
X923750Y832123D01*
X923809Y832183D01*
X923883Y832257D01*
X923957Y832360D01*
Y832375D01*
X923972Y832390D01*
X923987Y832479D01*
X924002Y832597D01*
X924017Y832731D01*
Y833812D01*
X924002Y833886D01*
X923987Y833989D01*
X923957Y834123D01*
X923898Y834256D01*
X923839Y834389D01*
X923750Y834537D01*
X923735Y834552D01*
X923706Y834596D01*
X923632Y834670D01*
X923558Y834744D01*
X923454Y834833D01*
X923321Y834922D01*
X923187Y835011D01*
X923024Y835070D01*
X920018Y836092D01*
X920004D01*
X919944Y836107D01*
X919870Y836136D01*
X919781D01*
X919663Y836151D01*
D02*
G37*
G36*
Y815183D02*
X919545Y815168D01*
X919426Y815138D01*
X919308Y815079D01*
X919293Y815064D01*
X919263Y815050D01*
X919219Y815005D01*
X919159Y814931D01*
X919100Y814857D01*
X919056Y814739D01*
X919026Y814605D01*
X919011Y814457D01*
Y813391D01*
X919026Y813302D01*
X919041Y813199D01*
X919085Y813080D01*
X919130Y812947D01*
X919204Y812799D01*
X919308Y812651D01*
Y812636D01*
X919337Y812621D01*
X919396Y812532D01*
X919500Y812429D01*
X919633Y812325D01*
X919648D01*
X919663Y812310D01*
X919752Y812251D01*
X919870Y812177D01*
X920018Y812118D01*
X923024Y811096D01*
X923039D01*
X923099Y811081D01*
X923173Y811066D01*
X923261Y811051D01*
X923380D01*
X923498Y811066D01*
X923617Y811081D01*
X923735Y811140D01*
X923750Y811155D01*
X923809Y811214D01*
X923883Y811288D01*
X923957Y811392D01*
Y811407D01*
X923972Y811422D01*
X923987Y811510D01*
X924002Y811629D01*
X924017Y811762D01*
Y812843D01*
X924002Y812917D01*
X923987Y813021D01*
X923957Y813154D01*
X923898Y813287D01*
X923839Y813421D01*
X923750Y813569D01*
X923735Y813584D01*
X923706Y813628D01*
X923632Y813702D01*
X923558Y813776D01*
X923454Y813865D01*
X923321Y813954D01*
X923187Y814043D01*
X923024Y814102D01*
X920018Y815124D01*
X920004D01*
X919944Y815138D01*
X919870Y815168D01*
X919767D01*
X919663Y815183D01*
D02*
G37*
G36*
X913101Y801728D02*
Y801639D01*
X913123D01*
X913190Y801617D01*
X913256Y801572D01*
X913323Y801528D01*
X913434Y801461D01*
X913567Y801372D01*
X913745Y801261D01*
X913945Y801128D01*
X914189Y800973D01*
X914477Y800773D01*
X914810Y800529D01*
X915188Y800262D01*
X915610Y799929D01*
X916098Y799574D01*
X916120Y799552D01*
X916209Y799485D01*
X916342Y799374D01*
X916520Y799263D01*
X916720Y799086D01*
X916964Y798930D01*
X917474Y798553D01*
X917985Y798153D01*
X918229Y797998D01*
X918451Y797843D01*
X918629Y797709D01*
X918784Y797598D01*
X918895Y797532D01*
X918962Y797510D01*
X919028D01*
Y798664D01*
X919006Y798953D01*
Y799974D01*
X918984Y800751D01*
X918962Y801617D01*
X918917D01*
X918829D01*
X918673D01*
X918451D01*
X918185D01*
X917874Y801639D01*
X917519D01*
X917119D01*
X916675D01*
X916231Y801661D01*
X915743D01*
X915232Y801683D01*
X914189Y801705D01*
X913101Y801728D01*
D02*
G37*
G36*
X920449Y764634D02*
X920427D01*
X920405Y764612D01*
X920294Y764590D01*
X920138Y764523D01*
X920005Y764457D01*
X919983D01*
X919916Y764412D01*
X919827Y764368D01*
X919783Y764324D01*
X919761Y764279D01*
Y764213D01*
X919739Y764102D01*
Y764079D01*
X919716Y763991D01*
X919672Y763835D01*
X919650Y763635D01*
X919672Y763613D01*
X919694Y763569D01*
X919761Y763502D01*
X919783Y763480D01*
X919827Y763458D01*
X919894Y763391D01*
X919983Y763325D01*
X920027Y763302D01*
X920116Y763236D01*
X920272Y763147D01*
X920449Y763014D01*
X920471Y762992D01*
X920516Y762947D01*
X920582Y762858D01*
X920649Y762770D01*
Y762747D01*
X920671Y762703D01*
X920693Y762614D01*
X920738Y762525D01*
Y762503D01*
X920760Y762459D01*
X920804Y762392D01*
X920915Y762303D01*
X920938Y762281D01*
X921048Y762237D01*
X921204Y762193D01*
X921426Y762104D01*
X921448D01*
X921470Y762082D01*
X921603Y762037D01*
X921781Y761993D01*
X921959Y761948D01*
X921981D01*
X922070Y761926D01*
X922181Y761904D01*
X922292D01*
X922336D01*
X922447Y761926D01*
X922580Y761971D01*
X922691Y762037D01*
X922713Y762059D01*
X922758Y762148D01*
X922802Y762281D01*
X922824Y762459D01*
Y762525D01*
X922802Y762614D01*
Y762725D01*
X922713Y762969D01*
X922669Y763125D01*
X922580Y763258D01*
X922558Y763280D01*
X922536Y763325D01*
X922469Y763391D01*
X922403Y763480D01*
X922292Y763591D01*
X922158Y763702D01*
X922025Y763835D01*
X921848Y763946D01*
X921825Y763968D01*
X921737Y764035D01*
X921626Y764124D01*
X921515Y764235D01*
X921492Y764257D01*
X921470Y764279D01*
X921404Y764324D01*
X921315Y764368D01*
X921293D01*
X921226Y764390D01*
X921137Y764435D01*
X921004Y764457D01*
X920449Y764634D01*
D02*
G37*
G36*
X913700Y757708D02*
X913589D01*
X913567D01*
X913523Y757686D01*
X913501D01*
X913456Y757642D01*
X913478Y757619D01*
X913501Y757575D01*
X913589Y757508D01*
X913612D01*
X913678Y757464D01*
X913811Y757420D01*
X913989Y757375D01*
X914011D01*
X914100Y757331D01*
X914255Y757286D01*
X914433Y757197D01*
X914455D01*
X914477Y757175D01*
X914611Y757109D01*
X914810Y756998D01*
X915055Y756842D01*
X915077D01*
X915099Y756820D01*
X915166Y756776D01*
X915254Y756731D01*
X915476Y756620D01*
X915743Y756487D01*
X915765D01*
X915809Y756465D01*
X915876Y756421D01*
X915987Y756398D01*
X916253Y756287D01*
X916564Y756154D01*
X916586D01*
X916653Y756110D01*
X916742Y756088D01*
X916875Y756021D01*
X917163Y755910D01*
X917474Y755821D01*
X917496D01*
X917541Y755799D01*
X917607Y755777D01*
X917696D01*
X917896Y755732D01*
X918096Y755710D01*
X918185Y755732D01*
Y755755D01*
X918140Y755799D01*
X918096Y755843D01*
X918029Y755888D01*
X917941Y755932D01*
X917830Y755999D01*
X917807D01*
X917763Y756021D01*
X917674Y756065D01*
X917563Y756132D01*
X917430Y756199D01*
X917274Y756265D01*
X917075Y756354D01*
X916853Y756465D01*
X916831Y756487D01*
X916764Y756509D01*
X916653Y756554D01*
X916542Y756620D01*
X916253Y756754D01*
X916120Y756820D01*
X915987Y756865D01*
X915965D01*
X915943Y756887D01*
X915809Y756931D01*
X915654Y756998D01*
X915543Y757020D01*
X915521D01*
X915499Y757042D01*
X915365Y757064D01*
X915188Y757131D01*
X914944Y757197D01*
X914921D01*
X914877Y757220D01*
X914810Y757242D01*
X914722Y757264D01*
X914455Y757353D01*
X914167Y757442D01*
X914144Y757464D01*
X914078Y757486D01*
X913900Y757597D01*
X913878Y757619D01*
X913856Y757642D01*
X913745Y757686D01*
X913723D01*
X913700Y757708D01*
D02*
G37*
G36*
X922292Y753668D02*
X922247D01*
X922158Y753623D01*
X922025Y753579D01*
X921870Y753512D01*
X921825Y753490D01*
X921737Y753446D01*
X921581Y753379D01*
X921537Y753357D01*
X921692Y753401D01*
X921848Y753468D01*
X921892Y753490D01*
X921981Y753535D01*
X922136Y753601D01*
X922292Y753668D01*
D02*
G37*
G36*
X920449Y751936D02*
X920427D01*
X920405Y751914D01*
X920294Y751892D01*
X920138Y751825D01*
X920005Y751759D01*
X919983D01*
X919916Y751714D01*
X919827Y751670D01*
X919783Y751625D01*
X919761Y751581D01*
Y751514D01*
X919739Y751404D01*
Y751381D01*
X919716Y751292D01*
X919672Y751137D01*
X919650Y750937D01*
X919672Y750915D01*
X919694Y750871D01*
X919761Y750804D01*
X919783Y750782D01*
X919827Y750760D01*
X919894Y750693D01*
X919983Y750627D01*
X920027Y750604D01*
X920116Y750538D01*
X920272Y750449D01*
X920449Y750316D01*
X920471Y750294D01*
X920516Y750249D01*
X920582Y750160D01*
X920649Y750071D01*
Y750049D01*
X920671Y750005D01*
X920693Y749916D01*
X920738Y749827D01*
Y749805D01*
X920760Y749761D01*
X920804Y749694D01*
X920915Y749605D01*
X920938Y749583D01*
X921048Y749539D01*
X921204Y749494D01*
X921426Y749406D01*
X921448D01*
X921470Y749383D01*
X921603Y749339D01*
X921781Y749295D01*
X921959Y749250D01*
X921981D01*
X922070Y749228D01*
X922181Y749206D01*
X922292D01*
X922336D01*
X922447Y749228D01*
X922580Y749272D01*
X922691Y749339D01*
X922713Y749361D01*
X922758Y749450D01*
X922802Y749583D01*
X922824Y749761D01*
Y749827D01*
X922802Y749916D01*
Y750027D01*
X922713Y750271D01*
X922669Y750427D01*
X922580Y750560D01*
X922558Y750582D01*
X922536Y750627D01*
X922469Y750693D01*
X922403Y750782D01*
X922292Y750893D01*
X922158Y751004D01*
X922025Y751137D01*
X921848Y751248D01*
X921825Y751270D01*
X921737Y751337D01*
X921626Y751426D01*
X921515Y751537D01*
X921492Y751559D01*
X921470Y751581D01*
X921404Y751625D01*
X921315Y751670D01*
X921293D01*
X921226Y751692D01*
X921137Y751736D01*
X921004Y751759D01*
X920449Y751936D01*
D02*
G37*
G36*
X923377Y707141D02*
X921269D01*
Y707127D01*
X921283Y707113D01*
X921297Y707030D01*
X921353Y706919D01*
X921408Y706794D01*
X921491Y706655D01*
X921602Y706544D01*
X921741Y706461D01*
X921810Y706447D01*
X921893Y706433D01*
X923377D01*
X923391D01*
X923433D01*
X923488Y706447D01*
X923558Y706475D01*
X923627Y706517D01*
X923682Y706586D01*
X923724Y706669D01*
X923738Y706794D01*
Y706850D01*
X923724Y706905D01*
X923696Y706974D01*
X923655Y707030D01*
X923585Y707085D01*
X923502Y707127D01*
X923377Y707141D01*
D02*
G37*
%LPD*%
D10*
X219915Y888075D02*
G03*
X219915Y888075I-920J0D01*
G01*
X528000Y30000D02*
G03*
X528000Y30000I-1000J0D01*
G01*
Y370000D02*
G03*
X528000Y370000I-1000J0D01*
G01*
X271750Y586750D02*
G03*
X271750Y586750I-1000J0D01*
G01*
X74000Y679500D02*
G03*
X74000Y679500I-1000J0D01*
G01*
X139000Y659500D02*
G03*
X139000Y659500I-1000J0D01*
G01*
Y490250D02*
G03*
X139000Y490250I-1000J0D01*
G01*
X87050Y307300D02*
G03*
X87050Y307300I-1000J0D01*
G01*
X219915Y178075D02*
G03*
X219915Y178075I-920J0D01*
G01*
X526000Y452000D02*
G03*
X526000Y452000I-1000J0D01*
G01*
X1064000Y197500D02*
G03*
X1064000Y197500I-1000J0D01*
G01*
X695364Y256009D02*
X717991Y278636D01*
X660009Y291364D02*
X682636Y313991D01*
X717991Y278636D01*
X660009Y291364D02*
X695364Y256009D01*
X976742Y690000D02*
X976844Y260000D01*
X961000Y690000D02*
X976742D01*
X961000D02*
Y741000D01*
X1006000D01*
X961000Y260000D02*
X976844D01*
X961000Y209000D02*
Y260000D01*
Y209000D02*
X1006000D01*
X2750Y224750D02*
X16000D01*
X43050Y224800D02*
X55150D01*
X43050Y314200D02*
X55150D01*
X2750Y314250D02*
X16000D01*
X696500Y175000D02*
X728500D01*
X696500Y225000D02*
X728500D01*
Y175000D02*
Y225000D01*
X696500Y175000D02*
Y225000D01*
D11*
X875000Y395000D02*
G03*
X845000Y425000I-30000J0D01*
G01*
X325000Y55000D02*
G03*
X355000Y25000I30000J0D01*
G01*
X845000D02*
G03*
X875000Y55000I0J30000D01*
G01*
X355000Y425000D02*
G03*
X339277Y420550I0J-30000D01*
G01*
X327970Y408014D02*
G03*
X325000Y395000I27030J-13015D01*
G01*
X248000Y163500D02*
G03*
X248000Y163500I-500J0D01*
G01*
X947500Y187000D02*
X948500D01*
X947500Y179000D02*
X948500D01*
X933500Y180500D02*
Y185500D01*
X157000Y749770D02*
X213000D01*
Y910000D01*
X157000Y910500D02*
X213000Y910000D01*
X0Y910200D02*
X120000D01*
X0Y749800D02*
Y910200D01*
Y749800D02*
X120000D01*
X325000Y212500D02*
Y395000D01*
Y55000D02*
Y135000D01*
X875000Y55000D02*
Y395000D01*
X727200Y380600D02*
X738000D01*
Y409400D01*
X727200D02*
X738000D01*
X512000Y380600D02*
X522800D01*
X512000D02*
Y409400D01*
X522800D01*
X949250Y865750D02*
X959250D01*
X954250Y860750D02*
Y870500D01*
X710500Y332500D02*
X719500D01*
X722750Y327500D02*
Y337500D01*
X707250Y327500D02*
Y337500D01*
X761000Y314750D02*
Y327250D01*
X745000Y314750D02*
Y327250D01*
X277500Y729500D02*
X287500D01*
X277500Y715000D02*
X287500D01*
X355000Y25000D02*
X707500D01*
X725000D02*
X727500D01*
X745000D02*
X845000D01*
X355000Y425000D02*
X756500D01*
X788500Y425000D02*
X800000D01*
X825000D02*
X845000D01*
X566250Y528750D02*
X576250D01*
X566250Y543250D02*
X576250D01*
X526250Y533000D02*
Y538000D01*
X540250Y531500D02*
X541250D01*
X540250Y539500D02*
X541250D01*
X260750Y560000D02*
Y570000D01*
X245250Y560000D02*
Y570000D01*
X248500Y565000D02*
X257500D01*
X264429Y564401D02*
Y566901D01*
X289428Y564401D02*
Y566901D01*
X226540Y520170D02*
X230540Y527170D01*
X234540Y520170D01*
X226540D02*
X234540D01*
X194440Y462710D02*
X220450D01*
X194440D02*
Y485550D01*
Y508450D02*
Y536370D01*
X220450D01*
X239550D02*
X265560D01*
Y508450D02*
Y536370D01*
Y462710D02*
Y485550D01*
X239550Y462710D02*
X265560D01*
X282500Y52750D02*
X292500D01*
X282500Y67250D02*
X292500D01*
X756500Y423500D02*
X788500D01*
Y418500D02*
Y428500D01*
X756500Y418500D02*
Y428500D01*
X807500Y432750D02*
X817500D01*
X807500Y447250D02*
X817500D01*
X807500Y415250D02*
X817500D01*
X807500Y429750D02*
X817500D01*
X949500Y822000D02*
Y832000D01*
X1011500Y802500D02*
Y901500D01*
X1059500D01*
Y918500D01*
X1084500D01*
Y901500D02*
Y918500D01*
Y901500D02*
X1101500D01*
Y802500D02*
Y901500D01*
X1084500Y802500D02*
X1101500D01*
X1084500Y785500D02*
Y802500D01*
X1059500Y785500D02*
X1084500D01*
X1059500D02*
Y802500D01*
X1011500D02*
X1059500D01*
X767200Y874400D02*
X778000D01*
X767200Y845600D02*
X778000D01*
X672000D02*
X682800D01*
X672000Y874400D02*
X682800D01*
X672000Y845600D02*
Y874400D01*
X778000Y845600D02*
Y874400D01*
X119760Y727740D02*
X127380D01*
X132460Y698530D02*
Y726470D01*
Y698530D02*
X137540D01*
Y726470D01*
X132460D02*
X137540D01*
X97750Y700000D02*
Y710000D01*
X112250Y700000D02*
Y710000D01*
X61000Y735500D02*
X68000D01*
Y725500D02*
Y735500D01*
X61000Y669500D02*
X68000D01*
Y679500D01*
X31000Y735500D02*
X40000D01*
X31000Y669500D02*
X40000D01*
X2500Y508000D02*
X98200D01*
X2500Y651000D02*
X98200D01*
X166000Y508000D02*
Y651000D01*
X137800Y508000D02*
X166000D01*
X137800Y651000D02*
X166000D01*
X137800Y481750D02*
X166000D01*
X137800Y338750D02*
X166000D01*
Y481750D01*
X2500D02*
X98200D01*
X2500Y338750D02*
X98200D01*
X266829Y383400D02*
Y410921D01*
X241450D02*
X266829D01*
X189359D02*
X218550D01*
X189359Y383400D02*
Y410921D01*
Y306781D02*
Y334300D01*
Y306781D02*
X218550D01*
X241450D02*
X266829D01*
Y334300D01*
X206829Y340151D02*
Y348151D01*
X199829Y344151D02*
X206829Y348151D01*
X199829Y344151D02*
X206829Y340151D01*
X105750Y288000D02*
Y298000D01*
X120250Y288000D02*
Y298000D01*
X130070Y310970D02*
X137690D01*
X142770Y281760D02*
Y309700D01*
Y281760D02*
X147850D01*
Y309700D01*
X142770D02*
X147850D01*
X78750Y35500D02*
X86250D01*
X78750Y24500D02*
X86250D01*
X51250Y35500D02*
X58750D01*
X51250Y24500D02*
X58750D01*
X0Y39800D02*
Y200200D01*
Y39800D02*
X120000D01*
X0Y200200D02*
X120000D01*
X157000Y39770D02*
X213000D01*
Y200000D01*
X157000Y200500D02*
X213000Y200000D01*
X127750Y245000D02*
Y255000D01*
X112250Y245000D02*
Y255000D01*
X115500Y250000D02*
X124500D01*
X127250Y218000D02*
Y228000D01*
X112750Y218000D02*
Y228000D01*
X146250Y246000D02*
Y256000D01*
X131750Y246000D02*
Y256000D01*
X146250Y221500D02*
Y231500D01*
X131750Y221500D02*
Y231500D01*
X182750Y230000D02*
Y245000D01*
X170000Y237500D02*
X179250D01*
X160750D02*
X170000D01*
X157250Y230000D02*
Y245000D01*
X217750Y230000D02*
Y245000D01*
X205000Y237500D02*
X214250D01*
X195750D02*
X205000D01*
X192250Y230000D02*
Y245000D01*
X239500Y205000D02*
X264500D01*
X239500Y255000D02*
X264500D01*
X246750Y177500D02*
Y187500D01*
X278250Y177500D02*
Y187500D01*
X227500Y184750D02*
X237500D01*
X232500Y188000D02*
Y197000D01*
X227500Y200250D02*
X237500D01*
X235250Y165000D02*
Y175000D01*
X219750Y165000D02*
Y175000D01*
X223000Y170000D02*
X232000D01*
X260000Y129750D02*
X275000D01*
X267500Y133250D02*
Y142500D01*
Y151750D01*
X260000Y155250D02*
X275000D01*
X311250Y210500D02*
X318750D01*
X311250Y199500D02*
X318750D01*
X311250Y198000D02*
X318750D01*
X311250Y187000D02*
X318750D01*
X311250Y185500D02*
X318750D01*
X311250Y174500D02*
X318750D01*
X311250Y173000D02*
X318750D01*
X311250Y162000D02*
X318750D01*
X311250Y160500D02*
X318750D01*
X311250Y149500D02*
X318750D01*
X311250Y148000D02*
X318750D01*
X311250Y137000D02*
X318750D01*
X336250Y140500D02*
X343750D01*
X336250Y129500D02*
X343750D01*
X336250Y153000D02*
X343750D01*
X336250Y142000D02*
X343750D01*
X336250Y165500D02*
X343750D01*
X336250Y154500D02*
X343750D01*
X336250Y178000D02*
X343750D01*
X336250Y167000D02*
X343750D01*
X336250Y203000D02*
X343750D01*
X336250Y192000D02*
X343750D01*
X336250Y215500D02*
X343750D01*
X336250Y204500D02*
X343750D01*
X336250Y179500D02*
X343750D01*
X336250Y190500D02*
X343750D01*
X442250Y112500D02*
Y127500D01*
X455000Y120000D02*
X464250D01*
X467750Y112500D02*
Y127500D01*
X445750Y120000D02*
X455000D01*
X561250Y170500D02*
X568750D01*
X561250Y159500D02*
X568750D01*
X560000Y202250D02*
X570000D01*
X560000Y187750D02*
X570000D01*
X727500Y229750D02*
X737500D01*
X727500Y245250D02*
X737500D01*
X732500Y233000D02*
Y242000D01*
X762000Y198750D02*
Y211250D01*
X778000Y198750D02*
Y211250D01*
X717591Y151338D02*
X724662Y158409D01*
X707338Y161591D02*
X714409Y168662D01*
X714000Y128500D02*
Y135500D01*
X724066Y128558D02*
Y135558D01*
X736591Y146338D02*
X743662Y153409D01*
X726338Y156591D02*
X733409Y163662D01*
X692000Y141500D02*
Y148500D01*
X702066Y141558D02*
Y148558D01*
X267000Y698500D02*
X268000D01*
X282000Y700000D02*
Y705000D01*
X267000Y706500D02*
X268000D01*
X277750Y660000D02*
Y670000D01*
X292250Y660000D02*
Y670000D01*
X267000Y681000D02*
X268000D01*
X282000Y682500D02*
Y687500D01*
X267000Y689000D02*
X268000D01*
X650000Y7750D02*
X660000D01*
X650000Y22250D02*
X660000D01*
X590000Y7750D02*
X600000D01*
X590000Y22250D02*
X600000D01*
X497000Y63750D02*
Y71250D01*
X508000Y63750D02*
Y71250D01*
X484500Y63750D02*
Y71250D01*
X495500Y63750D02*
Y71250D01*
X444500Y63750D02*
Y71250D01*
X455500Y63750D02*
Y71250D01*
X432000Y63750D02*
Y71250D01*
X443000Y63750D02*
Y71250D01*
X472000Y63750D02*
Y71250D01*
X483000Y63750D02*
Y71250D01*
X419500Y63750D02*
Y71250D01*
X430500Y63750D02*
Y71250D01*
X465000Y207500D02*
X474250D01*
X452250Y200000D02*
Y215000D01*
X455750Y207500D02*
X465000D01*
X477750Y200000D02*
Y215000D01*
X520000Y481950D02*
Y538500D01*
X300000D02*
X315300D01*
X504700D02*
X520000D01*
X300000Y521450D02*
Y538500D01*
Y481950D02*
Y498550D01*
X525000Y510000D02*
Y912500D01*
X295000Y510000D02*
Y912500D01*
X450000D02*
X525000D01*
X295000D02*
X370000D01*
X407250Y232500D02*
X412750D01*
X404500Y228750D02*
Y236250D01*
X415500Y228750D02*
Y236250D01*
X405000Y207250D02*
Y212750D01*
X401250Y204500D02*
X408750D01*
X401250Y215500D02*
X408750D01*
X427250Y232500D02*
X432750D01*
X424500Y228750D02*
Y236250D01*
X435500Y228750D02*
Y236250D01*
X439750Y232500D02*
X445250D01*
X437000Y228750D02*
Y236250D01*
X448000Y228750D02*
Y236250D01*
X484750Y232500D02*
X490250D01*
X482000Y228750D02*
Y236250D01*
X493000Y228750D02*
Y236250D01*
X499750Y232500D02*
X505250D01*
X497000Y228750D02*
Y236250D01*
X508000Y228750D02*
Y236250D01*
X507500Y174750D02*
Y180250D01*
X503750Y183000D02*
X511250D01*
X503750Y172000D02*
X511250D01*
X507500Y152250D02*
Y157750D01*
X503750Y160500D02*
X511250D01*
X503750Y149500D02*
X511250D01*
X503420Y129877D02*
X510920D01*
X503420Y140877D02*
X510920D01*
X507170Y132627D02*
Y138127D01*
X507500Y119750D02*
Y125250D01*
X503750Y128000D02*
X511250D01*
X503750Y117000D02*
X511250D01*
X405000Y139750D02*
Y145250D01*
X401250Y137000D02*
X408750D01*
X401250Y148000D02*
X408750D01*
X405000Y127250D02*
Y132750D01*
X401250Y124500D02*
X408750D01*
X401250Y135500D02*
X408750D01*
X430250Y127000D02*
X435750D01*
X438500Y123250D02*
Y130750D01*
X427500Y123250D02*
Y130750D01*
X932240Y167620D02*
Y175240D01*
X903030Y162540D02*
X930970D01*
X903030Y157460D02*
Y162540D01*
Y157460D02*
X930970D01*
Y162540D01*
X942000Y162750D02*
X952000D01*
X942000Y177250D02*
X952000D01*
X885750Y173000D02*
Y183000D01*
X900250Y173000D02*
Y183000D01*
X226540Y643170D02*
X230540Y650170D01*
X234540Y643170D01*
X226540D02*
X234540D01*
X194440Y585710D02*
X220450D01*
X194440D02*
Y608550D01*
Y631450D02*
Y659370D01*
X220450D01*
X239550D02*
X265560D01*
Y631450D02*
Y659370D01*
Y585710D02*
Y608550D01*
X239550Y585710D02*
X265560D01*
X41250Y914500D02*
X48750D01*
X41250Y925500D02*
X48750D01*
X71250Y914500D02*
X78750D01*
X71250Y925500D02*
X78750D01*
X401250Y159500D02*
X408750D01*
X401250Y170500D02*
X408750D01*
X185000Y915500D02*
Y924500D01*
X180000Y927750D02*
X190000D01*
X180000Y912250D02*
X190000D01*
D12*
X791390Y490250D02*
G03*
X791390Y490250I-2500J0D01*
G01*
X255870Y74868D02*
G03*
X251298Y74868I-2286J0D01*
G01*
D02*
G03*
X255870Y74868I2286J0D01*
G01*
D13*
X677151Y291364D02*
G03*
X677151Y291364I-3000J0D01*
G01*
X709500Y215000D02*
G03*
X709500Y215000I-3000J0D01*
G01*
D14*
X651501Y285212D02*
G03*
X651501Y285212I-1250J0D01*
G01*
X686500Y227550D02*
G03*
X686500Y227550I-1250J0D01*
G01*
D15*
X757000Y407500D02*
G03*
X757000Y407500I-500J0D01*
G01*
X714250Y141250D02*
G03*
X714250Y141250I-500J0D01*
G01*
X692250Y154250D02*
G03*
X692250Y154250I-500J0D01*
G01*
D16*
X965500Y749000D02*
G03*
X965500Y749000I-1500J0D01*
G01*
D17*
X687600Y883650D02*
G03*
X687600Y883650I-600J0D01*
G01*
D18*
X727200Y40600D02*
X738000D01*
Y69400D01*
X727200D02*
X738000D01*
X512000Y40600D02*
X522800D01*
X512000D02*
Y69400D01*
X522800D01*
X966000Y52500D02*
Y68500D01*
Y182500D02*
X969800D01*
X1086700D02*
X1104500D01*
Y43200D02*
Y182500D01*
X975200Y21000D02*
X1092300D01*
X966000Y147700D02*
Y182500D01*
D19*
X301629Y81752D02*
X311242D01*
X248758D02*
Y91626D01*
X261804Y113248D02*
X298196D01*
X311242Y81752D02*
Y91626D01*
X248758Y81752D02*
X258371D01*
D20*
X301632Y347715D02*
X300299Y349047D01*
X297633D01*
X296300Y347715D01*
Y342383D01*
X297633Y341050D01*
X300299D01*
X301632Y342383D01*
Y345049D01*
X298966D01*
X304297Y341050D02*
Y349047D01*
X309629Y341050D01*
Y349047D01*
X312295D02*
Y341050D01*
X316294D01*
X317626Y342383D01*
Y347715D01*
X316294Y349047D01*
X312295D01*
X301632Y377715D02*
X300299Y379048D01*
X297633D01*
X296300Y377715D01*
Y372383D01*
X297633Y371050D01*
X300299D01*
X301632Y372383D01*
Y375049D01*
X298966D01*
X304297Y371050D02*
Y379048D01*
X309629Y371050D01*
Y379048D01*
X312295D02*
Y371050D01*
X316294D01*
X317626Y372383D01*
Y377715D01*
X316294Y379048D01*
X312295D01*
X162300Y329049D02*
X167632D01*
X164966Y331715D02*
Y326383D01*
X170297Y325050D02*
X172963D01*
X171630D01*
Y333047D01*
X170297Y331715D01*
X182294Y325050D02*
X176962D01*
X182294Y330382D01*
Y331715D01*
X180961Y333047D01*
X178295D01*
X176962Y331715D01*
X171800Y392049D02*
X177132D01*
X174466Y394715D02*
Y389383D01*
X185129Y396047D02*
X179797D01*
Y392049D01*
X182463Y393382D01*
X183796D01*
X185129Y392049D01*
Y389383D01*
X183796Y388050D01*
X181130D01*
X179797Y389383D01*
X248882Y455215D02*
X247549Y456547D01*
X244883D01*
X243550Y455215D01*
Y449883D01*
X244883Y448550D01*
X247549D01*
X248882Y449883D01*
Y452549D01*
X246216D01*
X251547Y448550D02*
Y456547D01*
X256879Y448550D01*
Y456547D01*
X259545D02*
Y448550D01*
X263543D01*
X264876Y449883D01*
Y455215D01*
X263543Y456547D01*
X259545D01*
X196050Y546299D02*
X201382D01*
X198716Y548965D02*
Y543633D01*
X204047Y542300D02*
X206713D01*
X205380D01*
Y550297D01*
X204047Y548965D01*
X216044Y542300D02*
X210712D01*
X216044Y547632D01*
Y548965D01*
X214711Y550297D01*
X212045D01*
X210712Y548965D01*
X200132Y577715D02*
X198799Y579047D01*
X196133D01*
X194800Y577715D01*
Y572383D01*
X196133Y571050D01*
X198799D01*
X200132Y572383D01*
Y575049D01*
X197466D01*
X202797Y571050D02*
Y579047D01*
X208129Y571050D01*
Y579047D01*
X210795D02*
Y571050D01*
X214794D01*
X216126Y572383D01*
Y577715D01*
X214794Y579047D01*
X210795D01*
X242550Y669049D02*
X247882D01*
X245216Y671714D02*
Y666383D01*
X250547Y665050D02*
X253213D01*
X251880D01*
Y673047D01*
X250547Y671714D01*
X262544Y665050D02*
X257212D01*
X262544Y670382D01*
Y671714D01*
X261211Y673047D01*
X258545D01*
X257212Y671714D01*
X229632Y707297D02*
X224300D01*
Y703299D01*
X226966Y704632D01*
X228299D01*
X229632Y703299D01*
Y700633D01*
X228299Y699300D01*
X225633D01*
X224300Y700633D01*
X240295Y707297D02*
Y701966D01*
X242961Y699300D01*
X245627Y701966D01*
Y707297D01*
X221800Y684300D02*
X224466D01*
X223133D01*
Y692297D01*
X221800Y690965D01*
X233796Y684300D02*
X228465D01*
X233796Y689632D01*
Y690965D01*
X232463Y692297D01*
X229797D01*
X228465Y690965D01*
X244459Y692297D02*
Y686966D01*
X247125Y684300D01*
X249791Y686966D01*
Y692297D01*
X400050Y385297D02*
Y377300D01*
Y381299D01*
X401383Y382632D01*
X404049D01*
X405382Y381299D01*
Y377300D01*
X409380D02*
X412046D01*
X413379Y378633D01*
Y381299D01*
X412046Y382632D01*
X409380D01*
X408047Y381299D01*
Y378633D01*
X409380Y377300D01*
X416045D02*
X420044D01*
X421376Y378633D01*
X420044Y379966D01*
X417378D01*
X416045Y381299D01*
X417378Y382632D01*
X421376D01*
X425375Y383965D02*
Y382632D01*
X424042D01*
X426708D01*
X425375D01*
Y378633D01*
X426708Y377300D01*
X430707D02*
X436038Y382632D01*
X444036Y385297D02*
Y377300D01*
X440037D01*
X438704Y378633D01*
Y381299D01*
X440037Y382632D01*
X444036D01*
X450700Y377300D02*
X448035D01*
X446702Y378633D01*
Y381299D01*
X448035Y382632D01*
X450700D01*
X452033Y381299D01*
Y379966D01*
X446702D01*
X454699Y382632D02*
X457365Y377300D01*
X460031Y382632D01*
X462696Y377300D02*
X465362D01*
X464029D01*
Y382632D01*
X462696D01*
X474693D02*
X470694D01*
X469361Y381299D01*
Y378633D01*
X470694Y377300D01*
X474693D01*
X481357D02*
X478691D01*
X477358Y378633D01*
Y381299D01*
X478691Y382632D01*
X481357D01*
X482690Y381299D01*
Y379966D01*
X477358D01*
X482550Y320382D02*
Y316383D01*
X483883Y315050D01*
X487882D01*
Y320382D01*
X490547Y315050D02*
X494546D01*
X495879Y316383D01*
X494546Y317716D01*
X491880D01*
X490547Y319049D01*
X491880Y320382D01*
X495879D01*
X498545Y323047D02*
Y315050D01*
X502543D01*
X503876Y316383D01*
Y317716D01*
Y319049D01*
X502543Y320382D01*
X498545D01*
X519871D02*
X515873D01*
X514540Y319049D01*
Y316383D01*
X515873Y315050D01*
X519871D01*
X530535D02*
X535866Y320382D01*
X551861Y323047D02*
Y315050D01*
X547862D01*
X546529Y316383D01*
Y319049D01*
X547862Y320382D01*
X551861D01*
X554527D02*
X557193Y315050D01*
X559858Y320382D01*
X562524Y315050D02*
X565190D01*
X563857D01*
Y323047D01*
X562524D01*
X499132Y916800D02*
X493800D01*
X499132Y922132D01*
Y923465D01*
X497799Y924797D01*
X495133D01*
X493800Y923465D01*
X507129Y916800D02*
X501797D01*
X507129Y922132D01*
Y923465D01*
X505796Y924797D01*
X503130D01*
X501797Y923465D01*
X513794Y916800D02*
Y924797D01*
X509795Y920799D01*
X515126D01*
X523124Y916800D02*
X517792D01*
X523124Y922132D01*
Y923465D01*
X521791Y924797D01*
X519125D01*
X517792Y923465D01*
X511668Y347916D02*
X510335Y349249D01*
X507669D01*
X506337Y347916D01*
Y346583D01*
X507669Y345250D01*
X510335D01*
X511668Y343917D01*
Y342584D01*
X510335Y341251D01*
X507669D01*
X506337Y342584D01*
X514334Y349249D02*
Y341251D01*
X518333D01*
X519666Y342584D01*
Y343917D01*
X518333Y345250D01*
X514334D01*
X518333D01*
X519666Y346583D01*
Y347916D01*
X518333Y349249D01*
X514334D01*
X527663D02*
X524997Y347916D01*
X522331Y345250D01*
Y342584D01*
X523664Y341251D01*
X526330D01*
X527663Y342584D01*
Y343917D01*
X526330Y345250D01*
X522331D01*
X511668Y336416D02*
X510335Y337749D01*
X507669D01*
X506337Y336416D01*
Y335083D01*
X507669Y333750D01*
X510335D01*
X511668Y332417D01*
Y331084D01*
X510335Y329751D01*
X507669D01*
X506337Y331084D01*
X514334Y337749D02*
Y329751D01*
X518333D01*
X519666Y331084D01*
Y332417D01*
X518333Y333750D01*
X514334D01*
X518333D01*
X519666Y335083D01*
Y336416D01*
X518333Y337749D01*
X514334D01*
X522331D02*
X527663D01*
Y336416D01*
X522331Y331084D01*
Y329751D01*
X546669Y348166D02*
X545336Y349499D01*
X542670D01*
X541337Y348166D01*
Y346833D01*
X542670Y345500D01*
X545336D01*
X546669Y344167D01*
Y342834D01*
X545336Y341501D01*
X542670D01*
X541337Y342834D01*
X549334Y349499D02*
Y341501D01*
X553333D01*
X554666Y342834D01*
Y344167D01*
X553333Y345500D01*
X549334D01*
X553333D01*
X554666Y346833D01*
Y348166D01*
X553333Y349499D01*
X549334D01*
X562663D02*
X557332D01*
Y345500D01*
X559997Y346833D01*
X561330D01*
X562663Y345500D01*
Y342834D01*
X561330Y341501D01*
X558665D01*
X557332Y342834D01*
X546669Y336416D02*
X545336Y337749D01*
X542670D01*
X541337Y336416D01*
Y335083D01*
X542670Y333750D01*
X545336D01*
X546669Y332417D01*
Y331084D01*
X545336Y329752D01*
X542670D01*
X541337Y331084D01*
X549334Y337749D02*
Y329752D01*
X553333D01*
X554666Y331084D01*
Y332417D01*
X553333Y333750D01*
X549334D01*
X553333D01*
X554666Y335083D01*
Y336416D01*
X553333Y337749D01*
X549334D01*
X557332Y336416D02*
X558665Y337749D01*
X561330D01*
X562663Y336416D01*
Y335083D01*
X561330Y333750D01*
X562663Y332417D01*
Y331084D01*
X561330Y329752D01*
X558665D01*
X557332Y331084D01*
Y332417D01*
X558665Y333750D01*
X557332Y335083D01*
Y336416D01*
X558665Y333750D02*
X561330D01*
X743394Y350456D02*
Y358453D01*
X747393D01*
X748726Y357121D01*
Y354455D01*
X747393Y353122D01*
X743394D01*
X746060D02*
X748726Y350456D01*
X751391D02*
X754057D01*
X752724D01*
Y358453D01*
X751391Y357121D01*
X758056D02*
X759389Y358453D01*
X762055D01*
X763388Y357121D01*
Y351789D01*
X762055Y350456D01*
X759389D01*
X758056Y351789D01*
Y357121D01*
X643087Y311999D02*
Y304001D01*
X647085D01*
X648418Y305334D01*
Y310666D01*
X647085Y311999D01*
X643087D01*
X651084D02*
Y304001D01*
X655083D01*
X656416Y305334D01*
Y310666D01*
X655083Y311999D01*
X651084D01*
X663080Y304001D02*
Y311999D01*
X659082Y308000D01*
X664413D01*
X713674Y359660D02*
X712341Y360993D01*
X709675D01*
X708342Y359660D01*
Y354329D01*
X709675Y352996D01*
X712341D01*
X713674Y354329D01*
X721671Y360993D02*
X719005Y359660D01*
X716339Y356995D01*
Y354329D01*
X717672Y352996D01*
X720338D01*
X721671Y354329D01*
Y355662D01*
X720338Y356995D01*
X716339D01*
X303670Y314999D02*
Y307001D01*
X307668D01*
X309001Y308334D01*
Y313666D01*
X307668Y314999D01*
X303670D01*
X311667D02*
Y307001D01*
X315666D01*
X316999Y308334D01*
Y313666D01*
X315666Y314999D01*
X311667D01*
X319664Y307001D02*
X322330D01*
X320998D01*
Y314999D01*
X319664Y313666D01*
X745837Y163501D02*
Y171499D01*
X749836D01*
X751168Y170166D01*
Y167500D01*
X749836Y166167D01*
X745837D01*
X748503D02*
X751168Y163501D01*
X759166Y171499D02*
X753834D01*
Y167500D01*
X756500Y168833D01*
X757833D01*
X759166Y167500D01*
Y164834D01*
X757833Y163501D01*
X755167D01*
X753834Y164834D01*
X761832D02*
X763165Y163501D01*
X765830D01*
X767163Y164834D01*
Y170166D01*
X765830Y171499D01*
X763165D01*
X761832Y170166D01*
Y168833D01*
X763165Y167500D01*
X767163D01*
X688337Y125499D02*
Y120167D01*
X691003Y117501D01*
X693668Y120167D01*
Y125499D01*
X696334D02*
Y117501D01*
X700333D01*
X701666Y118834D01*
Y124166D01*
X700333Y125499D01*
X696334D01*
X709663Y117501D02*
X704332D01*
X709663Y122833D01*
Y124166D01*
X708330Y125499D01*
X705665D01*
X704332Y124166D01*
X681587Y164001D02*
Y171999D01*
X685585D01*
X686918Y170666D01*
Y168000D01*
X685585Y166667D01*
X681587D01*
X684253D02*
X686918Y164001D01*
X694916Y171999D02*
X692250Y170666D01*
X689584Y168000D01*
Y165334D01*
X690917Y164001D01*
X693583D01*
X694916Y165334D01*
Y166667D01*
X693583Y168000D01*
X689584D01*
X697582Y170666D02*
X698914Y171999D01*
X701580D01*
X702913Y170666D01*
Y165334D01*
X701580Y164001D01*
X698914D01*
X697582Y165334D01*
Y170666D01*
X660894Y143702D02*
Y138370D01*
X663559Y135704D01*
X666225Y138370D01*
Y143702D01*
X668891D02*
Y135704D01*
X672890D01*
X674223Y137037D01*
Y142369D01*
X672890Y143702D01*
X668891D01*
X676889Y142369D02*
X678221Y143702D01*
X680887D01*
X682220Y142369D01*
Y141036D01*
X680887Y139703D01*
X679554D01*
X680887D01*
X682220Y138370D01*
Y137037D01*
X680887Y135704D01*
X678221D01*
X676889Y137037D01*
X789837Y403001D02*
Y410999D01*
X793836D01*
X795168Y409666D01*
Y407000D01*
X793836Y405667D01*
X789837D01*
X792503D02*
X795168Y403001D01*
X803166Y410999D02*
X797834D01*
Y407000D01*
X800500Y408333D01*
X801833D01*
X803166Y407000D01*
Y404334D01*
X801833Y403001D01*
X799167D01*
X797834Y404334D01*
X805832Y409666D02*
X807165Y410999D01*
X809830D01*
X811163Y409666D01*
Y408333D01*
X809830Y407000D01*
X811163Y405667D01*
Y404334D01*
X809830Y403001D01*
X807165D01*
X805832Y404334D01*
Y405667D01*
X807165Y407000D01*
X805832Y408333D01*
Y409666D01*
X807165Y407000D02*
X809830D01*
X826837Y431001D02*
Y438999D01*
X830835D01*
X832168Y437666D01*
Y435000D01*
X830835Y433667D01*
X826837D01*
X829503D02*
X832168Y431001D01*
X840166Y438999D02*
X834834D01*
Y435000D01*
X837500Y436333D01*
X838833D01*
X840166Y435000D01*
Y432334D01*
X838833Y431001D01*
X836167D01*
X834834Y432334D01*
X842832Y438999D02*
X848163D01*
Y437666D01*
X842832Y432334D01*
Y431001D01*
X782336Y202001D02*
Y209999D01*
X786334D01*
X787667Y208666D01*
Y206000D01*
X786334Y204667D01*
X782336D01*
X785001D02*
X787667Y202001D01*
X790333Y203334D02*
X791666Y202001D01*
X794332D01*
X795665Y203334D01*
Y208666D01*
X794332Y209999D01*
X791666D01*
X790333Y208666D01*
Y207333D01*
X791666Y206000D01*
X795665D01*
X690337Y239999D02*
Y232001D01*
X694335D01*
X695668Y233334D01*
Y238666D01*
X694335Y239999D01*
X690337D01*
X698334D02*
Y232001D01*
X702333D01*
X703666Y233334D01*
Y238666D01*
X702333Y239999D01*
X698334D01*
X706332Y238666D02*
X707664Y239999D01*
X710330D01*
X711663Y238666D01*
Y237333D01*
X710330Y236000D01*
X708997D01*
X710330D01*
X711663Y234667D01*
Y233334D01*
X710330Y232001D01*
X707664D01*
X706332Y233334D01*
X744668Y438999D02*
Y431001D01*
X748667D01*
X750000Y432334D01*
Y437666D01*
X748667Y438999D01*
X744668D01*
X752666Y431001D02*
X755332D01*
X753999D01*
Y438999D01*
X752666Y437666D01*
X731667Y255666D02*
X730334Y256999D01*
X727668D01*
X726336Y255666D01*
Y250334D01*
X727668Y249001D01*
X730334D01*
X731667Y250334D01*
X739665Y256999D02*
X734333D01*
Y253000D01*
X736999Y254333D01*
X738332D01*
X739665Y253000D01*
Y250334D01*
X738332Y249001D01*
X735666D01*
X734333Y250334D01*
X155670Y203501D02*
Y211499D01*
X159668D01*
X161001Y210166D01*
Y207500D01*
X159668Y206167D01*
X155670D01*
X158336D02*
X161001Y203501D01*
X168999Y211499D02*
X163667D01*
Y207500D01*
X166333Y208833D01*
X167666D01*
X168999Y207500D01*
Y204834D01*
X167666Y203501D01*
X165000D01*
X163667Y204834D01*
X171665Y203501D02*
X174330D01*
X172997D01*
Y211499D01*
X171665Y210166D01*
X217005Y90999D02*
X222336Y83001D01*
Y90999D02*
X217005Y83001D01*
X225002D02*
Y90999D01*
X229001D01*
X230334Y89666D01*
Y87000D01*
X229001Y85667D01*
X225002D01*
X232999Y83001D02*
X235665D01*
X234332D01*
Y90999D01*
X232999Y89666D01*
X244995Y90999D02*
X242330Y89666D01*
X239664Y87000D01*
Y84334D01*
X240997Y83001D01*
X243663D01*
X244995Y84334D01*
Y85667D01*
X243663Y87000D01*
X239664D01*
X278587Y41001D02*
Y48999D01*
X282586D01*
X283918Y47666D01*
Y45000D01*
X282586Y43667D01*
X278587D01*
X281253D02*
X283918Y41001D01*
X291916Y48999D02*
X289250Y47666D01*
X286584Y45000D01*
Y42334D01*
X287917Y41001D01*
X290583D01*
X291916Y42334D01*
Y43667D01*
X290583Y45000D01*
X286584D01*
X294582Y48999D02*
X299913D01*
Y47666D01*
X294582Y42334D01*
Y41001D01*
X301420Y551749D02*
X306751Y543751D01*
Y551749D02*
X301420Y543751D01*
X314749Y550416D02*
X313416Y551749D01*
X310750D01*
X309417Y550416D01*
Y549083D01*
X310750Y547750D01*
X313416D01*
X314749Y546417D01*
Y545084D01*
X313416Y543751D01*
X310750D01*
X309417Y545084D01*
X317414Y543751D02*
X320080D01*
X318747D01*
Y551749D01*
X317414Y550416D01*
X5337Y924999D02*
X10668Y917001D01*
Y924999D02*
X5337Y917001D01*
X18666Y923666D02*
X17333Y924999D01*
X14667D01*
X13334Y923666D01*
Y922333D01*
X14667Y921000D01*
X17333D01*
X18666Y919667D01*
Y918334D01*
X17333Y917001D01*
X14667D01*
X13334Y918334D01*
X21332Y923666D02*
X22664Y924999D01*
X25330D01*
X26663Y923666D01*
Y922333D01*
X25330Y921000D01*
X23997D01*
X25330D01*
X26663Y919667D01*
Y918334D01*
X25330Y917001D01*
X22664D01*
X21332Y918334D01*
X108499Y211837D02*
X100501D01*
Y215835D01*
X101834Y217168D01*
X104500D01*
X105833Y215835D01*
Y211837D01*
Y214503D02*
X108499Y217168D01*
X100501Y225166D02*
Y219834D01*
X104500D01*
X103167Y222500D01*
Y223833D01*
X104500Y225166D01*
X107166D01*
X108499Y223833D01*
Y221167D01*
X107166Y219834D01*
X100501Y233163D02*
Y227832D01*
X104500D01*
X103167Y230497D01*
Y231830D01*
X104500Y233163D01*
X107166D01*
X108499Y231830D01*
Y229165D01*
X107166Y227832D01*
X129337Y266001D02*
Y273999D01*
X133336D01*
X134668Y272666D01*
Y270000D01*
X133336Y268667D01*
X129337D01*
X132003D02*
X134668Y266001D01*
X142666Y273999D02*
X137334D01*
Y270000D01*
X140000Y271333D01*
X141333D01*
X142666Y270000D01*
Y267334D01*
X141333Y266001D01*
X138667D01*
X137334Y267334D01*
X149330Y266001D02*
Y273999D01*
X145332Y270000D01*
X150663D01*
X234335Y266999D02*
Y259001D01*
X239667D01*
X247665Y266999D02*
X242333D01*
Y263000D01*
X244999Y264333D01*
X246332D01*
X247665Y263000D01*
Y260334D01*
X246332Y259001D01*
X243666D01*
X242333Y260334D01*
X283337Y224999D02*
Y217001D01*
X287335D01*
X288668Y218334D01*
Y223666D01*
X287335Y224999D01*
X283337D01*
X291334Y217001D02*
Y222333D01*
X294000Y224999D01*
X296666Y222333D01*
Y217001D01*
Y221000D01*
X291334D01*
X303330Y217001D02*
Y224999D01*
X299332Y221000D01*
X304663D01*
X164668Y271666D02*
X163335Y272999D01*
X160670D01*
X159337Y271666D01*
Y266334D01*
X160670Y265001D01*
X163335D01*
X164668Y266334D01*
X167334Y271666D02*
X168667Y272999D01*
X171333D01*
X172666Y271666D01*
Y270333D01*
X171333Y269000D01*
X172666Y267667D01*
Y266334D01*
X171333Y265001D01*
X168667D01*
X167334Y266334D01*
Y267667D01*
X168667Y269000D01*
X167334Y270333D01*
Y271666D01*
X168667Y269000D02*
X171333D01*
X175332Y271666D02*
X176665Y272999D01*
X179330D01*
X180663Y271666D01*
Y270333D01*
X179330Y269000D01*
X177997D01*
X179330D01*
X180663Y267667D01*
Y266334D01*
X179330Y265001D01*
X176665D01*
X175332Y266334D01*
X199668Y271666D02*
X198335Y272999D01*
X195670D01*
X194337Y271666D01*
Y266334D01*
X195670Y265001D01*
X198335D01*
X199668Y266334D01*
X202334Y271666D02*
X203667Y272999D01*
X206333D01*
X207666Y271666D01*
Y270333D01*
X206333Y269000D01*
X207666Y267667D01*
Y266334D01*
X206333Y265001D01*
X203667D01*
X202334Y266334D01*
Y267667D01*
X203667Y269000D01*
X202334Y270333D01*
Y271666D01*
X203667Y269000D02*
X206333D01*
X210332Y271666D02*
X211665Y272999D01*
X214330D01*
X215663Y271666D01*
Y266334D01*
X214330Y265001D01*
X211665D01*
X210332Y266334D01*
Y271666D01*
X103834Y243668D02*
X102501Y242335D01*
Y239670D01*
X103834Y238337D01*
X109166D01*
X110499Y239670D01*
Y242335D01*
X109166Y243668D01*
X102501Y246334D02*
Y251666D01*
X103834D01*
X109166Y246334D01*
X110499D01*
X102501Y254332D02*
Y259663D01*
X103834D01*
X109166Y254332D01*
X110499D01*
X207168Y210166D02*
X205835Y211499D01*
X203170D01*
X201837Y210166D01*
Y204834D01*
X203170Y203501D01*
X205835D01*
X207168Y204834D01*
X209834Y211499D02*
X215166D01*
Y210166D01*
X209834Y204834D01*
Y203501D01*
X221830D02*
Y211499D01*
X217832Y207500D01*
X223163D01*
X224001Y137666D02*
X222668Y138999D01*
X220003D01*
X218670Y137666D01*
Y132334D01*
X220003Y131001D01*
X222668D01*
X224001Y132334D01*
X226667Y138999D02*
X231999D01*
Y137666D01*
X226667Y132334D01*
Y131001D01*
X234664D02*
X237330D01*
X235997D01*
Y138999D01*
X234664Y137666D01*
X615005Y908999D02*
X620336Y901001D01*
Y908999D02*
X615005Y901001D01*
X623002D02*
Y908999D01*
X627001D01*
X628334Y907666D01*
Y905000D01*
X627001Y903667D01*
X623002D01*
X630999Y901001D02*
X633665D01*
X632332D01*
Y908999D01*
X630999Y907666D01*
X637664D02*
X638997Y908999D01*
X641663D01*
X642996Y907666D01*
Y902334D01*
X641663Y901001D01*
X638997D01*
X637664Y902334D01*
Y907666D01*
X811837Y908999D02*
X817168Y901001D01*
Y908999D02*
X811837Y901001D01*
X819834D02*
Y908999D01*
X823833D01*
X825166Y907666D01*
Y905000D01*
X823833Y903667D01*
X819834D01*
X827832Y902334D02*
X829165Y901001D01*
X831830D01*
X833163Y902334D01*
Y907666D01*
X831830Y908999D01*
X829165D01*
X827832Y907666D01*
Y906333D01*
X829165Y905000D01*
X833163D01*
X840337Y509999D02*
X845668Y502001D01*
Y509999D02*
X840337Y502001D01*
X848334D02*
Y509999D01*
X852333D01*
X853666Y508666D01*
Y506000D01*
X852333Y504667D01*
X848334D01*
X856332Y508666D02*
X857664Y509999D01*
X860330D01*
X861663Y508666D01*
Y507333D01*
X860330Y506000D01*
X861663Y504667D01*
Y503334D01*
X860330Y502001D01*
X857664D01*
X856332Y503334D01*
Y504667D01*
X857664Y506000D01*
X856332Y507333D01*
Y508666D01*
X857664Y506000D02*
X860330D01*
X549592Y512123D02*
X554924Y504126D01*
Y512123D02*
X549592Y504126D01*
X557589D02*
Y512123D01*
X561588D01*
X562921Y510790D01*
Y508125D01*
X561588Y506792D01*
X557589D01*
X565587Y512123D02*
X570918D01*
Y510790D01*
X565587Y505459D01*
Y504126D01*
X934837Y109999D02*
X940168Y102001D01*
Y109999D02*
X934837Y102001D01*
X948166Y108666D02*
X946833Y109999D01*
X944167D01*
X942834Y108666D01*
Y107333D01*
X944167Y106000D01*
X946833D01*
X948166Y104667D01*
Y103334D01*
X946833Y102001D01*
X944167D01*
X942834Y103334D01*
X954830Y102001D02*
Y109999D01*
X950832Y106000D01*
X956163D01*
X935005Y200999D02*
Y193001D01*
Y197000D01*
X940336D01*
Y200999D01*
Y193001D01*
X943002Y200999D02*
Y193001D01*
X948334D01*
X950999D02*
X953665D01*
X952332D01*
Y200999D01*
X950999Y199666D01*
X957664D02*
X958997Y200999D01*
X961663D01*
X962996Y199666D01*
Y198333D01*
X961663Y197000D01*
X960330D01*
X961663D01*
X962996Y195667D01*
Y194334D01*
X961663Y193001D01*
X958997D01*
X957664Y194334D01*
X297754Y689499D02*
Y681501D01*
Y685500D01*
X303086D01*
Y689499D01*
Y681501D01*
X305752Y689499D02*
Y681501D01*
X311084D01*
X313749D02*
X316415D01*
X315082D01*
Y689499D01*
X313749Y688166D01*
X325746Y689499D02*
X320414D01*
Y685500D01*
X323080Y686833D01*
X324413D01*
X325746Y685500D01*
Y682834D01*
X324413Y681501D01*
X321747D01*
X320414Y682834D01*
X297754Y706749D02*
Y698751D01*
Y702750D01*
X303086D01*
Y706749D01*
Y698751D01*
X305752Y706749D02*
Y698751D01*
X311084D01*
X313749D02*
X316415D01*
X315082D01*
Y706749D01*
X313749Y705416D01*
X324413Y698751D02*
Y706749D01*
X320414Y702750D01*
X325746D01*
X529587Y554999D02*
Y547001D01*
Y551000D01*
X534918D01*
Y554999D01*
Y547001D01*
X537584Y554999D02*
Y547001D01*
X542916D01*
X550913Y554999D02*
X545582D01*
Y551000D01*
X548247Y552333D01*
X549580D01*
X550913Y551000D01*
Y548334D01*
X549580Y547001D01*
X546914D01*
X545582Y548334D01*
X463999Y74337D02*
X456001D01*
Y78335D01*
X457334Y79668D01*
X460000D01*
X461333Y78335D01*
Y74337D01*
Y77003D02*
X463999Y79668D01*
Y86333D02*
X456001D01*
X460000Y82334D01*
Y87666D01*
X456001Y90332D02*
Y95663D01*
X457334D01*
X462666Y90332D01*
X463999D01*
X493999Y81837D02*
X486001D01*
Y85836D01*
X487334Y87168D01*
X490000D01*
X491333Y85836D01*
Y81837D01*
Y84503D02*
X493999Y87168D01*
Y93833D02*
X486001D01*
X490000Y89834D01*
Y95166D01*
X486001Y103163D02*
X487334Y100497D01*
X490000Y97832D01*
X492666D01*
X493999Y99164D01*
Y101830D01*
X492666Y103163D01*
X491333D01*
X490000Y101830D01*
Y97832D01*
X36004Y933132D02*
Y941129D01*
X40003D01*
X41336Y939797D01*
Y937131D01*
X40003Y935798D01*
X36004D01*
X38670D02*
X41336Y933132D01*
X48000D02*
Y941129D01*
X44001Y937131D01*
X49333D01*
X57330Y941129D02*
X51999D01*
Y937131D01*
X54665Y938464D01*
X55998D01*
X57330Y937131D01*
Y934465D01*
X55998Y933132D01*
X53332D01*
X51999Y934465D01*
X72337Y12001D02*
Y19999D01*
X76336D01*
X77668Y18666D01*
Y16000D01*
X76336Y14667D01*
X72337D01*
X75003D02*
X77668Y12001D01*
X84333D02*
Y19999D01*
X80334Y16000D01*
X85666D01*
X92330Y12001D02*
Y19999D01*
X88332Y16000D01*
X93663D01*
X65976Y933132D02*
Y941129D01*
X69975D01*
X71308Y939797D01*
Y937131D01*
X69975Y935798D01*
X65976D01*
X68642D02*
X71308Y933132D01*
X77972D02*
Y941129D01*
X73973Y937131D01*
X79305D01*
X81971Y939797D02*
X83304Y941129D01*
X85970D01*
X87302Y939797D01*
Y938464D01*
X85970Y937131D01*
X84637D01*
X85970D01*
X87302Y935798D01*
Y934465D01*
X85970Y933132D01*
X83304D01*
X81971Y934465D01*
X44337Y12001D02*
Y19999D01*
X48335D01*
X49668Y18666D01*
Y16000D01*
X48335Y14667D01*
X44337D01*
X47003D02*
X49668Y12001D01*
X56333D02*
Y19999D01*
X52334Y16000D01*
X57666D01*
X65663Y12001D02*
X60332D01*
X65663Y17333D01*
Y18666D01*
X64330Y19999D01*
X61665D01*
X60332Y18666D01*
X436499Y81837D02*
X428501D01*
Y85836D01*
X429834Y87168D01*
X432500D01*
X433833Y85836D01*
Y81837D01*
Y84503D02*
X436499Y87168D01*
X429834Y89834D02*
X428501Y91167D01*
Y93833D01*
X429834Y95166D01*
X431167D01*
X432500Y93833D01*
Y92500D01*
Y93833D01*
X433833Y95166D01*
X435166D01*
X436499Y93833D01*
Y91167D01*
X435166Y89834D01*
X428501Y97832D02*
Y103163D01*
X429834D01*
X435166Y97832D01*
X436499D01*
X506499Y81837D02*
X498501D01*
Y85836D01*
X499834Y87168D01*
X502500D01*
X503833Y85836D01*
Y81837D01*
Y84503D02*
X506499Y87168D01*
X499834Y89834D02*
X498501Y91167D01*
Y93833D01*
X499834Y95166D01*
X501167D01*
X502500Y93833D01*
Y92500D01*
Y93833D01*
X503833Y95166D01*
X505166D01*
X506499Y93833D01*
Y91167D01*
X505166Y89834D01*
X498501Y103163D02*
X499834Y100497D01*
X502500Y97832D01*
X505166D01*
X506499Y99164D01*
Y101830D01*
X505166Y103163D01*
X503833D01*
X502500Y101830D01*
Y97832D01*
X423999Y81837D02*
X416001D01*
Y85836D01*
X417334Y87168D01*
X420000D01*
X421333Y85836D01*
Y81837D01*
Y84503D02*
X423999Y87168D01*
Y95166D02*
Y89834D01*
X418667Y95166D01*
X417334D01*
X416001Y93833D01*
Y91167D01*
X417334Y89834D01*
X423999Y101830D02*
X416001D01*
X420000Y97832D01*
Y103163D01*
X481499Y80337D02*
X473501D01*
Y84335D01*
X474834Y85668D01*
X477500D01*
X478833Y84335D01*
Y80337D01*
Y83003D02*
X481499Y85668D01*
Y93666D02*
Y88334D01*
X476167Y93666D01*
X474834D01*
X473501Y92333D01*
Y89667D01*
X474834Y88334D01*
Y96332D02*
X473501Y97664D01*
Y100330D01*
X474834Y101663D01*
X476167D01*
X477500Y100330D01*
Y98997D01*
Y100330D01*
X478833Y101663D01*
X480166D01*
X481499Y100330D01*
Y97664D01*
X480166Y96332D01*
X298920Y573499D02*
X304251D01*
Y572166D01*
X298920Y566834D01*
Y565501D01*
X304251D01*
X312249Y566834D02*
Y572166D01*
X310916Y573499D01*
X308250D01*
X306917Y572166D01*
Y566834D01*
X308250Y565501D01*
X310916D01*
X309583Y568167D02*
X312249Y565501D01*
X310916D02*
X312249Y566834D01*
X314914Y565501D02*
X317580D01*
X316247D01*
Y573499D01*
X314914Y572166D01*
X190337Y456499D02*
X195669Y448501D01*
Y456499D02*
X190337Y448501D01*
X198335D02*
Y456499D01*
X202334D01*
X203666Y455166D01*
Y452500D01*
X202334Y451167D01*
X198335D01*
X206332Y448501D02*
X208998D01*
X207665D01*
Y456499D01*
X206332Y455166D01*
X212997Y448501D02*
X215663D01*
X214330D01*
Y456499D01*
X212997Y455166D01*
X492694Y398269D02*
X491361Y399601D01*
X488695D01*
X487362Y398269D01*
Y396936D01*
X488695Y395603D01*
X491361D01*
X492694Y394270D01*
Y392937D01*
X491361Y391604D01*
X488695D01*
X487362Y392937D01*
X495359Y399601D02*
Y391604D01*
X499358D01*
X500691Y392937D01*
Y394270D01*
X499358Y395603D01*
X495359D01*
X499358D01*
X500691Y396936D01*
Y398269D01*
X499358Y399601D01*
X495359D01*
X507356Y391604D02*
Y399601D01*
X503357Y395603D01*
X508688D01*
X565338Y100835D02*
X564005Y102167D01*
X561339D01*
X560006Y100835D01*
Y99502D01*
X561339Y98169D01*
X564005D01*
X565338Y96836D01*
Y95503D01*
X564005Y94170D01*
X561339D01*
X560006Y95503D01*
X568003Y102167D02*
Y94170D01*
X572002D01*
X573335Y95503D01*
Y96836D01*
X572002Y98169D01*
X568003D01*
X572002D01*
X573335Y99502D01*
Y100835D01*
X572002Y102167D01*
X568003D01*
X576001Y100835D02*
X577334Y102167D01*
X580000D01*
X581332Y100835D01*
Y99502D01*
X580000Y98169D01*
X578667D01*
X580000D01*
X581332Y96836D01*
Y95503D01*
X580000Y94170D01*
X577334D01*
X576001Y95503D01*
X707168Y14166D02*
X705835Y15499D01*
X703170D01*
X701837Y14166D01*
Y12833D01*
X703170Y11500D01*
X705835D01*
X707168Y10167D01*
Y8834D01*
X705835Y7501D01*
X703170D01*
X701837Y8834D01*
X709834Y15499D02*
Y7501D01*
X713833D01*
X715166Y8834D01*
Y10167D01*
X713833Y11500D01*
X709834D01*
X713833D01*
X715166Y12833D01*
Y14166D01*
X713833Y15499D01*
X709834D01*
X723163Y7501D02*
X717832D01*
X723163Y12833D01*
Y14166D01*
X721830Y15499D01*
X719165D01*
X717832Y14166D01*
X732751Y14416D02*
X731418Y15749D01*
X728753D01*
X727420Y14416D01*
Y13083D01*
X728753Y11750D01*
X731418D01*
X732751Y10417D01*
Y9084D01*
X731418Y7751D01*
X728753D01*
X727420Y9084D01*
X735417Y15749D02*
Y7751D01*
X739416D01*
X740749Y9084D01*
Y10417D01*
X739416Y11750D01*
X735417D01*
X739416D01*
X740749Y13083D01*
Y14416D01*
X739416Y15749D01*
X735417D01*
X743415Y7751D02*
X746080D01*
X744747D01*
Y15749D01*
X743415Y14416D01*
X92337Y679001D02*
Y686999D01*
X96335D01*
X97668Y685666D01*
Y683000D01*
X96335Y681667D01*
X92337D01*
X95003D02*
X97668Y679001D01*
X105666Y686999D02*
X103000Y685666D01*
X100334Y683000D01*
Y680334D01*
X101667Y679001D01*
X104333D01*
X105666Y680334D01*
Y681667D01*
X104333Y683000D01*
X100334D01*
X113663Y686999D02*
X110997Y685666D01*
X108332Y683000D01*
Y680334D01*
X109664Y679001D01*
X112330D01*
X113663Y680334D01*
Y681667D01*
X112330Y683000D01*
X108332D01*
X101837Y308501D02*
Y316499D01*
X105836D01*
X107168Y315166D01*
Y312500D01*
X105836Y311167D01*
X101837D01*
X104503D02*
X107168Y308501D01*
X115166Y316499D02*
X112500Y315166D01*
X109834Y312500D01*
Y309834D01*
X111167Y308501D01*
X113833D01*
X115166Y309834D01*
Y311167D01*
X113833Y312500D01*
X109834D01*
X123163Y316499D02*
X117832D01*
Y312500D01*
X120497Y313833D01*
X121830D01*
X123163Y312500D01*
Y309834D01*
X121830Y308501D01*
X119164D01*
X117832Y309834D01*
X936587Y148501D02*
Y156499D01*
X940585D01*
X941918Y155166D01*
Y152500D01*
X940585Y151167D01*
X936587D01*
X939253D02*
X941918Y148501D01*
X949916Y156499D02*
X947250Y155166D01*
X944584Y152500D01*
Y149834D01*
X945917Y148501D01*
X948583D01*
X949916Y149834D01*
Y151167D01*
X948583Y152500D01*
X944584D01*
X952582Y155166D02*
X953914Y156499D01*
X956580D01*
X957913Y155166D01*
Y153833D01*
X956580Y152500D01*
X955247D01*
X956580D01*
X957913Y151167D01*
Y149834D01*
X956580Y148501D01*
X953914D01*
X952582Y149834D01*
X881670Y193001D02*
Y200999D01*
X885668D01*
X887001Y199666D01*
Y197000D01*
X885668Y195667D01*
X881670D01*
X884335D02*
X887001Y193001D01*
X894999Y200999D02*
X892333Y199666D01*
X889667Y197000D01*
Y194334D01*
X891000Y193001D01*
X893666D01*
X894999Y194334D01*
Y195667D01*
X893666Y197000D01*
X889667D01*
X897664Y193001D02*
X900330D01*
X898997D01*
Y200999D01*
X897664Y199666D01*
X908337Y192999D02*
Y185001D01*
X912336D01*
X913668Y186334D01*
Y191666D01*
X912336Y192999D01*
X908337D01*
X916334Y185001D02*
Y190333D01*
X919000Y192999D01*
X921666Y190333D01*
Y185001D01*
Y189000D01*
X916334D01*
X929663Y192999D02*
X924332D01*
Y189000D01*
X926997Y190333D01*
X928330D01*
X929663Y189000D01*
Y186334D01*
X928330Y185001D01*
X925665D01*
X924332Y186334D01*
X160337Y717999D02*
Y710001D01*
X164335D01*
X165668Y711334D01*
Y716666D01*
X164335Y717999D01*
X160337D01*
X168334Y710001D02*
Y715333D01*
X171000Y717999D01*
X173666Y715333D01*
Y710001D01*
Y714000D01*
X168334D01*
X176332Y717999D02*
X181663D01*
Y716666D01*
X176332Y711334D01*
Y710001D01*
X132337Y323999D02*
Y316001D01*
X136335D01*
X137668Y317334D01*
Y322666D01*
X136335Y323999D01*
X132337D01*
X140334Y316001D02*
Y321333D01*
X143000Y323999D01*
X145666Y321333D01*
Y316001D01*
Y320000D01*
X140334D01*
X153663Y323999D02*
X150997Y322666D01*
X148332Y320000D01*
Y317334D01*
X149664Y316001D01*
X152330D01*
X153663Y317334D01*
Y318667D01*
X152330Y320000D01*
X148332D01*
X250167Y547666D02*
X248834Y548999D01*
X246168D01*
X244835Y547666D01*
Y542334D01*
X246168Y541001D01*
X248834D01*
X250167Y542334D01*
X252833Y547666D02*
X254166Y548999D01*
X256832D01*
X258165Y547666D01*
Y546333D01*
X256832Y545000D01*
X258165Y543667D01*
Y542334D01*
X256832Y541001D01*
X254166D01*
X252833Y542334D01*
Y543667D01*
X254166Y545000D01*
X252833Y546333D01*
Y547666D01*
X254166Y545000D02*
X256832D01*
X5337Y35999D02*
X10668Y28001D01*
Y35999D02*
X5337Y28001D01*
X18666Y34666D02*
X17333Y35999D01*
X14667D01*
X13334Y34666D01*
Y33333D01*
X14667Y32000D01*
X17333D01*
X18666Y30667D01*
Y29334D01*
X17333Y28001D01*
X14667D01*
X13334Y29334D01*
X26663Y28001D02*
X21332D01*
X26663Y33333D01*
Y34666D01*
X25330Y35999D01*
X22664D01*
X21332Y34666D01*
X73004Y740999D02*
X78336Y733001D01*
Y740999D02*
X73004Y733001D01*
X81002D02*
Y740999D01*
X85001D01*
X86334Y739666D01*
Y737000D01*
X85001Y735667D01*
X81002D01*
X88999Y733001D02*
X91665D01*
X90332D01*
Y740999D01*
X88999Y739666D01*
X95664D02*
X96997Y740999D01*
X99663D01*
X100996Y739666D01*
Y738333D01*
X99663Y737000D01*
X98330D01*
X99663D01*
X100996Y735667D01*
Y734334D01*
X99663Y733001D01*
X96997D01*
X95664Y734334D01*
X90337Y279999D02*
X95668Y272001D01*
Y279999D02*
X90337Y272001D01*
X98334D02*
Y279999D01*
X102333D01*
X103666Y278666D01*
Y276000D01*
X102333Y274667D01*
X98334D01*
X111663Y272001D02*
X106332D01*
X111663Y277333D01*
Y278666D01*
X110330Y279999D01*
X107664D01*
X106332Y278666D01*
X6004Y495999D02*
X11336Y488001D01*
Y495999D02*
X6004Y488001D01*
X14002D02*
Y495999D01*
X18001D01*
X19334Y494666D01*
Y492000D01*
X18001Y490667D01*
X14002D01*
X21999Y488001D02*
X24665D01*
X23332D01*
Y495999D01*
X21999Y494666D01*
X33995Y495999D02*
X28664D01*
Y492000D01*
X31330Y493333D01*
X32663D01*
X33995Y492000D01*
Y489334D01*
X32663Y488001D01*
X29997D01*
X28664Y489334D01*
X6004Y663999D02*
X11336Y656001D01*
Y663999D02*
X6004Y656001D01*
X14002D02*
Y663999D01*
X18001D01*
X19334Y662666D01*
Y660000D01*
X18001Y658667D01*
X14002D01*
X21999Y656001D02*
X24665D01*
X23332D01*
Y663999D01*
X21999Y662666D01*
X32663Y656001D02*
Y663999D01*
X28664Y660000D01*
X33995D01*
X188255Y672999D02*
X193586Y665001D01*
Y672999D02*
X188255Y665001D01*
X196252D02*
Y672999D01*
X200251D01*
X201583Y671666D01*
Y669000D01*
X200251Y667667D01*
X196252D01*
X204249Y665001D02*
X206915D01*
X205582D01*
Y672999D01*
X204249Y671666D01*
X216245Y665001D02*
X210914D01*
X216245Y670333D01*
Y671666D01*
X214913Y672999D01*
X212247D01*
X210914Y671666D01*
X1015670Y914999D02*
X1021001Y907001D01*
Y914999D02*
X1015670Y907001D01*
X1023667D02*
Y914999D01*
X1027666D01*
X1028999Y913666D01*
Y911000D01*
X1027666Y909667D01*
X1023667D01*
X1031665Y907001D02*
X1034330D01*
X1032998D01*
Y914999D01*
X1031665Y913666D01*
X805663Y866001D02*
X800332Y873999D01*
Y866001D02*
X805663Y873999D01*
X797666D02*
Y866001D01*
X793667D01*
X792334Y867334D01*
Y870000D01*
X793667Y871333D01*
X797666D01*
X784337Y866001D02*
X789668D01*
Y870000D01*
X787003Y868667D01*
X785670D01*
X784337Y870000D01*
Y872666D01*
X785670Y873999D01*
X788335D01*
X789668Y872666D01*
X189337Y424999D02*
X194668Y417001D01*
Y424999D02*
X189337Y417001D01*
X197334D02*
Y424999D01*
X201333D01*
X202666Y423666D01*
Y421000D01*
X201333Y419667D01*
X197334D01*
X209330Y417001D02*
Y424999D01*
X205332Y421000D01*
X210663D01*
X976337Y754999D02*
X981668Y747001D01*
Y754999D02*
X976337Y747001D01*
X984334D02*
Y754999D01*
X988333D01*
X989666Y753666D01*
Y751000D01*
X988333Y749667D01*
X984334D01*
X992332Y753666D02*
X993664Y754999D01*
X996330D01*
X997663Y753666D01*
Y752333D01*
X996330Y751000D01*
X994997D01*
X996330D01*
X997663Y749667D01*
Y748334D01*
X996330Y747001D01*
X993664D01*
X992332Y748334D01*
X562836Y548251D02*
Y556249D01*
X566835D01*
X568168Y554916D01*
Y552250D01*
X566835Y550917D01*
X562836D01*
X565502D02*
X568168Y548251D01*
X570834D02*
X573499D01*
X572166D01*
Y556249D01*
X570834Y554916D01*
X577498Y548251D02*
X580164D01*
X578831D01*
Y556249D01*
X577498Y554916D01*
X568335Y11001D02*
Y18999D01*
X572334D01*
X573667Y17666D01*
Y15000D01*
X572334Y13667D01*
X568335D01*
X571001D02*
X573667Y11001D01*
X581665D02*
X576333D01*
X581665Y16333D01*
Y17666D01*
X580332Y18999D01*
X577666D01*
X576333Y17666D01*
X628368Y10201D02*
Y18199D01*
X632367D01*
X633700Y16866D01*
Y14200D01*
X632367Y12867D01*
X628368D01*
X631034D02*
X633700Y10201D01*
X636366D02*
X639032D01*
X637699D01*
Y18199D01*
X636366Y16866D01*
X299337Y661001D02*
Y668999D01*
X303335D01*
X304668Y667666D01*
Y665000D01*
X303335Y663667D01*
X299337D01*
X302003D02*
X304668Y661001D01*
X312666Y668999D02*
X310000Y667666D01*
X307334Y665000D01*
Y662334D01*
X308667Y661001D01*
X311333D01*
X312666Y662334D01*
Y663667D01*
X311333Y665000D01*
X307334D01*
X319330Y661001D02*
Y668999D01*
X315332Y665000D01*
X320663D01*
X270337Y734501D02*
Y742499D01*
X274336D01*
X275669Y741166D01*
Y738500D01*
X274336Y737167D01*
X270337D01*
X273003D02*
X275669Y734501D01*
X283666Y742499D02*
X281000Y741166D01*
X278334Y738500D01*
Y735834D01*
X279667Y734501D01*
X282333D01*
X283666Y735834D01*
Y737167D01*
X282333Y738500D01*
X278334D01*
X291663Y734501D02*
X286332D01*
X291663Y739833D01*
Y741166D01*
X290330Y742499D01*
X287665D01*
X286332Y741166D01*
X360670Y128501D02*
Y136499D01*
X364668D01*
X366001Y135166D01*
Y132500D01*
X364668Y131167D01*
X360670D01*
X363335D02*
X366001Y128501D01*
X372666D02*
Y136499D01*
X368667Y132500D01*
X373999D01*
X376665Y128501D02*
X379330D01*
X377997D01*
Y136499D01*
X376665Y135166D01*
X299337Y126001D02*
Y133999D01*
X303335D01*
X304668Y132666D01*
Y130000D01*
X303335Y128667D01*
X299337D01*
X302003D02*
X304668Y126001D01*
X311333D02*
Y133999D01*
X307334Y130000D01*
X312666D01*
X315332Y132666D02*
X316665Y133999D01*
X319330D01*
X320663Y132666D01*
Y127334D01*
X319330Y126001D01*
X316665D01*
X315332Y127334D01*
Y132666D01*
X359337Y143501D02*
Y151499D01*
X363335D01*
X364668Y150166D01*
Y147500D01*
X363335Y146167D01*
X359337D01*
X362003D02*
X364668Y143501D01*
X367334Y150166D02*
X368667Y151499D01*
X371333D01*
X372666Y150166D01*
Y148833D01*
X371333Y147500D01*
X370000D01*
X371333D01*
X372666Y146167D01*
Y144834D01*
X371333Y143501D01*
X368667D01*
X367334Y144834D01*
X375332D02*
X376665Y143501D01*
X379330D01*
X380663Y144834D01*
Y150166D01*
X379330Y151499D01*
X376665D01*
X375332Y150166D01*
Y148833D01*
X376665Y147500D01*
X380663D01*
X302312Y139503D02*
X294314D01*
Y143502D01*
X295647Y144835D01*
X298313D01*
X299646Y143502D01*
Y139503D01*
Y142169D02*
X302312Y144835D01*
X295647Y147500D02*
X294314Y148833D01*
Y151499D01*
X295647Y152832D01*
X296980D01*
X298313Y151499D01*
Y150166D01*
Y151499D01*
X299646Y152832D01*
X300979D01*
X302312Y151499D01*
Y148833D01*
X300979Y147500D01*
X295647Y155498D02*
X294314Y156831D01*
Y159497D01*
X295647Y160830D01*
X296980D01*
X298313Y159497D01*
X299646Y160830D01*
X300979D01*
X302312Y159497D01*
Y156831D01*
X300979Y155498D01*
X299646D01*
X298313Y156831D01*
X296980Y155498D01*
X295647D01*
X298313Y156831D02*
Y159497D01*
X396176Y178244D02*
Y186241D01*
X400175D01*
X401508Y184909D01*
Y182243D01*
X400175Y180910D01*
X396176D01*
X398842D02*
X401508Y178244D01*
X404173Y184909D02*
X405506Y186241D01*
X408172D01*
X409505Y184909D01*
Y183576D01*
X408172Y182243D01*
X406839D01*
X408172D01*
X409505Y180910D01*
Y179577D01*
X408172Y178244D01*
X405506D01*
X404173Y179577D01*
X417502Y186241D02*
X412171D01*
Y182243D01*
X414837Y183576D01*
X416170D01*
X417502Y182243D01*
Y179577D01*
X416170Y178244D01*
X413504D01*
X412171Y179577D01*
X359337Y156001D02*
Y163999D01*
X363335D01*
X364668Y162666D01*
Y160000D01*
X363335Y158667D01*
X359337D01*
X362003D02*
X364668Y156001D01*
X367334Y162666D02*
X368667Y163999D01*
X371333D01*
X372666Y162666D01*
Y161333D01*
X371333Y160000D01*
X370000D01*
X371333D01*
X372666Y158667D01*
Y157334D01*
X371333Y156001D01*
X368667D01*
X367334Y157334D01*
X379330Y156001D02*
Y163999D01*
X375332Y160000D01*
X380663D01*
X280337Y164001D02*
Y171999D01*
X284335D01*
X285668Y170666D01*
Y168000D01*
X284335Y166667D01*
X280337D01*
X283003D02*
X285668Y164001D01*
X288334Y170666D02*
X289667Y171999D01*
X292333D01*
X293666Y170666D01*
Y169333D01*
X292333Y168000D01*
X291000D01*
X292333D01*
X293666Y166667D01*
Y165334D01*
X292333Y164001D01*
X289667D01*
X288334Y165334D01*
X296332Y170666D02*
X297665Y171999D01*
X300330D01*
X301663Y170666D01*
Y169333D01*
X300330Y168000D01*
X298997D01*
X300330D01*
X301663Y166667D01*
Y165334D01*
X300330Y164001D01*
X297665D01*
X296332Y165334D01*
X359337Y168501D02*
Y176499D01*
X363335D01*
X364668Y175166D01*
Y172500D01*
X363335Y171167D01*
X359337D01*
X362003D02*
X364668Y168501D01*
X367334Y175166D02*
X368667Y176499D01*
X371333D01*
X372666Y175166D01*
Y173833D01*
X371333Y172500D01*
X370000D01*
X371333D01*
X372666Y171167D01*
Y169834D01*
X371333Y168501D01*
X368667D01*
X367334Y169834D01*
X380663Y168501D02*
X375332D01*
X380663Y173833D01*
Y175166D01*
X379330Y176499D01*
X376665D01*
X375332Y175166D01*
X281670Y176001D02*
Y183999D01*
X285668D01*
X287001Y182666D01*
Y180000D01*
X285668Y178667D01*
X281670D01*
X284335D02*
X287001Y176001D01*
X289667Y182666D02*
X291000Y183999D01*
X293666D01*
X294999Y182666D01*
Y181333D01*
X293666Y180000D01*
X292333D01*
X293666D01*
X294999Y178667D01*
Y177334D01*
X293666Y176001D01*
X291000D01*
X289667Y177334D01*
X297665Y176001D02*
X300330D01*
X298997D01*
Y183999D01*
X297665Y182666D01*
X359337Y181001D02*
Y188999D01*
X363335D01*
X364668Y187666D01*
Y185000D01*
X363335Y183667D01*
X359337D01*
X362003D02*
X364668Y181001D01*
X367334Y187666D02*
X368667Y188999D01*
X371333D01*
X372666Y187666D01*
Y186333D01*
X371333Y185000D01*
X370000D01*
X371333D01*
X372666Y183667D01*
Y182334D01*
X371333Y181001D01*
X368667D01*
X367334Y182334D01*
X375332Y187666D02*
X376665Y188999D01*
X379330D01*
X380663Y187666D01*
Y182334D01*
X379330Y181001D01*
X376665D01*
X375332Y182334D01*
Y187666D01*
X280337Y189001D02*
Y196999D01*
X284335D01*
X285668Y195666D01*
Y193000D01*
X284335Y191667D01*
X280337D01*
X283003D02*
X285668Y189001D01*
X293666D02*
X288334D01*
X293666Y194333D01*
Y195666D01*
X292333Y196999D01*
X289667D01*
X288334Y195666D01*
X296332Y190334D02*
X297665Y189001D01*
X300330D01*
X301663Y190334D01*
Y195666D01*
X300330Y196999D01*
X297665D01*
X296332Y195666D01*
Y194333D01*
X297665Y193000D01*
X301663D01*
X359337Y193501D02*
Y201499D01*
X363335D01*
X364668Y200166D01*
Y197500D01*
X363335Y196167D01*
X359337D01*
X362003D02*
X364668Y193501D01*
X372666D02*
X367334D01*
X372666Y198833D01*
Y200166D01*
X371333Y201499D01*
X368667D01*
X367334Y200166D01*
X375332D02*
X376665Y201499D01*
X379330D01*
X380663Y200166D01*
Y198833D01*
X379330Y197500D01*
X380663Y196167D01*
Y194834D01*
X379330Y193501D01*
X376665D01*
X375332Y194834D01*
Y196167D01*
X376665Y197500D01*
X375332Y198833D01*
Y200166D01*
X376665Y197500D02*
X379330D01*
X279337Y202001D02*
Y209999D01*
X283335D01*
X284668Y208666D01*
Y206000D01*
X283335Y204667D01*
X279337D01*
X282003D02*
X284668Y202001D01*
X292666D02*
X287334D01*
X292666Y207333D01*
Y208666D01*
X291333Y209999D01*
X288667D01*
X287334Y208666D01*
X295332Y209999D02*
X300663D01*
Y208666D01*
X295332Y203334D01*
Y202001D01*
X359337Y206001D02*
Y213999D01*
X363335D01*
X364668Y212666D01*
Y210000D01*
X363335Y208667D01*
X359337D01*
X362003D02*
X364668Y206001D01*
X372666D02*
X367334D01*
X372666Y211333D01*
Y212666D01*
X371333Y213999D01*
X368667D01*
X367334Y212666D01*
X380663Y213999D02*
X377997Y212666D01*
X375332Y210000D01*
Y207334D01*
X376665Y206001D01*
X379330D01*
X380663Y207334D01*
Y208667D01*
X379330Y210000D01*
X375332D01*
X555337Y175001D02*
Y182999D01*
X559336D01*
X560668Y181666D01*
Y179000D01*
X559336Y177667D01*
X555337D01*
X558003D02*
X560668Y175001D01*
X568666D02*
X563334D01*
X568666Y180333D01*
Y181666D01*
X567333Y182999D01*
X564667D01*
X563334Y181666D01*
X576663Y175001D02*
X571332D01*
X576663Y180333D01*
Y181666D01*
X575330Y182999D01*
X572664D01*
X571332Y181666D01*
X556670Y208001D02*
Y215999D01*
X560668D01*
X562001Y214666D01*
Y212000D01*
X560668Y210667D01*
X556670D01*
X559336D02*
X562001Y208001D01*
X569999D02*
X564667D01*
X569999Y213333D01*
Y214666D01*
X568666Y215999D01*
X566000D01*
X564667Y214666D01*
X572664Y208001D02*
X575330D01*
X573997D01*
Y215999D01*
X572664Y214666D01*
X178496Y942083D02*
X177163Y943415D01*
X174497D01*
X173164Y942083D01*
Y936751D01*
X174497Y935418D01*
X177163D01*
X178496Y936751D01*
X186493Y943415D02*
X183827Y942083D01*
X181161Y939417D01*
Y936751D01*
X182494Y935418D01*
X185160D01*
X186493Y936751D01*
Y938084D01*
X185160Y939417D01*
X181161D01*
X189159Y942083D02*
X190492Y943415D01*
X193158D01*
X194490Y942083D01*
Y936751D01*
X193158Y935418D01*
X190492D01*
X189159Y936751D01*
Y942083D01*
X223418Y152666D02*
X222085Y153999D01*
X219420D01*
X218087Y152666D01*
Y147334D01*
X219420Y146001D01*
X222085D01*
X223418Y147334D01*
X231416Y153999D02*
X226084D01*
Y150000D01*
X228750Y151333D01*
X230083D01*
X231416Y150000D01*
Y147334D01*
X230083Y146001D01*
X227417D01*
X226084Y147334D01*
X234082D02*
X235415Y146001D01*
X238080D01*
X239413Y147334D01*
Y152666D01*
X238080Y153999D01*
X235415D01*
X234082Y152666D01*
Y151333D01*
X235415Y150000D01*
X239413D01*
X450668Y157666D02*
X449336Y158999D01*
X446670D01*
X445337Y157666D01*
Y152334D01*
X446670Y151001D01*
X449336D01*
X450668Y152334D01*
X458666Y158999D02*
X453334D01*
Y155000D01*
X456000Y156333D01*
X457333D01*
X458666Y155000D01*
Y152334D01*
X457333Y151001D01*
X454667D01*
X453334Y152334D01*
X465330Y151001D02*
Y158999D01*
X461332Y155000D01*
X466663D01*
X477168Y180166D02*
X475835Y181499D01*
X473170D01*
X471837Y180166D01*
Y174834D01*
X473170Y173501D01*
X475835D01*
X477168Y174834D01*
X485166Y181499D02*
X479834D01*
Y177500D01*
X482500Y178833D01*
X483833D01*
X485166Y177500D01*
Y174834D01*
X483833Y173501D01*
X481167D01*
X479834Y174834D01*
X487832Y180166D02*
X489165Y181499D01*
X491830D01*
X493163Y180166D01*
Y178833D01*
X491830Y177500D01*
X490497D01*
X491830D01*
X493163Y176167D01*
Y174834D01*
X491830Y173501D01*
X489165D01*
X487832Y174834D01*
X477168Y125166D02*
X475835Y126499D01*
X473170D01*
X471837Y125166D01*
Y119834D01*
X473170Y118501D01*
X475835D01*
X477168Y119834D01*
X485166Y126499D02*
X479834D01*
Y122500D01*
X482500Y123833D01*
X483833D01*
X485166Y122500D01*
Y119834D01*
X483833Y118501D01*
X481167D01*
X479834Y119834D01*
X493163Y118501D02*
X487832D01*
X493163Y123833D01*
Y125166D01*
X491830Y126499D01*
X489165D01*
X487832Y125166D01*
X455102Y245614D02*
X453769Y246947D01*
X451103D01*
X449770Y245614D01*
Y240283D01*
X451103Y238950D01*
X453769D01*
X455102Y240283D01*
X463099Y246947D02*
X457767D01*
Y242949D01*
X460433Y244282D01*
X461766D01*
X463099Y242949D01*
Y240283D01*
X461766Y238950D01*
X459100D01*
X457767Y240283D01*
X465765Y238950D02*
X468431D01*
X467098D01*
Y246947D01*
X465765Y245614D01*
X425168Y150666D02*
X423835Y151999D01*
X421170D01*
X419837Y150666D01*
Y145334D01*
X421170Y144001D01*
X423835D01*
X425168Y145334D01*
X431833Y144001D02*
Y151999D01*
X427834Y148000D01*
X433166D01*
X435832Y145334D02*
X437164Y144001D01*
X439830D01*
X441163Y145334D01*
Y150666D01*
X439830Y151999D01*
X437164D01*
X435832Y150666D01*
Y149333D01*
X437164Y148000D01*
X441163D01*
X394673Y156384D02*
X393340Y157717D01*
X390674D01*
X389341Y156384D01*
Y151052D01*
X390674Y149719D01*
X393340D01*
X394673Y151052D01*
X401337Y149719D02*
Y157717D01*
X397339Y153718D01*
X402670D01*
X405336Y157717D02*
X410668D01*
Y156384D01*
X405336Y151052D01*
Y149719D01*
X399668Y197666D02*
X398335Y198999D01*
X395670D01*
X394337Y197666D01*
Y192334D01*
X395670Y191001D01*
X398335D01*
X399668Y192334D01*
X406333Y191001D02*
Y198999D01*
X402334Y195000D01*
X407666D01*
X415663Y198999D02*
X412997Y197666D01*
X410332Y195000D01*
Y192334D01*
X411665Y191001D01*
X414330D01*
X415663Y192334D01*
Y193667D01*
X414330Y195000D01*
X410332D01*
X477168Y157666D02*
X475835Y158999D01*
X473170D01*
X471837Y157666D01*
Y152334D01*
X473170Y151001D01*
X475835D01*
X477168Y152334D01*
X483833Y151001D02*
Y158999D01*
X479834Y155000D01*
X485166D01*
X487832Y157666D02*
X489165Y158999D01*
X491830D01*
X493163Y157666D01*
Y156333D01*
X491830Y155000D01*
X490497D01*
X491830D01*
X493163Y153667D01*
Y152334D01*
X491830Y151001D01*
X489165D01*
X487832Y152334D01*
X477168Y137666D02*
X475835Y138999D01*
X473170D01*
X471837Y137666D01*
Y132334D01*
X473170Y131001D01*
X475835D01*
X477168Y132334D01*
X479834Y137666D02*
X481167Y138999D01*
X483833D01*
X485166Y137666D01*
Y136333D01*
X483833Y135000D01*
X482500D01*
X483833D01*
X485166Y133667D01*
Y132334D01*
X483833Y131001D01*
X481167D01*
X479834Y132334D01*
X487832Y137666D02*
X489165Y138999D01*
X491830D01*
X493163Y137666D01*
Y136333D01*
X491830Y135000D01*
X493163Y133667D01*
Y132334D01*
X491830Y131001D01*
X489165D01*
X487832Y132334D01*
Y133667D01*
X489165Y135000D01*
X487832Y136333D01*
Y137666D01*
X489165Y135000D02*
X491830D01*
X407334Y252168D02*
X406001Y250835D01*
Y248170D01*
X407334Y246837D01*
X412666D01*
X413999Y248170D01*
Y250835D01*
X412666Y252168D01*
X407334Y254834D02*
X406001Y256167D01*
Y258833D01*
X407334Y260166D01*
X408667D01*
X410000Y258833D01*
Y257500D01*
Y258833D01*
X411333Y260166D01*
X412666D01*
X413999Y258833D01*
Y256167D01*
X412666Y254834D01*
X413999Y266830D02*
X406001D01*
X410000Y262832D01*
Y268163D01*
X427334Y253501D02*
X426001Y252168D01*
Y249503D01*
X427334Y248170D01*
X432666D01*
X433999Y249503D01*
Y252168D01*
X432666Y253501D01*
X427334Y256167D02*
X426001Y257500D01*
Y260166D01*
X427334Y261499D01*
X428667D01*
X430000Y260166D01*
Y258833D01*
Y260166D01*
X431333Y261499D01*
X432666D01*
X433999Y260166D01*
Y257500D01*
X432666Y256167D01*
X433999Y264165D02*
Y266830D01*
Y265497D01*
X426001D01*
X427334Y264165D01*
X439834Y252168D02*
X438501Y250835D01*
Y248170D01*
X439834Y246837D01*
X445166D01*
X446499Y248170D01*
Y250835D01*
X445166Y252168D01*
X439834Y254834D02*
X438501Y256167D01*
Y258833D01*
X439834Y260166D01*
X441167D01*
X442500Y258833D01*
Y257500D01*
Y258833D01*
X443833Y260166D01*
X445166D01*
X446499Y258833D01*
Y256167D01*
X445166Y254834D01*
X439834Y262832D02*
X438501Y264165D01*
Y266830D01*
X439834Y268163D01*
X445166D01*
X446499Y266830D01*
Y264165D01*
X445166Y262832D01*
X439834D01*
X484834Y252168D02*
X483501Y250835D01*
Y248170D01*
X484834Y246837D01*
X490166D01*
X491499Y248170D01*
Y250835D01*
X490166Y252168D01*
X491499Y260166D02*
Y254834D01*
X486167Y260166D01*
X484834D01*
X483501Y258833D01*
Y256167D01*
X484834Y254834D01*
X490166Y262832D02*
X491499Y264165D01*
Y266830D01*
X490166Y268163D01*
X484834D01*
X483501Y266830D01*
Y264165D01*
X484834Y262832D01*
X486167D01*
X487500Y264165D01*
Y268163D01*
X499834Y252168D02*
X498501Y250835D01*
Y248170D01*
X499834Y246837D01*
X505166D01*
X506499Y248170D01*
Y250835D01*
X505166Y252168D01*
X506499Y260166D02*
Y254834D01*
X501167Y260166D01*
X499834D01*
X498501Y258833D01*
Y256167D01*
X499834Y254834D01*
Y262832D02*
X498501Y264165D01*
Y266830D01*
X499834Y268163D01*
X501167D01*
X502500Y266830D01*
X503833Y268163D01*
X505166D01*
X506499Y266830D01*
Y264165D01*
X505166Y262832D01*
X503833D01*
X502500Y264165D01*
X501167Y262832D01*
X499834D01*
X502500Y264165D02*
Y266830D01*
X398668Y120666D02*
X397336Y121999D01*
X394670D01*
X393337Y120666D01*
Y115334D01*
X394670Y114001D01*
X397336D01*
X398668Y115334D01*
X406666Y114001D02*
X401334D01*
X406666Y119333D01*
Y120666D01*
X405333Y121999D01*
X402667D01*
X401334Y120666D01*
X414663Y121999D02*
X409332D01*
Y118000D01*
X411997Y119333D01*
X413330D01*
X414663Y118000D01*
Y115334D01*
X413330Y114001D01*
X410664D01*
X409332Y115334D01*
M02*
