G04*
G04 #@! TF.GenerationSoftware,Altium Limited,Altium Designer,25.3.3 (18)*
G04*
G04 Layer_Color=32896*
%FSLAX44Y44*%
%MOMM*%
G71*
G04*
G04 #@! TF.SameCoordinates,C7DDFB2B-2633-4A26-B606-7584AA260CAD*
G04*
G04*
G04 #@! TF.FilePolarity,Positive*
G04*
G01*
G75*
%ADD10C,0.2000*%
%ADD11C,0.1500*%
D10*
X1070000Y775000D02*
G03*
X1100000Y805000I0J30000D01*
G01*
D11*
X0Y20000D02*
G03*
X20000Y0I20000J0D01*
G01*
X1019000Y208000D02*
G03*
X1032000Y195000I13000J0D01*
G01*
Y775000D02*
G03*
X1019000Y762000I0J-13000D01*
G01*
X1120000Y182000D02*
G03*
X1107000Y195000I-13000J0D01*
G01*
Y20000D02*
G03*
X1120000Y33000I0J13000D01*
G01*
X1100000Y900000D02*
G03*
X1070000Y930000I-30000J-0D01*
G01*
X960000Y20000D02*
G03*
X906706Y4615I0J-100000D01*
G01*
Y945385D02*
G03*
X960000Y930000I53294J84615D01*
G01*
X890718Y0D02*
G03*
X906706Y4615I0J30000D01*
G01*
Y945385D02*
G03*
X890718Y950000I-15988J-25385D01*
G01*
X20000Y950000D02*
G03*
X0Y930000I0J-20000D01*
G01*
X20000Y0D02*
X890718D01*
X1120000Y33000D02*
Y182000D01*
X1100000Y805000D02*
Y900000D01*
X1032000Y775000D02*
X1070000D01*
X1032000Y195000D02*
X1107000D01*
X960000Y20000D02*
X1107000D01*
X960000Y930000D02*
X1070000D01*
X1019000Y208000D02*
X1019000Y762000D01*
X20000Y950000D02*
X890718D01*
X0Y20000D02*
Y930000D01*
M02*
