M48
;Layer_Color=9474304
;FILE_FORMAT=4:4
METRIC,LZ
;TYPE=PLATED
T01F00S00C0.2000
T02F00S00C0.4000
T03F00S00C0.6500
T04F00S00C0.7000
T05F00S00C0.9300
T06F00S00C0.9900
T07F00S00C1.0000
T08F00S00C1.0200
T09F00S00C1.6300
T10F00S00C1.7000
T11F00S00C2.0000
T12F00S00C2.7000
T13F00S00C3.6000
T14F00S00C3.7000
;TYPE=NON_PLATED
T15F00S00C0.6500
T16F00S00C1.0000
T17F00S00C1.1500
T18F00S00C1.6500
T19F00S00C2.0000
T20F00S00C2.8000
T21F00S00C3.2000
T22F00S00C3.2500
%
T01
X00022Y00006
X00038
X00054
X0007
X00086
X00102
X00118
X00134
X00118Y00038
X00102
X0009975Y0002975
X00094Y00022
X00086Y00038
X00078Y00054
X0007Y0007
X00086
X00094Y00086
X00078
X0007Y00102
X00054
X00062Y00118
X00046
X00054Y00134
X00022
X00006
X00014Y00118
X00006Y00102
X00022
X00014Y00086
X00006Y0007
X00022
X0003Y00054
X00014
X00006Y00038
X00022
X0003Y00022
X00046
X00055865Y00038598
X00046Y00086
X00014Y00022
X00134Y00102
X00126Y00118
X00118Y00134
X00134
X00102
X00158Y00118
X00185Y0012125
X00217708Y00124724
X00219967Y001315
X0021Y001365
X00211467Y00142927
X00243Y00137
Y00131
X00265
X00269Y00111
X00242Y00104
Y00098
Y00092
X00254Y0008425
X00182Y0007
Y00038
X00166
Y00006
X00182
X00198
X00206Y00022
X0019
X0015Y00006
X00327Y0010275
X0033725Y00113339
X00361767Y00146535
X00389Y0014425
X0039025Y00138519
X00390235Y00130019
X00385Y00103
X00385125Y00097385
X00417Y00082
X00432Y00086
X00437755Y00084
X00446255Y00082
X00470898Y00074908
X00471975Y0006782
X00473Y0005225
X004855Y0004875
X0051Y00054
X00527Y00055525
Y00061025
X00515Y00082371
X00505Y0008425
X00493Y00084
X00516991Y00114499
X005205Y00134
X00438441Y00114802
X00432089Y00113945
X0043625Y0005025
X0045775Y0006175
X0045525Y0002
X00462Y000215
X0051925Y0002625
X0052325Y0002075
X00541Y0001
X0055525Y0002525
X005635Y000175
X00579Y00015
X00571Y0003
X00591
X00611Y00031
X006095Y00015
X00631Y00031
X00643
X00655
X00667194Y00034008
X006615Y0000425
X006415Y000075
X00635Y00057
X00625621Y00054417
X00627204Y00063271
X0064275Y00062979
X00632277Y00079577
X00633521Y00100479
X00628043Y00102893
X00626Y00108
X006275Y001175
X0061375Y0010325
X00610473Y0009325
X0060976Y00087791
X00587781Y00088743
X00592245Y00094255
X00594992Y0010325
X0057398Y00094015
X00567579Y00076428
X00555308Y00076858
X005555Y00082355
X005545Y00055525
X005545Y00050025
X00567Y0004875
X00583Y00052634
X0058725Y0004825
X00586739Y00059471
X00582725Y000634
X00587Y000775
X00607Y0006375
X00604Y00053
X00599Y0005
X00655Y00079521
X00657Y00085
X00670423Y00078966
X00679003Y00075708
X00676704Y00084705
X006875Y000825
X006925
X00711Y00081
X00719
X00715Y00086
X00727Y00084
X00742Y0007
X00758
X00767Y00096
X00729Y001335
X00713471Y00125256
X00690557Y00137703
X0068Y00133
X00716374Y00032754
X0070599Y00018739
X0073Y0001
X00772662Y00025004
X00877999Y00022
X00886Y00006
X00909999Y00022
X00926
X00902Y00038
X00909999Y00086
X00902Y00102
X00917999
X00933999
Y00134
X009265Y00137
X0092075
X00908Y00129
X00895Y00141
X00862Y00086
X00942
X00956Y00087
X00949999Y00102
X00966
X00973999Y00118
X00989999
X01006
X01022
X01029999Y00102
X01046
X01062
X01077999
X01093999
X01109999
X01101999Y00118
X01085999
X01077999Y00134
X01093999
X01109999
X01101999Y00086
X01085999
X01069999
X01053999
X01037999
X01022
X01013999Y0007
X01029999
X01046
X01062
X01077999
X01093999
X01109999
X01101999Y00054
X01085999
X01069999
X01053999
X01037999
X01022
X01006
X00989999
X00982Y00038
X00997999
X01013999
X01029999
X01046
X01062
X01053999Y00118
X00997999Y00102
X00989999Y00086
X00997999Y0007
X00942Y00118
X00949999Y00134
X009495Y0013975
X00942Y0015
X00962Y0017
X00976613Y00172227
X00986Y001715
X01008Y00171
X01026Y00168
X010295Y001715
X01053999Y0015
X01069999
X01085999
X01101999
X01093999Y00166
X01109999
X01101999Y00182
X01077999Y00166
X01013999Y0023
Y00262
X00997999
X01006Y00278
X00989999
X00997999Y00294
X01013999
X01006Y0031
X00989999
X00982Y00326
X00997999
X01013999
X01006Y00342
X00989999
X00997999Y00358
X01013999
Y0039
X00982
X00989999Y00374
X00957999
X00942
X00949999Y00422
X00982
X01011Y0041985
X00973999Y0047
Y00502
X00957999
X00966Y00262
X00973999Y00246
X00957999
X00942
X00949999Y0023
X00966
X00973999Y00214
X00989999
X00957999
X00942
X00964Y001875
X009265Y00188
Y0018275
X00917Y00182
X00919586Y00194035
X00926Y00214
X00909999
X00902Y0023
X00917999
X00933999
X00926Y00246
X00909999
X00901Y00185
X009Y0014925
X00862Y00278
X00841407Y002745
X00822Y00294
X00805Y003325
X00794875Y00332625
X007675Y00305
X00772Y00262
X007518Y00261
X0069425Y00262005
X0069Y002346
X0069563Y0029538
X007275Y003225
X0074675Y003825
X0075575Y00376
X0076875Y0038625
X00812Y00371
X00877999Y00374
Y00406
X00902Y0039
X00926Y00406
X00877999Y00342
X00893999Y0031
X0065125Y003115
X0064Y003025
X006025Y00335
X00562263Y00338793
X0056725Y00353
X00576639Y00361611
X0057275Y00366
X0058575Y0036425
X00594Y003725
X00610473Y003896
X00610506Y003951
X00599Y00405097
X00587Y00405
X00575Y004045
X00575Y0039825
Y0039275
X005675Y0040325
X00563Y00384903
X00557Y00386454
X00551Y00384903
Y004175
X0055625
X00590862Y00432786
X00648Y0044175
X0065925
X0066925Y0044125
X00654Y004505
X00650949Y003866
X00668257Y00386591
X0067886Y00402585
X00695Y00404
X007055Y0040225
X00726Y00422
X00734Y00534
X0078425
X00797999
X00813999
X00829999
X00847Y00528
X00822Y00518
X00806
X0079
X00774
X00795Y004925
X0081625
X00750138Y001855
X00727294Y00186719
X007215Y00189304
X00613Y00154
X00595715Y00152393
X00591825Y00147786
X00572Y00182
X005505Y00174
Y00166
X0055Y0019
X0054975Y00196
X0055Y00202
X00551444Y00220034
X0055Y00262
X0057775Y0026575
X00582Y00262
X00598
X00565Y003175
X00538284Y00274311
X00534Y00262
X00535Y00249
X00501Y00246
X00487196Y00245952
X00443Y00246
X00429
X00409
X00362913Y00242069
X003616Y00222226
X0035625Y002235
X00361334Y00202298
X00358069Y00197798
X00356Y00192697
X00361402Y00189979
X00362115Y00181232
X00360281Y00175905
X00358979Y00170562
X00356167Y00164083
X00361192Y00161846
X00361536Y0015225
X00356247Y00154507
X00356092Y00183591
X00339Y0018525
X0032Y00187
Y00210309
X00321Y0021875
X00322Y00228
X0029475Y0026475
X0029525Y002725
X00369Y0026725
X0036766Y002599
X0039Y0021
X00391Y00166
X0040575Y0015175
X0052075Y0015425
X00521Y00162
X0052025Y0017675
X004775Y00283
X0047Y002895
Y00295
X00471Y00316
X00469629Y00359071
Y00364571
X00454Y00358
X00414Y00374
X0042975Y0041675
X00433Y00445
X00439Y00470086
X00446Y0047
X0046375Y00469649
X00480487Y00468168
X00502Y00468
X0051Y00438
X00526
X00533468Y00417625
X00539Y0041725
X0052075Y0041325
X0051Y004175
X00507511Y00377469
X00526067Y00375005
X00539712Y00373451
X00543Y00384903
X0046225Y00413297
X00462Y0044
X004225Y00470372
X00407Y00468914
X00392442Y00467412
X00377602Y00467557
X00362469Y00467479
X00338Y0047
X00332
X00326
X0032
X00323Y00474
X00317
X00283892Y00493146
X0028375Y00501
X003025Y00535
X003075
X00369281Y00521486
X0037575Y00521
X0038275Y0052125
X0047975Y00521
X0051Y00534
X0051656Y0053269
X0034325Y004425
X00340006Y00436609
X00342Y00422
X00318Y00406
X0031Y0039
X00326
X00302Y00374
X00241Y00349
X0019Y00333
X00175
X00174Y0026725
X00190854Y002665
X00207Y00232
X00213
X00223Y00224
Y00218
X00218Y00212
X00212
X00206
X002
X00194
X00188
X00241Y00161
X0026325Y0015775
X00264Y00152
Y00147
X002575Y0042
Y00425
X002525Y004225
Y004175
X002475Y0042
Y00415
X002425Y004175
Y004225
Y004275
X002475Y0043
Y00425
X002525Y004275
Y004325
X0024975Y00472673
X0024225Y0046975
X001905Y0049775
X0015Y00486
X00158Y0047
X0015Y00518
X0019Y00438
X00142Y0047
Y00502
X00126Y00534
X0011
X00046
Y00502
Y0047
Y00438
Y00406
Y00374
Y00342
X00062
X00054Y00326
X00046Y0031
X00054Y00294
X00061Y00282
X00046Y00278
X00054Y00262
X00061Y00252
X00046Y00246
X00054Y0023
X0007
X00086
X0011Y00214
X00102Y00198
X00118
X00134Y00166
X0007
Y00198
X00054
X00046Y00214
Y00182
X00014
X00006Y00198
X00022
X00014Y00214
X00006Y0023
X00022
X00014Y00246
X00006Y00262
X00022
X00014Y00278
X00006Y00294
X00022
X00014Y0031
X00006Y00326
X00014Y00342
X00006Y00358
X00022
X00014Y00374
X00006Y0039
X00022
X00014Y00406
X00006Y00422
X00022
X00014Y00438
X00006Y00454
X00022
X00014Y0047
X00006Y00486
X00022
X00014Y00502
X00006Y00518
X00022
X00014Y00534
X0011Y00406
X00142
X00134Y0039
X0011Y00374
X0011Y00312
X00116
X00122
X00128
X00134
X0014
X00146
Y00305
X00145Y0029775
Y0029175
X0012475Y0029575
X0012Y00298
X00122Y00305
X00104Y00312
X00142Y00342
X00022Y00166
X00006
X00014Y0015
X00006Y0055
X00022
X00014Y00566
X00006Y00582
X00022
X00014Y00598
X00006Y00614
X00022
X00014Y0063
X00006Y00646
X00022
X00014Y00662
X00046
Y0063
X00078
X00094
X00086Y00646
X000955Y00665
X0007Y00678
X00072421Y00696549
X00086687Y00702167
X0008775Y007151
X00086Y00742
X00102
X00094Y00758
X00078
X0007Y00742
X00046Y00758
X00038Y00774
X00054
X00046Y0079
X00038Y00806
X00054
X00046Y00822
X00038Y00837999
X00022
X00006
X00014Y00853999
X00006Y00869999
X00022
X000325Y00881
X00028586Y00887691
X00014Y00886
X00006Y00902
X00022
X0003975Y009065
X0003Y00917999
X00014
X00006Y00933999
X00022
X00038
X00054
X0007
X00086
X00102
X00118
X00134
X0011Y00917999
X00094
X00086Y00902
X00078Y00886
X00086Y00869999
X00094Y00853999
X0011
X00126
X00118Y00837999
X00102
X00086
X0007
X00078Y00853999
X00062
X00046
Y00886
X00062Y00917999
X00142Y00886
X00134Y00869999
X0011Y00822
X00094
X00078
X00086Y00806
X00102
X00118
X00094Y0079
X00078
X00086Y00774
X00022
X00006
X00014Y0079
X00006Y00806
X00022
X00014Y00822
Y00758
X00006Y0071
X00022
X0004425Y0071125
Y0070575
X00040425Y00698012
X000405Y006925
X0004075Y00719696
X00014Y00694
X00046Y00598
Y00566
X0011
X00118Y00582
Y0055
X00143Y0061
X00142Y0063
X0013875Y006895
X00086Y00614
X0007
X0019025Y0060725
X0023175Y00601
X00235804Y00597084
X0027Y00566
X003125Y005525
X003175
X00326Y00646
X00294
Y00678
X0031
X0035Y00694
Y00726
X00334
X00318
X00302
X0031Y00742
X00318Y00758
X00334
X0035
X00342Y00742
X00302Y00758
X00278Y00742
X00214
X00198
X00206Y00758
X00222
X00214Y00774
X00222Y0079
X00214Y00806
X00222Y00822
Y00853999
X00214Y00869999
X00222Y00886
X00214Y00902
X00198
X00182
X00166
X00158Y00917999
X0015Y00933999
X00166
X00182
X00198
X00214
X00206Y00917999
X00286
X00278Y00902
X00294
X0031
X00326
X00342
X00358
X00374
X00382Y00886
X0043
X00454Y00902
X0047
X00446Y00917999
X00438Y00933999
X00454
X00374
X00366Y00917999
X0035
X0027Y00886
X00246Y00869999
Y00837999
Y00806
X00174Y00758
X00162754Y00683293
X00159022Y00679253
X0016595Y00645261
X0016987Y0064912
X0027Y00662
X0026Y00695
X00398Y00694
X00414
X0043
X00446
X00462
X00478
X00494
X0051
X00526
X00542
X00518Y0071
X00486
Y00678
X00502
X00494Y00662
X00478
X00462
X00454Y00678
X0047
Y00646
X00486
X00502
X00494Y0063
X00478
X00462
X00454Y00646
Y00614
X004535Y0060725
X0047Y00614
X0048Y0061375
X00477Y00553
X0047
X00463
X00456
X00459Y00548
X00452
X00466
X00473
X00481
X00488
X00485Y00553
X00454Y0071
X00438
X00422
X0043Y00726
X00446
X00462
X00454Y00742
X00438
X00422
X00406
X00414Y00758
X00398
X0043
X00446858Y00757141
X0044925Y0076625
X00462Y00758
X0045975Y007925
X0051Y00853999
X00518Y00902
X0052525Y00925
X00414Y00726
X00398
X0015Y00837999
Y00869999
X00158Y00886
X0055163Y00858738
X0055Y00837999
X00566
Y00869999
X00582
X00589928Y00822072
X006155Y008285
X006105Y0083375
X00622Y00886
X00638
X00654
X00646Y00902
X00662
X0067Y00917999
X00654
X00638
X00622
X00614Y00902
X0063
X00685Y0088425
X006905
X0069575
X0070125
X007035Y008635
X007175Y0086475
X00719Y0085675
X0073025
X00739Y0085475
X00743225Y00863677
X00751Y00864
X0075875Y0086275
X00752Y0085575
X0077Y00852
X00782Y00853999
X008085Y00854
X00808564Y00847798
X0080825Y0083975
X00807871Y00861694
X00822Y00869999
X00837999
X00853999
X00869999
X00886
X00902
X00909999Y00853999
X00893999
X00877999
X00862
X00846
X00829999
X00837999Y00837999
X00853999
X00869999
X00886
X00877999Y00822
X00862
X00829999Y00886
X00813999
X00806Y00902
X00822
X00829999Y00917999
X00813999
X00797999
X00782
X00766
X00759Y0092575
X00758Y00933999
X00774
X0079
X00806
X00822
X00837999
X0079Y00902
X007672Y008744
X0075425Y008825
X0074Y00882
X007275Y00865
X00701Y0083375
X00697Y00816
X006825Y007975
X00674379Y00835892
X00718Y00917999
X0071Y00933999
X00726
X00742
X0075Y00917999
X00758Y00624
X00782375Y00621375
X00782Y00598
X00757Y0058625
X00742Y005815
X0075Y00566
X00766
X00797999
X00813999
X00829999
X00822Y0055
X00837999
Y00582
X00847709Y00595911
X00843Y00612
X00829999Y0063
X00822Y00646
X00837999
X00829999Y00662
X00917999Y00678
X00917446Y00695909
X009075Y00695
X00917999Y0071
X00877999Y00598
Y00566
X00806Y0055
X0079
X00742
X00726
X00734Y00566
X00718
X00696062Y00604472
X0068925Y0060375
X006865Y0061125
X0069175Y006225
X0066925Y006455
X006555Y006815
X00629Y006635
X00651633Y00585708
X00578Y00545
X00566Y0055
X0055
Y0071
Y00742
X00966
X00982
X00997999
X01006Y00758
X00989999
X00997999Y00774
X01022Y0079
X01037999
X01053999
X01046Y00806
X01062
X01069999Y00822
X01085999
X01077999Y00837999
X01093999
X01085999Y00853999
X01069999
X01053999
X01037999
X01022
X01029999Y00869999
X01046
X01062
X01077999
X01093999
X01085999Y00886
X01069999
X01053999
X01037999
X01022
X01013999Y00902
X01029999
X01046
X01062
X01069999Y00917999
X01085999
X01093999Y00902
X01053999Y00917999
X01037999
X01022
X01006
X00989999
X00973999
X01029999Y00837999
X01046
X01062
X01053999Y00822
X01037999
X01022
X01029999Y00806
X01093999
X01085999Y0079
X01006Y00694
X00966Y0071
X00973999Y00726
X00957999
Y0063
X00973999
Y00598
T02
X0026475Y00093348
X00284Y00096
X00295
Y00106
X00296Y00129
Y00138
X00358071Y00131031
X00422Y00129
Y00141
X00456Y00116
X00477Y00125
Y00136
X00489
Y00124
X00651Y00117
X0066
X0067
X00681Y00117
X00691
X00701
X00700581Y00107419
X00691Y00107
X00681
X0068275Y000305
X00674
X006915
X007
X00698Y00008
X00689
X0068
X00671
X00777Y00111
X00786
X00795
X00793Y00133
X00802
X00812Y00095
X00819Y00102
X00805Y00088
X00803Y00157
X00794
Y00166
X00803
X0080275Y0018625
X007935
X007965Y00206
X0080375Y0021225
X007965Y0023925
X00786
X0077475Y0023875
X007695Y00247
X0078
X00791Y0024725
X00741078Y00246922
X00653Y00214
X00647Y00219
X00641Y00214
X00618
X00612Y00219
X00606Y00214
X00603Y00185
X00593
Y00195
X00583
Y00185
Y00175
X00593
X00603
X0088575Y0023575
Y00245
X00724Y005105
X0071375Y0052325
X00685Y005225
X006575
X006475
X00635
X006225
X00588811Y00513504
X00646263Y00492969
X00262Y00533
Y00542
X00253
Y00533
X00244
Y00542
X00223Y00369
X00215Y00376
X00198Y00314
Y00302
Y0029
X00173Y00287
Y00296
Y00305
Y00314
X00158
Y00296
X00157Y00344
X00178Y00243
X00189
X00296Y00156
Y00147
X0041625Y00154
X00416Y0018
Y0019
Y002
X00419Y0022
X00432Y00216
X00442
X00465Y00237
X00494Y00219
Y00209
Y00199
Y00189
X00493Y00167
X00491Y00147
X00089Y0024
Y00249
Y00286
Y00295
X00099Y00295
Y00286
X00242Y00558
X00242Y00567
Y00576
Y00585
X0027125Y00634
X00302Y00637
Y00646
Y00655
X0031Y00662
X0032
X00365Y00655
X003725
Y00645
X00365
X003675Y00615
X003775
X003875
X003975
Y00605
Y00595
X003875
X003775
X003675
Y00605
X003775
X003875
X0032975Y00609
X00293Y00614
X002625Y0072
X002525
X002425
Y0073
X002325
Y0074
X002425
X002525
Y0073
X002625
Y0074
X0021525Y0073175
X0020525Y007315
X002105Y00723
X002205Y0072325
X004675Y00715
Y007425
X004825
X004975
X005125
X005275
X005425
X005325Y00715
X005
X0049Y007775
X0051
X0053
X0054Y0079
X0052
X005
X0048
X00485Y00915
X004725
X0046
Y009275
X004725
X00485
Y0094
X004725
X0046
X005575Y0079
X00575
X005825Y007775
X00565
X005475
X005575Y007425
X00565Y00715
X006875Y007
X007
X007125
Y006875
X007
Y00675
X007125
X006875
Y006875
X00765Y00651
X00705Y005625
X00695Y0057
X00678136Y00556715
X00665Y00805
X00655
X00645
X006425Y0086
X006525
Y0087
X006425
X006625
Y0086
X00679Y0087
T03
X0070889Y004575
Y004775
X0072889
Y004575
X0074889
X0076889
X0078889
Y004775
X0076889
X0074889
T04
X00153Y0037025
Y0039025
Y0041025
Y0043025
Y0045025
Y005395
X00133Y0044525
Y0042025
Y0040025
Y0037525
Y005445
Y005695
Y005895
Y006145
X00153Y006195
Y005995
Y005795
Y005595
T05
X00279Y002655
X00381
X0033Y004175
T06
X001725Y0006285
Y0008825
Y0011365
Y0013905
X001979Y0012635
Y0010095
Y0007555
Y0015175
Y0017715
X001725Y0016445
Y0077285
Y0079825
Y0082365
Y0084905
Y0087445
X001979Y0086175
Y0083635
Y0081095
Y0078555
Y0088715
T07
X009644Y003099
Y003353
Y003607
Y003861
Y004115
Y004369
Y004623
Y004877
Y005131
Y005385
X00939
Y005131
Y004877
Y004623
Y004369
Y004115
X009136
Y003861
Y003607
Y003353
Y003099
Y002845
X00939
Y003099
Y003353
Y003607
Y003861
X009136Y004369
Y004623
Y004877
Y005131
Y005385
Y005639
X00939
Y005893
Y006147
Y006401
Y006655
X009136
Y006401
Y006147
Y005893
X009644
Y006147
Y006401
Y006655
Y005639
X01072Y00797
Y00907
T08
X0006Y0005375
Y0007915
Y0016085
Y0018625
Y0076375
Y0078915
Y0087085
Y0089625
T09
X001395Y000395
Y002005
Y007495
Y009105
T10
X00972Y00827
Y00877
T11
X00118Y0034455
Y0047595
Y005138
Y006452
T12
X0036Y0006
X0084
Y0039
X0036
T13
X0041Y00915
T14
X0058Y00465
X0087
Y00905
X0058
T15
X0006375Y002406
Y002984
T16
X009644Y002845
T17
X0051Y0051
T18
X0031Y0051
T19
X0067389Y004675
X0082389
T20
X009904Y002337
Y007163
T21
X002464Y00035
X009304Y00055
X002464Y00915
X009304Y00895
T22
X00109Y0006285
Y0017715
Y0077285
Y0088715
M30
