G04*
G04 #@! TF.GenerationSoftware,Altium Limited,Altium Designer,25.3.3 (18)*
G04*
G04 Layer_Color=8388736*
%FSLAX44Y44*%
%MOMM*%
G71*
G04*
G04 #@! TF.SameCoordinates,DC2281EB-3176-4783-8F17-9C8BCD24AA64*
G04*
G04*
G04 #@! TF.FilePolarity,Negative*
G04*
G01*
G75*
%ADD66C,3.0000*%
%ADD67R,1.0160X0.9652*%
%ADD68R,15.5000X10.5000*%
%ADD69R,1.1132X1.0332*%
%ADD70R,0.8132X0.8382*%
%ADD71R,1.0032X1.1532*%
%ADD72R,1.1532X1.0032*%
%ADD73R,0.4032X0.9032*%
%ADD74R,0.8032X1.4032*%
%ADD75R,1.2000X0.3500*%
%ADD76R,1.0000X0.3500*%
%ADD77R,1.4032X0.5032*%
G04:AMPARAMS|DCode=78|XSize=1.504mm|YSize=2.004mm|CornerRadius=0.427mm|HoleSize=0mm|Usage=FLASHONLY|Rotation=0.000|XOffset=0mm|YOffset=0mm|HoleType=Round|Shape=RoundedRectangle|*
%AMROUNDEDRECTD78*
21,1,1.5040,1.1500,0,0,0.0*
21,1,0.6500,2.0040,0,0,0.0*
1,1,0.8540,0.3250,-0.5750*
1,1,0.8540,-0.3250,-0.5750*
1,1,0.8540,-0.3250,0.5750*
1,1,0.8540,0.3250,0.5750*
%
%ADD78ROUNDEDRECTD78*%
G04:AMPARAMS|DCode=79|XSize=0.4032mm|YSize=0.9032mm|CornerRadius=0.1516mm|HoleSize=0mm|Usage=FLASHONLY|Rotation=180.000|XOffset=0mm|YOffset=0mm|HoleType=Round|Shape=RoundedRectangle|*
%AMROUNDEDRECTD79*
21,1,0.4032,0.6000,0,0,180.0*
21,1,0.1000,0.9032,0,0,180.0*
1,1,0.3032,-0.0500,0.3000*
1,1,0.3032,0.0500,0.3000*
1,1,0.3032,0.0500,-0.3000*
1,1,0.3032,-0.0500,-0.3000*
%
%ADD79ROUNDEDRECTD79*%
G04:AMPARAMS|DCode=80|XSize=0.8032mm|YSize=1.6532mm|CornerRadius=0mm|HoleSize=0mm|Usage=FLASHONLY|Rotation=135.000|XOffset=0mm|YOffset=0mm|HoleType=Round|Shape=Rectangle|*
%AMROTATEDRECTD80*
4,1,4,0.8685,0.3005,-0.3005,-0.8685,-0.8685,-0.3005,0.3005,0.8685,0.8685,0.3005,0.0*
%
%ADD80ROTATEDRECTD80*%

%ADD81R,1.2532X1.1032*%
%ADD82R,1.9232X1.2532*%
%ADD83R,1.2032X1.6032*%
%ADD84R,1.4224X2.6924*%
G04:AMPARAMS|DCode=85|XSize=3.5824mm|YSize=1.8024mm|CornerRadius=0.4887mm|HoleSize=0mm|Usage=FLASHONLY|Rotation=180.000|XOffset=0mm|YOffset=0mm|HoleType=Round|Shape=RoundedRectangle|*
%AMROUNDEDRECTD85*
21,1,3.5824,0.8250,0,0,180.0*
21,1,2.6050,1.8024,0,0,180.0*
1,1,0.9774,-1.3025,0.4125*
1,1,0.9774,1.3025,0.4125*
1,1,0.9774,1.3025,-0.4125*
1,1,0.9774,-1.3025,-0.4125*
%
%ADD85ROUNDEDRECTD85*%
%ADD86R,1.5232X0.7932*%
%ADD87R,2.1000X1.8000*%
%ADD88R,1.4800X1.8000*%
%ADD89R,1.8024X3.5824*%
%ADD90R,2.6924X1.4224*%
%ADD91R,1.7032X2.2232*%
%ADD92R,1.4032X0.8032*%
%ADD93R,0.8382X0.8132*%
%ADD94R,2.9094X1.1574*%
%ADD95R,2.2032X4.7032*%
%ADD96R,0.8482X1.1032*%
%ADD97R,1.1032X1.2532*%
%ADD98R,1.4986X2.1082*%
%ADD99R,0.8636X1.7526*%
%ADD100R,1.1574X2.9094*%
%ADD101R,1.6532X0.8032*%
G04:AMPARAMS|DCode=102|XSize=1.1532mm|YSize=1.0032mm|CornerRadius=0mm|HoleSize=0mm|Usage=FLASHONLY|Rotation=135.000|XOffset=0mm|YOffset=0mm|HoleType=Round|Shape=Rectangle|*
%AMROTATEDRECTD102*
4,1,4,0.7624,-0.0530,0.0530,-0.7624,-0.7624,0.0530,-0.0530,0.7624,0.7624,-0.0530,0.0*
%
%ADD102ROTATEDRECTD102*%

%ADD103R,0.7032X0.9032*%
%ADD104R,1.4032X2.9532*%
G04:AMPARAMS|DCode=105|XSize=1.4032mm|YSize=2.9532mm|CornerRadius=0.4016mm|HoleSize=0mm|Usage=FLASHONLY|Rotation=180.000|XOffset=0mm|YOffset=0mm|HoleType=Round|Shape=RoundedRectangle|*
%AMROUNDEDRECTD105*
21,1,1.4032,2.1500,0,0,180.0*
21,1,0.6000,2.9532,0,0,180.0*
1,1,0.8032,-0.3000,1.0750*
1,1,0.8032,0.3000,1.0750*
1,1,0.8032,0.3000,-1.0750*
1,1,0.8032,-0.3000,-1.0750*
%
%ADD105ROUNDEDRECTD105*%
%ADD106R,0.5032X1.7532*%
%ADD107R,0.5032X1.4532*%
%ADD108R,0.7932X1.5232*%
%ADD109R,0.9040X1.4040*%
%ADD110R,1.2040X1.4040*%
%ADD111R,1.2040X1.0040*%
%ADD112R,1.2040X2.9040*%
%ADD113R,3.5824X1.8024*%
%ADD114C,1.7332*%
%ADD115C,1.7432*%
%ADD116C,2.6482*%
%ADD117C,3.4500*%
%ADD118C,1.8532*%
%ADD119C,1.4112*%
%ADD120O,1.2332X1.2032*%
%ADD121C,1.1532*%
%ADD122C,1.2332*%
%ADD123C,6.0032*%
%ADD124C,0.2032*%
%ADD125C,1.3032*%
%ADD126R,1.3032X1.3032*%
%ADD127C,3.4000*%
%ADD128C,1.6412*%
%ADD129C,6.2032*%
%ADD130C,3.0000*%
%ADD131R,1.8532X1.8532*%
%ADD132C,1.7032*%
%ADD133C,2.7532*%
%ADD134C,1.7112*%
%ADD135R,1.4112X1.4112*%
%ADD136C,3.5192*%
%ADD137C,1.3500*%
%ADD138C,1.8500*%
G36*
X500808Y384820D02*
X500939Y384794D01*
X501065Y384751D01*
X501184Y384692D01*
X501295Y384618D01*
X501395Y384530D01*
X501483Y384430D01*
X501557Y384319D01*
X501616Y384200D01*
X501659Y384074D01*
X501685Y383943D01*
X501693Y383810D01*
Y376190D01*
X501685Y376057D01*
X501659Y375927D01*
X501616Y375801D01*
X501557Y375681D01*
X501483Y375570D01*
X501395Y375470D01*
X501295Y375382D01*
X501184Y375308D01*
X501065Y375250D01*
X500939Y375207D01*
X500808Y375181D01*
X500675Y375172D01*
X495341D01*
X495284Y375176D01*
X495225Y375179D01*
X495217Y375180D01*
X495208Y375181D01*
X495152Y375192D01*
X495094Y375202D01*
X495086Y375205D01*
X495078Y375207D01*
X495023Y375225D01*
X494967Y375243D01*
X494960Y375247D01*
X494952Y375250D01*
X494900Y375275D01*
X494847Y375300D01*
X494840Y375305D01*
X494832Y375308D01*
X494785Y375340D01*
X494735Y375372D01*
X494728Y375378D01*
X494721Y375382D01*
X494678Y375420D01*
X494633Y375458D01*
X494628Y375465D01*
X494621Y375470D01*
X494583Y375514D01*
X494544Y375557D01*
X494539Y375564D01*
X494533Y375570D01*
X494501Y375619D01*
X494468Y375666D01*
X494452Y375694D01*
X494449Y375689D01*
X494445Y375681D01*
X494413Y375633D01*
X494381Y375584D01*
X494376Y375578D01*
X494371Y375570D01*
X494333Y375527D01*
X494295Y375482D01*
X494289Y375477D01*
X494283Y375470D01*
X494239Y375432D01*
X494197Y375393D01*
X494189Y375388D01*
X494183Y375382D01*
X494134Y375350D01*
X494087Y375317D01*
X494079Y375313D01*
X494072Y375308D01*
X494020Y375283D01*
X493969Y375256D01*
X493961Y375253D01*
X493953Y375250D01*
X493897Y375231D01*
X493843Y375211D01*
X493835Y375210D01*
X493827Y375207D01*
X493770Y375196D01*
X493713Y375183D01*
X493704Y375182D01*
X493696Y375181D01*
X493638Y375177D01*
X493580Y375172D01*
X493572Y375173D01*
X493563Y375172D01*
X486451D01*
X486318Y375181D01*
X486188Y375207D01*
X486062Y375250D01*
X485942Y375308D01*
X485831Y375382D01*
X485731Y375470D01*
X485643Y375570D01*
X485569Y375681D01*
X485510Y375801D01*
X485468Y375927D01*
X485442Y376057D01*
X485433Y376190D01*
Y383810D01*
X485442Y383943D01*
X485468Y384074D01*
X485510Y384200D01*
X485569Y384319D01*
X485643Y384430D01*
X485731Y384530D01*
X485831Y384618D01*
X485942Y384692D01*
X486062Y384751D01*
X486188Y384794D01*
X486318Y384820D01*
X486451Y384828D01*
X493563D01*
X493572Y384828D01*
X493580Y384828D01*
X493638Y384823D01*
X493696Y384820D01*
X493704Y384818D01*
X493713Y384817D01*
X493770Y384805D01*
X493827Y384794D01*
X493835Y384791D01*
X493843Y384789D01*
X493898Y384770D01*
X493953Y384751D01*
X493960Y384747D01*
X493969Y384744D01*
X494021Y384717D01*
X494072Y384692D01*
X494079Y384687D01*
X494087Y384683D01*
X494136Y384650D01*
X494183Y384618D01*
X494189Y384612D01*
X494197Y384608D01*
X494240Y384568D01*
X494283Y384530D01*
X494289Y384524D01*
X494295Y384518D01*
X494333Y384473D01*
X494371Y384430D01*
X494376Y384423D01*
X494381Y384416D01*
X494413Y384366D01*
X494445Y384319D01*
X494449Y384312D01*
X494452Y384307D01*
X494468Y384334D01*
X494501Y384382D01*
X494533Y384430D01*
X494539Y384437D01*
X494544Y384444D01*
X494583Y384486D01*
X494621Y384530D01*
X494628Y384536D01*
X494633Y384542D01*
X494678Y384580D01*
X494721Y384618D01*
X494728Y384623D01*
X494735Y384628D01*
X494784Y384660D01*
X494832Y384692D01*
X494840Y384696D01*
X494847Y384700D01*
X494899Y384725D01*
X494952Y384751D01*
X494960Y384754D01*
X494967Y384757D01*
X495022Y384775D01*
X495078Y384794D01*
X495086Y384795D01*
X495094Y384798D01*
X495151Y384808D01*
X495208Y384820D01*
X495217Y384820D01*
X495225Y384822D01*
X495283Y384825D01*
X495341Y384828D01*
X500675D01*
X500808Y384820D01*
D02*
G37*
G36*
X524308Y373069D02*
X524439Y373044D01*
X524565Y373001D01*
X524684Y372942D01*
X524795Y372868D01*
X524895Y372780D01*
X524983Y372680D01*
X525057Y372569D01*
X525116Y372450D01*
X525159Y372323D01*
X525185Y372193D01*
X525193Y372060D01*
Y364440D01*
X525185Y364307D01*
X525159Y364176D01*
X525116Y364050D01*
X525057Y363931D01*
X524983Y363820D01*
X524895Y363720D01*
X524795Y363632D01*
X524684Y363558D01*
X524565Y363499D01*
X524439Y363456D01*
X524308Y363430D01*
X524175Y363422D01*
X517063D01*
X517054Y363422D01*
X517046Y363422D01*
X516988Y363427D01*
X516930Y363430D01*
X516922Y363432D01*
X516913Y363433D01*
X516856Y363445D01*
X516800Y363456D01*
X516791Y363459D01*
X516783Y363461D01*
X516728Y363481D01*
X516673Y363499D01*
X516666Y363503D01*
X516658Y363506D01*
X516605Y363533D01*
X516554Y363558D01*
X516547Y363563D01*
X516539Y363567D01*
X516491Y363601D01*
X516443Y363632D01*
X516437Y363638D01*
X516430Y363643D01*
X516386Y363682D01*
X516343Y363720D01*
X516338Y363726D01*
X516331Y363732D01*
X516293Y363778D01*
X516255Y363820D01*
X516251Y363827D01*
X516245Y363834D01*
X516213Y363884D01*
X516181Y363931D01*
X516177Y363938D01*
X516174Y363943D01*
X516158Y363916D01*
X516125Y363869D01*
X516093Y363820D01*
X516087Y363814D01*
X516082Y363807D01*
X516043Y363764D01*
X516005Y363720D01*
X515998Y363714D01*
X515993Y363708D01*
X515948Y363670D01*
X515905Y363632D01*
X515898Y363628D01*
X515891Y363622D01*
X515842Y363591D01*
X515794Y363558D01*
X515786Y363554D01*
X515779Y363550D01*
X515727Y363525D01*
X515675Y363499D01*
X515666Y363497D01*
X515659Y363493D01*
X515604Y363475D01*
X515549Y363456D01*
X515540Y363455D01*
X515532Y363452D01*
X515475Y363442D01*
X515418Y363430D01*
X515409Y363430D01*
X515401Y363428D01*
X515344Y363426D01*
X515285Y363422D01*
X509951D01*
X509818Y363430D01*
X509688Y363456D01*
X509561Y363499D01*
X509442Y363558D01*
X509331Y363632D01*
X509231Y363720D01*
X509143Y363820D01*
X509069Y363931D01*
X509010Y364050D01*
X508968Y364176D01*
X508941Y364307D01*
X508933Y364440D01*
Y372060D01*
X508941Y372193D01*
X508968Y372323D01*
X509010Y372450D01*
X509069Y372569D01*
X509143Y372680D01*
X509231Y372780D01*
X509331Y372868D01*
X509442Y372942D01*
X509561Y373001D01*
X509688Y373044D01*
X509818Y373069D01*
X509951Y373078D01*
X515285D01*
X515343Y373074D01*
X515401Y373072D01*
X515410Y373070D01*
X515418Y373069D01*
X515475Y373058D01*
X515532Y373048D01*
X515540Y373045D01*
X515549Y373044D01*
X515603Y373025D01*
X515659Y373007D01*
X515667Y373003D01*
X515675Y373001D01*
X515726Y372975D01*
X515779Y372950D01*
X515787Y372946D01*
X515794Y372942D01*
X515841Y372910D01*
X515891Y372878D01*
X515898Y372872D01*
X515905Y372868D01*
X515948Y372830D01*
X515993Y372792D01*
X515998Y372786D01*
X516005Y372780D01*
X516043Y372736D01*
X516082Y372693D01*
X516087Y372686D01*
X516093Y372680D01*
X516125Y372631D01*
X516158Y372584D01*
X516174Y372557D01*
X516177Y372561D01*
X516181Y372569D01*
X516213Y372617D01*
X516245Y372666D01*
X516250Y372673D01*
X516255Y372680D01*
X516293Y372723D01*
X516331Y372768D01*
X516337Y372774D01*
X516343Y372780D01*
X516387Y372818D01*
X516430Y372857D01*
X516437Y372862D01*
X516443Y372868D01*
X516492Y372900D01*
X516539Y372933D01*
X516547Y372937D01*
X516554Y372942D01*
X516606Y372968D01*
X516658Y372994D01*
X516666Y372997D01*
X516673Y373001D01*
X516729Y373019D01*
X516783Y373039D01*
X516791Y373041D01*
X516800Y373044D01*
X516856Y373055D01*
X516913Y373067D01*
X516922Y373068D01*
X516930Y373069D01*
X516988Y373073D01*
X517046Y373078D01*
X517054Y373078D01*
X517063Y373078D01*
X524175D01*
X524308Y373069D01*
D02*
G37*
G36*
X559182Y372319D02*
X559313Y372294D01*
X559439Y372251D01*
X559558Y372192D01*
X559669Y372118D01*
X559769Y372030D01*
X559857Y371930D01*
X559931Y371819D01*
X559990Y371700D01*
X560033Y371573D01*
X560059Y371443D01*
X560067Y371310D01*
Y363690D01*
X560059Y363557D01*
X560033Y363427D01*
X559990Y363300D01*
X559931Y363181D01*
X559857Y363070D01*
X559769Y362970D01*
X559669Y362882D01*
X559558Y362808D01*
X559439Y362749D01*
X559313Y362706D01*
X559182Y362681D01*
X559049Y362672D01*
X553715D01*
X553657Y362676D01*
X553599Y362678D01*
X553591Y362680D01*
X553582Y362681D01*
X553526Y362692D01*
X553468Y362702D01*
X553460Y362705D01*
X553451Y362706D01*
X553397Y362725D01*
X553341Y362743D01*
X553333Y362747D01*
X553325Y362749D01*
X553274Y362775D01*
X553221Y362800D01*
X553214Y362804D01*
X553206Y362808D01*
X553159Y362840D01*
X553109Y362872D01*
X553102Y362878D01*
X553095Y362882D01*
X553052Y362920D01*
X553007Y362958D01*
X553002Y362964D01*
X552995Y362970D01*
X552957Y363014D01*
X552918Y363057D01*
X552913Y363064D01*
X552907Y363070D01*
X552875Y363119D01*
X552842Y363166D01*
X552826Y363193D01*
X552823Y363189D01*
X552819Y363181D01*
X552786Y363133D01*
X552755Y363084D01*
X552749Y363077D01*
X552745Y363070D01*
X552707Y363027D01*
X552669Y362982D01*
X552663Y362976D01*
X552657Y362970D01*
X552613Y362932D01*
X552570Y362893D01*
X552563Y362888D01*
X552557Y362882D01*
X552508Y362850D01*
X552461Y362817D01*
X552453Y362813D01*
X552446Y362808D01*
X552394Y362782D01*
X552342Y362756D01*
X552334Y362753D01*
X552327Y362749D01*
X552271Y362730D01*
X552217Y362711D01*
X552209Y362709D01*
X552201Y362706D01*
X552144Y362695D01*
X552087Y362683D01*
X552078Y362682D01*
X552070Y362681D01*
X552012Y362677D01*
X551954Y362672D01*
X551946Y362672D01*
X551937Y362672D01*
X544825D01*
X544692Y362681D01*
X544562Y362706D01*
X544435Y362749D01*
X544316Y362808D01*
X544205Y362882D01*
X544105Y362970D01*
X544017Y363070D01*
X543943Y363181D01*
X543884Y363300D01*
X543842Y363427D01*
X543815Y363557D01*
X543807Y363690D01*
Y371310D01*
X543815Y371443D01*
X543842Y371573D01*
X543884Y371700D01*
X543943Y371819D01*
X544017Y371930D01*
X544105Y372030D01*
X544205Y372118D01*
X544316Y372192D01*
X544435Y372251D01*
X544562Y372294D01*
X544692Y372319D01*
X544825Y372328D01*
X551937D01*
X551946Y372328D01*
X551954Y372328D01*
X552012Y372323D01*
X552070Y372319D01*
X552078Y372318D01*
X552087Y372317D01*
X552144Y372305D01*
X552201Y372294D01*
X552209Y372291D01*
X552217Y372289D01*
X552272Y372269D01*
X552327Y372251D01*
X552334Y372247D01*
X552342Y372244D01*
X552395Y372217D01*
X552446Y372192D01*
X552453Y372187D01*
X552461Y372183D01*
X552509Y372150D01*
X552557Y372118D01*
X552563Y372112D01*
X552570Y372107D01*
X552614Y372068D01*
X552657Y372030D01*
X552663Y372024D01*
X552669Y372018D01*
X552707Y371973D01*
X552745Y371930D01*
X552749Y371923D01*
X552755Y371916D01*
X552787Y371866D01*
X552819Y371819D01*
X552822Y371811D01*
X552826Y371807D01*
X552842Y371834D01*
X552875Y371881D01*
X552907Y371930D01*
X552913Y371936D01*
X552918Y371943D01*
X552957Y371986D01*
X552995Y372030D01*
X553002Y372036D01*
X553007Y372042D01*
X553052Y372080D01*
X553095Y372118D01*
X553102Y372122D01*
X553109Y372128D01*
X553158Y372160D01*
X553206Y372192D01*
X553214Y372196D01*
X553221Y372200D01*
X553273Y372225D01*
X553325Y372251D01*
X553334Y372253D01*
X553341Y372257D01*
X553396Y372275D01*
X553451Y372294D01*
X553460Y372295D01*
X553468Y372298D01*
X553525Y372308D01*
X553582Y372319D01*
X553591Y372320D01*
X553599Y372322D01*
X553657Y372324D01*
X553715Y372328D01*
X559049D01*
X559182Y372319D01*
D02*
G37*
G36*
X524308Y361570D02*
X524439Y361544D01*
X524565Y361501D01*
X524684Y361442D01*
X524795Y361368D01*
X524895Y361280D01*
X524983Y361180D01*
X525057Y361069D01*
X525116Y360950D01*
X525159Y360824D01*
X525185Y360693D01*
X525193Y360560D01*
Y352940D01*
X525185Y352807D01*
X525159Y352677D01*
X525116Y352550D01*
X525057Y352431D01*
X524983Y352320D01*
X524895Y352220D01*
X524795Y352132D01*
X524684Y352058D01*
X524565Y351999D01*
X524439Y351956D01*
X524308Y351931D01*
X524175Y351922D01*
X517063D01*
X517054Y351922D01*
X517046Y351922D01*
X516988Y351927D01*
X516930Y351931D01*
X516922Y351932D01*
X516913Y351933D01*
X516856Y351945D01*
X516800Y351956D01*
X516791Y351959D01*
X516783Y351961D01*
X516728Y351981D01*
X516673Y351999D01*
X516666Y352003D01*
X516658Y352006D01*
X516605Y352033D01*
X516554Y352058D01*
X516547Y352063D01*
X516539Y352067D01*
X516491Y352100D01*
X516443Y352132D01*
X516437Y352138D01*
X516430Y352143D01*
X516386Y352182D01*
X516343Y352220D01*
X516338Y352226D01*
X516331Y352232D01*
X516293Y352277D01*
X516255Y352320D01*
X516251Y352327D01*
X516245Y352334D01*
X516213Y352384D01*
X516181Y352431D01*
X516177Y352439D01*
X516174Y352443D01*
X516158Y352416D01*
X516125Y352369D01*
X516093Y352320D01*
X516087Y352314D01*
X516082Y352307D01*
X516043Y352264D01*
X516005Y352220D01*
X515998Y352214D01*
X515993Y352208D01*
X515948Y352170D01*
X515905Y352132D01*
X515898Y352127D01*
X515891Y352122D01*
X515842Y352090D01*
X515794Y352058D01*
X515786Y352054D01*
X515779Y352050D01*
X515727Y352025D01*
X515675Y351999D01*
X515666Y351996D01*
X515659Y351993D01*
X515604Y351975D01*
X515549Y351956D01*
X515540Y351955D01*
X515532Y351952D01*
X515475Y351942D01*
X515418Y351931D01*
X515409Y351930D01*
X515401Y351928D01*
X515344Y351926D01*
X515285Y351922D01*
X509951D01*
X509818Y351931D01*
X509688Y351956D01*
X509561Y351999D01*
X509442Y352058D01*
X509331Y352132D01*
X509231Y352220D01*
X509143Y352320D01*
X509069Y352431D01*
X509010Y352550D01*
X508968Y352677D01*
X508941Y352807D01*
X508933Y352940D01*
Y360560D01*
X508941Y360693D01*
X508968Y360824D01*
X509010Y360950D01*
X509069Y361069D01*
X509143Y361180D01*
X509231Y361280D01*
X509331Y361368D01*
X509442Y361442D01*
X509561Y361501D01*
X509688Y361544D01*
X509818Y361570D01*
X509951Y361578D01*
X515285D01*
X515343Y361574D01*
X515401Y361572D01*
X515410Y361570D01*
X515418Y361570D01*
X515475Y361558D01*
X515532Y361548D01*
X515540Y361545D01*
X515549Y361544D01*
X515603Y361525D01*
X515659Y361507D01*
X515667Y361503D01*
X515675Y361501D01*
X515726Y361475D01*
X515779Y361450D01*
X515787Y361446D01*
X515794Y361442D01*
X515841Y361410D01*
X515891Y361378D01*
X515898Y361372D01*
X515905Y361368D01*
X515948Y361330D01*
X515993Y361292D01*
X515998Y361286D01*
X516005Y361280D01*
X516043Y361236D01*
X516082Y361193D01*
X516087Y361186D01*
X516093Y361180D01*
X516125Y361131D01*
X516158Y361084D01*
X516174Y361057D01*
X516177Y361061D01*
X516181Y361069D01*
X516213Y361117D01*
X516245Y361166D01*
X516250Y361173D01*
X516255Y361180D01*
X516293Y361223D01*
X516331Y361268D01*
X516337Y361273D01*
X516343Y361280D01*
X516387Y361319D01*
X516430Y361357D01*
X516437Y361362D01*
X516443Y361368D01*
X516492Y361400D01*
X516539Y361433D01*
X516547Y361437D01*
X516554Y361442D01*
X516606Y361468D01*
X516658Y361494D01*
X516666Y361497D01*
X516673Y361501D01*
X516729Y361520D01*
X516783Y361539D01*
X516791Y361541D01*
X516800Y361544D01*
X516856Y361555D01*
X516913Y361567D01*
X516922Y361568D01*
X516930Y361570D01*
X516988Y361573D01*
X517046Y361578D01*
X517054Y361578D01*
X517063Y361578D01*
X524175D01*
X524308Y361570D01*
D02*
G37*
G36*
X559182Y360569D02*
X559313Y360544D01*
X559439Y360501D01*
X559558Y360442D01*
X559669Y360368D01*
X559769Y360280D01*
X559857Y360180D01*
X559931Y360069D01*
X559990Y359950D01*
X560033Y359823D01*
X560059Y359693D01*
X560067Y359560D01*
Y351940D01*
X560059Y351807D01*
X560033Y351676D01*
X559990Y351550D01*
X559931Y351431D01*
X559857Y351320D01*
X559769Y351220D01*
X559669Y351132D01*
X559558Y351058D01*
X559439Y350999D01*
X559313Y350956D01*
X559182Y350930D01*
X559049Y350922D01*
X553715D01*
X553657Y350926D01*
X553599Y350928D01*
X553591Y350930D01*
X553582Y350930D01*
X553526Y350942D01*
X553468Y350952D01*
X553460Y350955D01*
X553451Y350956D01*
X553397Y350975D01*
X553341Y350993D01*
X553333Y350997D01*
X553325Y350999D01*
X553274Y351025D01*
X553221Y351050D01*
X553214Y351054D01*
X553206Y351058D01*
X553159Y351090D01*
X553109Y351122D01*
X553102Y351128D01*
X553095Y351132D01*
X553052Y351170D01*
X553007Y351208D01*
X553002Y351214D01*
X552995Y351220D01*
X552957Y351264D01*
X552918Y351307D01*
X552913Y351314D01*
X552907Y351320D01*
X552875Y351369D01*
X552842Y351416D01*
X552826Y351443D01*
X552823Y351439D01*
X552819Y351431D01*
X552786Y351383D01*
X552755Y351334D01*
X552749Y351327D01*
X552745Y351320D01*
X552707Y351277D01*
X552669Y351232D01*
X552663Y351227D01*
X552657Y351220D01*
X552613Y351182D01*
X552570Y351143D01*
X552563Y351138D01*
X552557Y351132D01*
X552508Y351100D01*
X552461Y351067D01*
X552453Y351063D01*
X552446Y351058D01*
X552394Y351032D01*
X552342Y351006D01*
X552334Y351003D01*
X552327Y350999D01*
X552271Y350980D01*
X552217Y350961D01*
X552209Y350959D01*
X552201Y350956D01*
X552144Y350945D01*
X552087Y350933D01*
X552078Y350932D01*
X552070Y350930D01*
X552012Y350927D01*
X551954Y350922D01*
X551946Y350922D01*
X551937Y350922D01*
X544825D01*
X544692Y350930D01*
X544562Y350956D01*
X544435Y350999D01*
X544316Y351058D01*
X544205Y351132D01*
X544105Y351220D01*
X544017Y351320D01*
X543943Y351431D01*
X543884Y351550D01*
X543842Y351676D01*
X543815Y351807D01*
X543807Y351940D01*
Y359560D01*
X543815Y359693D01*
X543842Y359823D01*
X543884Y359950D01*
X543943Y360069D01*
X544017Y360180D01*
X544105Y360280D01*
X544205Y360368D01*
X544316Y360442D01*
X544435Y360501D01*
X544562Y360544D01*
X544692Y360569D01*
X544825Y360578D01*
X551937D01*
X551946Y360578D01*
X551954Y360578D01*
X552012Y360573D01*
X552070Y360569D01*
X552078Y360568D01*
X552087Y360567D01*
X552144Y360555D01*
X552201Y360544D01*
X552209Y360541D01*
X552217Y360539D01*
X552272Y360519D01*
X552327Y360501D01*
X552334Y360497D01*
X552342Y360494D01*
X552395Y360467D01*
X552446Y360442D01*
X552453Y360437D01*
X552461Y360433D01*
X552509Y360400D01*
X552557Y360368D01*
X552563Y360362D01*
X552570Y360357D01*
X552614Y360318D01*
X552657Y360280D01*
X552663Y360274D01*
X552669Y360268D01*
X552707Y360223D01*
X552745Y360180D01*
X552749Y360173D01*
X552755Y360166D01*
X552787Y360116D01*
X552819Y360069D01*
X552822Y360061D01*
X552826Y360057D01*
X552842Y360084D01*
X552875Y360131D01*
X552907Y360180D01*
X552913Y360186D01*
X552918Y360193D01*
X552957Y360236D01*
X552995Y360280D01*
X553002Y360286D01*
X553007Y360292D01*
X553052Y360330D01*
X553095Y360368D01*
X553102Y360373D01*
X553109Y360378D01*
X553158Y360410D01*
X553206Y360442D01*
X553214Y360446D01*
X553221Y360450D01*
X553273Y360475D01*
X553325Y360501D01*
X553334Y360504D01*
X553341Y360507D01*
X553396Y360525D01*
X553451Y360544D01*
X553460Y360545D01*
X553468Y360548D01*
X553525Y360558D01*
X553582Y360569D01*
X553591Y360570D01*
X553599Y360572D01*
X553657Y360574D01*
X553715Y360578D01*
X559049D01*
X559182Y360569D01*
D02*
G37*
G36*
X573682Y87320D02*
X573812Y87294D01*
X573938Y87251D01*
X574058Y87192D01*
X574169Y87118D01*
X574269Y87030D01*
X574356Y86930D01*
X574431Y86819D01*
X574490Y86700D01*
X574532Y86574D01*
X574558Y86443D01*
X574567Y86310D01*
Y78690D01*
X574558Y78557D01*
X574532Y78427D01*
X574490Y78301D01*
X574431Y78181D01*
X574356Y78070D01*
X574269Y77970D01*
X574169Y77882D01*
X574058Y77808D01*
X573938Y77750D01*
X573812Y77707D01*
X573682Y77681D01*
X573549Y77672D01*
X566437D01*
X566428Y77673D01*
X566420Y77672D01*
X566362Y77677D01*
X566304Y77681D01*
X566296Y77682D01*
X566287Y77683D01*
X566229Y77696D01*
X566173Y77707D01*
X566165Y77709D01*
X566157Y77711D01*
X566102Y77731D01*
X566047Y77750D01*
X566040Y77753D01*
X566031Y77756D01*
X565979Y77783D01*
X565928Y77808D01*
X565921Y77813D01*
X565913Y77817D01*
X565864Y77851D01*
X565817Y77882D01*
X565811Y77888D01*
X565803Y77893D01*
X565760Y77933D01*
X565717Y77970D01*
X565711Y77977D01*
X565705Y77982D01*
X565666Y78028D01*
X565629Y78070D01*
X565624Y78077D01*
X565619Y78084D01*
X565587Y78134D01*
X565555Y78181D01*
X565551Y78189D01*
X565548Y78193D01*
X565532Y78166D01*
X565499Y78119D01*
X565466Y78070D01*
X565461Y78064D01*
X565456Y78057D01*
X565417Y78014D01*
X565379Y77970D01*
X565372Y77965D01*
X565367Y77958D01*
X565322Y77921D01*
X565279Y77882D01*
X565271Y77878D01*
X565265Y77872D01*
X565216Y77841D01*
X565168Y77808D01*
X565160Y77805D01*
X565153Y77800D01*
X565101Y77776D01*
X565048Y77750D01*
X565040Y77747D01*
X565033Y77743D01*
X564978Y77726D01*
X564922Y77707D01*
X564914Y77705D01*
X564906Y77702D01*
X564849Y77692D01*
X564792Y77681D01*
X564783Y77680D01*
X564775Y77679D01*
X564717Y77676D01*
X564659Y77672D01*
X559325D01*
X559192Y77681D01*
X559061Y77707D01*
X558935Y77750D01*
X558816Y77808D01*
X558705Y77882D01*
X558605Y77970D01*
X558517Y78070D01*
X558443Y78181D01*
X558384Y78301D01*
X558341Y78427D01*
X558315Y78557D01*
X558307Y78690D01*
Y86310D01*
X558315Y86443D01*
X558341Y86574D01*
X558384Y86700D01*
X558443Y86819D01*
X558517Y86930D01*
X558605Y87030D01*
X558705Y87118D01*
X558816Y87192D01*
X558935Y87251D01*
X559061Y87294D01*
X559192Y87320D01*
X559325Y87328D01*
X564659D01*
X564716Y87325D01*
X564775Y87322D01*
X564783Y87320D01*
X564792Y87320D01*
X564848Y87308D01*
X564906Y87298D01*
X564914Y87295D01*
X564922Y87294D01*
X564977Y87275D01*
X565033Y87257D01*
X565040Y87254D01*
X565048Y87251D01*
X565100Y87226D01*
X565153Y87200D01*
X565160Y87196D01*
X565168Y87192D01*
X565215Y87161D01*
X565265Y87128D01*
X565272Y87123D01*
X565279Y87118D01*
X565322Y87080D01*
X565367Y87042D01*
X565372Y87036D01*
X565379Y87030D01*
X565417Y86986D01*
X565456Y86944D01*
X565461Y86937D01*
X565466Y86930D01*
X565499Y86882D01*
X565532Y86834D01*
X565548Y86807D01*
X565551Y86812D01*
X565555Y86819D01*
X565587Y86868D01*
X565619Y86916D01*
X565624Y86923D01*
X565629Y86930D01*
X565667Y86973D01*
X565705Y87018D01*
X565711Y87024D01*
X565717Y87030D01*
X565761Y87069D01*
X565803Y87107D01*
X565810Y87112D01*
X565817Y87118D01*
X565865Y87150D01*
X565913Y87183D01*
X565920Y87187D01*
X565928Y87192D01*
X565980Y87218D01*
X566031Y87244D01*
X566039Y87247D01*
X566047Y87251D01*
X566102Y87270D01*
X566157Y87289D01*
X566165Y87291D01*
X566173Y87294D01*
X566230Y87305D01*
X566287Y87317D01*
X566296Y87318D01*
X566304Y87320D01*
X566362Y87324D01*
X566420Y87328D01*
X566428Y87328D01*
X566437Y87328D01*
X573549D01*
X573682Y87320D01*
D02*
G37*
G36*
X723308Y29820D02*
X723439Y29794D01*
X723565Y29751D01*
X723684Y29692D01*
X723795Y29618D01*
X723895Y29530D01*
X723983Y29430D01*
X724057Y29319D01*
X724116Y29200D01*
X724159Y29074D01*
X724185Y28943D01*
X724193Y28810D01*
Y21190D01*
X724185Y21057D01*
X724159Y20927D01*
X724116Y20801D01*
X724057Y20681D01*
X723983Y20570D01*
X723895Y20470D01*
X723795Y20382D01*
X723684Y20308D01*
X723565Y20250D01*
X723439Y20207D01*
X723308Y20181D01*
X723175Y20172D01*
X716063D01*
X716055Y20173D01*
X716046Y20172D01*
X715988Y20177D01*
X715930Y20181D01*
X715922Y20182D01*
X715913Y20183D01*
X715856Y20196D01*
X715800Y20207D01*
X715791Y20210D01*
X715783Y20211D01*
X715728Y20231D01*
X715673Y20250D01*
X715666Y20253D01*
X715658Y20256D01*
X715605Y20283D01*
X715554Y20308D01*
X715547Y20313D01*
X715539Y20317D01*
X715491Y20351D01*
X715443Y20382D01*
X715437Y20388D01*
X715430Y20393D01*
X715386Y20433D01*
X715343Y20470D01*
X715338Y20477D01*
X715331Y20482D01*
X715293Y20528D01*
X715255Y20570D01*
X715251Y20577D01*
X715245Y20584D01*
X715213Y20634D01*
X715181Y20681D01*
X715178Y20689D01*
X715174Y20694D01*
X715158Y20666D01*
X715125Y20619D01*
X715093Y20570D01*
X715087Y20564D01*
X715082Y20557D01*
X715043Y20514D01*
X715005Y20470D01*
X714999Y20465D01*
X714993Y20458D01*
X714948Y20421D01*
X714905Y20382D01*
X714898Y20378D01*
X714891Y20372D01*
X714842Y20341D01*
X714794Y20308D01*
X714786Y20305D01*
X714779Y20300D01*
X714727Y20275D01*
X714675Y20250D01*
X714667Y20247D01*
X714659Y20243D01*
X714604Y20226D01*
X714549Y20207D01*
X714540Y20205D01*
X714532Y20202D01*
X714475Y20192D01*
X714418Y20181D01*
X714409Y20180D01*
X714401Y20179D01*
X714344Y20176D01*
X714285Y20172D01*
X708951D01*
X708818Y20181D01*
X708688Y20207D01*
X708561Y20250D01*
X708442Y20308D01*
X708331Y20382D01*
X708231Y20470D01*
X708143Y20570D01*
X708069Y20681D01*
X708010Y20801D01*
X707968Y20927D01*
X707942Y21057D01*
X707933Y21190D01*
Y28810D01*
X707942Y28943D01*
X707968Y29074D01*
X708010Y29200D01*
X708069Y29319D01*
X708143Y29430D01*
X708231Y29530D01*
X708331Y29618D01*
X708442Y29692D01*
X708561Y29751D01*
X708688Y29794D01*
X708818Y29820D01*
X708951Y29828D01*
X714285D01*
X714343Y29825D01*
X714401Y29822D01*
X714409Y29820D01*
X714418Y29820D01*
X714475Y29808D01*
X714532Y29798D01*
X714540Y29795D01*
X714549Y29794D01*
X714603Y29775D01*
X714659Y29757D01*
X714667Y29754D01*
X714675Y29751D01*
X714726Y29725D01*
X714779Y29700D01*
X714787Y29696D01*
X714794Y29692D01*
X714841Y29660D01*
X714891Y29628D01*
X714898Y29623D01*
X714905Y29618D01*
X714948Y29580D01*
X714993Y29542D01*
X714999Y29536D01*
X715005Y29530D01*
X715043Y29486D01*
X715082Y29444D01*
X715087Y29437D01*
X715093Y29430D01*
X715125Y29382D01*
X715158Y29334D01*
X715174Y29307D01*
X715178Y29311D01*
X715181Y29319D01*
X715214Y29367D01*
X715245Y29416D01*
X715251Y29423D01*
X715255Y29430D01*
X715293Y29474D01*
X715331Y29518D01*
X715338Y29524D01*
X715343Y29530D01*
X715387Y29569D01*
X715430Y29607D01*
X715437Y29612D01*
X715443Y29618D01*
X715492Y29650D01*
X715539Y29683D01*
X715547Y29687D01*
X715554Y29692D01*
X715606Y29718D01*
X715658Y29744D01*
X715666Y29747D01*
X715673Y29751D01*
X715729Y29770D01*
X715783Y29789D01*
X715791Y29791D01*
X715800Y29794D01*
X715856Y29805D01*
X715913Y29817D01*
X715922Y29818D01*
X715930Y29820D01*
X715988Y29824D01*
X716046Y29828D01*
X716054Y29828D01*
X716063Y29828D01*
X723175D01*
X723308Y29820D01*
D02*
G37*
G36*
X743682D02*
X743812Y29794D01*
X743939Y29751D01*
X744058Y29692D01*
X744169Y29618D01*
X744269Y29530D01*
X744357Y29430D01*
X744431Y29319D01*
X744490Y29200D01*
X744532Y29074D01*
X744558Y28943D01*
X744567Y28810D01*
Y21190D01*
X744558Y21057D01*
X744532Y20927D01*
X744490Y20801D01*
X744431Y20681D01*
X744357Y20570D01*
X744269Y20470D01*
X744169Y20382D01*
X744058Y20308D01*
X743939Y20250D01*
X743812Y20207D01*
X743682Y20181D01*
X743549Y20172D01*
X738215D01*
X738157Y20176D01*
X738099Y20179D01*
X738091Y20180D01*
X738082Y20181D01*
X738025Y20192D01*
X737968Y20202D01*
X737960Y20205D01*
X737951Y20207D01*
X737897Y20225D01*
X737841Y20243D01*
X737833Y20247D01*
X737825Y20250D01*
X737774Y20275D01*
X737721Y20300D01*
X737713Y20305D01*
X737706Y20308D01*
X737659Y20340D01*
X737609Y20372D01*
X737602Y20378D01*
X737595Y20382D01*
X737552Y20420D01*
X737507Y20458D01*
X737501Y20465D01*
X737495Y20470D01*
X737457Y20514D01*
X737418Y20557D01*
X737413Y20564D01*
X737407Y20570D01*
X737375Y20619D01*
X737342Y20666D01*
X737326Y20694D01*
X737322Y20689D01*
X737319Y20681D01*
X737287Y20633D01*
X737255Y20584D01*
X737249Y20577D01*
X737245Y20570D01*
X737207Y20527D01*
X737169Y20482D01*
X737163Y20477D01*
X737157Y20470D01*
X737113Y20432D01*
X737070Y20393D01*
X737063Y20388D01*
X737057Y20382D01*
X737008Y20350D01*
X736961Y20317D01*
X736953Y20313D01*
X736946Y20308D01*
X736894Y20283D01*
X736842Y20256D01*
X736834Y20253D01*
X736827Y20250D01*
X736771Y20231D01*
X736717Y20211D01*
X736709Y20210D01*
X736701Y20207D01*
X736644Y20196D01*
X736587Y20183D01*
X736578Y20182D01*
X736570Y20181D01*
X736512Y20177D01*
X736454Y20172D01*
X736446Y20173D01*
X736437Y20172D01*
X729325D01*
X729192Y20181D01*
X729061Y20207D01*
X728935Y20250D01*
X728816Y20308D01*
X728705Y20382D01*
X728605Y20470D01*
X728517Y20570D01*
X728443Y20681D01*
X728384Y20801D01*
X728341Y20927D01*
X728316Y21057D01*
X728307Y21190D01*
Y28810D01*
X728316Y28943D01*
X728341Y29074D01*
X728384Y29200D01*
X728443Y29319D01*
X728517Y29430D01*
X728605Y29530D01*
X728705Y29618D01*
X728816Y29692D01*
X728935Y29751D01*
X729061Y29794D01*
X729192Y29820D01*
X729325Y29828D01*
X736437D01*
X736445Y29828D01*
X736454Y29828D01*
X736512Y29824D01*
X736570Y29820D01*
X736578Y29818D01*
X736587Y29817D01*
X736644Y29805D01*
X736701Y29794D01*
X736709Y29791D01*
X736717Y29789D01*
X736772Y29769D01*
X736827Y29751D01*
X736834Y29747D01*
X736842Y29744D01*
X736895Y29717D01*
X736946Y29692D01*
X736953Y29687D01*
X736961Y29683D01*
X737009Y29650D01*
X737057Y29618D01*
X737063Y29612D01*
X737070Y29608D01*
X737114Y29568D01*
X737157Y29530D01*
X737162Y29524D01*
X737169Y29518D01*
X737207Y29473D01*
X737245Y29430D01*
X737249Y29423D01*
X737255Y29416D01*
X737287Y29367D01*
X737319Y29319D01*
X737322Y29312D01*
X737326Y29307D01*
X737342Y29334D01*
X737375Y29382D01*
X737407Y29430D01*
X737413Y29437D01*
X737418Y29444D01*
X737457Y29486D01*
X737495Y29530D01*
X737501Y29536D01*
X737507Y29542D01*
X737552Y29580D01*
X737595Y29618D01*
X737602Y29623D01*
X737609Y29628D01*
X737658Y29660D01*
X737706Y29692D01*
X737714Y29696D01*
X737721Y29700D01*
X737773Y29725D01*
X737825Y29751D01*
X737834Y29754D01*
X737841Y29757D01*
X737896Y29775D01*
X737951Y29794D01*
X737960Y29795D01*
X737968Y29798D01*
X738025Y29808D01*
X738082Y29820D01*
X738091Y29820D01*
X738099Y29822D01*
X738157Y29825D01*
X738215Y29828D01*
X743549D01*
X743682Y29820D01*
D02*
G37*
D66*
X261400Y35000D02*
G03*
X261400Y35000I-15000J0D01*
G01*
X945400Y55000D02*
G03*
X945400Y55000I-15000J0D01*
G01*
Y895000D02*
G03*
X945400Y895000I-15000J0D01*
G01*
X261400Y915000D02*
G03*
X261400Y915000I-15000J0D01*
G01*
D67*
X516823Y368251D02*
D03*
X516814Y356750D02*
D03*
X552191Y367500D02*
D03*
X552191Y355750D02*
D03*
X736701Y25000D02*
D03*
X715806D02*
D03*
X493816Y380000D02*
D03*
X566169Y82500D02*
D03*
D68*
X377500Y825500D02*
D03*
D69*
X955500Y183000D02*
D03*
X940500D02*
D03*
X260000Y702500D02*
D03*
X275000D02*
D03*
X260000Y685000D02*
D03*
X275000D02*
D03*
X548250Y535500D02*
D03*
X533250D02*
D03*
D70*
X450000Y61530D02*
D03*
X502500D02*
D03*
Y73470D02*
D03*
X490000Y61530D02*
D03*
Y73470D02*
D03*
X450000D02*
D03*
X437500Y61530D02*
D03*
Y73470D02*
D03*
X477500D02*
D03*
Y61530D02*
D03*
X425000Y73470D02*
D03*
Y61530D02*
D03*
X410000Y226530D02*
D03*
Y238470D02*
D03*
X430000Y226530D02*
D03*
Y238470D02*
D03*
X442500Y226530D02*
D03*
Y238470D02*
D03*
X487500Y226530D02*
D03*
Y238470D02*
D03*
X502500Y226530D02*
D03*
Y238470D02*
D03*
X433000Y132970D02*
D03*
Y121030D02*
D03*
D71*
X276000Y722250D02*
D03*
X940500Y170000D02*
D03*
X806000Y422500D02*
D03*
Y440000D02*
D03*
X819000Y422500D02*
D03*
Y440000D02*
D03*
X289000Y722250D02*
D03*
X564750Y536000D02*
D03*
X577750D02*
D03*
X281000Y60000D02*
D03*
X294000D02*
D03*
X571500Y195000D02*
D03*
X558500D02*
D03*
X661500Y15000D02*
D03*
X648500D02*
D03*
X601500D02*
D03*
X588500D02*
D03*
X953500Y170000D02*
D03*
D72*
X285000Y671500D02*
D03*
X105000Y711500D02*
D03*
Y698500D02*
D03*
X113000Y299500D02*
D03*
Y286500D02*
D03*
X120000Y216500D02*
D03*
Y229500D02*
D03*
X139000Y244500D02*
D03*
Y257500D02*
D03*
X139000Y220000D02*
D03*
Y233000D02*
D03*
X285000Y658500D02*
D03*
X893000Y184500D02*
D03*
Y171500D02*
D03*
D73*
X543000Y70400D02*
D03*
X547000D02*
D03*
X535000D02*
D03*
X531000D02*
D03*
X543000Y39600D02*
D03*
X547000D02*
D03*
X535000D02*
D03*
X531000D02*
D03*
X703000Y410400D02*
D03*
X699000D02*
D03*
X691000D02*
D03*
X687000D02*
D03*
X679000D02*
D03*
X675000D02*
D03*
X667000D02*
D03*
X663000D02*
D03*
X531000Y379600D02*
D03*
X535000D02*
D03*
X595000Y410400D02*
D03*
X591000D02*
D03*
X579000D02*
D03*
X583000D02*
D03*
X603000D02*
D03*
X607000D02*
D03*
X655000Y379600D02*
D03*
X651000D02*
D03*
X639000D02*
D03*
X643000D02*
D03*
X667000D02*
D03*
X663000D02*
D03*
X527000Y39600D02*
D03*
Y70400D02*
D03*
X539000Y39600D02*
D03*
Y70400D02*
D03*
X551000Y39600D02*
D03*
Y70400D02*
D03*
X555000Y39600D02*
D03*
Y70400D02*
D03*
X559000Y39600D02*
D03*
Y70400D02*
D03*
X563000Y39600D02*
D03*
Y70400D02*
D03*
X567000Y39600D02*
D03*
Y70400D02*
D03*
X571000Y39600D02*
D03*
Y70400D02*
D03*
X575000Y39600D02*
D03*
Y70400D02*
D03*
X579000Y39600D02*
D03*
Y70400D02*
D03*
X583000Y39600D02*
D03*
Y70400D02*
D03*
X587000Y39600D02*
D03*
Y70400D02*
D03*
X591000Y39600D02*
D03*
Y70400D02*
D03*
X595000Y39600D02*
D03*
Y70400D02*
D03*
X599000Y39600D02*
D03*
Y70400D02*
D03*
X603000Y39600D02*
D03*
Y70400D02*
D03*
X607000Y39600D02*
D03*
Y70400D02*
D03*
X611000Y39600D02*
D03*
Y70400D02*
D03*
X615000Y39600D02*
D03*
Y70400D02*
D03*
X619000Y39600D02*
D03*
Y70400D02*
D03*
X623000Y39600D02*
D03*
Y70400D02*
D03*
X627000Y39600D02*
D03*
Y70400D02*
D03*
X631000Y39600D02*
D03*
Y70400D02*
D03*
X635000Y39600D02*
D03*
Y70400D02*
D03*
X639000Y39600D02*
D03*
Y70400D02*
D03*
X643000Y39600D02*
D03*
Y70400D02*
D03*
X647000Y39600D02*
D03*
Y70400D02*
D03*
X651000Y39600D02*
D03*
Y70400D02*
D03*
X655000Y39600D02*
D03*
Y70400D02*
D03*
X659000Y39600D02*
D03*
Y70400D02*
D03*
X663000Y39600D02*
D03*
Y70400D02*
D03*
X667000Y39600D02*
D03*
Y70400D02*
D03*
X671000Y39600D02*
D03*
Y70400D02*
D03*
X675000Y39600D02*
D03*
Y70400D02*
D03*
X679000Y39600D02*
D03*
Y70400D02*
D03*
X683000Y39600D02*
D03*
Y70400D02*
D03*
X687000Y39600D02*
D03*
Y70400D02*
D03*
X691000Y39600D02*
D03*
Y70400D02*
D03*
X695000Y39600D02*
D03*
Y70400D02*
D03*
X699000Y39600D02*
D03*
Y70400D02*
D03*
X703000Y39600D02*
D03*
Y70400D02*
D03*
X707000Y39600D02*
D03*
Y70400D02*
D03*
X711000Y39600D02*
D03*
Y70400D02*
D03*
X715000Y39600D02*
D03*
Y70400D02*
D03*
X719000Y39600D02*
D03*
Y70400D02*
D03*
X723000Y39600D02*
D03*
Y70400D02*
D03*
X527000Y379600D02*
D03*
Y410400D02*
D03*
X531000D02*
D03*
X535000D02*
D03*
X539000Y379600D02*
D03*
X543000D02*
D03*
Y410400D02*
D03*
X547000Y379600D02*
D03*
Y410400D02*
D03*
X551000Y379600D02*
D03*
X555000D02*
D03*
Y410400D02*
D03*
X559000Y379600D02*
D03*
Y410400D02*
D03*
X563000Y379600D02*
D03*
X567000D02*
D03*
Y410400D02*
D03*
X571000Y379600D02*
D03*
Y410400D02*
D03*
X575000Y379600D02*
D03*
X579000D02*
D03*
X583000D02*
D03*
X587000D02*
D03*
X591000D02*
D03*
X595000D02*
D03*
X599000D02*
D03*
X603000D02*
D03*
X607000D02*
D03*
X611000D02*
D03*
X615000D02*
D03*
Y410400D02*
D03*
X619000Y379600D02*
D03*
Y410400D02*
D03*
X623000Y379600D02*
D03*
Y410400D02*
D03*
X627000Y379600D02*
D03*
Y410400D02*
D03*
X631000Y379600D02*
D03*
Y410400D02*
D03*
X635000Y379600D02*
D03*
Y410400D02*
D03*
X639000D02*
D03*
X643000D02*
D03*
X647000Y379600D02*
D03*
Y410400D02*
D03*
X651000D02*
D03*
X655000D02*
D03*
X659000Y379600D02*
D03*
Y410400D02*
D03*
X671000Y379600D02*
D03*
Y410400D02*
D03*
X675000Y379600D02*
D03*
X679000D02*
D03*
X683000D02*
D03*
Y410400D02*
D03*
X687000Y379600D02*
D03*
X691000D02*
D03*
X695000D02*
D03*
Y410400D02*
D03*
X699000Y379600D02*
D03*
X703000D02*
D03*
X707000D02*
D03*
Y410400D02*
D03*
X711000Y379600D02*
D03*
Y410400D02*
D03*
X715000Y379600D02*
D03*
Y410400D02*
D03*
X719000Y379600D02*
D03*
Y410400D02*
D03*
X723000Y379600D02*
D03*
Y410400D02*
D03*
X763000Y844600D02*
D03*
Y875400D02*
D03*
X759000Y844600D02*
D03*
Y875400D02*
D03*
X755000Y844600D02*
D03*
Y875400D02*
D03*
X751000Y844600D02*
D03*
Y875400D02*
D03*
X747000Y844600D02*
D03*
Y875400D02*
D03*
X743000Y844600D02*
D03*
Y875400D02*
D03*
X739000Y844600D02*
D03*
Y875400D02*
D03*
X735000Y844600D02*
D03*
Y875400D02*
D03*
X731000Y844600D02*
D03*
Y875400D02*
D03*
X727000Y844600D02*
D03*
Y875400D02*
D03*
X723000Y844600D02*
D03*
Y875400D02*
D03*
X719000Y844600D02*
D03*
Y875400D02*
D03*
X715000Y844600D02*
D03*
Y875400D02*
D03*
X711000Y844600D02*
D03*
Y875400D02*
D03*
X707000Y844600D02*
D03*
Y875400D02*
D03*
X703000Y844600D02*
D03*
Y875400D02*
D03*
X699000Y844600D02*
D03*
Y875400D02*
D03*
X695000Y844600D02*
D03*
Y875400D02*
D03*
X691000Y844600D02*
D03*
Y875400D02*
D03*
X687000Y844600D02*
D03*
Y875400D02*
D03*
D74*
X782000Y412000D02*
D03*
Y435000D02*
D03*
X763000Y412000D02*
D03*
X772500D02*
D03*
Y435000D02*
D03*
X763000D02*
D03*
D75*
X53000Y710500D02*
D03*
Y706500D02*
D03*
Y698500D02*
D03*
Y694500D02*
D03*
Y718500D02*
D03*
Y714500D02*
D03*
Y702500D02*
D03*
Y690500D02*
D03*
Y686500D02*
D03*
D76*
X65000Y704500D02*
D03*
Y700500D02*
D03*
Y692500D02*
D03*
Y688500D02*
D03*
Y720500D02*
D03*
Y716500D02*
D03*
Y712500D02*
D03*
Y708500D02*
D03*
Y696500D02*
D03*
Y684500D02*
D03*
D77*
X74750Y277000D02*
D03*
Y267000D02*
D03*
Y272000D02*
D03*
Y262000D02*
D03*
Y257000D02*
D03*
Y252000D02*
D03*
Y287000D02*
D03*
Y282000D02*
D03*
D78*
X1102000Y31000D02*
D03*
D79*
X539000Y410400D02*
D03*
X551000D02*
D03*
X563000D02*
D03*
X575000D02*
D03*
X587000D02*
D03*
X599000D02*
D03*
X611000D02*
D03*
D80*
X721739Y290798D02*
D03*
X712759Y299778D02*
D03*
X703779Y308759D02*
D03*
X694798Y317739D02*
D03*
X683202Y252261D02*
D03*
X674221Y261241D02*
D03*
X665241Y270222D02*
D03*
X656261Y279202D02*
D03*
D81*
X715000Y324500D02*
D03*
Y340500D02*
D03*
X253000Y557000D02*
D03*
Y573000D02*
D03*
X120000Y242000D02*
D03*
Y258000D02*
D03*
X227500Y162000D02*
D03*
Y178000D02*
D03*
D82*
X753000Y306400D02*
D03*
Y335600D02*
D03*
X770000Y219600D02*
D03*
Y190400D02*
D03*
D83*
X268929Y576651D02*
D03*
Y554651D02*
D03*
X284929D02*
D03*
Y576651D02*
D03*
D84*
X230000Y450000D02*
D03*
Y544000D02*
D03*
Y573000D02*
D03*
Y667000D02*
D03*
D85*
X268850Y497000D02*
D03*
X191150D02*
D03*
D86*
X146450Y722000D02*
D03*
Y703000D02*
D03*
X123550D02*
D03*
Y712500D02*
D03*
Y722000D02*
D03*
X156760Y305230D02*
D03*
Y286230D02*
D03*
X133860D02*
D03*
Y295730D02*
D03*
Y305230D02*
D03*
D87*
X17000Y731000D02*
D03*
Y674000D02*
D03*
D88*
X50600Y731000D02*
D03*
X50598Y674405D02*
D03*
D89*
X230000Y305000D02*
D03*
Y412700D02*
D03*
D90*
X183000Y343850D02*
D03*
Y373850D02*
D03*
X277000Y343850D02*
D03*
Y373850D02*
D03*
D91*
X28750Y216200D02*
D03*
Y322800D02*
D03*
X68750D02*
D03*
Y216200D02*
D03*
D92*
X74750Y245500D02*
D03*
Y237500D02*
D03*
Y301500D02*
D03*
Y293500D02*
D03*
D93*
X76530Y30000D02*
D03*
X88470D02*
D03*
X49030D02*
D03*
X60970D02*
D03*
X309030Y205000D02*
D03*
X320970D02*
D03*
X309030Y192500D02*
D03*
X320970D02*
D03*
X309030Y180000D02*
D03*
X320970D02*
D03*
X309030Y167500D02*
D03*
X320970D02*
D03*
X309030Y155000D02*
D03*
X320970D02*
D03*
X309030Y142500D02*
D03*
X320970D02*
D03*
X334030Y135000D02*
D03*
X345970D02*
D03*
X334030Y147500D02*
D03*
X345970D02*
D03*
X334030Y160000D02*
D03*
X345970D02*
D03*
X334030Y172500D02*
D03*
X345970D02*
D03*
X334030Y197500D02*
D03*
X345970D02*
D03*
X334030Y210000D02*
D03*
X345970D02*
D03*
Y185000D02*
D03*
X334030D02*
D03*
X559030Y165000D02*
D03*
X570970D02*
D03*
X410970Y210000D02*
D03*
X399030D02*
D03*
X501530Y177500D02*
D03*
X513470D02*
D03*
X501530Y155000D02*
D03*
X513470D02*
D03*
X513140Y135377D02*
D03*
X501200D02*
D03*
X501530Y122500D02*
D03*
X513470D02*
D03*
X410970Y142500D02*
D03*
X399030D02*
D03*
X410970Y130000D02*
D03*
X399030D02*
D03*
X50970Y920000D02*
D03*
X39030D02*
D03*
X80970D02*
D03*
X69030D02*
D03*
X410970Y165000D02*
D03*
X399030D02*
D03*
D94*
X170000Y253750D02*
D03*
Y221250D02*
D03*
X205000Y253750D02*
D03*
Y221250D02*
D03*
X455000Y103750D02*
D03*
Y136250D02*
D03*
X465000Y191250D02*
D03*
Y223750D02*
D03*
D95*
X237500Y230000D02*
D03*
X267500D02*
D03*
D96*
X262500Y171000D02*
D03*
X253000D02*
D03*
X272000D02*
D03*
X262500Y194000D02*
D03*
X253000D02*
D03*
X272000D02*
D03*
D97*
X240500Y192500D02*
D03*
X224500D02*
D03*
X724500Y237500D02*
D03*
X740500D02*
D03*
X193000Y920000D02*
D03*
X177000D02*
D03*
D98*
X308000Y104478D02*
D03*
X252000D02*
D03*
D99*
X295000Y78678D02*
D03*
X285000D02*
D03*
X275000D02*
D03*
X265000D02*
D03*
D100*
X251250Y142500D02*
D03*
X283750D02*
D03*
D101*
X739750Y180950D02*
D03*
Y193650D02*
D03*
Y206350D02*
D03*
Y219050D02*
D03*
X685250Y180950D02*
D03*
Y193650D02*
D03*
Y206350D02*
D03*
Y219050D02*
D03*
D102*
X711404Y155404D02*
D03*
X720596Y164596D02*
D03*
X739596Y159596D02*
D03*
X730404Y150404D02*
D03*
D103*
X719000Y139500D02*
D03*
Y124500D02*
D03*
X697000Y137500D02*
D03*
Y152500D02*
D03*
D104*
X306500Y465000D02*
D03*
D105*
X513500D02*
D03*
D106*
X317500Y457250D02*
D03*
X322500D02*
D03*
X325000Y532750D02*
D03*
X327500Y457250D02*
D03*
X330000Y532750D02*
D03*
X332500Y457250D02*
D03*
X335000Y532750D02*
D03*
X337500Y457250D02*
D03*
X360000Y532750D02*
D03*
X362500Y457250D02*
D03*
X365000Y532750D02*
D03*
X367500Y457250D02*
D03*
X370000Y532750D02*
D03*
X372500Y457250D02*
D03*
X375000Y532750D02*
D03*
X377500Y457250D02*
D03*
X380000Y532750D02*
D03*
X382500Y457250D02*
D03*
X385000Y532750D02*
D03*
X387500Y457250D02*
D03*
X390000Y532750D02*
D03*
X392500Y457250D02*
D03*
X395000Y532750D02*
D03*
X397500Y457250D02*
D03*
X400000Y532750D02*
D03*
X402500Y457250D02*
D03*
X405000Y532750D02*
D03*
X407500Y457250D02*
D03*
X410000Y532750D02*
D03*
X412500Y457250D02*
D03*
X415000Y532750D02*
D03*
X417500Y457250D02*
D03*
X420000Y532750D02*
D03*
X422500Y457250D02*
D03*
X425000Y532750D02*
D03*
X427500Y457250D02*
D03*
X430000Y532750D02*
D03*
X432500Y457250D02*
D03*
X435000Y532750D02*
D03*
X437500Y457250D02*
D03*
X440000Y532750D02*
D03*
X442500Y457250D02*
D03*
X445000Y532750D02*
D03*
X447500Y457250D02*
D03*
X450000Y532750D02*
D03*
X452500Y457250D02*
D03*
X455000Y532750D02*
D03*
X457500Y457250D02*
D03*
X460000Y532750D02*
D03*
X462500Y457250D02*
D03*
X465000Y532750D02*
D03*
X467500Y457250D02*
D03*
X470000Y532750D02*
D03*
X472500Y457250D02*
D03*
X475000Y532750D02*
D03*
X477500Y457250D02*
D03*
X480000Y532750D02*
D03*
X482500Y457250D02*
D03*
X485000Y532750D02*
D03*
X487500Y457250D02*
D03*
X490000Y532750D02*
D03*
X492500Y457250D02*
D03*
X495000Y532750D02*
D03*
X497500Y457250D02*
D03*
X500000Y532750D02*
D03*
X502500Y457250D02*
D03*
D107*
X320000Y534250D02*
D03*
D108*
X926500Y148550D02*
D03*
X907500D02*
D03*
Y171450D02*
D03*
X917000D02*
D03*
X926500D02*
D03*
D109*
X1063000Y181500D02*
D03*
X1052000D02*
D03*
X1041000D02*
D03*
X1030000D02*
D03*
X1019000D02*
D03*
X1008000D02*
D03*
X997000D02*
D03*
X986000D02*
D03*
X976500D02*
D03*
D110*
X1078500D02*
D03*
X967000Y138500D02*
D03*
D111*
Y76500D02*
D03*
D112*
Y35500D02*
D03*
D113*
X268850Y620000D02*
D03*
X191150D02*
D03*
D114*
X60000Y896250D02*
D03*
Y870850D02*
D03*
Y789150D02*
D03*
Y763750D02*
D03*
Y79150D02*
D03*
Y53750D02*
D03*
Y186250D02*
D03*
Y160850D02*
D03*
D115*
X172500Y772850D02*
D03*
X197900Y785550D02*
D03*
X172500Y798250D02*
D03*
X197900Y810950D02*
D03*
X172500Y823650D02*
D03*
X197900Y836350D02*
D03*
X172500Y849050D02*
D03*
X197900Y861750D02*
D03*
X172500Y874450D02*
D03*
X197900Y887150D02*
D03*
Y151750D02*
D03*
X172500Y164450D02*
D03*
Y113650D02*
D03*
Y139050D02*
D03*
X197900Y126350D02*
D03*
Y100950D02*
D03*
Y75550D02*
D03*
X172500Y88250D02*
D03*
Y62850D02*
D03*
X197900Y177150D02*
D03*
D116*
X139500Y749500D02*
D03*
Y910500D02*
D03*
Y39500D02*
D03*
Y200500D02*
D03*
D117*
X109000Y772850D02*
D03*
Y887150D02*
D03*
Y177150D02*
D03*
Y62850D02*
D03*
D118*
X939000Y513100D02*
D03*
Y487700D02*
D03*
Y640100D02*
D03*
Y665500D02*
D03*
Y563900D02*
D03*
Y538500D02*
D03*
Y614700D02*
D03*
Y589300D02*
D03*
X913600Y360700D02*
D03*
Y335300D02*
D03*
Y309900D02*
D03*
Y284500D02*
D03*
X939000Y436900D02*
D03*
Y462300D02*
D03*
X913600Y589300D02*
D03*
Y614700D02*
D03*
Y640100D02*
D03*
Y665500D02*
D03*
Y563900D02*
D03*
Y513100D02*
D03*
Y538500D02*
D03*
Y487700D02*
D03*
Y462300D02*
D03*
Y386100D02*
D03*
Y411500D02*
D03*
X964400Y640100D02*
D03*
Y614700D02*
D03*
Y589300D02*
D03*
Y563900D02*
D03*
Y538500D02*
D03*
Y513100D02*
D03*
Y487700D02*
D03*
Y462300D02*
D03*
Y360700D02*
D03*
Y436900D02*
D03*
Y411500D02*
D03*
Y335300D02*
D03*
Y386100D02*
D03*
Y309900D02*
D03*
X939000Y284500D02*
D03*
Y411500D02*
D03*
Y386100D02*
D03*
Y360700D02*
D03*
Y335300D02*
D03*
Y309900D02*
D03*
X964400Y284500D02*
D03*
D119*
X133000Y589500D02*
D03*
Y569500D02*
D03*
X153000Y599500D02*
D03*
Y619500D02*
D03*
X133000Y420250D02*
D03*
Y400250D02*
D03*
X153000Y430250D02*
D03*
Y450250D02*
D03*
X133000Y544500D02*
D03*
Y375250D02*
D03*
D120*
X153000Y539500D02*
D03*
D121*
Y559500D02*
D03*
Y579500D02*
D03*
D122*
Y370250D02*
D03*
Y390250D02*
D03*
Y410250D02*
D03*
D123*
X840000Y60000D02*
D03*
Y390000D02*
D03*
X360000Y60000D02*
D03*
Y390000D02*
D03*
X410000Y915000D02*
D03*
D124*
X823890Y467500D02*
D03*
X673890D02*
D03*
X63750Y298400D02*
D03*
Y240600D02*
D03*
D125*
X708890Y457500D02*
D03*
X728890D02*
D03*
X748890D02*
D03*
X768890D02*
D03*
X788890D02*
D03*
X708890Y477500D02*
D03*
X728890D02*
D03*
X748890D02*
D03*
X768890D02*
D03*
D126*
X788890D02*
D03*
D127*
X930400Y55000D02*
D03*
X246400Y915000D02*
D03*
X930400Y895000D02*
D03*
X246400Y35000D02*
D03*
D128*
X330000Y417500D02*
D03*
X279000Y265500D02*
D03*
X381000D02*
D03*
D129*
X870000Y465000D02*
D03*
Y905000D02*
D03*
X580000D02*
D03*
Y465000D02*
D03*
D130*
X990400Y233700D02*
D03*
Y716300D02*
D03*
D131*
X964400Y665500D02*
D03*
D132*
X913600Y436900D02*
D03*
D133*
X972000Y877000D02*
D03*
Y827000D02*
D03*
D134*
X1072000Y797000D02*
D03*
Y907000D02*
D03*
D135*
X133000Y614500D02*
D03*
Y445250D02*
D03*
D136*
X118000Y513800D02*
D03*
Y645200D02*
D03*
Y475950D02*
D03*
Y344550D02*
D03*
D137*
X510000Y510000D02*
D03*
D138*
X310000D02*
D03*
M02*
