G04*
G04 #@! TF.GenerationSoftware,Altium Limited,Altium Designer,24.6.1 (21)*
G04*
G04 Layer_Physical_Order=3*
G04 Layer_Color=16440176*
%FSLAX44Y44*%
%MOMM*%
G71*
G04*
G04 #@! TF.SameCoordinates,A8D64014-89CE-44E1-AE60-3DA97B657322*
G04*
G04*
G04 #@! TF.FilePolarity,Positive*
G04*
G01*
G75*
%ADD13C,0.6000*%
%ADD98C,1.5240*%
%ADD104C,1.5080*%
%ADD105C,1.6500*%
%ADD107C,2.5500*%
%ADD109C,0.6000*%
G36*
X502961Y945922D02*
Y822500D01*
X502961Y822500D01*
X503116Y821720D01*
X503558Y821058D01*
X506058Y818558D01*
X506720Y818116D01*
X507500Y817961D01*
X751655D01*
X816058Y753558D01*
X816720Y753116D01*
X817500Y752961D01*
X940000D01*
X940000Y752961D01*
X940780Y753116D01*
X941442Y753558D01*
X1021442Y833558D01*
X1021884Y834220D01*
X1022039Y835000D01*
Y925922D01*
X1070000Y925922D01*
X1071699Y925922D01*
X1075068Y925478D01*
X1078350Y924599D01*
X1081490Y923298D01*
X1084432Y921599D01*
X1087128Y919531D01*
X1089531Y917128D01*
X1091599Y914432D01*
X1093298Y911489D01*
X1094599Y908350D01*
X1095478Y905068D01*
X1095922Y901699D01*
Y900000D01*
X1095922Y805000D01*
X1095922Y803301D01*
X1095478Y799932D01*
X1094599Y796650D01*
X1093298Y793510D01*
X1091600Y790568D01*
X1089531Y787872D01*
X1087128Y785469D01*
X1084432Y783400D01*
X1081489Y781702D01*
X1078350Y780401D01*
X1075068Y779522D01*
X1071699Y779078D01*
X1070000Y779078D01*
X1027000D01*
X1026900Y779058D01*
X1026800Y779073D01*
X1025526Y779011D01*
X1025232Y778937D01*
X1024930D01*
X1022431Y778440D01*
X1022060Y778286D01*
X1021666Y778208D01*
X1019311Y777233D01*
X1018977Y777010D01*
X1018606Y776856D01*
X1016487Y775440D01*
X1016203Y775156D01*
X1015869Y774933D01*
X1014067Y773131D01*
X1013844Y772797D01*
X1013560Y772513D01*
X1012144Y770394D01*
X1011990Y770023D01*
X1011767Y769689D01*
X1010792Y767334D01*
X1010714Y766940D01*
X1010560Y766569D01*
X1010063Y764070D01*
Y763767D01*
X1009989Y763474D01*
X1009927Y762200D01*
X1009942Y762100D01*
X1009922Y762000D01*
Y188000D01*
X1009942Y187900D01*
X1009927Y187800D01*
X1009989Y186526D01*
X1010063Y186232D01*
Y185930D01*
X1010560Y183431D01*
X1010714Y183060D01*
X1010792Y182666D01*
X1011767Y180311D01*
X1011990Y179977D01*
X1012144Y179606D01*
X1013560Y177487D01*
X1013844Y177203D01*
X1014067Y176869D01*
X1015869Y175067D01*
X1016203Y174844D01*
X1016487Y174560D01*
X1018606Y173144D01*
X1018977Y172990D01*
X1019311Y172767D01*
X1021666Y171792D01*
X1022060Y171714D01*
X1022431Y171560D01*
X1024930Y171063D01*
X1025232D01*
X1025526Y170989D01*
X1026800Y170927D01*
X1026900Y170942D01*
X1027000Y170922D01*
X1071699D01*
X1075068Y170478D01*
X1078350Y169599D01*
X1081489Y168298D01*
X1084432Y166599D01*
X1087128Y164531D01*
X1089531Y162128D01*
X1091599Y159432D01*
X1093298Y156489D01*
X1094599Y153350D01*
X1095478Y150068D01*
X1095922Y146699D01*
Y145000D01*
Y50000D01*
X1095922Y48301D01*
X1095478Y44932D01*
X1094599Y41650D01*
X1093298Y38510D01*
X1091599Y35568D01*
X1089531Y32872D01*
X1087128Y30469D01*
X1084432Y28401D01*
X1081489Y26702D01*
X1078350Y25401D01*
X1075068Y24522D01*
X1071699Y24078D01*
X1070000Y24078D01*
X960000D01*
X959964Y24071D01*
X959928Y24078D01*
X956416Y24016D01*
X956310Y23993D01*
X956201Y24007D01*
X949194Y23513D01*
X949054Y23475D01*
X948910Y23483D01*
X941954Y22499D01*
X941817Y22451D01*
X941672Y22449D01*
X934803Y20980D01*
X934670Y20922D01*
X934525Y20910D01*
X927777Y18962D01*
X927648Y18895D01*
X927504Y18873D01*
X920909Y16456D01*
X920785Y16380D01*
X920643Y16348D01*
X914234Y13473D01*
X914116Y13389D01*
X913977Y13347D01*
X907785Y10030D01*
X907701Y9961D01*
X907598Y9923D01*
X904594Y8104D01*
X904567Y8079D01*
X904533Y8066D01*
X902989Y7094D01*
X899660Y5601D01*
X896155Y4589D01*
X892542Y4078D01*
X890718Y4078D01*
X20000Y4078D01*
X18432D01*
X15356Y4690D01*
X12458Y5890D01*
X9850Y7633D01*
X7633Y9851D01*
X5890Y12458D01*
X4690Y15356D01*
X4078Y18432D01*
Y20000D01*
Y930000D01*
Y931568D01*
X4690Y934644D01*
X5890Y937542D01*
X7633Y940150D01*
X9851Y942367D01*
X12458Y944110D01*
X15356Y945310D01*
X18432Y945922D01*
X20000Y945922D01*
X501711Y945922D01*
X502961Y945922D01*
D02*
G37*
G36*
X892542Y945922D02*
X896155Y945411D01*
X899660Y944399D01*
X902989Y942906D01*
X904533Y941934D01*
X904567Y941921D01*
X904594Y941896D01*
X907598Y940077D01*
X907701Y940039D01*
X907785Y939970D01*
X908014Y939847D01*
X920361Y927500D01*
X941959D01*
X948910Y926517D01*
X949054Y926525D01*
X949194Y926487D01*
X956201Y925994D01*
X956310Y926007D01*
X956416Y925984D01*
X959928Y925922D01*
X959964Y925929D01*
X960000Y925922D01*
X1020000Y925922D01*
Y835000D01*
X940000Y755000D01*
X817500D01*
X752500Y820000D01*
X507500D01*
X505000Y822500D01*
Y945922D01*
X890718Y945922D01*
X892542Y945922D01*
D02*
G37*
%LPC*%
G36*
X104514Y935075D02*
X100886D01*
X97383Y934136D01*
X94242Y932323D01*
X91677Y929758D01*
X89864Y926617D01*
X88925Y923113D01*
Y919486D01*
X89864Y915983D01*
X91677Y912842D01*
X94242Y910277D01*
X97383Y908464D01*
X100886Y907525D01*
X104514D01*
X108017Y908464D01*
X111158Y910277D01*
X113723Y912842D01*
X115536Y915983D01*
X116475Y919486D01*
Y923113D01*
X115536Y926617D01*
X113723Y929758D01*
X111158Y932323D01*
X108017Y934136D01*
X104514Y935075D01*
D02*
G37*
G36*
X246400Y938111D02*
X241891Y937667D01*
X237556Y936352D01*
X233560Y934216D01*
X230058Y931342D01*
X227184Y927840D01*
X225048Y923844D01*
X223733Y919509D01*
X223289Y915000D01*
X223733Y910491D01*
X225048Y906156D01*
X227184Y902160D01*
X230058Y898658D01*
X233560Y895784D01*
X237556Y893648D01*
X241891Y892333D01*
X246400Y891889D01*
X250909Y892333D01*
X255244Y893648D01*
X259240Y895784D01*
X262742Y898658D01*
X265616Y902160D01*
X267752Y906156D01*
X269067Y910491D01*
X269511Y915000D01*
X269067Y919509D01*
X267752Y923844D01*
X265616Y927840D01*
X262742Y931342D01*
X259240Y934216D01*
X255244Y936352D01*
X250909Y937667D01*
X246400Y938111D01*
D02*
G37*
G36*
X331413Y934500D02*
X326587D01*
X321854Y933559D01*
X317395Y931712D01*
X313382Y929030D01*
X309970Y925618D01*
X307288Y921605D01*
X305441Y917146D01*
X304500Y912413D01*
Y907587D01*
X305441Y902854D01*
X307288Y898395D01*
X309970Y894382D01*
X313382Y890970D01*
X317395Y888288D01*
X321854Y886442D01*
X326587Y885500D01*
X331413D01*
X336146Y886442D01*
X340605Y888288D01*
X344618Y890970D01*
X348030Y894382D01*
X350712Y898395D01*
X352559Y902854D01*
X353500Y907587D01*
Y912413D01*
X352559Y917146D01*
X350712Y921605D01*
X348030Y925618D01*
X344618Y929030D01*
X340605Y931712D01*
X336146Y933559D01*
X331413Y934500D01*
D02*
G37*
G36*
X70247Y922250D02*
X66553D01*
X62931Y921529D01*
X59518Y920116D01*
X56448Y918064D01*
X53836Y915452D01*
X51784Y912382D01*
X50371Y908969D01*
X49650Y905347D01*
Y901653D01*
X50371Y898031D01*
X51784Y894619D01*
X53836Y891548D01*
X56448Y888936D01*
X59518Y886884D01*
X62931Y885471D01*
X66553Y884750D01*
X70247D01*
X73869Y885471D01*
X77281Y886884D01*
X80352Y888936D01*
X82964Y891548D01*
X85016Y894619D01*
X86430Y898031D01*
X87150Y901653D01*
Y905347D01*
X86430Y908969D01*
X85016Y912382D01*
X82964Y915452D01*
X80352Y918064D01*
X77281Y920116D01*
X73869Y921529D01*
X70247Y922250D01*
D02*
G37*
G36*
X112784Y884590D02*
X110416D01*
X108130Y883977D01*
X106080Y882794D01*
X104406Y881120D01*
X103223Y879070D01*
X102610Y876784D01*
Y874416D01*
X103223Y872130D01*
X104406Y870080D01*
X106080Y868406D01*
X108130Y867223D01*
X110416Y866610D01*
X112784D01*
X115070Y867223D01*
X117120Y868406D01*
X118794Y870080D01*
X119977Y872130D01*
X120590Y874416D01*
Y876784D01*
X119977Y879070D01*
X118794Y881120D01*
X117120Y882794D01*
X115070Y883977D01*
X112784Y884590D01*
D02*
G37*
G36*
X94984Y874390D02*
X92617D01*
X90330Y873777D01*
X88280Y872594D01*
X86606Y870920D01*
X85423Y868870D01*
X84810Y866584D01*
Y864216D01*
X85423Y861930D01*
X86606Y859880D01*
X88280Y858206D01*
X90330Y857023D01*
X92617Y856410D01*
X94984D01*
X97270Y857023D01*
X99320Y858206D01*
X100994Y859880D01*
X102177Y861930D01*
X102790Y864216D01*
Y866584D01*
X102177Y868870D01*
X100994Y870920D01*
X99320Y872594D01*
X97270Y873777D01*
X94984Y874390D01*
D02*
G37*
G36*
X112784Y864190D02*
X110416D01*
X108130Y863577D01*
X106080Y862394D01*
X104406Y860720D01*
X103223Y858670D01*
X102610Y856384D01*
Y854016D01*
X103223Y851730D01*
X104406Y849680D01*
X106080Y848006D01*
X108130Y846823D01*
X110416Y846210D01*
X112784D01*
X115070Y846823D01*
X117120Y848006D01*
X118794Y849680D01*
X119977Y851730D01*
X120590Y854016D01*
Y856384D01*
X119977Y858670D01*
X118794Y860720D01*
X117120Y862394D01*
X115070Y863577D01*
X112784Y864190D01*
D02*
G37*
G36*
X94984Y853990D02*
X92617D01*
X90330Y853377D01*
X88280Y852194D01*
X86606Y850520D01*
X85423Y848470D01*
X84810Y846184D01*
Y843816D01*
X85423Y841530D01*
X86606Y839480D01*
X88280Y837806D01*
X90330Y836623D01*
X92617Y836010D01*
X94984D01*
X97270Y836623D01*
X99320Y837806D01*
X100994Y839480D01*
X102177Y841530D01*
X102790Y843816D01*
Y846184D01*
X102177Y848470D01*
X100994Y850520D01*
X99320Y852194D01*
X97270Y853377D01*
X94984Y853990D01*
D02*
G37*
G36*
X112784Y843790D02*
X110416D01*
X108130Y843177D01*
X106080Y841994D01*
X104406Y840320D01*
X103223Y838270D01*
X102610Y835984D01*
Y833616D01*
X103223Y831330D01*
X104406Y829280D01*
X106080Y827606D01*
X108130Y826423D01*
X110416Y825810D01*
X112784D01*
X115070Y826423D01*
X117120Y827606D01*
X118794Y829280D01*
X119977Y831330D01*
X120590Y833616D01*
Y835984D01*
X119977Y838270D01*
X118794Y840320D01*
X117120Y841994D01*
X115070Y843177D01*
X112784Y843790D01*
D02*
G37*
G36*
X94984Y833590D02*
X92617D01*
X90330Y832977D01*
X88280Y831794D01*
X86606Y830120D01*
X85423Y828070D01*
X84810Y825784D01*
Y823416D01*
X85423Y821130D01*
X86606Y819080D01*
X88280Y817406D01*
X90330Y816223D01*
X92617Y815610D01*
X94984D01*
X97270Y816223D01*
X99320Y817406D01*
X100994Y819080D01*
X102177Y821130D01*
X102790Y823416D01*
Y825784D01*
X102177Y828070D01*
X100994Y830120D01*
X99320Y831794D01*
X97270Y832977D01*
X94984Y833590D01*
D02*
G37*
G36*
X112784Y823390D02*
X110416D01*
X108130Y822777D01*
X106080Y821594D01*
X104406Y819920D01*
X103223Y817870D01*
X102610Y815584D01*
Y813720D01*
X102610Y813216D01*
X102590Y813190D01*
X101734Y813190D01*
X84810D01*
Y795210D01*
X102790D01*
Y809179D01*
X104040Y809514D01*
X104406Y808880D01*
X106080Y807206D01*
X108130Y806023D01*
X110416Y805410D01*
X112784D01*
X115070Y806023D01*
X117120Y807206D01*
X118794Y808880D01*
X119977Y810930D01*
X120590Y813216D01*
Y815584D01*
X119977Y817870D01*
X118794Y819920D01*
X117120Y821594D01*
X115070Y822777D01*
X112784Y823390D01*
D02*
G37*
G36*
X728995Y813000D02*
X727005D01*
X725168Y812239D01*
X723761Y810832D01*
X723000Y808995D01*
Y807005D01*
X723761Y805168D01*
X724929Y804000D01*
X723761Y802832D01*
X723000Y800995D01*
Y799005D01*
X723761Y797168D01*
X725168Y795761D01*
X727005Y795000D01*
X728995D01*
X730832Y795761D01*
X732239Y797168D01*
X733000Y799005D01*
Y800995D01*
X732239Y802832D01*
X731071Y804000D01*
X732239Y805168D01*
X733000Y807005D01*
Y808995D01*
X732239Y810832D01*
X730832Y812239D01*
X728995Y813000D01*
D02*
G37*
G36*
X747995Y809000D02*
X746005D01*
X744168Y808239D01*
X742761Y806832D01*
X742000Y804995D01*
Y803005D01*
X742761Y801168D01*
X743929Y800000D01*
X742761Y798832D01*
X742000Y796995D01*
Y795005D01*
X742761Y793168D01*
X744168Y791761D01*
X746005Y791000D01*
X747995D01*
X749832Y791761D01*
X751239Y793168D01*
X752000Y795005D01*
Y796995D01*
X751239Y798832D01*
X750071Y800000D01*
X751239Y801168D01*
X752000Y803005D01*
Y804995D01*
X751239Y806832D01*
X749832Y808239D01*
X747995Y809000D01*
D02*
G37*
G36*
X643995Y778000D02*
X642005D01*
X640168Y777239D01*
X638761Y775832D01*
X638000Y773995D01*
X636750Y773687D01*
X635995Y774000D01*
X634005D01*
X632168Y773239D01*
X630761Y771832D01*
X630000Y769995D01*
Y768005D01*
X630761Y766168D01*
X632168Y764761D01*
X634005Y764000D01*
X635995D01*
X637832Y764761D01*
X639239Y766168D01*
X640000Y768005D01*
X641250Y768313D01*
X642005Y768000D01*
X643995D01*
X645832Y768761D01*
X647239Y770168D01*
X648000Y772005D01*
Y773995D01*
X647239Y775832D01*
X645832Y777239D01*
X643995Y778000D01*
D02*
G37*
G36*
X70247Y795250D02*
X66553D01*
X62931Y794529D01*
X59518Y793116D01*
X56448Y791064D01*
X53836Y788452D01*
X51784Y785381D01*
X50371Y781969D01*
X49650Y778347D01*
Y774653D01*
X50371Y771031D01*
X51784Y767618D01*
X53836Y764548D01*
X56448Y761936D01*
X59518Y759884D01*
X62931Y758471D01*
X66553Y757750D01*
X70247D01*
X73869Y758471D01*
X77281Y759884D01*
X80352Y761936D01*
X82964Y764548D01*
X85016Y767618D01*
X86430Y771031D01*
X87150Y774653D01*
Y778347D01*
X86430Y781969D01*
X85016Y785381D01*
X82964Y788452D01*
X80352Y791064D01*
X77281Y793116D01*
X73869Y794529D01*
X70247Y795250D01*
D02*
G37*
G36*
X754995Y757000D02*
X753005D01*
X751168Y756239D01*
X749761Y754832D01*
X749000Y752995D01*
Y751005D01*
X749761Y749168D01*
X751168Y747761D01*
X753005Y747000D01*
X754995D01*
X756832Y747761D01*
X758239Y749168D01*
X759000Y751005D01*
Y752995D01*
X758239Y754832D01*
X756832Y756239D01*
X754995Y757000D01*
D02*
G37*
G36*
X104514Y772475D02*
X100886D01*
X97383Y771536D01*
X94242Y769723D01*
X91677Y767158D01*
X89864Y764017D01*
X88925Y760514D01*
Y756887D01*
X89864Y753383D01*
X91677Y750242D01*
X94242Y747677D01*
X97383Y745864D01*
X100886Y744925D01*
X104514D01*
X108017Y745864D01*
X111158Y747677D01*
X113723Y750242D01*
X115536Y753383D01*
X116475Y756887D01*
Y760514D01*
X115536Y764017D01*
X113723Y767158D01*
X111158Y769723D01*
X108017Y771536D01*
X104514Y772475D01*
D02*
G37*
G36*
X762995Y749000D02*
X761005D01*
X759168Y748239D01*
X757761Y746832D01*
X757000Y744995D01*
Y743005D01*
X757761Y741168D01*
X759168Y739761D01*
X761005Y739000D01*
X762995D01*
X764832Y739761D01*
X766239Y741168D01*
X767000Y743005D01*
Y744995D01*
X766239Y746832D01*
X764832Y748239D01*
X762995Y749000D01*
D02*
G37*
G36*
X988025Y732800D02*
X984775D01*
X981587Y732166D01*
X978584Y730922D01*
X975882Y729116D01*
X973584Y726818D01*
X971778Y724116D01*
X970534Y721113D01*
X969900Y717925D01*
Y714675D01*
X970534Y711487D01*
X971778Y708484D01*
X973584Y705782D01*
X975882Y703484D01*
X978584Y701678D01*
X981587Y700434D01*
X984775Y699800D01*
X988025D01*
X991213Y700434D01*
X994216Y701678D01*
X996918Y703484D01*
X999216Y705782D01*
X1001022Y708484D01*
X1002266Y711487D01*
X1002900Y714675D01*
Y717925D01*
X1002266Y721113D01*
X1001022Y724116D01*
X999216Y726818D01*
X996918Y729116D01*
X994216Y730922D01*
X991213Y732166D01*
X988025Y732800D01*
D02*
G37*
G36*
X910949Y675750D02*
X910600D01*
Y666500D01*
X919850D01*
Y666849D01*
X919152Y669456D01*
X917802Y671794D01*
X915894Y673702D01*
X913556Y675051D01*
X910949Y675750D01*
D02*
G37*
G36*
X908600D02*
X908251D01*
X905644Y675051D01*
X903306Y673702D01*
X901398Y671794D01*
X900049Y669456D01*
X899350Y666849D01*
Y666500D01*
X908600D01*
Y675750D01*
D02*
G37*
G36*
X970650D02*
X950150D01*
Y655250D01*
X970650D01*
Y675750D01*
D02*
G37*
G36*
X936349D02*
X933651D01*
X931044Y675051D01*
X928706Y673702D01*
X926798Y671794D01*
X925449Y669456D01*
X924750Y666849D01*
Y664150D01*
X925449Y661544D01*
X926798Y659206D01*
X928706Y657298D01*
X931044Y655948D01*
X933651Y655250D01*
X936349D01*
X938956Y655948D01*
X941294Y657298D01*
X943202Y659206D01*
X944551Y661544D01*
X945250Y664150D01*
Y666849D01*
X944551Y669456D01*
X943202Y671794D01*
X941294Y673702D01*
X938956Y675051D01*
X936349Y675750D01*
D02*
G37*
G36*
X919850Y664500D02*
X910600D01*
Y655250D01*
X910949D01*
X913556Y655948D01*
X915894Y657298D01*
X917802Y659206D01*
X919152Y661544D01*
X919850Y664150D01*
Y664500D01*
D02*
G37*
G36*
X908600D02*
X899350D01*
Y664150D01*
X900049Y661544D01*
X901398Y659206D01*
X903306Y657298D01*
X905644Y655948D01*
X908251Y655250D01*
X908600D01*
Y664500D01*
D02*
G37*
G36*
X910949Y650350D02*
X910600D01*
Y641100D01*
X919850D01*
Y641449D01*
X919152Y644056D01*
X917802Y646394D01*
X915894Y648302D01*
X913556Y649651D01*
X910949Y650350D01*
D02*
G37*
G36*
X908600D02*
X908251D01*
X905644Y649651D01*
X903306Y648302D01*
X901398Y646394D01*
X900049Y644056D01*
X899350Y641449D01*
Y641100D01*
X908600D01*
Y650350D01*
D02*
G37*
G36*
X841597Y701000D02*
X836403D01*
X831273Y700187D01*
X826332Y698582D01*
X821704Y696224D01*
X817502Y693171D01*
X813829Y689498D01*
X810776Y685296D01*
X808418Y680668D01*
X806813Y675727D01*
X806000Y670597D01*
Y665403D01*
X806813Y660273D01*
X808418Y655332D01*
X810776Y650704D01*
X813829Y646502D01*
X817502Y642829D01*
X821704Y639776D01*
X826332Y637418D01*
X831273Y635813D01*
X836403Y635000D01*
X841597D01*
X846728Y635813D01*
X851668Y637418D01*
X856296Y639776D01*
X860498Y642829D01*
X864171Y646502D01*
X867224Y650704D01*
X869582Y655332D01*
X871187Y660273D01*
X872000Y665403D01*
Y670597D01*
X871187Y675727D01*
X869582Y680668D01*
X867224Y685296D01*
X864171Y689498D01*
X860498Y693171D01*
X856296Y696224D01*
X851668Y698582D01*
X846728Y700187D01*
X841597Y701000D01*
D02*
G37*
G36*
X261597D02*
X256403D01*
X251273Y700187D01*
X246332Y698582D01*
X241704Y696224D01*
X237502Y693171D01*
X233829Y689498D01*
X230776Y685296D01*
X228418Y680668D01*
X226813Y675727D01*
X226000Y670597D01*
Y665403D01*
X226813Y660273D01*
X228418Y655332D01*
X230776Y650704D01*
X233829Y646502D01*
X237502Y642829D01*
X241704Y639776D01*
X246332Y637418D01*
X251273Y635813D01*
X256403Y635000D01*
X261597D01*
X266728Y635813D01*
X271668Y637418D01*
X276296Y639776D01*
X280498Y642829D01*
X284171Y646502D01*
X287224Y650704D01*
X289582Y655332D01*
X291187Y660273D01*
X292000Y665403D01*
Y670597D01*
X291187Y675727D01*
X289582Y680668D01*
X287224Y685296D01*
X284171Y689498D01*
X280498Y693171D01*
X276296Y696224D01*
X271668Y698582D01*
X266728Y700187D01*
X261597Y701000D01*
D02*
G37*
G36*
X961749Y650350D02*
X959051D01*
X956444Y649651D01*
X954106Y648302D01*
X952198Y646394D01*
X950848Y644056D01*
X950150Y641449D01*
Y638750D01*
X950848Y636144D01*
X952198Y633806D01*
X954106Y631898D01*
X956444Y630548D01*
X959051Y629850D01*
X961749D01*
X964356Y630548D01*
X966694Y631898D01*
X968602Y633806D01*
X969951Y636144D01*
X970650Y638750D01*
Y641449D01*
X969951Y644056D01*
X968602Y646394D01*
X966694Y648302D01*
X964356Y649651D01*
X961749Y650350D01*
D02*
G37*
G36*
X936349D02*
X933651D01*
X931044Y649651D01*
X928706Y648302D01*
X926798Y646394D01*
X925449Y644056D01*
X924750Y641449D01*
Y638750D01*
X925449Y636144D01*
X926798Y633806D01*
X928706Y631898D01*
X931044Y630548D01*
X933651Y629850D01*
X936349D01*
X938956Y630548D01*
X941294Y631898D01*
X943202Y633806D01*
X944551Y636144D01*
X945250Y638750D01*
Y641449D01*
X944551Y644056D01*
X943202Y646394D01*
X941294Y648302D01*
X938956Y649651D01*
X936349Y650350D01*
D02*
G37*
G36*
X919850Y639100D02*
X910600D01*
Y629850D01*
X910949D01*
X913556Y630548D01*
X915894Y631898D01*
X917802Y633806D01*
X919152Y636144D01*
X919850Y638750D01*
Y639100D01*
D02*
G37*
G36*
X908600D02*
X899350D01*
Y638750D01*
X900049Y636144D01*
X901398Y633806D01*
X903306Y631898D01*
X905644Y630548D01*
X908251Y629850D01*
X908600D01*
Y639100D01*
D02*
G37*
G36*
X910949Y624950D02*
X910600D01*
Y615700D01*
X919850D01*
Y616049D01*
X919152Y618656D01*
X917802Y620994D01*
X915894Y622902D01*
X913556Y624251D01*
X910949Y624950D01*
D02*
G37*
G36*
X908600D02*
X908251D01*
X905644Y624251D01*
X903306Y622902D01*
X901398Y620994D01*
X900049Y618656D01*
X899350Y616049D01*
Y615700D01*
X908600D01*
Y624950D01*
D02*
G37*
G36*
X961749D02*
X959051D01*
X956444Y624251D01*
X954106Y622902D01*
X952198Y620994D01*
X950848Y618656D01*
X950150Y616049D01*
Y613350D01*
X950848Y610744D01*
X952198Y608406D01*
X954106Y606498D01*
X956444Y605148D01*
X959051Y604450D01*
X961749D01*
X964356Y605148D01*
X966694Y606498D01*
X968602Y608406D01*
X969951Y610744D01*
X970650Y613350D01*
Y616049D01*
X969951Y618656D01*
X968602Y620994D01*
X966694Y622902D01*
X964356Y624251D01*
X961749Y624950D01*
D02*
G37*
G36*
X936349D02*
X933651D01*
X931044Y624251D01*
X928706Y622902D01*
X926798Y620994D01*
X925449Y618656D01*
X924750Y616049D01*
Y613350D01*
X925449Y610744D01*
X926798Y608406D01*
X928706Y606498D01*
X931044Y605148D01*
X933651Y604450D01*
X936349D01*
X938956Y605148D01*
X941294Y606498D01*
X943202Y608406D01*
X944551Y610744D01*
X945250Y613350D01*
Y616049D01*
X944551Y618656D01*
X943202Y620994D01*
X941294Y622902D01*
X938956Y624251D01*
X936349Y624950D01*
D02*
G37*
G36*
X919850Y613700D02*
X910600D01*
Y604450D01*
X910949D01*
X913556Y605148D01*
X915894Y606498D01*
X917802Y608406D01*
X919152Y610744D01*
X919850Y613350D01*
Y613700D01*
D02*
G37*
G36*
X908600D02*
X899350D01*
Y613350D01*
X900049Y610744D01*
X901398Y608406D01*
X903306Y606498D01*
X905644Y605148D01*
X908251Y604450D01*
X908600D01*
Y613700D01*
D02*
G37*
G36*
X771413Y644500D02*
X766587D01*
X761854Y643559D01*
X757395Y641712D01*
X753382Y639030D01*
X749970Y635618D01*
X747288Y631605D01*
X745442Y627146D01*
X744500Y622413D01*
Y617587D01*
X745442Y612854D01*
X747288Y608395D01*
X749970Y604382D01*
X753382Y600970D01*
X757395Y598288D01*
X761854Y596441D01*
X766587Y595500D01*
X771413D01*
X776146Y596441D01*
X780605Y598288D01*
X784618Y600970D01*
X788030Y604382D01*
X790712Y608395D01*
X792559Y612854D01*
X793500Y617587D01*
Y622413D01*
X792559Y627146D01*
X790712Y631605D01*
X788030Y635618D01*
X784618Y639030D01*
X780605Y641712D01*
X776146Y643559D01*
X771413Y644500D01*
D02*
G37*
G36*
X331413D02*
X326587D01*
X321854Y643559D01*
X317395Y641712D01*
X313382Y639030D01*
X309970Y635618D01*
X307288Y631605D01*
X305441Y627146D01*
X304500Y622413D01*
Y617587D01*
X305441Y612854D01*
X307288Y608395D01*
X309970Y604382D01*
X313382Y600970D01*
X317395Y598288D01*
X321854Y596441D01*
X326587Y595500D01*
X331413D01*
X336146Y596441D01*
X340605Y598288D01*
X344618Y600970D01*
X348030Y604382D01*
X350712Y608395D01*
X352559Y612854D01*
X353500Y617587D01*
Y622413D01*
X352559Y627146D01*
X350712Y631605D01*
X348030Y635618D01*
X344618Y639030D01*
X340605Y641712D01*
X336146Y643559D01*
X331413Y644500D01*
D02*
G37*
G36*
X141416Y603440D02*
X139427D01*
X137590Y602679D01*
X136183Y601272D01*
X135422Y599435D01*
Y597445D01*
X136183Y595608D01*
X137590Y594201D01*
X139427Y593440D01*
X141416D01*
X143254Y594201D01*
X144661Y595608D01*
X145422Y597445D01*
Y599435D01*
X144661Y601272D01*
X143254Y602679D01*
X141416Y603440D01*
D02*
G37*
G36*
X570995Y602500D02*
X569006D01*
X567168Y601739D01*
X565761Y600332D01*
X565000Y598495D01*
Y596506D01*
X565761Y594668D01*
X567168Y593261D01*
X569006Y592500D01*
X570995D01*
X572832Y593261D01*
X574239Y594668D01*
X575000Y596506D01*
Y598495D01*
X574239Y600332D01*
X572832Y601739D01*
X570995Y602500D01*
D02*
G37*
G36*
X295686Y601170D02*
X293697D01*
X291859Y600409D01*
X290453Y599002D01*
X289692Y597164D01*
Y595175D01*
X290453Y593338D01*
X291859Y591931D01*
X293697Y591170D01*
X295686D01*
X297524Y591931D01*
X298931Y593338D01*
X299692Y595175D01*
Y597164D01*
X298931Y599002D01*
X297524Y600409D01*
X295686Y601170D01*
D02*
G37*
G36*
X910949Y599550D02*
X910600D01*
Y590300D01*
X919850D01*
Y590649D01*
X919152Y593256D01*
X917802Y595594D01*
X915894Y597502D01*
X913556Y598851D01*
X910949Y599550D01*
D02*
G37*
G36*
X908600D02*
X908251D01*
X905644Y598851D01*
X903306Y597502D01*
X901398Y595594D01*
X900049Y593256D01*
X899350Y590649D01*
Y590300D01*
X908600D01*
Y599550D01*
D02*
G37*
G36*
X428495Y592500D02*
X426506D01*
X424668Y591739D01*
X423261Y590332D01*
X422500Y588495D01*
Y586506D01*
X423261Y584668D01*
X424668Y583261D01*
X426506Y582500D01*
X428495D01*
X430332Y583261D01*
X431739Y584668D01*
X432500Y586506D01*
Y588495D01*
X431739Y590332D01*
X430332Y591739D01*
X428495Y592500D01*
D02*
G37*
G36*
X961749Y599550D02*
X959051D01*
X956444Y598851D01*
X954106Y597502D01*
X952198Y595594D01*
X950848Y593256D01*
X950150Y590649D01*
Y587951D01*
X950848Y585344D01*
X952198Y583006D01*
X954106Y581098D01*
X956444Y579748D01*
X959051Y579050D01*
X961749D01*
X964356Y579748D01*
X966694Y581098D01*
X968602Y583006D01*
X969951Y585344D01*
X970650Y587951D01*
Y590649D01*
X969951Y593256D01*
X968602Y595594D01*
X966694Y597502D01*
X964356Y598851D01*
X961749Y599550D01*
D02*
G37*
G36*
X936349D02*
X933651D01*
X931044Y598851D01*
X928706Y597502D01*
X926798Y595594D01*
X925449Y593256D01*
X924750Y590649D01*
Y587951D01*
X925449Y585344D01*
X926798Y583006D01*
X928706Y581098D01*
X931044Y579748D01*
X933651Y579050D01*
X936349D01*
X938956Y579748D01*
X941294Y581098D01*
X943202Y583006D01*
X944551Y585344D01*
X945250Y587951D01*
Y590649D01*
X944551Y593256D01*
X943202Y595594D01*
X941294Y597502D01*
X938956Y598851D01*
X936349Y599550D01*
D02*
G37*
G36*
X919850Y588300D02*
X910600D01*
Y579050D01*
X910949D01*
X913556Y579748D01*
X915894Y581098D01*
X917802Y583006D01*
X919152Y585344D01*
X919850Y587951D01*
Y588300D01*
D02*
G37*
G36*
X908600D02*
X899350D01*
Y587951D01*
X900049Y585344D01*
X901398Y583006D01*
X903306Y581098D01*
X905644Y579748D01*
X908251Y579050D01*
X908600D01*
Y588300D01*
D02*
G37*
G36*
X521265Y586480D02*
X519276D01*
X517438Y585719D01*
X516031Y584312D01*
X515270Y582475D01*
Y580485D01*
X516031Y578648D01*
X517438Y577241D01*
X519276Y576480D01*
X521265D01*
X523102Y577241D01*
X524509Y578648D01*
X525270Y580485D01*
Y582475D01*
X524509Y584312D01*
X523102Y585719D01*
X521265Y586480D01*
D02*
G37*
G36*
X246686Y585170D02*
X244697D01*
X242859Y584409D01*
X241453Y583002D01*
X240692Y581165D01*
Y579175D01*
X241453Y577338D01*
X242859Y575931D01*
X244697Y575170D01*
X246686D01*
X248524Y575931D01*
X249931Y577338D01*
X250692Y579175D01*
Y581165D01*
X249931Y583002D01*
X248524Y584409D01*
X246686Y585170D01*
D02*
G37*
G36*
X487265Y583640D02*
X485275D01*
X483438Y582879D01*
X482031Y581472D01*
X481270Y579635D01*
Y577645D01*
X482031Y575808D01*
X483438Y574401D01*
X485275Y573640D01*
X487265D01*
X489102Y574401D01*
X490509Y575808D01*
X491270Y577645D01*
Y579635D01*
X490509Y581472D01*
X489102Y582879D01*
X487265Y583640D01*
D02*
G37*
G36*
X212686Y582330D02*
X210697D01*
X208860Y581569D01*
X207453Y580162D01*
X206692Y578325D01*
Y576335D01*
X207453Y574498D01*
X208860Y573091D01*
X210697Y572330D01*
X212686D01*
X214524Y573091D01*
X215931Y574498D01*
X216692Y576335D01*
Y578325D01*
X215931Y580162D01*
X214524Y581569D01*
X212686Y582330D01*
D02*
G37*
G36*
X910949Y574150D02*
X910600D01*
Y564900D01*
X919850D01*
Y565249D01*
X919152Y567856D01*
X917802Y570194D01*
X915894Y572102D01*
X913556Y573451D01*
X910949Y574150D01*
D02*
G37*
G36*
X908600D02*
X908251D01*
X905644Y573451D01*
X903306Y572102D01*
X901398Y570194D01*
X900049Y567856D01*
X899350Y565249D01*
Y564900D01*
X908600D01*
Y574150D01*
D02*
G37*
G36*
X173995Y572000D02*
X172005D01*
X170168Y571239D01*
X168761Y569832D01*
X168000Y567995D01*
Y566005D01*
X168761Y564168D01*
X170168Y562761D01*
X172005Y562000D01*
X173995D01*
X175832Y562761D01*
X177239Y564168D01*
X178000Y566005D01*
Y567995D01*
X177239Y569832D01*
X175832Y571239D01*
X173995Y572000D01*
D02*
G37*
G36*
X467265Y567480D02*
X465275D01*
X463438Y566719D01*
X462031Y565312D01*
X461270Y563475D01*
Y561485D01*
X462031Y559648D01*
X463438Y558241D01*
X465275Y557480D01*
X467265D01*
X469102Y558241D01*
X470509Y559648D01*
X471270Y561485D01*
Y563475D01*
X470509Y565312D01*
X469102Y566719D01*
X467265Y567480D01*
D02*
G37*
G36*
X192686Y566170D02*
X190697D01*
X188860Y565409D01*
X187453Y564002D01*
X186692Y562164D01*
Y560175D01*
X187453Y558338D01*
X188860Y556931D01*
X190697Y556170D01*
X192686D01*
X194524Y556931D01*
X195931Y558338D01*
X196692Y560175D01*
Y562164D01*
X195931Y564002D01*
X194524Y565409D01*
X192686Y566170D01*
D02*
G37*
G36*
X961749Y574150D02*
X959051D01*
X956444Y573451D01*
X954106Y572102D01*
X952198Y570194D01*
X950848Y567856D01*
X950150Y565249D01*
Y562551D01*
X950848Y559944D01*
X952198Y557606D01*
X954106Y555698D01*
X956444Y554348D01*
X959051Y553650D01*
X961749D01*
X964356Y554348D01*
X966694Y555698D01*
X968602Y557606D01*
X969951Y559944D01*
X970650Y562551D01*
Y565249D01*
X969951Y567856D01*
X968602Y570194D01*
X966694Y572102D01*
X964356Y573451D01*
X961749Y574150D01*
D02*
G37*
G36*
X936349D02*
X933651D01*
X931044Y573451D01*
X928706Y572102D01*
X926798Y570194D01*
X925449Y567856D01*
X924750Y565249D01*
Y562551D01*
X925449Y559944D01*
X926798Y557606D01*
X928706Y555698D01*
X931044Y554348D01*
X933651Y553650D01*
X936349D01*
X938956Y554348D01*
X941294Y555698D01*
X943202Y557606D01*
X944551Y559944D01*
X945250Y562551D01*
Y565249D01*
X944551Y567856D01*
X943202Y570194D01*
X941294Y572102D01*
X938956Y573451D01*
X936349Y574150D01*
D02*
G37*
G36*
X919850Y562900D02*
X910600D01*
Y553650D01*
X910949D01*
X913556Y554348D01*
X915894Y555698D01*
X917802Y557606D01*
X919152Y559944D01*
X919850Y562551D01*
Y562900D01*
D02*
G37*
G36*
X908600D02*
X899350D01*
Y562551D01*
X900049Y559944D01*
X901398Y557606D01*
X903306Y555698D01*
X905644Y554348D01*
X908251Y553650D01*
X908600D01*
Y562900D01*
D02*
G37*
G36*
X910949Y548750D02*
X910600D01*
Y539500D01*
X919850D01*
Y539849D01*
X919152Y542456D01*
X917802Y544794D01*
X915894Y546702D01*
X913556Y548051D01*
X910949Y548750D01*
D02*
G37*
G36*
X908600D02*
X908251D01*
X905644Y548051D01*
X903306Y546702D01*
X901398Y544794D01*
X900049Y542456D01*
X899350Y539849D01*
Y539500D01*
X908600D01*
Y548750D01*
D02*
G37*
G36*
X456096Y547649D02*
X454107D01*
X452269Y546887D01*
X450863Y545481D01*
X450102Y543643D01*
Y541654D01*
X450863Y539816D01*
X452269Y538410D01*
X454107Y537649D01*
X456096D01*
X457934Y538410D01*
X459341Y539816D01*
X460102Y541654D01*
Y543643D01*
X459341Y545481D01*
X457934Y546887D01*
X456096Y547649D01*
D02*
G37*
G36*
X181518Y546338D02*
X179529D01*
X177691Y545577D01*
X176285Y544171D01*
X175523Y542333D01*
Y540344D01*
X176285Y538506D01*
X177691Y537100D01*
X179529Y536338D01*
X181518D01*
X183356Y537100D01*
X184762Y538506D01*
X185523Y540344D01*
Y542333D01*
X184762Y544171D01*
X183356Y545577D01*
X181518Y546338D01*
D02*
G37*
G36*
X424995Y543000D02*
X423005D01*
X421168Y542239D01*
X419761Y540832D01*
X419000Y538995D01*
Y537005D01*
X419761Y535168D01*
X421168Y533761D01*
X423005Y533000D01*
X424995D01*
X426832Y533761D01*
X428239Y535168D01*
X429000Y537005D01*
Y538995D01*
X428239Y540832D01*
X426832Y542239D01*
X424995Y543000D01*
D02*
G37*
G36*
X817368Y529078D02*
X660814D01*
X660550Y529026D01*
X660281Y529044D01*
X653783Y528188D01*
X653528Y528102D01*
X653260Y528084D01*
X646929Y526387D01*
X646688Y526269D01*
X646424Y526216D01*
X640368Y523708D01*
X640145Y523558D01*
X639890Y523472D01*
X634214Y520195D01*
X634011Y520017D01*
X633770Y519898D01*
X628570Y515908D01*
X628393Y515706D01*
X628169Y515556D01*
X623534Y510922D01*
X623385Y510698D01*
X623183Y510521D01*
X619193Y505321D01*
X619074Y505080D01*
X618896Y504877D01*
X615619Y499201D01*
X615533Y498946D01*
X615383Y498723D01*
X612875Y492667D01*
X612822Y492403D01*
X612703Y492162D01*
X611007Y485831D01*
X610989Y485563D01*
X610903Y485308D01*
X610047Y478810D01*
X610065Y478541D01*
X610013Y478277D01*
Y471723D01*
X610065Y471459D01*
X610047Y471190D01*
X610903Y464692D01*
X610989Y464437D01*
X611007Y464169D01*
X612703Y457838D01*
X612822Y457597D01*
X612875Y457333D01*
X615383Y451277D01*
X615533Y451054D01*
X615619Y450799D01*
X618896Y445123D01*
X619074Y444921D01*
X619193Y444679D01*
X623183Y439479D01*
X623385Y439302D01*
X623534Y439078D01*
X628169Y434444D01*
X628393Y434294D01*
X628570Y434092D01*
X633770Y430102D01*
X634011Y429983D01*
X634214Y429805D01*
X639890Y426528D01*
X640145Y426442D01*
X640368Y426292D01*
X646424Y423784D01*
X646688Y423731D01*
X646929Y423613D01*
X653260Y421916D01*
X653528Y421898D01*
X653783Y421812D01*
X660281Y420957D01*
X660550Y420974D01*
X660814Y420922D01*
X817368D01*
X817632Y420974D01*
X817900Y420957D01*
X824399Y421812D01*
X824653Y421898D01*
X824922Y421916D01*
X831253Y423613D01*
X831494Y423731D01*
X831758Y423784D01*
X837813Y426292D01*
X838037Y426442D01*
X838292Y426528D01*
X843968Y429805D01*
X844170Y429983D01*
X844412Y430102D01*
X849612Y434092D01*
X849789Y434294D01*
X850013Y434444D01*
X854647Y439078D01*
X854797Y439302D01*
X854999Y439479D01*
X858989Y444679D01*
X859108Y444921D01*
X859286Y445123D01*
X862563Y450799D01*
X862649Y451054D01*
X862799Y451277D01*
X865307Y457333D01*
X865359Y457597D01*
X865478Y457838D01*
X867175Y464169D01*
X867192Y464437D01*
X867279Y464692D01*
X868134Y471190D01*
X868117Y471459D01*
X868169Y471723D01*
Y478277D01*
X868117Y478541D01*
X868134Y478810D01*
X867279Y485308D01*
X867192Y485563D01*
X867175Y485831D01*
X865478Y492162D01*
X865359Y492403D01*
X865307Y492667D01*
X862799Y498723D01*
X862649Y498946D01*
X862563Y499201D01*
X859286Y504877D01*
X859108Y505079D01*
X858989Y505321D01*
X854999Y510521D01*
X854797Y510698D01*
X854647Y510922D01*
X850013Y515556D01*
X849789Y515706D01*
X849612Y515908D01*
X844412Y519898D01*
X844171Y520017D01*
X843968Y520195D01*
X838292Y523472D01*
X838037Y523558D01*
X837813Y523708D01*
X831758Y526216D01*
X831494Y526269D01*
X831253Y526387D01*
X824922Y528084D01*
X824653Y528102D01*
X824399Y528188D01*
X817900Y529044D01*
X817632Y529026D01*
X817368Y529078D01*
D02*
G37*
G36*
X961749Y548750D02*
X959051D01*
X956444Y548051D01*
X954106Y546702D01*
X952198Y544794D01*
X950848Y542456D01*
X950150Y539849D01*
Y537150D01*
X950848Y534544D01*
X952198Y532206D01*
X954106Y530298D01*
X956444Y528948D01*
X959051Y528250D01*
X961749D01*
X964356Y528948D01*
X966694Y530298D01*
X968602Y532206D01*
X969951Y534544D01*
X970650Y537150D01*
Y539849D01*
X969951Y542456D01*
X968602Y544794D01*
X966694Y546702D01*
X964356Y548051D01*
X961749Y548750D01*
D02*
G37*
G36*
X936349D02*
X933651D01*
X931044Y548051D01*
X928706Y546702D01*
X926798Y544794D01*
X925449Y542456D01*
X924750Y539849D01*
Y537150D01*
X925449Y534544D01*
X926798Y532206D01*
X928706Y530298D01*
X931044Y528948D01*
X933651Y528250D01*
X936349D01*
X938956Y528948D01*
X941294Y530298D01*
X943202Y532206D01*
X944551Y534544D01*
X945250Y537150D01*
Y539849D01*
X944551Y542456D01*
X943202Y544794D01*
X941294Y546702D01*
X938956Y548051D01*
X936349Y548750D01*
D02*
G37*
G36*
X919850Y537500D02*
X910600D01*
Y528250D01*
X910949D01*
X913556Y528948D01*
X915894Y530298D01*
X917802Y532206D01*
X919152Y534544D01*
X919850Y537150D01*
Y537500D01*
D02*
G37*
G36*
X908600D02*
X899350D01*
Y537150D01*
X900049Y534544D01*
X901398Y532206D01*
X903306Y530298D01*
X905644Y528948D01*
X908251Y528250D01*
X908600D01*
Y537500D01*
D02*
G37*
G36*
X910949Y523350D02*
X910600D01*
Y514100D01*
X919850D01*
Y514449D01*
X919152Y517056D01*
X917802Y519394D01*
X915894Y521302D01*
X913556Y522651D01*
X910949Y523350D01*
D02*
G37*
G36*
X908600D02*
X908251D01*
X905644Y522651D01*
X903306Y521302D01*
X901398Y519394D01*
X900049Y517056D01*
X899350Y514449D01*
Y514100D01*
X908600D01*
Y523350D01*
D02*
G37*
G36*
X466495Y521250D02*
X464506D01*
X462668Y520489D01*
X461261Y519082D01*
X460500Y517245D01*
Y515256D01*
X461261Y513418D01*
X462668Y512011D01*
X464506Y511250D01*
X466495D01*
X468332Y512011D01*
X469739Y513418D01*
X470500Y515256D01*
Y517245D01*
X469739Y519082D01*
X468332Y520489D01*
X466495Y521250D01*
D02*
G37*
G36*
X191916Y519940D02*
X189927D01*
X188090Y519179D01*
X186683Y517772D01*
X185922Y515934D01*
Y513945D01*
X186683Y512108D01*
X188090Y510701D01*
X189927Y509940D01*
X191916D01*
X193754Y510701D01*
X195161Y512108D01*
X195922Y513945D01*
Y515934D01*
X195161Y517772D01*
X193754Y519179D01*
X191916Y519940D01*
D02*
G37*
G36*
X961749Y523350D02*
X959051D01*
X956444Y522651D01*
X954106Y521302D01*
X952198Y519394D01*
X950848Y517056D01*
X950150Y514449D01*
Y511750D01*
X950848Y509144D01*
X952198Y506806D01*
X954106Y504898D01*
X956444Y503548D01*
X959051Y502850D01*
X961749D01*
X964356Y503548D01*
X966694Y504898D01*
X968602Y506806D01*
X969951Y509144D01*
X970650Y511750D01*
Y514449D01*
X969951Y517056D01*
X968602Y519394D01*
X966694Y521302D01*
X964356Y522651D01*
X961749Y523350D01*
D02*
G37*
G36*
X936349D02*
X933651D01*
X931044Y522651D01*
X928706Y521302D01*
X926798Y519394D01*
X925449Y517056D01*
X924750Y514449D01*
Y511750D01*
X925449Y509144D01*
X926798Y506806D01*
X928706Y504898D01*
X931044Y503548D01*
X933651Y502850D01*
X936349D01*
X938956Y503548D01*
X941294Y504898D01*
X943202Y506806D01*
X944551Y509144D01*
X945250Y511750D01*
Y514449D01*
X944551Y517056D01*
X943202Y519394D01*
X941294Y521302D01*
X938956Y522651D01*
X936349Y523350D01*
D02*
G37*
G36*
X919850Y512100D02*
X910600D01*
Y502850D01*
X910949D01*
X913556Y503548D01*
X915894Y504898D01*
X917802Y506806D01*
X919152Y509144D01*
X919850Y511750D01*
Y512100D01*
D02*
G37*
G36*
X908600D02*
X899350D01*
Y511750D01*
X900049Y509144D01*
X901398Y506806D01*
X903306Y504898D01*
X905644Y503548D01*
X908251Y502850D01*
X908600D01*
Y512100D01*
D02*
G37*
G36*
X562995Y513750D02*
X561006D01*
X559168Y512989D01*
X557761Y511582D01*
X557000Y509745D01*
Y507756D01*
X557761Y505918D01*
X559168Y504511D01*
X559833Y504236D01*
Y502883D01*
X559438Y502719D01*
X558031Y501312D01*
X557270Y499475D01*
Y497486D01*
X558031Y495648D01*
X559438Y494241D01*
X561275Y493480D01*
X563265D01*
X565102Y494241D01*
X566509Y495648D01*
X567270Y497486D01*
Y499475D01*
X566509Y501312D01*
X565102Y502719D01*
X564437Y502994D01*
Y504347D01*
X564832Y504511D01*
X566239Y505918D01*
X567000Y507756D01*
Y509745D01*
X566239Y511582D01*
X564832Y512989D01*
X562995Y513750D01*
D02*
G37*
G36*
X288416Y512440D02*
X286427D01*
X284590Y511679D01*
X283183Y510272D01*
X282422Y508434D01*
Y506445D01*
X283183Y504608D01*
X284590Y503201D01*
X285255Y502926D01*
Y501573D01*
X284860Y501409D01*
X283453Y500002D01*
X282692Y498164D01*
Y496175D01*
X283453Y494338D01*
X284860Y492931D01*
X286697Y492170D01*
X288686D01*
X290524Y492931D01*
X291931Y494338D01*
X292692Y496175D01*
Y498164D01*
X291931Y500002D01*
X290524Y501409D01*
X289859Y501684D01*
Y503037D01*
X290254Y503201D01*
X291661Y504608D01*
X292422Y506445D01*
Y508434D01*
X291661Y510272D01*
X290254Y511679D01*
X288416Y512440D01*
D02*
G37*
G36*
X499995Y499750D02*
X498005D01*
X496168Y498989D01*
X494761Y497582D01*
X494000Y495745D01*
Y493755D01*
X494761Y491918D01*
X496168Y490511D01*
X498005Y489750D01*
X499995D01*
X501832Y490511D01*
X503239Y491918D01*
X504000Y493755D01*
Y495745D01*
X503239Y497582D01*
X501832Y498989D01*
X499995Y499750D01*
D02*
G37*
G36*
X910949Y497950D02*
X910600D01*
Y488700D01*
X919850D01*
Y489049D01*
X919152Y491656D01*
X917802Y493994D01*
X915894Y495902D01*
X913556Y497251D01*
X910949Y497950D01*
D02*
G37*
G36*
X908600D02*
X908251D01*
X905644Y497251D01*
X903306Y495902D01*
X901398Y493994D01*
X900049Y491656D01*
X899350Y489049D01*
Y488700D01*
X908600D01*
Y497950D01*
D02*
G37*
G36*
X225416Y498440D02*
X223427D01*
X221590Y497679D01*
X220183Y496272D01*
X219422Y494435D01*
Y492445D01*
X220183Y490608D01*
X221590Y489201D01*
X223427Y488440D01*
X225416D01*
X227254Y489201D01*
X228661Y490608D01*
X229422Y492445D01*
Y494435D01*
X228661Y496272D01*
X227254Y497679D01*
X225416Y498440D01*
D02*
G37*
G36*
X515995Y498750D02*
X514006D01*
X512168Y497989D01*
X510761Y496582D01*
X510000Y494745D01*
Y492756D01*
X510761Y490918D01*
X512168Y489511D01*
X514006Y488750D01*
X515995D01*
X517832Y489511D01*
X519239Y490918D01*
X519822Y492324D01*
X520744Y492297D01*
X521115Y492181D01*
X521833Y490449D01*
X523239Y489043D01*
X525077Y488282D01*
X527066D01*
X528904Y489043D01*
X530310Y490449D01*
X530801Y491633D01*
X531205Y491674D01*
X532102Y491509D01*
X532761Y489918D01*
X534168Y488511D01*
X536006Y487750D01*
X537995D01*
X539832Y488511D01*
X541239Y489918D01*
X542000Y491755D01*
Y493745D01*
X541239Y495582D01*
X539832Y496989D01*
X537995Y497750D01*
X536006D01*
X534168Y496989D01*
X532761Y495582D01*
X532271Y494398D01*
X531867Y494357D01*
X530969Y494523D01*
X530310Y496114D01*
X528904Y497520D01*
X527066Y498282D01*
X525077D01*
X523239Y497520D01*
X521833Y496114D01*
X521250Y494707D01*
X520327Y494735D01*
X519956Y494850D01*
X519239Y496582D01*
X517832Y497989D01*
X515995Y498750D01*
D02*
G37*
G36*
X241416Y497440D02*
X239427D01*
X237589Y496679D01*
X236183Y495272D01*
X235422Y493434D01*
Y491445D01*
X236183Y489608D01*
X237589Y488201D01*
X239427Y487440D01*
X241416D01*
X243254Y488201D01*
X244661Y489608D01*
X245243Y491014D01*
X246166Y490987D01*
X246537Y490871D01*
X247255Y489139D01*
X248661Y487733D01*
X250499Y486971D01*
X252488D01*
X254326Y487733D01*
X255732Y489139D01*
X256222Y490323D01*
X256626Y490364D01*
X257524Y490199D01*
X258183Y488608D01*
X259590Y487201D01*
X261427Y486440D01*
X263416D01*
X265254Y487201D01*
X266661Y488608D01*
X267422Y490445D01*
Y492435D01*
X266661Y494272D01*
X265254Y495679D01*
X263416Y496440D01*
X261427D01*
X259590Y495679D01*
X258183Y494272D01*
X257693Y493088D01*
X257289Y493047D01*
X256391Y493213D01*
X255732Y494804D01*
X254326Y496210D01*
X252488Y496971D01*
X250499D01*
X248661Y496210D01*
X247255Y494804D01*
X246672Y493397D01*
X245749Y493425D01*
X245378Y493540D01*
X244661Y495272D01*
X243254Y496679D01*
X241416Y497440D01*
D02*
G37*
G36*
X961749Y497950D02*
X959051D01*
X956444Y497251D01*
X954106Y495902D01*
X952198Y493994D01*
X950848Y491656D01*
X950150Y489049D01*
Y486351D01*
X950848Y483744D01*
X952198Y481406D01*
X954106Y479498D01*
X956444Y478148D01*
X959051Y477450D01*
X961749D01*
X964356Y478148D01*
X966694Y479498D01*
X968602Y481406D01*
X969951Y483744D01*
X970650Y486351D01*
Y489049D01*
X969951Y491656D01*
X968602Y493994D01*
X966694Y495902D01*
X964356Y497251D01*
X961749Y497950D01*
D02*
G37*
G36*
X936349D02*
X933651D01*
X931044Y497251D01*
X928706Y495902D01*
X926798Y493994D01*
X925449Y491656D01*
X924750Y489049D01*
Y486351D01*
X925449Y483744D01*
X926798Y481406D01*
X928706Y479498D01*
X931044Y478148D01*
X933651Y477450D01*
X936349D01*
X938956Y478148D01*
X941294Y479498D01*
X943202Y481406D01*
X944551Y483744D01*
X945250Y486351D01*
Y489049D01*
X944551Y491656D01*
X943202Y493994D01*
X941294Y495902D01*
X938956Y497251D01*
X936349Y497950D01*
D02*
G37*
G36*
X919850Y486700D02*
X910600D01*
Y477450D01*
X910949D01*
X913556Y478148D01*
X915894Y479498D01*
X917802Y481406D01*
X919152Y483744D01*
X919850Y486351D01*
Y486700D01*
D02*
G37*
G36*
X908600D02*
X899350D01*
Y486351D01*
X900049Y483744D01*
X901398Y481406D01*
X903306Y479498D01*
X905644Y478148D01*
X908251Y477450D01*
X908600D01*
Y486700D01*
D02*
G37*
G36*
X28922Y486000D02*
X27078D01*
X25298Y485523D01*
X23702Y484601D01*
X22399Y483298D01*
X21477Y481702D01*
X21000Y479922D01*
Y478078D01*
X21477Y476298D01*
X22399Y474702D01*
X23702Y473399D01*
X25298Y472477D01*
X27078Y472000D01*
X28922D01*
X30702Y472477D01*
X32298Y473399D01*
X33601Y474702D01*
X34523Y476298D01*
X35000Y478078D01*
Y479922D01*
X34523Y481702D01*
X33601Y483298D01*
X32298Y484601D01*
X30702Y485523D01*
X28922Y486000D01*
D02*
G37*
G36*
X910949Y472550D02*
X910600D01*
Y463300D01*
X919850D01*
Y463649D01*
X919152Y466256D01*
X917802Y468594D01*
X915894Y470502D01*
X913556Y471851D01*
X910949Y472550D01*
D02*
G37*
G36*
X908600D02*
X908251D01*
X905644Y471851D01*
X903306Y470502D01*
X901398Y468594D01*
X900049Y466256D01*
X899350Y463649D01*
Y463300D01*
X908600D01*
Y472550D01*
D02*
G37*
G36*
X28922Y469000D02*
X27078D01*
X25298Y468523D01*
X23702Y467601D01*
X22399Y466298D01*
X21477Y464702D01*
X21000Y462922D01*
Y461078D01*
X21477Y459298D01*
X22399Y457702D01*
X23702Y456399D01*
X25298Y455477D01*
X27078Y455000D01*
X28922D01*
X30702Y455477D01*
X32298Y456399D01*
X33601Y457702D01*
X34523Y459298D01*
X35000Y461078D01*
Y462922D01*
X34523Y464702D01*
X33601Y466298D01*
X32298Y467601D01*
X30702Y468523D01*
X28922Y469000D01*
D02*
G37*
G36*
X961749Y472550D02*
X959051D01*
X956444Y471851D01*
X954106Y470502D01*
X952198Y468594D01*
X950848Y466256D01*
X950150Y463649D01*
Y460951D01*
X950848Y458344D01*
X952198Y456006D01*
X954106Y454098D01*
X956444Y452748D01*
X959051Y452050D01*
X961749D01*
X964356Y452748D01*
X966694Y454098D01*
X968602Y456006D01*
X969951Y458344D01*
X970650Y460951D01*
Y463649D01*
X969951Y466256D01*
X968602Y468594D01*
X966694Y470502D01*
X964356Y471851D01*
X961749Y472550D01*
D02*
G37*
G36*
X936349D02*
X933651D01*
X931044Y471851D01*
X928706Y470502D01*
X926798Y468594D01*
X925449Y466256D01*
X924750Y463649D01*
Y460951D01*
X925449Y458344D01*
X926798Y456006D01*
X928706Y454098D01*
X931044Y452748D01*
X933651Y452050D01*
X936349D01*
X938956Y452748D01*
X941294Y454098D01*
X943202Y456006D01*
X944551Y458344D01*
X945250Y460951D01*
Y463649D01*
X944551Y466256D01*
X943202Y468594D01*
X941294Y470502D01*
X938956Y471851D01*
X936349Y472550D01*
D02*
G37*
G36*
X919850Y461300D02*
X910600D01*
Y452050D01*
X910949D01*
X913556Y452748D01*
X915894Y454098D01*
X917802Y456006D01*
X919152Y458344D01*
X919850Y460951D01*
Y461300D01*
D02*
G37*
G36*
X908600D02*
X899350D01*
Y460951D01*
X900049Y458344D01*
X901398Y456006D01*
X903306Y454098D01*
X905644Y452748D01*
X908251Y452050D01*
X908600D01*
Y461300D01*
D02*
G37*
G36*
X28922Y452000D02*
X27078D01*
X25298Y451523D01*
X23702Y450601D01*
X22399Y449298D01*
X21477Y447702D01*
X21000Y445922D01*
Y444078D01*
X21477Y442298D01*
X22399Y440702D01*
X23702Y439399D01*
X25298Y438477D01*
X27078Y438000D01*
X28922D01*
X30702Y438477D01*
X32298Y439399D01*
X33601Y440702D01*
X34523Y442298D01*
X35000Y444078D01*
Y445922D01*
X34523Y447702D01*
X33601Y449298D01*
X32298Y450601D01*
X30702Y451523D01*
X28922Y452000D01*
D02*
G37*
G36*
X431495Y437500D02*
X429506D01*
X427668Y436739D01*
X426261Y435332D01*
X425500Y433495D01*
Y431506D01*
X426261Y429668D01*
X427668Y428261D01*
X429506Y427500D01*
X431495D01*
X433332Y428261D01*
X434739Y429668D01*
X435500Y431506D01*
Y433495D01*
X434739Y435332D01*
X433332Y436739D01*
X431495Y437500D01*
D02*
G37*
G36*
X961749Y447150D02*
X959051D01*
X956444Y446451D01*
X954106Y445102D01*
X952198Y443194D01*
X950848Y440856D01*
X950150Y438249D01*
Y435550D01*
X950848Y432944D01*
X952198Y430606D01*
X954106Y428698D01*
X956444Y427348D01*
X959051Y426650D01*
X961749D01*
X964356Y427348D01*
X966694Y428698D01*
X968602Y430606D01*
X969951Y432944D01*
X970650Y435550D01*
Y438249D01*
X969951Y440856D01*
X968602Y443194D01*
X966694Y445102D01*
X964356Y446451D01*
X961749Y447150D01*
D02*
G37*
G36*
X936349D02*
X933651D01*
X931044Y446451D01*
X928706Y445102D01*
X926798Y443194D01*
X925449Y440856D01*
X924750Y438249D01*
Y435550D01*
X925449Y432944D01*
X926798Y430606D01*
X928706Y428698D01*
X931044Y427348D01*
X933651Y426650D01*
X936349D01*
X938956Y427348D01*
X941294Y428698D01*
X943202Y430606D01*
X944551Y432944D01*
X945250Y435550D01*
Y438249D01*
X944551Y440856D01*
X943202Y443194D01*
X941294Y445102D01*
X938956Y446451D01*
X936349Y447150D01*
D02*
G37*
G36*
X910949D02*
X908251D01*
X905644Y446451D01*
X903306Y445102D01*
X901398Y443194D01*
X900049Y440856D01*
X899350Y438249D01*
Y435550D01*
X900049Y432944D01*
X901398Y430606D01*
X903306Y428698D01*
X905644Y427348D01*
X908251Y426650D01*
X910949D01*
X913556Y427348D01*
X915894Y428698D01*
X917802Y430606D01*
X919152Y432944D01*
X919850Y435550D01*
Y438249D01*
X919152Y440856D01*
X917802Y443194D01*
X915894Y445102D01*
X913556Y446451D01*
X910949Y447150D01*
D02*
G37*
G36*
X164416Y433440D02*
X162427D01*
X160590Y432679D01*
X159183Y431272D01*
X158422Y429435D01*
Y427445D01*
X159183Y425608D01*
X160590Y424201D01*
X162427Y423440D01*
X164416D01*
X166254Y424201D01*
X167661Y425608D01*
X168422Y427445D01*
Y429435D01*
X167661Y431272D01*
X166254Y432679D01*
X164416Y433440D01*
D02*
G37*
G36*
X961749Y421750D02*
X959051D01*
X956444Y421051D01*
X954106Y419702D01*
X952198Y417794D01*
X950848Y415456D01*
X950150Y412849D01*
Y410150D01*
X950848Y407544D01*
X952198Y405206D01*
X954106Y403298D01*
X956444Y401948D01*
X959051Y401250D01*
X961749D01*
X964356Y401948D01*
X966694Y403298D01*
X968602Y405206D01*
X969951Y407544D01*
X970650Y410150D01*
Y412849D01*
X969951Y415456D01*
X968602Y417794D01*
X966694Y419702D01*
X964356Y421051D01*
X961749Y421750D01*
D02*
G37*
G36*
X936349D02*
X933651D01*
X931044Y421051D01*
X928706Y419702D01*
X926798Y417794D01*
X925449Y415456D01*
X924750Y412849D01*
Y410150D01*
X925449Y407544D01*
X926798Y405206D01*
X928706Y403298D01*
X931044Y401948D01*
X933651Y401250D01*
X936349D01*
X938956Y401948D01*
X941294Y403298D01*
X943202Y405206D01*
X944551Y407544D01*
X945250Y410150D01*
Y412849D01*
X944551Y415456D01*
X943202Y417794D01*
X941294Y419702D01*
X938956Y421051D01*
X936349Y421750D01*
D02*
G37*
G36*
X910949D02*
X908251D01*
X905644Y421051D01*
X903306Y419702D01*
X901398Y417794D01*
X900049Y415456D01*
X899350Y412849D01*
Y410150D01*
X900049Y407544D01*
X901398Y405206D01*
X903306Y403298D01*
X905644Y401948D01*
X908251Y401250D01*
X910949D01*
X913556Y401948D01*
X915894Y403298D01*
X917802Y405206D01*
X919152Y407544D01*
X919850Y410150D01*
Y412849D01*
X919152Y415456D01*
X917802Y417794D01*
X915894Y419702D01*
X913556Y421051D01*
X910949Y421750D01*
D02*
G37*
G36*
X498995Y395750D02*
X497006D01*
X495168Y394989D01*
X493761Y393582D01*
X493000Y391745D01*
Y389756D01*
X493761Y387918D01*
X495168Y386511D01*
X497006Y385750D01*
X498995D01*
X500832Y386511D01*
X502239Y387918D01*
X503000Y389756D01*
Y391745D01*
X502239Y393582D01*
X500832Y394989D01*
X498995Y395750D01*
D02*
G37*
G36*
X224416Y394440D02*
X222427D01*
X220590Y393679D01*
X219183Y392272D01*
X218422Y390435D01*
Y388445D01*
X219183Y386608D01*
X220590Y385201D01*
X222427Y384440D01*
X224416D01*
X226254Y385201D01*
X227661Y386608D01*
X228422Y388445D01*
Y390435D01*
X227661Y392272D01*
X226254Y393679D01*
X224416Y394440D01*
D02*
G37*
G36*
X440494Y393000D02*
X438505D01*
X436667Y392239D01*
X435261Y390832D01*
X434500Y388994D01*
Y387005D01*
X435261Y385167D01*
X436667Y383761D01*
X438505Y383000D01*
X440494D01*
X442332Y383761D01*
X443739Y385167D01*
X444500Y387005D01*
Y388994D01*
X443739Y390832D01*
X442332Y392239D01*
X440494Y393000D01*
D02*
G37*
G36*
X344494D02*
X342505D01*
X340667Y392239D01*
X339261Y390832D01*
X338500Y388994D01*
Y387005D01*
X339261Y385167D01*
X340667Y383761D01*
X342505Y383000D01*
X344494D01*
X346332Y383761D01*
X347738Y385167D01*
X348500Y387005D01*
Y388994D01*
X347738Y390832D01*
X346332Y392239D01*
X344494Y393000D01*
D02*
G37*
G36*
X961749Y396350D02*
X959051D01*
X956444Y395651D01*
X954106Y394302D01*
X952198Y392394D01*
X950848Y390056D01*
X950150Y387449D01*
Y384751D01*
X950848Y382144D01*
X952198Y379806D01*
X954106Y377898D01*
X956444Y376548D01*
X959051Y375850D01*
X961749D01*
X964356Y376548D01*
X966694Y377898D01*
X968602Y379806D01*
X969951Y382144D01*
X970650Y384751D01*
Y387449D01*
X969951Y390056D01*
X968602Y392394D01*
X966694Y394302D01*
X964356Y395651D01*
X961749Y396350D01*
D02*
G37*
G36*
X936349D02*
X933651D01*
X931044Y395651D01*
X928706Y394302D01*
X926798Y392394D01*
X925449Y390056D01*
X924750Y387449D01*
Y384751D01*
X925449Y382144D01*
X926798Y379806D01*
X928706Y377898D01*
X931044Y376548D01*
X933651Y375850D01*
X936349D01*
X938956Y376548D01*
X941294Y377898D01*
X943202Y379806D01*
X944551Y382144D01*
X945250Y384751D01*
Y387449D01*
X944551Y390056D01*
X943202Y392394D01*
X941294Y394302D01*
X938956Y395651D01*
X936349Y396350D01*
D02*
G37*
G36*
X910949D02*
X908251D01*
X905644Y395651D01*
X903306Y394302D01*
X901398Y392394D01*
X900049Y390056D01*
X899350Y387449D01*
Y384751D01*
X900049Y382144D01*
X901398Y379806D01*
X903306Y377898D01*
X905644Y376548D01*
X908251Y375850D01*
X910949D01*
X913556Y376548D01*
X915894Y377898D01*
X917802Y379806D01*
X919152Y382144D01*
X919850Y384751D01*
Y387449D01*
X919152Y390056D01*
X917802Y392394D01*
X915894Y394302D01*
X913556Y395651D01*
X910949Y396350D01*
D02*
G37*
G36*
X416494Y377000D02*
X414505D01*
X412667Y376239D01*
X411261Y374832D01*
X410500Y372994D01*
Y371005D01*
X411261Y369167D01*
X412667Y367761D01*
X414505Y367000D01*
X416494D01*
X418332Y367761D01*
X419739Y369167D01*
X420500Y371005D01*
Y372994D01*
X419739Y374832D01*
X418332Y376239D01*
X416494Y377000D01*
D02*
G37*
G36*
X400494D02*
X398505D01*
X396667Y376239D01*
X395261Y374832D01*
X394500Y372994D01*
Y371005D01*
X395261Y369167D01*
X396667Y367761D01*
X398505Y367000D01*
X400494D01*
X402332Y367761D01*
X403739Y369167D01*
X404500Y371005D01*
Y372994D01*
X403739Y374832D01*
X402332Y376239D01*
X400494Y377000D01*
D02*
G37*
G36*
X384494D02*
X382505D01*
X380667Y376239D01*
X379261Y374832D01*
X378500Y372994D01*
Y371005D01*
X379261Y369167D01*
X380667Y367761D01*
X382505Y367000D01*
X384494D01*
X386332Y367761D01*
X387738Y369167D01*
X388500Y371005D01*
Y372994D01*
X387738Y374832D01*
X386332Y376239D01*
X384494Y377000D01*
D02*
G37*
G36*
X368494D02*
X366505D01*
X364667Y376239D01*
X363261Y374832D01*
X362500Y372994D01*
Y371005D01*
X363261Y369167D01*
X364667Y367761D01*
X366505Y367000D01*
X368494D01*
X370332Y367761D01*
X371739Y369167D01*
X372500Y371005D01*
Y372994D01*
X371739Y374832D01*
X370332Y376239D01*
X368494Y377000D01*
D02*
G37*
G36*
X352494D02*
X350505D01*
X348667Y376239D01*
X347261Y374832D01*
X346500Y372994D01*
Y371005D01*
X347261Y369167D01*
X348667Y367761D01*
X350505Y367000D01*
X352494D01*
X354332Y367761D01*
X355738Y369167D01*
X356500Y371005D01*
Y372994D01*
X355738Y374832D01*
X354332Y376239D01*
X352494Y377000D01*
D02*
G37*
G36*
X518265Y367480D02*
X516275D01*
X514438Y366719D01*
X513031Y365312D01*
X512270Y363475D01*
Y361485D01*
X513031Y359648D01*
X514438Y358241D01*
X516275Y357480D01*
X518265D01*
X520102Y358241D01*
X521509Y359648D01*
X522270Y361485D01*
Y363475D01*
X521509Y365312D01*
X520102Y366719D01*
X518265Y367480D01*
D02*
G37*
G36*
X243686Y366170D02*
X241697D01*
X239860Y365409D01*
X238453Y364002D01*
X237692Y362164D01*
Y360175D01*
X238453Y358338D01*
X239860Y356931D01*
X241697Y356170D01*
X243686D01*
X245524Y356931D01*
X246931Y358338D01*
X247692Y360175D01*
Y362164D01*
X246931Y364002D01*
X245524Y365409D01*
X243686Y366170D01*
D02*
G37*
G36*
X360494Y361000D02*
X358505D01*
X356667Y360238D01*
X355261Y358832D01*
X354500Y356994D01*
Y355005D01*
X355261Y353167D01*
X356667Y351761D01*
X358505Y351000D01*
X360494D01*
X362332Y351761D01*
X363739Y353167D01*
X364500Y355005D01*
Y356994D01*
X363739Y358832D01*
X362332Y360238D01*
X360494Y361000D01*
D02*
G37*
G36*
X961749Y370950D02*
X959051D01*
X956444Y370251D01*
X954106Y368902D01*
X952198Y366994D01*
X950848Y364656D01*
X950150Y362049D01*
Y359351D01*
X950848Y356744D01*
X952198Y354406D01*
X954106Y352498D01*
X956444Y351148D01*
X959051Y350450D01*
X961749D01*
X964356Y351148D01*
X966694Y352498D01*
X968602Y354406D01*
X969951Y356744D01*
X970650Y359351D01*
Y362049D01*
X969951Y364656D01*
X968602Y366994D01*
X966694Y368902D01*
X964356Y370251D01*
X961749Y370950D01*
D02*
G37*
G36*
X936349D02*
X933651D01*
X931044Y370251D01*
X928706Y368902D01*
X926798Y366994D01*
X925449Y364656D01*
X924750Y362049D01*
Y359351D01*
X925449Y356744D01*
X926798Y354406D01*
X928706Y352498D01*
X931044Y351148D01*
X933651Y350450D01*
X936349D01*
X938956Y351148D01*
X941294Y352498D01*
X943202Y354406D01*
X944551Y356744D01*
X945250Y359351D01*
Y362049D01*
X944551Y364656D01*
X943202Y366994D01*
X941294Y368902D01*
X938956Y370251D01*
X936349Y370950D01*
D02*
G37*
G36*
X910949D02*
X908251D01*
X905644Y370251D01*
X903306Y368902D01*
X901398Y366994D01*
X900049Y364656D01*
X899350Y362049D01*
Y359351D01*
X900049Y356744D01*
X901398Y354406D01*
X903306Y352498D01*
X905644Y351148D01*
X908251Y350450D01*
X910949D01*
X913556Y351148D01*
X915894Y352498D01*
X917802Y354406D01*
X919152Y356744D01*
X919850Y359351D01*
Y362049D01*
X919152Y364656D01*
X917802Y366994D01*
X915894Y368902D01*
X913556Y370251D01*
X910949Y370950D01*
D02*
G37*
G36*
X528494Y345000D02*
X526505D01*
X524667Y344239D01*
X523261Y342832D01*
X522500Y340994D01*
Y339005D01*
X523261Y337167D01*
X524667Y335761D01*
X526505Y335000D01*
X528494D01*
X530332Y335761D01*
X531738Y337167D01*
X532500Y339005D01*
Y340994D01*
X531738Y342832D01*
X530332Y344239D01*
X528494Y345000D01*
D02*
G37*
G36*
X512494D02*
X510505D01*
X508667Y344239D01*
X507261Y342832D01*
X506500Y340994D01*
Y339005D01*
X507261Y337167D01*
X508667Y335761D01*
X510505Y335000D01*
X512494D01*
X514332Y335761D01*
X515738Y337167D01*
X516500Y339005D01*
Y340994D01*
X515738Y342832D01*
X514332Y344239D01*
X512494Y345000D01*
D02*
G37*
G36*
X496494D02*
X494505D01*
X492667Y344239D01*
X491261Y342832D01*
X490500Y340994D01*
Y339005D01*
X491261Y337167D01*
X492667Y335761D01*
X494505Y335000D01*
X496494D01*
X498332Y335761D01*
X499738Y337167D01*
X500500Y339005D01*
Y340994D01*
X499738Y342832D01*
X498332Y344239D01*
X496494Y345000D01*
D02*
G37*
G36*
X480494D02*
X478505D01*
X476667Y344239D01*
X475261Y342832D01*
X474500Y340994D01*
Y339005D01*
X475261Y337167D01*
X476667Y335761D01*
X478505Y335000D01*
X480494D01*
X482332Y335761D01*
X483739Y337167D01*
X484500Y339005D01*
Y340994D01*
X483739Y342832D01*
X482332Y344239D01*
X480494Y345000D01*
D02*
G37*
G36*
X464494D02*
X462505D01*
X460667Y344239D01*
X459261Y342832D01*
X458500Y340994D01*
Y339005D01*
X459261Y337167D01*
X460667Y335761D01*
X462505Y335000D01*
X464494D01*
X466332Y335761D01*
X467738Y337167D01*
X468500Y339005D01*
Y340994D01*
X467738Y342832D01*
X466332Y344239D01*
X464494Y345000D01*
D02*
G37*
G36*
X448494D02*
X446505D01*
X444667Y344239D01*
X443261Y342832D01*
X442500Y340994D01*
Y339005D01*
X443261Y337167D01*
X444667Y335761D01*
X446505Y335000D01*
X448494D01*
X450332Y335761D01*
X451739Y337167D01*
X452500Y339005D01*
Y340994D01*
X451739Y342832D01*
X450332Y344239D01*
X448494Y345000D01*
D02*
G37*
G36*
X961749Y345550D02*
X959051D01*
X956444Y344851D01*
X954106Y343502D01*
X952198Y341594D01*
X950848Y339256D01*
X950150Y336649D01*
Y333951D01*
X950848Y331344D01*
X952198Y329006D01*
X954106Y327098D01*
X956444Y325748D01*
X959051Y325050D01*
X961749D01*
X964356Y325748D01*
X966694Y327098D01*
X968602Y329006D01*
X969951Y331344D01*
X970650Y333951D01*
Y336649D01*
X969951Y339256D01*
X968602Y341594D01*
X966694Y343502D01*
X964356Y344851D01*
X961749Y345550D01*
D02*
G37*
G36*
X936349D02*
X933651D01*
X931044Y344851D01*
X928706Y343502D01*
X926798Y341594D01*
X925449Y339256D01*
X924750Y336649D01*
Y333951D01*
X925449Y331344D01*
X926798Y329006D01*
X928706Y327098D01*
X931044Y325748D01*
X933651Y325050D01*
X936349D01*
X938956Y325748D01*
X941294Y327098D01*
X943202Y329006D01*
X944551Y331344D01*
X945250Y333951D01*
Y336649D01*
X944551Y339256D01*
X943202Y341594D01*
X941294Y343502D01*
X938956Y344851D01*
X936349Y345550D01*
D02*
G37*
G36*
X910949D02*
X908251D01*
X905644Y344851D01*
X903306Y343502D01*
X901398Y341594D01*
X900049Y339256D01*
X899350Y336649D01*
Y333951D01*
X900049Y331344D01*
X901398Y329006D01*
X903306Y327098D01*
X905644Y325748D01*
X908251Y325050D01*
X910949D01*
X913556Y325748D01*
X915894Y327098D01*
X917802Y329006D01*
X919152Y331344D01*
X919850Y333951D01*
Y336649D01*
X919152Y339256D01*
X917802Y341594D01*
X915894Y343502D01*
X913556Y344851D01*
X910949Y345550D01*
D02*
G37*
G36*
X855995Y335000D02*
X854005D01*
X852168Y334239D01*
X850761Y332832D01*
X850000Y330995D01*
Y329005D01*
X850761Y327168D01*
X852168Y325761D01*
X854005Y325000D01*
X855995D01*
X857832Y325761D01*
X859239Y327168D01*
X860000Y329005D01*
Y330995D01*
X859239Y332832D01*
X857832Y334239D01*
X855995Y335000D01*
D02*
G37*
G36*
X810667Y365078D02*
X807515D01*
X807121Y365000D01*
X806719D01*
X803628Y364385D01*
X803257Y364231D01*
X802863Y364153D01*
X799951Y362947D01*
X799617Y362724D01*
X799246Y362570D01*
X796626Y360819D01*
X796342Y360535D01*
X796008Y360312D01*
X793779Y358083D01*
X793556Y357749D01*
X793272Y357465D01*
X791521Y354845D01*
X791367Y354474D01*
X791144Y354140D01*
X789938Y351228D01*
X789859Y350834D01*
X789706Y350463D01*
X789091Y347371D01*
Y346970D01*
X789013Y346576D01*
Y343424D01*
X789091Y343030D01*
Y342629D01*
X789706Y339537D01*
X789860Y339166D01*
X789938Y338772D01*
X791144Y335860D01*
X791367Y335527D01*
X791521Y335155D01*
X793272Y332535D01*
X793556Y332251D01*
X793779Y331917D01*
X796008Y329688D01*
X796342Y329465D01*
X796626Y329181D01*
X799246Y327430D01*
X799617Y327276D01*
X799951Y327053D01*
X802863Y325847D01*
X803257Y325769D01*
X803628Y325615D01*
X806719Y325000D01*
X807121D01*
X807515Y324922D01*
X810667D01*
X811061Y325000D01*
X811462D01*
X814554Y325615D01*
X814925Y325769D01*
X815319Y325847D01*
X818231Y327053D01*
X818565Y327276D01*
X818936Y327430D01*
X821556Y329181D01*
X821840Y329465D01*
X822174Y329688D01*
X824403Y331917D01*
X824626Y332251D01*
X824910Y332535D01*
X826661Y335155D01*
X826815Y335526D01*
X827038Y335860D01*
X828244Y338772D01*
X828322Y339166D01*
X828476Y339537D01*
X829091Y342629D01*
Y343030D01*
X829169Y343424D01*
Y346576D01*
X829091Y346970D01*
Y347371D01*
X828476Y350463D01*
X828322Y350834D01*
X828244Y351228D01*
X827038Y354140D01*
X826815Y354474D01*
X826661Y354845D01*
X824910Y357465D01*
X824626Y357749D01*
X824403Y358083D01*
X822174Y360312D01*
X821840Y360535D01*
X821556Y360819D01*
X818936Y362570D01*
X818565Y362724D01*
X818231Y362947D01*
X815319Y364153D01*
X814925Y364231D01*
X814554Y364385D01*
X811462Y365000D01*
X811061D01*
X810667Y365078D01*
D02*
G37*
G36*
X670667D02*
X667515D01*
X667121Y365000D01*
X666719D01*
X663628Y364385D01*
X663257Y364231D01*
X662863Y364153D01*
X659951Y362947D01*
X659617Y362724D01*
X659246Y362570D01*
X656626Y360819D01*
X656342Y360535D01*
X656008Y360312D01*
X653779Y358083D01*
X653556Y357749D01*
X653272Y357465D01*
X651521Y354845D01*
X651367Y354474D01*
X651144Y354140D01*
X649938Y351228D01*
X649859Y350834D01*
X649706Y350463D01*
X649091Y347371D01*
Y346970D01*
X649013Y346576D01*
Y343424D01*
X649091Y343030D01*
Y342629D01*
X649706Y339537D01*
X649860Y339166D01*
X649938Y338772D01*
X651144Y335860D01*
X651367Y335527D01*
X651521Y335155D01*
X653272Y332535D01*
X653556Y332251D01*
X653779Y331917D01*
X656008Y329688D01*
X656342Y329465D01*
X656626Y329181D01*
X659246Y327430D01*
X659617Y327276D01*
X659951Y327053D01*
X662863Y325847D01*
X663257Y325769D01*
X663628Y325615D01*
X666719Y325000D01*
X667121D01*
X667515Y324922D01*
X670667D01*
X671061Y325000D01*
X671462D01*
X674554Y325615D01*
X674925Y325769D01*
X675319Y325847D01*
X678231Y327053D01*
X678565Y327276D01*
X678936Y327430D01*
X681556Y329181D01*
X681840Y329465D01*
X682174Y329688D01*
X684403Y331917D01*
X684626Y332251D01*
X684910Y332535D01*
X686661Y335155D01*
X686815Y335526D01*
X687038Y335860D01*
X688244Y338772D01*
X688322Y339166D01*
X688476Y339537D01*
X689091Y342629D01*
Y343030D01*
X689169Y343424D01*
Y346576D01*
X689091Y346970D01*
Y347371D01*
X688476Y350463D01*
X688322Y350834D01*
X688244Y351228D01*
X687038Y354140D01*
X686815Y354474D01*
X686661Y354845D01*
X684910Y357465D01*
X684626Y357749D01*
X684403Y358083D01*
X682174Y360312D01*
X681840Y360535D01*
X681556Y360819D01*
X678936Y362570D01*
X678565Y362724D01*
X678231Y362947D01*
X675319Y364153D01*
X674925Y364231D01*
X674554Y364385D01*
X671462Y365000D01*
X671061D01*
X670667Y365078D01*
D02*
G37*
G36*
X990995Y326000D02*
X989005D01*
X987168Y325239D01*
X986375Y324446D01*
X985582Y325239D01*
X983745Y326000D01*
X981755D01*
X979918Y325239D01*
X978511Y323832D01*
X977750Y321995D01*
Y320005D01*
X978511Y318168D01*
X979918Y316761D01*
X981755Y316000D01*
X983745D01*
X985582Y316761D01*
X986375Y317554D01*
X987168Y316761D01*
X989005Y316000D01*
X990995D01*
X992832Y316761D01*
X994239Y318168D01*
X995000Y320005D01*
Y321995D01*
X994239Y323832D01*
X992832Y325239D01*
X990995Y326000D01*
D02*
G37*
G36*
X520494Y329000D02*
X518505D01*
X516667Y328238D01*
X515261Y326832D01*
X514500Y324994D01*
Y323005D01*
X515261Y321167D01*
X516667Y319761D01*
X518505Y319000D01*
X520494D01*
X522332Y319761D01*
X523738Y321167D01*
X524500Y323005D01*
Y324994D01*
X523738Y326832D01*
X522332Y328238D01*
X520494Y329000D01*
D02*
G37*
G36*
X504494D02*
X502505D01*
X500667Y328238D01*
X499261Y326832D01*
X498500Y324994D01*
Y323005D01*
X499261Y321167D01*
X500667Y319761D01*
X502505Y319000D01*
X504494D01*
X506332Y319761D01*
X507738Y321167D01*
X508500Y323005D01*
Y324994D01*
X507738Y326832D01*
X506332Y328238D01*
X504494Y329000D01*
D02*
G37*
G36*
X488494D02*
X486505D01*
X484667Y328238D01*
X483261Y326832D01*
X482500Y324994D01*
Y323005D01*
X483261Y321167D01*
X484667Y319761D01*
X486505Y319000D01*
X488494D01*
X490332Y319761D01*
X491739Y321167D01*
X492500Y323005D01*
Y324994D01*
X491739Y326832D01*
X490332Y328238D01*
X488494Y329000D01*
D02*
G37*
G36*
X472494D02*
X470505D01*
X468667Y328238D01*
X467261Y326832D01*
X466500Y324994D01*
Y323005D01*
X467261Y321167D01*
X468667Y319761D01*
X470505Y319000D01*
X472494D01*
X474332Y319761D01*
X475738Y321167D01*
X476500Y323005D01*
Y324994D01*
X475738Y326832D01*
X474332Y328238D01*
X472494Y329000D01*
D02*
G37*
G36*
X456494D02*
X454505D01*
X452667Y328238D01*
X451261Y326832D01*
X450500Y324994D01*
Y323005D01*
X451261Y321167D01*
X452667Y319761D01*
X454505Y319000D01*
X456494D01*
X458332Y319761D01*
X459739Y321167D01*
X460500Y323005D01*
Y324994D01*
X459739Y326832D01*
X458332Y328238D01*
X456494Y329000D01*
D02*
G37*
G36*
X360494D02*
X358505D01*
X356667Y328238D01*
X355261Y326832D01*
X354500Y324994D01*
Y323005D01*
X355261Y321167D01*
X356667Y319761D01*
X358505Y319000D01*
X360494D01*
X362332Y319761D01*
X363739Y321167D01*
X364500Y323005D01*
Y324994D01*
X363739Y326832D01*
X362332Y328238D01*
X360494Y329000D01*
D02*
G37*
G36*
X528494Y313000D02*
X526505D01*
X524667Y312239D01*
X523261Y310832D01*
X522500Y308994D01*
Y307005D01*
X523261Y305168D01*
X524667Y303761D01*
X526505Y303000D01*
X528494D01*
X530332Y303761D01*
X531738Y305168D01*
X532500Y307005D01*
Y308994D01*
X531738Y310832D01*
X530332Y312239D01*
X528494Y313000D01*
D02*
G37*
G36*
X512494D02*
X510505D01*
X508667Y312239D01*
X507261Y310832D01*
X506500Y308994D01*
Y307005D01*
X507261Y305168D01*
X508667Y303761D01*
X510505Y303000D01*
X512494D01*
X514332Y303761D01*
X515738Y305168D01*
X516500Y307005D01*
Y308994D01*
X515738Y310832D01*
X514332Y312239D01*
X512494Y313000D01*
D02*
G37*
G36*
X496494D02*
X494505D01*
X492667Y312239D01*
X491261Y310832D01*
X490500Y308994D01*
Y307005D01*
X491261Y305168D01*
X492667Y303761D01*
X494505Y303000D01*
X496494D01*
X498332Y303761D01*
X499738Y305168D01*
X500500Y307005D01*
Y308994D01*
X499738Y310832D01*
X498332Y312239D01*
X496494Y313000D01*
D02*
G37*
G36*
X961749Y320150D02*
X959051D01*
X956444Y319451D01*
X954106Y318102D01*
X952198Y316194D01*
X950848Y313856D01*
X950150Y311249D01*
Y308550D01*
X950848Y305944D01*
X952198Y303606D01*
X954106Y301698D01*
X956444Y300348D01*
X959051Y299650D01*
X961749D01*
X964356Y300348D01*
X966694Y301698D01*
X968602Y303606D01*
X969951Y305944D01*
X970650Y308550D01*
Y311249D01*
X969951Y313856D01*
X968602Y316194D01*
X966694Y318102D01*
X964356Y319451D01*
X961749Y320150D01*
D02*
G37*
G36*
X936349D02*
X933651D01*
X931044Y319451D01*
X928706Y318102D01*
X926798Y316194D01*
X925449Y313856D01*
X924750Y311249D01*
Y308550D01*
X925449Y305944D01*
X926798Y303606D01*
X928706Y301698D01*
X931044Y300348D01*
X933651Y299650D01*
X936349D01*
X938956Y300348D01*
X941294Y301698D01*
X943202Y303606D01*
X944551Y305944D01*
X945250Y308550D01*
Y311249D01*
X944551Y313856D01*
X943202Y316194D01*
X941294Y318102D01*
X938956Y319451D01*
X936349Y320150D01*
D02*
G37*
G36*
X910949D02*
X908251D01*
X905644Y319451D01*
X903306Y318102D01*
X901398Y316194D01*
X900049Y313856D01*
X899350Y311249D01*
Y308550D01*
X900049Y305944D01*
X901398Y303606D01*
X903306Y301698D01*
X905644Y300348D01*
X908251Y299650D01*
X910949D01*
X913556Y300348D01*
X915894Y301698D01*
X917802Y303606D01*
X919152Y305944D01*
X919850Y308550D01*
Y311249D01*
X919152Y313856D01*
X917802Y316194D01*
X915894Y318102D01*
X913556Y319451D01*
X910949Y320150D01*
D02*
G37*
G36*
X535500Y329098D02*
X535007Y329000D01*
X534505D01*
X534041Y328808D01*
X533549Y328710D01*
X533131Y328431D01*
X532667Y328238D01*
X532312Y327883D01*
X531895Y327604D01*
X531616Y327187D01*
X531261Y326832D01*
X531069Y326368D01*
X530790Y325951D01*
X530692Y325458D01*
X530500Y324994D01*
Y324492D01*
X530402Y324000D01*
X530500Y323507D01*
Y323005D01*
X530692Y322541D01*
X530790Y322049D01*
X531069Y321631D01*
X531261Y321167D01*
X531616Y320812D01*
X531895Y320395D01*
X540895Y311395D01*
X542548Y310290D01*
X544499Y309902D01*
X829859D01*
X841366Y298395D01*
X841872Y298057D01*
X842168Y297761D01*
X842554Y297601D01*
X843020Y297290D01*
X843569Y297181D01*
X844005Y297000D01*
X844478D01*
X844970Y296902D01*
X845000D01*
X845492Y297000D01*
X845994D01*
X846458Y297192D01*
X846951Y297290D01*
X847368Y297569D01*
X847832Y297761D01*
X848187Y298116D01*
X848605Y298395D01*
X848884Y298813D01*
X849239Y299168D01*
X849431Y299632D01*
X849710Y300049D01*
X849808Y300542D01*
X850000Y301005D01*
Y301507D01*
X850098Y302000D01*
X850000Y302493D01*
Y302995D01*
X849808Y303458D01*
X849710Y303951D01*
X849431Y304368D01*
X849239Y304832D01*
X848884Y305187D01*
X848605Y305605D01*
X848516Y305664D01*
X835575Y318605D01*
X833921Y319710D01*
X831971Y320098D01*
X546611D01*
X539104Y327604D01*
X538687Y327883D01*
X538332Y328238D01*
X537868Y328431D01*
X537450Y328710D01*
X536958Y328808D01*
X536494Y329000D01*
X535992D01*
X535500Y329098D01*
D02*
G37*
G36*
X700745Y298000D02*
X698755D01*
X696918Y297239D01*
X695511Y295832D01*
X694750Y293995D01*
Y292005D01*
X695511Y290168D01*
X696918Y288761D01*
X698755Y288000D01*
X700745D01*
X702582Y288761D01*
X703989Y290168D01*
X704750Y292005D01*
Y293995D01*
X703989Y295832D01*
X702582Y297239D01*
X700745Y298000D01*
D02*
G37*
G36*
X536494Y297000D02*
X534505D01*
X532667Y296238D01*
X531261Y294832D01*
X530500Y292994D01*
Y291005D01*
X531261Y289167D01*
X532667Y287761D01*
X534505Y287000D01*
X536494D01*
X538332Y287761D01*
X539738Y289167D01*
X540500Y291005D01*
Y292994D01*
X539738Y294832D01*
X538332Y296238D01*
X536494Y297000D01*
D02*
G37*
G36*
X520494D02*
X518505D01*
X516667Y296238D01*
X515261Y294832D01*
X514500Y292994D01*
Y291005D01*
X515261Y289167D01*
X516667Y287761D01*
X518505Y287000D01*
X520494D01*
X522332Y287761D01*
X523738Y289167D01*
X524500Y291005D01*
Y292994D01*
X523738Y294832D01*
X522332Y296238D01*
X520494Y297000D01*
D02*
G37*
G36*
X504494D02*
X502505D01*
X500667Y296238D01*
X499261Y294832D01*
X498500Y292994D01*
Y291005D01*
X499261Y289167D01*
X500667Y287761D01*
X502505Y287000D01*
X504494D01*
X506332Y287761D01*
X507738Y289167D01*
X508500Y291005D01*
Y292994D01*
X507738Y294832D01*
X506332Y296238D01*
X504494Y297000D01*
D02*
G37*
G36*
X488494D02*
X486505D01*
X484667Y296238D01*
X483261Y294832D01*
X482500Y292994D01*
Y291005D01*
X483261Y289167D01*
X484667Y287761D01*
X486505Y287000D01*
X488494D01*
X490332Y287761D01*
X491739Y289167D01*
X492500Y291005D01*
Y292994D01*
X491739Y294832D01*
X490332Y296238D01*
X488494Y297000D01*
D02*
G37*
G36*
X360494D02*
X358505D01*
X356667Y296238D01*
X355261Y294832D01*
X354500Y292994D01*
Y291005D01*
X355261Y289167D01*
X356667Y287761D01*
X358505Y287000D01*
X360494D01*
X362332Y287761D01*
X363739Y289167D01*
X364500Y291005D01*
Y292994D01*
X363739Y294832D01*
X362332Y296238D01*
X360494Y297000D01*
D02*
G37*
G36*
X709995Y291000D02*
X708005D01*
X706168Y290239D01*
X704761Y288832D01*
X704000Y286995D01*
Y285005D01*
X704761Y283168D01*
X706168Y281761D01*
X708005Y281000D01*
X709995D01*
X711832Y281761D01*
X713239Y283168D01*
X714000Y285005D01*
Y286995D01*
X713239Y288832D01*
X711832Y290239D01*
X709995Y291000D01*
D02*
G37*
G36*
X756994Y289000D02*
X755005D01*
X753168Y288239D01*
X751761Y286832D01*
X751000Y284995D01*
Y283005D01*
X751761Y281168D01*
X753168Y279761D01*
X755005Y279000D01*
X756994D01*
X758832Y279761D01*
X760239Y281168D01*
X761000Y283005D01*
Y284995D01*
X760239Y286832D01*
X758832Y288239D01*
X756994Y289000D01*
D02*
G37*
G36*
X961749Y294750D02*
X959051D01*
X956444Y294051D01*
X954106Y292702D01*
X952198Y290794D01*
X950848Y288456D01*
X950150Y285849D01*
Y283151D01*
X950848Y280544D01*
X952198Y278206D01*
X954106Y276298D01*
X956444Y274948D01*
X959051Y274250D01*
X961749D01*
X964356Y274948D01*
X966694Y276298D01*
X968602Y278206D01*
X969951Y280544D01*
X970650Y283151D01*
Y285849D01*
X969951Y288456D01*
X968602Y290794D01*
X966694Y292702D01*
X964356Y294051D01*
X961749Y294750D01*
D02*
G37*
G36*
X936349D02*
X933651D01*
X931044Y294051D01*
X928706Y292702D01*
X926798Y290794D01*
X925449Y288456D01*
X924750Y285849D01*
Y283151D01*
X925449Y280544D01*
X926798Y278206D01*
X928706Y276298D01*
X931044Y274948D01*
X933651Y274250D01*
X936349D01*
X938956Y274948D01*
X941294Y276298D01*
X943202Y278206D01*
X944551Y280544D01*
X945250Y283151D01*
Y285849D01*
X944551Y288456D01*
X943202Y290794D01*
X941294Y292702D01*
X938956Y294051D01*
X936349Y294750D01*
D02*
G37*
G36*
X910949D02*
X908251D01*
X905644Y294051D01*
X903306Y292702D01*
X901398Y290794D01*
X900049Y288456D01*
X899350Y285849D01*
Y283151D01*
X900049Y280544D01*
X901398Y278206D01*
X903306Y276298D01*
X905644Y274948D01*
X908251Y274250D01*
X910949D01*
X913556Y274948D01*
X915894Y276298D01*
X917802Y278206D01*
X919152Y280544D01*
X919850Y283151D01*
Y285849D01*
X919152Y288456D01*
X917802Y290794D01*
X915894Y292702D01*
X913556Y294051D01*
X910949Y294750D01*
D02*
G37*
G36*
X528494Y281000D02*
X526505D01*
X524667Y280239D01*
X523261Y278832D01*
X522500Y276994D01*
Y275005D01*
X523261Y273167D01*
X524667Y271761D01*
X526505Y271000D01*
X528494D01*
X530332Y271761D01*
X531738Y273167D01*
X532500Y275005D01*
Y276994D01*
X531738Y278832D01*
X530332Y280239D01*
X528494Y281000D01*
D02*
G37*
G36*
X512494D02*
X510505D01*
X508667Y280239D01*
X507261Y278832D01*
X506500Y276994D01*
Y275005D01*
X507261Y273167D01*
X508667Y271761D01*
X510505Y271000D01*
X512494D01*
X514332Y271761D01*
X515738Y273167D01*
X516500Y275005D01*
Y276994D01*
X515738Y278832D01*
X514332Y280239D01*
X512494Y281000D01*
D02*
G37*
G36*
X496494D02*
X494505D01*
X492667Y280239D01*
X491261Y278832D01*
X490500Y276994D01*
Y275005D01*
X491261Y273167D01*
X492667Y271761D01*
X494505Y271000D01*
X496494D01*
X498332Y271761D01*
X499738Y273167D01*
X500500Y275005D01*
Y276994D01*
X499738Y278832D01*
X498332Y280239D01*
X496494Y281000D01*
D02*
G37*
G36*
X655495Y271500D02*
X653505D01*
X651668Y270739D01*
X650261Y269332D01*
X649500Y267495D01*
Y265505D01*
X650261Y263668D01*
X651668Y262261D01*
X653505Y261500D01*
X655495D01*
X657332Y262261D01*
X658739Y263668D01*
X659500Y265505D01*
Y267495D01*
X658739Y269332D01*
X657332Y270739D01*
X655495Y271500D01*
D02*
G37*
G36*
X536494Y265000D02*
X534505D01*
X532667Y264239D01*
X531261Y262832D01*
X530500Y260994D01*
Y259005D01*
X531261Y257167D01*
X532667Y255761D01*
X534505Y255000D01*
X536494D01*
X538332Y255761D01*
X539738Y257167D01*
X540500Y259005D01*
Y260994D01*
X539738Y262832D01*
X538332Y264239D01*
X536494Y265000D01*
D02*
G37*
G36*
X520494D02*
X518505D01*
X516667Y264239D01*
X515261Y262832D01*
X514500Y260994D01*
Y259005D01*
X515261Y257167D01*
X516667Y255761D01*
X518505Y255000D01*
X520494D01*
X522332Y255761D01*
X523738Y257167D01*
X524500Y259005D01*
Y260994D01*
X523738Y262832D01*
X522332Y264239D01*
X520494Y265000D01*
D02*
G37*
G36*
X504494D02*
X502505D01*
X500667Y264239D01*
X499261Y262832D01*
X498500Y260994D01*
Y259005D01*
X499261Y257167D01*
X500667Y255761D01*
X502505Y255000D01*
X504494D01*
X506332Y255761D01*
X507738Y257167D01*
X508500Y259005D01*
Y260994D01*
X507738Y262832D01*
X506332Y264239D01*
X504494Y265000D01*
D02*
G37*
G36*
X488494D02*
X486505D01*
X484667Y264239D01*
X483261Y262832D01*
X482500Y260994D01*
Y259005D01*
X483261Y257167D01*
X484667Y255761D01*
X486505Y255000D01*
X488494D01*
X490332Y255761D01*
X491739Y257167D01*
X492500Y259005D01*
Y260994D01*
X491739Y262832D01*
X490332Y264239D01*
X488494Y265000D01*
D02*
G37*
G36*
X360494D02*
X358505D01*
X356667Y264239D01*
X355261Y262832D01*
X354500Y260994D01*
Y259005D01*
X355261Y257167D01*
X356667Y255761D01*
X358505Y255000D01*
X360494D01*
X362332Y255761D01*
X363739Y257167D01*
X364500Y259005D01*
Y260994D01*
X363739Y262832D01*
X362332Y264239D01*
X360494Y265000D01*
D02*
G37*
G36*
X756994Y264000D02*
X755005D01*
X753168Y263239D01*
X751761Y261832D01*
X751000Y259995D01*
Y258005D01*
X751761Y256168D01*
X753168Y254761D01*
X755005Y254000D01*
X756994D01*
X758832Y254761D01*
X760239Y256168D01*
X761000Y258005D01*
Y259995D01*
X760239Y261832D01*
X758832Y263239D01*
X756994Y264000D01*
D02*
G37*
G36*
Y251000D02*
X755005D01*
X753168Y250239D01*
X751761Y248832D01*
X751000Y246995D01*
Y245005D01*
X751761Y243168D01*
X753168Y241761D01*
X755005Y241000D01*
X756994D01*
X758832Y241761D01*
X760239Y243168D01*
X761000Y245005D01*
Y246995D01*
X760239Y248832D01*
X758832Y250239D01*
X756994Y251000D01*
D02*
G37*
G36*
X528494Y249000D02*
X526505D01*
X524667Y248239D01*
X523261Y246832D01*
X522500Y244994D01*
Y243005D01*
X523261Y241168D01*
X524667Y239761D01*
X526505Y239000D01*
X528494D01*
X530332Y239761D01*
X531738Y241168D01*
X532500Y243005D01*
Y244994D01*
X531738Y246832D01*
X530332Y248239D01*
X528494Y249000D01*
D02*
G37*
G36*
X512494D02*
X510505D01*
X508667Y248239D01*
X507261Y246832D01*
X506500Y244994D01*
Y243005D01*
X507261Y241168D01*
X508667Y239761D01*
X510505Y239000D01*
X512494D01*
X514332Y239761D01*
X515738Y241168D01*
X516500Y243005D01*
Y244994D01*
X515738Y246832D01*
X514332Y248239D01*
X512494Y249000D01*
D02*
G37*
G36*
X496494D02*
X494505D01*
X492667Y248239D01*
X491261Y246832D01*
X490500Y244994D01*
Y243005D01*
X491261Y241168D01*
X492667Y239761D01*
X494505Y239000D01*
X496494D01*
X498332Y239761D01*
X499738Y241168D01*
X500500Y243005D01*
Y244994D01*
X499738Y246832D01*
X498332Y248239D01*
X496494Y249000D01*
D02*
G37*
G36*
X480494D02*
X478505D01*
X476667Y248239D01*
X475261Y246832D01*
X474500Y244994D01*
Y243005D01*
X475261Y241168D01*
X476667Y239761D01*
X478505Y239000D01*
X480494D01*
X482332Y239761D01*
X483739Y241168D01*
X484500Y243005D01*
Y244994D01*
X483739Y246832D01*
X482332Y248239D01*
X480494Y249000D01*
D02*
G37*
G36*
X464494D02*
X462505D01*
X460667Y248239D01*
X459261Y246832D01*
X458500Y244994D01*
Y243005D01*
X459261Y241168D01*
X460667Y239761D01*
X462505Y239000D01*
X464494D01*
X466332Y239761D01*
X467738Y241168D01*
X468500Y243005D01*
Y244994D01*
X467738Y246832D01*
X466332Y248239D01*
X464494Y249000D01*
D02*
G37*
G36*
X448494D02*
X446505D01*
X444667Y248239D01*
X443261Y246832D01*
X442500Y244994D01*
Y243005D01*
X443261Y241168D01*
X444667Y239761D01*
X446505Y239000D01*
X448494D01*
X450332Y239761D01*
X451739Y241168D01*
X452500Y243005D01*
Y244994D01*
X451739Y246832D01*
X450332Y248239D01*
X448494Y249000D01*
D02*
G37*
G36*
X536494Y233000D02*
X534505D01*
X532667Y232239D01*
X531261Y230832D01*
X530500Y228994D01*
Y227005D01*
X531261Y225168D01*
X532667Y223761D01*
X534505Y223000D01*
X536494D01*
X538332Y223761D01*
X539738Y225168D01*
X540500Y227005D01*
Y228994D01*
X539738Y230832D01*
X538332Y232239D01*
X536494Y233000D01*
D02*
G37*
G36*
X520494D02*
X518505D01*
X516667Y232239D01*
X515261Y230832D01*
X514500Y228994D01*
Y227005D01*
X515261Y225168D01*
X516667Y223761D01*
X518505Y223000D01*
X520494D01*
X522332Y223761D01*
X523738Y225168D01*
X524500Y227005D01*
Y228994D01*
X523738Y230832D01*
X522332Y232239D01*
X520494Y233000D01*
D02*
G37*
G36*
X504494D02*
X502505D01*
X500667Y232239D01*
X499261Y230832D01*
X498500Y228994D01*
Y227005D01*
X499261Y225168D01*
X500667Y223761D01*
X502505Y223000D01*
X504494D01*
X506332Y223761D01*
X507738Y225168D01*
X508500Y227005D01*
Y228994D01*
X507738Y230832D01*
X506332Y232239D01*
X504494Y233000D01*
D02*
G37*
G36*
X488494D02*
X486505D01*
X484667Y232239D01*
X483261Y230832D01*
X482500Y228994D01*
Y227005D01*
X483261Y225168D01*
X484667Y223761D01*
X486505Y223000D01*
X488494D01*
X490332Y223761D01*
X491739Y225168D01*
X492500Y227005D01*
Y228994D01*
X491739Y230832D01*
X490332Y232239D01*
X488494Y233000D01*
D02*
G37*
G36*
X472494D02*
X470505D01*
X468667Y232239D01*
X467261Y230832D01*
X466500Y228994D01*
Y227005D01*
X467261Y225168D01*
X468667Y223761D01*
X470505Y223000D01*
X472494D01*
X474332Y223761D01*
X475738Y225168D01*
X476500Y227005D01*
Y228994D01*
X475738Y230832D01*
X474332Y232239D01*
X472494Y233000D01*
D02*
G37*
G36*
X456494D02*
X454505D01*
X452667Y232239D01*
X451261Y230832D01*
X450500Y228994D01*
Y227005D01*
X451261Y225168D01*
X452667Y223761D01*
X454505Y223000D01*
X456494D01*
X458332Y223761D01*
X459739Y225168D01*
X460500Y227005D01*
Y228994D01*
X459739Y230832D01*
X458332Y232239D01*
X456494Y233000D01*
D02*
G37*
G36*
X360494D02*
X358505D01*
X356667Y232239D01*
X355261Y230832D01*
X354500Y228994D01*
Y227005D01*
X355261Y225168D01*
X356667Y223761D01*
X358505Y223000D01*
X360494D01*
X362332Y223761D01*
X363739Y225168D01*
X364500Y227005D01*
Y228994D01*
X363739Y230832D01*
X362332Y232239D01*
X360494Y233000D01*
D02*
G37*
G36*
X988025Y250200D02*
X984775D01*
X981587Y249566D01*
X978584Y248322D01*
X975882Y246516D01*
X973584Y244218D01*
X971778Y241516D01*
X970534Y238513D01*
X969900Y235325D01*
Y232075D01*
X970534Y228887D01*
X971778Y225884D01*
X973584Y223182D01*
X975882Y220884D01*
X978584Y219078D01*
X981587Y217834D01*
X984775Y217200D01*
X988025D01*
X991213Y217834D01*
X994216Y219078D01*
X996918Y220884D01*
X999216Y223182D01*
X1001022Y225884D01*
X1002266Y228887D01*
X1002900Y232075D01*
Y235325D01*
X1002266Y238513D01*
X1001022Y241516D01*
X999216Y244218D01*
X996918Y246516D01*
X994216Y248322D01*
X991213Y249566D01*
X988025Y250200D01*
D02*
G37*
G36*
X544745Y223520D02*
X542755D01*
X540918Y222759D01*
X539511Y221352D01*
X538750Y219515D01*
Y217525D01*
X539511Y215688D01*
X540918Y214281D01*
X542755Y213520D01*
X544745D01*
X546582Y214281D01*
X547989Y215688D01*
X548750Y217525D01*
Y219515D01*
X547989Y221352D01*
X546582Y222759D01*
X544745Y223520D01*
D02*
G37*
G36*
X529495Y218250D02*
X527505D01*
X525668Y217489D01*
X524261Y216082D01*
X523500Y214245D01*
Y212255D01*
X524261Y210418D01*
X525668Y209011D01*
X527505Y208250D01*
X529495D01*
X531332Y209011D01*
X532739Y210418D01*
X533500Y212255D01*
Y214245D01*
X532739Y216082D01*
X531332Y217489D01*
X529495Y218250D01*
D02*
G37*
G36*
X486767Y200320D02*
X486500D01*
Y191700D01*
X495120D01*
Y191966D01*
X494464Y194413D01*
X493198Y196607D01*
X491407Y198398D01*
X489213Y199664D01*
X486767Y200320D01*
D02*
G37*
G36*
X308967D02*
X308700D01*
Y191700D01*
X317320D01*
Y191966D01*
X316664Y194413D01*
X315398Y196607D01*
X313607Y198398D01*
X311413Y199664D01*
X308967Y200320D01*
D02*
G37*
G36*
X689967D02*
X689700D01*
Y191700D01*
X698320D01*
Y191966D01*
X697664Y194413D01*
X696398Y196607D01*
X694607Y198398D01*
X692413Y199664D01*
X689967Y200320D01*
D02*
G37*
G36*
X484500D02*
X484234D01*
X481787Y199664D01*
X479593Y198398D01*
X477802Y196607D01*
X476536Y194413D01*
X475880Y191966D01*
Y191700D01*
X484500D01*
Y200320D01*
D02*
G37*
G36*
X306700D02*
X306434D01*
X303987Y199664D01*
X301793Y198398D01*
X300002Y196607D01*
X298736Y194413D01*
X298080Y191966D01*
Y191700D01*
X306700D01*
Y200320D01*
D02*
G37*
G36*
X687700D02*
X687433D01*
X684987Y199664D01*
X682793Y198398D01*
X681002Y196607D01*
X679736Y194413D01*
X679080Y191966D01*
Y191700D01*
X687700D01*
Y200320D01*
D02*
G37*
G36*
X791566D02*
X789034D01*
X786587Y199664D01*
X784393Y198398D01*
X782602Y196607D01*
X781336Y194413D01*
X780680Y191966D01*
Y189433D01*
X781336Y186987D01*
X782602Y184793D01*
X784393Y183002D01*
X786587Y181736D01*
X789034Y181080D01*
X791566D01*
X794013Y181736D01*
X796207Y183002D01*
X797998Y184793D01*
X799264Y186987D01*
X799920Y189433D01*
Y191966D01*
X799264Y194413D01*
X797998Y196607D01*
X796207Y198398D01*
X794013Y199664D01*
X791566Y200320D01*
D02*
G37*
G36*
X766167D02*
X763633D01*
X761187Y199664D01*
X758993Y198398D01*
X757202Y196607D01*
X755936Y194413D01*
X755280Y191966D01*
Y189433D01*
X755936Y186987D01*
X757202Y184793D01*
X758993Y183002D01*
X761187Y181736D01*
X763633Y181080D01*
X766167D01*
X768613Y181736D01*
X770807Y183002D01*
X772598Y184793D01*
X773864Y186987D01*
X774520Y189433D01*
Y191966D01*
X773864Y194413D01*
X772598Y196607D01*
X770807Y198398D01*
X768613Y199664D01*
X766167Y200320D01*
D02*
G37*
G36*
X740767D02*
X738233D01*
X735787Y199664D01*
X733593Y198398D01*
X731802Y196607D01*
X730536Y194413D01*
X729880Y191966D01*
Y189433D01*
X730536Y186987D01*
X731802Y184793D01*
X733593Y183002D01*
X735787Y181736D01*
X738233Y181080D01*
X740767D01*
X743213Y181736D01*
X745407Y183002D01*
X747198Y184793D01*
X748464Y186987D01*
X749120Y189433D01*
Y191966D01*
X748464Y194413D01*
X747198Y196607D01*
X745407Y198398D01*
X743213Y199664D01*
X740767Y200320D01*
D02*
G37*
G36*
X715367D02*
X712833D01*
X710387Y199664D01*
X708193Y198398D01*
X706402Y196607D01*
X705136Y194413D01*
X704480Y191966D01*
Y189433D01*
X705136Y186987D01*
X706402Y184793D01*
X708193Y183002D01*
X710387Y181736D01*
X712833Y181080D01*
X715367D01*
X717813Y181736D01*
X720007Y183002D01*
X721798Y184793D01*
X723064Y186987D01*
X723720Y189433D01*
Y191966D01*
X723064Y194413D01*
X721798Y196607D01*
X720007Y198398D01*
X717813Y199664D01*
X715367Y200320D01*
D02*
G37*
G36*
X698320Y189700D02*
X689700D01*
Y181080D01*
X689967D01*
X692413Y181736D01*
X694607Y183002D01*
X696398Y184793D01*
X697664Y186987D01*
X698320Y189433D01*
Y189700D01*
D02*
G37*
G36*
X687700D02*
X679080D01*
Y189433D01*
X679736Y186987D01*
X681002Y184793D01*
X682793Y183002D01*
X684987Y181736D01*
X687433Y181080D01*
X687700D01*
Y189700D01*
D02*
G37*
G36*
X664566Y200320D02*
X662033D01*
X659587Y199664D01*
X657393Y198398D01*
X655602Y196607D01*
X654336Y194413D01*
X653680Y191966D01*
Y189433D01*
X654336Y186987D01*
X655602Y184793D01*
X657393Y183002D01*
X659587Y181736D01*
X662033Y181080D01*
X664566D01*
X667013Y181736D01*
X669207Y183002D01*
X670998Y184793D01*
X672264Y186987D01*
X672920Y189433D01*
Y191966D01*
X672264Y194413D01*
X670998Y196607D01*
X669207Y198398D01*
X667013Y199664D01*
X664566Y200320D01*
D02*
G37*
G36*
X639166D02*
X636633D01*
X634187Y199664D01*
X631993Y198398D01*
X630202Y196607D01*
X628936Y194413D01*
X628280Y191966D01*
Y189433D01*
X628936Y186987D01*
X630202Y184793D01*
X631993Y183002D01*
X634187Y181736D01*
X636633Y181080D01*
X639166D01*
X641613Y181736D01*
X643807Y183002D01*
X645598Y184793D01*
X646864Y186987D01*
X647520Y189433D01*
Y191966D01*
X646864Y194413D01*
X645598Y196607D01*
X643807Y198398D01*
X641613Y199664D01*
X639166Y200320D01*
D02*
G37*
G36*
X613767D02*
X611233D01*
X608787Y199664D01*
X606593Y198398D01*
X604802Y196607D01*
X603536Y194413D01*
X602880Y191966D01*
Y189433D01*
X603536Y186987D01*
X604802Y184793D01*
X606593Y183002D01*
X608787Y181736D01*
X611233Y181080D01*
X613767D01*
X616213Y181736D01*
X618407Y183002D01*
X620198Y184793D01*
X621464Y186987D01*
X622120Y189433D01*
Y191966D01*
X621464Y194413D01*
X620198Y196607D01*
X618407Y198398D01*
X616213Y199664D01*
X613767Y200320D01*
D02*
G37*
G36*
X588367D02*
X585834D01*
X583387Y199664D01*
X581193Y198398D01*
X579402Y196607D01*
X578136Y194413D01*
X577480Y191966D01*
Y189433D01*
X578136Y186987D01*
X579402Y184793D01*
X581193Y183002D01*
X583387Y181736D01*
X585834Y181080D01*
X588367D01*
X590813Y181736D01*
X593007Y183002D01*
X594798Y184793D01*
X596064Y186987D01*
X596720Y189433D01*
Y191966D01*
X596064Y194413D01*
X594798Y196607D01*
X593007Y198398D01*
X590813Y199664D01*
X588367Y200320D01*
D02*
G37*
G36*
X562966D02*
X560434D01*
X557987Y199664D01*
X555793Y198398D01*
X554002Y196607D01*
X552736Y194413D01*
X552080Y191966D01*
Y189433D01*
X552736Y186987D01*
X554002Y184793D01*
X555793Y183002D01*
X557987Y181736D01*
X560434Y181080D01*
X562966D01*
X565413Y181736D01*
X567607Y183002D01*
X569398Y184793D01*
X570664Y186987D01*
X571320Y189433D01*
Y191966D01*
X570664Y194413D01*
X569398Y196607D01*
X567607Y198398D01*
X565413Y199664D01*
X562966Y200320D01*
D02*
G37*
G36*
X537566D02*
X535033D01*
X532587Y199664D01*
X530393Y198398D01*
X528602Y196607D01*
X527336Y194413D01*
X526680Y191966D01*
Y189433D01*
X527336Y186987D01*
X528602Y184793D01*
X530393Y183002D01*
X532587Y181736D01*
X535033Y181080D01*
X537566D01*
X540013Y181736D01*
X542207Y183002D01*
X543998Y184793D01*
X545264Y186987D01*
X545920Y189433D01*
Y191966D01*
X545264Y194413D01*
X543998Y196607D01*
X542207Y198398D01*
X540013Y199664D01*
X537566Y200320D01*
D02*
G37*
G36*
X512166D02*
X509633D01*
X507187Y199664D01*
X504993Y198398D01*
X503202Y196607D01*
X501936Y194413D01*
X501280Y191966D01*
Y189433D01*
X501936Y186987D01*
X503202Y184793D01*
X504993Y183002D01*
X507187Y181736D01*
X509633Y181080D01*
X512166D01*
X514613Y181736D01*
X516807Y183002D01*
X518598Y184793D01*
X519864Y186987D01*
X520520Y189433D01*
Y191966D01*
X519864Y194413D01*
X518598Y196607D01*
X516807Y198398D01*
X514613Y199664D01*
X512166Y200320D01*
D02*
G37*
G36*
X495120Y189700D02*
X486500D01*
Y181080D01*
X486767D01*
X489213Y181736D01*
X491407Y183002D01*
X493198Y184793D01*
X494464Y186987D01*
X495120Y189433D01*
Y189700D01*
D02*
G37*
G36*
X484500D02*
X475880D01*
Y189433D01*
X476536Y186987D01*
X477802Y184793D01*
X479593Y183002D01*
X481787Y181736D01*
X484234Y181080D01*
X484500D01*
Y189700D01*
D02*
G37*
G36*
X461367Y200320D02*
X458834D01*
X456387Y199664D01*
X454193Y198398D01*
X452402Y196607D01*
X451136Y194413D01*
X450480Y191966D01*
Y189433D01*
X451136Y186987D01*
X452402Y184793D01*
X454193Y183002D01*
X456387Y181736D01*
X458834Y181080D01*
X461367D01*
X463813Y181736D01*
X466007Y183002D01*
X467798Y184793D01*
X469064Y186987D01*
X469720Y189433D01*
Y191966D01*
X469064Y194413D01*
X467798Y196607D01*
X466007Y198398D01*
X463813Y199664D01*
X461367Y200320D01*
D02*
G37*
G36*
X435966D02*
X433433D01*
X430987Y199664D01*
X428793Y198398D01*
X427002Y196607D01*
X425736Y194413D01*
X425080Y191966D01*
Y189433D01*
X425736Y186987D01*
X427002Y184793D01*
X428793Y183002D01*
X430987Y181736D01*
X433433Y181080D01*
X435966D01*
X438413Y181736D01*
X440607Y183002D01*
X442398Y184793D01*
X443664Y186987D01*
X444320Y189433D01*
Y191966D01*
X443664Y194413D01*
X442398Y196607D01*
X440607Y198398D01*
X438413Y199664D01*
X435966Y200320D01*
D02*
G37*
G36*
X410566D02*
X408033D01*
X405587Y199664D01*
X403393Y198398D01*
X401602Y196607D01*
X400336Y194413D01*
X399680Y191966D01*
Y189433D01*
X400336Y186987D01*
X401602Y184793D01*
X403393Y183002D01*
X405587Y181736D01*
X408033Y181080D01*
X410566D01*
X413013Y181736D01*
X415207Y183002D01*
X416998Y184793D01*
X418264Y186987D01*
X418920Y189433D01*
Y191966D01*
X418264Y194413D01*
X416998Y196607D01*
X415207Y198398D01*
X413013Y199664D01*
X410566Y200320D01*
D02*
G37*
G36*
X385167D02*
X382634D01*
X380187Y199664D01*
X377993Y198398D01*
X376202Y196607D01*
X374936Y194413D01*
X374280Y191966D01*
Y189433D01*
X374936Y186987D01*
X376202Y184793D01*
X377993Y183002D01*
X380187Y181736D01*
X382634Y181080D01*
X385167D01*
X387613Y181736D01*
X389807Y183002D01*
X391598Y184793D01*
X392864Y186987D01*
X393520Y189433D01*
Y191966D01*
X392864Y194413D01*
X391598Y196607D01*
X389807Y198398D01*
X387613Y199664D01*
X385167Y200320D01*
D02*
G37*
G36*
X359767D02*
X357234D01*
X354787Y199664D01*
X352593Y198398D01*
X350802Y196607D01*
X349536Y194413D01*
X348880Y191966D01*
Y189433D01*
X349536Y186987D01*
X350802Y184793D01*
X352593Y183002D01*
X354787Y181736D01*
X357234Y181080D01*
X359767D01*
X362213Y181736D01*
X364407Y183002D01*
X366198Y184793D01*
X367464Y186987D01*
X368120Y189433D01*
Y191966D01*
X367464Y194413D01*
X366198Y196607D01*
X364407Y198398D01*
X362213Y199664D01*
X359767Y200320D01*
D02*
G37*
G36*
X334366D02*
X331833D01*
X329387Y199664D01*
X327193Y198398D01*
X325402Y196607D01*
X324136Y194413D01*
X323480Y191966D01*
Y189433D01*
X324136Y186987D01*
X325402Y184793D01*
X327193Y183002D01*
X329387Y181736D01*
X331833Y181080D01*
X334366D01*
X336813Y181736D01*
X339007Y183002D01*
X340798Y184793D01*
X342064Y186987D01*
X342720Y189433D01*
Y191966D01*
X342064Y194413D01*
X340798Y196607D01*
X339007Y198398D01*
X336813Y199664D01*
X334366Y200320D01*
D02*
G37*
G36*
X317320Y189700D02*
X308700D01*
Y181080D01*
X308967D01*
X311413Y181736D01*
X313607Y183002D01*
X315398Y184793D01*
X316664Y186987D01*
X317320Y189433D01*
Y189700D01*
D02*
G37*
G36*
X306700D02*
X298080D01*
Y189433D01*
X298736Y186987D01*
X300002Y184793D01*
X301793Y183002D01*
X303987Y181736D01*
X306434Y181080D01*
X306700D01*
Y189700D01*
D02*
G37*
G36*
X740767Y174920D02*
X740500D01*
Y166300D01*
X749120D01*
Y166567D01*
X748464Y169013D01*
X747198Y171207D01*
X745407Y172998D01*
X743213Y174264D01*
X740767Y174920D01*
D02*
G37*
G36*
X639166D02*
X638900D01*
Y166300D01*
X647520D01*
Y166567D01*
X646864Y169013D01*
X645598Y171207D01*
X643807Y172998D01*
X641613Y174264D01*
X639166Y174920D01*
D02*
G37*
G36*
X435966D02*
X435700D01*
Y166300D01*
X444320D01*
Y166567D01*
X443664Y169013D01*
X442398Y171207D01*
X440607Y172998D01*
X438413Y174264D01*
X435966Y174920D01*
D02*
G37*
G36*
X562966D02*
X562700D01*
Y166300D01*
X571320D01*
Y166567D01*
X570664Y169013D01*
X569398Y171207D01*
X567607Y172998D01*
X565413Y174264D01*
X562966Y174920D01*
D02*
G37*
G36*
X385167D02*
X384900D01*
Y166300D01*
X393520D01*
Y166567D01*
X392864Y169013D01*
X391598Y171207D01*
X389807Y172998D01*
X387613Y174264D01*
X385167Y174920D01*
D02*
G37*
G36*
X738500D02*
X738233D01*
X735787Y174264D01*
X733593Y172998D01*
X731802Y171207D01*
X730536Y169013D01*
X729880Y166567D01*
Y166300D01*
X738500D01*
Y174920D01*
D02*
G37*
G36*
X636900D02*
X636633D01*
X634187Y174264D01*
X631993Y172998D01*
X630202Y171207D01*
X628936Y169013D01*
X628280Y166567D01*
Y166300D01*
X636900D01*
Y174920D01*
D02*
G37*
G36*
X433700D02*
X433433D01*
X430987Y174264D01*
X428793Y172998D01*
X427002Y171207D01*
X425736Y169013D01*
X425080Y166567D01*
Y166300D01*
X433700D01*
Y174920D01*
D02*
G37*
G36*
X560700D02*
X560434D01*
X557987Y174264D01*
X555793Y172998D01*
X554002Y171207D01*
X552736Y169013D01*
X552080Y166567D01*
Y166300D01*
X560700D01*
Y174920D01*
D02*
G37*
G36*
X382900D02*
X382634D01*
X380187Y174264D01*
X377993Y172998D01*
X376202Y171207D01*
X374936Y169013D01*
X374280Y166567D01*
Y166300D01*
X382900D01*
Y174920D01*
D02*
G37*
G36*
X791566D02*
X789034D01*
X786587Y174264D01*
X784393Y172998D01*
X782602Y171207D01*
X781336Y169013D01*
X780680Y166567D01*
Y164034D01*
X781336Y161587D01*
X782602Y159393D01*
X784393Y157602D01*
X786587Y156336D01*
X789034Y155680D01*
X791566D01*
X794013Y156336D01*
X796207Y157602D01*
X797998Y159393D01*
X799264Y161587D01*
X799920Y164034D01*
Y166567D01*
X799264Y169013D01*
X797998Y171207D01*
X796207Y172998D01*
X794013Y174264D01*
X791566Y174920D01*
D02*
G37*
G36*
X766167D02*
X763633D01*
X761187Y174264D01*
X758993Y172998D01*
X757202Y171207D01*
X755936Y169013D01*
X755280Y166567D01*
Y164034D01*
X755936Y161587D01*
X757202Y159393D01*
X758993Y157602D01*
X761187Y156336D01*
X763633Y155680D01*
X766167D01*
X768613Y156336D01*
X770807Y157602D01*
X772598Y159393D01*
X773864Y161587D01*
X774520Y164034D01*
Y166567D01*
X773864Y169013D01*
X772598Y171207D01*
X770807Y172998D01*
X768613Y174264D01*
X766167Y174920D01*
D02*
G37*
G36*
X749120Y164300D02*
X740500D01*
Y155680D01*
X740767D01*
X743213Y156336D01*
X745407Y157602D01*
X747198Y159393D01*
X748464Y161587D01*
X749120Y164034D01*
Y164300D01*
D02*
G37*
G36*
X738500D02*
X729880D01*
Y164034D01*
X730536Y161587D01*
X731802Y159393D01*
X733593Y157602D01*
X735787Y156336D01*
X738233Y155680D01*
X738500D01*
Y164300D01*
D02*
G37*
G36*
X715367Y174920D02*
X712833D01*
X710387Y174264D01*
X708193Y172998D01*
X706402Y171207D01*
X705136Y169013D01*
X704480Y166567D01*
Y164034D01*
X705136Y161587D01*
X706402Y159393D01*
X708193Y157602D01*
X710387Y156336D01*
X712833Y155680D01*
X715367D01*
X717813Y156336D01*
X720007Y157602D01*
X721798Y159393D01*
X723064Y161587D01*
X723720Y164034D01*
Y166567D01*
X723064Y169013D01*
X721798Y171207D01*
X720007Y172998D01*
X717813Y174264D01*
X715367Y174920D01*
D02*
G37*
G36*
X689967D02*
X687433D01*
X684987Y174264D01*
X682793Y172998D01*
X681002Y171207D01*
X679736Y169013D01*
X679080Y166567D01*
Y164034D01*
X679736Y161587D01*
X681002Y159393D01*
X682793Y157602D01*
X684987Y156336D01*
X687433Y155680D01*
X689967D01*
X692413Y156336D01*
X694607Y157602D01*
X696398Y159393D01*
X697664Y161587D01*
X698320Y164034D01*
Y166567D01*
X697664Y169013D01*
X696398Y171207D01*
X694607Y172998D01*
X692413Y174264D01*
X689967Y174920D01*
D02*
G37*
G36*
X664566D02*
X662033D01*
X659587Y174264D01*
X657393Y172998D01*
X655602Y171207D01*
X654336Y169013D01*
X653680Y166567D01*
Y164034D01*
X654336Y161587D01*
X655602Y159393D01*
X657393Y157602D01*
X659587Y156336D01*
X662033Y155680D01*
X664566D01*
X667013Y156336D01*
X669207Y157602D01*
X670998Y159393D01*
X672264Y161587D01*
X672920Y164034D01*
Y166567D01*
X672264Y169013D01*
X670998Y171207D01*
X669207Y172998D01*
X667013Y174264D01*
X664566Y174920D01*
D02*
G37*
G36*
X647520Y164300D02*
X638900D01*
Y155680D01*
X639166D01*
X641613Y156336D01*
X643807Y157602D01*
X645598Y159393D01*
X646864Y161587D01*
X647520Y164034D01*
Y164300D01*
D02*
G37*
G36*
X636900D02*
X628280D01*
Y164034D01*
X628936Y161587D01*
X630202Y159393D01*
X631993Y157602D01*
X634187Y156336D01*
X636633Y155680D01*
X636900D01*
Y164300D01*
D02*
G37*
G36*
X613767Y174920D02*
X611233D01*
X608787Y174264D01*
X606593Y172998D01*
X604802Y171207D01*
X603536Y169013D01*
X602880Y166567D01*
Y164034D01*
X603536Y161587D01*
X604802Y159393D01*
X606593Y157602D01*
X608787Y156336D01*
X611233Y155680D01*
X613767D01*
X616213Y156336D01*
X618407Y157602D01*
X620198Y159393D01*
X621464Y161587D01*
X622120Y164034D01*
Y166567D01*
X621464Y169013D01*
X620198Y171207D01*
X618407Y172998D01*
X616213Y174264D01*
X613767Y174920D01*
D02*
G37*
G36*
X588367D02*
X585834D01*
X583387Y174264D01*
X581193Y172998D01*
X579402Y171207D01*
X578136Y169013D01*
X577480Y166567D01*
Y164034D01*
X578136Y161587D01*
X579402Y159393D01*
X581193Y157602D01*
X583387Y156336D01*
X585834Y155680D01*
X588367D01*
X590813Y156336D01*
X593007Y157602D01*
X594798Y159393D01*
X596064Y161587D01*
X596720Y164034D01*
Y166567D01*
X596064Y169013D01*
X594798Y171207D01*
X593007Y172998D01*
X590813Y174264D01*
X588367Y174920D01*
D02*
G37*
G36*
X571320Y164300D02*
X562700D01*
Y155680D01*
X562966D01*
X565413Y156336D01*
X567607Y157602D01*
X569398Y159393D01*
X570664Y161587D01*
X571320Y164034D01*
Y164300D01*
D02*
G37*
G36*
X560700D02*
X552080D01*
Y164034D01*
X552736Y161587D01*
X554002Y159393D01*
X555793Y157602D01*
X557987Y156336D01*
X560434Y155680D01*
X560700D01*
Y164300D01*
D02*
G37*
G36*
X537566Y174920D02*
X535033D01*
X532587Y174264D01*
X530393Y172998D01*
X528602Y171207D01*
X527336Y169013D01*
X526680Y166567D01*
Y164034D01*
X527336Y161587D01*
X528602Y159393D01*
X530393Y157602D01*
X532587Y156336D01*
X535033Y155680D01*
X537566D01*
X540013Y156336D01*
X542207Y157602D01*
X543998Y159393D01*
X545264Y161587D01*
X545920Y164034D01*
Y166567D01*
X545264Y169013D01*
X543998Y171207D01*
X542207Y172998D01*
X540013Y174264D01*
X537566Y174920D01*
D02*
G37*
G36*
X512166D02*
X509633D01*
X507187Y174264D01*
X504993Y172998D01*
X503202Y171207D01*
X501936Y169013D01*
X501280Y166567D01*
Y164034D01*
X501936Y161587D01*
X503202Y159393D01*
X504993Y157602D01*
X507187Y156336D01*
X509633Y155680D01*
X512166D01*
X514613Y156336D01*
X516807Y157602D01*
X518598Y159393D01*
X519864Y161587D01*
X520520Y164034D01*
Y166567D01*
X519864Y169013D01*
X518598Y171207D01*
X516807Y172998D01*
X514613Y174264D01*
X512166Y174920D01*
D02*
G37*
G36*
X486767D02*
X484234D01*
X481787Y174264D01*
X479593Y172998D01*
X477802Y171207D01*
X476536Y169013D01*
X475880Y166567D01*
Y164034D01*
X476536Y161587D01*
X477802Y159393D01*
X479593Y157602D01*
X481787Y156336D01*
X484234Y155680D01*
X486767D01*
X489213Y156336D01*
X491407Y157602D01*
X493198Y159393D01*
X494464Y161587D01*
X495120Y164034D01*
Y166567D01*
X494464Y169013D01*
X493198Y171207D01*
X491407Y172998D01*
X489213Y174264D01*
X486767Y174920D01*
D02*
G37*
G36*
X461367D02*
X458834D01*
X456387Y174264D01*
X454193Y172998D01*
X452402Y171207D01*
X451136Y169013D01*
X450480Y166567D01*
Y164034D01*
X451136Y161587D01*
X452402Y159393D01*
X454193Y157602D01*
X456387Y156336D01*
X458834Y155680D01*
X461367D01*
X463813Y156336D01*
X466007Y157602D01*
X467798Y159393D01*
X469064Y161587D01*
X469720Y164034D01*
Y166567D01*
X469064Y169013D01*
X467798Y171207D01*
X466007Y172998D01*
X463813Y174264D01*
X461367Y174920D01*
D02*
G37*
G36*
X444320Y164300D02*
X435700D01*
Y155680D01*
X435966D01*
X438413Y156336D01*
X440607Y157602D01*
X442398Y159393D01*
X443664Y161587D01*
X444320Y164034D01*
Y164300D01*
D02*
G37*
G36*
X433700D02*
X425080D01*
Y164034D01*
X425736Y161587D01*
X427002Y159393D01*
X428793Y157602D01*
X430987Y156336D01*
X433433Y155680D01*
X433700D01*
Y164300D01*
D02*
G37*
G36*
X410566Y174920D02*
X408033D01*
X405587Y174264D01*
X403393Y172998D01*
X401602Y171207D01*
X400336Y169013D01*
X399680Y166567D01*
Y164034D01*
X400336Y161587D01*
X401602Y159393D01*
X403393Y157602D01*
X405587Y156336D01*
X408033Y155680D01*
X410566D01*
X413013Y156336D01*
X415207Y157602D01*
X416998Y159393D01*
X418264Y161587D01*
X418920Y164034D01*
Y166567D01*
X418264Y169013D01*
X416998Y171207D01*
X415207Y172998D01*
X413013Y174264D01*
X410566Y174920D01*
D02*
G37*
G36*
X393520Y164300D02*
X384900D01*
Y155680D01*
X385167D01*
X387613Y156336D01*
X389807Y157602D01*
X391598Y159393D01*
X392864Y161587D01*
X393520Y164034D01*
Y164300D01*
D02*
G37*
G36*
X382900D02*
X374280D01*
Y164034D01*
X374936Y161587D01*
X376202Y159393D01*
X377993Y157602D01*
X380187Y156336D01*
X382634Y155680D01*
X382900D01*
Y164300D01*
D02*
G37*
G36*
X359767Y174920D02*
X357234D01*
X354787Y174264D01*
X352593Y172998D01*
X350802Y171207D01*
X349536Y169013D01*
X348880Y166567D01*
Y164034D01*
X349536Y161587D01*
X350802Y159393D01*
X352593Y157602D01*
X354787Y156336D01*
X357234Y155680D01*
X359767D01*
X362213Y156336D01*
X364407Y157602D01*
X366198Y159393D01*
X367464Y161587D01*
X368120Y164034D01*
Y166567D01*
X367464Y169013D01*
X366198Y171207D01*
X364407Y172998D01*
X362213Y174264D01*
X359767Y174920D01*
D02*
G37*
G36*
X334366D02*
X331833D01*
X329387Y174264D01*
X327193Y172998D01*
X325402Y171207D01*
X324136Y169013D01*
X323480Y166567D01*
Y164034D01*
X324136Y161587D01*
X325402Y159393D01*
X327193Y157602D01*
X329387Y156336D01*
X331833Y155680D01*
X334366D01*
X336813Y156336D01*
X339007Y157602D01*
X340798Y159393D01*
X342064Y161587D01*
X342720Y164034D01*
Y166567D01*
X342064Y169013D01*
X340798Y171207D01*
X339007Y172998D01*
X336813Y174264D01*
X334366Y174920D01*
D02*
G37*
G36*
X308967D02*
X306434D01*
X303987Y174264D01*
X301793Y172998D01*
X300002Y171207D01*
X298736Y169013D01*
X298080Y166567D01*
Y164034D01*
X298736Y161587D01*
X300002Y159393D01*
X301793Y157602D01*
X303987Y156336D01*
X306434Y155680D01*
X308967D01*
X311413Y156336D01*
X313607Y157602D01*
X315398Y159393D01*
X316664Y161587D01*
X317320Y164034D01*
Y166567D01*
X316664Y169013D01*
X315398Y171207D01*
X313607Y172998D01*
X311413Y174264D01*
X308967Y174920D01*
D02*
G37*
G36*
X841597Y211000D02*
X836403D01*
X831273Y210187D01*
X826332Y208582D01*
X821704Y206224D01*
X817502Y203171D01*
X813829Y199498D01*
X810776Y195296D01*
X808418Y190668D01*
X806813Y185728D01*
X806000Y180597D01*
Y175403D01*
X806813Y170273D01*
X808418Y165332D01*
X810776Y160704D01*
X813829Y156502D01*
X817502Y152829D01*
X821704Y149776D01*
X826332Y147418D01*
X831273Y145813D01*
X836403Y145000D01*
X841597D01*
X846728Y145813D01*
X851668Y147418D01*
X856296Y149776D01*
X860498Y152829D01*
X864171Y156502D01*
X867224Y160704D01*
X869582Y165332D01*
X871187Y170273D01*
X872000Y175403D01*
Y180597D01*
X871187Y185728D01*
X869582Y190668D01*
X867224Y195296D01*
X864171Y199498D01*
X860498Y203171D01*
X856296Y206224D01*
X851668Y208582D01*
X846728Y210187D01*
X841597Y211000D01*
D02*
G37*
G36*
X261597D02*
X256403D01*
X251273Y210187D01*
X246332Y208582D01*
X241704Y206224D01*
X237502Y203171D01*
X233829Y199498D01*
X230776Y195296D01*
X228418Y190668D01*
X226813Y185728D01*
X226000Y180597D01*
Y175403D01*
X226813Y170273D01*
X228418Y165332D01*
X230776Y160704D01*
X233829Y156502D01*
X237502Y152829D01*
X241704Y149776D01*
X246332Y147418D01*
X251273Y145813D01*
X256403Y145000D01*
X261597D01*
X266728Y145813D01*
X271668Y147418D01*
X276296Y149776D01*
X280498Y152829D01*
X284171Y156502D01*
X287224Y160704D01*
X289582Y165332D01*
X291187Y170273D01*
X292000Y175403D01*
Y180597D01*
X291187Y185728D01*
X289582Y190668D01*
X287224Y195296D01*
X284171Y199498D01*
X280498Y203171D01*
X276296Y206224D01*
X271668Y208582D01*
X266728Y210187D01*
X261597Y211000D01*
D02*
G37*
G36*
X552494Y137000D02*
X550505D01*
X548667Y136239D01*
X547261Y134832D01*
X546500Y132994D01*
Y131005D01*
X547261Y129167D01*
X548667Y127761D01*
X550505Y127000D01*
X552494D01*
X554332Y127761D01*
X555738Y129167D01*
X556500Y131005D01*
Y132994D01*
X555738Y134832D01*
X554332Y136239D01*
X552494Y137000D01*
D02*
G37*
G36*
X536494D02*
X534505D01*
X532667Y136239D01*
X531261Y134832D01*
X530500Y132994D01*
Y131005D01*
X531261Y129167D01*
X532667Y127761D01*
X534505Y127000D01*
X536494D01*
X538332Y127761D01*
X539738Y129167D01*
X540500Y131005D01*
Y132994D01*
X539738Y134832D01*
X538332Y136239D01*
X536494Y137000D01*
D02*
G37*
G36*
X520494D02*
X518505D01*
X516667Y136239D01*
X515261Y134832D01*
X514500Y132994D01*
Y131005D01*
X515261Y129167D01*
X516667Y127761D01*
X518505Y127000D01*
X520494D01*
X522332Y127761D01*
X523738Y129167D01*
X524500Y131005D01*
Y132994D01*
X523738Y134832D01*
X522332Y136239D01*
X520494Y137000D01*
D02*
G37*
G36*
X504494D02*
X502505D01*
X500667Y136239D01*
X499261Y134832D01*
X498500Y132994D01*
Y131005D01*
X499261Y129167D01*
X500667Y127761D01*
X502505Y127000D01*
X504494D01*
X506332Y127761D01*
X507738Y129167D01*
X508500Y131005D01*
Y132994D01*
X507738Y134832D01*
X506332Y136239D01*
X504494Y137000D01*
D02*
G37*
G36*
X456494D02*
X454505D01*
X452667Y136239D01*
X451261Y134832D01*
X450500Y132994D01*
Y131005D01*
X451261Y129167D01*
X452667Y127761D01*
X454505Y127000D01*
X456494D01*
X458332Y127761D01*
X459739Y129167D01*
X460500Y131005D01*
Y132994D01*
X459739Y134832D01*
X458332Y136239D01*
X456494Y137000D01*
D02*
G37*
G36*
X440494D02*
X438505D01*
X436667Y136239D01*
X435261Y134832D01*
X434500Y132994D01*
Y131005D01*
X435261Y129167D01*
X436667Y127761D01*
X438505Y127000D01*
X440494D01*
X442332Y127761D01*
X443739Y129167D01*
X444500Y131005D01*
Y132994D01*
X443739Y134832D01*
X442332Y136239D01*
X440494Y137000D01*
D02*
G37*
G36*
X424494D02*
X422505D01*
X420667Y136239D01*
X419261Y134832D01*
X418500Y132994D01*
Y131005D01*
X419261Y129167D01*
X420667Y127761D01*
X422505Y127000D01*
X424494D01*
X426332Y127761D01*
X427738Y129167D01*
X428500Y131005D01*
Y132994D01*
X427738Y134832D01*
X426332Y136239D01*
X424494Y137000D01*
D02*
G37*
G36*
X408494D02*
X406505D01*
X404667Y136239D01*
X403261Y134832D01*
X402500Y132994D01*
Y131005D01*
X403261Y129167D01*
X404667Y127761D01*
X406505Y127000D01*
X408494D01*
X410332Y127761D01*
X411739Y129167D01*
X412500Y131005D01*
Y132994D01*
X411739Y134832D01*
X410332Y136239D01*
X408494Y137000D01*
D02*
G37*
G36*
X906868Y137127D02*
X904879D01*
X903041Y136365D01*
X901635Y134959D01*
X900873Y133121D01*
Y131132D01*
X901635Y129294D01*
X903041Y127888D01*
X904879Y127127D01*
X906000D01*
Y126005D01*
X906761Y124168D01*
X908168Y122761D01*
X910005Y122000D01*
X911995D01*
X913832Y122761D01*
X915239Y124168D01*
X916000Y126005D01*
Y127995D01*
X915239Y129832D01*
X913832Y131239D01*
X911995Y132000D01*
X910873D01*
Y133121D01*
X910112Y134959D01*
X908706Y136365D01*
X906868Y137127D01*
D02*
G37*
G36*
X1047382Y142500D02*
X1044618D01*
X1041947Y141784D01*
X1039553Y140402D01*
X1037598Y138447D01*
X1036216Y136053D01*
X1035500Y133382D01*
Y130618D01*
X1036216Y127947D01*
X1037598Y125553D01*
X1039553Y123598D01*
X1041947Y122216D01*
X1044618Y121500D01*
X1047382D01*
X1050053Y122216D01*
X1052447Y123598D01*
X1054402Y125553D01*
X1055784Y127947D01*
X1056500Y130618D01*
Y133382D01*
X1055784Y136053D01*
X1054402Y138447D01*
X1052447Y140402D01*
X1050053Y141784D01*
X1047382Y142500D01*
D02*
G37*
G36*
X560494Y121000D02*
X558505D01*
X556667Y120239D01*
X555261Y118832D01*
X554500Y116994D01*
Y115005D01*
X555261Y113167D01*
X556667Y111761D01*
X558505Y111000D01*
X560494D01*
X562332Y111761D01*
X563738Y113167D01*
X564500Y115005D01*
Y116994D01*
X563738Y118832D01*
X562332Y120239D01*
X560494Y121000D01*
D02*
G37*
G36*
X544494D02*
X542505D01*
X540667Y120239D01*
X539261Y118832D01*
X538500Y116994D01*
Y115005D01*
X539261Y113167D01*
X540667Y111761D01*
X542505Y111000D01*
X544494D01*
X546332Y111761D01*
X547738Y113167D01*
X548500Y115005D01*
Y116994D01*
X547738Y118832D01*
X546332Y120239D01*
X544494Y121000D01*
D02*
G37*
G36*
X528494D02*
X526505D01*
X524667Y120239D01*
X523261Y118832D01*
X522500Y116994D01*
Y115005D01*
X523261Y113167D01*
X524667Y111761D01*
X526505Y111000D01*
X528494D01*
X530332Y111761D01*
X531738Y113167D01*
X532500Y115005D01*
Y116994D01*
X531738Y118832D01*
X530332Y120239D01*
X528494Y121000D01*
D02*
G37*
G36*
X464494D02*
X462505D01*
X460667Y120239D01*
X459261Y118832D01*
X458500Y116994D01*
Y115005D01*
X459261Y113167D01*
X460667Y111761D01*
X462505Y111000D01*
X464494D01*
X466332Y111761D01*
X467738Y113167D01*
X468500Y115005D01*
Y116994D01*
X467738Y118832D01*
X466332Y120239D01*
X464494Y121000D01*
D02*
G37*
G36*
X448494D02*
X446505D01*
X444667Y120239D01*
X443261Y118832D01*
X442500Y116994D01*
Y115005D01*
X443261Y113167D01*
X444667Y111761D01*
X446505Y111000D01*
X448494D01*
X450332Y111761D01*
X451739Y113167D01*
X452500Y115005D01*
Y116994D01*
X451739Y118832D01*
X450332Y120239D01*
X448494Y121000D01*
D02*
G37*
G36*
X432494D02*
X430505D01*
X428667Y120239D01*
X427261Y118832D01*
X426500Y116994D01*
Y115005D01*
X427261Y113167D01*
X428667Y111761D01*
X430505Y111000D01*
X432494D01*
X434332Y111761D01*
X435738Y113167D01*
X436500Y115005D01*
Y116994D01*
X435738Y118832D01*
X434332Y120239D01*
X432494Y121000D01*
D02*
G37*
G36*
X416494D02*
X414505D01*
X412667Y120239D01*
X411261Y118832D01*
X410500Y116994D01*
Y115005D01*
X411261Y113167D01*
X412667Y111761D01*
X414505Y111000D01*
X416494D01*
X418332Y111761D01*
X419739Y113167D01*
X420500Y115005D01*
Y116994D01*
X419739Y118832D01*
X418332Y120239D01*
X416494Y121000D01*
D02*
G37*
G36*
X855922Y100000D02*
X854078D01*
X852298Y99523D01*
X850702Y98601D01*
X849808Y97708D01*
X849000Y97433D01*
X848192Y97708D01*
X847298Y98601D01*
X845702Y99523D01*
X843922Y100000D01*
X842078D01*
X840298Y99523D01*
X838702Y98601D01*
X837808Y97708D01*
X837000Y97433D01*
X836192Y97708D01*
X835298Y98601D01*
X833702Y99523D01*
X831922Y100000D01*
X830078D01*
X828298Y99523D01*
X826702Y98601D01*
X825399Y97298D01*
X824477Y95702D01*
X824000Y93922D01*
Y92078D01*
X824477Y90298D01*
X825399Y88702D01*
X826702Y87399D01*
X828298Y86477D01*
X830078Y86000D01*
X831922D01*
X833702Y86477D01*
X835298Y87399D01*
X836192Y88292D01*
X837000Y88567D01*
X837808Y88292D01*
X838702Y87399D01*
X840298Y86477D01*
X842078Y86000D01*
X843922D01*
X845702Y86477D01*
X847298Y87399D01*
X848192Y88292D01*
X849000Y88567D01*
X849808Y88292D01*
X850702Y87399D01*
X852298Y86477D01*
X854078Y86000D01*
X855922D01*
X857702Y86477D01*
X859298Y87399D01*
X860601Y88702D01*
X861523Y90298D01*
X862000Y92078D01*
Y93922D01*
X861523Y95702D01*
X860601Y97298D01*
X859298Y98601D01*
X857702Y99523D01*
X855922Y100000D01*
D02*
G37*
G36*
X1047382Y117500D02*
X1044618D01*
X1041947Y116784D01*
X1039553Y115402D01*
X1037598Y113447D01*
X1036216Y111053D01*
X1035500Y108382D01*
Y105618D01*
X1036216Y102947D01*
X1037598Y100553D01*
X1039553Y98598D01*
X1041947Y97216D01*
X1044618Y96500D01*
X1047382D01*
X1050053Y97216D01*
X1052447Y98598D01*
X1054402Y100553D01*
X1055784Y102947D01*
X1056500Y105618D01*
Y108382D01*
X1055784Y111053D01*
X1054402Y113447D01*
X1052447Y115402D01*
X1050053Y116784D01*
X1047382Y117500D01*
D02*
G37*
G36*
X552494Y105000D02*
X550505D01*
X548667Y104239D01*
X547261Y102832D01*
X546500Y100994D01*
Y99005D01*
X547261Y97168D01*
X548667Y95761D01*
X550505Y95000D01*
X552494D01*
X554332Y95761D01*
X555738Y97168D01*
X556500Y99005D01*
Y100994D01*
X555738Y102832D01*
X554332Y104239D01*
X552494Y105000D01*
D02*
G37*
G36*
X536494D02*
X534505D01*
X532667Y104239D01*
X531261Y102832D01*
X530500Y100994D01*
Y99005D01*
X531261Y97168D01*
X532667Y95761D01*
X534505Y95000D01*
X536494D01*
X538332Y95761D01*
X539738Y97168D01*
X540500Y99005D01*
Y100994D01*
X539738Y102832D01*
X538332Y104239D01*
X536494Y105000D01*
D02*
G37*
G36*
X520494D02*
X518505D01*
X516667Y104239D01*
X515261Y102832D01*
X514500Y100994D01*
Y99005D01*
X515261Y97168D01*
X516667Y95761D01*
X518505Y95000D01*
X520494D01*
X522332Y95761D01*
X523738Y97168D01*
X524500Y99005D01*
Y100994D01*
X523738Y102832D01*
X522332Y104239D01*
X520494Y105000D01*
D02*
G37*
G36*
X504494D02*
X502505D01*
X500667Y104239D01*
X499261Y102832D01*
X498500Y100994D01*
Y99005D01*
X499261Y97168D01*
X500667Y95761D01*
X502505Y95000D01*
X504494D01*
X506332Y95761D01*
X507738Y97168D01*
X508500Y99005D01*
Y100994D01*
X507738Y102832D01*
X506332Y104239D01*
X504494Y105000D01*
D02*
G37*
G36*
X456494D02*
X454505D01*
X452667Y104239D01*
X451261Y102832D01*
X450500Y100994D01*
Y99005D01*
X451261Y97168D01*
X452667Y95761D01*
X454505Y95000D01*
X456494D01*
X458332Y95761D01*
X459739Y97168D01*
X460500Y99005D01*
Y100994D01*
X459739Y102832D01*
X458332Y104239D01*
X456494Y105000D01*
D02*
G37*
G36*
X440494D02*
X438505D01*
X436667Y104239D01*
X435261Y102832D01*
X434500Y100994D01*
Y99005D01*
X435261Y97168D01*
X436667Y95761D01*
X438505Y95000D01*
X440494D01*
X442332Y95761D01*
X443739Y97168D01*
X444500Y99005D01*
Y100994D01*
X443739Y102832D01*
X442332Y104239D01*
X440494Y105000D01*
D02*
G37*
G36*
X424494D02*
X422505D01*
X420667Y104239D01*
X419261Y102832D01*
X418500Y100994D01*
Y99005D01*
X419261Y97168D01*
X420667Y95761D01*
X422505Y95000D01*
X424494D01*
X426332Y95761D01*
X427738Y97168D01*
X428500Y99005D01*
Y100994D01*
X427738Y102832D01*
X426332Y104239D01*
X424494Y105000D01*
D02*
G37*
G36*
X408494D02*
X406505D01*
X404667Y104239D01*
X403261Y102832D01*
X402500Y100994D01*
Y99005D01*
X403261Y97168D01*
X404667Y95761D01*
X406505Y95000D01*
X408494D01*
X410332Y95761D01*
X411739Y97168D01*
X412500Y99005D01*
Y100994D01*
X411739Y102832D01*
X410332Y104239D01*
X408494Y105000D01*
D02*
G37*
G36*
X1047382Y92500D02*
X1044618D01*
X1041947Y91784D01*
X1039553Y90402D01*
X1037598Y88447D01*
X1036216Y86053D01*
X1035500Y83382D01*
Y80618D01*
X1036216Y77947D01*
X1037598Y75553D01*
X1039553Y73598D01*
X1041947Y72216D01*
X1044618Y71500D01*
X1047382D01*
X1050053Y72216D01*
X1052447Y73598D01*
X1054402Y75553D01*
X1055784Y77947D01*
X1056500Y80618D01*
Y83382D01*
X1055784Y86053D01*
X1054402Y88447D01*
X1052447Y90402D01*
X1050053Y91784D01*
X1047382Y92500D01*
D02*
G37*
G36*
X170995Y80000D02*
X169006D01*
X167168Y79239D01*
X165761Y77832D01*
X165000Y75995D01*
Y74005D01*
X165761Y72168D01*
X167168Y70761D01*
X169006Y70000D01*
X170127D01*
Y68879D01*
X170888Y67041D01*
X172294Y65635D01*
X174132Y64873D01*
X176121D01*
X177959Y65635D01*
X179365Y67041D01*
X180126Y68879D01*
Y70868D01*
X179365Y72706D01*
X177959Y74112D01*
X176121Y74873D01*
X175000D01*
Y75995D01*
X174239Y77832D01*
X172832Y79239D01*
X170995Y80000D01*
D02*
G37*
G36*
X1047349Y67250D02*
X1044651D01*
X1042044Y66551D01*
X1039706Y65202D01*
X1037798Y63294D01*
X1036449Y60956D01*
X1035750Y58349D01*
Y55651D01*
X1036449Y53044D01*
X1037798Y50706D01*
X1039706Y48798D01*
X1042044Y47449D01*
X1044651Y46750D01*
X1047349D01*
X1049956Y47449D01*
X1052294Y48798D01*
X1054202Y50706D01*
X1055552Y53044D01*
X1056250Y55651D01*
Y58349D01*
X1055552Y60956D01*
X1054202Y63294D01*
X1052294Y65202D01*
X1049956Y66551D01*
X1047349Y67250D01*
D02*
G37*
G36*
X930400Y78111D02*
X925891Y77667D01*
X921556Y76352D01*
X917560Y74216D01*
X914058Y71342D01*
X911184Y67840D01*
X909048Y63844D01*
X907733Y59509D01*
X907289Y55000D01*
X907733Y50491D01*
X909048Y46156D01*
X911184Y42160D01*
X914058Y38658D01*
X917560Y35784D01*
X921556Y33648D01*
X925891Y32333D01*
X930400Y31889D01*
X934909Y32333D01*
X939244Y33648D01*
X943240Y35784D01*
X946742Y38658D01*
X949616Y42160D01*
X951752Y46156D01*
X953067Y50491D01*
X953511Y55000D01*
X953067Y59509D01*
X951752Y63844D01*
X949616Y67840D01*
X946742Y71342D01*
X943240Y74216D01*
X939244Y76352D01*
X934909Y77667D01*
X930400Y78111D01*
D02*
G37*
G36*
X246400Y58111D02*
X241891Y57667D01*
X237556Y56352D01*
X233560Y54216D01*
X230058Y51342D01*
X227184Y47840D01*
X225048Y43844D01*
X223733Y39509D01*
X223289Y35000D01*
X223733Y30491D01*
X225048Y26156D01*
X227184Y22160D01*
X230058Y18658D01*
X233560Y15784D01*
X237556Y13648D01*
X241891Y12333D01*
X246400Y11889D01*
X250909Y12333D01*
X255244Y13648D01*
X259240Y15784D01*
X262742Y18658D01*
X265616Y22160D01*
X267752Y26156D01*
X269067Y30491D01*
X269511Y35000D01*
X269067Y39509D01*
X267752Y43844D01*
X265616Y47840D01*
X262742Y51342D01*
X259240Y54216D01*
X255244Y56352D01*
X250909Y57667D01*
X246400Y58111D01*
D02*
G37*
G36*
X771413Y934500D02*
X766587D01*
X761854Y933559D01*
X757395Y931712D01*
X753382Y929030D01*
X749970Y925618D01*
X747288Y921605D01*
X745442Y917146D01*
X744500Y912413D01*
Y907587D01*
X745442Y902854D01*
X747288Y898395D01*
X749970Y894382D01*
X753382Y890970D01*
X757395Y888288D01*
X761854Y886441D01*
X766587Y885500D01*
X771413D01*
X776146Y886441D01*
X780605Y888288D01*
X784618Y890970D01*
X788030Y894382D01*
X790712Y898395D01*
X792559Y902854D01*
X793500Y907587D01*
Y912413D01*
X792559Y917146D01*
X790712Y921605D01*
X788030Y925618D01*
X784618Y929030D01*
X780605Y931712D01*
X776146Y933559D01*
X771413Y934500D01*
D02*
G37*
G36*
X930400Y918111D02*
X925891Y917667D01*
X921556Y916352D01*
X917560Y914216D01*
X914058Y911342D01*
X911184Y907840D01*
X909048Y903844D01*
X907733Y899509D01*
X907289Y895000D01*
X907733Y890491D01*
X909048Y886156D01*
X911184Y882160D01*
X914058Y878658D01*
X917560Y875784D01*
X921556Y873648D01*
X925891Y872333D01*
X930400Y871889D01*
X934909Y872333D01*
X939244Y873648D01*
X943240Y875784D01*
X946742Y878658D01*
X949616Y882160D01*
X951752Y886156D01*
X953067Y890491D01*
X953511Y895000D01*
X953067Y899509D01*
X951752Y903844D01*
X949616Y907840D01*
X946742Y911342D01*
X943240Y914216D01*
X939244Y916352D01*
X934909Y917667D01*
X930400Y918111D01*
D02*
G37*
G36*
X846506Y879540D02*
X843994D01*
X841568Y878890D01*
X839392Y877634D01*
X837616Y875858D01*
X836360Y873682D01*
X835710Y871256D01*
Y868744D01*
X836360Y866318D01*
X837616Y864142D01*
X839392Y862366D01*
X841568Y861110D01*
X843994Y860460D01*
X846506D01*
X848932Y861110D01*
X851108Y862366D01*
X852884Y864142D01*
X854140Y866318D01*
X854790Y868744D01*
Y871256D01*
X854140Y873682D01*
X852884Y875858D01*
X851108Y877634D01*
X848932Y878890D01*
X846506Y879540D01*
D02*
G37*
G36*
Y854540D02*
X843994D01*
X841568Y853890D01*
X839392Y852634D01*
X837616Y850858D01*
X836360Y848682D01*
X835710Y846256D01*
Y843744D01*
X836360Y841318D01*
X837616Y839142D01*
X839392Y837366D01*
X841568Y836110D01*
X843994Y835460D01*
X846506D01*
X848932Y836110D01*
X851108Y837366D01*
X852884Y839142D01*
X854140Y841318D01*
X854790Y843744D01*
Y846256D01*
X854140Y848682D01*
X852884Y850858D01*
X851108Y852634D01*
X848932Y853890D01*
X846506Y854540D01*
D02*
G37*
G36*
X973453Y841750D02*
X970547D01*
X967698Y841183D01*
X965013Y840071D01*
X962597Y838457D01*
X960543Y836403D01*
X958929Y833987D01*
X957817Y831302D01*
X957250Y828453D01*
Y825547D01*
X957817Y822698D01*
X958929Y820013D01*
X960543Y817597D01*
X962597Y815543D01*
X965013Y813929D01*
X967698Y812817D01*
X970547Y812250D01*
X973453D01*
X976302Y812817D01*
X978987Y813929D01*
X981403Y815543D01*
X983457Y817597D01*
X985071Y820013D01*
X986183Y822698D01*
X986750Y825547D01*
Y828453D01*
X986183Y831302D01*
X985071Y833987D01*
X983457Y836403D01*
X981403Y838457D01*
X978987Y840071D01*
X976302Y841183D01*
X973453Y841750D01*
D02*
G37*
G36*
X846506Y829540D02*
X843994D01*
X841568Y828890D01*
X839392Y827634D01*
X837616Y825858D01*
X836360Y823682D01*
X835710Y821256D01*
Y818744D01*
X836360Y816318D01*
X837616Y814142D01*
X839392Y812366D01*
X841568Y811110D01*
X843994Y810460D01*
X846506D01*
X848932Y811110D01*
X851108Y812366D01*
X852884Y814142D01*
X854140Y816318D01*
X854790Y818744D01*
Y821256D01*
X854140Y823682D01*
X852884Y825858D01*
X851108Y827634D01*
X848932Y828890D01*
X846506Y829540D01*
D02*
G37*
G36*
Y804540D02*
X843994D01*
X841568Y803890D01*
X839392Y802634D01*
X837616Y800858D01*
X836360Y798682D01*
X835710Y796256D01*
Y793744D01*
X836360Y791318D01*
X837616Y789142D01*
X839392Y787366D01*
X841568Y786110D01*
X843994Y785460D01*
X846506D01*
X848932Y786110D01*
X851108Y787366D01*
X852884Y789142D01*
X854140Y791318D01*
X854790Y793744D01*
Y796256D01*
X854140Y798682D01*
X852884Y800858D01*
X851108Y802634D01*
X848932Y803890D01*
X846506Y804540D01*
D02*
G37*
G36*
Y779540D02*
X843994D01*
X841568Y778890D01*
X839392Y777634D01*
X837616Y775858D01*
X836360Y773682D01*
X835710Y771256D01*
Y768744D01*
X836360Y766318D01*
X837616Y764142D01*
X839392Y762366D01*
X841568Y761110D01*
X843994Y760460D01*
X846506D01*
X848932Y761110D01*
X851108Y762366D01*
X852884Y764142D01*
X854140Y766318D01*
X854790Y768744D01*
Y771256D01*
X854140Y773682D01*
X852884Y775858D01*
X851108Y777634D01*
X848932Y778890D01*
X846506Y779540D01*
D02*
G37*
%LPD*%
G36*
X975707Y839222D02*
X978021Y838264D01*
X980103Y836873D01*
X981873Y835103D01*
X983264Y833021D01*
X984222Y830707D01*
X984711Y828252D01*
Y825748D01*
X984222Y823292D01*
X983264Y820979D01*
X981873Y818897D01*
X980103Y817127D01*
X978021Y815736D01*
X975707Y814778D01*
X973252Y814289D01*
X970748D01*
X968292Y814778D01*
X965979Y815736D01*
X963897Y817127D01*
X962127Y818897D01*
X960736Y820979D01*
X959778Y823292D01*
X959289Y825748D01*
Y828252D01*
X959778Y830707D01*
X960736Y833021D01*
X962127Y835103D01*
X963897Y836873D01*
X965979Y838264D01*
X968292Y839222D01*
X970748Y839711D01*
X973252D01*
X975707Y839222D01*
D02*
G37*
D13*
X535500Y324000D02*
X544499Y315000D01*
X844970Y302000D02*
X845000D01*
X544499Y315000D02*
X831971D01*
X844970Y302000D01*
D98*
X688700Y190700D02*
D03*
X739500Y165300D02*
D03*
X637900D02*
D03*
X485500Y190700D02*
D03*
X561700Y165300D02*
D03*
X307700Y190700D02*
D03*
X434700Y165300D02*
D03*
X383900D02*
D03*
D104*
X1072000Y907000D02*
D03*
Y797000D02*
D03*
D105*
X909600Y462300D02*
D03*
Y487700D02*
D03*
Y538500D02*
D03*
Y513100D02*
D03*
Y563900D02*
D03*
Y665500D02*
D03*
Y640100D02*
D03*
Y614700D02*
D03*
Y589300D02*
D03*
D107*
X972000Y827000D02*
D03*
Y877000D02*
D03*
D109*
X707501Y920001D02*
D03*
X717501Y900001D02*
D03*
X707501Y880001D02*
D03*
X717501Y860001D02*
D03*
X687501Y920001D02*
D03*
X697501Y900001D02*
D03*
X687501Y880001D02*
D03*
X697501Y860001D02*
D03*
X667501Y920001D02*
D03*
X677501Y900001D02*
D03*
X667501Y880001D02*
D03*
X677501Y860001D02*
D03*
X647501Y920001D02*
D03*
X657501Y900001D02*
D03*
X647501Y880001D02*
D03*
X657501Y860001D02*
D03*
X627500Y920001D02*
D03*
X637500Y900001D02*
D03*
X627500Y880001D02*
D03*
X637500Y860001D02*
D03*
X607500Y920001D02*
D03*
X617500Y900001D02*
D03*
X607500Y880001D02*
D03*
X617500Y860001D02*
D03*
X607500Y840001D02*
D03*
X587500Y920001D02*
D03*
X597500Y900001D02*
D03*
X587500Y880001D02*
D03*
X597500Y860001D02*
D03*
X587500Y840001D02*
D03*
X567500Y920001D02*
D03*
X577500Y900001D02*
D03*
X567500Y880001D02*
D03*
X577500Y860001D02*
D03*
X567500Y840001D02*
D03*
X547500Y920001D02*
D03*
X557500Y900001D02*
D03*
X547500Y880001D02*
D03*
X557500Y860001D02*
D03*
X547500Y840001D02*
D03*
X527500Y920001D02*
D03*
X537500Y900001D02*
D03*
X527500Y880001D02*
D03*
X537500Y860001D02*
D03*
X527500Y840001D02*
D03*
X557000Y612000D02*
D03*
X542000Y611000D02*
D03*
X516000Y610000D02*
D03*
X264000Y609000D02*
D03*
X241000D02*
D03*
X720000Y792000D02*
D03*
X728000D02*
D03*
X720000Y780000D02*
D03*
X728000D02*
D03*
X720000Y768000D02*
D03*
X728000D02*
D03*
Y756000D02*
D03*
X720000D02*
D03*
X728000Y748000D02*
D03*
Y740000D02*
D03*
X720000Y744000D02*
D03*
Y732000D02*
D03*
X728000D02*
D03*
X535500Y324000D02*
D03*
X845000Y302000D02*
D03*
X794000Y114000D02*
D03*
X768000Y29000D02*
D03*
X747000D02*
D03*
X735000D02*
D03*
X715000D02*
D03*
X828000Y63000D02*
D03*
X848000D02*
D03*
X845000Y50000D02*
D03*
X553000Y547750D02*
D03*
X657501Y40000D02*
D03*
X647501Y20000D02*
D03*
X637500Y40000D02*
D03*
X627500Y20000D02*
D03*
X607500Y60000D02*
D03*
X617500Y40000D02*
D03*
X587500Y20000D02*
D03*
X577500Y40000D02*
D03*
X567500Y20000D02*
D03*
X557500Y40000D02*
D03*
X547500Y20000D02*
D03*
X537500Y40000D02*
D03*
X527500Y20000D02*
D03*
X517500Y40000D02*
D03*
X507500Y20000D02*
D03*
X487500Y60000D02*
D03*
X497500Y40000D02*
D03*
X467500Y60000D02*
D03*
X457500Y40000D02*
D03*
X447500Y20000D02*
D03*
X437500Y40000D02*
D03*
X427500Y20000D02*
D03*
X417500Y40000D02*
D03*
X407500Y20000D02*
D03*
X397500Y40000D02*
D03*
X387500Y20000D02*
D03*
X367500Y60000D02*
D03*
X377500Y40000D02*
D03*
X347500Y60000D02*
D03*
X337500Y40000D02*
D03*
X327500Y20000D02*
D03*
X317500Y40000D02*
D03*
X307500Y20000D02*
D03*
X287500Y60000D02*
D03*
X297500Y40000D02*
D03*
X287500Y20000D02*
D03*
X825000Y235000D02*
D03*
X861000Y302000D02*
D03*
X885000Y150000D02*
D03*
X131692Y352170D02*
D03*
X120000Y85000D02*
D03*
X100000D02*
D03*
X80000D02*
D03*
X55000D02*
D03*
X35000D02*
D03*
X15000D02*
D03*
X356270Y509480D02*
D03*
X355270Y430480D02*
D03*
X371270Y353480D02*
D03*
Y333480D02*
D03*
X372270Y430480D02*
D03*
X406270Y228480D02*
D03*
X371270Y227480D02*
D03*
X419270Y509480D02*
D03*
X390270Y430480D02*
D03*
X407270D02*
D03*
X553000Y527750D02*
D03*
X457270Y508480D02*
D03*
X446270Y508480D02*
D03*
X493000Y487750D02*
D03*
X542000Y481750D02*
D03*
X492000Y527750D02*
D03*
X406270Y283480D02*
D03*
Y298480D02*
D03*
Y353480D02*
D03*
Y248480D02*
D03*
X371270Y297480D02*
D03*
Y282480D02*
D03*
Y317480D02*
D03*
X406270Y263480D02*
D03*
Y318480D02*
D03*
X371270Y247480D02*
D03*
Y262480D02*
D03*
X406270Y333480D02*
D03*
X492000Y547750D02*
D03*
X582000Y573750D02*
D03*
X468680Y366890D02*
D03*
X492000Y399750D02*
D03*
X451680Y366890D02*
D03*
X468680Y386890D02*
D03*
X481000Y366750D02*
D03*
X451680Y386890D02*
D03*
X452270Y424480D02*
D03*
Y404480D02*
D03*
X469270D02*
D03*
X469270Y418480D02*
D03*
X480190Y407750D02*
D03*
X400270Y509480D02*
D03*
X386270D02*
D03*
X370270D02*
D03*
X96692Y246170D02*
D03*
Y226170D02*
D03*
Y261170D02*
D03*
Y316170D02*
D03*
Y296170D02*
D03*
X96692Y332170D02*
D03*
X96692Y281170D02*
D03*
X131692Y262170D02*
D03*
Y227170D02*
D03*
Y247170D02*
D03*
Y317170D02*
D03*
Y332170D02*
D03*
Y282170D02*
D03*
Y297170D02*
D03*
X80692Y429170D02*
D03*
X96692Y352170D02*
D03*
X97692Y429170D02*
D03*
X115692D02*
D03*
X177102Y365580D02*
D03*
Y385580D02*
D03*
X194102Y365580D02*
D03*
Y385580D02*
D03*
X177692Y403170D02*
D03*
Y423170D02*
D03*
X194692Y403170D02*
D03*
X194692Y417170D02*
D03*
X206422Y365440D02*
D03*
X217422Y398440D02*
D03*
X205612Y406440D02*
D03*
X132692Y429170D02*
D03*
X171692Y507170D02*
D03*
X144692Y508170D02*
D03*
X182692Y507170D02*
D03*
X267422Y480440D02*
D03*
X218422Y486440D02*
D03*
X81692Y508170D02*
D03*
X95692D02*
D03*
X125692D02*
D03*
X111692D02*
D03*
X217422Y526440D02*
D03*
Y546440D02*
D03*
X278422Y526440D02*
D03*
Y546440D02*
D03*
X307422Y572440D02*
D03*
M02*
