G04*
G04 #@! TF.GenerationSoftware,Altium Limited,Altium Designer,24.6.1 (21)*
G04*
G04 Layer_Physical_Order=4*
G04 Layer_Color=16711680*
%FSLAX44Y44*%
%MOMM*%
G71*
G04*
G04 #@! TF.SameCoordinates,A8D64014-89CE-44E1-AE60-3DA97B657322*
G04*
G04*
G04 #@! TF.FilePolarity,Positive*
G04*
G01*
G75*
%ADD16C,0.1500*%
%ADD90C,0.2540*%
%ADD93C,0.1800*%
%ADD95C,2.3550*%
%ADD96R,1.3980X1.3980*%
%ADD97C,1.3980*%
%ADD98C,1.5240*%
%ADD99C,6.2000*%
%ADD100R,1.5240X1.5240*%
%ADD101R,1.6500X1.6500*%
%ADD102C,1.7000*%
%ADD103R,1.5080X1.5080*%
%ADD104C,1.5080*%
%ADD105C,1.6500*%
%ADD106C,2.5000*%
%ADD107C,2.5500*%
%ADD108R,2.5500X2.5500*%
%ADD109C,0.6000*%
%ADD110C,1.0000*%
%ADD111C,4.5000*%
D16*
X300830Y602170D02*
X320000Y583000D01*
X208170Y602170D02*
X300830D01*
X173000Y567000D02*
X208170Y602170D01*
X565000Y618000D02*
X597000Y586000D01*
X434000Y618000D02*
X565000D01*
X399000Y583000D02*
X434000Y618000D01*
X864000Y566000D02*
X880221Y549779D01*
X525019Y740000D02*
X696177Y568842D01*
X865177D01*
X881398Y552621D01*
X695000Y566000D02*
X864000D01*
X523842Y737158D02*
X695000Y566000D01*
X880823Y586842D02*
X896373Y602392D01*
X882000Y584000D02*
X897550Y599550D01*
X713158Y586842D02*
X880823D01*
X527158Y772842D02*
X713158Y586842D01*
X711981Y584000D02*
X882000D01*
X525981Y770000D02*
X711981Y584000D01*
X320000Y583000D02*
X399000D01*
X747000Y712000D02*
X762000Y727000D01*
X692000Y712000D02*
X747000D01*
X762000Y727000D02*
Y744000D01*
X635000Y769000D02*
X692000Y712000D01*
X754000Y729000D02*
Y752000D01*
X746000Y721000D02*
X754000Y729000D01*
X695000Y721000D02*
X746000D01*
X643000Y773000D02*
X695000Y721000D01*
X426460Y203460D02*
X626460D01*
X422000Y199000D02*
X426460Y203460D01*
X422000Y178000D02*
Y199000D01*
X408300Y164300D02*
X422000Y178000D01*
X628000Y303000D02*
X838000D01*
X861000Y326000D02*
Y356000D01*
X838000Y303000D02*
X861000Y326000D01*
X756000Y239000D02*
Y246000D01*
X701000Y203000D02*
X756500Y258500D01*
X701000Y153000D02*
Y203000D01*
X358500Y155500D02*
X376000Y138000D01*
X686000D01*
X701000Y153000D01*
X358500Y155500D02*
Y165300D01*
X642000Y149000D02*
X650000Y157000D01*
X451000Y149000D02*
X642000D01*
X447000Y153000D02*
X451000Y149000D01*
X650000Y195000D02*
X739000Y284000D01*
X650000Y157000D02*
Y195000D01*
X739000Y284000D02*
X756000D01*
X716070Y192670D02*
Y199070D01*
X756000Y239000D01*
X714100Y190700D02*
X716070Y192670D01*
X447000Y153000D02*
Y178400D01*
X434700Y190700D02*
X447000Y178400D01*
X264823Y797158D02*
X532842D01*
X169981Y892000D02*
X264823Y797158D01*
X101000Y892000D02*
X169981D01*
X266000Y800000D02*
X534019D01*
X171158Y894842D02*
X266000Y800000D01*
X99823Y894842D02*
X171158D01*
X76499Y871518D02*
X99823Y894842D01*
X79341Y870341D02*
X101000Y892000D01*
X76499Y856322D02*
Y871518D01*
X79341Y857499D02*
Y870341D01*
X661000Y669000D02*
X775981D01*
X79341Y857499D02*
X85221Y851620D01*
X87706D01*
X91286Y855200D02*
X111600D01*
X76499Y856322D02*
X84810Y848011D01*
Y833590D02*
Y848011D01*
Y833590D02*
X93800Y824600D01*
X87706Y851620D02*
X91286Y855200D01*
X534019Y800000D02*
X662177Y671842D01*
X532842Y797158D02*
X661000Y669000D01*
X662177Y671842D02*
X777158D01*
X246158Y772842D02*
X527158D01*
X244981Y770000D02*
X525981D01*
X117857Y867032D02*
X151968D01*
X116679Y864190D02*
X150791D01*
X244981Y770000D01*
X151968Y867032D02*
X246158Y772842D01*
X111600Y873289D02*
Y875600D01*
Y873289D02*
X117857Y867032D01*
X93800Y865400D02*
X94070Y865670D01*
X115200D02*
X116679Y864190D01*
X94070Y865670D02*
X115200D01*
X227729Y740000D02*
X525019D01*
X226552Y737158D02*
X523842D01*
X121519Y846210D02*
X227729Y740000D01*
X120342Y843368D02*
X226552Y737158D01*
X93800Y845000D02*
X115470D01*
X116679Y846210D01*
X121519D01*
X111600Y837111D02*
X117857Y843368D01*
X111600Y834800D02*
Y837111D01*
X117857Y843368D02*
X120342D01*
X881398Y552621D02*
X923721D01*
X105870Y804200D02*
X108162Y801908D01*
X110171Y803917D02*
X202247Y711842D01*
X518158D02*
X678168Y551832D01*
X202247Y711842D02*
X518158D01*
X108162Y801908D02*
X201070Y709000D01*
X516981D02*
X676990Y548990D01*
X201070Y709000D02*
X516981D01*
X868000Y623000D02*
X896379Y651379D01*
X777158Y671842D02*
X823158Y625842D01*
X866823D02*
X895202Y654221D01*
X823158Y625842D02*
X866823D01*
X821981Y623000D02*
X868000D01*
X775981Y669000D02*
X821981Y623000D01*
X676990Y548990D02*
X849990D01*
X678168Y551832D02*
X851168D01*
X896379Y651379D02*
X923721D01*
X895202Y654221D02*
X923721D01*
X897550Y599550D02*
X924750D01*
X896373Y602392D02*
X922692D01*
X924750Y599550D02*
X935000Y589300D01*
X922692Y602392D02*
X935000Y614700D01*
X923721Y654221D02*
X935000Y665500D01*
X923721Y651379D02*
X935000Y640100D01*
X93800Y804200D02*
X105870D01*
X110171Y803917D02*
Y812971D01*
X111600Y814400D01*
X849990Y548990D02*
X900002Y498979D01*
X851168Y551832D02*
X901179Y501821D01*
X923721D01*
X900002Y498979D02*
X923721D01*
X880221Y549779D02*
X923721D01*
X923721Y552621D02*
X935000Y563900D01*
X923721Y549779D02*
X935000Y538500D01*
X888000Y198000D02*
X965079Y120921D01*
X885158Y292177D02*
X891602Y298621D01*
X885158Y196823D02*
Y292177D01*
Y196823D02*
X963902Y118079D01*
X888000Y198000D02*
Y291000D01*
X892779Y295779D01*
X898321D01*
X891602Y298621D02*
X898321D01*
X909600Y309900D01*
X898321Y295779D02*
X909600Y284500D01*
X1070000Y86555D02*
Y136000D01*
X1072842Y85377D02*
Y137177D01*
X1051177Y158842D02*
X1072842Y137177D01*
X1050000Y156000D02*
X1070000Y136000D01*
X1001981Y156000D02*
X1050000D01*
X1003158Y158842D02*
X1051177D01*
X947000Y210981D02*
X1001981Y156000D01*
X949842Y212158D02*
Y342177D01*
X947000Y210981D02*
Y341000D01*
X949842Y212158D02*
X1003158Y158842D01*
X920879Y349421D02*
X942598D01*
X949842Y342177D01*
X941421Y346579D02*
X947000Y341000D01*
X920879Y346579D02*
X941421D01*
X909600Y360700D02*
X920879Y349421D01*
X909600Y335300D02*
X920879Y346579D01*
X861000Y356000D02*
X878000Y373000D01*
X922700D02*
X935000Y360700D01*
X878000Y373000D02*
X922700D01*
X876100Y386100D02*
X909600D01*
X974000Y323500D02*
Y392000D01*
X960400Y309900D02*
X974000Y323500D01*
X967000Y399000D02*
X974000Y392000D01*
X630000Y399000D02*
X967000D01*
X923721Y501821D02*
X935000Y513100D01*
X923721Y498979D02*
X935000Y487700D01*
X597000Y432000D02*
X630000Y399000D01*
X597000Y432000D02*
Y586000D01*
X399000Y563000D02*
Y583000D01*
Y563000D02*
X424000Y538000D01*
X963902Y118079D02*
X1034921D01*
X1055544Y68079D02*
X1072842Y85377D01*
X1051881Y70921D02*
X1054366D01*
X1055257Y68079D02*
X1055544D01*
X1046000Y77806D02*
Y82000D01*
Y77806D02*
X1050124Y73682D01*
Y72678D02*
X1051881Y70921D01*
X1054366D02*
X1070000Y86555D01*
X1046000Y57000D02*
X1053500Y64500D01*
Y66322D01*
X1050124Y72678D02*
Y73682D01*
X1053500Y66322D02*
X1055257Y68079D01*
X965079Y120921D02*
X1034921D01*
X1046000Y132000D01*
X1034921Y118079D02*
X1046000Y107000D01*
X855000Y365000D02*
X876100Y386100D01*
X855000Y330000D02*
Y365000D01*
X626460Y203460D02*
X709000Y286000D01*
X528500Y213250D02*
X562000D01*
X543750Y218520D02*
Y218750D01*
X562000Y213250D02*
X615250Y266500D01*
X543750Y218750D02*
X628000Y303000D01*
X699750Y292980D02*
Y293000D01*
X614020Y207250D02*
X699750Y292980D01*
X615250Y266500D02*
X654500D01*
X382900Y189700D02*
X400450Y207250D01*
X614020D01*
D90*
X427500Y587500D02*
X430270Y584730D01*
Y542750D02*
Y584730D01*
Y432730D02*
X430500Y432500D01*
X470890Y578640D02*
X486270D01*
X435000Y542750D02*
X470890Y578640D01*
X430270Y542750D02*
X435000D01*
X430270Y432730D02*
Y542750D01*
X516540Y559750D02*
X524730Y567940D01*
X510540Y571750D02*
X520270Y581480D01*
X565821Y567940D02*
X570000Y572119D01*
X561168Y508750D02*
X562000D01*
X570000Y572119D02*
Y597500D01*
X542730Y498480D02*
X562270D01*
X524730Y567940D02*
X565821D01*
X558782Y506365D02*
X561168Y508750D01*
X526072Y506365D02*
X558782D01*
X537000Y492750D02*
X542730Y498480D01*
X526072Y493282D02*
Y506365D01*
X475385D02*
X526072D01*
X517270Y362480D02*
Y363416D01*
X492000Y400686D02*
X493000Y401686D01*
X515000Y365686D02*
Y493750D01*
Y365686D02*
X517270Y363416D01*
X498662Y391412D02*
Y393630D01*
X498000Y390750D02*
X498662Y391412D01*
X499000Y393968D02*
Y494750D01*
X498662Y393630D02*
X499000Y393968D01*
X493000Y401686D02*
Y487750D01*
X492000Y399750D02*
Y400686D01*
X469000Y548210D02*
X480540Y559750D01*
X466488Y562480D02*
X475758Y571750D01*
X510540D01*
X480540Y559750D02*
X516540D01*
X460393Y547940D02*
X469000D01*
X465500Y516250D02*
X475385Y506365D01*
X455102Y542649D02*
X460393Y547940D01*
X466270Y562480D02*
X466488D01*
X262422Y491440D02*
X268152Y497170D01*
X287692D01*
X235962Y570440D02*
X245692Y580170D01*
X201180Y570440D02*
X235962D01*
X191910Y561170D02*
X201180Y570440D01*
X191692Y561170D02*
X191910D01*
X242692Y361170D02*
Y362106D01*
X240422Y364376D02*
X242692Y362106D01*
X240422Y364376D02*
Y492440D01*
X286589Y507440D02*
X287422D01*
X284204Y505055D02*
X286589Y507440D01*
X190922Y514940D02*
X200807Y505055D01*
X251493D02*
X284204D01*
X200807D02*
X251493D01*
Y491971D02*
Y505055D01*
X217422Y399376D02*
X218422Y400376D01*
X217422Y398440D02*
Y399376D01*
X218422Y400376D02*
Y486440D01*
X294692Y596170D02*
X295232Y595630D01*
Y570619D02*
Y595630D01*
X291243Y566630D02*
X295232Y570619D01*
X250152Y566630D02*
X291243D01*
X241962Y558440D02*
X250152Y566630D01*
X205962Y558440D02*
X241962D01*
X194422Y546900D02*
X205962Y558440D01*
X185815Y546630D02*
X194422D01*
X180523Y541338D02*
X185815Y546630D01*
X224084Y392320D02*
X224422Y392658D01*
Y493440D01*
X224084Y390102D02*
Y392320D01*
X223422Y389440D02*
X224084Y390102D01*
X196312Y577330D02*
X211692D01*
X155692Y436170D02*
X163422Y428440D01*
X160422Y541440D02*
X196312Y577330D01*
X155692Y436170D02*
Y541440D01*
X160422D01*
X155692D02*
Y583087D01*
X140422Y598357D02*
Y598440D01*
Y598357D02*
X155692Y583087D01*
D93*
X181026Y83070D02*
X859773D01*
X905070Y128367D01*
X861044Y80000D02*
X907241Y126196D01*
X182297Y80000D02*
X861044D01*
X905070Y131323D02*
X905873Y132127D01*
X905070Y128367D02*
Y131323D01*
X910196Y126196D02*
X911000Y127000D01*
X907241Y126196D02*
X910196D01*
X175930Y73633D02*
X182297Y80000D01*
X173759Y75804D02*
X181026Y83070D01*
X170000Y75000D02*
X170804Y75804D01*
X173759D01*
X175126Y69873D02*
X175930Y70677D01*
Y73633D01*
X984840Y324226D02*
Y436160D01*
X987910Y324226D02*
Y437432D01*
X974272Y451070D02*
X987910Y437432D01*
X973000Y448000D02*
X984840Y436160D01*
X987910Y324226D02*
X990000Y322136D01*
Y321000D02*
Y322136D01*
X982750Y321000D02*
Y322136D01*
X984840Y324226D01*
X935000Y436900D02*
X946100Y448000D01*
X946230Y451070D02*
X974272D01*
X946100Y448000D02*
X973000D01*
X935000Y462300D02*
X946230Y451070D01*
D95*
X102700Y758700D02*
D03*
Y921300D02*
D03*
D96*
X93800Y804200D02*
D03*
D97*
X111600Y814400D02*
D03*
X93800Y824600D02*
D03*
X111600Y834800D02*
D03*
X93800Y845000D02*
D03*
X111600Y855200D02*
D03*
X93800Y865400D02*
D03*
X111600Y875600D02*
D03*
D98*
X790300Y165300D02*
D03*
X764900Y190700D02*
D03*
X739500D02*
D03*
X714100D02*
D03*
X688700D02*
D03*
X663300D02*
D03*
X764900Y165300D02*
D03*
X739500D02*
D03*
X714100D02*
D03*
X688700D02*
D03*
X663300D02*
D03*
X637900Y190700D02*
D03*
Y165300D02*
D03*
X612500Y190700D02*
D03*
X587100D02*
D03*
X561700D02*
D03*
X536300D02*
D03*
X510900D02*
D03*
X485500D02*
D03*
X612500Y165300D02*
D03*
X587100D02*
D03*
X561700D02*
D03*
X536300D02*
D03*
X510900D02*
D03*
X485500D02*
D03*
X460100Y190700D02*
D03*
Y165300D02*
D03*
X434700Y190700D02*
D03*
X409300D02*
D03*
X383900D02*
D03*
X358500D02*
D03*
X333100D02*
D03*
X307700D02*
D03*
X434700Y165300D02*
D03*
X409300D02*
D03*
X383900D02*
D03*
X358500D02*
D03*
X333100D02*
D03*
X307700D02*
D03*
D99*
X839000Y668000D02*
D03*
X259000D02*
D03*
Y178000D02*
D03*
X839000D02*
D03*
D100*
X790300Y190700D02*
D03*
D101*
X1046000Y57000D02*
D03*
X960400Y665500D02*
D03*
D102*
X1046000Y82000D02*
D03*
Y107000D02*
D03*
Y132000D02*
D03*
D103*
X845250Y870000D02*
D03*
D104*
Y770000D02*
D03*
Y795000D02*
D03*
Y820000D02*
D03*
Y845000D02*
D03*
X1072000Y907000D02*
D03*
Y797000D02*
D03*
D105*
X935000Y665500D02*
D03*
Y640100D02*
D03*
Y309900D02*
D03*
Y386100D02*
D03*
Y411500D02*
D03*
Y436900D02*
D03*
Y462300D02*
D03*
Y487700D02*
D03*
Y513100D02*
D03*
Y538500D02*
D03*
Y563900D02*
D03*
Y589300D02*
D03*
Y614700D02*
D03*
Y284500D02*
D03*
X960400Y309900D02*
D03*
Y386100D02*
D03*
Y335300D02*
D03*
Y411500D02*
D03*
Y436900D02*
D03*
Y360700D02*
D03*
Y284500D02*
D03*
Y462300D02*
D03*
Y487700D02*
D03*
Y513100D02*
D03*
Y538500D02*
D03*
Y563900D02*
D03*
Y589300D02*
D03*
Y614700D02*
D03*
Y640100D02*
D03*
X909600Y411500D02*
D03*
Y386100D02*
D03*
Y360700D02*
D03*
Y335300D02*
D03*
Y309900D02*
D03*
Y284500D02*
D03*
Y462300D02*
D03*
Y436900D02*
D03*
Y487700D02*
D03*
Y538500D02*
D03*
Y513100D02*
D03*
Y563900D02*
D03*
Y665500D02*
D03*
Y640100D02*
D03*
Y614700D02*
D03*
Y589300D02*
D03*
X935000Y360700D02*
D03*
Y335300D02*
D03*
D106*
X986400Y716300D02*
D03*
Y233700D02*
D03*
D107*
X972000Y827000D02*
D03*
D108*
Y877000D02*
D03*
D109*
X707501Y920001D02*
D03*
X717501Y900001D02*
D03*
X707501Y880001D02*
D03*
X717501Y860001D02*
D03*
X687501Y920001D02*
D03*
X697501Y900001D02*
D03*
X687501Y880001D02*
D03*
X697501Y860001D02*
D03*
X667501Y920001D02*
D03*
X677501Y900001D02*
D03*
X667501Y880001D02*
D03*
X677501Y860001D02*
D03*
X647501Y920001D02*
D03*
X657501Y900001D02*
D03*
X647501Y880001D02*
D03*
X657501Y860001D02*
D03*
X627500Y920001D02*
D03*
X637500Y900001D02*
D03*
X627500Y880001D02*
D03*
X637500Y860001D02*
D03*
X607500Y920001D02*
D03*
X617500Y900001D02*
D03*
X607500Y880001D02*
D03*
X617500Y860001D02*
D03*
X607500Y840001D02*
D03*
X587500Y920001D02*
D03*
X597500Y900001D02*
D03*
X587500Y880001D02*
D03*
X597500Y860001D02*
D03*
X587500Y840001D02*
D03*
X567500Y920001D02*
D03*
X577500Y900001D02*
D03*
X567500Y880001D02*
D03*
X577500Y860001D02*
D03*
X567500Y840001D02*
D03*
X547500Y920001D02*
D03*
X557500Y900001D02*
D03*
X547500Y880001D02*
D03*
X557500Y860001D02*
D03*
X547500Y840001D02*
D03*
X527500Y920001D02*
D03*
X537500Y900001D02*
D03*
X527500Y880001D02*
D03*
X537500Y860001D02*
D03*
X527500Y840001D02*
D03*
X557000Y612000D02*
D03*
X542000Y611000D02*
D03*
X516000Y610000D02*
D03*
X264000Y609000D02*
D03*
X241000D02*
D03*
X294692Y596170D02*
D03*
X762000Y744000D02*
D03*
X754000Y752000D02*
D03*
X747000Y796000D02*
D03*
Y804000D02*
D03*
X728000Y808000D02*
D03*
Y800000D02*
D03*
X720000Y792000D02*
D03*
X728000D02*
D03*
X720000Y780000D02*
D03*
X728000D02*
D03*
X720000Y768000D02*
D03*
X728000D02*
D03*
Y756000D02*
D03*
X720000D02*
D03*
X728000Y748000D02*
D03*
Y740000D02*
D03*
X720000Y744000D02*
D03*
Y732000D02*
D03*
X728000D02*
D03*
X551500Y132000D02*
D03*
X559500Y116000D02*
D03*
X551500Y100000D02*
D03*
X535500Y324000D02*
D03*
Y292000D02*
D03*
Y260000D02*
D03*
Y228000D02*
D03*
Y132000D02*
D03*
X543500Y116000D02*
D03*
X535500Y100000D02*
D03*
X527500Y308000D02*
D03*
X519500Y260000D02*
D03*
X527500Y244000D02*
D03*
X519500Y132000D02*
D03*
X527500Y116000D02*
D03*
X519500Y100000D02*
D03*
X511500Y340000D02*
D03*
X503500Y324000D02*
D03*
X511500Y308000D02*
D03*
Y276000D02*
D03*
X503500Y228000D02*
D03*
Y132000D02*
D03*
Y100000D02*
D03*
X495500Y340000D02*
D03*
X487500Y324000D02*
D03*
X495500Y308000D02*
D03*
X487500Y292000D02*
D03*
X471500Y324000D02*
D03*
Y228000D02*
D03*
X463500Y340000D02*
D03*
X455500Y324000D02*
D03*
Y228000D02*
D03*
Y132000D02*
D03*
X463500Y116000D02*
D03*
X455500Y100000D02*
D03*
X439500Y388000D02*
D03*
X447500Y340000D02*
D03*
X439500Y132000D02*
D03*
X447500Y116000D02*
D03*
X439500Y100000D02*
D03*
X423500Y132000D02*
D03*
X431500Y116000D02*
D03*
X423500Y100000D02*
D03*
X415500Y372000D02*
D03*
X407500Y132000D02*
D03*
X415500Y116000D02*
D03*
X407500Y100000D02*
D03*
X399500Y372000D02*
D03*
X383500D02*
D03*
X367500D02*
D03*
X359500Y356000D02*
D03*
Y324000D02*
D03*
Y292000D02*
D03*
Y260000D02*
D03*
X343500Y388000D02*
D03*
X351500Y372000D02*
D03*
X527500Y340000D02*
D03*
X519500Y324000D02*
D03*
Y292000D02*
D03*
X527500Y276000D02*
D03*
X519500Y228000D02*
D03*
X503500Y292000D02*
D03*
Y260000D02*
D03*
X511500Y244000D02*
D03*
X495500Y276000D02*
D03*
X487500Y260000D02*
D03*
X495500Y244000D02*
D03*
X487500Y228000D02*
D03*
X479500Y340000D02*
D03*
Y244000D02*
D03*
X463500D02*
D03*
X447500D02*
D03*
X359500Y228000D02*
D03*
X845000Y302000D02*
D03*
X427500Y587500D02*
D03*
X430500Y432500D02*
D03*
X486270Y578640D02*
D03*
X794000Y114000D02*
D03*
X768000Y29000D02*
D03*
X747000D02*
D03*
X735000D02*
D03*
X715000D02*
D03*
X828000Y63000D02*
D03*
X848000D02*
D03*
X845000Y50000D02*
D03*
X553000Y547750D02*
D03*
X657501Y40000D02*
D03*
X647501Y20000D02*
D03*
X637500Y40000D02*
D03*
X627500Y20000D02*
D03*
X607500Y60000D02*
D03*
X617500Y40000D02*
D03*
X587500Y20000D02*
D03*
X577500Y40000D02*
D03*
X567500Y20000D02*
D03*
X557500Y40000D02*
D03*
X547500Y20000D02*
D03*
X537500Y40000D02*
D03*
X527500Y20000D02*
D03*
X517500Y40000D02*
D03*
X507500Y20000D02*
D03*
X487500Y60000D02*
D03*
X497500Y40000D02*
D03*
X467500Y60000D02*
D03*
X457500Y40000D02*
D03*
X447500Y20000D02*
D03*
X437500Y40000D02*
D03*
X427500Y20000D02*
D03*
X417500Y40000D02*
D03*
X407500Y20000D02*
D03*
X397500Y40000D02*
D03*
X387500Y20000D02*
D03*
X367500Y60000D02*
D03*
X377500Y40000D02*
D03*
X347500Y60000D02*
D03*
X337500Y40000D02*
D03*
X327500Y20000D02*
D03*
X317500Y40000D02*
D03*
X307500Y20000D02*
D03*
X287500Y60000D02*
D03*
X297500Y40000D02*
D03*
X287500Y20000D02*
D03*
X825000Y235000D02*
D03*
X905873Y132127D02*
D03*
X911000Y127000D02*
D03*
X175126Y69873D02*
D03*
X170000Y75000D02*
D03*
X756000Y246000D02*
D03*
Y284000D02*
D03*
Y259000D02*
D03*
X861000Y302000D02*
D03*
X643000Y773000D02*
D03*
X635000Y769000D02*
D03*
X990000Y321000D02*
D03*
X982750D02*
D03*
X424000Y538000D02*
D03*
X173000Y567000D02*
D03*
X855000Y330000D02*
D03*
X885000Y150000D02*
D03*
X131692Y352170D02*
D03*
X709000Y286000D02*
D03*
X543750Y218520D02*
D03*
X528500Y213250D02*
D03*
X699750Y293000D02*
D03*
X654500Y266500D02*
D03*
X120000Y85000D02*
D03*
X100000D02*
D03*
X80000D02*
D03*
X55000D02*
D03*
X35000D02*
D03*
X15000D02*
D03*
X356270Y509480D02*
D03*
X355270Y430480D02*
D03*
X371270Y353480D02*
D03*
Y333480D02*
D03*
X372270Y430480D02*
D03*
X406270Y228480D02*
D03*
X371270Y227480D02*
D03*
X419270Y509480D02*
D03*
X390270Y430480D02*
D03*
X407270D02*
D03*
X553000Y527750D02*
D03*
X457270Y508480D02*
D03*
X446270Y508480D02*
D03*
X499000Y494750D02*
D03*
X465500Y516250D02*
D03*
X562000Y508750D02*
D03*
X515000Y493750D02*
D03*
X493000Y487750D02*
D03*
X526072Y493282D02*
D03*
X537000Y492750D02*
D03*
X542000Y481750D02*
D03*
X562270Y498480D02*
D03*
X492000Y527750D02*
D03*
X406270Y283480D02*
D03*
Y298480D02*
D03*
Y353480D02*
D03*
Y248480D02*
D03*
X371270Y297480D02*
D03*
Y282480D02*
D03*
Y317480D02*
D03*
X406270Y263480D02*
D03*
Y318480D02*
D03*
X371270Y247480D02*
D03*
Y262480D02*
D03*
X406270Y333480D02*
D03*
X570000Y597500D02*
D03*
X455102Y542649D02*
D03*
X492000Y547750D02*
D03*
X520270Y581480D02*
D03*
X582000Y573750D02*
D03*
X466270Y562480D02*
D03*
X498000Y390750D02*
D03*
X468680Y366890D02*
D03*
X517270Y362480D02*
D03*
X492000Y399750D02*
D03*
X451680Y366890D02*
D03*
X468680Y386890D02*
D03*
X481000Y366750D02*
D03*
X451680Y386890D02*
D03*
X452270Y424480D02*
D03*
Y404480D02*
D03*
X469270D02*
D03*
X469270Y418480D02*
D03*
X480190Y407750D02*
D03*
X400270Y509480D02*
D03*
X386270D02*
D03*
X370270D02*
D03*
X262422Y491440D02*
D03*
X287692Y497170D02*
D03*
X245692Y580170D02*
D03*
X191692Y561170D02*
D03*
X242692Y361170D02*
D03*
X240422Y492440D02*
D03*
X190922Y514940D02*
D03*
X287422Y507440D02*
D03*
X251493Y491971D02*
D03*
X96692Y246170D02*
D03*
Y226170D02*
D03*
Y261170D02*
D03*
Y316170D02*
D03*
Y296170D02*
D03*
X96692Y332170D02*
D03*
X96692Y281170D02*
D03*
X131692Y262170D02*
D03*
Y227170D02*
D03*
Y247170D02*
D03*
Y317170D02*
D03*
Y332170D02*
D03*
Y282170D02*
D03*
Y297170D02*
D03*
X80692Y429170D02*
D03*
X96692Y352170D02*
D03*
X97692Y429170D02*
D03*
X115692D02*
D03*
X177102Y365580D02*
D03*
Y385580D02*
D03*
X194102Y365580D02*
D03*
Y385580D02*
D03*
X177692Y403170D02*
D03*
Y423170D02*
D03*
X194692Y403170D02*
D03*
X194692Y417170D02*
D03*
X206422Y365440D02*
D03*
X217422Y398440D02*
D03*
X205612Y406440D02*
D03*
X132692Y429170D02*
D03*
X171692Y507170D02*
D03*
X144692Y508170D02*
D03*
X182692Y507170D02*
D03*
X267422Y480440D02*
D03*
X218422Y486440D02*
D03*
X81692Y508170D02*
D03*
X95692D02*
D03*
X125692D02*
D03*
X111692D02*
D03*
X217422Y526440D02*
D03*
Y546440D02*
D03*
X278422Y526440D02*
D03*
Y546440D02*
D03*
X307422Y572440D02*
D03*
X180523Y541338D02*
D03*
X224422Y493440D02*
D03*
X223422Y389440D02*
D03*
X211692Y577330D02*
D03*
X163422Y428440D02*
D03*
X140422Y598440D02*
D03*
D110*
X855000Y93000D02*
D03*
X843000D02*
D03*
X831000D02*
D03*
X28000Y445000D02*
D03*
Y462000D02*
D03*
Y479000D02*
D03*
D111*
X769000Y910000D02*
D03*
Y620000D02*
D03*
X329000Y910000D02*
D03*
Y620000D02*
D03*
M02*
