M48
;Layer_Color=9474304
;FILE_FORMAT=4:4
METRIC,LZ
;TYPE=PLATED
T01F00S00C0.3000
T02F00S00C0.5000
T03F00S00C0.8900
T04F00S00C1.0000
T05F00S00C1.0160
T06F00S00C1.1500
T07F00S00C1.5700
T08F00S00C1.7000
T09F00S00C2.7500
T10F00S00C3.6000
;TYPE=NON_PLATED
T11F00S00C2.8000
T12F00S00C3.2000
T13F00S00C3.2500
%
T01
X00015Y00085
X00035
X00055
X0008
X001
X0012
X0017Y00075
X00175126Y00069873
X002875Y0006
X002975Y0004
X003175
X003375
X003475Y0006
X003675
X003775Y0004
X003975
X004175
X004375
X004575
X004675Y0006
X004475Y0002
X004275
X004075
X003875
X003275
X003075
X002875
X005075
X005275
X005475
X005675
X005875
X005775Y0004
X005575
X005375
X005175
X004975
X004875Y0006
X006075
X006175Y0004
X006375
X00657501
X00647501Y0002
X006275
X00715Y00029
X00735
X00747
X00768
X00828Y00063
X00848
X00845Y0005
X00885Y0015
X00905873Y00132127
X00911Y00127
X0098275Y00321
X0099
X00855Y0033
X00861Y00302
X00845
X00825Y00235
X00756Y00246
Y00259
Y00284
X00709Y00286
X0069975Y00293
X006545Y002665
X005355Y0026
X005195
X005035
X004875
X004955Y00276
X005115
X005275
X005195Y00292
X005355
X005275Y00308
X005115
X004955
X004875Y00324
X005035
X005195
X005355
X005275Y0034
X005115
X004955
X0051727Y0036248
X00498Y0039075
X00492Y0039975
X00493Y0048775
X00526072Y00493282
X00537Y0049275
X00542Y0048175
X005035Y00292
X004875
X004955Y00244
X005115
X005275
X005195Y00228
X005355
X0054375Y0021852
X005285Y0021325
X005035Y00228
X004875
X005035Y00132
X005195
X005355
X005515
X005595Y00116
X005435
X005275
X005195Y001
X005355
X005515
X005035
X00794Y00114
X004635Y00116
X004475
X004315
X004155
X004075Y00132
X004235
X004395
X004555
Y001
X004395
X004235
X004075
X0040627Y0022848
Y0024848
Y0026348
Y0028348
Y0029848
Y0031848
Y0033348
Y0035348
X003995Y00372
X004155
X003835
X003675
X003515
X003435Y00388
X003595Y00356
X0037127Y0035348
Y0033348
X0037127Y0031748
X003595Y00324
Y00292
X0037127Y0029748
Y0028248
Y0026248
X003595Y0026
X0037127Y0024748
Y0022748
X003595Y00228
X004555
X004715
X004795Y00244
X004635
X004475
X004555Y00324
X004715
X004795Y0034
X004635
X004475
X0045168Y0036689
X0046868
X00481Y0036675
X0046868Y0038689
X0045168
X004395Y00388
X0045227Y0040448
X0046927
X0046927Y0041848
X0048019Y0040775
X0045227Y0042448
X004305Y004325
X0040727Y0043048
X0039027
X0037227
X0035527
X00267422Y0048044
X00262422Y0049144
X00251493Y00491971
X00240422Y0049244
X00224422Y0049344
X00218422Y0048644
X00217422Y0039844
X00223422Y0038944
X00194102Y0038558
X00177102
X00177692Y0040317
X00194692
X00194692Y0041717
X00205612Y0040644
X00206422Y0036544
X00194102Y0036558
X00177102
X00177692Y0042317
X00163422Y0042844
X00132692Y0042917
X00115692
X00097692
X00096692Y0035217
Y0033217
X00096692Y0031617
Y0029617
Y0028117
Y0026117
Y0024617
Y0022617
X00131692Y0022717
Y0024717
Y0026217
Y0028217
Y0029717
Y0031717
Y0033217
Y0035217
X00242692Y0036117
X00080692Y0042917
X00081692Y0050817
X00095692
X00111692
X00125692
X00144692
X00171692Y0050717
X00182692Y0050717
X00190922Y0051494
X00180523Y00541338
X00191692Y0056117
X00173Y00567
X00211692Y0057733
X00217422Y0054644
Y0052644
X00278422
Y0054644
X00287422Y0050744
X00287692Y0049717
X0035627Y0050948
X0037027
X0038627
X0040027
X0041927
X0044627Y0050848
X0045727Y0050848
X004655Y0051625
X00455102Y00542649
X0046627Y0056248
X004275Y005875
X00424Y00538
X00307422Y0057244
X00294692Y0059617
X00264Y00609
X00241
X00245692Y0058017
X00140422Y0059844
X0048627Y0057864
X00492Y0054775
Y0052775
X00499Y0049475
X00515Y0049375
X0056227Y0049848
X00562Y0050875
X00553Y0052775
Y0054775
X00582Y0057375
X0057Y005975
X00557Y00612
X00542Y00611
X00516Y0061
X0052027Y0058148
X005275Y00840001
X005475
X005675
X005875
X006075
X006175Y00860001
X006375
X00657501
X00677501
X00697501
X00717501
X00707501Y00880001
X00687501
X00667501
X00647501
X006275
X006075
X005875
X005675
X005475
X005275
X005375Y00860001
X005575
X005775
X005975
X00635Y00769
X00643Y00773
X0072Y00768
X00728
Y00756
X0072
Y00744
X00728Y00748
Y0074
Y00732
X0072
Y0078
X00728
Y00792
X0072
X00728Y008
Y00808
X00747Y00804
Y00796
X00754Y00752
X00762Y00744
X00717501Y00900001
X00697501
X00677501
X00657501
X006375
X006175
X005975
X005775
X005575
X005375
X005475Y00920001
X005675
X005875
X006075
X006275
X00647501
X00667501
X00687501
X00707501
X005275
T02
X00831Y00093
X00843
X00855
X00028Y00445
Y00462
Y00479
T03
X000938Y008042
Y008246
Y00845
Y008654
X001116Y008552
Y008348
Y008144
Y008756
T04
X009096Y002845
X00935
Y003099
X009604
Y003353
Y003607
Y003861
X00935
Y004115
Y004369
Y004623
Y004877
X009604
Y004623
Y004369
Y004115
X009096
Y003861
Y003607
Y003353
Y003099
X00935Y003353
Y003607
X009604Y002845
X009096Y004369
Y004623
Y004877
X0084525Y0077
Y00795
Y0082
Y00845
Y0087
X009096Y006655
X00935
Y006401
Y006147
Y005893
Y005639
Y005385
Y005131
X009604
Y005385
Y005639
Y005893
Y006147
Y006401
Y006655
X009096Y006401
Y006147
Y005893
Y005639
Y005385
Y005131
X01072Y00797
Y00907
T05
X004855Y001653
Y001907
X005109
X005363
X005617
X005871
X006125
X006379
X006633
X006887
X007141
X007395
X007649
X007903
Y001653
X007649
X007395
X007141
X006887
X006633
X006379
X006125
X005871
X005617
X005363
X005109
X004601
Y001907
X004347
X004093
X003839
X003585
X003331
X003077
Y001653
X003331
X003585
X003839
X004093
X004347
T06
X01046Y00057
Y00082
Y00107
Y00132
T07
X001027Y007587
Y009213
T08
X00972Y00827
Y00877
T09
X00839Y00178
X00259
Y00668
X00839
T10
X00329Y0062
X00769
Y0091
X00329Y0091
T11
X009864Y002337
Y007163
T12
X002464Y00035
X009304Y00055
X00809091Y00345
X00669091
X009304Y00895
X002464Y00915
T13
X000684Y007765
Y009035
M30
