G04*
G04 #@! TF.GenerationSoftware,Altium Limited,Altium Designer,24.6.1 (21)*
G04*
G04 Layer_Color=65535*
%FSLAX44Y44*%
%MOMM*%
G71*
G04*
G04 #@! TF.SameCoordinates,A8D64014-89CE-44E1-AE60-3DA97B657322*
G04*
G04*
G04 #@! TF.FilePolarity,Positive*
G04*
G01*
G75*
%ADD10C,0.2000*%
%ADD11C,0.1270*%
%ADD12C,0.2500*%
%ADD13C,0.6000*%
%ADD14C,0.1200*%
%ADD15C,0.4000*%
%ADD16C,0.1500*%
%ADD17C,0.1000*%
%ADD18C,0.3000*%
D10*
X283752Y571730D02*
G03*
X283752Y571730I-500J0D01*
G01*
X558330Y573040D02*
G03*
X558330Y573040I-500J0D01*
G01*
X82100Y804200D02*
G03*
X82100Y804200I-1000J0D01*
G01*
X589770Y489480D02*
G03*
X589770Y489480I-1000J0D01*
G01*
X315192Y488170D02*
G03*
X315192Y488170I-1000J0D01*
G01*
X846250Y902500D02*
G03*
X846250Y902500I-1000J0D01*
G01*
X782000Y290000D02*
X814000D01*
X782000Y240000D02*
X814000D01*
X782000D02*
Y290000D01*
X814000Y240000D02*
Y290000D01*
X1014000Y144000D02*
X1076000D01*
X1014000Y57000D02*
Y144000D01*
X1046000Y45000D02*
X1076000D01*
Y144000D01*
X972742Y690000D02*
X972844Y260000D01*
X957000Y690000D02*
X972742D01*
X957000D02*
Y741000D01*
Y209000D02*
X1002000D01*
X957000Y741000D02*
X1002000D01*
X957000Y260000D02*
X972844D01*
X957000Y209000D02*
Y260000D01*
X451000Y916997D02*
Y910332D01*
X454332Y907000D01*
X457664Y910332D01*
Y916997D01*
X460997Y907000D02*
Y916997D01*
X464329Y913664D01*
X467661Y916997D01*
Y907000D01*
X470993D02*
Y913664D01*
X474326Y916997D01*
X477658Y913664D01*
Y907000D01*
Y911998D01*
X470993D01*
X497652Y915331D02*
X495985Y916997D01*
X492653D01*
X490987Y915331D01*
Y913664D01*
X492653Y911998D01*
X495985D01*
X497652Y910332D01*
Y908666D01*
X495985Y907000D01*
X492653D01*
X490987Y908666D01*
X500984Y907000D02*
Y913664D01*
X504316Y916997D01*
X507648Y913664D01*
Y907000D01*
Y911998D01*
X500984D01*
X510981Y916997D02*
Y908666D01*
X512647Y907000D01*
X515979D01*
X517645Y908666D01*
Y916997D01*
X520977D02*
Y910332D01*
X524310Y907000D01*
X527642Y910332D01*
Y916997D01*
X537639Y915331D02*
X535973Y916997D01*
X532640D01*
X530974Y915331D01*
Y908666D01*
X532640Y907000D01*
X535973D01*
X537639Y908666D01*
X547635Y907000D02*
X540971D01*
X547635Y913664D01*
Y915331D01*
X545969Y916997D01*
X542637D01*
X540971Y915331D01*
X557632Y916997D02*
X554300Y915331D01*
X550968Y911998D01*
Y908666D01*
X552634Y907000D01*
X555966D01*
X557632Y908666D01*
Y910332D01*
X555966Y911998D01*
X550968D01*
X407000Y672000D02*
Y681997D01*
X411998D01*
X413665Y680331D01*
Y676998D01*
X411998Y675332D01*
X407000D01*
X410332D02*
X413665Y672000D01*
X416997D02*
Y678664D01*
X420329Y681997D01*
X423661Y678664D01*
Y672000D01*
Y676998D01*
X416997D01*
X433658Y680331D02*
X431992Y681997D01*
X428660D01*
X426994Y680331D01*
Y678664D01*
X428660Y676998D01*
X431992D01*
X433658Y675332D01*
Y673666D01*
X431992Y672000D01*
X428660D01*
X426994Y673666D01*
X436990Y672000D02*
Y681997D01*
X441989D01*
X443655Y680331D01*
Y676998D01*
X441989Y675332D01*
X436990D01*
X446987Y681997D02*
Y672000D01*
X451986D01*
X453652Y673666D01*
Y675332D01*
X451986Y676998D01*
X446987D01*
X451986D01*
X453652Y678664D01*
Y680331D01*
X451986Y681997D01*
X446987D01*
X463648D02*
X456984D01*
Y672000D01*
X463648D01*
X456984Y676998D02*
X460316D01*
X466981Y672000D02*
Y681997D01*
X471979D01*
X473645Y680331D01*
Y676998D01*
X471979Y675332D01*
X466981D01*
X470313D02*
X473645Y672000D01*
X476978D02*
Y681997D01*
X481976D01*
X483642Y680331D01*
Y676998D01*
X481976Y675332D01*
X476978D01*
X480310D02*
X483642Y672000D01*
X486974Y681997D02*
Y680331D01*
X490307Y676998D01*
X493639Y680331D01*
Y681997D01*
X490307Y676998D02*
Y672000D01*
X506968D02*
Y681997D01*
X511966D01*
X513632Y680331D01*
Y676998D01*
X511966Y675332D01*
X506968D01*
X516965Y681997D02*
X520297D01*
X518631D01*
Y672000D01*
X516965D01*
X520297D01*
X540290D02*
Y681997D01*
X535292Y676998D01*
X541956D01*
X710671Y836998D02*
X717336Y827002D01*
Y836998D02*
X710671Y827002D01*
X720668D02*
Y836998D01*
X725666D01*
X727332Y835332D01*
Y832000D01*
X725666Y830334D01*
X720668D01*
X737329Y836998D02*
X730665D01*
Y832000D01*
X733997Y833666D01*
X735663D01*
X737329Y832000D01*
Y828668D01*
X735663Y827002D01*
X732331D01*
X730665Y828668D01*
X848335Y318332D02*
X846669Y319998D01*
X843337D01*
X841671Y318332D01*
Y311668D01*
X843337Y310002D01*
X846669D01*
X848335Y311668D01*
X858332Y310002D02*
X851668D01*
X858332Y316666D01*
Y318332D01*
X856666Y319998D01*
X853334D01*
X851668Y318332D01*
X861665Y311668D02*
X863331Y310002D01*
X866663D01*
X868329Y311668D01*
Y318332D01*
X866663Y319998D01*
X863331D01*
X861665Y318332D01*
Y316666D01*
X863331Y315000D01*
X868329D01*
X368337Y124998D02*
X375002Y115002D01*
Y124998D02*
X368337Y115002D01*
X378334D02*
Y124998D01*
X383332D01*
X384998Y123332D01*
Y120000D01*
X383332Y118334D01*
X378334D01*
X388331Y115002D02*
X391663D01*
X389997D01*
Y124998D01*
X388331Y123332D01*
X16671Y939998D02*
X23335Y930002D01*
Y939998D02*
X16671Y930002D01*
X26668D02*
Y939998D01*
X31666D01*
X33332Y938332D01*
Y935000D01*
X31666Y933334D01*
X26668D01*
X43329Y930002D02*
X36665D01*
X43329Y936666D01*
Y938332D01*
X41663Y939998D01*
X38331D01*
X36665Y938332D01*
X921671Y724998D02*
X928335Y715002D01*
Y724998D02*
X921671Y715002D01*
X931668D02*
Y724998D01*
X936666D01*
X938332Y723332D01*
Y720000D01*
X936666Y718334D01*
X931668D01*
X946663Y715002D02*
Y724998D01*
X941665Y720000D01*
X948329D01*
X922504Y145002D02*
Y154998D01*
X927502D01*
X929169Y153332D01*
Y150000D01*
X927502Y148334D01*
X922504D01*
X925836D02*
X929169Y145002D01*
X932501D02*
X935833D01*
X934167D01*
Y154998D01*
X932501Y153332D01*
X947496Y154998D02*
X940832D01*
Y150000D01*
X944164Y151666D01*
X945830D01*
X947496Y150000D01*
Y146668D01*
X945830Y145002D01*
X942498D01*
X940832Y146668D01*
X933337Y174998D02*
Y165002D01*
Y170000D01*
X940002D01*
Y174998D01*
Y165002D01*
X943334Y174998D02*
Y165002D01*
X949998D01*
X953331D02*
X956663D01*
X954997D01*
Y174998D01*
X953331Y173332D01*
X1011671Y159998D02*
X1018335Y150002D01*
Y159998D02*
X1011671Y150002D01*
X1021668D02*
Y159998D01*
X1026666D01*
X1028332Y158332D01*
Y155000D01*
X1026666Y153334D01*
X1021668D01*
X1031665Y151668D02*
X1033331Y150002D01*
X1036663D01*
X1038329Y151668D01*
Y158332D01*
X1036663Y159998D01*
X1033331D01*
X1031665Y158332D01*
Y156666D01*
X1033331Y155000D01*
X1038329D01*
X58337Y719998D02*
Y710002D01*
X63335D01*
X65002Y711668D01*
Y718332D01*
X63335Y719998D01*
X58337D01*
X68334D02*
Y710002D01*
X73332D01*
X74998Y711668D01*
Y718332D01*
X73332Y719998D01*
X68334D01*
X78331Y710002D02*
X81663D01*
X79997D01*
Y719998D01*
X78331Y718332D01*
X1026671Y794998D02*
X1033335Y785002D01*
Y794998D02*
X1026671Y785002D01*
X1036668D02*
Y794998D01*
X1041666D01*
X1043332Y793332D01*
Y790000D01*
X1041666Y788334D01*
X1036668D01*
X1046665Y793332D02*
X1048331Y794998D01*
X1051663D01*
X1053329Y793332D01*
Y791666D01*
X1051663Y790000D01*
X1053329Y788334D01*
Y786668D01*
X1051663Y785002D01*
X1048331D01*
X1046665Y786668D01*
Y788334D01*
X1048331Y790000D01*
X1046665Y791666D01*
Y793332D01*
X1048331Y790000D02*
X1051663D01*
X617506Y124998D02*
X624170Y115002D01*
Y124998D02*
X617506Y115002D01*
X627502D02*
Y124998D01*
X632501D01*
X634167Y123332D01*
Y120000D01*
X632501Y118334D01*
X627502D01*
X637499Y115002D02*
X640832D01*
X639165D01*
Y124998D01*
X637499Y123332D01*
X645830D02*
X647496Y124998D01*
X650828D01*
X652494Y123332D01*
Y116668D01*
X650828Y115002D01*
X647496D01*
X645830Y116668D01*
Y123332D01*
X491671Y124998D02*
X498335Y115002D01*
Y124998D02*
X491671Y115002D01*
X501668D02*
Y124998D01*
X506666D01*
X508332Y123332D01*
Y120000D01*
X506666Y118334D01*
X501668D01*
X511665Y124998D02*
X518329D01*
Y123332D01*
X511665Y116668D01*
Y115002D01*
X840004Y237502D02*
Y247498D01*
X845002D01*
X846668Y245832D01*
Y242500D01*
X845002Y240834D01*
X840004D01*
X843336D02*
X846668Y237502D01*
X850001D02*
X853333D01*
X851667D01*
Y247498D01*
X850001Y245832D01*
X863330Y237502D02*
Y247498D01*
X858332Y242500D01*
X864996D01*
X781671Y304998D02*
Y295002D01*
X786669D01*
X788335Y296668D01*
Y303332D01*
X786669Y304998D01*
X781671D01*
X791668D02*
Y295002D01*
X796666D01*
X798332Y296668D01*
Y303332D01*
X796666Y304998D01*
X791668D01*
X808329Y295002D02*
X801665D01*
X808329Y301666D01*
Y303332D01*
X806663Y304998D01*
X803331D01*
X801665Y303332D01*
X81671Y119998D02*
X88336Y110002D01*
Y119998D02*
X81671Y110002D01*
X91668D02*
Y119998D01*
X96666D01*
X98332Y118332D01*
Y115000D01*
X96666Y113334D01*
X91668D01*
X101664Y118332D02*
X103331Y119998D01*
X106663D01*
X108329Y118332D01*
Y116666D01*
X106663Y115000D01*
X104997D01*
X106663D01*
X108329Y113334D01*
Y111668D01*
X106663Y110002D01*
X103331D01*
X101664Y111668D01*
X811671Y909998D02*
X818335Y900002D01*
Y909998D02*
X811671Y900002D01*
X821668D02*
Y909998D01*
X826666D01*
X828332Y908332D01*
Y905000D01*
X826666Y903334D01*
X821668D01*
X838329Y909998D02*
X834997Y908332D01*
X831665Y905000D01*
Y901668D01*
X833331Y900002D01*
X836663D01*
X838329Y901668D01*
Y903334D01*
X836663Y905000D01*
X831665D01*
D11*
X844000Y143000D02*
G03*
X874000Y173000I0J30000D01*
G01*
X24000D02*
G03*
X54000Y143000I30000J0D01*
G01*
Y703000D02*
G03*
X24000Y673000I0J-30000D01*
G01*
X874000D02*
G03*
X844000Y703000I-30000J0D01*
G01*
X811250Y745500D02*
X868750D01*
Y894500D01*
X811250D02*
X868750D01*
X811250Y745500D02*
Y894500D01*
X54000Y143000D02*
X844000D01*
X24000Y173000D02*
Y673000D01*
X777000Y17000D02*
Y43500D01*
X807000Y17000D02*
X813000D01*
Y43500D01*
X54000Y703000D02*
X844000D01*
X874000Y173000D02*
Y673000D01*
X777000Y17000D02*
X783000D01*
X563470Y497830D02*
Y541130D01*
X565570D01*
X586970D02*
X589070D01*
Y497830D02*
Y541130D01*
X563470Y497830D02*
X565570D01*
X586970D02*
X589070D01*
X314492Y496520D02*
Y539820D01*
X312392D02*
X314492D01*
X288892D02*
X290992D01*
X288892Y496520D02*
Y539820D01*
X312392Y496520D02*
X314492D01*
X288892D02*
X290992D01*
D12*
X772000Y292550D02*
G03*
X772000Y292550I-1250J0D01*
G01*
D13*
X795000Y280000D02*
G03*
X795000Y280000I-3000J0D01*
G01*
D14*
X748250Y808000D02*
G03*
X748250Y808000I-600J0D01*
G01*
D15*
X885000Y193000D02*
G03*
X885000Y193000I-2000J0D01*
G01*
D16*
X824500Y80000D02*
G03*
X823857Y79521I-500J0D01*
G01*
X900000Y157250D02*
X910000D01*
X163685Y525341D02*
Y529341D01*
X176465Y535091D02*
Y542375D01*
X421250Y544750D02*
Y554750D01*
X406750Y544750D02*
Y554750D01*
X900000Y142750D02*
X910000D01*
X438750Y528000D02*
Y532000D01*
X451530Y537750D02*
Y545034D01*
Y514969D02*
Y522250D01*
X176465Y512309D02*
Y519591D01*
X166185Y542375D02*
X176465D01*
X165685Y512309D02*
X176465D01*
X215322Y399170D02*
X226322D01*
X489900Y374480D02*
X500900D01*
X489900Y400480D02*
X500900D01*
X472020Y493980D02*
Y503980D01*
X486520Y493980D02*
Y503980D01*
X215322Y373170D02*
X226322D01*
X407750Y578750D02*
Y588750D01*
X146672Y543440D02*
Y553440D01*
X132172Y543440D02*
Y553440D01*
X147672Y577440D02*
Y587440D01*
X133172Y577440D02*
Y587440D01*
X422250Y578750D02*
Y588750D01*
X441250Y545034D02*
X451530D01*
X444440Y109370D02*
X470450D01*
X489550D02*
X515560D01*
Y81450D02*
Y109370D01*
X444440Y35710D02*
X470450D01*
X444440D02*
Y58550D01*
Y81450D02*
Y109370D01*
X800000Y110750D02*
X810000D01*
X805000Y65500D02*
Y74500D01*
X800000Y62250D02*
X810000D01*
X515560Y35710D02*
Y58550D01*
X489550Y35710D02*
X515560D01*
X800000Y79250D02*
X810000D01*
X540540Y405980D02*
X578540D01*
X540540Y356980D02*
X578540D01*
X440750Y514969D02*
X451530D01*
X265962Y404670D02*
X303962D01*
X265962Y355670D02*
X303962D01*
X476540Y93170D02*
X480540Y100170D01*
X484540Y93170D01*
X476540D02*
X484540D01*
X132192Y224420D02*
X147192D01*
X139692Y227920D02*
Y237170D01*
Y246420D01*
X514270Y470730D02*
X524270D01*
X514270Y486230D02*
X524270D01*
X519270Y473980D02*
Y482980D01*
X414270Y238480D02*
Y247730D01*
X406770Y251230D02*
X421770D01*
X168422Y550190D02*
X178422D01*
X132192Y249920D02*
X147192D01*
X406770Y225730D02*
X421770D01*
X414270Y229230D02*
Y238480D01*
X139692Y342170D02*
Y351420D01*
X132192Y354920D02*
X147192D01*
X406770Y330730D02*
X421770D01*
X406770Y286230D02*
X421770D01*
X132192Y329420D02*
X147192D01*
X139692Y332920D02*
Y342170D01*
X239692Y469420D02*
X249692D01*
X239692Y484920D02*
X249692D01*
X244692Y472670D02*
Y481670D01*
X414270Y334230D02*
Y343480D01*
Y352730D01*
X406770Y356230D02*
X421770D01*
X168422Y564690D02*
X178422D01*
X273942Y587170D02*
Y597170D01*
X534020Y588480D02*
Y598480D01*
X548520Y588480D02*
Y598480D01*
X443000Y590500D02*
X453000D01*
X443000Y605000D02*
X453000D01*
X259442Y587170D02*
Y597170D01*
X472020Y522480D02*
Y532480D01*
X197442Y492670D02*
Y502670D01*
X211942Y492670D02*
Y502670D01*
Y521170D02*
Y531170D01*
X197442Y521170D02*
Y531170D01*
X486520Y522480D02*
Y532480D01*
X274000Y608750D02*
X284000D01*
X572020Y587480D02*
Y597480D01*
X586520Y587480D02*
Y597480D01*
X443000Y551500D02*
X453000D01*
X443000Y566000D02*
X453000D01*
X274000Y623250D02*
X284000D01*
X564520Y588480D02*
Y598480D01*
X168422Y589190D02*
X178422D01*
X168422Y603690D02*
X178422D01*
X275442Y587170D02*
Y597170D01*
X289942Y587170D02*
Y597170D01*
X550020Y588480D02*
Y598480D01*
X712250Y27500D02*
Y42500D01*
X848000Y282250D02*
X858000D01*
X848000Y297750D02*
X858000D01*
X737750Y27500D02*
Y42500D01*
X725000Y35000D02*
X734250D01*
X715750D02*
X725000D01*
X822500Y27750D02*
X832500D01*
X853000Y285500D02*
Y294500D01*
X31940Y104290D02*
X57950D01*
X850250Y82500D02*
Y97500D01*
X837500Y90000D02*
X846750D01*
X31940Y30630D02*
X57950D01*
X31940D02*
Y58550D01*
Y81450D02*
Y104290D01*
X757500Y35000D02*
X766750D01*
X748250D02*
X757500D01*
X744750Y27500D02*
Y42500D01*
X828250Y90000D02*
X837500D01*
X824750Y82500D02*
Y97500D01*
X770250Y27500D02*
Y42500D01*
X822500Y42250D02*
X832500D01*
X15600Y921300D02*
X39139D01*
X15600Y758700D02*
Y921300D01*
Y758700D02*
X39139D01*
X118400Y921300D02*
X173000D01*
Y758700D02*
Y921300D01*
X118400Y758700D02*
X173000D01*
X709600Y812200D02*
Y823000D01*
Y717000D02*
Y727800D01*
X738400Y717000D02*
Y727800D01*
X709600Y717000D02*
X738400D01*
X709600Y823000D02*
X738400D01*
Y812200D02*
Y823000D01*
X489250Y517160D02*
Y557800D01*
X280712Y515850D02*
Y556490D01*
X214672Y515850D02*
Y556490D01*
X555290Y517160D02*
Y557800D01*
X355540Y100170D02*
X359540Y93170D01*
X351540D02*
X359540D01*
X319440Y35710D02*
X345450D01*
X605540Y100170D02*
X609540Y93170D01*
X601540D02*
X605540Y100170D01*
X351540Y93170D02*
X355540Y100170D01*
X364550Y109370D02*
X390560D01*
Y81450D02*
Y109370D01*
Y35710D02*
Y58550D01*
X319440Y35710D02*
Y58550D01*
Y81450D02*
Y109370D01*
X345450D01*
X614550Y35710D02*
X640560D01*
Y58550D01*
Y81450D02*
Y109370D01*
X800000Y77750D02*
X810000D01*
X822500Y42750D02*
X832500D01*
X822500Y57250D02*
X832500D01*
X569440Y35710D02*
Y58550D01*
Y35710D02*
X595450D01*
X601540Y93170D02*
X609540D01*
X614550Y109370D02*
X640560D01*
X569440D02*
X595450D01*
X569440Y81450D02*
Y109370D01*
X364550Y35710D02*
X390560D01*
X66960Y39830D02*
X70960Y46830D01*
X575230Y320250D02*
Y352750D01*
X103060Y81450D02*
Y104290D01*
Y30630D02*
Y58550D01*
X77050Y30630D02*
X103060D01*
X62960Y46830D02*
X66960Y39830D01*
X62960Y46830D02*
X70960D01*
X77050Y104290D02*
X103060D01*
X769750Y77500D02*
Y87500D01*
X785250Y77500D02*
Y87500D01*
X845750Y260000D02*
Y270000D01*
X727000Y65000D02*
X752000D01*
X727000Y115000D02*
X752000D01*
X773000Y82500D02*
X782000D01*
X448230Y225750D02*
Y258250D01*
Y320250D02*
Y352750D01*
X575230D01*
X860250Y260000D02*
Y270000D01*
X575230Y225750D02*
Y258250D01*
X448230Y225750D02*
X575230D01*
X414270Y273480D02*
Y282730D01*
X89692Y297920D02*
Y307170D01*
X82192Y294420D02*
X97192D01*
X232422Y463670D02*
X270422D01*
X139442Y469420D02*
Y484920D01*
X82192Y319920D02*
X97192D01*
X89692Y307170D02*
Y316420D01*
X169692Y402920D02*
Y412170D01*
X162192Y399420D02*
X177192D01*
X386520Y395980D02*
Y410980D01*
X232422Y414670D02*
X270422D01*
X162192Y424920D02*
X177192D01*
X169692Y412170D02*
Y421420D01*
X444270Y369230D02*
Y378480D01*
X436770Y365730D02*
X451770D01*
X363270Y478480D02*
X369270D01*
X436770Y391230D02*
X451770D01*
X444270Y378480D02*
Y387730D01*
X148692Y477170D02*
X154692D01*
X157942Y469420D02*
Y484920D01*
X142692Y477170D02*
X148692D01*
X372520Y470730D02*
Y486230D01*
X357270Y478480D02*
X363270D01*
X354020Y470730D02*
Y486230D01*
X390020Y403480D02*
X399270D01*
X97942Y469420D02*
Y484920D01*
X82692Y477170D02*
X88692D01*
X79442Y469420D02*
Y484920D01*
X466520Y584480D02*
Y594480D01*
X482020Y584480D02*
Y594480D01*
X88692Y477170D02*
X94692D01*
X137442Y394670D02*
Y409670D01*
X300652Y314440D02*
Y346940D01*
X173652D02*
X300652D01*
X111942Y394670D02*
Y409670D01*
X115442Y402170D02*
X124692D01*
X133942D01*
X507000Y415980D02*
X545000D01*
X423270Y478480D02*
X429270D01*
X432520Y470730D02*
Y486230D01*
X399270Y403480D02*
X408520D01*
X412020Y395980D02*
Y410980D01*
X507000Y464980D02*
X545000D01*
X293692Y554420D02*
X303692D01*
X293692Y569920D02*
X303692D01*
X469770Y589480D02*
X478770D01*
X417270Y478480D02*
X423270D01*
X414020Y470730D02*
Y486230D01*
X298692Y557670D02*
Y566670D01*
X1059500Y785500D02*
X1084500D01*
X1059500D02*
Y802500D01*
X1011500D02*
X1059500D01*
X102442Y394670D02*
Y409670D01*
X89692Y402170D02*
X98942D01*
X1011500Y802500D02*
Y901500D01*
X1059500D01*
Y918500D01*
X949500Y822000D02*
Y832000D01*
X1084500Y802500D02*
X1095139D01*
X1084500Y785500D02*
Y802500D01*
X1059500Y918500D02*
X1084500D01*
Y901500D02*
Y918500D01*
Y901500D02*
X1095250D01*
X80442Y402170D02*
X89692D01*
X377020Y395980D02*
Y410980D01*
X364270Y403480D02*
X373520D01*
X355020D02*
X364270D01*
X364270Y264230D02*
Y273480D01*
Y282730D01*
X356770Y286230D02*
X371770D01*
X351520Y395980D02*
Y410980D01*
X573270Y558980D02*
Y567980D01*
X356770Y330730D02*
X371770D01*
X364270Y334230D02*
Y343480D01*
X76942Y394670D02*
Y409670D01*
X568270Y571230D02*
X578270D01*
X568270Y555730D02*
X578270D01*
X569270Y466730D02*
X579270D01*
X574270Y469980D02*
Y478980D01*
X356770Y260730D02*
X371770D01*
X364270Y343480D02*
Y352730D01*
X356770Y356230D02*
X371770D01*
X569270Y482230D02*
X579270D01*
X444020Y469730D02*
Y485230D01*
X356770Y321230D02*
X371770D01*
X364270Y308480D02*
Y317730D01*
X453270Y477480D02*
X459270D01*
X462520Y469730D02*
Y485230D01*
X447270Y477480D02*
X453270D01*
X364270Y299230D02*
Y308480D01*
X356770Y295730D02*
X371770D01*
X112692Y477170D02*
X118692D01*
X109442Y469420D02*
Y484920D01*
X448000Y574250D02*
Y583250D01*
X82192Y329420D02*
X97192D01*
X118692Y477170D02*
X124692D01*
X127942Y469420D02*
Y484920D01*
X364270Y238480D02*
Y247730D01*
Y229230D02*
Y238480D01*
X356770Y225730D02*
X371770D01*
X443000Y571000D02*
X453000D01*
X443000Y586500D02*
X453000D01*
X356770Y251230D02*
X371770D01*
X414270Y299230D02*
Y308480D01*
Y317730D01*
X406770Y321230D02*
X421770D01*
X139692Y307170D02*
Y316420D01*
X132192Y319920D02*
X147192D01*
X406770Y295730D02*
X421770D01*
X132192Y284920D02*
X147192D01*
X406770Y260730D02*
X421770D01*
X414270Y264230D02*
Y273480D01*
X132192Y259420D02*
X147192D01*
X139692Y262920D02*
Y272170D01*
Y281420D01*
X507270Y593980D02*
Y602980D01*
X924750Y174250D02*
Y180750D01*
X918250D02*
X924750D01*
X502270Y606230D02*
X512270D01*
X502270Y590730D02*
X512270D01*
X918250Y159250D02*
X924750D01*
X132192Y294420D02*
X147192D01*
X139692Y297920D02*
Y307170D01*
X899000Y180750D02*
X911000D01*
X899000Y159250D02*
X911000D01*
X924750D02*
Y165750D01*
X299692Y468670D02*
Y477670D01*
X294692Y465420D02*
X304692D01*
X294692Y480920D02*
X304692D01*
X89692Y272170D02*
Y281420D01*
Y262920D02*
Y272170D01*
X82192Y259420D02*
X97192D01*
X169442Y468420D02*
Y483920D01*
X162192Y389920D02*
X177192D01*
X169692Y377170D02*
Y386420D01*
X178692Y476170D02*
X184692D01*
X187942Y468420D02*
Y483920D01*
X172692Y476170D02*
X178692D01*
X300652Y219940D02*
Y252440D01*
X436770Y426230D02*
X451770D01*
X444270Y413480D02*
Y422730D01*
X173652Y314440D02*
Y346940D01*
Y219940D02*
Y252440D01*
Y219940D02*
X300652D01*
X191942Y583170D02*
Y593170D01*
X207442Y583170D02*
Y593170D01*
X82192Y284920D02*
X97192D01*
X444270Y404230D02*
Y413480D01*
X436770Y400730D02*
X451770D01*
X195192Y588170D02*
X204192D01*
X169692Y367920D02*
Y377170D01*
X227692Y589420D02*
X237692D01*
X232692Y592670D02*
Y601670D01*
X393270Y478480D02*
X399270D01*
X89692Y227920D02*
Y237170D01*
X82192Y224420D02*
X97192D01*
X227692Y604920D02*
X237692D01*
X82192Y354920D02*
X97192D01*
X89692Y342170D02*
Y351420D01*
Y332920D02*
Y342170D01*
X402520Y470730D02*
Y486230D01*
X387270Y478480D02*
X393270D01*
X384020Y470730D02*
Y486230D01*
X474770Y555480D02*
X483770D01*
X196942Y549170D02*
Y559170D01*
X212442Y549170D02*
Y559170D01*
X162192Y364420D02*
X177192D01*
X471520Y550480D02*
Y560480D01*
X487020Y550480D02*
Y560480D01*
X168422Y585190D02*
X178422D01*
X82192Y249920D02*
X97192D01*
X89692Y237170D02*
Y246420D01*
X200192Y554170D02*
X209192D01*
X173422Y572940D02*
Y581940D01*
X168422Y569690D02*
X178422D01*
X727169Y124499D02*
Y117501D01*
X731834D01*
X738831D02*
X734166D01*
X738831Y122166D01*
Y123333D01*
X737665Y124499D01*
X735333D01*
X734166Y123333D01*
X816253Y11501D02*
Y18499D01*
X819752D01*
X820918Y17333D01*
Y15000D01*
X819752Y13834D01*
X816253D01*
X818585D02*
X820918Y11501D01*
X823251D02*
X825583D01*
X824417D01*
Y18499D01*
X823251Y17333D01*
X829082D02*
X830248Y18499D01*
X832581D01*
X833747Y17333D01*
Y16166D01*
X832581Y15000D01*
X831415D01*
X832581D01*
X833747Y13834D01*
Y12667D01*
X832581Y11501D01*
X830248D01*
X829082Y12667D01*
X841253Y46501D02*
Y53499D01*
X844752D01*
X845918Y52333D01*
Y50000D01*
X844752Y48834D01*
X841253D01*
X843585D02*
X845918Y46501D01*
X848251D02*
X850583D01*
X849417D01*
Y53499D01*
X848251Y52333D01*
X858747Y46501D02*
X854082D01*
X858747Y51166D01*
Y52333D01*
X857581Y53499D01*
X855248D01*
X854082Y52333D01*
X842419Y31501D02*
Y38499D01*
X845918D01*
X847084Y37333D01*
Y35000D01*
X845918Y33834D01*
X842419D01*
X844752D02*
X847084Y31501D01*
X849417D02*
X851749D01*
X850583D01*
Y38499D01*
X849417Y37333D01*
X855248Y31501D02*
X857581D01*
X856415D01*
Y38499D01*
X855248Y37333D01*
X795670Y121499D02*
Y114501D01*
X799168D01*
X800335Y115667D01*
Y120333D01*
X799168Y121499D01*
X795670D01*
X802667Y114501D02*
Y119166D01*
X805000Y121499D01*
X807333Y119166D01*
Y114501D01*
Y118000D01*
X802667D01*
X814330Y114501D02*
X809665D01*
X814330Y119166D01*
Y120333D01*
X813164Y121499D01*
X810831D01*
X809665Y120333D01*
X703667Y30335D02*
X702501Y29169D01*
Y26836D01*
X703667Y25670D01*
X708333D01*
X709499Y26836D01*
Y29169D01*
X708333Y30335D01*
X709499Y37333D02*
Y32667D01*
X704834Y37333D01*
X703667D01*
X702501Y36166D01*
Y33834D01*
X703667Y32667D01*
X702501Y39665D02*
Y44330D01*
X703667D01*
X708333Y39665D01*
X709499D01*
X693667Y30335D02*
X692501Y29169D01*
Y26836D01*
X693667Y25670D01*
X698333D01*
X699499Y26836D01*
Y29169D01*
X698333Y30335D01*
X699499Y37333D02*
Y32667D01*
X694834Y37333D01*
X693667D01*
X692501Y36166D01*
Y33834D01*
X693667Y32667D01*
Y39665D02*
X692501Y40831D01*
Y43164D01*
X693667Y44330D01*
X694834D01*
X696000Y43164D01*
X697166Y44330D01*
X698333D01*
X699499Y43164D01*
Y40831D01*
X698333Y39665D01*
X697166D01*
X696000Y40831D01*
X694834Y39665D01*
X693667D01*
X696000Y40831D02*
Y43164D01*
X827668Y63666D02*
X826835Y64499D01*
X825169D01*
X824335Y63666D01*
Y60334D01*
X825169Y59501D01*
X826835D01*
X827668Y60334D01*
X832666Y59501D02*
X829334D01*
X832666Y62833D01*
Y63666D01*
X831833Y64499D01*
X830167D01*
X829334Y63666D01*
X837664Y64499D02*
X835998Y63666D01*
X834332Y62000D01*
Y60334D01*
X835165Y59501D01*
X836831D01*
X837664Y60334D01*
Y61167D01*
X836831Y62000D01*
X834332D01*
X775667Y103335D02*
X774501Y102169D01*
Y99836D01*
X775667Y98670D01*
X780333D01*
X781499Y99836D01*
Y102169D01*
X780333Y103335D01*
X781499Y110333D02*
Y105667D01*
X776834Y110333D01*
X775667D01*
X774501Y109166D01*
Y106834D01*
X775667Y105667D01*
X774501Y117330D02*
Y112665D01*
X778000D01*
X776834Y114998D01*
Y116164D01*
X778000Y117330D01*
X780333D01*
X781499Y116164D01*
Y113832D01*
X780333Y112665D01*
X860335Y92333D02*
X859168Y93499D01*
X856836D01*
X855670Y92333D01*
Y87667D01*
X856836Y86501D01*
X859168D01*
X860335Y87667D01*
X867333Y86501D02*
X862667D01*
X867333Y91166D01*
Y92333D01*
X866166Y93499D01*
X863834D01*
X862667Y92333D01*
X873164Y86501D02*
Y93499D01*
X869665Y90000D01*
X874330D01*
X567171Y418499D02*
Y413834D01*
X569503Y411501D01*
X571836Y413834D01*
Y418499D01*
X574169D02*
X578834D01*
X576501D01*
Y411501D01*
X581166Y417333D02*
X582333Y418499D01*
X584665D01*
X585831Y417333D01*
Y416166D01*
X584665Y415000D01*
X583499D01*
X584665D01*
X585831Y413834D01*
Y412667D01*
X584665Y411501D01*
X582333D01*
X581166Y412667D01*
X588164Y418499D02*
Y411501D01*
X591663D01*
X592829Y412667D01*
Y413834D01*
Y415000D01*
X591663Y416166D01*
X588164D01*
X567171Y443499D02*
Y438834D01*
X569503Y436501D01*
X571836Y438834D01*
Y443499D01*
X574169D02*
X578834D01*
X576501D01*
Y436501D01*
X585831D02*
X581166D01*
X585831Y441166D01*
Y442333D01*
X584665Y443499D01*
X582333D01*
X581166Y442333D01*
X588164Y443499D02*
Y436501D01*
X591663D01*
X592829Y437667D01*
Y438834D01*
Y440000D01*
X591663Y441166D01*
X588164D01*
X400254Y533499D02*
Y528834D01*
X402587Y526501D01*
X404919Y528834D01*
Y533499D01*
X407252D02*
X411917D01*
X409584D01*
Y526501D01*
X414249D02*
X416582D01*
X415416D01*
Y533499D01*
X414249Y532333D01*
X420081Y533499D02*
Y526501D01*
X423580D01*
X424746Y527667D01*
Y528834D01*
Y530000D01*
X423580Y531166D01*
X420081D01*
X590254Y550999D02*
Y546334D01*
X592587Y544001D01*
X594919Y546334D01*
Y550999D01*
X597252D02*
Y544001D01*
X600751D01*
X601917Y545167D01*
Y549833D01*
X600751Y550999D01*
X597252D01*
X604249Y544001D02*
X606582D01*
X605416D01*
Y550999D01*
X604249Y549833D01*
X610081Y550999D02*
Y544001D01*
X613580D01*
X614746Y545167D01*
Y546334D01*
Y547500D01*
X613580Y548666D01*
X610081D01*
X377754Y546501D02*
Y553499D01*
X381253D01*
X382419Y552333D01*
Y550000D01*
X381253Y548834D01*
X377754D01*
X380087D02*
X382419Y546501D01*
X384752D02*
X387084D01*
X385918D01*
Y553499D01*
X384752Y552333D01*
X390583D02*
X391749Y553499D01*
X394082D01*
X395248Y552333D01*
Y547667D01*
X394082Y546501D01*
X391749D01*
X390583Y547667D01*
Y552333D01*
X397581Y553499D02*
Y546501D01*
X401080D01*
X402246Y547667D01*
Y548834D01*
Y550000D01*
X401080Y551166D01*
X397581D01*
X385670Y576501D02*
Y583499D01*
X389169D01*
X390335Y582333D01*
Y580000D01*
X389169Y578834D01*
X385670D01*
X388002D02*
X390335Y576501D01*
X392667Y577667D02*
X393834Y576501D01*
X396166D01*
X397333Y577667D01*
Y582333D01*
X396166Y583499D01*
X393834D01*
X392667Y582333D01*
Y581166D01*
X393834Y580000D01*
X397333D01*
X399665Y583499D02*
Y576501D01*
X403164D01*
X404330Y577667D01*
Y578834D01*
Y580000D01*
X403164Y581166D01*
X399665D01*
X488170Y364001D02*
Y370999D01*
X491669D01*
X492835Y369833D01*
Y367500D01*
X491669Y366334D01*
X488170D01*
X490502D02*
X492835Y364001D01*
X495168Y369833D02*
X496334Y370999D01*
X498666D01*
X499833Y369833D01*
Y368666D01*
X498666Y367500D01*
X499833Y366334D01*
Y365167D01*
X498666Y364001D01*
X496334D01*
X495168Y365167D01*
Y366334D01*
X496334Y367500D01*
X495168Y368666D01*
Y369833D01*
X496334Y367500D02*
X498666D01*
X502165Y370999D02*
Y364001D01*
X505664D01*
X506830Y365167D01*
Y366334D01*
Y367500D01*
X505664Y368666D01*
X502165D01*
X470670Y471501D02*
Y478499D01*
X474169D01*
X475335Y477333D01*
Y475000D01*
X474169Y473834D01*
X470670D01*
X473002D02*
X475335Y471501D01*
X477667Y478499D02*
X482333D01*
Y477333D01*
X477667Y472667D01*
Y471501D01*
X484665Y478499D02*
Y471501D01*
X488164D01*
X489330Y472667D01*
Y473834D01*
Y475000D01*
X488164Y476166D01*
X484665D01*
X468499Y523170D02*
X461501D01*
Y526669D01*
X462667Y527835D01*
X465000D01*
X466166Y526669D01*
Y523170D01*
Y525502D02*
X468499Y527835D01*
X461501Y534833D02*
X462667Y532500D01*
X465000Y530167D01*
X467333D01*
X468499Y531334D01*
Y533666D01*
X467333Y534833D01*
X466166D01*
X465000Y533666D01*
Y530167D01*
X461501Y537165D02*
X468499D01*
Y540664D01*
X467333Y541830D01*
X466166D01*
X465000D01*
X463834Y540664D01*
Y537165D01*
X525670Y616501D02*
Y623499D01*
X529169D01*
X530335Y622333D01*
Y620000D01*
X529169Y618834D01*
X525670D01*
X528002D02*
X530335Y616501D01*
X537333Y623499D02*
X532667D01*
Y620000D01*
X535000Y621166D01*
X536166D01*
X537333Y620000D01*
Y617667D01*
X536166Y616501D01*
X533834D01*
X532667Y617667D01*
X539665Y623499D02*
Y616501D01*
X543164D01*
X544330Y617667D01*
Y618834D01*
Y620000D01*
X543164Y621166D01*
X539665D01*
X440670Y611501D02*
Y618499D01*
X444169D01*
X445335Y617333D01*
Y615000D01*
X444169Y613834D01*
X440670D01*
X443002D02*
X445335Y611501D01*
X451166D02*
Y618499D01*
X447667Y615000D01*
X452333D01*
X454665Y618499D02*
Y611501D01*
X458164D01*
X459330Y612667D01*
Y613834D01*
Y615000D01*
X458164Y616166D01*
X454665D01*
X550670Y616501D02*
Y623499D01*
X554169D01*
X555335Y622333D01*
Y620000D01*
X554169Y618834D01*
X550670D01*
X553002D02*
X555335Y616501D01*
X557667Y622333D02*
X558834Y623499D01*
X561166D01*
X562333Y622333D01*
Y621166D01*
X561166Y620000D01*
X560000D01*
X561166D01*
X562333Y618834D01*
Y617667D01*
X561166Y616501D01*
X558834D01*
X557667Y617667D01*
X564665Y623499D02*
Y616501D01*
X568164D01*
X569330Y617667D01*
Y618834D01*
Y620000D01*
X568164Y621166D01*
X564665D01*
X588170Y589001D02*
Y595999D01*
X591669D01*
X592835Y594833D01*
Y592500D01*
X591669Y591334D01*
X588170D01*
X590502D02*
X592835Y589001D01*
X599833D02*
X595167D01*
X599833Y593666D01*
Y594833D01*
X598666Y595999D01*
X596334D01*
X595167Y594833D01*
X602165Y595999D02*
Y589001D01*
X605664D01*
X606830Y590167D01*
Y591334D01*
Y592500D01*
X605664Y593666D01*
X602165D01*
X578753Y350999D02*
Y344001D01*
X583418D01*
X585751D02*
X588083D01*
X586917D01*
Y350999D01*
X585751Y349833D01*
X591582Y350999D02*
Y344001D01*
X595081D01*
X596247Y345167D01*
Y346334D01*
Y347500D01*
X595081Y348666D01*
X591582D01*
X492754Y585999D02*
Y579001D01*
X496253D01*
X497419Y580167D01*
Y584833D01*
X496253Y585999D01*
X492754D01*
X499752Y579001D02*
Y583666D01*
X502084Y585999D01*
X504417Y583666D01*
Y579001D01*
Y582500D01*
X499752D01*
X506749Y579001D02*
X509082D01*
X507916D01*
Y585999D01*
X506749Y584833D01*
X512581Y585999D02*
Y579001D01*
X516080D01*
X517246Y580167D01*
Y581334D01*
Y582500D01*
X516080Y583666D01*
X512581D01*
X332667Y401836D02*
X331501Y400670D01*
Y398337D01*
X332667Y397171D01*
X337332D01*
X338499Y398337D01*
Y400670D01*
X337332Y401836D01*
X338499Y408834D02*
Y404169D01*
X333834Y408834D01*
X332667D01*
X331501Y407667D01*
Y405335D01*
X332667Y404169D01*
Y411166D02*
X331501Y412333D01*
Y414665D01*
X332667Y415831D01*
X333834D01*
X335000Y414665D01*
Y413499D01*
Y414665D01*
X336166Y415831D01*
X337332D01*
X338499Y414665D01*
Y412333D01*
X337332Y411166D01*
X331501Y418164D02*
X338499D01*
Y421663D01*
X337332Y422829D01*
X336166D01*
X335000D01*
X333834Y421663D01*
Y418164D01*
X332667Y264336D02*
X331501Y263170D01*
Y260837D01*
X332667Y259671D01*
X337332D01*
X338499Y260837D01*
Y263170D01*
X337332Y264336D01*
X338499Y271334D02*
Y266668D01*
X333834Y271334D01*
X332667D01*
X331501Y270167D01*
Y267835D01*
X332667Y266668D01*
X338499Y278331D02*
Y273666D01*
X333834Y278331D01*
X332667D01*
X331501Y277165D01*
Y274833D01*
X332667Y273666D01*
X331501Y280664D02*
X338499D01*
Y284163D01*
X337332Y285329D01*
X336166D01*
X335000D01*
X333834Y284163D01*
Y280664D01*
X332667Y302419D02*
X331501Y301253D01*
Y298920D01*
X332667Y297754D01*
X337333D01*
X338499Y298920D01*
Y301253D01*
X337333Y302419D01*
X338499Y309417D02*
Y304752D01*
X333834Y309417D01*
X332667D01*
X331501Y308251D01*
Y305918D01*
X332667Y304752D01*
X338499Y311749D02*
Y314082D01*
Y312916D01*
X331501D01*
X332667Y311749D01*
X331501Y317581D02*
X338499D01*
Y321080D01*
X337333Y322246D01*
X336166D01*
X335000D01*
X333834Y321080D01*
Y317581D01*
X438667Y230586D02*
X437501Y229420D01*
Y227087D01*
X438667Y225921D01*
X443333D01*
X444499Y227087D01*
Y229420D01*
X443333Y230586D01*
X444499Y237584D02*
Y232919D01*
X439834Y237584D01*
X438667D01*
X437501Y236418D01*
Y234085D01*
X438667Y232919D01*
Y239916D02*
X437501Y241083D01*
Y243415D01*
X438667Y244582D01*
X443333D01*
X444499Y243415D01*
Y241083D01*
X443333Y239916D01*
X438667D01*
X437501Y246914D02*
X444499D01*
Y250413D01*
X443333Y251579D01*
X442166D01*
X441000D01*
X439834Y250413D01*
Y246914D01*
X569919Y462333D02*
X568753Y463499D01*
X566420D01*
X565254Y462333D01*
Y457667D01*
X566420Y456501D01*
X568753D01*
X569919Y457667D01*
X572252Y456501D02*
X574584D01*
X573418D01*
Y463499D01*
X572252Y462333D01*
X578083Y457667D02*
X579249Y456501D01*
X581582D01*
X582748Y457667D01*
Y462333D01*
X581582Y463499D01*
X579249D01*
X578083Y462333D01*
Y461166D01*
X579249Y460000D01*
X582748D01*
X585081Y463499D02*
Y456501D01*
X588580D01*
X589746Y457667D01*
Y458834D01*
Y460000D01*
X588580Y461166D01*
X585081D01*
X332667Y232419D02*
X331501Y231253D01*
Y228920D01*
X332667Y227754D01*
X337332D01*
X338499Y228920D01*
Y231253D01*
X337332Y232419D01*
X338499Y234752D02*
Y237084D01*
Y235918D01*
X331501D01*
X332667Y234752D01*
Y240583D02*
X331501Y241749D01*
Y244082D01*
X332667Y245248D01*
X333834D01*
X335000Y244082D01*
X336166Y245248D01*
X337332D01*
X338499Y244082D01*
Y241749D01*
X337332Y240583D01*
X336166D01*
X335000Y241749D01*
X333834Y240583D01*
X332667D01*
X335000Y241749D02*
Y244082D01*
X331501Y247581D02*
X338499D01*
Y251080D01*
X337332Y252246D01*
X336166D01*
X335000D01*
X333834Y251080D01*
Y247581D01*
X342667Y402419D02*
X341501Y401253D01*
Y398920D01*
X342667Y397754D01*
X347333D01*
X348499Y398920D01*
Y401253D01*
X347333Y402419D01*
X348499Y404752D02*
Y407084D01*
Y405918D01*
X341501D01*
X342667Y404752D01*
X341501Y410583D02*
Y415248D01*
X342667D01*
X347333Y410583D01*
X348499D01*
X341501Y417581D02*
X348499D01*
Y421080D01*
X347333Y422246D01*
X346166D01*
X345000D01*
X343834Y421080D01*
Y417581D01*
X539919Y479833D02*
X538753Y480999D01*
X536420D01*
X535254Y479833D01*
Y475167D01*
X536420Y474001D01*
X538753D01*
X539919Y475167D01*
X542252Y474001D02*
X544584D01*
X543418D01*
Y480999D01*
X542252Y479833D01*
X552748Y480999D02*
X550416Y479833D01*
X548083Y477500D01*
Y475167D01*
X549249Y474001D01*
X551582D01*
X552748Y475167D01*
Y476334D01*
X551582Y477500D01*
X548083D01*
X555081Y480999D02*
Y474001D01*
X558580D01*
X559746Y475167D01*
Y476334D01*
Y477500D01*
X558580Y478666D01*
X555081D01*
X438667Y336169D02*
X437501Y335003D01*
Y332670D01*
X438667Y331504D01*
X443333D01*
X444499Y332670D01*
Y335003D01*
X443333Y336169D01*
X444499Y338502D02*
Y340834D01*
Y339668D01*
X437501D01*
X438667Y338502D01*
X437501Y348998D02*
Y344333D01*
X441000D01*
X439834Y346666D01*
Y347832D01*
X441000Y348998D01*
X443333D01*
X444499Y347832D01*
Y345499D01*
X443333Y344333D01*
X437501Y351331D02*
X444499D01*
Y354830D01*
X443333Y355996D01*
X442166D01*
X441000D01*
X439834Y354830D01*
Y351331D01*
X354919Y447333D02*
X353753Y448499D01*
X351420D01*
X350254Y447333D01*
Y442668D01*
X351420Y441501D01*
X353753D01*
X354919Y442668D01*
X357252Y441501D02*
X359584D01*
X358418D01*
Y448499D01*
X357252Y447333D01*
X366582Y441501D02*
Y448499D01*
X363083Y445000D01*
X367748D01*
X370081Y448499D02*
Y441501D01*
X373580D01*
X374746Y442668D01*
Y443834D01*
Y445000D01*
X373580Y446166D01*
X370081D01*
X474083Y425581D02*
X475249Y426747D01*
Y429080D01*
X474083Y430246D01*
X469417D01*
X468251Y429080D01*
Y426747D01*
X469417Y425581D01*
X468251Y423248D02*
Y420916D01*
Y422082D01*
X475249D01*
X474083Y423248D01*
Y417417D02*
X475249Y416251D01*
Y413918D01*
X474083Y412752D01*
X472916D01*
X471750Y413918D01*
Y415084D01*
Y413918D01*
X470584Y412752D01*
X469417D01*
X468251Y413918D01*
Y416251D01*
X469417Y417417D01*
X475249Y410419D02*
X468251D01*
Y406920D01*
X469417Y405754D01*
X470584D01*
X471750D01*
X472916Y406920D01*
Y410419D01*
X384919Y447333D02*
X383753Y448499D01*
X381420D01*
X380254Y447333D01*
Y442668D01*
X381420Y441501D01*
X383753D01*
X384919Y442668D01*
X387252Y441501D02*
X389584D01*
X388418D01*
Y448499D01*
X387252Y447333D01*
X397748Y441501D02*
X393083D01*
X397748Y446166D01*
Y447333D01*
X396582Y448499D01*
X394249D01*
X393083Y447333D01*
X400081Y448499D02*
Y441501D01*
X403580D01*
X404746Y442668D01*
Y443834D01*
Y445000D01*
X403580Y446166D01*
X400081D01*
X452002Y360083D02*
X450836Y361249D01*
X448503D01*
X447337Y360083D01*
Y355418D01*
X448503Y354251D01*
X450836D01*
X452002Y355418D01*
X454335Y354251D02*
X456668D01*
X455501D01*
Y361249D01*
X454335Y360083D01*
X460166Y354251D02*
X462499D01*
X461333D01*
Y361249D01*
X460166Y360083D01*
X465998Y361249D02*
Y354251D01*
X469497D01*
X470663Y355418D01*
Y356584D01*
Y357750D01*
X469497Y358916D01*
X465998D01*
X414919Y447333D02*
X413753Y448499D01*
X411420D01*
X410254Y447333D01*
Y442667D01*
X411420Y441501D01*
X413753D01*
X414919Y442667D01*
X417252Y441501D02*
X419584D01*
X418418D01*
Y448499D01*
X417252Y447333D01*
X423083D02*
X424249Y448499D01*
X426582D01*
X427748Y447333D01*
Y442667D01*
X426582Y441501D01*
X424249D01*
X423083Y442667D01*
Y447333D01*
X430081Y448499D02*
Y441501D01*
X433580D01*
X434746Y442667D01*
Y443834D01*
Y445000D01*
X433580Y446166D01*
X430081D01*
X438667Y270085D02*
X437501Y268919D01*
Y266586D01*
X438667Y265420D01*
X443333D01*
X444499Y266586D01*
Y268919D01*
X443333Y270085D01*
Y272418D02*
X444499Y273584D01*
Y275916D01*
X443333Y277083D01*
X438667D01*
X437501Y275916D01*
Y273584D01*
X438667Y272418D01*
X439834D01*
X441000Y273584D01*
Y277083D01*
X437501Y279415D02*
X444499D01*
Y282914D01*
X443333Y284080D01*
X442166D01*
X441000D01*
X439834Y282914D01*
Y279415D01*
X447835Y447333D02*
X446669Y448499D01*
X444336D01*
X443170Y447333D01*
Y442667D01*
X444336Y441501D01*
X446669D01*
X447835Y442667D01*
X450167Y447333D02*
X451334Y448499D01*
X453666D01*
X454832Y447333D01*
Y446166D01*
X453666Y445000D01*
X454832Y443834D01*
Y442667D01*
X453666Y441501D01*
X451334D01*
X450167Y442667D01*
Y443834D01*
X451334Y445000D01*
X450167Y446166D01*
Y447333D01*
X451334Y445000D02*
X453666D01*
X457165Y448499D02*
Y441501D01*
X460664D01*
X461830Y442667D01*
Y443834D01*
Y445000D01*
X460664Y446166D01*
X457165D01*
X438667Y303085D02*
X437501Y301919D01*
Y299586D01*
X438667Y298420D01*
X443333D01*
X444499Y299586D01*
Y301919D01*
X443333Y303085D01*
X437501Y305417D02*
Y310083D01*
X438667D01*
X443333Y305417D01*
X444499D01*
X437501Y312415D02*
X444499D01*
Y315914D01*
X443333Y317080D01*
X442166D01*
X441000D01*
X439834Y315914D01*
Y312415D01*
X332667Y337835D02*
X331501Y336669D01*
Y334336D01*
X332667Y333170D01*
X337332D01*
X338499Y334336D01*
Y336669D01*
X337332Y337835D01*
X331501Y344833D02*
X332667Y342500D01*
X335000Y340167D01*
X337332D01*
X338499Y341334D01*
Y343666D01*
X337332Y344833D01*
X336166D01*
X335000Y343666D01*
Y340167D01*
X331501Y347165D02*
X338499D01*
Y350664D01*
X337332Y351830D01*
X336166D01*
X335000D01*
X333834Y350664D01*
Y347165D01*
X502835Y619833D02*
X501669Y620999D01*
X499336D01*
X498170Y619833D01*
Y615167D01*
X499336Y614001D01*
X501669D01*
X502835Y615167D01*
X509833Y620999D02*
X505167D01*
Y617500D01*
X507500Y618666D01*
X508666D01*
X509833Y617500D01*
Y615167D01*
X508666Y614001D01*
X506334D01*
X505167Y615167D01*
X512165Y620999D02*
Y614001D01*
X515664D01*
X516830Y615167D01*
Y616334D01*
Y617500D01*
X515664Y618666D01*
X512165D01*
X592835Y564833D02*
X591669Y565999D01*
X589336D01*
X588170Y564833D01*
Y560167D01*
X589336Y559001D01*
X591669D01*
X592835Y560167D01*
X598666Y559001D02*
Y565999D01*
X595167Y562500D01*
X599833D01*
X602165Y565999D02*
Y559001D01*
X605664D01*
X606830Y560167D01*
Y561334D01*
Y562500D01*
X605664Y563666D01*
X602165D01*
X462667Y550335D02*
X461501Y549169D01*
Y546836D01*
X462667Y545670D01*
X467333D01*
X468499Y546836D01*
Y549169D01*
X467333Y550335D01*
X462667Y552667D02*
X461501Y553834D01*
Y556166D01*
X462667Y557333D01*
X463834D01*
X465000Y556166D01*
Y555000D01*
Y556166D01*
X466166Y557333D01*
X467333D01*
X468499Y556166D01*
Y553834D01*
X467333Y552667D01*
X461501Y559665D02*
X468499D01*
Y563164D01*
X467333Y564330D01*
X466166D01*
X465000D01*
X463834Y563164D01*
Y559665D01*
X427667Y572835D02*
X426501Y571669D01*
Y569336D01*
X427667Y568170D01*
X432333D01*
X433499Y569336D01*
Y571669D01*
X432333Y572835D01*
X433499Y579832D02*
Y575167D01*
X428834Y579832D01*
X427667D01*
X426501Y578666D01*
Y576334D01*
X427667Y575167D01*
X426501Y582165D02*
X433499D01*
Y585664D01*
X432333Y586830D01*
X431166D01*
X430000D01*
X428834Y585664D01*
Y582165D01*
X475918Y612333D02*
X474752Y613499D01*
X472419D01*
X471253Y612333D01*
Y607667D01*
X472419Y606501D01*
X474752D01*
X475918Y607667D01*
X478251Y606501D02*
X480583D01*
X479417D01*
Y613499D01*
X478251Y612333D01*
X484082Y613499D02*
Y606501D01*
X487581D01*
X488747Y607667D01*
Y608834D01*
Y610000D01*
X487581Y611166D01*
X484082D01*
X433499Y546253D02*
X426501D01*
Y549752D01*
X427667Y550918D01*
X430000D01*
X431166Y549752D01*
Y546253D01*
Y548585D02*
X433499Y550918D01*
Y553251D02*
Y555583D01*
Y554417D01*
X426501D01*
X427667Y553251D01*
X426501Y559082D02*
X433499D01*
Y562581D01*
X432333Y563747D01*
X431166D01*
X430000D01*
X428834Y562581D01*
Y559082D01*
X158499Y552335D02*
X151501D01*
Y555834D01*
X152667Y557000D01*
X155000D01*
X156166Y555834D01*
Y552335D01*
Y554667D02*
X158499Y557000D01*
Y559333D02*
Y561665D01*
Y560499D01*
X151501D01*
X152667Y559333D01*
X200000Y609333D02*
X198834Y610499D01*
X196501D01*
X195335Y609333D01*
Y604667D01*
X196501Y603501D01*
X198834D01*
X200000Y604667D01*
X202333Y603501D02*
X204665D01*
X203499D01*
Y610499D01*
X202333Y609333D01*
X152667Y576834D02*
X151501Y575667D01*
Y573335D01*
X152667Y572169D01*
X157332D01*
X158499Y573335D01*
Y575667D01*
X157332Y576834D01*
X158499Y583831D02*
Y579166D01*
X153834Y583831D01*
X152667D01*
X151501Y582665D01*
Y580333D01*
X152667Y579166D01*
X189089Y549274D02*
X187923Y548107D01*
Y545775D01*
X189089Y544608D01*
X193754D01*
X194921Y545775D01*
Y548107D01*
X193754Y549274D01*
X189089Y551606D02*
X187923Y552772D01*
Y555105D01*
X189089Y556271D01*
X190256D01*
X191422Y555105D01*
Y553939D01*
Y555105D01*
X192588Y556271D01*
X193754D01*
X194921Y555105D01*
Y552772D01*
X193754Y551606D01*
X318834Y567333D02*
X317667Y568499D01*
X315335D01*
X314168Y567333D01*
Y562667D01*
X315335Y561501D01*
X317667D01*
X318834Y562667D01*
X324665Y561501D02*
Y568499D01*
X321166Y565000D01*
X325831D01*
X230834Y613333D02*
X229667Y614499D01*
X227335D01*
X226168Y613333D01*
Y608667D01*
X227335Y607501D01*
X229667D01*
X230834Y608667D01*
X237831Y614499D02*
X233166D01*
Y611000D01*
X235499Y612166D01*
X236665D01*
X237831Y611000D01*
Y608667D01*
X236665Y607501D01*
X234333D01*
X233166Y608667D01*
X88834Y217333D02*
X87667Y218499D01*
X85335D01*
X84169Y217333D01*
Y212667D01*
X85335Y211501D01*
X87667D01*
X88834Y212667D01*
X95831Y218499D02*
X93499Y217333D01*
X91166Y215000D01*
Y212667D01*
X92333Y211501D01*
X94665D01*
X95831Y212667D01*
Y213834D01*
X94665Y215000D01*
X91166D01*
X138834Y207333D02*
X137667Y208499D01*
X135335D01*
X134169Y207333D01*
Y202667D01*
X135335Y201501D01*
X137667D01*
X138834Y202667D01*
X141166Y208499D02*
X145831D01*
Y207333D01*
X141166Y202667D01*
Y201501D01*
X176834Y447333D02*
X175667Y448499D01*
X173335D01*
X172169Y447333D01*
Y442667D01*
X173335Y441501D01*
X175667D01*
X176834Y442667D01*
X179166Y447333D02*
X180333Y448499D01*
X182665D01*
X183832Y447333D01*
Y446166D01*
X182665Y445000D01*
X183832Y443834D01*
Y442667D01*
X182665Y441501D01*
X180333D01*
X179166Y442667D01*
Y443834D01*
X180333Y445000D01*
X179166Y446166D01*
Y447333D01*
X180333Y445000D02*
X182665D01*
X138834Y197333D02*
X137667Y198499D01*
X135335D01*
X134169Y197333D01*
Y192667D01*
X135335Y191501D01*
X137667D01*
X138834Y192667D01*
X141166D02*
X142333Y191501D01*
X144665D01*
X145831Y192667D01*
Y197333D01*
X144665Y198499D01*
X142333D01*
X141166Y197333D01*
Y196166D01*
X142333Y195000D01*
X145831D01*
X145918Y447333D02*
X144752Y448499D01*
X142419D01*
X141253Y447333D01*
Y442667D01*
X142419Y441501D01*
X144752D01*
X145918Y442667D01*
X148251Y441501D02*
X150583D01*
X149417D01*
Y448499D01*
X148251Y447333D01*
X154082D02*
X155248Y448499D01*
X157581D01*
X158747Y447333D01*
Y442667D01*
X157581Y441501D01*
X155248D01*
X154082Y442667D01*
Y447333D01*
X167084Y360333D02*
X165918Y361499D01*
X163585D01*
X162419Y360333D01*
Y355667D01*
X163585Y354501D01*
X165918D01*
X167084Y355667D01*
X169417Y354501D02*
X171749D01*
X170583D01*
Y361499D01*
X169417Y360333D01*
X175248Y354501D02*
X177581D01*
X176415D01*
Y361499D01*
X175248Y360333D01*
X115918Y447333D02*
X114752Y448499D01*
X112419D01*
X111253Y447333D01*
Y442667D01*
X112419Y441501D01*
X114752D01*
X115918Y442667D01*
X118251Y441501D02*
X120583D01*
X119417D01*
Y448499D01*
X118251Y447333D01*
X128747Y441501D02*
X124082D01*
X128747Y446166D01*
Y447333D01*
X127581Y448499D01*
X125248D01*
X124082Y447333D01*
X165918Y435333D02*
X164752Y436499D01*
X162419D01*
X161253Y435333D01*
Y430667D01*
X162419Y429501D01*
X164752D01*
X165918Y430667D01*
X168251Y429501D02*
X170583D01*
X169417D01*
Y436499D01*
X168251Y435333D01*
X174082D02*
X175248Y436499D01*
X177581D01*
X178747Y435333D01*
Y434166D01*
X177581Y433000D01*
X176415D01*
X177581D01*
X178747Y431834D01*
Y430667D01*
X177581Y429501D01*
X175248D01*
X174082Y430667D01*
X85918Y447333D02*
X84752Y448499D01*
X82419D01*
X81253Y447333D01*
Y442667D01*
X82419Y441501D01*
X84752D01*
X85918Y442667D01*
X88251Y441501D02*
X90583D01*
X89417D01*
Y448499D01*
X88251Y447333D01*
X97581Y441501D02*
Y448499D01*
X94082Y445000D01*
X98747D01*
X135918Y217333D02*
X134752Y218499D01*
X132419D01*
X131253Y217333D01*
Y212667D01*
X132419Y211501D01*
X134752D01*
X135918Y212667D01*
X138251Y211501D02*
X140583D01*
X139417D01*
Y218499D01*
X138251Y217333D01*
X148747Y218499D02*
X144082D01*
Y215000D01*
X146415Y216166D01*
X147581D01*
X148747Y215000D01*
Y212667D01*
X147581Y211501D01*
X145248D01*
X144082Y212667D01*
X265918Y477333D02*
X264752Y478499D01*
X262419D01*
X261253Y477333D01*
Y472667D01*
X262419Y471501D01*
X264752D01*
X265918Y472667D01*
X268251Y471501D02*
X270583D01*
X269417D01*
Y478499D01*
X268251Y477333D01*
X278747Y478499D02*
X276415Y477333D01*
X274082Y475000D01*
Y472667D01*
X275248Y471501D01*
X277581D01*
X278747Y472667D01*
Y473834D01*
X277581Y475000D01*
X274082D01*
X120918Y374333D02*
X119752Y375499D01*
X117419D01*
X116253Y374333D01*
Y369667D01*
X117419Y368501D01*
X119752D01*
X120918Y369667D01*
X123251Y368501D02*
X125583D01*
X124417D01*
Y375499D01*
X123251Y374333D01*
X129082Y375499D02*
X133747D01*
Y374333D01*
X129082Y369667D01*
Y368501D01*
X85918Y187333D02*
X84752Y188499D01*
X82419D01*
X81253Y187333D01*
Y182667D01*
X82419Y181501D01*
X84752D01*
X85918Y182667D01*
X88251Y181501D02*
X90583D01*
X89417D01*
Y188499D01*
X88251Y187333D01*
X94082D02*
X95248Y188499D01*
X97581D01*
X98747Y187333D01*
Y186166D01*
X97581Y185000D01*
X98747Y183834D01*
Y182667D01*
X97581Y181501D01*
X95248D01*
X94082Y182667D01*
Y183834D01*
X95248Y185000D01*
X94082Y186166D01*
Y187333D01*
X95248Y185000D02*
X97581D01*
X295918Y462333D02*
X294752Y463499D01*
X292419D01*
X291253Y462333D01*
Y457667D01*
X292419Y456501D01*
X294752D01*
X295918Y457667D01*
X298251Y456501D02*
X300583D01*
X299417D01*
Y463499D01*
X298251Y462333D01*
X304082Y457667D02*
X305248Y456501D01*
X307581D01*
X308747Y457667D01*
Y462333D01*
X307581Y463499D01*
X305248D01*
X304082Y462333D01*
Y461166D01*
X305248Y460000D01*
X308747D01*
X135335Y187333D02*
X134169Y188499D01*
X131836D01*
X130670Y187333D01*
Y182667D01*
X131836Y181501D01*
X134169D01*
X135335Y182667D01*
X142333Y181501D02*
X137667D01*
X142333Y186166D01*
Y187333D01*
X141166Y188499D01*
X138834D01*
X137667Y187333D01*
X144665D02*
X145831Y188499D01*
X148164D01*
X149330Y187333D01*
Y182667D01*
X148164Y181501D01*
X145831D01*
X144665Y182667D01*
Y187333D01*
X86501Y207333D02*
X85335Y208499D01*
X83002D01*
X81836Y207333D01*
Y202667D01*
X83002Y201501D01*
X85335D01*
X86501Y202667D01*
X93499Y201501D02*
X88834D01*
X93499Y206166D01*
Y207333D01*
X92333Y208499D01*
X90000D01*
X88834Y207333D01*
X95831Y201501D02*
X98164D01*
X96998D01*
Y208499D01*
X95831Y207333D01*
X85335Y197333D02*
X84169Y198499D01*
X81836D01*
X80670Y197333D01*
Y192667D01*
X81836Y191501D01*
X84169D01*
X85335Y192667D01*
X92333Y191501D02*
X87667D01*
X92333Y196166D01*
Y197333D01*
X91166Y198499D01*
X88834D01*
X87667Y197333D01*
X99330Y191501D02*
X94665D01*
X99330Y196166D01*
Y197333D01*
X98164Y198499D01*
X95831D01*
X94665Y197333D01*
X85335Y375333D02*
X84169Y376499D01*
X81836D01*
X80670Y375333D01*
Y370667D01*
X81836Y369501D01*
X84169D01*
X85335Y370667D01*
X92333Y369501D02*
X87667D01*
X92333Y374166D01*
Y375333D01*
X91166Y376499D01*
X88834D01*
X87667Y375333D01*
X94665D02*
X95831Y376499D01*
X98164D01*
X99330Y375333D01*
Y374166D01*
X98164Y373000D01*
X96998D01*
X98164D01*
X99330Y371834D01*
Y370667D01*
X98164Y369501D01*
X95831D01*
X94665Y370667D01*
X217836Y583499D02*
Y576501D01*
X221335D01*
X222501Y577667D01*
Y582333D01*
X221335Y583499D01*
X217836D01*
X224834Y576501D02*
Y581166D01*
X227166Y583499D01*
X229499Y581166D01*
Y576501D01*
Y580000D01*
X224834D01*
X231831Y576501D02*
X234164D01*
X232998D01*
Y583499D01*
X231831Y582333D01*
X305335Y343499D02*
Y336501D01*
X310000D01*
X312333D02*
X314665D01*
X313499D01*
Y343499D01*
X312333Y342333D01*
X274168Y625501D02*
Y632499D01*
X277667D01*
X278834Y631333D01*
Y629000D01*
X277667Y627834D01*
X274168D01*
X276501D02*
X278834Y625501D01*
X285832D02*
X281166D01*
X285832Y630166D01*
Y631333D01*
X284665Y632499D01*
X282333D01*
X281166Y631333D01*
X293169Y582501D02*
Y589499D01*
X296667D01*
X297834Y588333D01*
Y586000D01*
X296667Y584834D01*
X293169D01*
X295501D02*
X297834Y582501D01*
X300166Y588333D02*
X301333Y589499D01*
X303665D01*
X304832Y588333D01*
Y587166D01*
X303665Y586000D01*
X302499D01*
X303665D01*
X304832Y584834D01*
Y583667D01*
X303665Y582501D01*
X301333D01*
X300166Y583667D01*
X167169Y607501D02*
Y614499D01*
X170667D01*
X171834Y613333D01*
Y611000D01*
X170667Y609834D01*
X167169D01*
X169501D02*
X171834Y607501D01*
X177665D02*
Y614499D01*
X174166Y611000D01*
X178832D01*
X256499Y588168D02*
X249501D01*
Y591667D01*
X250667Y592834D01*
X253000D01*
X254166Y591667D01*
Y588168D01*
Y590501D02*
X256499Y592834D01*
X249501Y599831D02*
Y595166D01*
X253000D01*
X251834Y597499D01*
Y598665D01*
X253000Y599831D01*
X255333D01*
X256499Y598665D01*
Y596333D01*
X255333Y595166D01*
X195499Y521169D02*
X188501D01*
Y524667D01*
X189667Y525834D01*
X192000D01*
X193166Y524667D01*
Y521169D01*
Y523501D02*
X195499Y525834D01*
X188501Y532831D02*
X189667Y530499D01*
X192000Y528166D01*
X194333D01*
X195499Y529333D01*
Y531665D01*
X194333Y532831D01*
X193166D01*
X192000Y531665D01*
Y528166D01*
X199168Y476501D02*
Y483499D01*
X202667D01*
X203834Y482333D01*
Y480000D01*
X202667Y478834D01*
X199168D01*
X201501D02*
X203834Y476501D01*
X206166Y483499D02*
X210832D01*
Y482333D01*
X206166Y477667D01*
Y476501D01*
X215168Y362501D02*
Y369499D01*
X218667D01*
X219834Y368333D01*
Y366000D01*
X218667Y364834D01*
X215168D01*
X217501D02*
X219834Y362501D01*
X222166Y368333D02*
X223333Y369499D01*
X225665D01*
X226831Y368333D01*
Y367166D01*
X225665Y366000D01*
X226831Y364834D01*
Y363667D01*
X225665Y362501D01*
X223333D01*
X222166Y363667D01*
Y364834D01*
X223333Y366000D01*
X222166Y367166D01*
Y368333D01*
X223333Y366000D02*
X225665D01*
X130651Y575878D02*
X123653D01*
Y579377D01*
X124819Y580544D01*
X127152D01*
X128318Y579377D01*
Y575878D01*
Y578211D02*
X130651Y580544D01*
X129484Y582876D02*
X130651Y584043D01*
Y586375D01*
X129484Y587541D01*
X124819D01*
X123653Y586375D01*
Y584043D01*
X124819Y582876D01*
X125985D01*
X127152Y584043D01*
Y587541D01*
X129921Y539693D02*
X122923D01*
Y543192D01*
X124089Y544358D01*
X126422D01*
X127588Y543192D01*
Y539693D01*
Y542025D02*
X129921Y544358D01*
Y546690D02*
Y549023D01*
Y547857D01*
X122923D01*
X124089Y546690D01*
Y552522D02*
X122923Y553688D01*
Y556021D01*
X124089Y557187D01*
X128754D01*
X129921Y556021D01*
Y553688D01*
X128754Y552522D01*
X124089D01*
X313836Y548499D02*
Y543834D01*
X316168Y541501D01*
X318501Y543834D01*
Y548499D01*
X320834D02*
Y541501D01*
X324333D01*
X325499Y542667D01*
Y547333D01*
X324333Y548499D01*
X320834D01*
X327831Y541501D02*
X330164D01*
X328998D01*
Y548499D01*
X327831Y547333D01*
X134836Y527499D02*
Y522834D01*
X137169Y520501D01*
X139501Y522834D01*
Y527499D01*
X141834D02*
X146499D01*
X144166D01*
Y520501D01*
X148832D02*
X151164D01*
X149998D01*
Y527499D01*
X148832Y526333D01*
X290670Y443499D02*
Y438834D01*
X293002Y436501D01*
X295335Y438834D01*
Y443499D01*
X297667D02*
X302333D01*
X300000D01*
Y436501D01*
X309330D02*
X304665D01*
X309330Y441166D01*
Y442333D01*
X308164Y443499D01*
X305832D01*
X304665Y442333D01*
X290670Y413499D02*
Y408834D01*
X293002Y406501D01*
X295335Y408834D01*
Y413499D01*
X297667D02*
X302333D01*
X300000D01*
Y406501D01*
X304665Y412333D02*
X305832Y413499D01*
X308164D01*
X309330Y412333D01*
Y411166D01*
X308164Y410000D01*
X306998D01*
X308164D01*
X309330Y408834D01*
Y407667D01*
X308164Y406501D01*
X305832D01*
X304665Y407667D01*
D17*
X565000Y421480D02*
G03*
X565000Y420480I0J-500D01*
G01*
D02*
G03*
X565000Y421480I0J500D01*
G01*
X290422Y419170D02*
G03*
X290422Y420170I0J500D01*
G01*
D02*
G03*
X290422Y419170I0J-500D01*
G01*
X520540Y401480D02*
G03*
X520540Y400480I0J-500D01*
G01*
X245962Y399170D02*
G03*
X245962Y400170I0J500D01*
G01*
D02*
G03*
X245962Y399170I0J-500D01*
G01*
X520540Y400480D02*
G03*
X520540Y401480I0J500D01*
G01*
D18*
X961500Y749000D02*
G03*
X961500Y749000I-1500J0D01*
G01*
M02*
