G04*
G04 #@! TF.GenerationSoftware,Altium Limited,Altium Designer,25.3.3 (18)*
G04*
G04 Layer_Physical_Order=2*
G04 Layer_Color=6736896*
%FSLAX44Y44*%
%MOMM*%
G71*
G04*
G04 #@! TF.SameCoordinates,CF69704A-5354-45C7-9BAD-F186B8640CAA*
G04*
G04*
G04 #@! TF.FilePolarity,Positive*
G04*
G01*
G75*
%ADD13C,0.2000*%
%ADD145C,1.1000*%
%ADD147C,5.8000*%
%ADD148C,1.4380*%
%ADD151C,1.6500*%
%ADD154C,2.5500*%
%ADD155C,1.5080*%
%ADD156C,2.4450*%
%ADD158C,1.5300*%
%ADD160C,1.2080*%
%ADD162C,3.3160*%
%ADD165C,0.4000*%
%ADD166C,0.8000*%
%ADD167C,4.5000*%
G36*
X897010Y949409D02*
X901067Y948238D01*
X904920Y946510D01*
X906706Y945385D01*
X906706D01*
X909711Y943565D01*
X915903Y940248D01*
X922312Y937374D01*
X928908Y934957D01*
X935657Y933008D01*
X942525Y931539D01*
X949481Y930555D01*
X956488Y930062D01*
X960000Y930000D01*
X1070000Y930000D01*
X1071966D01*
X1075865Y929487D01*
X1079664Y928469D01*
X1083297Y926964D01*
X1086703Y924998D01*
X1089823Y922604D01*
X1092604Y919823D01*
X1094998Y916703D01*
X1096964Y913297D01*
X1098469Y909664D01*
X1099487Y905865D01*
X1100000Y901966D01*
Y900000D01*
X1100000D01*
X1100000Y900000D01*
X1100000Y805000D01*
Y803034D01*
X1099487Y799135D01*
X1098469Y795336D01*
X1096964Y791703D01*
X1094998Y788297D01*
X1092604Y785177D01*
X1089823Y782396D01*
X1086703Y780002D01*
X1083297Y778036D01*
X1079664Y776531D01*
X1075865Y775513D01*
X1071966Y775000D01*
X1070000Y775000D01*
X1032000D01*
X1030726Y774937D01*
X1028226Y774440D01*
X1025872Y773465D01*
X1023753Y772049D01*
X1021951Y770247D01*
X1020535Y768128D01*
X1019560Y765774D01*
X1019063Y763274D01*
X1019000Y762000D01*
X1019000Y208000D01*
X1019063Y206726D01*
X1019560Y204226D01*
X1020535Y201872D01*
X1021951Y199753D01*
X1023753Y197951D01*
X1025872Y196535D01*
X1028226Y195560D01*
X1030726Y195063D01*
X1032000Y195000D01*
X1108280D01*
X1110792Y194500D01*
X1113158Y193520D01*
X1115287Y192098D01*
X1117098Y190287D01*
X1118520Y188158D01*
X1119500Y185792D01*
X1120000Y183280D01*
Y182000D01*
Y33000D01*
Y31720D01*
X1119500Y29208D01*
X1118520Y26842D01*
X1117098Y24713D01*
X1115287Y22902D01*
X1113158Y21479D01*
X1110792Y20500D01*
X1108280Y20000D01*
X960000D01*
X956488Y19938D01*
X949481Y19445D01*
X942525Y18461D01*
X935657Y16992D01*
X928908Y15043D01*
X922312Y12626D01*
X915903Y9752D01*
X909711Y6435D01*
X906706Y4615D01*
X904920Y3490D01*
X901067Y1762D01*
X897010Y591D01*
X892829Y0D01*
X890718Y0D01*
X664160Y0D01*
X663910Y473D01*
X663700Y1500D01*
X664467Y2267D01*
X665000Y3554D01*
Y4946D01*
X664467Y6233D01*
X663483Y7217D01*
X662196Y7750D01*
X660804D01*
X659517Y7217D01*
X658533Y6233D01*
X658000Y4946D01*
Y3554D01*
X658533Y2267D01*
X659300Y1500D01*
X659090Y473D01*
X658840Y0D01*
X20000Y0D01*
X18030Y-0D01*
X14166Y769D01*
X10526Y2276D01*
X7251Y4465D01*
X4465Y7251D01*
X2276Y10526D01*
X769Y14166D01*
X0Y18030D01*
X0Y20000D01*
X0Y20000D01*
X0Y930000D01*
Y931970D01*
X769Y935834D01*
X2276Y939473D01*
X4465Y942749D01*
X7251Y945535D01*
X10526Y947724D01*
X14166Y949231D01*
X18030Y950000D01*
X20000D01*
Y950000D01*
X277895D01*
X279216Y949003D01*
Y930000D01*
X279352Y929317D01*
X279738Y928738D01*
X280317Y928352D01*
X281000Y928216D01*
X360003D01*
X360685Y928352D01*
X361264Y928738D01*
X361651Y929317D01*
X361787Y930000D01*
Y949003D01*
X363108Y950000D01*
X892829D01*
X897010Y949409D01*
D02*
G37*
%LPC*%
G36*
X412401Y945500D02*
X407600D01*
X402858Y944749D01*
X398292Y943265D01*
X394015Y941086D01*
X392260Y939811D01*
X393601Y938470D01*
X386530Y931399D01*
X385189Y932740D01*
X383914Y930985D01*
X381735Y926708D01*
X380251Y922142D01*
X379500Y917400D01*
Y912599D01*
X380251Y907858D01*
X381735Y903292D01*
X383914Y899015D01*
X385189Y897260D01*
X386530Y898601D01*
X393601Y891530D01*
X392260Y890189D01*
X394015Y888914D01*
X398292Y886734D01*
X402858Y885251D01*
X407600Y884500D01*
X412401D01*
X417142Y885251D01*
X421708Y886734D01*
X425986Y888914D01*
X427740Y890189D01*
X426399Y891530D01*
X433471Y898601D01*
X434811Y897260D01*
X436086Y899015D01*
X438266Y903292D01*
X439749Y907858D01*
X440500Y912599D01*
Y917400D01*
X439749Y922142D01*
X438266Y926708D01*
X436086Y930985D01*
X434811Y932740D01*
X433471Y931399D01*
X426399Y938470D01*
X427740Y939811D01*
X425986Y941086D01*
X421708Y943265D01*
X417142Y944749D01*
X412401Y945500D01*
D02*
G37*
G36*
X759696Y929250D02*
X758304D01*
X757018Y928717D01*
X756033Y927733D01*
X755500Y926446D01*
Y925054D01*
X756033Y923768D01*
X757018Y922783D01*
X758304Y922250D01*
X759696D01*
X760983Y922783D01*
X761967Y923768D01*
X762500Y925054D01*
Y926446D01*
X761967Y927733D01*
X760983Y928717D01*
X759696Y929250D01*
D02*
G37*
G36*
X525946Y928500D02*
X524554D01*
X523268Y927967D01*
X522283Y926982D01*
X521750Y925696D01*
Y924304D01*
X522283Y923017D01*
X523268Y922033D01*
X524554Y921500D01*
X525946D01*
X527233Y922033D01*
X528217Y923017D01*
X528750Y924304D01*
Y925696D01*
X528217Y926982D01*
X527233Y927967D01*
X525946Y928500D01*
D02*
G37*
G36*
X872364Y929000D02*
X867636D01*
X862999Y928078D01*
X858632Y926268D01*
X856936Y925135D01*
X858287Y923783D01*
X851216Y916712D01*
X849865Y918064D01*
X848731Y916368D01*
X846922Y912001D01*
X846000Y907364D01*
Y902636D01*
X846922Y897999D01*
X848731Y893632D01*
X849865Y891936D01*
X851216Y893288D01*
X858287Y886217D01*
X856936Y884865D01*
X858632Y883731D01*
X862999Y881922D01*
X867636Y881000D01*
X872364D01*
X877000Y881922D01*
X881368Y883731D01*
X883064Y884865D01*
X881712Y886217D01*
X888783Y893288D01*
X890135Y891936D01*
X891268Y893632D01*
X893077Y897999D01*
X894000Y902636D01*
Y907364D01*
X893077Y912001D01*
X891268Y916368D01*
X890135Y918064D01*
X888783Y916712D01*
X881712Y923783D01*
X883064Y925135D01*
X881368Y926268D01*
X877000Y928078D01*
X872364Y929000D01*
D02*
G37*
G36*
X582364D02*
X577636D01*
X572999Y928078D01*
X568632Y926268D01*
X566936Y925135D01*
X568288Y923783D01*
X561216Y916712D01*
X559865Y918064D01*
X558731Y916368D01*
X556922Y912001D01*
X556000Y907364D01*
Y902636D01*
X556922Y897999D01*
X558731Y893632D01*
X559865Y891936D01*
X561216Y893288D01*
X568288Y886217D01*
X566936Y884865D01*
X568632Y883731D01*
X572999Y881922D01*
X577636Y881000D01*
X582364D01*
X587000Y881922D01*
X591368Y883731D01*
X593064Y884865D01*
X591712Y886217D01*
X598783Y893288D01*
X600135Y891936D01*
X601268Y893632D01*
X603078Y897999D01*
X604000Y902636D01*
Y907364D01*
X603078Y912001D01*
X601268Y916368D01*
X600135Y918064D01*
X598783Y916712D01*
X591712Y923783D01*
X593064Y925135D01*
X591368Y926268D01*
X587000Y928078D01*
X582364Y929000D01*
D02*
G37*
G36*
X141307Y924225D02*
X140750D01*
Y911750D01*
X153225D01*
Y912307D01*
X152289Y915798D01*
X150483Y918927D01*
X147927Y921483D01*
X144797Y923290D01*
X141307Y924225D01*
D02*
G37*
G36*
X138250D02*
X137693D01*
X134202Y923290D01*
X131073Y921483D01*
X128517Y918927D01*
X126710Y915798D01*
X125775Y912307D01*
Y911750D01*
X138250D01*
Y924225D01*
D02*
G37*
G36*
X1073250Y916024D02*
Y908250D01*
X1081024D01*
X1080424Y910489D01*
X1079234Y912551D01*
X1077551Y914234D01*
X1075489Y915424D01*
X1073250Y916024D01*
D02*
G37*
G36*
X1070750D02*
X1068511Y915424D01*
X1066449Y914234D01*
X1064766Y912551D01*
X1063576Y910489D01*
X1062976Y908250D01*
X1070750D01*
Y916024D01*
D02*
G37*
G36*
X40446Y910000D02*
X39054D01*
X37767Y909467D01*
X36783Y908483D01*
X36250Y907196D01*
Y905804D01*
X36783Y904517D01*
X37767Y903533D01*
X39054Y903000D01*
X40446D01*
X41733Y903533D01*
X42717Y904517D01*
X43250Y905804D01*
Y907196D01*
X42717Y908483D01*
X41733Y909467D01*
X40446Y910000D01*
D02*
G37*
G36*
X1081024Y905750D02*
X1073250D01*
Y897976D01*
X1075489Y898576D01*
X1077551Y899766D01*
X1079234Y901449D01*
X1080424Y903511D01*
X1081024Y905750D01*
D02*
G37*
G36*
X1070750D02*
X1062976D01*
X1063576Y903511D01*
X1064766Y901449D01*
X1066449Y899766D01*
X1068511Y898576D01*
X1070750Y897976D01*
Y905750D01*
D02*
G37*
G36*
X153225Y909250D02*
X140750D01*
Y896775D01*
X141307D01*
X144797Y897710D01*
X147927Y899517D01*
X150483Y902073D01*
X152289Y905202D01*
X153225Y908693D01*
Y909250D01*
D02*
G37*
G36*
X138250D02*
X125775D01*
Y908693D01*
X126710Y905202D01*
X128517Y902073D01*
X131073Y899517D01*
X134202Y897710D01*
X137693Y896775D01*
X138250D01*
Y909250D01*
D02*
G37*
G36*
X246400Y937609D02*
X241989Y937174D01*
X237748Y935888D01*
X233839Y933799D01*
X230413Y930987D01*
X227601Y927561D01*
X225512Y923652D01*
X224226Y919411D01*
X223791Y915000D01*
X224226Y910589D01*
X225512Y906348D01*
X227601Y902439D01*
X230413Y899013D01*
X233839Y896201D01*
X237748Y894112D01*
X241989Y892826D01*
X246400Y892391D01*
X250811Y892826D01*
X255052Y894112D01*
X258961Y896201D01*
X262387Y899013D01*
X265199Y902439D01*
X267288Y906348D01*
X268574Y910589D01*
X269009Y915000D01*
X268574Y919411D01*
X267288Y923652D01*
X265199Y927561D01*
X262387Y930987D01*
X258961Y933799D01*
X255052Y935888D01*
X250811Y937174D01*
X246400Y937609D01*
D02*
G37*
G36*
X61205Y905400D02*
X58795D01*
X56468Y904777D01*
X54382Y903572D01*
X52678Y901868D01*
X51473Y899782D01*
X50850Y897455D01*
Y895046D01*
X51473Y892718D01*
X52678Y890632D01*
X54382Y888928D01*
X56468Y887724D01*
X58795Y887100D01*
X61205D01*
X63532Y887724D01*
X65618Y888928D01*
X67322Y890632D01*
X68526Y892718D01*
X69150Y895046D01*
Y897455D01*
X68526Y899782D01*
X67322Y901868D01*
X65618Y903572D01*
X63532Y904777D01*
X61205Y905400D01*
D02*
G37*
G36*
X701946Y887750D02*
X700554D01*
X699267Y887217D01*
X698500Y886450D01*
X697733Y887217D01*
X696446Y887750D01*
X695054D01*
X693768Y887217D01*
X693125Y886575D01*
X692483Y887217D01*
X691196Y887750D01*
X689804D01*
X688517Y887217D01*
X687750Y886450D01*
X686982Y887217D01*
X685696Y887750D01*
X684304D01*
X683017Y887217D01*
X682033Y886233D01*
X681500Y884946D01*
Y883554D01*
X682033Y882268D01*
X683017Y881283D01*
X684304Y880750D01*
X685696D01*
X686982Y881283D01*
X687750Y882050D01*
X688517Y881283D01*
X689804Y880750D01*
X691196D01*
X692483Y881283D01*
X693125Y881926D01*
X693768Y881283D01*
X695054Y880750D01*
X696446D01*
X697733Y881283D01*
X698500Y882050D01*
X699267Y881283D01*
X700554Y880750D01*
X701946D01*
X703232Y881283D01*
X704217Y882268D01*
X704750Y883554D01*
Y884946D01*
X704217Y886233D01*
X703232Y887217D01*
X701946Y887750D01*
D02*
G37*
G36*
X199111Y896350D02*
X196689D01*
X194349Y895723D01*
X192251Y894512D01*
X190538Y892799D01*
X189327Y890701D01*
X188700Y888361D01*
Y885939D01*
X189327Y883599D01*
X190538Y881501D01*
X192251Y879788D01*
X194349Y878577D01*
X196689Y877950D01*
X199111D01*
X201451Y878577D01*
X203549Y879788D01*
X205262Y881501D01*
X206473Y883599D01*
X207100Y885939D01*
Y888361D01*
X206473Y890701D01*
X205262Y892799D01*
X203549Y894512D01*
X201451Y895723D01*
X199111Y896350D01*
D02*
G37*
G36*
X29282Y891191D02*
X27889D01*
X26603Y890658D01*
X25619Y889673D01*
X25086Y888387D01*
Y886995D01*
X25619Y885708D01*
X26603Y884724D01*
X27889Y884191D01*
X28620D01*
X29030Y883648D01*
X29439Y882756D01*
X29000Y881696D01*
Y880304D01*
X29533Y879017D01*
X30517Y878033D01*
X31804Y877500D01*
X33196D01*
X34483Y878033D01*
X35467Y879017D01*
X36000Y880304D01*
Y881696D01*
X35467Y882983D01*
X34483Y883967D01*
X33196Y884500D01*
X32466D01*
X32056Y885043D01*
X31647Y885935D01*
X32086Y886995D01*
Y888387D01*
X31553Y889673D01*
X30568Y890658D01*
X29282Y891191D01*
D02*
G37*
G36*
X930400Y917609D02*
X925989Y917174D01*
X921748Y915888D01*
X917839Y913799D01*
X914413Y910987D01*
X911601Y907561D01*
X909512Y903652D01*
X908226Y899411D01*
X907791Y895000D01*
X908226Y890589D01*
X909512Y886348D01*
X911601Y882439D01*
X914413Y879013D01*
X917839Y876201D01*
X921748Y874112D01*
X925989Y872826D01*
X930400Y872391D01*
X934811Y872826D01*
X939052Y874112D01*
X942961Y876201D01*
X946387Y879013D01*
X949199Y882439D01*
X951288Y886348D01*
X952574Y890589D01*
X953009Y895000D01*
X952574Y899411D01*
X951288Y903652D01*
X949199Y907561D01*
X946387Y910987D01*
X942961Y913799D01*
X939052Y915888D01*
X934811Y917174D01*
X930400Y917609D01*
D02*
G37*
G36*
X61250Y879988D02*
Y872100D01*
X69138D01*
X68526Y874382D01*
X67322Y876468D01*
X65618Y878172D01*
X63532Y879377D01*
X61250Y879988D01*
D02*
G37*
G36*
X58750D02*
X56468Y879377D01*
X54382Y878172D01*
X52678Y876468D01*
X51473Y874382D01*
X50862Y872100D01*
X58750D01*
Y879988D01*
D02*
G37*
G36*
X110748Y904900D02*
X107252D01*
X103823Y904218D01*
X100592Y902880D01*
X97685Y900937D01*
X95213Y898465D01*
X93270Y895558D01*
X91932Y892327D01*
X91250Y888898D01*
Y885402D01*
X91932Y881972D01*
X93270Y878742D01*
X95213Y875835D01*
X97685Y873363D01*
X100592Y871420D01*
X103823Y870082D01*
X107252Y869400D01*
X110748D01*
X114178Y870082D01*
X117408Y871420D01*
X120315Y873363D01*
X122787Y875835D01*
X124730Y878742D01*
X126068Y881972D01*
X126750Y885402D01*
Y888898D01*
X126068Y892327D01*
X124730Y895558D01*
X122787Y898465D01*
X120315Y900937D01*
X117408Y902880D01*
X114178Y904218D01*
X110748Y904900D01*
D02*
G37*
G36*
X751696Y867500D02*
X750304D01*
X749017Y866967D01*
X748033Y865982D01*
X747857Y865559D01*
X746234D01*
X746192Y865659D01*
X745207Y866644D01*
X743921Y867177D01*
X742529D01*
X741242Y866644D01*
X740258Y865659D01*
X739725Y864373D01*
Y862980D01*
X740258Y861694D01*
X741242Y860710D01*
X742529Y860177D01*
X743921D01*
X745207Y860710D01*
X746192Y861694D01*
X746367Y862118D01*
X747991D01*
X748033Y862017D01*
X749017Y861033D01*
X750304Y860500D01*
X751696D01*
X752982Y861033D01*
X753824Y861874D01*
X754023Y861899D01*
X754609Y861844D01*
X755428Y861624D01*
X755783Y860768D01*
X756767Y859783D01*
X758054Y859250D01*
X759446D01*
X760732Y859783D01*
X761717Y860768D01*
X762250Y862054D01*
Y863446D01*
X761717Y864733D01*
X760732Y865717D01*
X759446Y866250D01*
X758054D01*
X756767Y865717D01*
X755925Y864875D01*
X755727Y864850D01*
X755140Y864905D01*
X754322Y865126D01*
X753967Y865982D01*
X752982Y866967D01*
X751696Y867500D01*
D02*
G37*
G36*
X680094Y875500D02*
X677906D01*
X675884Y874662D01*
X674337Y873115D01*
X673500Y871094D01*
Y868906D01*
X674337Y866884D01*
X675884Y865337D01*
X677906Y864500D01*
X680094D01*
X682115Y865337D01*
X683663Y866884D01*
X684500Y868906D01*
Y871094D01*
X683663Y873115D01*
X682115Y874662D01*
X680094Y875500D01*
D02*
G37*
G36*
X973876Y891250D02*
X970124D01*
X966500Y890279D01*
X963250Y888403D01*
X960597Y885750D01*
X958721Y882500D01*
X957750Y878876D01*
Y875124D01*
X958721Y871500D01*
X960597Y868250D01*
X963250Y865597D01*
X966500Y863721D01*
X970124Y862750D01*
X973876D01*
X977500Y863721D01*
X980750Y865597D01*
X983403Y868250D01*
X985279Y871500D01*
X986250Y875124D01*
Y878876D01*
X985279Y882500D01*
X983403Y885750D01*
X980750Y888403D01*
X977500Y890279D01*
X973876Y891250D01*
D02*
G37*
G36*
X69138Y869600D02*
X61250D01*
Y861712D01*
X63532Y862324D01*
X65618Y863528D01*
X67322Y865232D01*
X68526Y867318D01*
X69138Y869600D01*
D02*
G37*
G36*
X58750D02*
X50862D01*
X51473Y867318D01*
X52678Y865232D01*
X54382Y863528D01*
X56468Y862324D01*
X58750Y861712D01*
Y869600D01*
D02*
G37*
G36*
X552326Y862238D02*
X550934D01*
X549647Y861705D01*
X548663Y860721D01*
X548130Y859434D01*
Y858042D01*
X548663Y856755D01*
X549647Y855771D01*
X550934Y855238D01*
X552326D01*
X553613Y855771D01*
X554597Y856755D01*
X555130Y858042D01*
Y859434D01*
X554597Y860721D01*
X553613Y861705D01*
X552326Y862238D01*
D02*
G37*
G36*
X808567Y865194D02*
X807175D01*
X805888Y864661D01*
X804904Y863677D01*
X804371Y862390D01*
Y860998D01*
X804904Y859711D01*
X805888Y858727D01*
X806367Y858529D01*
X806464Y857517D01*
X806429Y856879D01*
X805533Y855982D01*
X805000Y854696D01*
Y853304D01*
X805533Y852017D01*
X805703Y851847D01*
X806446Y850932D01*
X805703Y849887D01*
X805597Y849781D01*
X805064Y848494D01*
Y847102D01*
X805597Y845816D01*
X806581Y844831D01*
X807053Y844636D01*
X807016Y843027D01*
X806267Y842717D01*
X805283Y841732D01*
X804750Y840446D01*
Y839054D01*
X805283Y837767D01*
X806267Y836783D01*
X807554Y836250D01*
X808946D01*
X810232Y836783D01*
X811217Y837767D01*
X811750Y839054D01*
Y840446D01*
X811217Y841732D01*
X810232Y842717D01*
X809761Y842912D01*
X809798Y844521D01*
X810546Y844831D01*
X811531Y845816D01*
X812064Y847102D01*
Y848494D01*
X811531Y849781D01*
X811361Y849951D01*
X810618Y850866D01*
X811361Y851911D01*
X811467Y852017D01*
X812000Y853304D01*
Y854696D01*
X811467Y855982D01*
X810482Y856967D01*
X810003Y857165D01*
X809906Y858177D01*
X809941Y858815D01*
X810838Y859711D01*
X811371Y860998D01*
Y862390D01*
X810838Y863677D01*
X809854Y864661D01*
X808567Y865194D01*
D02*
G37*
G36*
X675075Y839392D02*
X673683D01*
X672396Y838859D01*
X671412Y837875D01*
X670879Y836588D01*
Y835196D01*
X671412Y833910D01*
X672396Y832925D01*
X673683Y832392D01*
X675075D01*
X676362Y832925D01*
X677346Y833910D01*
X677879Y835196D01*
Y836588D01*
X677346Y837875D01*
X676362Y838859D01*
X675075Y839392D01*
D02*
G37*
G36*
X973876Y841250D02*
X973250D01*
Y828250D01*
X986250D01*
Y828876D01*
X985279Y832500D01*
X983403Y835750D01*
X980750Y838403D01*
X977500Y840279D01*
X973876Y841250D01*
D02*
G37*
G36*
X970750D02*
X970124D01*
X966500Y840279D01*
X963250Y838403D01*
X960597Y835750D01*
X958721Y832500D01*
X957750Y828876D01*
Y828250D01*
X970750D01*
Y841250D01*
D02*
G37*
G36*
X611196Y837250D02*
X609804D01*
X608518Y836717D01*
X607533Y835732D01*
X607000Y834446D01*
Y833054D01*
X607533Y831767D01*
X608518Y830783D01*
X609804Y830250D01*
X610813D01*
X611670Y829489D01*
X612000Y828959D01*
Y827804D01*
X612533Y826518D01*
X613517Y825533D01*
X614804Y825000D01*
X616196D01*
X617482Y825533D01*
X618467Y826518D01*
X619000Y827804D01*
Y829196D01*
X618467Y830483D01*
X617482Y831467D01*
X616196Y832000D01*
X615187D01*
X614330Y832761D01*
X614000Y833291D01*
Y834446D01*
X613467Y835732D01*
X612483Y836717D01*
X611196Y837250D01*
D02*
G37*
G36*
X590624Y825572D02*
X589232D01*
X587946Y825039D01*
X586961Y824054D01*
X586428Y822768D01*
Y821375D01*
X586961Y820089D01*
X587946Y819104D01*
X589232Y818571D01*
X590624D01*
X591911Y819104D01*
X592895Y820089D01*
X593428Y821375D01*
Y822768D01*
X592895Y824054D01*
X591911Y825039D01*
X590624Y825572D01*
D02*
G37*
G36*
X986250Y825750D02*
X973250D01*
Y812750D01*
X973876D01*
X977500Y813721D01*
X980750Y815597D01*
X983403Y818250D01*
X985279Y821500D01*
X986250Y825124D01*
Y825750D01*
D02*
G37*
G36*
X970750D02*
X957750D01*
Y825124D01*
X958721Y821500D01*
X960597Y818250D01*
X963250Y815597D01*
X966500Y813721D01*
X970124Y812750D01*
X970750D01*
Y825750D01*
D02*
G37*
G36*
X697696Y819500D02*
X696304D01*
X695017Y818967D01*
X694033Y817982D01*
X693500Y816696D01*
Y815304D01*
X694033Y814017D01*
X695017Y813033D01*
X696304Y812500D01*
X697696D01*
X698982Y813033D01*
X699967Y814017D01*
X700500Y815304D01*
Y816696D01*
X699967Y817982D01*
X698982Y818967D01*
X697696Y819500D01*
D02*
G37*
G36*
X1073250Y806024D02*
Y798250D01*
X1081024D01*
X1080424Y800490D01*
X1079234Y802551D01*
X1077551Y804234D01*
X1075489Y805424D01*
X1073250Y806024D01*
D02*
G37*
G36*
X1070750D02*
X1068511Y805424D01*
X1066449Y804234D01*
X1064766Y802551D01*
X1063576Y800490D01*
X1062976Y798250D01*
X1070750D01*
Y806024D01*
D02*
G37*
G36*
X683196Y801000D02*
X681804D01*
X680517Y800467D01*
X679533Y799483D01*
X679000Y798196D01*
Y796804D01*
X679533Y795518D01*
X680517Y794533D01*
X681804Y794000D01*
X683196D01*
X684483Y794533D01*
X685467Y795518D01*
X686000Y796804D01*
Y798196D01*
X685467Y799483D01*
X684483Y800467D01*
X683196Y801000D01*
D02*
G37*
G36*
X460446Y796000D02*
X459054D01*
X457767Y795467D01*
X456783Y794483D01*
X456250Y793196D01*
Y791804D01*
X456783Y790517D01*
X457767Y789533D01*
X459054Y789000D01*
X460446D01*
X461733Y789533D01*
X462717Y790517D01*
X463250Y791804D01*
Y793196D01*
X462717Y794483D01*
X461733Y795467D01*
X460446Y796000D01*
D02*
G37*
G36*
X1081024Y795750D02*
X1073250D01*
Y787976D01*
X1075489Y788576D01*
X1077551Y789766D01*
X1079234Y791450D01*
X1080424Y793511D01*
X1081024Y795750D01*
D02*
G37*
G36*
X1070750D02*
X1062976D01*
X1063576Y793511D01*
X1064766Y791450D01*
X1066449Y789766D01*
X1068511Y788576D01*
X1070750Y787976D01*
Y795750D01*
D02*
G37*
G36*
X174172Y887150D02*
X170828D01*
X167598Y886284D01*
X164702Y884612D01*
X162337Y882248D01*
X160666Y879352D01*
X159800Y876122D01*
Y872778D01*
X160666Y869548D01*
X162337Y866652D01*
X164702Y864287D01*
X167598Y862615D01*
X167930Y862526D01*
Y860973D01*
X167598Y860884D01*
X164702Y859212D01*
X162337Y856848D01*
X160666Y853952D01*
X159800Y850722D01*
Y847378D01*
X160666Y844148D01*
X162337Y841252D01*
X164702Y838887D01*
X167598Y837215D01*
X167930Y837126D01*
Y835573D01*
X167598Y835484D01*
X164702Y833812D01*
X162337Y831448D01*
X160666Y828552D01*
X159800Y825322D01*
Y821978D01*
X160666Y818748D01*
X162337Y815852D01*
X164702Y813487D01*
X167598Y811815D01*
X167930Y811726D01*
Y810173D01*
X167598Y810084D01*
X164702Y808412D01*
X162337Y806048D01*
X160666Y803152D01*
X159800Y799922D01*
Y796578D01*
X160666Y793348D01*
X162337Y790452D01*
X164702Y788087D01*
X167598Y786415D01*
X170828Y785550D01*
X174172D01*
X177402Y786415D01*
X180298Y788087D01*
X182663Y790452D01*
X184335Y793348D01*
X185200Y796578D01*
Y799922D01*
X184335Y803152D01*
X182663Y806048D01*
X180298Y808412D01*
X177402Y810084D01*
X177070Y810173D01*
Y811726D01*
X177402Y811815D01*
X180298Y813487D01*
X182663Y815852D01*
X184335Y818748D01*
X185200Y821978D01*
Y825322D01*
X184335Y828552D01*
X182663Y831448D01*
X180298Y833812D01*
X177402Y835484D01*
X177070Y835573D01*
Y837126D01*
X177402Y837215D01*
X180298Y838887D01*
X182663Y841252D01*
X184335Y844148D01*
X185200Y847378D01*
Y850722D01*
X184335Y853952D01*
X182663Y856848D01*
X180298Y859212D01*
X177402Y860884D01*
X177070Y860973D01*
Y862526D01*
X177402Y862615D01*
X180298Y864287D01*
X182663Y866652D01*
X184335Y869548D01*
X185200Y872778D01*
Y876122D01*
X184335Y879352D01*
X182663Y882248D01*
X180298Y884612D01*
X177402Y886284D01*
X174172Y887150D01*
D02*
G37*
G36*
X576094Y795500D02*
X573906D01*
X571885Y794663D01*
X570337Y793115D01*
X569500Y791094D01*
Y788906D01*
X570337Y786885D01*
X571885Y785337D01*
X573906Y784500D01*
X576094D01*
X578116Y785337D01*
X579663Y786885D01*
X580500Y788906D01*
Y791094D01*
X579663Y793115D01*
X578116Y794663D01*
X576094Y795500D01*
D02*
G37*
G36*
X558594D02*
X556406D01*
X554384Y794663D01*
X552837Y793115D01*
X552000Y791094D01*
Y788906D01*
X552837Y786885D01*
X554384Y785337D01*
X556406Y784500D01*
X558594D01*
X560616Y785337D01*
X562163Y786885D01*
X563000Y788906D01*
Y791094D01*
X562163Y793115D01*
X560616Y794663D01*
X558594Y795500D01*
D02*
G37*
G36*
X541094D02*
X538906D01*
X536884Y794663D01*
X535337Y793115D01*
X534500Y791094D01*
Y788906D01*
X535337Y786885D01*
X536884Y785337D01*
X538906Y784500D01*
X541094D01*
X543115Y785337D01*
X544663Y786885D01*
X545500Y788906D01*
Y791094D01*
X544663Y793115D01*
X543115Y794663D01*
X541094Y795500D01*
D02*
G37*
G36*
X521094D02*
X518906D01*
X516884Y794663D01*
X515337Y793115D01*
X514500Y791094D01*
Y788906D01*
X515337Y786885D01*
X516884Y785337D01*
X518906Y784500D01*
X521094D01*
X523116Y785337D01*
X524663Y786885D01*
X525500Y788906D01*
Y791094D01*
X524663Y793115D01*
X523116Y794663D01*
X521094Y795500D01*
D02*
G37*
G36*
X501094D02*
X498906D01*
X496884Y794663D01*
X495337Y793115D01*
X494500Y791094D01*
Y788906D01*
X495337Y786885D01*
X496884Y785337D01*
X498906Y784500D01*
X501094D01*
X503116Y785337D01*
X504663Y786885D01*
X505500Y788906D01*
Y791094D01*
X504663Y793115D01*
X503116Y794663D01*
X501094Y795500D01*
D02*
G37*
G36*
X481094D02*
X478906D01*
X476885Y794663D01*
X475337Y793115D01*
X474500Y791094D01*
Y788906D01*
X475337Y786885D01*
X476885Y785337D01*
X478906Y784500D01*
X481094D01*
X483116Y785337D01*
X484663Y786885D01*
X485500Y788906D01*
Y791094D01*
X484663Y793115D01*
X483116Y794663D01*
X481094Y795500D01*
D02*
G37*
G36*
X61205Y798300D02*
X58795D01*
X56468Y797676D01*
X54382Y796472D01*
X52678Y794768D01*
X51473Y792682D01*
X50850Y790355D01*
Y787945D01*
X51473Y785618D01*
X52678Y783532D01*
X54382Y781828D01*
X56468Y780624D01*
X58795Y780000D01*
X61205D01*
X63532Y780624D01*
X65618Y781828D01*
X67322Y783532D01*
X68526Y785618D01*
X69150Y787945D01*
Y790355D01*
X68526Y792682D01*
X67322Y794768D01*
X65618Y796472D01*
X63532Y797676D01*
X61205Y798300D01*
D02*
G37*
G36*
X199572Y874450D02*
X196228D01*
X192998Y873584D01*
X190102Y871912D01*
X187738Y869548D01*
X186066Y866652D01*
X185200Y863422D01*
Y860078D01*
X186066Y856848D01*
X187738Y853952D01*
X190102Y851587D01*
X192998Y849915D01*
X193330Y849826D01*
Y848273D01*
X192998Y848184D01*
X190102Y846512D01*
X187738Y844148D01*
X186066Y841252D01*
X185200Y838022D01*
Y834678D01*
X186066Y831448D01*
X187738Y828552D01*
X190102Y826187D01*
X192998Y824515D01*
X193330Y824426D01*
Y822873D01*
X192998Y822784D01*
X190102Y821112D01*
X187738Y818748D01*
X186066Y815852D01*
X185200Y812622D01*
Y809278D01*
X186066Y806048D01*
X187738Y803152D01*
X190102Y800787D01*
X192998Y799115D01*
X193330Y799026D01*
Y797473D01*
X192998Y797384D01*
X190102Y795712D01*
X187738Y793348D01*
X186066Y790452D01*
X185200Y787222D01*
Y783878D01*
X186066Y780648D01*
X187738Y777752D01*
X190102Y775387D01*
X192998Y773715D01*
X196228Y772850D01*
X199572D01*
X202802Y773715D01*
X205698Y775387D01*
X208062Y777752D01*
X209734Y780648D01*
X210600Y783878D01*
Y787222D01*
X209734Y790452D01*
X208062Y793348D01*
X205698Y795712D01*
X202802Y797384D01*
X202470Y797473D01*
Y799026D01*
X202802Y799115D01*
X205698Y800787D01*
X208062Y803152D01*
X209734Y806048D01*
X210600Y809278D01*
Y812622D01*
X209734Y815852D01*
X208062Y818748D01*
X205698Y821112D01*
X202802Y822784D01*
X202470Y822873D01*
Y824426D01*
X202802Y824515D01*
X205698Y826187D01*
X208062Y828552D01*
X209734Y831448D01*
X210600Y834678D01*
Y838022D01*
X209734Y841252D01*
X208062Y844148D01*
X205698Y846512D01*
X202802Y848184D01*
X202470Y848273D01*
Y849826D01*
X202802Y849915D01*
X205698Y851587D01*
X208062Y853952D01*
X209734Y856848D01*
X210600Y860078D01*
Y863422D01*
X209734Y866652D01*
X208062Y869548D01*
X205698Y871912D01*
X202802Y873584D01*
X199572Y874450D01*
D02*
G37*
G36*
X583594Y783000D02*
X581406D01*
X579385Y782163D01*
X577838Y780616D01*
X577000Y778594D01*
Y776406D01*
X577838Y774385D01*
X579385Y772837D01*
X581406Y772000D01*
X583594D01*
X585616Y772837D01*
X587163Y774385D01*
X588000Y776406D01*
Y778594D01*
X587163Y780616D01*
X585616Y782163D01*
X583594Y783000D01*
D02*
G37*
G36*
X566094D02*
X563906D01*
X561885Y782163D01*
X560337Y780616D01*
X559500Y778594D01*
Y776406D01*
X560337Y774385D01*
X561885Y772837D01*
X563906Y772000D01*
X566094D01*
X568116Y772837D01*
X569663Y774385D01*
X570500Y776406D01*
Y778594D01*
X569663Y780616D01*
X568116Y782163D01*
X566094Y783000D01*
D02*
G37*
G36*
X548594D02*
X546406D01*
X544385Y782163D01*
X542837Y780616D01*
X542000Y778594D01*
Y776406D01*
X542837Y774385D01*
X544385Y772837D01*
X546406Y772000D01*
X548594D01*
X550616Y772837D01*
X552163Y774385D01*
X553000Y776406D01*
Y778594D01*
X552163Y780616D01*
X550616Y782163D01*
X548594Y783000D01*
D02*
G37*
G36*
X531094D02*
X528906D01*
X526884Y782163D01*
X525337Y780616D01*
X524500Y778594D01*
Y776406D01*
X525337Y774385D01*
X526884Y772837D01*
X528906Y772000D01*
X531094D01*
X533115Y772837D01*
X534663Y774385D01*
X535500Y776406D01*
Y778594D01*
X534663Y780616D01*
X533115Y782163D01*
X531094Y783000D01*
D02*
G37*
G36*
X511094D02*
X508906D01*
X506884Y782163D01*
X505337Y780616D01*
X504500Y778594D01*
Y776406D01*
X505337Y774385D01*
X506884Y772837D01*
X508906Y772000D01*
X511094D01*
X513116Y772837D01*
X514663Y774385D01*
X515500Y776406D01*
Y778594D01*
X514663Y780616D01*
X513116Y782163D01*
X511094Y783000D01*
D02*
G37*
G36*
X491094D02*
X488906D01*
X486884Y782163D01*
X485337Y780616D01*
X484500Y778594D01*
Y776406D01*
X485337Y774385D01*
X486884Y772837D01*
X488906Y772000D01*
X491094D01*
X493116Y772837D01*
X494663Y774385D01*
X495500Y776406D01*
Y778594D01*
X494663Y780616D01*
X493116Y782163D01*
X491094Y783000D01*
D02*
G37*
G36*
X173711Y782050D02*
X171289D01*
X168949Y781423D01*
X166851Y780212D01*
X165138Y778499D01*
X163927Y776401D01*
X163300Y774061D01*
Y771639D01*
X163927Y769299D01*
X165138Y767201D01*
X166851Y765488D01*
X168949Y764277D01*
X171289Y763650D01*
X173711D01*
X176051Y764277D01*
X178149Y765488D01*
X179862Y767201D01*
X181073Y769299D01*
X181700Y771639D01*
Y774061D01*
X181073Y776401D01*
X179862Y778499D01*
X178149Y780212D01*
X176051Y781423D01*
X173711Y782050D01*
D02*
G37*
G36*
X449946Y769750D02*
X448554D01*
X447267Y769217D01*
X446283Y768233D01*
X445750Y766946D01*
Y765554D01*
X446283Y764267D01*
X447267Y763283D01*
X448554Y762750D01*
X449946D01*
X451233Y763283D01*
X452217Y764267D01*
X452750Y765554D01*
Y766946D01*
X452217Y768233D01*
X451233Y769217D01*
X449946Y769750D01*
D02*
G37*
G36*
X110748Y790600D02*
X107252D01*
X103823Y789918D01*
X100592Y788580D01*
X97685Y786637D01*
X95213Y784165D01*
X93270Y781258D01*
X91932Y778027D01*
X91250Y774598D01*
Y771102D01*
X91932Y767672D01*
X93270Y764442D01*
X95213Y761535D01*
X97685Y759062D01*
X100592Y757120D01*
X103823Y755782D01*
X107252Y755100D01*
X110748D01*
X114178Y755782D01*
X117408Y757120D01*
X120315Y759062D01*
X122787Y761535D01*
X124730Y764442D01*
X126068Y767672D01*
X126750Y771102D01*
Y774598D01*
X126068Y778027D01*
X124730Y781258D01*
X122787Y784165D01*
X120315Y786637D01*
X117408Y788580D01*
X114178Y789918D01*
X110748Y790600D01*
D02*
G37*
G36*
X61205Y772900D02*
X58795D01*
X56468Y772277D01*
X54382Y771072D01*
X52678Y769368D01*
X51473Y767282D01*
X50850Y764955D01*
Y762545D01*
X51473Y760218D01*
X52678Y758132D01*
X54382Y756428D01*
X56468Y755224D01*
X58795Y754600D01*
X61205D01*
X63532Y755224D01*
X65618Y756428D01*
X67322Y758132D01*
X68526Y760218D01*
X69150Y762545D01*
Y764955D01*
X68526Y767282D01*
X67322Y769368D01*
X65618Y771072D01*
X63532Y772277D01*
X61205Y772900D01*
D02*
G37*
G36*
X141307Y763225D02*
X140750D01*
Y750750D01*
X153225D01*
Y751307D01*
X152289Y754798D01*
X150483Y757927D01*
X147927Y760483D01*
X144797Y762290D01*
X141307Y763225D01*
D02*
G37*
G36*
X138250D02*
X137693D01*
X134202Y762290D01*
X131073Y760483D01*
X128517Y757927D01*
X126710Y754798D01*
X125775Y751307D01*
Y750750D01*
X138250D01*
Y763225D01*
D02*
G37*
G36*
X263594Y745500D02*
X261406D01*
X259384Y744663D01*
X258480Y743758D01*
X257500Y743280D01*
X256520Y743758D01*
X255615Y744663D01*
X253594Y745500D01*
X251406D01*
X249384Y744663D01*
X248480Y743758D01*
X247500Y743280D01*
X246520Y743758D01*
X245615Y744663D01*
X243594Y745500D01*
X241406D01*
X239384Y744663D01*
X238480Y743758D01*
X237500Y743280D01*
X236520Y743758D01*
X235615Y744663D01*
X233594Y745500D01*
X231406D01*
X229384Y744663D01*
X227837Y743115D01*
X227000Y741094D01*
Y738906D01*
X227837Y736885D01*
X228742Y735980D01*
X229220Y735000D01*
X228742Y734020D01*
X227837Y733116D01*
X227000Y731094D01*
Y728906D01*
X227837Y726885D01*
X229384Y725337D01*
X231406Y724500D01*
X233594D01*
X235615Y725337D01*
X236520Y726242D01*
X237500Y726720D01*
X238480Y726242D01*
X238742Y725980D01*
X239220Y725000D01*
X238742Y724020D01*
X237837Y723116D01*
X237000Y721094D01*
Y718906D01*
X237837Y716885D01*
X239384Y715337D01*
X241406Y714500D01*
X243594D01*
X245615Y715337D01*
X246520Y716242D01*
X247500Y716720D01*
X248480Y716242D01*
X249384Y715337D01*
X251406Y714500D01*
X253594D01*
X255615Y715337D01*
X256520Y716242D01*
X257500Y716720D01*
X258480Y716242D01*
X259384Y715337D01*
X261406Y714500D01*
X263594D01*
X265615Y715337D01*
X267162Y716885D01*
X268000Y718906D01*
Y721094D01*
X267162Y723116D01*
X266258Y724020D01*
X265780Y725000D01*
X266258Y725980D01*
X267162Y726885D01*
X268000Y728906D01*
Y731094D01*
X267162Y733116D01*
X266258Y734020D01*
X265780Y735000D01*
X266258Y735980D01*
X267162Y736885D01*
X268000Y738906D01*
Y741094D01*
X267162Y743115D01*
X265615Y744663D01*
X263594Y745500D01*
D02*
G37*
G36*
X153225Y748250D02*
X140750D01*
Y735775D01*
X141307D01*
X144797Y736711D01*
X147927Y738517D01*
X150483Y741073D01*
X152289Y744202D01*
X153225Y747693D01*
Y748250D01*
D02*
G37*
G36*
X138250D02*
X125775D01*
Y747693D01*
X126710Y744202D01*
X128517Y741073D01*
X131073Y738517D01*
X134202Y736711D01*
X137693Y735775D01*
X138250D01*
Y748250D01*
D02*
G37*
G36*
X216344Y737250D02*
X214156D01*
X212134Y736413D01*
X211105Y735383D01*
X210401Y734930D01*
X209168Y735360D01*
X208365Y736163D01*
X206344Y737000D01*
X204156D01*
X202134Y736163D01*
X200587Y734616D01*
X199750Y732594D01*
Y730406D01*
X200587Y728385D01*
X202134Y726837D01*
X204156Y726000D01*
X204440D01*
X205273Y724753D01*
X205000Y724094D01*
Y721906D01*
X205837Y719884D01*
X207384Y718337D01*
X209406Y717500D01*
X211594D01*
X213615Y718337D01*
X214645Y719367D01*
X215348Y719820D01*
X216581Y719390D01*
X217384Y718587D01*
X219406Y717750D01*
X221594D01*
X223615Y718587D01*
X225163Y720134D01*
X226000Y722156D01*
Y724344D01*
X225163Y726365D01*
X223615Y727912D01*
X221594Y728750D01*
X221310D01*
X220477Y729997D01*
X220750Y730656D01*
Y732844D01*
X219912Y734866D01*
X218365Y736413D01*
X216344Y737250D01*
D02*
G37*
G36*
X41446Y723196D02*
X40054D01*
X38767Y722663D01*
X37783Y721679D01*
X37250Y720392D01*
Y719000D01*
X37783Y717713D01*
X38767Y716729D01*
X40054Y716196D01*
X41446D01*
X42733Y716729D01*
X43717Y717713D01*
X44250Y719000D01*
Y720392D01*
X43717Y721679D01*
X42733Y722663D01*
X41446Y723196D01*
D02*
G37*
G36*
X88446Y718250D02*
X87054D01*
X85767Y717717D01*
X84783Y716732D01*
X84250Y715446D01*
Y714054D01*
X84783Y712767D01*
X85767Y711783D01*
X87054Y711250D01*
X88446D01*
X89733Y711783D01*
X90717Y712767D01*
X91250Y714054D01*
Y715446D01*
X90717Y716732D01*
X89733Y717717D01*
X88446Y718250D01*
D02*
G37*
G36*
X44946Y714750D02*
X43554D01*
X42267Y714217D01*
X41283Y713232D01*
X40750Y711946D01*
Y710554D01*
X41283Y709267D01*
X42050Y708500D01*
X41283Y707733D01*
X40750Y706446D01*
Y705054D01*
X41283Y703768D01*
X42267Y702783D01*
X41658Y701433D01*
X41172Y701634D01*
X39780Y701634D01*
X38493Y701101D01*
X37509Y700117D01*
X36976Y698830D01*
Y697438D01*
X37509Y696151D01*
X38355Y695305D01*
X37533Y694483D01*
X37000Y693196D01*
Y691804D01*
X37533Y690517D01*
X38517Y689533D01*
X39804Y689000D01*
X41196D01*
X42483Y689533D01*
X43467Y690517D01*
X44000Y691804D01*
Y693196D01*
X43467Y694483D01*
X42621Y695329D01*
X43443Y696151D01*
X43976Y697438D01*
Y698830D01*
X43443Y700117D01*
X42459Y701101D01*
X43068Y702451D01*
X43554Y702250D01*
X44946Y702250D01*
X46232Y702783D01*
X47217Y703768D01*
X47750Y705054D01*
Y706446D01*
X47217Y707733D01*
X46450Y708500D01*
X47217Y709267D01*
X47750Y710554D01*
Y711946D01*
X47217Y713232D01*
X46232Y714217D01*
X44946Y714750D01*
D02*
G37*
G36*
X991926Y731800D02*
X988873D01*
X985879Y731204D01*
X983058Y730036D01*
X980519Y728339D01*
X978360Y726180D01*
X976664Y723642D01*
X975496Y720821D01*
X974900Y717826D01*
Y714773D01*
X975496Y711779D01*
X976664Y708958D01*
X978360Y706419D01*
X980519Y704260D01*
X983058Y702564D01*
X985879Y701395D01*
X988873Y700800D01*
X991926D01*
X994921Y701395D01*
X997742Y702564D01*
X1000281Y704260D01*
X1002439Y706419D01*
X1004136Y708958D01*
X1005304Y711779D01*
X1005900Y714773D01*
Y717826D01*
X1005304Y720821D01*
X1004136Y723642D01*
X1002439Y726180D01*
X1000281Y728339D01*
X997742Y730036D01*
X994921Y731204D01*
X991926Y731800D01*
D02*
G37*
G36*
X918142Y699409D02*
X916750D01*
X915463Y698876D01*
X914479Y697892D01*
X913946Y696605D01*
Y695213D01*
X914479Y693927D01*
X915463Y692942D01*
X916750Y692409D01*
X918142D01*
X919429Y692942D01*
X920413Y693927D01*
X920946Y695213D01*
Y696605D01*
X920413Y697892D01*
X919429Y698876D01*
X918142Y699409D01*
D02*
G37*
G36*
X908196Y698500D02*
X906804D01*
X905517Y697967D01*
X904533Y696982D01*
X904000Y695696D01*
Y694304D01*
X904533Y693017D01*
X905517Y692033D01*
X906804Y691500D01*
X908196D01*
X909482Y692033D01*
X910467Y693017D01*
X911000Y694304D01*
Y695696D01*
X910467Y696982D01*
X909482Y697967D01*
X908196Y698500D01*
D02*
G37*
G36*
X260696D02*
X259304D01*
X258017Y697967D01*
X257033Y696982D01*
X256500Y695696D01*
Y694304D01*
X257033Y693017D01*
X258017Y692033D01*
X259304Y691500D01*
X260696D01*
X261983Y692033D01*
X262967Y693017D01*
X263500Y694304D01*
Y695696D01*
X262967Y696982D01*
X261983Y697967D01*
X260696Y698500D01*
D02*
G37*
G36*
X139446Y693000D02*
X138054D01*
X136767Y692467D01*
X135783Y691483D01*
X135250Y690196D01*
Y688804D01*
X135783Y687517D01*
X136767Y686533D01*
X138054Y686000D01*
X139446D01*
X140733Y686533D01*
X141717Y687517D01*
X142250Y688804D01*
Y690196D01*
X141717Y691483D01*
X140733Y692467D01*
X139446Y693000D01*
D02*
G37*
G36*
X656196Y685000D02*
X654804D01*
X653517Y684467D01*
X652533Y683482D01*
X652000Y682196D01*
Y680804D01*
X652533Y679517D01*
X653517Y678533D01*
X654804Y678000D01*
X656196D01*
X657482Y678533D01*
X658467Y679517D01*
X659000Y680804D01*
Y682196D01*
X658467Y683482D01*
X657482Y684467D01*
X656196Y685000D01*
D02*
G37*
G36*
X163450Y686793D02*
X162057D01*
X160771Y686260D01*
X159786Y685276D01*
X159254Y683989D01*
Y682753D01*
X158326D01*
X157039Y682220D01*
X156055Y681236D01*
X155522Y679949D01*
Y678557D01*
X156055Y677270D01*
X157039Y676286D01*
X158326Y675753D01*
X159718D01*
X161004Y676286D01*
X161989Y677270D01*
X162522Y678557D01*
Y679793D01*
X163450D01*
X164736Y680326D01*
X165721Y681311D01*
X166254Y682597D01*
Y683989D01*
X165721Y685276D01*
X164736Y686260D01*
X163450Y686793D01*
D02*
G37*
G36*
X914883Y675250D02*
X914850D01*
Y666750D01*
X923350D01*
Y666783D01*
X922685Y669263D01*
X921402Y671486D01*
X919586Y673302D01*
X917363Y674585D01*
X914883Y675250D01*
D02*
G37*
G36*
X912350D02*
X912316D01*
X909837Y674585D01*
X907613Y673302D01*
X905798Y671486D01*
X904514Y669263D01*
X903850Y666783D01*
Y666750D01*
X912350D01*
Y675250D01*
D02*
G37*
G36*
X96196Y668500D02*
X94804D01*
X93517Y667967D01*
X92533Y666983D01*
X92000Y665696D01*
Y664304D01*
X92533Y663017D01*
X93517Y662033D01*
X94804Y661500D01*
X96196D01*
X97483Y662033D01*
X98467Y663017D01*
X99000Y664304D01*
Y665696D01*
X98467Y666983D01*
X97483Y667967D01*
X96196Y668500D01*
D02*
G37*
G36*
X629696Y667000D02*
X628304D01*
X627017Y666467D01*
X626033Y665482D01*
X625500Y664196D01*
Y662804D01*
X626033Y661517D01*
X627017Y660533D01*
X628304Y660000D01*
X629696D01*
X630983Y660533D01*
X631967Y661517D01*
X632500Y662804D01*
Y664196D01*
X631967Y665482D01*
X630983Y666467D01*
X629696Y667000D01*
D02*
G37*
G36*
X373594Y660500D02*
X371406D01*
X369385Y659663D01*
X368750Y659028D01*
X368116Y659663D01*
X366094Y660500D01*
X363906D01*
X361884Y659663D01*
X360337Y658115D01*
X359500Y656094D01*
Y653906D01*
X360337Y651885D01*
X361242Y650980D01*
X361720Y650000D01*
X361242Y649020D01*
X360337Y648115D01*
X359500Y646094D01*
Y643906D01*
X360337Y641885D01*
X361884Y640337D01*
X363906Y639500D01*
X366094D01*
X368116Y640337D01*
X368750Y640972D01*
X369385Y640337D01*
X371406Y639500D01*
X373594D01*
X375616Y640337D01*
X377163Y641885D01*
X378000Y643906D01*
Y646094D01*
X377163Y648115D01*
X376258Y649020D01*
X375780Y650000D01*
X376258Y650980D01*
X377163Y651885D01*
X378000Y653906D01*
Y656094D01*
X377163Y658115D01*
X375616Y659663D01*
X373594Y660500D01*
D02*
G37*
G36*
X974150Y675250D02*
X954650D01*
Y655750D01*
X974150D01*
Y675250D01*
D02*
G37*
G36*
X923350Y664250D02*
X914850D01*
Y655750D01*
X914883D01*
X917363Y656414D01*
X919586Y657698D01*
X921402Y659513D01*
X922685Y661736D01*
X923350Y664216D01*
Y664250D01*
D02*
G37*
G36*
X912350D02*
X903850D01*
Y664216D01*
X904514Y661736D01*
X905798Y659513D01*
X907613Y657698D01*
X909837Y656414D01*
X912316Y655750D01*
X912350D01*
Y664250D01*
D02*
G37*
G36*
X119781Y663280D02*
X116219D01*
X112726Y662585D01*
X109436Y661222D01*
X109204Y661067D01*
X110621Y659650D01*
X103550Y652579D01*
X102133Y653996D01*
X101978Y653764D01*
X100615Y650474D01*
X99920Y646981D01*
Y643419D01*
X100615Y639926D01*
X101978Y636636D01*
X102133Y636404D01*
X103550Y637822D01*
X110621Y630751D01*
X109204Y629333D01*
X109436Y629178D01*
X112726Y627815D01*
X116219Y627120D01*
X119781D01*
X123273Y627815D01*
X126564Y629178D01*
X126796Y629333D01*
X125378Y630751D01*
X132449Y637822D01*
X133867Y636404D01*
X134022Y636636D01*
X135385Y639926D01*
X136080Y643419D01*
Y646981D01*
X135385Y650474D01*
X134022Y653764D01*
X133867Y653996D01*
X132449Y652579D01*
X125378Y659650D01*
X126796Y661067D01*
X126564Y661222D01*
X123273Y662585D01*
X119781Y663280D01*
D02*
G37*
G36*
X766094Y656500D02*
X763906D01*
X761885Y655663D01*
X760337Y654116D01*
X759500Y652094D01*
Y649906D01*
X760337Y647885D01*
X761885Y646337D01*
X763906Y645500D01*
X766094D01*
X768115Y646337D01*
X769663Y647885D01*
X770500Y649906D01*
Y652094D01*
X769663Y654116D01*
X768115Y655663D01*
X766094Y656500D01*
D02*
G37*
G36*
X669946Y649000D02*
X668554D01*
X667267Y648467D01*
X666283Y647482D01*
X665750Y646196D01*
Y644804D01*
X666283Y643517D01*
X667267Y642533D01*
X668554Y642000D01*
X669946D01*
X671233Y642533D01*
X672217Y643517D01*
X672750Y644804D01*
Y646196D01*
X672217Y647482D01*
X671233Y648467D01*
X669946Y649000D01*
D02*
G37*
G36*
X170566Y652620D02*
X169174D01*
X167887Y652087D01*
X166903Y651102D01*
X166370Y649816D01*
Y648761D01*
X165254D01*
X163968Y648228D01*
X162983Y647244D01*
X162450Y645957D01*
Y644565D01*
X162983Y643279D01*
X163968Y642294D01*
X165254Y641761D01*
X166647D01*
X167933Y642294D01*
X168918Y643279D01*
X169450Y644565D01*
Y645620D01*
X170566D01*
X171852Y646153D01*
X172837Y647137D01*
X173370Y648424D01*
Y649816D01*
X172837Y651102D01*
X171852Y652087D01*
X170566Y652620D01*
D02*
G37*
G36*
X914883Y649850D02*
X914850D01*
Y641350D01*
X923350D01*
Y641383D01*
X922685Y643863D01*
X921402Y646086D01*
X919586Y647902D01*
X917363Y649185D01*
X914883Y649850D01*
D02*
G37*
G36*
X912350D02*
X912316D01*
X909837Y649185D01*
X907613Y647902D01*
X905798Y646086D01*
X904514Y643863D01*
X903850Y641383D01*
Y641350D01*
X912350D01*
Y649850D01*
D02*
G37*
G36*
X965684D02*
X963116D01*
X960637Y649185D01*
X958413Y647902D01*
X956598Y646086D01*
X955314Y643863D01*
X954650Y641383D01*
Y638816D01*
X955314Y636336D01*
X956598Y634113D01*
X958413Y632298D01*
X960637Y631014D01*
X963116Y630350D01*
X965684D01*
X968163Y631014D01*
X970387Y632298D01*
X972202Y634113D01*
X973485Y636336D01*
X974150Y638816D01*
Y641383D01*
X973485Y643863D01*
X972202Y646086D01*
X970387Y647902D01*
X968163Y649185D01*
X965684Y649850D01*
D02*
G37*
G36*
X923350Y638850D02*
X914850D01*
Y630350D01*
X914883D01*
X917363Y631014D01*
X919586Y632298D01*
X921402Y634113D01*
X922685Y636336D01*
X923350Y638816D01*
Y638850D01*
D02*
G37*
G36*
X912350D02*
X903850D01*
Y638816D01*
X904514Y636336D01*
X905798Y634113D01*
X907613Y632298D01*
X909837Y631014D01*
X912316Y630350D01*
X912350D01*
Y638850D01*
D02*
G37*
G36*
X758696Y627500D02*
X757304D01*
X756017Y626967D01*
X755033Y625983D01*
X754500Y624696D01*
Y623304D01*
X755033Y622017D01*
X756017Y621033D01*
X757304Y620500D01*
X758696D01*
X759983Y621033D01*
X760967Y622017D01*
X761500Y623304D01*
Y624696D01*
X760967Y625983D01*
X759983Y626967D01*
X758696Y627500D01*
D02*
G37*
G36*
X692446Y626000D02*
X691054D01*
X689768Y625467D01*
X688783Y624483D01*
X688250Y623196D01*
Y621804D01*
X688783Y620518D01*
X689768Y619533D01*
X691054Y619000D01*
X692446D01*
X693733Y619533D01*
X694717Y620518D01*
X695250Y621804D01*
Y623196D01*
X694717Y624483D01*
X693733Y625467D01*
X692446Y626000D01*
D02*
G37*
G36*
X398594Y620500D02*
X396406D01*
X394384Y619663D01*
X393480Y618758D01*
X392500Y618280D01*
X391520Y618758D01*
X390615Y619663D01*
X388594Y620500D01*
X386406D01*
X384384Y619663D01*
X383480Y618758D01*
X382500Y618280D01*
X381520Y618758D01*
X380615Y619663D01*
X378594Y620500D01*
X376406D01*
X374384Y619663D01*
X373480Y618758D01*
X372500Y618280D01*
X371520Y618758D01*
X370615Y619663D01*
X368594Y620500D01*
X366406D01*
X364384Y619663D01*
X362837Y618116D01*
X362000Y616094D01*
Y613906D01*
X362837Y611885D01*
X363742Y610980D01*
X364220Y610000D01*
X363742Y609020D01*
X362837Y608116D01*
X362000Y606094D01*
Y603906D01*
X362837Y601885D01*
X363742Y600980D01*
X364220Y600000D01*
X363742Y599020D01*
X362837Y598116D01*
X362000Y596094D01*
Y593906D01*
X362837Y591885D01*
X364384Y590337D01*
X366406Y589500D01*
X368594D01*
X370615Y590337D01*
X371520Y591242D01*
X372500Y591720D01*
X373480Y591242D01*
X374384Y590337D01*
X376406Y589500D01*
X378594D01*
X380615Y590337D01*
X381520Y591242D01*
X382500Y591720D01*
X383480Y591242D01*
X384384Y590337D01*
X386406Y589500D01*
X388594D01*
X390615Y590337D01*
X391520Y591242D01*
X392500Y591720D01*
X393480Y591242D01*
X394384Y590337D01*
X396406Y589500D01*
X398594D01*
X400615Y590337D01*
X402163Y591885D01*
X403000Y593906D01*
Y596094D01*
X402163Y598116D01*
X401258Y599020D01*
X400780Y600000D01*
X401258Y600980D01*
X402163Y601885D01*
X403000Y603906D01*
Y606094D01*
X402163Y608116D01*
X401258Y609020D01*
X400780Y610000D01*
X401258Y610980D01*
X402163Y611885D01*
X403000Y613906D01*
Y616094D01*
X402163Y618116D01*
X400615Y619663D01*
X398594Y620500D01*
D02*
G37*
G36*
X783071Y624875D02*
X781679D01*
X780392Y624342D01*
X779408Y623358D01*
X778875Y622071D01*
Y620679D01*
X779408Y619392D01*
X780392Y618408D01*
X781679Y617875D01*
X783071D01*
X784358Y618408D01*
X785342Y619392D01*
X785875Y620679D01*
Y622071D01*
X785342Y623358D01*
X784358Y624342D01*
X783071Y624875D01*
D02*
G37*
G36*
X914883Y624450D02*
X914850D01*
Y615950D01*
X923350D01*
Y615983D01*
X922685Y618463D01*
X921402Y620686D01*
X919586Y622502D01*
X917363Y623785D01*
X914883Y624450D01*
D02*
G37*
G36*
X912350D02*
X912316D01*
X909837Y623785D01*
X907613Y622502D01*
X905798Y620686D01*
X904514Y618463D01*
X903850Y615983D01*
Y615950D01*
X912350D01*
Y624450D01*
D02*
G37*
G36*
X480696Y617250D02*
X479304D01*
X478017Y616717D01*
X477033Y615733D01*
X476500Y614446D01*
Y613054D01*
X477033Y611767D01*
X478017Y610783D01*
X479304Y610250D01*
X480696D01*
X481983Y610783D01*
X482967Y611767D01*
X483500Y613054D01*
Y614446D01*
X482967Y615733D01*
X481983Y616717D01*
X480696Y617250D01*
D02*
G37*
G36*
X843696Y615500D02*
X842304D01*
X841017Y614967D01*
X840033Y613983D01*
X839500Y612696D01*
Y611304D01*
X840033Y610017D01*
X841017Y609033D01*
X842304Y608500D01*
X843696D01*
X844983Y609033D01*
X845967Y610017D01*
X846500Y611304D01*
Y612696D01*
X845967Y613983D01*
X844983Y614967D01*
X843696Y615500D01*
D02*
G37*
G36*
X133993Y622040D02*
X132007D01*
X130090Y621526D01*
X128370Y620534D01*
X126966Y619130D01*
X125974Y617411D01*
X125460Y615493D01*
Y613507D01*
X125974Y611590D01*
X126966Y609870D01*
X128370Y608467D01*
X130090Y607474D01*
X132007Y606960D01*
X133993D01*
X135910Y607474D01*
X137630Y608467D01*
X139033Y609870D01*
X140026Y611590D01*
X140540Y613507D01*
Y615493D01*
X140026Y617411D01*
X139033Y619130D01*
X137630Y620534D01*
X135910Y621526D01*
X133993Y622040D01*
D02*
G37*
G36*
X965684Y624450D02*
X963116D01*
X960637Y623785D01*
X958413Y622502D01*
X956598Y620686D01*
X955314Y618463D01*
X954650Y615983D01*
Y613416D01*
X955314Y610936D01*
X956598Y608713D01*
X958413Y606898D01*
X960637Y605614D01*
X963116Y604950D01*
X965684D01*
X968163Y605614D01*
X970387Y606898D01*
X972202Y608713D01*
X973485Y610936D01*
X974150Y613416D01*
Y615983D01*
X973485Y618463D01*
X972202Y620686D01*
X970387Y622502D01*
X968163Y623785D01*
X965684Y624450D01*
D02*
G37*
G36*
X923350Y613450D02*
X914850D01*
Y604950D01*
X914883D01*
X917363Y605614D01*
X919586Y606898D01*
X921402Y608713D01*
X922685Y610936D01*
X923350Y613416D01*
Y613450D01*
D02*
G37*
G36*
X912350D02*
X903850D01*
Y613416D01*
X904514Y610936D01*
X905798Y608713D01*
X907613Y606898D01*
X909837Y605614D01*
X912316Y604950D01*
X912350D01*
Y613450D01*
D02*
G37*
G36*
X454196Y610750D02*
X452804D01*
X451517Y610217D01*
X450533Y609233D01*
X450000Y607946D01*
Y606554D01*
X450533Y605267D01*
X451517Y604283D01*
X452804Y603750D01*
X454196D01*
X455483Y604283D01*
X456467Y605267D01*
X457000Y606554D01*
Y607946D01*
X456467Y609233D01*
X455483Y610217D01*
X454196Y610750D01*
D02*
G37*
G36*
X687196Y614750D02*
X685804D01*
X684517Y614217D01*
X683533Y613233D01*
X683000Y611946D01*
Y610554D01*
X683533Y609267D01*
X684517Y608283D01*
X685804Y607750D01*
X686179D01*
X686800Y606250D01*
X686283Y605732D01*
X685750Y604446D01*
Y603054D01*
X686283Y601767D01*
X687267Y600783D01*
X688554Y600250D01*
X689946D01*
X691232Y600783D01*
X692037Y601587D01*
X692248Y601767D01*
X693833Y601750D01*
X694079Y601505D01*
X695365Y600972D01*
X696758D01*
X698044Y601505D01*
X699029Y602489D01*
X699562Y603776D01*
Y605168D01*
X699029Y606454D01*
X698044Y607439D01*
X696758Y607972D01*
X695365D01*
X694079Y607439D01*
X693275Y606635D01*
X693064Y606455D01*
X691478Y606471D01*
X691232Y606717D01*
X689946Y607250D01*
X689571D01*
X688950Y608750D01*
X689467Y609267D01*
X690000Y610554D01*
Y611946D01*
X689467Y613233D01*
X688483Y614217D01*
X687196Y614750D01*
D02*
G37*
G36*
X154453Y630540D02*
X151546D01*
X148739Y629787D01*
X146221Y628334D01*
X144166Y626279D01*
X142712Y623761D01*
X141960Y620953D01*
Y618046D01*
X142712Y615239D01*
X144166Y612721D01*
X146221Y610666D01*
X146941Y610250D01*
Y608750D01*
X146221Y608334D01*
X144166Y606279D01*
X142712Y603761D01*
X141960Y600953D01*
Y598274D01*
X141405Y597866D01*
X140532Y597581D01*
X139779Y598334D01*
X137261Y599788D01*
X134453Y600540D01*
X131546D01*
X128739Y599788D01*
X126221Y598334D01*
X124166Y596279D01*
X122712Y593761D01*
X121960Y590953D01*
Y588046D01*
X122712Y585239D01*
X124166Y582721D01*
X126221Y580666D01*
X126941Y580250D01*
Y578750D01*
X126221Y578334D01*
X124166Y576279D01*
X122712Y573761D01*
X121960Y570953D01*
Y568047D01*
X122712Y565239D01*
X124166Y562721D01*
X126221Y560666D01*
X128739Y559212D01*
X131546Y558460D01*
X134453D01*
X137261Y559212D01*
X139779Y560666D01*
X140532Y561419D01*
X141405Y561134D01*
X141960Y560726D01*
Y558047D01*
X142712Y555239D01*
X144166Y552721D01*
X146221Y550666D01*
X146941Y550250D01*
Y548750D01*
X146221Y548334D01*
X144166Y546279D01*
X142712Y543761D01*
X141960Y540953D01*
Y538047D01*
X142712Y535239D01*
X144166Y532721D01*
X146221Y530666D01*
X148739Y529212D01*
X151546Y528460D01*
X154453D01*
X157261Y529212D01*
X159779Y530666D01*
X161834Y532721D01*
X163288Y535239D01*
X164040Y538047D01*
Y540953D01*
X163288Y543761D01*
X161834Y546279D01*
X159779Y548334D01*
X159059Y548750D01*
Y550250D01*
X159779Y550666D01*
X161834Y552721D01*
X163288Y555239D01*
X164040Y558047D01*
Y560953D01*
X163288Y563761D01*
X161834Y566279D01*
X159779Y568334D01*
X157261Y569788D01*
X154453Y570540D01*
X154291Y572040D01*
X155910Y572474D01*
X157630Y573466D01*
X159033Y574870D01*
X160026Y576590D01*
X160471Y578250D01*
X153000D01*
Y580750D01*
X160471D01*
X160026Y582410D01*
X159033Y584130D01*
X157630Y585533D01*
X155910Y586526D01*
X154291Y586960D01*
X154453Y588460D01*
X157261Y589212D01*
X159779Y590666D01*
X161834Y592721D01*
X163288Y595239D01*
X164040Y598046D01*
Y600953D01*
X163288Y603761D01*
X161834Y606279D01*
X159779Y608334D01*
X159059Y608750D01*
Y610250D01*
X159779Y610666D01*
X161834Y612721D01*
X163288Y615239D01*
X164040Y618046D01*
Y620953D01*
X163288Y623761D01*
X161834Y626279D01*
X159779Y628334D01*
X157261Y629787D01*
X154453Y630540D01*
D02*
G37*
G36*
X782696Y601500D02*
X781304D01*
X780017Y600967D01*
X779033Y599982D01*
X778500Y598696D01*
Y597304D01*
X779033Y596017D01*
X780017Y595033D01*
X781304Y594500D01*
X782696D01*
X783983Y595033D01*
X784967Y596017D01*
X785500Y597304D01*
Y598696D01*
X784967Y599982D01*
X783983Y600967D01*
X782696Y601500D01*
D02*
G37*
G36*
X232446Y604500D02*
X231054D01*
X229767Y603967D01*
X228783Y602983D01*
X228250Y601696D01*
Y600304D01*
X228783Y599017D01*
X229767Y598033D01*
X231054Y597500D01*
X232171D01*
Y596397D01*
X232704Y595111D01*
X233688Y594126D01*
X234975Y593594D01*
X236367D01*
X237653Y594126D01*
X238638Y595111D01*
X239171Y596397D01*
Y597790D01*
X238638Y599076D01*
X237653Y600061D01*
X236367Y600593D01*
X235250D01*
Y601696D01*
X234717Y602983D01*
X233733Y603967D01*
X232446Y604500D01*
D02*
G37*
G36*
X848405Y599411D02*
X847013D01*
X845726Y598878D01*
X844742Y597893D01*
X844209Y596607D01*
Y595215D01*
X844742Y593928D01*
X845726Y592944D01*
X847013Y592411D01*
X848405D01*
X849692Y592944D01*
X850676Y593928D01*
X851209Y595215D01*
Y596607D01*
X850676Y597893D01*
X849692Y598878D01*
X848405Y599411D01*
D02*
G37*
G36*
X914883Y599050D02*
X914850D01*
Y590550D01*
X923350D01*
Y590583D01*
X922685Y593063D01*
X921402Y595286D01*
X919586Y597102D01*
X917363Y598385D01*
X914883Y599050D01*
D02*
G37*
G36*
X912350D02*
X912316D01*
X909837Y598385D01*
X907613Y597102D01*
X905798Y595286D01*
X904514Y593063D01*
X903850Y590583D01*
Y590550D01*
X912350D01*
Y599050D01*
D02*
G37*
G36*
X757697Y589750D02*
X756304D01*
X755018Y589217D01*
X754033Y588232D01*
X753500Y586946D01*
Y585554D01*
X754033Y584267D01*
X755018Y583283D01*
X756304Y582750D01*
X757697D01*
X758983Y583283D01*
X759967Y584267D01*
X760500Y585554D01*
Y586946D01*
X759967Y588232D01*
X758983Y589217D01*
X757697Y589750D01*
D02*
G37*
G36*
X965684Y599050D02*
X963116D01*
X960637Y598385D01*
X958413Y597102D01*
X956598Y595286D01*
X955314Y593063D01*
X954650Y590583D01*
Y588016D01*
X955314Y585536D01*
X956598Y583313D01*
X958413Y581498D01*
X960637Y580214D01*
X963116Y579550D01*
X965684D01*
X968163Y580214D01*
X970387Y581498D01*
X972202Y583313D01*
X973485Y585536D01*
X974150Y588016D01*
Y590583D01*
X973485Y593063D01*
X972202Y595286D01*
X970387Y597102D01*
X968163Y598385D01*
X965684Y599050D01*
D02*
G37*
G36*
X923350Y588050D02*
X914850D01*
Y579550D01*
X914883D01*
X917363Y580214D01*
X919586Y581498D01*
X921402Y583313D01*
X922685Y585536D01*
X923350Y588016D01*
Y588050D01*
D02*
G37*
G36*
X912350D02*
X903850D01*
Y588016D01*
X904514Y585536D01*
X905798Y583313D01*
X907613Y581498D01*
X909837Y580214D01*
X912316Y579550D01*
X912350D01*
Y588050D01*
D02*
G37*
G36*
X914883Y573650D02*
X914850D01*
Y565150D01*
X923350D01*
Y565183D01*
X922685Y567663D01*
X921402Y569886D01*
X919586Y571702D01*
X917363Y572985D01*
X914883Y573650D01*
D02*
G37*
G36*
X912350D02*
X912316D01*
X909837Y572985D01*
X907613Y571702D01*
X905798Y569886D01*
X904514Y567663D01*
X903850Y565183D01*
Y565150D01*
X912350D01*
Y573650D01*
D02*
G37*
G36*
X696094Y575500D02*
X693906D01*
X691884Y574663D01*
X690337Y573115D01*
X689500Y571094D01*
Y568906D01*
X690337Y566884D01*
X691884Y565337D01*
X693906Y564500D01*
X696094D01*
X698115Y565337D01*
X698860Y566082D01*
X698940Y566162D01*
X700212Y565312D01*
X700143Y565146D01*
X699500Y563594D01*
Y561406D01*
X700337Y559384D01*
X701884Y557837D01*
X703906Y557000D01*
X706094D01*
X708115Y557837D01*
X709662Y559384D01*
X710500Y561406D01*
Y563594D01*
X709662Y565615D01*
X708115Y567162D01*
X706094Y568000D01*
X703906D01*
X701884Y567162D01*
X701140Y566418D01*
X701060Y566338D01*
X699788Y567187D01*
X699857Y567353D01*
X700500Y568906D01*
Y571094D01*
X699662Y573115D01*
X698115Y574663D01*
X696094Y575500D01*
D02*
G37*
G36*
X318196Y556000D02*
X316804D01*
X315517Y555467D01*
X315000Y554950D01*
X314483Y555467D01*
X313196Y556000D01*
X311804D01*
X310517Y555467D01*
X309533Y554483D01*
X309000Y553196D01*
Y551804D01*
X309533Y550517D01*
X310517Y549533D01*
X311804Y549000D01*
X313196D01*
X314483Y549533D01*
X315000Y550050D01*
X315517Y549533D01*
X316804Y549000D01*
X318196D01*
X319483Y549533D01*
X320467Y550517D01*
X321000Y551804D01*
Y553196D01*
X320467Y554483D01*
X319483Y555467D01*
X318196Y556000D01*
D02*
G37*
G36*
X485696Y556500D02*
X484304D01*
X483017Y555967D01*
X482033Y554983D01*
X481812Y554449D01*
X480188D01*
X479967Y554983D01*
X478983Y555967D01*
X477696Y556500D01*
X476304D01*
X475017Y555967D01*
X474427Y555377D01*
X473500Y555127D01*
X472573Y555377D01*
X471983Y555967D01*
X470696Y556500D01*
X469304D01*
X468017Y555967D01*
X467427Y555377D01*
X466500Y555127D01*
X465573Y555377D01*
X464983Y555967D01*
X463696Y556500D01*
X462304D01*
X461017Y555967D01*
X460427Y555377D01*
X459500Y555127D01*
X458573Y555377D01*
X457983Y555967D01*
X456696Y556500D01*
X455304D01*
X454017Y555967D01*
X453033Y554983D01*
X452500Y553696D01*
Y552304D01*
X451473Y551614D01*
X451223Y551467D01*
X450017Y550967D01*
X449033Y549983D01*
X448500Y548696D01*
Y547304D01*
X449033Y546017D01*
X450017Y545033D01*
X451304Y544500D01*
X452696D01*
X453983Y545033D01*
X454573Y545623D01*
X455500Y545873D01*
X456427Y545623D01*
X457017Y545033D01*
X458304Y544500D01*
X459696D01*
X460983Y545033D01*
X461573Y545623D01*
X462500Y545873D01*
X463427Y545623D01*
X464017Y545033D01*
X465304Y544500D01*
X466696D01*
X467983Y545033D01*
X468573Y545623D01*
X469500Y545873D01*
X470427Y545623D01*
X471017Y545033D01*
X472304Y544500D01*
X473696D01*
X474983Y545033D01*
X475967Y546017D01*
X476188Y546551D01*
X477812D01*
X478033Y546017D01*
X479017Y545033D01*
X480304Y544500D01*
X481696D01*
X482983Y545033D01*
X483573Y545623D01*
X484500Y545873D01*
X485427Y545623D01*
X486017Y545033D01*
X487304Y544500D01*
X488696D01*
X489983Y545033D01*
X490967Y546017D01*
X491500Y547304D01*
Y548696D01*
X490967Y549983D01*
X489983Y550967D01*
X489630Y551113D01*
X488500Y552304D01*
Y553696D01*
X487967Y554983D01*
X486983Y555967D01*
X485696Y556500D01*
D02*
G37*
G36*
X965684Y573650D02*
X963116D01*
X960637Y572985D01*
X958413Y571702D01*
X956598Y569886D01*
X955314Y567663D01*
X954650Y565183D01*
Y562616D01*
X955314Y560136D01*
X956598Y557913D01*
X958413Y556098D01*
X960637Y554814D01*
X963116Y554150D01*
X965684D01*
X968163Y554814D01*
X970387Y556098D01*
X972202Y557913D01*
X973485Y560136D01*
X974150Y562616D01*
Y565183D01*
X973485Y567663D01*
X972202Y569886D01*
X970387Y571702D01*
X968163Y572985D01*
X965684Y573650D01*
D02*
G37*
G36*
X923350Y562650D02*
X914850D01*
Y554150D01*
X914883D01*
X917363Y554814D01*
X919586Y556098D01*
X921402Y557913D01*
X922685Y560136D01*
X923350Y562616D01*
Y562650D01*
D02*
G37*
G36*
X912350D02*
X903850D01*
Y562616D01*
X904514Y560136D01*
X905798Y557913D01*
X907613Y556098D01*
X909837Y554814D01*
X912316Y554150D01*
X912350D01*
Y562650D01*
D02*
G37*
G36*
X679117Y562101D02*
X676928D01*
X674907Y561264D01*
X673360Y559716D01*
X672523Y557695D01*
Y555507D01*
X673360Y553485D01*
X674907Y551938D01*
X676928Y551101D01*
X679117D01*
X681138Y551938D01*
X682685Y553485D01*
X683522Y555507D01*
Y557695D01*
X682685Y559716D01*
X681138Y561264D01*
X679117Y562101D01*
D02*
G37*
G36*
X134250Y551971D02*
Y545750D01*
X140471D01*
X140026Y547410D01*
X139033Y549129D01*
X137630Y550533D01*
X135910Y551526D01*
X134250Y551971D01*
D02*
G37*
G36*
X131750D02*
X130090Y551526D01*
X128370Y550533D01*
X126966Y549129D01*
X125974Y547410D01*
X125529Y545750D01*
X131750D01*
Y551971D01*
D02*
G37*
G36*
X263094Y547500D02*
X260906D01*
X258885Y546663D01*
X257500Y545278D01*
X256116Y546663D01*
X254094Y547500D01*
X251906D01*
X249885Y546663D01*
X248500Y545278D01*
X247115Y546663D01*
X245094Y547500D01*
X242906D01*
X240884Y546663D01*
X239337Y545115D01*
X238500Y543094D01*
Y540906D01*
X239337Y538884D01*
X240722Y537500D01*
X239337Y536116D01*
X238500Y534094D01*
Y531906D01*
X239337Y529885D01*
X240884Y528338D01*
X242906Y527500D01*
X245094D01*
X247115Y528338D01*
X248500Y529722D01*
X249885Y528338D01*
X251906Y527500D01*
X254094D01*
X256116Y528338D01*
X257500Y529722D01*
X258885Y528338D01*
X260906Y527500D01*
X263094D01*
X265116Y528338D01*
X266663Y529885D01*
X267500Y531906D01*
Y534094D01*
X266663Y536116D01*
X265278Y537500D01*
X266663Y538884D01*
X267500Y540906D01*
Y543094D01*
X266663Y545115D01*
X265116Y546663D01*
X263094Y547500D01*
D02*
G37*
G36*
X578696Y548500D02*
X577304D01*
X576017Y547967D01*
X575033Y546983D01*
X574500Y545696D01*
Y544304D01*
X575033Y543017D01*
X576017Y542033D01*
X577304Y541500D01*
X578696D01*
X579983Y542033D01*
X580967Y543017D01*
X581500Y544304D01*
Y545696D01*
X580967Y546983D01*
X579983Y547967D01*
X578696Y548500D01*
D02*
G37*
G36*
X914883Y548250D02*
X914850D01*
Y539750D01*
X923350D01*
Y539783D01*
X922685Y542263D01*
X921402Y544486D01*
X919586Y546302D01*
X917363Y547585D01*
X914883Y548250D01*
D02*
G37*
G36*
X912350D02*
X912316D01*
X909837Y547585D01*
X907613Y546302D01*
X905798Y544486D01*
X904514Y542263D01*
X903850Y539783D01*
Y539750D01*
X912350D01*
Y548250D01*
D02*
G37*
G36*
X308196Y538500D02*
X306804D01*
X305517Y537967D01*
X305000Y537450D01*
X304483Y537967D01*
X303196Y538500D01*
X301804D01*
X300517Y537967D01*
X299533Y536983D01*
X299000Y535696D01*
Y534304D01*
X299533Y533017D01*
X300517Y532033D01*
X301804Y531500D01*
X303196D01*
X304483Y532033D01*
X305000Y532550D01*
X305517Y532033D01*
X306804Y531500D01*
X308196D01*
X309483Y532033D01*
X310467Y533017D01*
X311000Y534304D01*
Y535696D01*
X310467Y536983D01*
X309483Y537967D01*
X308196Y538500D01*
D02*
G37*
G36*
X140471Y543250D02*
X134250D01*
Y537029D01*
X135910Y537474D01*
X137630Y538466D01*
X139033Y539870D01*
X140026Y541590D01*
X140471Y543250D01*
D02*
G37*
G36*
X131750D02*
X125529D01*
X125974Y541590D01*
X126966Y539870D01*
X128370Y538466D01*
X130090Y537474D01*
X131750Y537029D01*
Y543250D01*
D02*
G37*
G36*
X517256Y536190D02*
X515864D01*
X514578Y535658D01*
X513593Y534673D01*
X513060Y533386D01*
Y531994D01*
X513593Y530708D01*
X514578Y529723D01*
X515864Y529190D01*
X517256D01*
X518543Y529723D01*
X519527Y530708D01*
X520060Y531994D01*
Y533386D01*
X519527Y534673D01*
X518543Y535658D01*
X517256Y536190D01*
D02*
G37*
G36*
X965684Y548250D02*
X963116D01*
X960637Y547585D01*
X958413Y546302D01*
X956598Y544486D01*
X955314Y542263D01*
X954650Y539783D01*
Y537216D01*
X955314Y534736D01*
X956598Y532513D01*
X958413Y530698D01*
X960637Y529414D01*
X963116Y528750D01*
X965684D01*
X968163Y529414D01*
X970387Y530698D01*
X972202Y532513D01*
X973485Y534736D01*
X974150Y537216D01*
Y539783D01*
X973485Y542263D01*
X972202Y544486D01*
X970387Y546302D01*
X968163Y547585D01*
X965684Y548250D01*
D02*
G37*
G36*
X923350Y537250D02*
X914850D01*
Y528750D01*
X914883D01*
X917363Y529414D01*
X919586Y530698D01*
X921402Y532513D01*
X922685Y534736D01*
X923350Y537216D01*
Y537250D01*
D02*
G37*
G36*
X912350D02*
X903850D01*
Y537216D01*
X904514Y534736D01*
X905798Y532513D01*
X907613Y530698D01*
X909837Y529414D01*
X912316Y528750D01*
X912350D01*
Y537250D01*
D02*
G37*
G36*
X847696Y531500D02*
X846304D01*
X845017Y530967D01*
X844033Y529983D01*
X843500Y528696D01*
Y527304D01*
X844033Y526017D01*
X845017Y525033D01*
X846304Y524500D01*
X847696D01*
X848983Y525033D01*
X849967Y526017D01*
X850500Y527304D01*
Y528696D01*
X849967Y529983D01*
X848983Y530967D01*
X847696Y531500D01*
D02*
G37*
G36*
X119781Y531880D02*
X116219D01*
X112726Y531185D01*
X109436Y529822D01*
X109204Y529667D01*
X110621Y528249D01*
X103550Y521178D01*
X102133Y522596D01*
X101978Y522364D01*
X100615Y519074D01*
X99920Y515581D01*
Y512019D01*
X100615Y508526D01*
X101978Y505236D01*
X102133Y505004D01*
X103550Y506422D01*
X110621Y499350D01*
X109204Y497933D01*
X109436Y497777D01*
X112726Y496415D01*
X116219Y495720D01*
X119781D01*
X123273Y496415D01*
X126564Y497777D01*
X126796Y497933D01*
X125378Y499350D01*
X132449Y506422D01*
X133867Y505004D01*
X134022Y505236D01*
X135385Y508526D01*
X136080Y512019D01*
Y515581D01*
X135385Y519074D01*
X134022Y522364D01*
X133867Y522596D01*
X132449Y521178D01*
X125378Y528249D01*
X126796Y529667D01*
X126564Y529822D01*
X123273Y531185D01*
X119781Y531880D01*
D02*
G37*
G36*
X369977Y524986D02*
X368585D01*
X367298Y524454D01*
X366314Y523469D01*
X365781Y522183D01*
Y520790D01*
X366314Y519504D01*
X367298Y518519D01*
X368585Y517986D01*
X369977D01*
X371264Y518519D01*
X371336Y518591D01*
X372765Y519012D01*
X373252Y518548D01*
X373767Y518033D01*
X375054Y517500D01*
X376446D01*
X377732Y518033D01*
X378396Y518696D01*
X379058Y518969D01*
X380250Y518800D01*
X380767Y518283D01*
X382054Y517750D01*
X383446D01*
X384733Y518283D01*
X385717Y519267D01*
X386250Y520554D01*
Y521946D01*
X385717Y523233D01*
X384733Y524217D01*
X383446Y524750D01*
X382054D01*
X380767Y524217D01*
X380104Y523554D01*
X379441Y523281D01*
X378250Y523450D01*
X377732Y523967D01*
X376446Y524500D01*
X375054D01*
X373767Y523967D01*
X373695Y523895D01*
X372266Y523474D01*
X371778Y523939D01*
X371264Y524454D01*
X369977Y524986D01*
D02*
G37*
G36*
X480446Y524500D02*
X479054D01*
X477767Y523967D01*
X476783Y522983D01*
X476250Y521696D01*
Y520304D01*
X476783Y519017D01*
X477767Y518033D01*
X479054Y517500D01*
X480446D01*
X481733Y518033D01*
X482717Y519017D01*
X483250Y520304D01*
Y521696D01*
X482717Y522983D01*
X481733Y523967D01*
X480446Y524500D01*
D02*
G37*
G36*
X914883Y522850D02*
X914850D01*
Y514350D01*
X923350D01*
Y514383D01*
X922685Y516863D01*
X921402Y519086D01*
X919586Y520902D01*
X917363Y522185D01*
X914883Y522850D01*
D02*
G37*
G36*
X912350D02*
X912316D01*
X909837Y522185D01*
X907613Y520902D01*
X905798Y519086D01*
X904514Y516863D01*
X903850Y514383D01*
Y514350D01*
X912350D01*
Y522850D01*
D02*
G37*
G36*
X965684D02*
X963116D01*
X960637Y522185D01*
X958413Y520902D01*
X956598Y519086D01*
X955314Y516863D01*
X954650Y514383D01*
Y511816D01*
X955314Y509336D01*
X956598Y507113D01*
X958413Y505298D01*
X960637Y504014D01*
X963116Y503350D01*
X965684D01*
X968163Y504014D01*
X970387Y505298D01*
X972202Y507113D01*
X973485Y509336D01*
X974150Y511816D01*
Y514383D01*
X973485Y516863D01*
X972202Y519086D01*
X970387Y520902D01*
X968163Y522185D01*
X965684Y522850D01*
D02*
G37*
G36*
X923350Y511850D02*
X914850D01*
Y503350D01*
X914883D01*
X917363Y504014D01*
X919586Y505298D01*
X921402Y507113D01*
X922685Y509336D01*
X923350Y511816D01*
Y511850D01*
D02*
G37*
G36*
X912350D02*
X903850D01*
Y511816D01*
X904514Y509336D01*
X905798Y507113D01*
X907613Y505298D01*
X909837Y504014D01*
X912316Y503350D01*
X912350D01*
Y511850D01*
D02*
G37*
G36*
X510955Y517250D02*
X509045D01*
X507202Y516756D01*
X505548Y515801D01*
X504199Y514452D01*
X503244Y512798D01*
X502750Y510955D01*
Y509045D01*
X503244Y507202D01*
X504199Y505548D01*
X505548Y504199D01*
X507202Y503244D01*
X509045Y502750D01*
X510955D01*
X512798Y503244D01*
X514452Y504199D01*
X515801Y505548D01*
X516756Y507202D01*
X517250Y509045D01*
Y510955D01*
X516756Y512798D01*
X515801Y514452D01*
X514452Y515801D01*
X512798Y516756D01*
X510955Y517250D01*
D02*
G37*
G36*
X311283Y519750D02*
X308716D01*
X306236Y519086D01*
X304013Y517802D01*
X302198Y515987D01*
X300914Y513763D01*
X300250Y511284D01*
Y508716D01*
X300914Y506237D01*
X302198Y504013D01*
X304013Y502198D01*
X306236Y500914D01*
X308716Y500250D01*
X311283D01*
X313763Y500914D01*
X315986Y502198D01*
X317802Y504013D01*
X319085Y506237D01*
X319750Y508716D01*
Y511284D01*
X319085Y513763D01*
X317802Y515987D01*
X315986Y517802D01*
X313763Y519086D01*
X311283Y519750D01*
D02*
G37*
G36*
X914883Y497450D02*
X914850D01*
Y488950D01*
X923350D01*
Y488983D01*
X922685Y491463D01*
X921402Y493686D01*
X919586Y495502D01*
X917363Y496785D01*
X914883Y497450D01*
D02*
G37*
G36*
X912350D02*
X912316D01*
X909837Y496785D01*
X907613Y495502D01*
X905798Y493686D01*
X904514Y491463D01*
X903850Y488983D01*
Y488950D01*
X912350D01*
Y497450D01*
D02*
G37*
G36*
X119781Y494030D02*
X116219D01*
X112726Y493335D01*
X109436Y491972D01*
X109204Y491817D01*
X110621Y490399D01*
X103550Y483328D01*
X102133Y484746D01*
X101978Y484514D01*
X100615Y481223D01*
X99920Y477730D01*
Y474169D01*
X100615Y470676D01*
X101978Y467386D01*
X102133Y467154D01*
X103550Y468571D01*
X110621Y461500D01*
X109204Y460083D01*
X109436Y459927D01*
X112726Y458565D01*
X116219Y457870D01*
X119781D01*
X123273Y458565D01*
X126564Y459927D01*
X126796Y460083D01*
X125378Y461500D01*
X132449Y468571D01*
X133867Y467154D01*
X134022Y467386D01*
X135385Y470676D01*
X136080Y474169D01*
Y477730D01*
X135385Y481223D01*
X134022Y484514D01*
X133867Y484746D01*
X132449Y483328D01*
X125378Y490399D01*
X126796Y491817D01*
X126564Y491972D01*
X123273Y493335D01*
X119781Y494030D01*
D02*
G37*
G36*
X710140Y484412D02*
Y478750D01*
X715802D01*
X715413Y480202D01*
X714491Y481798D01*
X713188Y483101D01*
X711592Y484023D01*
X710140Y484412D01*
D02*
G37*
G36*
X707640D02*
X706188Y484023D01*
X704592Y483101D01*
X703288Y481798D01*
X702367Y480202D01*
X701978Y478750D01*
X707640D01*
Y484412D01*
D02*
G37*
G36*
X965684Y497450D02*
X963116D01*
X960637Y496785D01*
X958413Y495502D01*
X956598Y493686D01*
X955314Y491463D01*
X954650Y488983D01*
Y486416D01*
X955314Y483936D01*
X956598Y481713D01*
X958413Y479898D01*
X960637Y478614D01*
X963116Y477950D01*
X965684D01*
X968163Y478614D01*
X970387Y479898D01*
X972202Y481713D01*
X973485Y483936D01*
X974150Y486416D01*
Y488983D01*
X973485Y491463D01*
X972202Y493686D01*
X970387Y495502D01*
X968163Y496785D01*
X965684Y497450D01*
D02*
G37*
G36*
X923350Y486450D02*
X914850D01*
Y477950D01*
X914883D01*
X917363Y478614D01*
X919586Y479898D01*
X921402Y481713D01*
X922685Y483936D01*
X923350Y486416D01*
Y486450D01*
D02*
G37*
G36*
X912350D02*
X903850D01*
Y486416D01*
X904514Y483936D01*
X905798Y481713D01*
X907613Y479898D01*
X909837Y478614D01*
X912316Y477950D01*
X912350D01*
Y486450D01*
D02*
G37*
G36*
X872364Y489000D02*
X867636D01*
X862999Y488078D01*
X858632Y486268D01*
X856936Y485135D01*
X858287Y483783D01*
X851216Y476712D01*
X849865Y478064D01*
X848731Y476368D01*
X846922Y472000D01*
X846000Y467364D01*
Y462636D01*
X846922Y457999D01*
X848731Y453632D01*
X849865Y451936D01*
X851216Y453287D01*
X857137Y447366D01*
X882862D01*
X888783Y453287D01*
X890135Y451936D01*
X891268Y453632D01*
X893077Y457999D01*
X894000Y462636D01*
Y467364D01*
X893077Y472000D01*
X891268Y476368D01*
X890135Y478064D01*
X888783Y476712D01*
X881712Y483783D01*
X883064Y485135D01*
X881368Y486268D01*
X877000Y488078D01*
X872364Y489000D01*
D02*
G37*
G36*
X582364D02*
X577636D01*
X572999Y488078D01*
X568632Y486268D01*
X566936Y485135D01*
X568288Y483783D01*
X561216Y476712D01*
X559865Y478064D01*
X558731Y476368D01*
X556922Y472000D01*
X556000Y467364D01*
Y462636D01*
X556922Y457999D01*
X558731Y453632D01*
X559865Y451936D01*
X561216Y453287D01*
X568288Y446216D01*
X566936Y444865D01*
X568632Y443731D01*
X572999Y441922D01*
X577636Y441000D01*
X582364D01*
X587000Y441922D01*
X591368Y443731D01*
X593064Y444865D01*
X591712Y446216D01*
X598783Y453287D01*
X600135Y451936D01*
X601268Y453632D01*
X603078Y457999D01*
X604000Y462636D01*
Y467364D01*
X603078Y472000D01*
X601268Y476368D01*
X600135Y478064D01*
X598783Y476712D01*
X591712Y483783D01*
X593064Y485135D01*
X591368Y486268D01*
X587000Y488078D01*
X582364Y489000D01*
D02*
G37*
G36*
X250446Y476250D02*
X249054D01*
X247767Y475717D01*
X246783Y474733D01*
X246250Y473446D01*
Y472821D01*
X244750Y472200D01*
X244233Y472717D01*
X242946Y473250D01*
X241554D01*
X240267Y472717D01*
X239283Y471733D01*
X238750Y470446D01*
Y469054D01*
X239283Y467767D01*
X240267Y466783D01*
X241554Y466250D01*
X242946D01*
X244233Y466783D01*
X245217Y467767D01*
X245750Y469054D01*
Y469679D01*
X247250Y470300D01*
X247767Y469783D01*
X249054Y469250D01*
X250446D01*
X251733Y469783D01*
X252717Y470767D01*
X253250Y472054D01*
Y473446D01*
X252717Y474733D01*
X251733Y475717D01*
X250446Y476250D01*
D02*
G37*
G36*
X715802Y476250D02*
X710140D01*
Y470588D01*
X711592Y470977D01*
X713188Y471898D01*
X714491Y473202D01*
X715413Y474798D01*
X715802Y476250D01*
D02*
G37*
G36*
X707640D02*
X701978D01*
X702367Y474798D01*
X703288Y473202D01*
X704592Y471898D01*
X706188Y470977D01*
X707640Y470588D01*
Y476250D01*
D02*
G37*
G36*
X795890Y484500D02*
X781890D01*
Y470500D01*
X795890D01*
Y484500D01*
D02*
G37*
G36*
X769812D02*
X767969D01*
X766188Y484023D01*
X764592Y483101D01*
X763289Y481798D01*
X762367Y480202D01*
X761890Y478421D01*
Y476578D01*
X762367Y474798D01*
X763289Y473202D01*
X764592Y471898D01*
X766188Y470977D01*
X767969Y470500D01*
X769812D01*
X771592Y470977D01*
X773188Y471898D01*
X774492Y473202D01*
X775413Y474798D01*
X775890Y476578D01*
Y478421D01*
X775413Y480202D01*
X774492Y481798D01*
X773188Y483101D01*
X771592Y484023D01*
X769812Y484500D01*
D02*
G37*
G36*
X749812D02*
X747969D01*
X746188Y484023D01*
X744592Y483101D01*
X743289Y481798D01*
X742367Y480202D01*
X741890Y478421D01*
Y476578D01*
X742367Y474798D01*
X743289Y473202D01*
X744592Y471898D01*
X746188Y470977D01*
X747969Y470500D01*
X749812D01*
X751592Y470977D01*
X753188Y471898D01*
X754492Y473202D01*
X755413Y474798D01*
X755890Y476578D01*
Y478421D01*
X755413Y480202D01*
X754492Y481798D01*
X753188Y483101D01*
X751592Y484023D01*
X749812Y484500D01*
D02*
G37*
G36*
X729812D02*
X727969D01*
X726188Y484023D01*
X724592Y483101D01*
X723289Y481798D01*
X722367Y480202D01*
X721890Y478421D01*
Y476578D01*
X722367Y474798D01*
X723289Y473202D01*
X724592Y471898D01*
X726188Y470977D01*
X727969Y470500D01*
X729812D01*
X731592Y470977D01*
X733188Y471898D01*
X734492Y473202D01*
X735413Y474798D01*
X735890Y476578D01*
Y478421D01*
X735413Y480202D01*
X734492Y481798D01*
X733188Y483101D01*
X731592Y484023D01*
X729812Y484500D01*
D02*
G37*
G36*
X914883Y472050D02*
X914850D01*
Y463550D01*
X923350D01*
Y463583D01*
X922685Y466063D01*
X921402Y468286D01*
X919586Y470102D01*
X917363Y471385D01*
X914883Y472050D01*
D02*
G37*
G36*
X912350D02*
X912316D01*
X909837Y471385D01*
X907613Y470102D01*
X905798Y468286D01*
X904514Y466063D01*
X903850Y463583D01*
Y463550D01*
X912350D01*
Y472050D01*
D02*
G37*
G36*
X825404Y479000D02*
X822376D01*
X819451Y478216D01*
X816829Y476702D01*
X814688Y474561D01*
X813174Y471939D01*
X812390Y469014D01*
Y465986D01*
X813174Y463061D01*
X814688Y460439D01*
X816829Y458298D01*
X819451Y456783D01*
X822376Y456000D01*
X825404D01*
X828329Y456783D01*
X830951Y458298D01*
X833092Y460439D01*
X834606Y463061D01*
X835390Y465986D01*
Y469014D01*
X834606Y471939D01*
X833092Y474561D01*
X830951Y476702D01*
X828329Y478216D01*
X825404Y479000D01*
D02*
G37*
G36*
X675404D02*
X672376D01*
X669451Y478216D01*
X666829Y476702D01*
X664688Y474561D01*
X663174Y471939D01*
X662390Y469014D01*
Y465986D01*
X663174Y463061D01*
X664688Y460439D01*
X666829Y458298D01*
X669451Y456783D01*
X672376Y456000D01*
X675404D01*
X678329Y456783D01*
X680951Y458298D01*
X683092Y460439D01*
X684606Y463061D01*
X685390Y465986D01*
Y469014D01*
X684606Y471939D01*
X683092Y474561D01*
X680951Y476702D01*
X678329Y478216D01*
X675404Y479000D01*
D02*
G37*
G36*
X965684Y472050D02*
X963116D01*
X960637Y471385D01*
X958413Y470102D01*
X956598Y468286D01*
X955314Y466063D01*
X954650Y463583D01*
Y461016D01*
X955314Y458536D01*
X956598Y456313D01*
X958413Y454498D01*
X960637Y453214D01*
X963116Y452550D01*
X965684D01*
X968163Y453214D01*
X970387Y454498D01*
X972202Y456313D01*
X973485Y458536D01*
X974150Y461016D01*
Y463583D01*
X973485Y466063D01*
X972202Y468286D01*
X970387Y470102D01*
X968163Y471385D01*
X965684Y472050D01*
D02*
G37*
G36*
X923350Y461050D02*
X914850D01*
Y452550D01*
X914883D01*
X917363Y453214D01*
X919586Y454498D01*
X921402Y456313D01*
X922685Y458536D01*
X923350Y461016D01*
Y461050D01*
D02*
G37*
G36*
X912350D02*
X903850D01*
Y461016D01*
X904514Y458536D01*
X905798Y456313D01*
X907613Y454498D01*
X909837Y453214D01*
X912316Y452550D01*
X912350D01*
Y461050D01*
D02*
G37*
G36*
X789812Y464500D02*
X787969D01*
X786188Y464023D01*
X784592Y463101D01*
X783289Y461798D01*
X782367Y460202D01*
X781890Y458421D01*
Y456578D01*
X782367Y454798D01*
X783289Y453202D01*
X784592Y451898D01*
X786188Y450977D01*
X787969Y450500D01*
X789812D01*
X791592Y450977D01*
X793188Y451898D01*
X794492Y453202D01*
X795413Y454798D01*
X795890Y456578D01*
Y458421D01*
X795413Y460202D01*
X794492Y461798D01*
X793188Y463101D01*
X791592Y464023D01*
X789812Y464500D01*
D02*
G37*
G36*
X769812D02*
X767969D01*
X766188Y464023D01*
X764592Y463101D01*
X763289Y461798D01*
X762367Y460202D01*
X761890Y458421D01*
Y456578D01*
X762367Y454798D01*
X763289Y453202D01*
X764592Y451898D01*
X766188Y450977D01*
X767969Y450500D01*
X769812D01*
X771592Y450977D01*
X773188Y451898D01*
X774492Y453202D01*
X775413Y454798D01*
X775890Y456578D01*
Y458421D01*
X775413Y460202D01*
X774492Y461798D01*
X773188Y463101D01*
X771592Y464023D01*
X769812Y464500D01*
D02*
G37*
G36*
X749812D02*
X747969D01*
X746188Y464023D01*
X744592Y463101D01*
X743289Y461798D01*
X742367Y460202D01*
X741890Y458421D01*
Y456578D01*
X742367Y454798D01*
X743289Y453202D01*
X744592Y451898D01*
X746188Y450977D01*
X747969Y450500D01*
X749812D01*
X751592Y450977D01*
X753188Y451898D01*
X754492Y453202D01*
X755413Y454798D01*
X755890Y456578D01*
Y458421D01*
X755413Y460202D01*
X754492Y461798D01*
X753188Y463101D01*
X751592Y464023D01*
X749812Y464500D01*
D02*
G37*
G36*
X729812D02*
X727969D01*
X726188Y464023D01*
X724592Y463101D01*
X723289Y461798D01*
X722367Y460202D01*
X721890Y458421D01*
Y456578D01*
X722367Y454798D01*
X723289Y453202D01*
X724592Y451898D01*
X726188Y450977D01*
X727969Y450500D01*
X729812D01*
X731592Y450977D01*
X733188Y451898D01*
X734492Y453202D01*
X735413Y454798D01*
X735890Y456578D01*
Y458421D01*
X735413Y460202D01*
X734492Y461798D01*
X733188Y463101D01*
X731592Y464023D01*
X729812Y464500D01*
D02*
G37*
G36*
X709811D02*
X707968D01*
X706188Y464023D01*
X704592Y463101D01*
X703288Y461798D01*
X702367Y460202D01*
X701890Y458421D01*
Y456578D01*
X702367Y454798D01*
X703288Y453202D01*
X704592Y451898D01*
X706188Y450977D01*
X707968Y450500D01*
X709811D01*
X711592Y450977D01*
X713188Y451898D01*
X714491Y453202D01*
X715413Y454798D01*
X715890Y456578D01*
Y458421D01*
X715413Y460202D01*
X714491Y461798D01*
X713188Y463101D01*
X711592Y464023D01*
X709811Y464500D01*
D02*
G37*
G36*
X153993Y457790D02*
X152007D01*
X150090Y457276D01*
X148370Y456284D01*
X146966Y454880D01*
X145974Y453160D01*
X145460Y451243D01*
Y449257D01*
X145974Y447340D01*
X146966Y445620D01*
X148370Y444216D01*
X150090Y443224D01*
X152007Y442710D01*
X153993D01*
X155910Y443224D01*
X157630Y444216D01*
X159033Y445620D01*
X160026Y447340D01*
X160540Y449257D01*
Y451243D01*
X160026Y453160D01*
X159033Y454880D01*
X157630Y456284D01*
X155910Y457276D01*
X153993Y457790D01*
D02*
G37*
G36*
X882099Y445830D02*
X881510Y445347D01*
X878426Y442513D01*
X881368Y443731D01*
X883064Y444865D01*
X882099Y445830D01*
D02*
G37*
G36*
X857900D02*
X856936Y444865D01*
X858632Y443731D01*
X861574Y442513D01*
X858490Y445347D01*
X857900Y445830D01*
D02*
G37*
G36*
X433696Y448500D02*
X432304D01*
X431017Y447967D01*
X430033Y446983D01*
X429500Y445696D01*
Y444304D01*
X430033Y443017D01*
X431017Y442033D01*
X432304Y441500D01*
X433696D01*
X434983Y442033D01*
X435967Y443017D01*
X436500Y444304D01*
Y445696D01*
X435967Y446983D01*
X434983Y447967D01*
X433696Y448500D01*
D02*
G37*
G36*
X133993Y452790D02*
X132007D01*
X130090Y452276D01*
X128370Y451283D01*
X126966Y449879D01*
X125974Y448160D01*
X125460Y446242D01*
Y444257D01*
X125974Y442340D01*
X126966Y440620D01*
X128370Y439216D01*
X130090Y438224D01*
X132007Y437710D01*
X133993D01*
X135910Y438224D01*
X137630Y439216D01*
X139033Y440620D01*
X140026Y442340D01*
X140540Y444257D01*
Y446242D01*
X140026Y448160D01*
X139033Y449879D01*
X137630Y451283D01*
X135910Y452276D01*
X133993Y452790D01*
D02*
G37*
G36*
X343946Y446000D02*
X342554D01*
X341267Y445467D01*
X340283Y444483D01*
X339750Y443196D01*
Y441804D01*
X339831Y441609D01*
X339310Y440110D01*
X339005Y439982D01*
X338023Y439576D01*
X337039Y438591D01*
X336506Y437305D01*
Y435912D01*
X337039Y434626D01*
X338023Y433641D01*
X339310Y433109D01*
X340702D01*
X341989Y433641D01*
X342973Y434626D01*
X343506Y435912D01*
Y437305D01*
X343425Y437500D01*
X343946Y438998D01*
X344252Y439127D01*
X345233Y439533D01*
X346217Y440517D01*
X346750Y441804D01*
Y443196D01*
X346217Y444483D01*
X345233Y445467D01*
X343946Y446000D01*
D02*
G37*
G36*
X965684Y446650D02*
X963116D01*
X960637Y445985D01*
X958413Y444702D01*
X956598Y442886D01*
X955314Y440663D01*
X954650Y438183D01*
Y435616D01*
X955314Y433136D01*
X956598Y430913D01*
X958413Y429098D01*
X960637Y427814D01*
X963116Y427150D01*
X965684D01*
X968163Y427814D01*
X970387Y429098D01*
X972202Y430913D01*
X973485Y433136D01*
X974150Y435616D01*
Y438183D01*
X973485Y440663D01*
X972202Y442886D01*
X970387Y444702D01*
X968163Y445985D01*
X965684Y446650D01*
D02*
G37*
G36*
X914883D02*
X912316D01*
X909837Y445985D01*
X907613Y444702D01*
X905798Y442886D01*
X904514Y440663D01*
X903850Y438183D01*
Y435616D01*
X904514Y433136D01*
X905798Y430913D01*
X907613Y429098D01*
X909837Y427814D01*
X912316Y427150D01*
X914883D01*
X917363Y427814D01*
X919586Y429098D01*
X921402Y430913D01*
X922685Y433136D01*
X923350Y435616D01*
Y438183D01*
X922685Y440663D01*
X921402Y442886D01*
X919586Y444702D01*
X917363Y445985D01*
X914883Y446650D01*
D02*
G37*
G36*
X940744Y678750D02*
X937255D01*
X933886Y677847D01*
X930864Y676102D01*
X928397Y673635D01*
X926653Y670614D01*
X925750Y667244D01*
Y663755D01*
X926653Y660386D01*
X928397Y657364D01*
X930864Y654897D01*
X932997Y653666D01*
Y651934D01*
X930864Y650702D01*
X928397Y648235D01*
X926653Y645214D01*
X925750Y641844D01*
Y638355D01*
X926653Y634986D01*
X928397Y631964D01*
X930864Y629497D01*
X932997Y628266D01*
Y626534D01*
X930864Y625302D01*
X928397Y622836D01*
X926653Y619814D01*
X925750Y616444D01*
Y612955D01*
X926653Y609585D01*
X928397Y606564D01*
X930864Y604097D01*
X932997Y602866D01*
Y601134D01*
X930864Y599902D01*
X928397Y597435D01*
X926653Y594414D01*
X925750Y591044D01*
Y587555D01*
X926653Y584185D01*
X928397Y581164D01*
X930864Y578697D01*
X932997Y577466D01*
Y575734D01*
X930864Y574502D01*
X928397Y572035D01*
X926653Y569014D01*
X925750Y565644D01*
Y562155D01*
X926653Y558786D01*
X928397Y555764D01*
X930864Y553297D01*
X932997Y552066D01*
Y550334D01*
X930864Y549102D01*
X928397Y546636D01*
X926653Y543614D01*
X925750Y540244D01*
Y536755D01*
X926653Y533386D01*
X928397Y530364D01*
X930864Y527897D01*
X932997Y526666D01*
Y524934D01*
X930864Y523702D01*
X928397Y521236D01*
X926653Y518214D01*
X925750Y514844D01*
Y511355D01*
X926653Y507985D01*
X928397Y504964D01*
X930864Y502497D01*
X932997Y501266D01*
Y499534D01*
X930864Y498302D01*
X928397Y495835D01*
X926653Y492814D01*
X925750Y489444D01*
Y485955D01*
X926653Y482585D01*
X928397Y479564D01*
X930864Y477097D01*
X932997Y475866D01*
Y474134D01*
X930864Y472902D01*
X928397Y470435D01*
X926653Y467414D01*
X925750Y464044D01*
Y460555D01*
X926653Y457186D01*
X928397Y454164D01*
X930864Y451697D01*
X932997Y450466D01*
Y448734D01*
X930864Y447502D01*
X928397Y445036D01*
X926653Y442014D01*
X925750Y438644D01*
Y435155D01*
X926653Y431786D01*
X928397Y428764D01*
X930864Y426297D01*
X933886Y424553D01*
X937255Y423650D01*
X940744D01*
X944114Y424553D01*
X947136Y426297D01*
X949603Y428764D01*
X951347Y431786D01*
X952250Y435155D01*
Y438644D01*
X951347Y442014D01*
X949603Y445036D01*
X947136Y447502D01*
X945003Y448734D01*
Y450466D01*
X947136Y451697D01*
X949603Y454164D01*
X951347Y457186D01*
X952250Y460555D01*
Y464044D01*
X951347Y467414D01*
X949603Y470435D01*
X947136Y472902D01*
X945003Y474134D01*
Y475866D01*
X947136Y477097D01*
X949603Y479564D01*
X951347Y482585D01*
X952250Y485955D01*
Y489444D01*
X951347Y492814D01*
X949603Y495835D01*
X947136Y498302D01*
X945003Y499534D01*
Y501266D01*
X947136Y502497D01*
X949603Y504964D01*
X951347Y507985D01*
X952250Y511355D01*
Y514844D01*
X951347Y518214D01*
X949603Y521236D01*
X947136Y523702D01*
X945003Y524934D01*
Y526666D01*
X947136Y527897D01*
X949603Y530364D01*
X951347Y533386D01*
X952250Y536755D01*
Y540244D01*
X951347Y543614D01*
X949603Y546636D01*
X947136Y549102D01*
X945003Y550334D01*
Y552066D01*
X947136Y553297D01*
X949603Y555764D01*
X951347Y558786D01*
X952250Y562155D01*
Y565644D01*
X951347Y569014D01*
X949603Y572035D01*
X947136Y574502D01*
X945003Y575734D01*
Y577466D01*
X947136Y578697D01*
X949603Y581164D01*
X951347Y584185D01*
X952250Y587555D01*
Y591044D01*
X951347Y594414D01*
X949603Y597435D01*
X947136Y599902D01*
X945003Y601134D01*
Y602866D01*
X947136Y604097D01*
X949603Y606564D01*
X951347Y609585D01*
X952250Y612955D01*
Y616444D01*
X951347Y619814D01*
X949603Y622836D01*
X947136Y625302D01*
X945003Y626534D01*
Y628266D01*
X947136Y629497D01*
X949603Y631964D01*
X951347Y634986D01*
X952250Y638355D01*
Y641844D01*
X951347Y645214D01*
X949603Y648235D01*
X947136Y650702D01*
X945003Y651934D01*
Y653666D01*
X947136Y654897D01*
X949603Y657364D01*
X951347Y660386D01*
X952250Y663755D01*
Y667244D01*
X951347Y670614D01*
X949603Y673635D01*
X947136Y676102D01*
X944114Y677847D01*
X940744Y678750D01*
D02*
G37*
G36*
X153993Y437790D02*
X152007D01*
X150090Y437276D01*
X148370Y436284D01*
X146966Y434880D01*
X145974Y433160D01*
X145460Y431243D01*
Y429257D01*
X145974Y427340D01*
X146966Y425620D01*
X148370Y424217D01*
X150090Y423224D01*
X152007Y422710D01*
X153993D01*
X155910Y423224D01*
X157630Y424217D01*
X159033Y425620D01*
X160026Y427340D01*
X160540Y429257D01*
Y431243D01*
X160026Y433160D01*
X159033Y434880D01*
X157630Y436284D01*
X155910Y437276D01*
X153993Y437790D01*
D02*
G37*
G36*
X331250Y426161D02*
Y418750D01*
X338661D01*
X338098Y420854D01*
X336954Y422836D01*
X335336Y424454D01*
X333354Y425598D01*
X331250Y426161D01*
D02*
G37*
G36*
X328750D02*
X326646Y425598D01*
X324664Y424454D01*
X323046Y422836D01*
X321902Y420854D01*
X321338Y418750D01*
X328750D01*
Y426161D01*
D02*
G37*
G36*
X1011696Y423350D02*
X1010304D01*
X1009018Y422817D01*
X1008033Y421832D01*
X1007500Y420546D01*
Y419154D01*
X1008033Y417867D01*
X1009018Y416883D01*
X1010304Y416350D01*
X1011696D01*
X1012983Y416883D01*
X1013967Y417867D01*
X1014500Y419154D01*
Y420546D01*
X1013967Y421832D01*
X1012983Y422817D01*
X1011696Y423350D01*
D02*
G37*
G36*
X534164Y421124D02*
X532772D01*
X531485Y420592D01*
X530501Y419607D01*
X529968Y418321D01*
Y416928D01*
X530501Y415642D01*
X531485Y414657D01*
X532772Y414124D01*
X534164D01*
X535451Y414657D01*
X536435Y415642D01*
X536968Y416928D01*
Y418321D01*
X536435Y419607D01*
X535451Y420592D01*
X534164Y421124D01*
D02*
G37*
G36*
X510696Y421000D02*
X509304D01*
X508017Y420467D01*
X507033Y419482D01*
X506500Y418196D01*
Y416804D01*
X507033Y415517D01*
X508017Y414533D01*
X509304Y414000D01*
X510696D01*
X511983Y414533D01*
X512967Y415517D01*
X513500Y416804D01*
Y418196D01*
X512967Y419482D01*
X511983Y420467D01*
X510696Y421000D01*
D02*
G37*
G36*
X430446Y420250D02*
X429054D01*
X427767Y419717D01*
X426783Y418733D01*
X426250Y417446D01*
Y416054D01*
X426783Y414767D01*
X427767Y413783D01*
X429054Y413250D01*
X430446D01*
X431733Y413783D01*
X432717Y414767D01*
X433250Y416054D01*
Y417446D01*
X432717Y418733D01*
X431733Y419717D01*
X430446Y420250D01*
D02*
G37*
G36*
X133993Y427790D02*
X132007D01*
X130090Y427276D01*
X128370Y426284D01*
X126966Y424880D01*
X125974Y423160D01*
X125460Y421243D01*
Y419258D01*
X125974Y417340D01*
X126966Y415620D01*
X128370Y414217D01*
X130090Y413224D01*
X132007Y412710D01*
X133993D01*
X135910Y413224D01*
X137630Y414217D01*
X139033Y415620D01*
X140026Y417340D01*
X140540Y419258D01*
Y421243D01*
X140026Y423160D01*
X139033Y424880D01*
X137630Y426284D01*
X135910Y427276D01*
X133993Y427790D01*
D02*
G37*
G36*
X154250Y417721D02*
Y411500D01*
X160471D01*
X160026Y413161D01*
X159033Y414880D01*
X157630Y416284D01*
X155910Y417276D01*
X154250Y417721D01*
D02*
G37*
G36*
X151750D02*
X150090Y417276D01*
X148370Y416284D01*
X146966Y414880D01*
X145974Y413161D01*
X145529Y411500D01*
X151750D01*
Y417721D01*
D02*
G37*
G36*
X521446Y416750D02*
X520054D01*
X518767Y416217D01*
X517783Y415233D01*
X517250Y413946D01*
Y412554D01*
X517783Y411267D01*
X518767Y410283D01*
X520054Y409750D01*
X521446D01*
X522732Y410283D01*
X523717Y411267D01*
X524250Y412554D01*
Y413946D01*
X523717Y415233D01*
X522732Y416217D01*
X521446Y416750D01*
D02*
G37*
G36*
X338661Y416250D02*
X331250D01*
Y408838D01*
X333354Y409402D01*
X335046Y410379D01*
X337121Y412453D01*
X338098Y414146D01*
X338661Y416250D01*
D02*
G37*
G36*
X328750D02*
X321338D01*
X321902Y414146D01*
X323046Y412164D01*
X324664Y410546D01*
X326646Y409402D01*
X328750Y408838D01*
Y416250D01*
D02*
G37*
G36*
X462946Y415000D02*
X461554D01*
X460267Y414467D01*
X459283Y413483D01*
X458750Y412196D01*
Y410804D01*
X459283Y409517D01*
X460267Y408533D01*
X461554Y408000D01*
X462946D01*
X464233Y408533D01*
X465217Y409517D01*
X465750Y410804D01*
Y412196D01*
X465217Y413483D01*
X464233Y414467D01*
X462946Y415000D01*
D02*
G37*
G36*
X842400Y420500D02*
X837600D01*
X832858Y419749D01*
X828292Y418265D01*
X824015Y416086D01*
X822260Y414811D01*
X823601Y413470D01*
X816530Y406399D01*
X815189Y407740D01*
X813914Y405985D01*
X811734Y401708D01*
X810251Y397142D01*
X809500Y392400D01*
Y387600D01*
X810251Y382858D01*
X811734Y378292D01*
X813914Y374015D01*
X815189Y372260D01*
X816530Y373601D01*
X823601Y366530D01*
X822260Y365189D01*
X824015Y363914D01*
X828292Y361735D01*
X832858Y360251D01*
X837600Y359500D01*
X842400D01*
X847142Y360251D01*
X851708Y361735D01*
X855985Y363914D01*
X857740Y365189D01*
X856399Y366530D01*
X863470Y373601D01*
X864811Y372260D01*
X866086Y374015D01*
X868265Y378292D01*
X869749Y382858D01*
X870500Y387600D01*
Y392400D01*
X869749Y397142D01*
X868265Y401708D01*
X866086Y405985D01*
X864811Y407740D01*
X863470Y406399D01*
X856399Y413470D01*
X857740Y414811D01*
X855985Y416086D01*
X851708Y418265D01*
X847142Y419749D01*
X842400Y420500D01*
D02*
G37*
G36*
X362400D02*
X357600D01*
X352858Y419749D01*
X348292Y418265D01*
X344015Y416086D01*
X342260Y414811D01*
X343601Y413470D01*
X336530Y406399D01*
X335189Y407740D01*
X333914Y405985D01*
X331735Y401708D01*
X330251Y397142D01*
X329500Y392400D01*
Y387600D01*
X330251Y382858D01*
X331735Y378292D01*
X333914Y374015D01*
X335189Y372260D01*
X336530Y373601D01*
X343601Y366530D01*
X342260Y365189D01*
X344015Y363914D01*
X348292Y361735D01*
X352858Y360251D01*
X357600Y359500D01*
X362400D01*
X367142Y360251D01*
X371708Y361735D01*
X375985Y363914D01*
X377740Y365189D01*
X376399Y366530D01*
X383470Y373601D01*
X384811Y372260D01*
X386086Y374015D01*
X388265Y378292D01*
X389749Y382858D01*
X390500Y387600D01*
Y392400D01*
X389749Y397142D01*
X388265Y401708D01*
X386086Y405985D01*
X384811Y407740D01*
X383470Y406399D01*
X376399Y413470D01*
X377740Y414811D01*
X375985Y416086D01*
X371708Y418265D01*
X367142Y419749D01*
X362400Y420500D01*
D02*
G37*
G36*
X160471Y409000D02*
X154250D01*
Y402779D01*
X155910Y403224D01*
X157630Y404217D01*
X159033Y405620D01*
X160026Y407340D01*
X160471Y409000D01*
D02*
G37*
G36*
X151750D02*
X145529D01*
X145974Y407340D01*
X146966Y405620D01*
X148370Y404217D01*
X150090Y403224D01*
X151750Y402779D01*
Y409000D01*
D02*
G37*
G36*
X965684Y421250D02*
X963116D01*
X960637Y420585D01*
X958413Y419302D01*
X956598Y417486D01*
X955314Y415263D01*
X954650Y412783D01*
Y410216D01*
X955314Y407736D01*
X956598Y405513D01*
X958413Y403698D01*
X960637Y402414D01*
X963116Y401750D01*
X965684D01*
X968163Y402414D01*
X970387Y403698D01*
X972202Y405513D01*
X973485Y407736D01*
X974150Y410216D01*
Y412783D01*
X973485Y415263D01*
X972202Y417486D01*
X970387Y419302D01*
X968163Y420585D01*
X965684Y421250D01*
D02*
G37*
G36*
X940284D02*
X937716D01*
X935237Y420585D01*
X933013Y419302D01*
X931198Y417486D01*
X929914Y415263D01*
X929250Y412783D01*
Y410216D01*
X929914Y407736D01*
X931198Y405513D01*
X933013Y403698D01*
X935237Y402414D01*
X937716Y401750D01*
X940284D01*
X942763Y402414D01*
X944986Y403698D01*
X946802Y405513D01*
X948085Y407736D01*
X948750Y410216D01*
Y412783D01*
X948085Y415263D01*
X946802Y417486D01*
X944986Y419302D01*
X942763Y420585D01*
X940284Y421250D01*
D02*
G37*
G36*
X914883D02*
X912316D01*
X909837Y420585D01*
X907613Y419302D01*
X905798Y417486D01*
X904514Y415263D01*
X903850Y412783D01*
Y410216D01*
X904514Y407736D01*
X905798Y405513D01*
X907613Y403698D01*
X909837Y402414D01*
X912316Y401750D01*
X914883D01*
X917363Y402414D01*
X919586Y403698D01*
X921402Y405513D01*
X922685Y407736D01*
X923350Y410216D01*
Y412783D01*
X922685Y415263D01*
X921402Y417486D01*
X919586Y419302D01*
X917363Y420585D01*
X914883Y421250D01*
D02*
G37*
G36*
X706196Y405750D02*
X704804D01*
X703517Y405217D01*
X702533Y404233D01*
X702000Y402946D01*
Y401554D01*
X702533Y400267D01*
X703517Y399283D01*
X704804Y398750D01*
X706196D01*
X707483Y399283D01*
X708467Y400267D01*
X709000Y401554D01*
Y402946D01*
X708467Y404233D01*
X707483Y405217D01*
X706196Y405750D01*
D02*
G37*
G36*
X133993Y407790D02*
X132007D01*
X130090Y407276D01*
X128370Y406284D01*
X126966Y404880D01*
X125974Y403161D01*
X125460Y401243D01*
Y399258D01*
X125974Y397340D01*
X126966Y395620D01*
X128370Y394217D01*
X130090Y393224D01*
X132007Y392710D01*
X133993D01*
X135910Y393224D01*
X137630Y394217D01*
X139033Y395620D01*
X140026Y397340D01*
X140540Y399258D01*
Y401243D01*
X140026Y403161D01*
X139033Y404880D01*
X137630Y406284D01*
X135910Y407276D01*
X133993Y407790D01*
D02*
G37*
G36*
X568898Y406906D02*
X567506D01*
X566219Y406373D01*
X565235Y405388D01*
X564702Y404102D01*
Y402710D01*
X565235Y401423D01*
X566219Y400439D01*
X567506Y399906D01*
X568898D01*
X570185Y400439D01*
X570925Y401179D01*
X572033Y400233D01*
X571500Y398946D01*
Y397554D01*
X572033Y396267D01*
X572800Y395500D01*
X572033Y394733D01*
X571500Y393446D01*
Y392054D01*
X572033Y390767D01*
X573017Y389783D01*
X574304Y389250D01*
X575696D01*
X576983Y389783D01*
X577967Y390767D01*
X578500Y392054D01*
Y393446D01*
X577967Y394733D01*
X577200Y395500D01*
X577967Y396267D01*
X578500Y397554D01*
Y398946D01*
X577967Y400233D01*
X576983Y401217D01*
X575696Y401750D01*
X574304D01*
X573017Y401217D01*
X572277Y400477D01*
X571169Y401423D01*
X571702Y402710D01*
Y404102D01*
X571169Y405388D01*
X570185Y406373D01*
X568898Y406906D01*
D02*
G37*
G36*
X611056Y399826D02*
X609663D01*
X608377Y399293D01*
X607392Y398308D01*
X606860Y397022D01*
Y395630D01*
X607392Y394343D01*
X608158Y393578D01*
X607388Y392808D01*
X606855Y391522D01*
Y390130D01*
X607388Y388843D01*
X608373Y387859D01*
X609659Y387326D01*
X611052D01*
X612338Y387859D01*
X613322Y388843D01*
X613855Y390130D01*
Y391522D01*
X613322Y392808D01*
X612557Y393574D01*
X613327Y394343D01*
X613859Y395630D01*
Y397022D01*
X613327Y398308D01*
X612342Y399293D01*
X611056Y399826D01*
D02*
G37*
G36*
X557696Y389954D02*
X556304D01*
X555017Y389421D01*
X554033Y388437D01*
X553500Y387150D01*
Y385758D01*
X554033Y384472D01*
X555017Y383487D01*
X556304Y382954D01*
X557696D01*
X558983Y383487D01*
X559967Y384472D01*
X560500Y385758D01*
Y387150D01*
X559967Y388437D01*
X558983Y389421D01*
X557696Y389954D01*
D02*
G37*
G36*
X769446Y389750D02*
X768054D01*
X766767Y389217D01*
X765783Y388233D01*
X765250Y386946D01*
Y385554D01*
X765783Y384268D01*
X766767Y383283D01*
X768054Y382750D01*
X769446D01*
X770732Y383283D01*
X771717Y384268D01*
X772250Y385554D01*
Y386946D01*
X771717Y388233D01*
X770732Y389217D01*
X769446Y389750D01*
D02*
G37*
G36*
X153993Y397790D02*
X152007D01*
X150090Y397276D01*
X148370Y396284D01*
X146966Y394880D01*
X145974Y393161D01*
X145460Y391243D01*
Y389258D01*
X145974Y387340D01*
X146966Y385620D01*
X148370Y384217D01*
X150090Y383224D01*
X152007Y382710D01*
X153993D01*
X155910Y383224D01*
X157630Y384217D01*
X159033Y385620D01*
X160026Y387340D01*
X160540Y389258D01*
Y391243D01*
X160026Y393161D01*
X159033Y394880D01*
X157630Y396284D01*
X155910Y397276D01*
X153993Y397790D01*
D02*
G37*
G36*
X543617Y388528D02*
X542225D01*
X540938Y387995D01*
X539954Y387010D01*
X539421Y385724D01*
Y384332D01*
X539954Y383045D01*
X540938Y382061D01*
X542225Y381528D01*
X543617D01*
X544904Y382061D01*
X545888Y383045D01*
X546421Y384332D01*
Y385724D01*
X545888Y387010D01*
X544904Y387995D01*
X543617Y388528D01*
D02*
G37*
G36*
X747446Y386000D02*
X746054D01*
X744767Y385467D01*
X743783Y384483D01*
X743250Y383196D01*
Y381804D01*
X743783Y380517D01*
X744767Y379533D01*
X746054Y379000D01*
X747446D01*
X748733Y379533D01*
X749717Y380517D01*
X750250Y381804D01*
Y383196D01*
X749717Y384483D01*
X748733Y385467D01*
X747446Y386000D01*
D02*
G37*
G36*
X134250Y382721D02*
Y376500D01*
X140471D01*
X140026Y378160D01*
X139033Y379880D01*
X137630Y381283D01*
X135910Y382276D01*
X134250Y382721D01*
D02*
G37*
G36*
X131750D02*
X130090Y382276D01*
X128370Y381283D01*
X126966Y379880D01*
X125974Y378160D01*
X125529Y376500D01*
X131750D01*
Y382721D01*
D02*
G37*
G36*
X965684Y395850D02*
X963116D01*
X960637Y395185D01*
X958413Y393902D01*
X956598Y392086D01*
X955314Y389863D01*
X954650Y387383D01*
Y384816D01*
X955314Y382336D01*
X956598Y380113D01*
X958413Y378298D01*
X960637Y377014D01*
X963116Y376350D01*
X965684D01*
X968163Y377014D01*
X970387Y378298D01*
X972202Y380113D01*
X973485Y382336D01*
X974150Y384816D01*
Y387383D01*
X973485Y389863D01*
X972202Y392086D01*
X970387Y393902D01*
X968163Y395185D01*
X965684Y395850D01*
D02*
G37*
G36*
X940284D02*
X937716D01*
X935237Y395185D01*
X933013Y393902D01*
X931198Y392086D01*
X929914Y389863D01*
X929250Y387383D01*
Y384816D01*
X929914Y382336D01*
X931198Y380113D01*
X933013Y378298D01*
X935237Y377014D01*
X937716Y376350D01*
X940284D01*
X942763Y377014D01*
X944986Y378298D01*
X946802Y380113D01*
X948085Y382336D01*
X948750Y384816D01*
Y387383D01*
X948085Y389863D01*
X946802Y392086D01*
X944986Y393902D01*
X942763Y395185D01*
X940284Y395850D01*
D02*
G37*
G36*
X914883D02*
X912316D01*
X909837Y395185D01*
X907613Y393902D01*
X905798Y392086D01*
X904514Y389863D01*
X903850Y387383D01*
Y384816D01*
X904514Y382336D01*
X905798Y380113D01*
X907613Y378298D01*
X909837Y377014D01*
X912316Y376350D01*
X914883D01*
X917363Y377014D01*
X919586Y378298D01*
X921402Y380113D01*
X922685Y382336D01*
X923350Y384816D01*
Y387383D01*
X922685Y389863D01*
X921402Y392086D01*
X919586Y393902D01*
X917363Y395185D01*
X914883Y395850D01*
D02*
G37*
G36*
X508196Y381000D02*
X506804D01*
X505517Y380467D01*
X504533Y379483D01*
X504000Y378196D01*
Y376804D01*
X504533Y375517D01*
X505517Y374533D01*
X506804Y374000D01*
X508196D01*
X509483Y374533D01*
X510467Y375517D01*
X511000Y376804D01*
Y378196D01*
X510467Y379483D01*
X509483Y380467D01*
X508196Y381000D01*
D02*
G37*
G36*
X756446Y379500D02*
X755054D01*
X753767Y378967D01*
X752783Y377983D01*
X752250Y376696D01*
Y375304D01*
X752783Y374017D01*
X753767Y373033D01*
X755054Y372500D01*
X756446D01*
X757733Y373033D01*
X758717Y374017D01*
X759250Y375304D01*
Y376696D01*
X758717Y377983D01*
X757733Y378967D01*
X756446Y379500D01*
D02*
G37*
G36*
X526763Y378505D02*
X525370D01*
X524084Y377972D01*
X523099Y376987D01*
X522566Y375701D01*
Y374309D01*
X523099Y373022D01*
X524084Y372038D01*
X525370Y371505D01*
X526763D01*
X528049Y372038D01*
X529034Y373022D01*
X529566Y374309D01*
Y375701D01*
X529034Y376987D01*
X528049Y377972D01*
X526763Y378505D01*
D02*
G37*
G36*
X140471Y374000D02*
X134250D01*
Y367779D01*
X135910Y368224D01*
X137630Y369216D01*
X139033Y370620D01*
X140026Y372340D01*
X140471Y374000D01*
D02*
G37*
G36*
X131750D02*
X125529D01*
X125974Y372340D01*
X126966Y370620D01*
X128370Y369216D01*
X130090Y368224D01*
X131750Y367779D01*
Y374000D01*
D02*
G37*
G36*
X940744Y373950D02*
X937255D01*
X933886Y373047D01*
X930864Y371302D01*
X928397Y368835D01*
X927166Y366703D01*
X925434D01*
X924202Y368835D01*
X921736Y371302D01*
X918714Y373047D01*
X915344Y373950D01*
X911855D01*
X908486Y373047D01*
X905464Y371302D01*
X902997Y368835D01*
X901253Y365814D01*
X900350Y362444D01*
Y358955D01*
X901253Y355586D01*
X902997Y352564D01*
X905464Y350097D01*
X907597Y348866D01*
Y347134D01*
X905464Y345902D01*
X902997Y343436D01*
X901253Y340414D01*
X900350Y337044D01*
Y333555D01*
X901253Y330186D01*
X902997Y327164D01*
X905464Y324697D01*
X907597Y323466D01*
Y321734D01*
X905464Y320502D01*
X902997Y318036D01*
X901253Y315014D01*
X900350Y311644D01*
Y308155D01*
X901253Y304785D01*
X902997Y301764D01*
X905464Y299297D01*
X907597Y298066D01*
Y296334D01*
X905464Y295102D01*
X902997Y292635D01*
X901253Y289614D01*
X900350Y286244D01*
Y282755D01*
X901253Y279386D01*
X902997Y276364D01*
X905464Y273897D01*
X908486Y272153D01*
X911855Y271250D01*
X915344D01*
X918714Y272153D01*
X921736Y273897D01*
X924202Y276364D01*
X925434Y278497D01*
X927166D01*
X928397Y276364D01*
X930864Y273897D01*
X933886Y272153D01*
X937255Y271250D01*
X940744D01*
X944114Y272153D01*
X947136Y273897D01*
X949603Y276364D01*
X951347Y279386D01*
X952250Y282755D01*
Y286244D01*
X951347Y289614D01*
X949603Y292635D01*
X947136Y295102D01*
X945003Y296334D01*
Y298066D01*
X947136Y299297D01*
X949603Y301764D01*
X951347Y304785D01*
X952250Y308155D01*
Y311644D01*
X951347Y315014D01*
X949603Y318036D01*
X947136Y320502D01*
X945003Y321734D01*
Y323466D01*
X947136Y324697D01*
X949603Y327164D01*
X951347Y330186D01*
X952250Y333555D01*
Y337044D01*
X951347Y340414D01*
X949603Y343436D01*
X947136Y345902D01*
X945003Y347134D01*
Y348866D01*
X947136Y350097D01*
X949603Y352564D01*
X951347Y355586D01*
X952250Y358955D01*
Y362444D01*
X951347Y365814D01*
X949603Y368835D01*
X947136Y371302D01*
X944114Y373047D01*
X940744Y373950D01*
D02*
G37*
G36*
X216094Y381500D02*
X213906D01*
X211884Y380663D01*
X210337Y379115D01*
X209500Y377094D01*
Y374906D01*
X210337Y372884D01*
X211884Y371337D01*
X213906Y370500D01*
X216094D01*
X216184Y370537D01*
X217500Y369459D01*
Y367906D01*
X218337Y365885D01*
X219884Y364337D01*
X221906Y363500D01*
X224094D01*
X226115Y364337D01*
X227663Y365885D01*
X228500Y367906D01*
Y370094D01*
X227663Y372116D01*
X226115Y373663D01*
X224094Y374500D01*
X221906D01*
X221816Y374463D01*
X220500Y375541D01*
Y377094D01*
X219663Y379115D01*
X218116Y380663D01*
X216094Y381500D01*
D02*
G37*
G36*
X153993Y377790D02*
X152007D01*
X150090Y377276D01*
X148370Y376284D01*
X146966Y374880D01*
X145974Y373161D01*
X145460Y371243D01*
Y369258D01*
X145974Y367340D01*
X146966Y365621D01*
X148370Y364217D01*
X150090Y363224D01*
X152007Y362710D01*
X153993D01*
X155910Y363224D01*
X157630Y364217D01*
X159033Y365621D01*
X160026Y367340D01*
X160540Y369258D01*
Y371243D01*
X160026Y373161D01*
X159033Y374880D01*
X157630Y376284D01*
X155910Y377276D01*
X153993Y377790D01*
D02*
G37*
G36*
X573447Y369500D02*
X572054D01*
X570768Y368967D01*
X569783Y367982D01*
X569250Y366696D01*
Y365304D01*
X569783Y364017D01*
X570768Y363033D01*
X572054Y362500D01*
X572298D01*
X573139Y362307D01*
Y360915D01*
X573672Y359629D01*
X574656Y358644D01*
X575943Y358111D01*
X577335D01*
X578621Y358644D01*
X579606Y359629D01*
X580139Y360915D01*
Y362307D01*
X579606Y363594D01*
X578621Y364578D01*
X577335Y365111D01*
X577091D01*
X576250Y365304D01*
Y366696D01*
X575717Y367982D01*
X574733Y368967D01*
X573447Y369500D01*
D02*
G37*
G36*
X470325Y368071D02*
X468932D01*
X467646Y367538D01*
X466662Y366553D01*
X466129Y365267D01*
Y363875D01*
X466662Y362588D01*
X467429Y361821D01*
X466662Y361053D01*
X466129Y359767D01*
Y358374D01*
X466662Y357088D01*
X467646Y356104D01*
X468932Y355571D01*
X470325D01*
X471611Y356104D01*
X472596Y357088D01*
X473129Y358374D01*
Y359767D01*
X472596Y361053D01*
X471828Y361821D01*
X472596Y362588D01*
X473129Y363875D01*
Y365267D01*
X472596Y366553D01*
X471611Y367538D01*
X470325Y368071D01*
D02*
G37*
G36*
X119781Y362630D02*
X116219D01*
X112726Y361935D01*
X109436Y360572D01*
X109204Y360417D01*
X110621Y358999D01*
X103550Y351928D01*
X102133Y353346D01*
X101978Y353114D01*
X100615Y349824D01*
X99920Y346331D01*
Y342769D01*
X100615Y339276D01*
X101978Y335986D01*
X102133Y335754D01*
X103550Y337172D01*
X110621Y330101D01*
X109204Y328683D01*
X109436Y328528D01*
X112726Y327165D01*
X116219Y326470D01*
X119781D01*
X123273Y327165D01*
X126564Y328528D01*
X126796Y328683D01*
X125378Y330101D01*
X132449Y337172D01*
X133867Y335754D01*
X134022Y335986D01*
X135385Y339276D01*
X136080Y342769D01*
Y346331D01*
X135385Y349824D01*
X134022Y353114D01*
X133867Y353346D01*
X132449Y351928D01*
X125378Y358999D01*
X126796Y360417D01*
X126564Y360572D01*
X123273Y361935D01*
X119781Y362630D01*
D02*
G37*
G36*
X965684Y370450D02*
X963116D01*
X960637Y369785D01*
X958413Y368502D01*
X956598Y366686D01*
X955314Y364463D01*
X954650Y361983D01*
Y359416D01*
X955314Y356936D01*
X956598Y354713D01*
X958413Y352898D01*
X960637Y351614D01*
X963116Y350950D01*
X965684D01*
X968163Y351614D01*
X970387Y352898D01*
X972202Y354713D01*
X973485Y356936D01*
X974150Y359416D01*
Y361983D01*
X973485Y364463D01*
X972202Y366686D01*
X970387Y368502D01*
X968163Y369785D01*
X965684Y370450D01*
D02*
G37*
G36*
X567946Y356500D02*
X566554D01*
X565267Y355967D01*
X564283Y354983D01*
X563750Y353696D01*
Y352304D01*
X564283Y351017D01*
X565267Y350033D01*
X566554Y349500D01*
X567946D01*
X569233Y350033D01*
X570217Y351017D01*
X570750Y352304D01*
Y353696D01*
X570217Y354983D01*
X569233Y355967D01*
X567946Y356500D01*
D02*
G37*
G36*
X158094Y349500D02*
X155906D01*
X153884Y348663D01*
X152337Y347116D01*
X151500Y345094D01*
Y342906D01*
X152337Y340885D01*
X153884Y339337D01*
X155906Y338500D01*
X158094D01*
X160116Y339337D01*
X161663Y340885D01*
X162500Y342906D01*
Y345094D01*
X161663Y347116D01*
X160116Y348663D01*
X158094Y349500D01*
D02*
G37*
G36*
X562959Y342293D02*
X561567D01*
X560281Y341760D01*
X559296Y340776D01*
X558763Y339489D01*
Y338097D01*
X559296Y336810D01*
X560281Y335826D01*
X561567Y335293D01*
X562959D01*
X564246Y335826D01*
X565230Y336810D01*
X565763Y338097D01*
Y339489D01*
X565230Y340776D01*
X564246Y341760D01*
X562959Y342293D01*
D02*
G37*
G36*
X795571Y336125D02*
X794179D01*
X792892Y335592D01*
X791908Y334608D01*
X791375Y333321D01*
Y331929D01*
X791908Y330642D01*
X792892Y329658D01*
X794179Y329125D01*
X795571D01*
X796858Y329658D01*
X797842Y330642D01*
X798375Y331929D01*
Y333321D01*
X797842Y334608D01*
X796858Y335592D01*
X795571Y336125D01*
D02*
G37*
G36*
X805696Y336000D02*
X804304D01*
X803017Y335467D01*
X802033Y334483D01*
X801500Y333196D01*
Y331804D01*
X802033Y330517D01*
X803017Y329533D01*
X804304Y329000D01*
X805696D01*
X806983Y329533D01*
X807967Y330517D01*
X808500Y331804D01*
Y333196D01*
X807967Y334483D01*
X806983Y335467D01*
X805696Y336000D01*
D02*
G37*
G36*
X965684Y345050D02*
X963116D01*
X960637Y344385D01*
X958413Y343102D01*
X956598Y341286D01*
X955314Y339063D01*
X954650Y336583D01*
Y334016D01*
X955314Y331536D01*
X956598Y329313D01*
X958413Y327498D01*
X960637Y326214D01*
X963116Y325550D01*
X965684D01*
X968163Y326214D01*
X970387Y327498D01*
X972202Y329313D01*
X973485Y331536D01*
X974150Y334016D01*
Y336583D01*
X973485Y339063D01*
X972202Y341286D01*
X970387Y343102D01*
X968163Y344385D01*
X965684Y345050D01*
D02*
G37*
G36*
X728196Y326000D02*
X726804D01*
X725517Y325467D01*
X724533Y324483D01*
X724000Y323196D01*
Y321804D01*
X724533Y320517D01*
X725517Y319533D01*
X726804Y319000D01*
X728196D01*
X729483Y319533D01*
X730467Y320517D01*
X731000Y321804D01*
Y323196D01*
X730467Y324483D01*
X729483Y325467D01*
X728196Y326000D01*
D02*
G37*
G36*
X146696Y315500D02*
X145304D01*
X144017Y314967D01*
X143980Y314930D01*
X143000Y314013D01*
X142020Y314930D01*
X141983Y314967D01*
X140696Y315500D01*
X139304D01*
X138017Y314967D01*
X137980Y314930D01*
X137000Y314013D01*
X136020Y314930D01*
X135983Y314967D01*
X134696Y315500D01*
X133304D01*
X132017Y314967D01*
X131980Y314930D01*
X131000Y314013D01*
X130020Y314930D01*
X129983Y314967D01*
X128696Y315500D01*
X127304D01*
X126017Y314967D01*
X125980Y314930D01*
X125000Y314013D01*
X124020Y314930D01*
X123983Y314967D01*
X122696Y315500D01*
X121304D01*
X120017Y314967D01*
X119980Y314930D01*
X119000Y314013D01*
X118020Y314930D01*
X117983Y314967D01*
X116696Y315500D01*
X115304D01*
X114017Y314967D01*
X113980Y314930D01*
X113000Y314013D01*
X112020Y314930D01*
X111983Y314967D01*
X110696Y315500D01*
X109304D01*
X108017Y314967D01*
X107980Y314930D01*
X107000Y314013D01*
X106020Y314930D01*
X105983Y314967D01*
X104696Y315500D01*
X103304D01*
X102017Y314967D01*
X101033Y313983D01*
X100500Y312696D01*
Y311304D01*
X101033Y310017D01*
X102017Y309033D01*
X103304Y308500D01*
X104696D01*
X105983Y309033D01*
X106020Y309070D01*
X107000Y309987D01*
X107980Y309070D01*
X108017Y309033D01*
X109304Y308500D01*
X110696D01*
X111983Y309033D01*
X112020Y309070D01*
X113000Y309987D01*
X113980Y309070D01*
X114017Y309033D01*
X115304Y308500D01*
X116696D01*
X117983Y309033D01*
X118020Y309070D01*
X118215Y309253D01*
X119221Y308906D01*
X119332Y307281D01*
X119033Y306983D01*
X118500Y305696D01*
Y304304D01*
X119033Y303017D01*
X120017Y302033D01*
X121304Y301500D01*
X122696D01*
X123983Y302033D01*
X124967Y303017D01*
X125500Y304304D01*
Y305696D01*
X124967Y306983D01*
X124668Y307281D01*
X124779Y308906D01*
X125785Y309253D01*
X125980Y309070D01*
X126017Y309033D01*
X127304Y308500D01*
X128696D01*
X129983Y309033D01*
X130020Y309070D01*
X131000Y309987D01*
X131980Y309070D01*
X132017Y309033D01*
X133304Y308500D01*
X134696D01*
X135983Y309033D01*
X136020Y309070D01*
X137000Y309987D01*
X137980Y309070D01*
X138017Y309033D01*
X139304Y308500D01*
X140696D01*
X141983Y309033D01*
X142020Y309070D01*
X142215Y309253D01*
X143221Y308906D01*
X143332Y307281D01*
X143033Y306983D01*
X142500Y305696D01*
Y304304D01*
X143033Y303017D01*
X144017Y302033D01*
X145304Y301500D01*
X146696D01*
X147983Y302033D01*
X148967Y303017D01*
X149500Y304304D01*
Y305696D01*
X148967Y306983D01*
X148377Y307573D01*
X148127Y308500D01*
X148377Y309427D01*
X148967Y310017D01*
X149500Y311304D01*
Y312696D01*
X148967Y313983D01*
X147983Y314967D01*
X146696Y315500D01*
D02*
G37*
G36*
X159094Y319500D02*
X156906D01*
X154885Y318663D01*
X153337Y317115D01*
X152500Y315094D01*
Y312906D01*
X153337Y310884D01*
X154885Y309337D01*
X156906Y308500D01*
X159094D01*
X161115Y309337D01*
X162663Y310884D01*
X163500Y312906D01*
Y315094D01*
X162663Y317115D01*
X161115Y318663D01*
X159094Y319500D01*
D02*
G37*
G36*
X768196Y308500D02*
X766804D01*
X765517Y307967D01*
X764533Y306983D01*
X764000Y305696D01*
Y304304D01*
X764533Y303017D01*
X765517Y302033D01*
X766804Y301500D01*
X768196D01*
X769483Y302033D01*
X770467Y303017D01*
X771000Y304304D01*
Y305696D01*
X770467Y306983D01*
X769483Y307967D01*
X768196Y308500D01*
D02*
G37*
G36*
X965684Y319650D02*
X963116D01*
X960637Y318985D01*
X958413Y317702D01*
X956598Y315886D01*
X955314Y313663D01*
X954650Y311183D01*
Y308616D01*
X955314Y306136D01*
X956598Y303913D01*
X958413Y302098D01*
X960637Y300814D01*
X963116Y300150D01*
X965684D01*
X968163Y300814D01*
X970387Y302098D01*
X972202Y303913D01*
X973485Y306136D01*
X974150Y308616D01*
Y311183D01*
X973485Y313663D01*
X972202Y315886D01*
X970387Y317702D01*
X968163Y318985D01*
X965684Y319650D01*
D02*
G37*
G36*
X100094Y300500D02*
X97906D01*
X95885Y299663D01*
X94980Y298758D01*
X94000Y298280D01*
X93020Y298758D01*
X92115Y299663D01*
X90094Y300500D01*
X87906D01*
X85885Y299663D01*
X84337Y298116D01*
X83500Y296094D01*
Y293906D01*
X84337Y291884D01*
X85722Y290500D01*
X84337Y289116D01*
X83500Y287094D01*
Y284906D01*
X84337Y282885D01*
X85885Y281337D01*
X87906Y280500D01*
X90094D01*
X92115Y281337D01*
X93020Y282242D01*
X94000Y282720D01*
X94980Y282242D01*
X95885Y281337D01*
X97906Y280500D01*
X100094D01*
X102115Y281337D01*
X103663Y282885D01*
X104500Y284906D01*
Y287094D01*
X103663Y289116D01*
X102278Y290500D01*
X103663Y291884D01*
X104500Y293906D01*
Y296094D01*
X103663Y298116D01*
X102115Y299663D01*
X100094Y300500D01*
D02*
G37*
G36*
X64695Y303150D02*
X62805D01*
X61059Y302427D01*
X59723Y301091D01*
X59000Y299345D01*
Y297455D01*
X59723Y295709D01*
X61059Y294373D01*
X62805Y293650D01*
X64695D01*
X66441Y294373D01*
X67777Y295709D01*
X68500Y297455D01*
Y299345D01*
X67777Y301091D01*
X66441Y302427D01*
X64695Y303150D01*
D02*
G37*
G36*
X159094Y301500D02*
X156906D01*
X154885Y300663D01*
X153337Y299116D01*
X152500Y297094D01*
Y294906D01*
X153337Y292885D01*
X154885Y291337D01*
X156906Y290500D01*
X159094D01*
X161115Y291337D01*
X162663Y292885D01*
X163500Y294906D01*
Y297094D01*
X162663Y299116D01*
X161115Y300663D01*
X159094Y301500D01*
D02*
G37*
G36*
X470696Y298500D02*
X469304D01*
X468018Y297967D01*
X467033Y296983D01*
X466500Y295696D01*
Y294304D01*
X467033Y293018D01*
X467800Y292250D01*
X467033Y291483D01*
X466500Y290196D01*
Y288804D01*
X467033Y287518D01*
X468018Y286533D01*
X469304Y286000D01*
X470696D01*
X471983Y286533D01*
X472967Y287518D01*
X473500Y288804D01*
Y290196D01*
X472967Y291483D01*
X472200Y292250D01*
X472967Y293018D01*
X473500Y294304D01*
Y295696D01*
X472967Y296983D01*
X471983Y297967D01*
X470696Y298500D01*
D02*
G37*
G36*
X174094Y319500D02*
X171906D01*
X169884Y318663D01*
X168337Y317115D01*
X167500Y315094D01*
Y312906D01*
X168337Y310884D01*
X169722Y309500D01*
X168337Y308116D01*
X167500Y306094D01*
Y303906D01*
X168337Y301884D01*
X169722Y300500D01*
X168337Y299116D01*
X167500Y297094D01*
Y294906D01*
X168337Y292885D01*
X169722Y291500D01*
X168337Y290116D01*
X167500Y288094D01*
Y285906D01*
X168337Y283885D01*
X169884Y282337D01*
X171906Y281500D01*
X174094D01*
X176115Y282337D01*
X177663Y283885D01*
X178500Y285906D01*
Y288094D01*
X177663Y290116D01*
X176278Y291500D01*
X177663Y292885D01*
X178500Y294906D01*
Y297094D01*
X177663Y299116D01*
X176278Y300500D01*
X177663Y301884D01*
X178500Y303906D01*
Y306094D01*
X177663Y308116D01*
X176278Y309500D01*
X177663Y310884D01*
X178500Y312906D01*
Y315094D01*
X177663Y317115D01*
X176115Y318663D01*
X174094Y319500D01*
D02*
G37*
G36*
X478196Y286500D02*
X476804D01*
X475517Y285967D01*
X474533Y284983D01*
X474000Y283696D01*
Y282304D01*
X474533Y281017D01*
X475517Y280033D01*
X476804Y279500D01*
X478196D01*
X479483Y280033D01*
X480467Y281017D01*
X481000Y282304D01*
Y283696D01*
X480467Y284983D01*
X479483Y285967D01*
X478196Y286500D01*
D02*
G37*
G36*
X61696Y285500D02*
X60304D01*
X59017Y284967D01*
X58033Y283983D01*
X57500Y282696D01*
Y281304D01*
X58033Y280017D01*
X59017Y279033D01*
X60304Y278500D01*
X61696D01*
X62983Y279033D01*
X63967Y280017D01*
X64500Y281304D01*
Y282696D01*
X63967Y283983D01*
X62983Y284967D01*
X61696Y285500D01*
D02*
G37*
G36*
X965684Y294250D02*
X963116D01*
X960637Y293585D01*
X958413Y292302D01*
X956598Y290486D01*
X955314Y288263D01*
X954650Y285783D01*
Y283216D01*
X955314Y280736D01*
X956598Y278513D01*
X958413Y276698D01*
X960637Y275414D01*
X963116Y274750D01*
X965684D01*
X968163Y275414D01*
X970387Y276698D01*
X972202Y278513D01*
X973485Y280736D01*
X974150Y283216D01*
Y285783D01*
X973485Y288263D01*
X972202Y290486D01*
X970387Y292302D01*
X968163Y293585D01*
X965684Y294250D01*
D02*
G37*
G36*
X842103Y278000D02*
X840711D01*
X839425Y277467D01*
X838440Y276483D01*
X837907Y275196D01*
Y273804D01*
X838440Y272517D01*
X839425Y271533D01*
X840711Y271000D01*
X842103D01*
X843390Y271533D01*
X844374Y272517D01*
X844907Y273804D01*
Y275196D01*
X844374Y276483D01*
X843390Y277467D01*
X842103Y278000D01*
D02*
G37*
G36*
X538980Y277811D02*
X537588D01*
X536301Y277279D01*
X535317Y276294D01*
X534784Y275008D01*
Y273615D01*
X535317Y272329D01*
X536301Y271344D01*
X537588Y270811D01*
X538980D01*
X540266Y271344D01*
X541251Y272329D01*
X541784Y273615D01*
Y275008D01*
X541251Y276294D01*
X540266Y277279D01*
X538980Y277811D01*
D02*
G37*
G36*
X382144Y274190D02*
X379856D01*
X377646Y273598D01*
X375664Y272454D01*
X374046Y270836D01*
X373394Y269707D01*
X373027Y269585D01*
X371602Y269597D01*
X370983Y270217D01*
X369696Y270750D01*
X368304D01*
X367017Y270217D01*
X366033Y269233D01*
X365500Y267946D01*
Y266554D01*
X366033Y265267D01*
X366514Y264786D01*
X366247Y263111D01*
X366240Y263100D01*
X365678Y262867D01*
X364693Y261883D01*
X364160Y260596D01*
Y259204D01*
X364693Y257917D01*
X365678Y256933D01*
X366964Y256400D01*
X368357D01*
X369643Y256933D01*
X370628Y257917D01*
X371160Y259204D01*
Y260596D01*
X370628Y261883D01*
X371024Y263500D01*
X371076Y263527D01*
X372726Y262802D01*
X372902Y262146D01*
X374046Y260164D01*
X375664Y258546D01*
X377646Y257402D01*
X379856Y256810D01*
X382144D01*
X384354Y257402D01*
X386336Y258546D01*
X387954Y260164D01*
X389098Y262146D01*
X389690Y264356D01*
Y266644D01*
X389098Y268854D01*
X387954Y270836D01*
X386336Y272454D01*
X384354Y273598D01*
X382144Y274190D01*
D02*
G37*
G36*
X174696Y270750D02*
X173304D01*
X172017Y270217D01*
X171033Y269233D01*
X170500Y267946D01*
Y266554D01*
X171033Y265267D01*
X172017Y264283D01*
X173304Y263750D01*
X174696D01*
X175983Y264283D01*
X176967Y265267D01*
X177500Y266554D01*
Y267946D01*
X176967Y269233D01*
X175983Y270217D01*
X174696Y270750D01*
D02*
G37*
G36*
X191550Y270000D02*
X190157D01*
X188871Y269467D01*
X187886Y268483D01*
X187354Y267196D01*
Y265804D01*
X187886Y264517D01*
X188871Y263533D01*
X190157Y263000D01*
X191550D01*
X192836Y263533D01*
X193821Y264517D01*
X194354Y265804D01*
Y267196D01*
X193821Y268483D01*
X192836Y269467D01*
X191550Y270000D01*
D02*
G37*
G36*
X295946Y276000D02*
X294554D01*
X293267Y275467D01*
X292283Y274483D01*
X291750Y273196D01*
Y271804D01*
X292283Y270517D01*
X293267Y269533D01*
X293249Y267917D01*
X292767Y267717D01*
X291783Y266733D01*
X291250Y265446D01*
Y264054D01*
X291783Y262767D01*
X292767Y261783D01*
X294054Y261250D01*
X295446D01*
X296733Y261783D01*
X297717Y262767D01*
X298250Y264054D01*
Y265446D01*
X297717Y266733D01*
X296733Y267717D01*
X296751Y269333D01*
X297233Y269533D01*
X298217Y270517D01*
X298750Y271804D01*
Y273196D01*
X298217Y274483D01*
X297233Y275467D01*
X295946Y276000D01*
D02*
G37*
G36*
X772696Y265500D02*
X771304D01*
X770017Y264967D01*
X769033Y263983D01*
X768500Y262696D01*
Y261304D01*
X769033Y260017D01*
X770017Y259033D01*
X771304Y258500D01*
X772696D01*
X773983Y259033D01*
X774967Y260017D01*
X775500Y261304D01*
Y262696D01*
X774967Y263983D01*
X773983Y264967D01*
X772696Y265500D01*
D02*
G37*
G36*
X752496Y264500D02*
X751104D01*
X749817Y263967D01*
X748833Y262983D01*
X748300Y261696D01*
Y260304D01*
X748833Y259017D01*
X749817Y258033D01*
X751104Y257500D01*
X752496D01*
X753783Y258033D01*
X754767Y259017D01*
X755300Y260304D01*
Y261696D01*
X754767Y262983D01*
X753783Y263967D01*
X752496Y264500D01*
D02*
G37*
G36*
X280144Y274190D02*
X277856D01*
X275646Y273598D01*
X273664Y272454D01*
X272047Y270836D01*
X270902Y268854D01*
X270310Y266644D01*
Y264356D01*
X270902Y262146D01*
X272047Y260164D01*
X273664Y258546D01*
X275646Y257402D01*
X277856Y256810D01*
X280144D01*
X282354Y257402D01*
X284336Y258546D01*
X285954Y260164D01*
X287098Y262146D01*
X287690Y264356D01*
Y266644D01*
X287098Y268854D01*
X285954Y270836D01*
X284336Y272454D01*
X282354Y273598D01*
X280144Y274190D01*
D02*
G37*
G36*
X792094Y252750D02*
X789906D01*
X787885Y251913D01*
X786338Y250366D01*
X786260Y250179D01*
X784663Y250115D01*
X783115Y251662D01*
X781094Y252500D01*
X778906D01*
X776885Y251662D01*
X775655Y250433D01*
X774750Y250240D01*
X773845Y250433D01*
X772616Y251662D01*
X770594Y252500D01*
X768406D01*
X766385Y251662D01*
X764837Y250115D01*
X764000Y248094D01*
Y245906D01*
X764837Y243884D01*
X766385Y242337D01*
X768326Y241533D01*
X768717Y241303D01*
X769419Y240253D01*
X769250Y239844D01*
Y237656D01*
X770087Y235634D01*
X771634Y234087D01*
X773656Y233250D01*
X775844D01*
X777865Y234087D01*
X779412Y235634D01*
X779667Y236248D01*
X781290D01*
X781337Y236135D01*
X782885Y234588D01*
X784906Y233750D01*
X787094D01*
X789115Y234588D01*
X790345Y235817D01*
X791250Y236010D01*
X792155Y235817D01*
X793384Y234588D01*
X795406Y233750D01*
X797594D01*
X799615Y234588D01*
X801162Y236135D01*
X802000Y238156D01*
Y240344D01*
X801162Y242366D01*
X799615Y243913D01*
X797594Y244750D01*
X797268D01*
X796434Y245997D01*
X796500Y246156D01*
Y248344D01*
X795663Y250366D01*
X794116Y251913D01*
X792094Y252750D01*
D02*
G37*
G36*
X61696Y255500D02*
X60304D01*
X59017Y254967D01*
X58033Y253983D01*
X57500Y252696D01*
Y251304D01*
X58033Y250017D01*
X59017Y249033D01*
X60304Y248500D01*
X61696D01*
X62983Y249033D01*
X63967Y250017D01*
X64500Y251304D01*
Y252696D01*
X63967Y253983D01*
X62983Y254967D01*
X61696Y255500D01*
D02*
G37*
G36*
X190094Y248500D02*
X187906D01*
X185884Y247663D01*
X184337Y246115D01*
X184312Y246054D01*
X182688D01*
X182663Y246115D01*
X181115Y247663D01*
X179094Y248500D01*
X176906D01*
X174884Y247663D01*
X173337Y246115D01*
X172500Y244094D01*
Y241906D01*
X173337Y239884D01*
X174884Y238337D01*
X176906Y237500D01*
X179094D01*
X181115Y238337D01*
X182663Y239884D01*
X182688Y239946D01*
X184312D01*
X184337Y239884D01*
X185884Y238337D01*
X187906Y237500D01*
X190094D01*
X192115Y238337D01*
X193663Y239884D01*
X194500Y241906D01*
Y244094D01*
X193663Y246115D01*
X192115Y247663D01*
X190094Y248500D01*
D02*
G37*
G36*
X535696Y252500D02*
X534304D01*
X533017Y251967D01*
X532033Y250983D01*
X531500Y249696D01*
Y248304D01*
X532033Y247017D01*
X533017Y246033D01*
X534304Y245500D01*
X535696D01*
X536983Y246033D01*
X537967Y247017D01*
X538500Y248304D01*
Y249696D01*
X537967Y250983D01*
X536983Y251967D01*
X535696Y252500D01*
D02*
G37*
G36*
X501696Y249500D02*
X500304D01*
X499017Y248967D01*
X498033Y247983D01*
X497500Y246696D01*
Y245304D01*
X498033Y244017D01*
X499017Y243033D01*
X500304Y242500D01*
X501696D01*
X502983Y243033D01*
X503967Y244017D01*
X504500Y245304D01*
Y246696D01*
X503967Y247983D01*
X502983Y248967D01*
X501696Y249500D01*
D02*
G37*
G36*
X443696D02*
X442304D01*
X441017Y248967D01*
X440033Y247983D01*
X439500Y246696D01*
Y245304D01*
X440033Y244017D01*
X441017Y243033D01*
X442304Y242500D01*
X443696D01*
X444983Y243033D01*
X445967Y244017D01*
X446500Y245304D01*
Y246696D01*
X445967Y247983D01*
X444983Y248967D01*
X443696Y249500D01*
D02*
G37*
G36*
X429696D02*
X428304D01*
X427017Y248967D01*
X426033Y247983D01*
X425500Y246696D01*
Y245304D01*
X426033Y244017D01*
X427017Y243033D01*
X428304Y242500D01*
X429696D01*
X430983Y243033D01*
X431967Y244017D01*
X432500Y245304D01*
Y246696D01*
X431967Y247983D01*
X430983Y248967D01*
X429696Y249500D01*
D02*
G37*
G36*
X409696D02*
X408304D01*
X407017Y248967D01*
X406033Y247983D01*
X405500Y246696D01*
Y245304D01*
X406033Y244017D01*
X407017Y243033D01*
X408304Y242500D01*
X409696D01*
X410983Y243033D01*
X411967Y244017D01*
X412500Y245304D01*
Y246696D01*
X411967Y247983D01*
X410983Y248967D01*
X409696Y249500D01*
D02*
G37*
G36*
X487892Y249452D02*
X486499D01*
X485213Y248919D01*
X484228Y247935D01*
X483696Y246648D01*
Y245256D01*
X484228Y243969D01*
X485213Y242985D01*
X486499Y242452D01*
X487892D01*
X489178Y242985D01*
X490163Y243969D01*
X490696Y245256D01*
Y246648D01*
X490163Y247935D01*
X489178Y248919D01*
X487892Y249452D01*
D02*
G37*
G36*
X742172Y252422D02*
X739984D01*
X737963Y251584D01*
X736416Y250037D01*
X735578Y248016D01*
Y245828D01*
X736416Y243806D01*
X737963Y242259D01*
X739984Y241422D01*
X742172D01*
X744194Y242259D01*
X745741Y243806D01*
X746578Y245828D01*
Y248016D01*
X745741Y250037D01*
X744194Y251584D01*
X742172Y252422D01*
D02*
G37*
G36*
X363609Y245569D02*
X362217D01*
X360930Y245036D01*
X359946Y244051D01*
X359413Y242765D01*
Y241373D01*
X359946Y240086D01*
X360930Y239102D01*
X362217Y238569D01*
X363609D01*
X364896Y239102D01*
X365880Y240086D01*
X366413Y241373D01*
Y242765D01*
X365880Y244051D01*
X364896Y245036D01*
X363609Y245569D01*
D02*
G37*
G36*
X64695Y245350D02*
X62805D01*
X61059Y244627D01*
X59723Y243291D01*
X59000Y241545D01*
Y239655D01*
X59723Y237909D01*
X61059Y236573D01*
X62805Y235850D01*
X64695D01*
X66441Y236573D01*
X67777Y237909D01*
X68500Y239655D01*
Y241545D01*
X67777Y243291D01*
X66441Y244627D01*
X64695Y245350D01*
D02*
G37*
G36*
X90094Y254500D02*
X87906D01*
X85885Y253663D01*
X84337Y252115D01*
X83500Y250094D01*
Y247906D01*
X84337Y245884D01*
X85722Y244500D01*
X84337Y243116D01*
X83500Y241094D01*
Y238906D01*
X84337Y236884D01*
X85885Y235337D01*
X87906Y234500D01*
X90094D01*
X92115Y235337D01*
X93663Y236884D01*
X94500Y238906D01*
Y241094D01*
X93663Y243116D01*
X92278Y244500D01*
X93663Y245884D01*
X94500Y247906D01*
Y250094D01*
X93663Y252115D01*
X92115Y253663D01*
X90094Y254500D01*
D02*
G37*
G36*
X690696Y238500D02*
X689304D01*
X688017Y237967D01*
X687033Y236983D01*
X686500Y235696D01*
Y234304D01*
X687033Y233017D01*
X688017Y232033D01*
X689304Y231500D01*
X690696D01*
X691983Y232033D01*
X692967Y233017D01*
X693500Y234304D01*
Y235696D01*
X692967Y236983D01*
X691983Y237967D01*
X690696Y238500D01*
D02*
G37*
G36*
X466094Y242500D02*
X463906D01*
X461884Y241663D01*
X460337Y240116D01*
X459500Y238094D01*
Y235906D01*
X460337Y233885D01*
X461884Y232337D01*
X463906Y231500D01*
X466094D01*
X468116Y232337D01*
X469663Y233885D01*
X470500Y235906D01*
Y238094D01*
X469663Y240116D01*
X468116Y241663D01*
X466094Y242500D01*
D02*
G37*
G36*
X886844Y250500D02*
X884656D01*
X882635Y249663D01*
X881087Y248116D01*
X880250Y246094D01*
Y243906D01*
X881087Y241884D01*
X882597Y240375D01*
X881087Y238866D01*
X880250Y236844D01*
Y234656D01*
X881087Y232635D01*
X882635Y231087D01*
X884656Y230250D01*
X886844D01*
X888866Y231087D01*
X890413Y232635D01*
X891250Y234656D01*
Y236844D01*
X890413Y238866D01*
X888903Y240375D01*
X890413Y241884D01*
X891250Y243906D01*
Y246094D01*
X890413Y248116D01*
X888866Y249663D01*
X886844Y250500D01*
D02*
G37*
G36*
X362297Y225726D02*
X360904D01*
X359618Y225193D01*
X358633Y224209D01*
X358100Y222922D01*
Y221530D01*
X358633Y220243D01*
X359618Y219259D01*
X360904Y218726D01*
X362297D01*
X363583Y219259D01*
X364568Y220243D01*
X365100Y221530D01*
Y222922D01*
X364568Y224209D01*
X363583Y225193D01*
X362297Y225726D01*
D02*
G37*
G36*
X991926Y249200D02*
X988873D01*
X985879Y248604D01*
X983058Y247436D01*
X980519Y245739D01*
X978360Y243580D01*
X976664Y241042D01*
X975496Y238221D01*
X974900Y235226D01*
Y232173D01*
X975496Y229179D01*
X976664Y226358D01*
X978360Y223819D01*
X980519Y221660D01*
X983058Y219964D01*
X985879Y218796D01*
X988873Y218200D01*
X991926D01*
X994921Y218796D01*
X997742Y219964D01*
X1000281Y221660D01*
X1002439Y223819D01*
X1004136Y226358D01*
X1005304Y229179D01*
X1005900Y232173D01*
Y235226D01*
X1005304Y238221D01*
X1004136Y241042D01*
X1002439Y243580D01*
X1000281Y245739D01*
X997742Y247436D01*
X994921Y248604D01*
X991926Y249200D01*
D02*
G37*
G36*
X552140Y223534D02*
X550748D01*
X549461Y223001D01*
X548477Y222016D01*
X547944Y220730D01*
Y219337D01*
X548477Y218051D01*
X549461Y217066D01*
X550748Y216534D01*
X552140D01*
X553427Y217066D01*
X554411Y218051D01*
X554944Y219337D01*
Y220730D01*
X554411Y222016D01*
X553427Y223001D01*
X552140Y223534D01*
D02*
G37*
G36*
X321696Y222250D02*
X320304D01*
X319017Y221717D01*
X318033Y220733D01*
X317500Y219446D01*
Y218054D01*
X318033Y216767D01*
X319017Y215783D01*
X320304Y215250D01*
X320161Y213809D01*
X319304Y213809D01*
X318017Y213276D01*
X317033Y212292D01*
X316500Y211005D01*
Y209613D01*
X317033Y208326D01*
X318017Y207342D01*
X319304Y206809D01*
X320696D01*
X321983Y207342D01*
X322967Y208326D01*
X323500Y209613D01*
Y211005D01*
X322967Y212292D01*
X321983Y213276D01*
X320696Y213809D01*
X320839Y215250D01*
X321696Y215250D01*
X322983Y215783D01*
X323967Y216767D01*
X324500Y218054D01*
Y219446D01*
X323967Y220733D01*
X322983Y221717D01*
X321696Y222250D01*
D02*
G37*
G36*
X390696Y213500D02*
X389304D01*
X388017Y212967D01*
X387033Y211983D01*
X386500Y210696D01*
Y209304D01*
X387033Y208017D01*
X388017Y207033D01*
X389304Y206500D01*
X390696D01*
X391983Y207033D01*
X392967Y208017D01*
X393500Y209304D01*
Y210696D01*
X392967Y211983D01*
X391983Y212967D01*
X390696Y213500D01*
D02*
G37*
G36*
X141307Y214225D02*
X140750D01*
Y201750D01*
X153225D01*
Y202307D01*
X152289Y205798D01*
X150483Y208927D01*
X147927Y211483D01*
X144797Y213290D01*
X141307Y214225D01*
D02*
G37*
G36*
X138250D02*
X137693D01*
X134202Y213290D01*
X131073Y211483D01*
X128517Y208927D01*
X126710Y205798D01*
X125775Y202307D01*
Y201750D01*
X138250D01*
Y214225D01*
D02*
G37*
G36*
X594094Y200500D02*
X591906D01*
X589884Y199663D01*
X588980Y198758D01*
X588000Y198280D01*
X587020Y198758D01*
X586115Y199663D01*
X584094Y200500D01*
X581906D01*
X579884Y199663D01*
X578337Y198116D01*
X577500Y196094D01*
Y193906D01*
X578337Y191884D01*
X579242Y190980D01*
X579720Y190000D01*
X579242Y189020D01*
X578337Y188116D01*
X577500Y186094D01*
Y183906D01*
X578337Y181884D01*
X579242Y180980D01*
X579720Y180000D01*
X579242Y179020D01*
X578337Y178116D01*
X577500Y176094D01*
Y173906D01*
X578337Y171884D01*
X579884Y170337D01*
X581906Y169500D01*
X584094D01*
X586115Y170337D01*
X587020Y171242D01*
X588000Y171720D01*
X588980Y171242D01*
X589884Y170337D01*
X591906Y169500D01*
X594094D01*
X596115Y170337D01*
X597020Y171242D01*
X598000Y171720D01*
X598980Y171242D01*
X599884Y170337D01*
X601906Y169500D01*
X604094D01*
X606115Y170337D01*
X607663Y171884D01*
X608500Y173906D01*
Y176094D01*
X607663Y178116D01*
X606758Y179020D01*
X606280Y180000D01*
X606758Y180980D01*
X607663Y181884D01*
X608500Y183906D01*
Y186094D01*
X607663Y188116D01*
X606115Y189663D01*
X604094Y190500D01*
X601906D01*
X599884Y189663D01*
X598980Y188758D01*
X598000Y188280D01*
X597020Y188758D01*
X596758Y189020D01*
X596280Y190000D01*
X596758Y190980D01*
X597663Y191884D01*
X598500Y193906D01*
Y196094D01*
X597663Y198116D01*
X596115Y199663D01*
X594094Y200500D01*
D02*
G37*
G36*
X920282Y197535D02*
X918890D01*
X917604Y197002D01*
X916619Y196018D01*
X916086Y194731D01*
Y193339D01*
X916619Y192053D01*
X917604Y191068D01*
X918890Y190535D01*
X920282D01*
X921569Y191068D01*
X922553Y192053D01*
X923086Y193339D01*
Y194731D01*
X922553Y196018D01*
X921569Y197002D01*
X920282Y197535D01*
D02*
G37*
G36*
X362031Y205798D02*
X360638D01*
X359352Y205265D01*
X358367Y204281D01*
X357835Y202994D01*
Y201602D01*
X356488Y200932D01*
X356086Y200765D01*
X355102Y199781D01*
X354569Y198494D01*
Y197102D01*
X354996Y196070D01*
X354018Y195664D01*
X353033Y194680D01*
X352500Y193393D01*
Y192001D01*
X353033Y190715D01*
X354018Y189730D01*
X355304Y189197D01*
X356696D01*
X357308Y188871D01*
X357694Y187013D01*
X357523Y186787D01*
X356788Y187091D01*
X355395D01*
X354109Y186558D01*
X353125Y185574D01*
X352592Y184287D01*
Y182895D01*
X353125Y181609D01*
X354109Y180624D01*
X355395Y180091D01*
X356788D01*
X357022Y180188D01*
X357404Y180002D01*
X358053Y178627D01*
X357314Y177888D01*
X356781Y176602D01*
Y175209D01*
X356858Y175023D01*
X356996Y173529D01*
X356011Y172544D01*
X355479Y171258D01*
Y169866D01*
X355803Y169083D01*
X355572Y168042D01*
X355058Y167412D01*
X354184Y167050D01*
X353200Y166066D01*
X352667Y164779D01*
Y163387D01*
X353200Y162100D01*
X354184Y161116D01*
X355471Y160583D01*
X356863D01*
X357771Y160959D01*
X358224Y159864D01*
X359209Y158879D01*
X360495Y158346D01*
X361888D01*
X363174Y158879D01*
X364159Y159864D01*
X364692Y161150D01*
Y162542D01*
X364159Y163829D01*
X363174Y164813D01*
X361888Y165346D01*
X360831D01*
X360723Y165396D01*
X360293Y165847D01*
X360414Y166734D01*
X360849Y167548D01*
X360961Y167595D01*
X361946Y168579D01*
X362479Y169866D01*
Y171258D01*
X362401Y171444D01*
X362264Y172938D01*
X363248Y173923D01*
X363781Y175209D01*
Y176602D01*
X364098Y178265D01*
X365082Y179249D01*
X365615Y180536D01*
Y181928D01*
X365082Y183214D01*
X364098Y184199D01*
X362811Y184732D01*
X361419D01*
X360983Y184551D01*
X359990Y184363D01*
X359172Y185301D01*
X359077Y185530D01*
X359154Y185700D01*
X359971Y186783D01*
X360706Y186479D01*
X362098D01*
X363385Y187012D01*
X364369Y187996D01*
X364902Y189283D01*
Y190675D01*
X364369Y191961D01*
X363385Y192946D01*
X362098Y193479D01*
X360706D01*
X360583Y193550D01*
X360052Y194831D01*
X361036Y195816D01*
X361569Y197102D01*
Y198494D01*
X362915Y199164D01*
X363317Y199331D01*
X364302Y200315D01*
X364834Y201602D01*
Y202994D01*
X364302Y204281D01*
X363317Y205265D01*
X362031Y205798D01*
D02*
G37*
G36*
X153225Y199250D02*
X140750D01*
Y186775D01*
X141307D01*
X144797Y187710D01*
X147927Y189517D01*
X150483Y192073D01*
X152289Y195202D01*
X153225Y198693D01*
Y199250D01*
D02*
G37*
G36*
X138250D02*
X125775D01*
Y198693D01*
X126710Y195202D01*
X128517Y192073D01*
X131073Y189517D01*
X134202Y187710D01*
X137693Y186775D01*
X138250D01*
Y199250D01*
D02*
G37*
G36*
X550696Y205500D02*
X549304D01*
X548017Y204967D01*
X547033Y203983D01*
X546500Y202696D01*
Y201304D01*
X547033Y200017D01*
X547128Y199922D01*
X547767Y198967D01*
X546783Y197983D01*
X546250Y196696D01*
Y195304D01*
X546783Y194017D01*
X547767Y193033D01*
X547820Y192770D01*
X547033Y191983D01*
X546500Y190696D01*
Y189304D01*
X547033Y188017D01*
X548017Y187033D01*
X549304Y186500D01*
X550696D01*
X551983Y187033D01*
X552967Y188017D01*
X553500Y189304D01*
Y190696D01*
X552967Y191983D01*
X551983Y192967D01*
X551930Y193230D01*
X552717Y194017D01*
X553250Y195304D01*
Y196696D01*
X552717Y197983D01*
X552622Y198078D01*
X551983Y199033D01*
X552967Y200017D01*
X553500Y201304D01*
Y202696D01*
X552967Y203983D01*
X551983Y204967D01*
X550696Y205500D01*
D02*
G37*
G36*
X722196Y192804D02*
X720804D01*
X719517Y192271D01*
X718533Y191287D01*
X718000Y190000D01*
Y188608D01*
X718533Y187321D01*
X719517Y186337D01*
X720804Y185804D01*
X722196D01*
X723482Y186337D01*
X724467Y187321D01*
X725000Y188608D01*
Y190000D01*
X724467Y191287D01*
X723482Y192271D01*
X722196Y192804D01*
D02*
G37*
G36*
X964696Y191000D02*
X963304D01*
X962017Y190467D01*
X961033Y189483D01*
X960500Y188196D01*
Y186804D01*
X961033Y185518D01*
X962017Y184533D01*
X963304Y184000D01*
X964696D01*
X965983Y184533D01*
X966967Y185518D01*
X967500Y186804D01*
Y188196D01*
X966967Y189483D01*
X965983Y190467D01*
X964696Y191000D01*
D02*
G37*
G36*
X320696Y190500D02*
X319304D01*
X318017Y189967D01*
X317033Y188983D01*
X316500Y187696D01*
Y186304D01*
X317033Y185017D01*
X318017Y184033D01*
X319304Y183500D01*
X320696D01*
X321983Y184033D01*
X322967Y185017D01*
X323500Y186304D01*
Y187696D01*
X322967Y188983D01*
X321983Y189967D01*
X320696Y190500D01*
D02*
G37*
G36*
X750834Y189000D02*
X749442D01*
X748156Y188467D01*
X747171Y187483D01*
X746638Y186196D01*
Y184804D01*
X747171Y183518D01*
X748156Y182533D01*
X749442Y182000D01*
X750834D01*
X752121Y182533D01*
X753105Y183518D01*
X753638Y184804D01*
Y186196D01*
X753105Y187483D01*
X752121Y188467D01*
X750834Y189000D01*
D02*
G37*
G36*
X927196Y191500D02*
X925804D01*
X924517Y190967D01*
X923533Y189983D01*
X923000Y188696D01*
Y187304D01*
X923533Y186017D01*
X924175Y185375D01*
X923533Y184733D01*
X923000Y183446D01*
Y182054D01*
X923533Y180767D01*
X924517Y179783D01*
X925804Y179250D01*
X927196D01*
X928483Y179783D01*
X929467Y180767D01*
X930000Y182054D01*
Y183446D01*
X929467Y184733D01*
X928825Y185375D01*
X929467Y186017D01*
X930000Y187304D01*
Y188696D01*
X929467Y189983D01*
X928483Y190967D01*
X927196Y191500D01*
D02*
G37*
G36*
X61205Y195400D02*
X58795D01*
X56468Y194776D01*
X54382Y193572D01*
X52678Y191868D01*
X51473Y189782D01*
X50850Y187455D01*
Y185046D01*
X51473Y182718D01*
X52678Y180632D01*
X54382Y178928D01*
X56468Y177724D01*
X58795Y177100D01*
X61205D01*
X63532Y177724D01*
X65618Y178928D01*
X67322Y180632D01*
X68526Y182718D01*
X69150Y185046D01*
Y187455D01*
X68526Y189782D01*
X67322Y191868D01*
X65618Y193572D01*
X63532Y194776D01*
X61205Y195400D01*
D02*
G37*
G36*
X520946Y180250D02*
X519554D01*
X518267Y179717D01*
X517283Y178733D01*
X516750Y177446D01*
Y176054D01*
X517283Y174767D01*
X518267Y173783D01*
X519554Y173250D01*
X520946D01*
X522233Y173783D01*
X523217Y174767D01*
X523750Y176054D01*
Y177446D01*
X523217Y178733D01*
X522233Y179717D01*
X520946Y180250D01*
D02*
G37*
G36*
X986696Y175000D02*
X985304D01*
X984017Y174467D01*
X983033Y173482D01*
X982500Y172196D01*
Y170804D01*
X983033Y169517D01*
X984017Y168533D01*
X985304Y168000D01*
X986696D01*
X987983Y168533D01*
X988967Y169517D01*
X989500Y170804D01*
Y172196D01*
X988967Y173482D01*
X987983Y174467D01*
X986696Y175000D01*
D02*
G37*
G36*
X199111Y186350D02*
X196689D01*
X194349Y185723D01*
X192251Y184512D01*
X190538Y182799D01*
X189327Y180701D01*
X188700Y178361D01*
Y175939D01*
X189327Y173599D01*
X190538Y171501D01*
X192251Y169788D01*
X194349Y168577D01*
X196689Y167950D01*
X199111D01*
X201451Y168577D01*
X203549Y169788D01*
X205262Y171501D01*
X206473Y173599D01*
X207100Y175939D01*
Y178361D01*
X206473Y180701D01*
X205262Y182799D01*
X203549Y184512D01*
X201451Y185723D01*
X199111Y186350D01*
D02*
G37*
G36*
X962696Y173500D02*
X961304D01*
X960017Y172967D01*
X959033Y171983D01*
X958500Y170696D01*
Y169304D01*
X959033Y168018D01*
X960017Y167033D01*
X961304Y166500D01*
X962696D01*
X963983Y167033D01*
X964967Y168018D01*
X965500Y169304D01*
Y170696D01*
X964967Y171983D01*
X963983Y172967D01*
X962696Y173500D01*
D02*
G37*
G36*
X1030196Y175000D02*
X1028804D01*
X1027517Y174467D01*
X1026533Y173482D01*
X1026000Y172196D01*
Y171500D01*
X1025304D01*
X1024017Y170967D01*
X1023033Y169983D01*
X1022500Y168696D01*
Y167304D01*
X1023033Y166018D01*
X1024017Y165033D01*
X1025304Y164500D01*
X1026696D01*
X1027983Y165033D01*
X1028967Y166018D01*
X1029500Y167304D01*
Y168000D01*
X1030196D01*
X1031483Y168533D01*
X1032467Y169517D01*
X1033000Y170804D01*
Y172196D01*
X1032467Y173482D01*
X1031483Y174467D01*
X1030196Y175000D01*
D02*
G37*
G36*
X551196Y177500D02*
X549804D01*
X548517Y176967D01*
X547533Y175983D01*
X547000Y174696D01*
Y173304D01*
X547533Y172017D01*
X548517Y171033D01*
X549051Y170812D01*
Y169188D01*
X548517Y168967D01*
X547533Y167983D01*
X547000Y166696D01*
Y165304D01*
X547533Y164017D01*
X548517Y163033D01*
X549804Y162500D01*
X551196D01*
X552483Y163033D01*
X553467Y164017D01*
X554000Y165304D01*
Y166696D01*
X553467Y167983D01*
X552483Y168967D01*
X551949Y169188D01*
Y170812D01*
X552483Y171033D01*
X553467Y172017D01*
X554000Y173304D01*
Y174696D01*
X553467Y175983D01*
X552483Y176967D01*
X551196Y177500D01*
D02*
G37*
G36*
X391696Y169500D02*
X390304D01*
X389017Y168967D01*
X388033Y167983D01*
X387500Y166696D01*
Y165304D01*
X388033Y164017D01*
X389017Y163033D01*
X390304Y162500D01*
X391696D01*
X392983Y163033D01*
X393967Y164017D01*
X394500Y165304D01*
Y166696D01*
X393967Y167983D01*
X392983Y168967D01*
X391696Y169500D01*
D02*
G37*
G36*
X110748Y194900D02*
X107252D01*
X103823Y194218D01*
X100592Y192880D01*
X97685Y190937D01*
X95213Y188465D01*
X93270Y185557D01*
X91932Y182327D01*
X91250Y178898D01*
Y175401D01*
X91932Y171972D01*
X93270Y168742D01*
X95213Y165835D01*
X97685Y163362D01*
X100592Y161420D01*
X103823Y160082D01*
X107252Y159400D01*
X110748D01*
X114178Y160082D01*
X117408Y161420D01*
X120315Y163362D01*
X122787Y165835D01*
X124730Y168742D01*
X126068Y171972D01*
X126750Y175401D01*
Y178898D01*
X126068Y182327D01*
X124730Y185557D01*
X122787Y188465D01*
X120315Y190937D01*
X117408Y192880D01*
X114178Y194218D01*
X110748Y194900D01*
D02*
G37*
G36*
X263946Y161250D02*
X262554D01*
X261267Y160717D01*
X260283Y159733D01*
X259750Y158446D01*
Y157054D01*
X260283Y155767D01*
X261267Y154783D01*
X262554Y154250D01*
X263946D01*
X265233Y154783D01*
X266217Y155767D01*
X266750Y157054D01*
Y158446D01*
X266217Y159733D01*
X265233Y160717D01*
X263946Y161250D01*
D02*
G37*
G36*
X61205Y170000D02*
X58795D01*
X56468Y169377D01*
X54382Y168172D01*
X52678Y166468D01*
X51473Y164382D01*
X50850Y162055D01*
Y159646D01*
X51473Y157318D01*
X52678Y155232D01*
X54382Y153528D01*
X56468Y152324D01*
X58795Y151700D01*
X61205D01*
X63532Y152324D01*
X65618Y153528D01*
X67322Y155232D01*
X68526Y157318D01*
X69150Y159646D01*
Y162055D01*
X68526Y164382D01*
X67322Y166468D01*
X65618Y168172D01*
X63532Y169377D01*
X61205Y170000D01*
D02*
G37*
G36*
X521696Y165500D02*
X520304D01*
X519017Y164967D01*
X518033Y163983D01*
X517500Y162696D01*
Y161304D01*
X518033Y160017D01*
X519017Y159033D01*
X519124Y158989D01*
Y157365D01*
X518767Y157217D01*
X517783Y156233D01*
X517250Y154946D01*
Y153554D01*
X517783Y152267D01*
X518767Y151283D01*
X520054Y150750D01*
X521446D01*
X522733Y151283D01*
X523717Y152267D01*
X524250Y153554D01*
Y154946D01*
X523717Y156233D01*
X522733Y157217D01*
X522626Y157261D01*
Y158885D01*
X522983Y159033D01*
X523967Y160017D01*
X524500Y161304D01*
Y162696D01*
X523967Y163983D01*
X522983Y164967D01*
X521696Y165500D01*
D02*
G37*
G36*
X406446Y155250D02*
X405054D01*
X403767Y154717D01*
X402783Y153733D01*
X402250Y152446D01*
Y151054D01*
X402783Y149767D01*
X403767Y148783D01*
X405054Y148250D01*
X406446D01*
X407733Y148783D01*
X408717Y149767D01*
X409250Y151054D01*
Y152446D01*
X408717Y153733D01*
X407733Y154717D01*
X406446Y155250D01*
D02*
G37*
G36*
X596411Y155892D02*
X595018D01*
X593732Y155360D01*
X592747Y154375D01*
X592215Y153089D01*
Y152003D01*
X591129D01*
X589843Y151471D01*
X588858Y150486D01*
X588326Y149200D01*
Y147807D01*
X588858Y146521D01*
X589843Y145536D01*
X591129Y145003D01*
X592522D01*
X593808Y145536D01*
X594793Y146521D01*
X595326Y147807D01*
Y148892D01*
X596411D01*
X597697Y149425D01*
X598682Y150410D01*
X599215Y151696D01*
Y153089D01*
X598682Y154375D01*
X597697Y155360D01*
X596411Y155892D01*
D02*
G37*
G36*
X900696Y151500D02*
X899304D01*
X898018Y150967D01*
X897033Y149983D01*
X896500Y148696D01*
Y147304D01*
X897033Y146018D01*
X898008Y145042D01*
X896983Y143967D01*
X895696Y144500D01*
X894304D01*
X893017Y143967D01*
X892033Y142983D01*
X891500Y141696D01*
Y140304D01*
X892033Y139017D01*
X893017Y138033D01*
X894304Y137500D01*
X895696D01*
X896983Y138033D01*
X897967Y139017D01*
X898500Y140304D01*
Y141696D01*
X897967Y142983D01*
X896992Y143958D01*
X898018Y145033D01*
X899304Y144500D01*
X900696D01*
X901983Y145033D01*
X902967Y146018D01*
X903500Y147304D01*
Y148696D01*
X902967Y149983D01*
X901983Y150967D01*
X900696Y151500D01*
D02*
G37*
G36*
X356943Y158007D02*
X355551D01*
X354264Y157474D01*
X353280Y156490D01*
X352747Y155203D01*
Y153811D01*
X353280Y152524D01*
X354264Y151540D01*
X355551Y151007D01*
X356943D01*
X357422Y151205D01*
X358595Y150068D01*
X358800Y148518D01*
X358671Y148206D01*
X358267Y147231D01*
Y145839D01*
X358800Y144553D01*
X359785Y143568D01*
X361071Y143035D01*
X362463D01*
X363750Y143568D01*
X364734Y144553D01*
X365267Y145839D01*
Y147231D01*
X364734Y148518D01*
X364503Y150267D01*
X364632Y150580D01*
X365036Y151554D01*
Y152946D01*
X364503Y154233D01*
X363518Y155217D01*
X362232Y155750D01*
X360840D01*
X359714Y155284D01*
X359214Y156490D01*
X358229Y157474D01*
X356943Y158007D01*
D02*
G37*
G36*
X927196Y140500D02*
X925804D01*
X924518Y139967D01*
X923625Y139075D01*
X922733Y139967D01*
X921446Y140500D01*
X920054D01*
X918767Y139967D01*
X917783Y138983D01*
X917250Y137696D01*
Y136304D01*
X917783Y135017D01*
X918767Y134033D01*
X920054Y133500D01*
X921446D01*
X922733Y134033D01*
X923625Y134925D01*
X924518Y134033D01*
X925804Y133500D01*
X927196D01*
X928483Y134033D01*
X929467Y135017D01*
X930000Y136304D01*
Y137696D01*
X929467Y138983D01*
X928483Y139967D01*
X927196Y140500D01*
D02*
G37*
G36*
X950196Y143250D02*
X948804D01*
X947518Y142717D01*
X946533Y141732D01*
X946000Y140446D01*
Y139054D01*
X946533Y137767D01*
X947518Y136783D01*
X948804Y136250D01*
X950196D01*
X951483Y136783D01*
X952467Y137767D01*
X953000Y139054D01*
Y140446D01*
X952467Y141732D01*
X951483Y142717D01*
X950196Y143250D01*
D02*
G37*
G36*
X875000Y241624D02*
X810000D01*
X808852Y241148D01*
X808376Y240000D01*
Y135898D01*
X806876Y135599D01*
X806663Y136116D01*
X805115Y137663D01*
X803094Y138500D01*
X800906D01*
X798884Y137663D01*
X797500Y136278D01*
X796116Y137663D01*
X794094Y138500D01*
X791906D01*
X789885Y137663D01*
X788337Y136116D01*
X787500Y134094D01*
Y131906D01*
X788337Y129885D01*
X789885Y128337D01*
X791906Y127500D01*
X794094D01*
X796116Y128337D01*
X797500Y129722D01*
X798884Y128337D01*
X800906Y127500D01*
X803094D01*
X805115Y128337D01*
X806663Y129885D01*
X806876Y130400D01*
X808376Y130102D01*
Y130000D01*
X808852Y128852D01*
X810000Y128377D01*
X875000D01*
X876148Y128852D01*
X876624Y130000D01*
Y240000D01*
X876148Y241148D01*
X875000Y241624D01*
D02*
G37*
G36*
X389696Y147750D02*
X388304D01*
X387017Y147217D01*
X386033Y146233D01*
X385500Y144946D01*
Y143554D01*
X386033Y142267D01*
X386480Y141820D01*
X387283Y140502D01*
X386750Y139216D01*
Y137823D01*
X387283Y136537D01*
X388267Y135552D01*
X389554Y135019D01*
X390946D01*
X392233Y135552D01*
X393217Y136537D01*
X393750Y137823D01*
Y139216D01*
X393217Y140502D01*
X392770Y140949D01*
X391967Y142267D01*
X392500Y143554D01*
Y144946D01*
X391967Y146233D01*
X390983Y147217D01*
X389696Y147750D01*
D02*
G37*
G36*
X521196Y137500D02*
X519804D01*
X518517Y136967D01*
X517533Y135983D01*
X517000Y134696D01*
Y133304D01*
X517533Y132017D01*
X518517Y131033D01*
X519804Y130500D01*
X521196D01*
X522483Y131033D01*
X523467Y132017D01*
X524000Y133304D01*
Y134696D01*
X523467Y135983D01*
X522483Y136967D01*
X521196Y137500D01*
D02*
G37*
G36*
X680696Y136500D02*
X679304D01*
X678017Y135967D01*
X677033Y134983D01*
X676500Y133696D01*
Y132304D01*
X677033Y131017D01*
X678017Y130033D01*
X679304Y129500D01*
X680696D01*
X681983Y130033D01*
X682967Y131017D01*
X683500Y132304D01*
Y133696D01*
X682967Y134983D01*
X681983Y135967D01*
X680696Y136500D01*
D02*
G37*
G36*
X390931Y133519D02*
X389539D01*
X388252Y132987D01*
X387268Y132002D01*
X386735Y130716D01*
Y129323D01*
X387268Y128037D01*
X388252Y127052D01*
X389539Y126519D01*
X390931D01*
X392217Y127052D01*
X393202Y128037D01*
X393735Y129323D01*
Y130716D01*
X393202Y132002D01*
X392217Y132987D01*
X390931Y133519D01*
D02*
G37*
G36*
X359165Y136531D02*
X356977D01*
X354956Y135693D01*
X353408Y134146D01*
X352571Y132125D01*
Y129937D01*
X353408Y127915D01*
X354956Y126368D01*
X356977Y125531D01*
X359165D01*
X361186Y126368D01*
X362734Y127915D01*
X363571Y129937D01*
Y132125D01*
X362734Y134146D01*
X361186Y135693D01*
X359165Y136531D01*
D02*
G37*
G36*
X908696Y132500D02*
X907304D01*
X906018Y131967D01*
X905033Y130983D01*
X904500Y129696D01*
Y128304D01*
X905033Y127017D01*
X906018Y126033D01*
X907304Y125500D01*
X908696D01*
X909983Y126033D01*
X910967Y127017D01*
X911500Y128304D01*
Y129696D01*
X910967Y130983D01*
X909983Y131967D01*
X908696Y132500D01*
D02*
G37*
G36*
X297094Y161500D02*
X294906D01*
X292885Y160663D01*
X291337Y159115D01*
X290500Y157094D01*
Y154906D01*
X291337Y152885D01*
X292722Y151500D01*
X291337Y150115D01*
X290500Y148094D01*
Y145906D01*
X291337Y143884D01*
X292722Y142500D01*
X291337Y141116D01*
X290500Y139094D01*
Y136906D01*
X291337Y134885D01*
X292722Y133500D01*
X291337Y132115D01*
X290500Y130094D01*
Y127906D01*
X291337Y125885D01*
X292885Y124337D01*
X294906Y123500D01*
X297094D01*
X299116Y124337D01*
X300663Y125885D01*
X301500Y127906D01*
Y130094D01*
X300663Y132115D01*
X299278Y133500D01*
X300663Y134885D01*
X301500Y136906D01*
Y139094D01*
X300663Y141116D01*
X299278Y142500D01*
X300663Y143884D01*
X301500Y145906D01*
Y148094D01*
X300663Y150115D01*
X299278Y151500D01*
X300663Y152885D01*
X301500Y154906D01*
Y157094D01*
X300663Y159115D01*
X299116Y160663D01*
X297094Y161500D01*
D02*
G37*
G36*
X220663Y135000D02*
X219271D01*
X217984Y134467D01*
X217000Y133483D01*
X216467Y132196D01*
Y130804D01*
X216928Y129690D01*
X216946Y129376D01*
X216417Y127978D01*
X215725Y127691D01*
X214741Y126707D01*
X214208Y125421D01*
Y124028D01*
X214741Y122742D01*
X215725Y121757D01*
X217012Y121224D01*
X218404D01*
X219690Y121757D01*
X220675Y122742D01*
X221208Y124028D01*
Y125421D01*
X220746Y126535D01*
X220728Y126849D01*
X221257Y128246D01*
X221949Y128533D01*
X222934Y129517D01*
X223467Y130804D01*
Y132196D01*
X222934Y133483D01*
X221949Y134467D01*
X220663Y135000D01*
D02*
G37*
G36*
X702094Y122500D02*
X699906D01*
X697885Y121663D01*
X696980Y120758D01*
X696000Y120280D01*
X695020Y120758D01*
X694116Y121663D01*
X692094Y122500D01*
X689906D01*
X687885Y121663D01*
X686980Y120758D01*
X686000Y120280D01*
X685020Y120758D01*
X684116Y121663D01*
X682094Y122500D01*
X679906D01*
X677885Y121663D01*
X676337Y120115D01*
X675500Y118094D01*
Y115906D01*
X676337Y113884D01*
X677242Y112980D01*
X677720Y112000D01*
X677242Y111020D01*
X676337Y110115D01*
X675500Y108094D01*
Y105906D01*
X676337Y103884D01*
X677885Y102337D01*
X679906Y101500D01*
X682094D01*
X684116Y102337D01*
X685020Y103242D01*
X686000Y103720D01*
X686980Y103242D01*
X687885Y102337D01*
X689906Y101500D01*
X692094D01*
X694116Y102337D01*
X695020Y103242D01*
X695663Y103884D01*
X696980Y103242D01*
X697465Y102757D01*
X699487Y101919D01*
X701675D01*
X703696Y102757D01*
X705243Y104304D01*
X706081Y106325D01*
Y108513D01*
X705243Y110535D01*
X704758Y111020D01*
X704116Y112337D01*
X704758Y112980D01*
X705663Y113884D01*
X706500Y115906D01*
Y118094D01*
X705663Y120115D01*
X704116Y121663D01*
X702094Y122500D01*
D02*
G37*
G36*
X439137Y118301D02*
X437745D01*
X436459Y117769D01*
X435817Y117127D01*
X435474Y116784D01*
X434731Y116852D01*
X433928Y116972D01*
X432785Y117445D01*
X431393D01*
X430106Y116912D01*
X429122Y115928D01*
X428589Y114641D01*
Y113249D01*
X429122Y111962D01*
X430106Y110978D01*
X431393Y110445D01*
X432785D01*
X434072Y110978D01*
X434713Y111620D01*
X435056Y111962D01*
X435799Y111895D01*
X436602Y111775D01*
X437745Y111301D01*
X439137D01*
X440424Y111834D01*
X441408Y112819D01*
X441941Y114105D01*
Y115498D01*
X441408Y116784D01*
X440424Y117769D01*
X439137Y118301D01*
D02*
G37*
G36*
X796094Y116500D02*
X793906D01*
X791885Y115663D01*
X790500Y114278D01*
X789115Y115663D01*
X787094Y116500D01*
X784906D01*
X782885Y115663D01*
X781500Y114278D01*
X780116Y115663D01*
X778094Y116500D01*
X775906D01*
X773885Y115663D01*
X772338Y114115D01*
X771500Y112094D01*
Y109906D01*
X772338Y107885D01*
X773885Y106337D01*
X775906Y105500D01*
X778094D01*
X780116Y106337D01*
X781500Y107722D01*
X782885Y106337D01*
X784906Y105500D01*
X787094D01*
X789115Y106337D01*
X790500Y107722D01*
X791885Y106337D01*
X793906Y105500D01*
X796094D01*
X798116Y106337D01*
X799663Y107885D01*
X800500Y109906D01*
Y112094D01*
X799663Y114115D01*
X798116Y115663D01*
X796094Y116500D01*
D02*
G37*
G36*
X628196Y121000D02*
X626804D01*
X625517Y120467D01*
X624533Y119483D01*
X624000Y118196D01*
Y116804D01*
X624533Y115517D01*
X625517Y114533D01*
X626804Y114000D01*
X628196D01*
X629483Y114533D01*
X630467Y115517D01*
X631000Y116804D01*
Y118196D01*
X630467Y119483D01*
X629483Y120467D01*
X628196Y121000D01*
D02*
G37*
G36*
X517687Y117999D02*
X516295D01*
X515009Y117466D01*
X514024Y116481D01*
X513491Y115195D01*
Y113802D01*
X514024Y112516D01*
X515009Y111531D01*
X516295Y110999D01*
X517687D01*
X518974Y111531D01*
X519958Y112516D01*
X520491Y113802D01*
Y115195D01*
X519958Y116481D01*
X518974Y117466D01*
X517687Y117999D01*
D02*
G37*
G36*
X457094Y121500D02*
X454906D01*
X452884Y120663D01*
X451337Y119115D01*
X450500Y117094D01*
Y114906D01*
X451337Y112885D01*
X452884Y111337D01*
X454906Y110500D01*
X457094D01*
X459115Y111337D01*
X460663Y112885D01*
X461500Y114906D01*
Y117094D01*
X460663Y119115D01*
X459115Y120663D01*
X457094Y121500D01*
D02*
G37*
G36*
X337946Y116839D02*
X336554D01*
X335267Y116306D01*
X334283Y115322D01*
X333750Y114036D01*
Y112643D01*
X334283Y111357D01*
X335267Y110372D01*
X336554Y109839D01*
X337946D01*
X339233Y110372D01*
X340217Y111357D01*
X340750Y112643D01*
Y114036D01*
X340217Y115322D01*
X339233Y116306D01*
X337946Y116839D01*
D02*
G37*
G36*
X595689Y106750D02*
X594296D01*
X593010Y106217D01*
X592025Y105233D01*
X591492Y103946D01*
Y102554D01*
X592025Y101268D01*
X593010Y100283D01*
X594296Y99750D01*
X595689D01*
X596975Y100283D01*
X597960Y101268D01*
X598492Y102554D01*
Y103946D01*
X597960Y105233D01*
X596975Y106217D01*
X595689Y106750D01*
D02*
G37*
G36*
X614446Y106750D02*
X613054D01*
X611767Y106217D01*
X610783Y105233D01*
X610250Y103946D01*
Y102554D01*
X610783Y101267D01*
X611767Y100283D01*
X613054Y99750D01*
X614446D01*
X615732Y100283D01*
X616717Y101267D01*
X617250Y102554D01*
Y103946D01*
X616717Y105233D01*
X615732Y106217D01*
X614446Y106750D01*
D02*
G37*
G36*
X327696Y106250D02*
X326304D01*
X325017Y105717D01*
X324033Y104733D01*
X323500Y103446D01*
Y102054D01*
X324033Y100767D01*
X325017Y99783D01*
X326304Y99250D01*
X327696D01*
X328983Y99783D01*
X329967Y100767D01*
X330500Y102054D01*
Y103446D01*
X329967Y104733D01*
X328983Y105717D01*
X327696Y106250D01*
D02*
G37*
G36*
X626696Y111500D02*
X625304D01*
X624017Y110967D01*
X623033Y109983D01*
X622500Y108696D01*
Y107304D01*
X623033Y106017D01*
X624017Y105033D01*
X624976Y104636D01*
X624543Y103590D01*
Y102197D01*
X625075Y100911D01*
X626060Y99926D01*
X627346Y99393D01*
X628739D01*
X630545Y98518D01*
X630554Y98496D01*
X631539Y97512D01*
X632825Y96979D01*
X634217D01*
X635504Y97512D01*
X636488Y98496D01*
X637021Y99782D01*
Y101175D01*
X636488Y102461D01*
X635504Y103446D01*
X634217Y103979D01*
X632825D01*
X631019Y104854D01*
X631010Y104876D01*
X630025Y105861D01*
X629067Y106258D01*
X629500Y107304D01*
Y108696D01*
X628967Y109983D01*
X627983Y110967D01*
X626696Y111500D01*
D02*
G37*
G36*
X385696Y106500D02*
X384304D01*
X383017Y105967D01*
X382033Y104983D01*
X381500Y103696D01*
Y102304D01*
X382033Y101017D01*
X382920Y100130D01*
X382158Y99368D01*
X381625Y98082D01*
Y96689D01*
X382158Y95403D01*
X383142Y94418D01*
X384429Y93885D01*
X385821D01*
X387108Y94418D01*
X388092Y95403D01*
X388625Y96689D01*
Y98082D01*
X388092Y99368D01*
X387205Y100255D01*
X387967Y101017D01*
X388500Y102304D01*
Y103696D01*
X387967Y104983D01*
X386983Y105967D01*
X385696Y106500D01*
D02*
G37*
G36*
X574676Y97515D02*
X573284D01*
X571997Y96982D01*
X571013Y95997D01*
X570480Y94711D01*
Y93318D01*
X571013Y92032D01*
X571997Y91047D01*
X573284Y90515D01*
X574676D01*
X575962Y91047D01*
X576947Y92032D01*
X577480Y93318D01*
Y94711D01*
X576947Y95997D01*
X575962Y96982D01*
X574676Y97515D01*
D02*
G37*
G36*
X265844Y98848D02*
X263656D01*
X261634Y98011D01*
X260087Y96463D01*
X259250Y94442D01*
Y92254D01*
X260087Y90232D01*
X261634Y88685D01*
X263656Y87848D01*
X265844D01*
X267865Y88685D01*
X269412Y90232D01*
X270250Y92254D01*
Y94442D01*
X269412Y96463D01*
X267865Y98011D01*
X265844Y98848D01*
D02*
G37*
G36*
X592941Y97755D02*
X591549D01*
X590262Y97222D01*
X589278Y96238D01*
X588745Y94951D01*
Y93636D01*
X588722Y93532D01*
X587663Y92250D01*
X587054D01*
X585767Y91717D01*
X584783Y90733D01*
X584250Y89446D01*
Y88054D01*
X584783Y86767D01*
X585767Y85783D01*
X587054Y85250D01*
X588446D01*
X589733Y85783D01*
X590717Y86767D01*
X591250Y88054D01*
Y89369D01*
X591272Y89473D01*
X592331Y90755D01*
X592941D01*
X594227Y91288D01*
X595212Y92273D01*
X595745Y93559D01*
Y94951D01*
X595212Y96238D01*
X594227Y97222D01*
X592941Y97755D01*
D02*
G37*
G36*
X693196Y86000D02*
X691804D01*
X690517Y85467D01*
X690000Y84950D01*
X689482Y85467D01*
X688196Y86000D01*
X686804D01*
X685517Y85467D01*
X684533Y84483D01*
X684000Y83196D01*
Y81804D01*
X684533Y80518D01*
X685517Y79533D01*
X686804Y79000D01*
X688196D01*
X689482Y79533D01*
X690000Y80051D01*
X690517Y79533D01*
X691804Y79000D01*
X693196D01*
X694483Y79533D01*
X695467Y80518D01*
X696000Y81804D01*
Y83196D01*
X695467Y84483D01*
X694483Y85467D01*
X693196Y86000D01*
D02*
G37*
G36*
X611169Y96750D02*
X609777D01*
X608491Y96217D01*
X607506Y95233D01*
X606973Y93946D01*
Y92554D01*
X607506Y91267D01*
X607730Y91044D01*
X607677Y90778D01*
X606692Y89793D01*
X606159Y88507D01*
Y87114D01*
X606692Y85828D01*
X607677Y84843D01*
X608963Y84311D01*
X610355D01*
X611642Y84843D01*
X612626Y85828D01*
X613159Y87114D01*
Y88507D01*
X612626Y89793D01*
X612403Y90017D01*
X612456Y90283D01*
X613440Y91267D01*
X613973Y92554D01*
Y93946D01*
X613440Y95233D01*
X612456Y96217D01*
X611169Y96750D01*
D02*
G37*
G36*
X956696Y90500D02*
X955304D01*
X954017Y89967D01*
X953033Y88983D01*
X952500Y87696D01*
Y86304D01*
X953033Y85017D01*
X954017Y84033D01*
X955304Y83500D01*
X956696D01*
X957983Y84033D01*
X958967Y85017D01*
X959500Y86304D01*
Y87696D01*
X958967Y88983D01*
X957983Y89967D01*
X956696Y90500D01*
D02*
G37*
G36*
X657696Y88500D02*
X656304D01*
X655017Y87967D01*
X654033Y86983D01*
X653500Y85696D01*
Y84304D01*
X654033Y83017D01*
X655017Y82033D01*
X656304Y81500D01*
X657696D01*
X658983Y82033D01*
X659967Y83017D01*
X660500Y84304D01*
Y85696D01*
X659967Y86983D01*
X658983Y87967D01*
X657696Y88500D01*
D02*
G37*
G36*
X677401Y88204D02*
X676008D01*
X674722Y87672D01*
X673737Y86687D01*
X673204Y85401D01*
Y84008D01*
X673737Y82722D01*
X674722Y81737D01*
X676008Y81205D01*
X677401D01*
X678687Y81737D01*
X679672Y82722D01*
X680204Y84008D01*
Y85401D01*
X679672Y86687D01*
X678687Y87672D01*
X677401Y88204D01*
D02*
G37*
G36*
X505696Y87750D02*
X504304D01*
X503017Y87217D01*
X502033Y86233D01*
X501500Y84946D01*
Y83554D01*
X502033Y82267D01*
X503017Y81283D01*
X504304Y80750D01*
X505696D01*
X506983Y81283D01*
X507967Y82267D01*
X508500Y83554D01*
Y84946D01*
X507967Y86233D01*
X506983Y87217D01*
X505696Y87750D01*
D02*
G37*
G36*
X254696D02*
X253304D01*
X252017Y87217D01*
X251033Y86233D01*
X250500Y84946D01*
Y83554D01*
X251033Y82267D01*
X252017Y81283D01*
X253304Y80750D01*
X254696D01*
X255983Y81283D01*
X256967Y82267D01*
X257500Y83554D01*
Y84946D01*
X256967Y86233D01*
X255983Y87217D01*
X254696Y87750D01*
D02*
G37*
G36*
X727696Y87500D02*
X726304D01*
X725017Y86967D01*
X724033Y85983D01*
X723500Y84696D01*
Y83304D01*
X724033Y82017D01*
X725017Y81033D01*
X726304Y80500D01*
X727696D01*
X728983Y81033D01*
X729967Y82017D01*
X730500Y83304D01*
Y84696D01*
X729967Y85983D01*
X728983Y86967D01*
X727696Y87500D01*
D02*
G37*
G36*
X493696D02*
X492304D01*
X491017Y86967D01*
X490033Y85983D01*
X489500Y84696D01*
Y83304D01*
X490033Y82017D01*
X491017Y81033D01*
X492304Y80500D01*
X493696D01*
X494983Y81033D01*
X495967Y82017D01*
X496500Y83304D01*
Y84696D01*
X495967Y85983D01*
X494983Y86967D01*
X493696Y87500D01*
D02*
G37*
G36*
X432696Y89500D02*
X431304D01*
X430017Y88967D01*
X429033Y87983D01*
X428500Y86696D01*
Y85304D01*
X429033Y84017D01*
X430017Y83033D01*
X431304Y82500D01*
X432696D01*
X433983Y83033D01*
X434788Y82017D01*
X435773Y81033D01*
X437059Y80500D01*
X438451D01*
X439738Y81033D01*
X440722Y82017D01*
X441255Y83304D01*
Y84696D01*
X440722Y85983D01*
X439738Y86967D01*
X438451Y87500D01*
X437059D01*
X435773Y86967D01*
X434967Y87983D01*
X433983Y88967D01*
X432696Y89500D01*
D02*
G37*
G36*
X515696Y85871D02*
X514304D01*
X513018Y85339D01*
X512033Y84354D01*
X511500Y83068D01*
Y81675D01*
X512033Y80389D01*
X513018Y79404D01*
X514304Y78871D01*
X515696D01*
X516983Y79404D01*
X517967Y80389D01*
X518500Y81675D01*
Y83068D01*
X517967Y84354D01*
X516983Y85339D01*
X515696Y85871D01*
D02*
G37*
G36*
X446951Y85500D02*
X445559D01*
X444273Y84967D01*
X443288Y83983D01*
X442755Y82696D01*
Y81304D01*
X443288Y80017D01*
X444273Y79033D01*
X445559Y78500D01*
X446951D01*
X448238Y79033D01*
X449222Y80017D01*
X449755Y81304D01*
Y82696D01*
X449222Y83983D01*
X448238Y84967D01*
X446951Y85500D01*
D02*
G37*
G36*
X417696D02*
X416304D01*
X415017Y84967D01*
X414033Y83983D01*
X413500Y82696D01*
Y81304D01*
X414033Y80017D01*
X415017Y79033D01*
X416304Y78500D01*
X417696D01*
X418983Y79033D01*
X419967Y80017D01*
X420500Y81304D01*
Y82696D01*
X419967Y83983D01*
X418983Y84967D01*
X417696Y85500D01*
D02*
G37*
G36*
X715696Y89500D02*
X714304D01*
X713017Y88967D01*
X712033Y87983D01*
X711500Y86696D01*
Y85304D01*
X710304Y84500D01*
X709017Y83967D01*
X708033Y82983D01*
X707500Y81696D01*
Y80304D01*
X708033Y79017D01*
X709017Y78033D01*
X710304Y77500D01*
X711696D01*
X712983Y78033D01*
X713967Y79017D01*
X714188Y79551D01*
X715812D01*
X716033Y79017D01*
X717017Y78033D01*
X718304Y77500D01*
X719696D01*
X720983Y78033D01*
X721967Y79017D01*
X722500Y80304D01*
Y81696D01*
X721967Y82983D01*
X720983Y83967D01*
X719696Y84500D01*
X718500Y85304D01*
Y86696D01*
X717967Y87983D01*
X716983Y88967D01*
X715696Y89500D01*
D02*
G37*
G36*
X842400Y90500D02*
X837600D01*
X832858Y89749D01*
X828292Y88265D01*
X824015Y86086D01*
X822260Y84811D01*
X823601Y83470D01*
X816530Y76399D01*
X815189Y77740D01*
X813914Y75985D01*
X811734Y71708D01*
X810251Y67142D01*
X809500Y62400D01*
Y57600D01*
X810251Y52858D01*
X811734Y48292D01*
X813914Y44015D01*
X815189Y42260D01*
X816530Y43601D01*
X823601Y36530D01*
X822260Y35189D01*
X824015Y33914D01*
X828292Y31735D01*
X832858Y30251D01*
X837600Y29500D01*
X842400D01*
X847142Y30251D01*
X851708Y31735D01*
X855985Y33914D01*
X857740Y35189D01*
X856399Y36530D01*
X863470Y43601D01*
X864811Y42260D01*
X866086Y44015D01*
X868265Y48292D01*
X869749Y52858D01*
X870500Y57600D01*
Y62400D01*
X869749Y67142D01*
X868265Y71708D01*
X866086Y75985D01*
X864811Y77740D01*
X863470Y76399D01*
X856399Y83470D01*
X857740Y84811D01*
X855985Y86086D01*
X851708Y88265D01*
X847142Y89749D01*
X842400Y90500D01*
D02*
G37*
G36*
X362400D02*
X357600D01*
X352858Y89749D01*
X348292Y88265D01*
X344015Y86086D01*
X342260Y84811D01*
X343601Y83470D01*
X336530Y76399D01*
X335189Y77740D01*
X333914Y75985D01*
X331735Y71708D01*
X330251Y67142D01*
X329500Y62400D01*
Y57600D01*
X330251Y52858D01*
X331735Y48292D01*
X333914Y44015D01*
X335189Y42260D01*
X336530Y43601D01*
X343601Y36530D01*
X342260Y35189D01*
X344015Y33914D01*
X348292Y31735D01*
X352858Y30251D01*
X357600Y29500D01*
X362400D01*
X367142Y30251D01*
X371708Y31735D01*
X375985Y33914D01*
X377740Y35189D01*
X376399Y36530D01*
X383470Y43601D01*
X384811Y42260D01*
X386086Y44015D01*
X388265Y48292D01*
X389749Y52858D01*
X390500Y57600D01*
Y62400D01*
X389749Y67142D01*
X388265Y71708D01*
X386086Y75985D01*
X384811Y77740D01*
X383470Y76399D01*
X376399Y83470D01*
X377740Y84811D01*
X375985Y86086D01*
X371708Y88265D01*
X367142Y89749D01*
X362400Y90500D01*
D02*
G37*
G36*
X632973Y83077D02*
X631581D01*
X630294Y82544D01*
X629310Y81560D01*
X628777Y80273D01*
Y78881D01*
X629310Y77594D01*
X630294Y76610D01*
X631581Y76077D01*
X632973D01*
X634259Y76610D01*
X635244Y77594D01*
X635777Y78881D01*
Y80273D01*
X635244Y81560D01*
X634259Y82544D01*
X632973Y83077D01*
D02*
G37*
G36*
X174172Y177150D02*
X170828D01*
X167598Y176284D01*
X164702Y174612D01*
X162337Y172248D01*
X160666Y169352D01*
X159800Y166122D01*
Y162778D01*
X160666Y159548D01*
X162337Y156652D01*
X164702Y154287D01*
X167598Y152615D01*
X167930Y152526D01*
Y150973D01*
X167598Y150884D01*
X164702Y149212D01*
X162337Y146848D01*
X160666Y143952D01*
X159800Y140722D01*
Y137378D01*
X160666Y134148D01*
X162337Y131252D01*
X164702Y128887D01*
X167598Y127215D01*
X167930Y127126D01*
Y125573D01*
X167598Y125484D01*
X164702Y123812D01*
X162337Y121448D01*
X160666Y118552D01*
X159800Y115322D01*
Y111978D01*
X160666Y108748D01*
X162337Y105852D01*
X164702Y103487D01*
X167598Y101815D01*
X167930Y101726D01*
Y100173D01*
X167598Y100084D01*
X164702Y98412D01*
X162337Y96048D01*
X160666Y93152D01*
X159800Y89922D01*
Y86578D01*
X160666Y83348D01*
X162337Y80452D01*
X164702Y78087D01*
X167598Y76415D01*
X170828Y75550D01*
X174172D01*
X177402Y76415D01*
X180298Y78087D01*
X182663Y80452D01*
X184335Y83348D01*
X185200Y86578D01*
Y89922D01*
X184335Y93152D01*
X182663Y96048D01*
X180298Y98412D01*
X177402Y100084D01*
X177070Y100173D01*
Y101726D01*
X177402Y101815D01*
X180298Y103487D01*
X182663Y105852D01*
X184335Y108748D01*
X185200Y111978D01*
Y115322D01*
X184335Y118552D01*
X182663Y121448D01*
X180298Y123812D01*
X177402Y125484D01*
X177070Y125573D01*
Y127126D01*
X177402Y127215D01*
X180298Y128887D01*
X182663Y131252D01*
X184335Y134148D01*
X185200Y137378D01*
Y140722D01*
X184335Y143952D01*
X182663Y146848D01*
X180298Y149212D01*
X177402Y150884D01*
X177070Y150973D01*
Y152526D01*
X177402Y152615D01*
X180298Y154287D01*
X182663Y156652D01*
X184335Y159548D01*
X185200Y162778D01*
Y166122D01*
X184335Y169352D01*
X182663Y172248D01*
X180298Y174612D01*
X177402Y176284D01*
X174172Y177150D01*
D02*
G37*
G36*
X555696Y80378D02*
X554304D01*
X553017Y79845D01*
X552033Y78860D01*
X551500Y77574D01*
Y76182D01*
X552033Y74895D01*
X553017Y73911D01*
X554304Y73378D01*
X555696D01*
X556983Y73911D01*
X557967Y74895D01*
X558500Y76182D01*
Y77574D01*
X557967Y78860D01*
X556983Y79845D01*
X555696Y80378D01*
D02*
G37*
G36*
X679699Y79208D02*
X678307D01*
X677020Y78675D01*
X676036Y77691D01*
X675503Y76404D01*
Y75012D01*
X676036Y73725D01*
X677020Y72741D01*
X678307Y72208D01*
X679699D01*
X680986Y72741D01*
X681970Y73725D01*
X682503Y75012D01*
Y76404D01*
X681970Y77691D01*
X680986Y78675D01*
X679699Y79208D01*
D02*
G37*
G36*
X61205Y88300D02*
X58795D01*
X56468Y87676D01*
X54382Y86472D01*
X52678Y84768D01*
X51473Y82682D01*
X50850Y80355D01*
Y77945D01*
X51473Y75618D01*
X52678Y73532D01*
X54382Y71828D01*
X56468Y70623D01*
X58795Y70000D01*
X61205D01*
X63532Y70623D01*
X65618Y71828D01*
X67322Y73532D01*
X68526Y75618D01*
X69150Y77945D01*
Y80355D01*
X68526Y82682D01*
X67322Y84768D01*
X65618Y86472D01*
X63532Y87676D01*
X61205Y88300D01*
D02*
G37*
G36*
X471594Y78408D02*
X470201D01*
X468915Y77875D01*
X467931Y76891D01*
X467398Y75604D01*
Y74212D01*
X467931Y72926D01*
X468915Y71941D01*
X469036Y71891D01*
X469345Y70139D01*
X469008Y69803D01*
X468475Y68516D01*
Y67124D01*
X469008Y65837D01*
X469993Y64853D01*
X471279Y64320D01*
X472672D01*
X473958Y64853D01*
X474943Y65837D01*
X475475Y67124D01*
Y68516D01*
X474943Y69803D01*
X473958Y70787D01*
X473837Y70837D01*
X473528Y72589D01*
X473865Y72926D01*
X474398Y74212D01*
Y75604D01*
X473865Y76891D01*
X472880Y77875D01*
X471594Y78408D01*
D02*
G37*
G36*
X199572Y164450D02*
X196228D01*
X192998Y163584D01*
X190102Y161912D01*
X187738Y159548D01*
X186066Y156652D01*
X185200Y153422D01*
Y150078D01*
X186066Y146848D01*
X187738Y143952D01*
X190102Y141587D01*
X192998Y139915D01*
X193330Y139826D01*
Y138273D01*
X192998Y138184D01*
X190102Y136512D01*
X187738Y134148D01*
X186066Y131252D01*
X185200Y128022D01*
Y124678D01*
X186066Y121448D01*
X187738Y118552D01*
X190102Y116187D01*
X192998Y114515D01*
X193330Y114426D01*
Y112873D01*
X192998Y112784D01*
X190102Y111112D01*
X187738Y108748D01*
X186066Y105852D01*
X185200Y102622D01*
Y99278D01*
X186066Y96048D01*
X187738Y93152D01*
X190102Y90787D01*
X192998Y89115D01*
X193330Y89026D01*
Y87473D01*
X192998Y87384D01*
X190102Y85712D01*
X187738Y83348D01*
X186066Y80452D01*
X185200Y77222D01*
Y73878D01*
X186066Y70648D01*
X187738Y67752D01*
X190102Y65387D01*
X192998Y63715D01*
X196228Y62850D01*
X199572D01*
X202802Y63715D01*
X205698Y65387D01*
X208062Y67752D01*
X209734Y70648D01*
X210600Y73878D01*
Y77222D01*
X209734Y80452D01*
X208062Y83348D01*
X205698Y85712D01*
X202802Y87384D01*
X202470Y87473D01*
Y89026D01*
X202802Y89115D01*
X205698Y90787D01*
X208062Y93152D01*
X209734Y96048D01*
X210600Y99278D01*
Y102622D01*
X209734Y105852D01*
X208062Y108748D01*
X205698Y111112D01*
X202802Y112784D01*
X202470Y112873D01*
Y114426D01*
X202802Y114515D01*
X205698Y116187D01*
X208062Y118552D01*
X209734Y121448D01*
X210600Y124678D01*
Y128022D01*
X209734Y131252D01*
X209591Y131500D01*
X210457Y133000D01*
X210696D01*
X211983Y133533D01*
X212967Y134517D01*
X213500Y135804D01*
Y137196D01*
X212967Y138483D01*
X213449Y139960D01*
X214434Y140945D01*
X214967Y142231D01*
Y143623D01*
X214434Y144910D01*
X213449Y145894D01*
X212163Y146427D01*
X211159D01*
X210227Y147301D01*
X209968Y147718D01*
X210600Y150078D01*
Y153422D01*
X209734Y156652D01*
X208062Y159548D01*
X205698Y161912D01*
X202802Y163584D01*
X199572Y164450D01*
D02*
G37*
G36*
X458446Y65250D02*
X457054D01*
X455767Y64717D01*
X454783Y63733D01*
X454250Y62446D01*
Y61054D01*
X454783Y59767D01*
X455767Y58783D01*
X457054Y58250D01*
X458446D01*
X459733Y58783D01*
X460717Y59767D01*
X461250Y61054D01*
Y62446D01*
X460717Y63733D01*
X459733Y64717D01*
X458446Y65250D01*
D02*
G37*
G36*
X173711Y72050D02*
X171289D01*
X168949Y71423D01*
X166851Y70212D01*
X165138Y68499D01*
X163927Y66401D01*
X163300Y64061D01*
Y61639D01*
X163927Y59299D01*
X165138Y57201D01*
X166851Y55488D01*
X168949Y54277D01*
X171289Y53650D01*
X173711D01*
X176051Y54277D01*
X178149Y55488D01*
X179862Y57201D01*
X181073Y59299D01*
X181700Y61639D01*
Y64061D01*
X181073Y66401D01*
X179862Y68499D01*
X178149Y70212D01*
X176051Y71423D01*
X173711Y72050D01*
D02*
G37*
G36*
X635696Y60500D02*
X634304D01*
X633017Y59967D01*
X632033Y58983D01*
X631500Y57696D01*
Y56304D01*
X632033Y55017D01*
X633017Y54033D01*
X634304Y53500D01*
X635696D01*
X636983Y54033D01*
X637967Y55017D01*
X638500Y56304D01*
Y57696D01*
X637967Y58983D01*
X636983Y59967D01*
X635696Y60500D01*
D02*
G37*
G36*
X527696Y64525D02*
X526304D01*
X525018Y63992D01*
X524033Y63008D01*
X523500Y61721D01*
Y60329D01*
X524033Y59042D01*
X524800Y58275D01*
X524033Y57508D01*
X523500Y56222D01*
Y54829D01*
X524033Y53543D01*
X525018Y52558D01*
X526304Y52025D01*
X527696D01*
X528983Y52558D01*
X529967Y53543D01*
X530500Y54829D01*
Y56222D01*
X529967Y57508D01*
X529200Y58275D01*
X529967Y59042D01*
X530500Y60329D01*
Y61721D01*
X529967Y63008D01*
X528983Y63992D01*
X527696Y64525D01*
D02*
G37*
G36*
X626317Y57917D02*
X624925D01*
X623639Y57384D01*
X622654Y56399D01*
X622121Y55113D01*
Y53721D01*
X622654Y52434D01*
X623639Y51450D01*
X624925Y50917D01*
X626317D01*
X627604Y51450D01*
X628588Y52434D01*
X629121Y53721D01*
Y55113D01*
X628588Y56399D01*
X627604Y57384D01*
X626317Y57917D01*
D02*
G37*
G36*
X473696Y55750D02*
X472304D01*
X471017Y55217D01*
X470033Y54233D01*
X469500Y52946D01*
Y51554D01*
X470033Y50267D01*
X471017Y49283D01*
X472304Y48750D01*
X473696D01*
X474983Y49283D01*
X475967Y50267D01*
X476500Y51554D01*
Y52946D01*
X475967Y54233D01*
X474983Y55217D01*
X473696Y55750D01*
D02*
G37*
G36*
X436946Y53750D02*
X435554D01*
X434267Y53217D01*
X433283Y52233D01*
X432750Y50946D01*
Y49554D01*
X433283Y48267D01*
X434267Y47283D01*
X435554Y46750D01*
X436946D01*
X438233Y47283D01*
X439217Y48267D01*
X439750Y49554D01*
Y50946D01*
X439217Y52233D01*
X438233Y53217D01*
X436946Y53750D01*
D02*
G37*
G36*
X555196Y59025D02*
X553803D01*
X552517Y58492D01*
X551533Y57508D01*
X551000Y56221D01*
Y54829D01*
X551533Y53542D01*
X552300Y52775D01*
X551533Y52007D01*
X551000Y50721D01*
Y49329D01*
X551533Y48042D01*
X552518Y47058D01*
X553804Y46525D01*
X555196D01*
X556483Y47058D01*
X557467Y48042D01*
X558000Y49329D01*
Y50721D01*
X557467Y52007D01*
X556700Y52775D01*
X557467Y53542D01*
X558000Y54829D01*
Y56221D01*
X557467Y57508D01*
X556482Y58492D01*
X555196Y59025D01*
D02*
G37*
G36*
X604696Y56500D02*
X603304D01*
X602017Y55967D01*
X601033Y54983D01*
X600887Y54630D01*
X599696Y53500D01*
X598304D01*
X597017Y52967D01*
X596033Y51983D01*
X595500Y50696D01*
Y49304D01*
X596033Y48017D01*
X597017Y47033D01*
X598304Y46500D01*
X599696D01*
X600983Y47033D01*
X601967Y48017D01*
X602113Y48370D01*
X603304Y49500D01*
X604696D01*
X605982Y50033D01*
X606967Y51018D01*
X607500Y52304D01*
Y53696D01*
X606967Y54983D01*
X605982Y55967D01*
X604696Y56500D01*
D02*
G37*
G36*
X567696Y52250D02*
X566304D01*
X565017Y51717D01*
X564033Y50733D01*
X563500Y49446D01*
Y48054D01*
X564033Y46767D01*
X565017Y45783D01*
X566304Y45250D01*
X567696D01*
X568983Y45783D01*
X569967Y46767D01*
X570500Y48054D01*
Y49446D01*
X569967Y50733D01*
X568983Y51717D01*
X567696Y52250D01*
D02*
G37*
G36*
X486196D02*
X484804D01*
X483517Y51717D01*
X482533Y50733D01*
X482000Y49446D01*
Y48054D01*
X482533Y46767D01*
X483517Y45783D01*
X484804Y45250D01*
X486196D01*
X487483Y45783D01*
X488467Y46767D01*
X489000Y48054D01*
Y49446D01*
X488467Y50733D01*
X487483Y51717D01*
X486196Y52250D01*
D02*
G37*
G36*
X110748Y80600D02*
X107252D01*
X103823Y79918D01*
X100592Y78580D01*
X97685Y76637D01*
X95213Y74165D01*
X93270Y71258D01*
X91932Y68027D01*
X91250Y64598D01*
Y61101D01*
X91932Y57672D01*
X93270Y54442D01*
X95213Y51535D01*
X97685Y49062D01*
X100592Y47120D01*
X103823Y45782D01*
X107252Y45100D01*
X110748D01*
X114178Y45782D01*
X117408Y47120D01*
X120315Y49062D01*
X122787Y51535D01*
X124730Y54442D01*
X126068Y57672D01*
X126750Y61101D01*
Y64598D01*
X126068Y68027D01*
X124730Y71258D01*
X122787Y74165D01*
X120315Y76637D01*
X117408Y78580D01*
X114178Y79918D01*
X110748Y80600D01*
D02*
G37*
G36*
X583421Y66900D02*
X582029D01*
X580742Y66367D01*
X579757Y65383D01*
X579225Y64096D01*
Y62704D01*
X579757Y61417D01*
X580742Y60433D01*
X582029Y59900D01*
X583239D01*
Y58774D01*
X583714Y57627D01*
X583463Y56944D01*
X583004Y56134D01*
X582304D01*
X581017Y55601D01*
X580033Y54617D01*
X579500Y53330D01*
Y51938D01*
X580033Y50652D01*
X581017Y49667D01*
X582304Y49134D01*
X582364D01*
X583703Y48952D01*
X583750Y47748D01*
Y47554D01*
X584283Y46267D01*
X585267Y45283D01*
X586554Y44750D01*
X587946D01*
X589233Y45283D01*
X590217Y46267D01*
X590750Y47554D01*
Y48946D01*
X590217Y50233D01*
X589233Y51217D01*
X587946Y51750D01*
X587886D01*
X586547Y51932D01*
X586500Y53136D01*
Y53330D01*
X586025Y54478D01*
X586275Y55161D01*
X586735Y55971D01*
X587435D01*
X588721Y56504D01*
X589706Y57488D01*
X590239Y58774D01*
Y60167D01*
X589706Y61453D01*
X588721Y62438D01*
X587435Y62971D01*
X586225D01*
Y64096D01*
X585692Y65383D01*
X584707Y66367D01*
X583421Y66900D01*
D02*
G37*
G36*
X61205Y62900D02*
X58795D01*
X56468Y62276D01*
X54382Y61072D01*
X52678Y59368D01*
X51473Y57282D01*
X50850Y54955D01*
Y52545D01*
X51473Y50218D01*
X52678Y48132D01*
X54382Y46428D01*
X56468Y45223D01*
X58795Y44600D01*
X61205D01*
X63532Y45223D01*
X65618Y46428D01*
X67322Y48132D01*
X68526Y50218D01*
X69150Y52545D01*
Y54955D01*
X68526Y57282D01*
X67322Y59368D01*
X65618Y61072D01*
X63532Y62276D01*
X61205Y62900D01*
D02*
G37*
G36*
X141307Y53225D02*
X140750D01*
Y40750D01*
X153225D01*
Y41307D01*
X152289Y44798D01*
X150483Y47927D01*
X147927Y50483D01*
X144797Y52290D01*
X141307Y53225D01*
D02*
G37*
G36*
X138250D02*
X137693D01*
X134202Y52290D01*
X131073Y50483D01*
X128517Y47927D01*
X126710Y44798D01*
X125775Y41307D01*
Y40750D01*
X138250D01*
Y53225D01*
D02*
G37*
G36*
X56561Y42098D02*
X55169D01*
X53882Y41565D01*
X52898Y40581D01*
X52365Y39295D01*
Y37902D01*
X52898Y36616D01*
X53882Y35631D01*
X55169Y35098D01*
X56561D01*
X57848Y35631D01*
X58832Y36616D01*
X59365Y37902D01*
Y39295D01*
X58832Y40581D01*
X57848Y41565D01*
X56561Y42098D01*
D02*
G37*
G36*
X701094Y36000D02*
X698906D01*
X696885Y35163D01*
X695500Y33778D01*
X694116Y35163D01*
X692094Y36000D01*
X689906D01*
X687885Y35163D01*
X686500Y33778D01*
X685116Y35163D01*
X683094Y36000D01*
X680906D01*
X678885Y35163D01*
X677912Y34190D01*
X676939Y35163D01*
X674917Y36000D01*
X672729D01*
X670708Y35163D01*
X669161Y33616D01*
X668323Y31594D01*
Y29406D01*
X669161Y27385D01*
X670708Y25837D01*
X672729Y25000D01*
X674917D01*
X676939Y25837D01*
X677912Y26810D01*
X678885Y25837D01*
X680906Y25000D01*
X683094D01*
X685116Y25837D01*
X686500Y27222D01*
X687885Y25837D01*
X689906Y25000D01*
X692094D01*
X694116Y25837D01*
X695500Y27222D01*
X696885Y25837D01*
X698906Y25000D01*
X701094D01*
X703115Y25837D01*
X704663Y27385D01*
X705500Y29406D01*
Y31594D01*
X704663Y33616D01*
X703115Y35163D01*
X701094Y36000D01*
D02*
G37*
G36*
X930400Y77609D02*
X925989Y77174D01*
X921748Y75888D01*
X917839Y73799D01*
X914413Y70987D01*
X911601Y67561D01*
X909512Y63652D01*
X908226Y59411D01*
X907791Y55000D01*
X908226Y50589D01*
X909512Y46348D01*
X911601Y42439D01*
X914413Y39013D01*
X917839Y36201D01*
X921748Y34112D01*
X925989Y32826D01*
X930400Y32391D01*
X934811Y32826D01*
X939052Y34112D01*
X942961Y36201D01*
X946387Y39013D01*
X949199Y42439D01*
X951288Y46348D01*
X952574Y50589D01*
X953009Y55000D01*
X952574Y59411D01*
X951288Y63652D01*
X949199Y67561D01*
X946387Y70987D01*
X942961Y73799D01*
X939052Y75888D01*
X934811Y77174D01*
X930400Y77609D01*
D02*
G37*
G36*
X717070Y36254D02*
X715677D01*
X714391Y35721D01*
X713406Y34737D01*
X712874Y33451D01*
Y32058D01*
X713406Y30772D01*
X714391Y29787D01*
X715677Y29254D01*
X717070D01*
X718356Y29787D01*
X719341Y30772D01*
X719874Y32058D01*
Y33451D01*
X719341Y34737D01*
X718356Y35721D01*
X717070Y36254D01*
D02*
G37*
G36*
X100446Y33250D02*
X99054D01*
X97767Y32717D01*
X96783Y31733D01*
X96250Y30446D01*
Y29054D01*
X96783Y27767D01*
X97767Y26783D01*
X99054Y26250D01*
X100446D01*
X101733Y26783D01*
X102717Y27767D01*
X103250Y29054D01*
Y30446D01*
X102717Y31733D01*
X101733Y32717D01*
X100446Y33250D01*
D02*
G37*
G36*
X153225Y38250D02*
X140750D01*
Y25775D01*
X141307D01*
X144797Y26710D01*
X147927Y28517D01*
X150483Y31073D01*
X152289Y34202D01*
X153225Y37693D01*
Y38250D01*
D02*
G37*
G36*
X138250D02*
X125775D01*
Y37693D01*
X126710Y34202D01*
X128517Y31073D01*
X131073Y28517D01*
X134202Y26710D01*
X137693Y25775D01*
X138250D01*
Y38250D01*
D02*
G37*
G36*
X462696Y25000D02*
X461304D01*
X460017Y24467D01*
X459033Y23483D01*
X458976Y23345D01*
X457233Y22967D01*
X455946Y23500D01*
X454554D01*
X453267Y22967D01*
X452283Y21983D01*
X451750Y20696D01*
Y19304D01*
X452283Y18017D01*
X453267Y17033D01*
X454554Y16500D01*
X455946D01*
X457233Y17033D01*
X458217Y18017D01*
X458274Y18155D01*
X460017Y18533D01*
X461304Y18000D01*
X462696D01*
X463983Y18533D01*
X464967Y19517D01*
X465500Y20804D01*
Y22196D01*
X464967Y23483D01*
X463983Y24467D01*
X462696Y25000D01*
D02*
G37*
G36*
X555946Y28750D02*
X554554D01*
X553267Y28217D01*
X552283Y27233D01*
X551750Y25946D01*
Y24554D01*
X552283Y23267D01*
X553267Y22283D01*
X554554Y21750D01*
X555946D01*
X557233Y22283D01*
X558217Y23267D01*
X558750Y24554D01*
Y25946D01*
X558217Y27233D01*
X557233Y28217D01*
X555946Y28750D01*
D02*
G37*
G36*
X773358Y28504D02*
X771966D01*
X770679Y27971D01*
X769695Y26986D01*
X769162Y25700D01*
Y24307D01*
X769695Y23021D01*
X770679Y22036D01*
X771966Y21504D01*
X773358D01*
X774644Y22036D01*
X775629Y23021D01*
X776162Y24307D01*
Y25700D01*
X775629Y26986D01*
X774644Y27971D01*
X773358Y28504D01*
D02*
G37*
G36*
X519946Y29750D02*
X518554D01*
X517267Y29217D01*
X516283Y28233D01*
X515750Y26946D01*
Y25554D01*
X516283Y24267D01*
X517267Y23283D01*
X518554Y22750D01*
X518666D01*
X519750Y21446D01*
Y20054D01*
X520283Y18767D01*
X521267Y17783D01*
X522554Y17250D01*
X523946D01*
X525233Y17783D01*
X526217Y18767D01*
X526750Y20054D01*
Y21446D01*
X526217Y22733D01*
X525233Y23717D01*
X523946Y24250D01*
X523834D01*
X522750Y25554D01*
Y26946D01*
X522217Y28233D01*
X521233Y29217D01*
X519946Y29750D01*
D02*
G37*
G36*
X706686Y22239D02*
X705294D01*
X704007Y21707D01*
X703023Y20722D01*
X702490Y19436D01*
Y18043D01*
X703023Y16757D01*
X704007Y15772D01*
X705294Y15239D01*
X706686D01*
X707972Y15772D01*
X708957Y16757D01*
X709490Y18043D01*
Y19436D01*
X708957Y20722D01*
X707972Y21707D01*
X706686Y22239D01*
D02*
G37*
G36*
X564196Y21000D02*
X562804D01*
X561517Y20467D01*
X560533Y19483D01*
X560000Y18196D01*
Y16804D01*
X560533Y15517D01*
X561517Y14533D01*
X562804Y14000D01*
X564196D01*
X565483Y14533D01*
X566467Y15517D01*
X567000Y16804D01*
Y18196D01*
X566467Y19483D01*
X565483Y20467D01*
X564196Y21000D01*
D02*
G37*
G36*
X246400Y57609D02*
X241989Y57174D01*
X237748Y55888D01*
X233839Y53799D01*
X230413Y50987D01*
X227601Y47561D01*
X225512Y43652D01*
X224226Y39411D01*
X223791Y35000D01*
X224226Y30589D01*
X225512Y26348D01*
X227601Y22439D01*
X230413Y19013D01*
X233839Y16201D01*
X237748Y14112D01*
X241989Y12826D01*
X246400Y12391D01*
X250811Y12826D01*
X255052Y14112D01*
X258961Y16201D01*
X262387Y19013D01*
X265199Y22439D01*
X267288Y26348D01*
X268574Y30589D01*
X269009Y35000D01*
X268574Y39411D01*
X267288Y43652D01*
X265199Y47561D01*
X262387Y50987D01*
X258961Y53799D01*
X255052Y55888D01*
X250811Y57174D01*
X246400Y57609D01*
D02*
G37*
G36*
X610196Y18500D02*
X608804D01*
X607517Y17967D01*
X606533Y16983D01*
X606000Y15696D01*
Y14304D01*
X606533Y13017D01*
X607517Y12033D01*
X608804Y11500D01*
X610196D01*
X611483Y12033D01*
X612467Y13017D01*
X613000Y14304D01*
Y15696D01*
X612467Y16983D01*
X611483Y17967D01*
X610196Y18500D01*
D02*
G37*
G36*
X579696D02*
X578304D01*
X577017Y17967D01*
X576033Y16983D01*
X575500Y15696D01*
Y14304D01*
X576033Y13017D01*
X577017Y12033D01*
X578304Y11500D01*
X579696D01*
X580983Y12033D01*
X581967Y13017D01*
X582500Y14304D01*
Y15696D01*
X581967Y16983D01*
X580983Y17967D01*
X579696Y18500D01*
D02*
G37*
G36*
X730696Y13500D02*
X729304D01*
X728017Y12967D01*
X727033Y11983D01*
X726500Y10696D01*
Y9304D01*
X727033Y8017D01*
X728017Y7033D01*
X729304Y6500D01*
X730696D01*
X731983Y7033D01*
X732967Y8017D01*
X733500Y9304D01*
Y10696D01*
X732967Y11983D01*
X731983Y12967D01*
X730696Y13500D01*
D02*
G37*
G36*
X541696D02*
X540304D01*
X539017Y12967D01*
X538033Y11983D01*
X537500Y10696D01*
Y9304D01*
X538033Y8017D01*
X539017Y7033D01*
X540304Y6500D01*
X541696D01*
X542983Y7033D01*
X543967Y8017D01*
X544500Y9304D01*
Y10696D01*
X543967Y11983D01*
X542983Y12967D01*
X541696Y13500D01*
D02*
G37*
G36*
X642196Y11000D02*
X640804D01*
X639517Y10467D01*
X638533Y9483D01*
X638000Y8196D01*
Y6804D01*
X638533Y5517D01*
X639517Y4533D01*
X640804Y4000D01*
X642196D01*
X643483Y4533D01*
X644467Y5517D01*
X645000Y6804D01*
Y8196D01*
X644467Y9483D01*
X643483Y10467D01*
X642196Y11000D01*
D02*
G37*
%LPD*%
D13*
X862560Y412560D02*
G03*
X870000Y430521I-17960J17960D01*
G01*
X840000Y390000D02*
X862560Y412560D01*
X870000Y430521D02*
Y465000D01*
X301665Y934000D02*
X295000D01*
X301665Y940665D01*
Y942331D01*
X299998Y943997D01*
X296666D01*
X295000Y942331D01*
D145*
X708890Y477500D02*
D03*
D147*
X360000Y390000D02*
D03*
Y60000D02*
D03*
X840000Y390000D02*
D03*
Y60000D02*
D03*
X410000Y915000D02*
D03*
D148*
X330000Y417500D02*
D03*
D151*
X913600Y589300D02*
D03*
Y614700D02*
D03*
Y640100D02*
D03*
Y665500D02*
D03*
Y563900D02*
D03*
Y513100D02*
D03*
Y538500D02*
D03*
Y487700D02*
D03*
Y462300D02*
D03*
D154*
X972000Y827000D02*
D03*
D155*
X1072000Y797000D02*
D03*
Y907000D02*
D03*
D156*
X139500Y910500D02*
D03*
Y749500D02*
D03*
Y39500D02*
D03*
Y200500D02*
D03*
D158*
X60000Y870850D02*
D03*
D160*
X133000Y544500D02*
D03*
X153000Y579500D02*
D03*
Y410250D02*
D03*
X133000Y375250D02*
D03*
D162*
X118000Y513800D02*
D03*
Y645200D02*
D03*
Y475950D02*
D03*
Y344550D02*
D03*
D165*
X727294Y186719D02*
D03*
X627204Y63271D02*
D03*
X587000Y77500D02*
D03*
X207000Y232000D02*
D03*
X742000Y581500D02*
D03*
X551000Y384903D02*
D03*
X862000Y278000D02*
D03*
X774000Y518000D02*
D03*
X784250Y534000D02*
D03*
Y502000D02*
D03*
X655000Y320000D02*
D03*
X640000Y302500D02*
D03*
X695630Y295380D02*
D03*
X767000Y96000D02*
D03*
X694250Y262005D02*
D03*
X713471Y125256D02*
D03*
X242500Y417500D02*
D03*
Y422500D02*
D03*
Y427500D02*
D03*
X257500Y420000D02*
D03*
X247500D02*
D03*
X257500Y425000D02*
D03*
X247500Y415000D02*
D03*
X252500Y417500D02*
D03*
Y422500D02*
D03*
X247500Y425000D02*
D03*
X252500Y427500D02*
D03*
Y432500D02*
D03*
X247500Y430000D02*
D03*
X446858Y757141D02*
D03*
X398000Y758000D02*
D03*
X414000D02*
D03*
X613000Y154000D02*
D03*
X200000Y212000D02*
D03*
X212000D02*
D03*
X218000D02*
D03*
X188000D02*
D03*
X194000D02*
D03*
X206000D02*
D03*
X670423Y78966D02*
D03*
X1117999Y182000D02*
D03*
X1109999Y166000D02*
D03*
X1117999Y150000D02*
D03*
X1109999Y134000D02*
D03*
X1117999Y118000D02*
D03*
X1109999Y102000D02*
D03*
X1117999Y86000D02*
D03*
X1109999Y70000D02*
D03*
X1117999Y54000D02*
D03*
X1093999Y902000D02*
D03*
Y869999D02*
D03*
Y837999D02*
D03*
Y806000D02*
D03*
X1101999Y182000D02*
D03*
X1093999Y166000D02*
D03*
X1101999Y150000D02*
D03*
X1093999Y134000D02*
D03*
X1101999Y118000D02*
D03*
X1093999Y102000D02*
D03*
X1101999Y86000D02*
D03*
X1093999Y70000D02*
D03*
X1101999Y54000D02*
D03*
X1085999Y917999D02*
D03*
Y886000D02*
D03*
X1077999Y869999D02*
D03*
X1085999Y853999D02*
D03*
X1077999Y837999D02*
D03*
X1085999Y822000D02*
D03*
Y790000D02*
D03*
X1077999Y166000D02*
D03*
X1085999Y150000D02*
D03*
X1077999Y134000D02*
D03*
X1085999Y118000D02*
D03*
X1077999Y102000D02*
D03*
X1085999Y86000D02*
D03*
X1077999Y70000D02*
D03*
X1085999Y54000D02*
D03*
X1069999Y917999D02*
D03*
X1062000Y902000D02*
D03*
X1069999Y886000D02*
D03*
X1062000Y869999D02*
D03*
X1069999Y853999D02*
D03*
X1062000Y837999D02*
D03*
X1069999Y822000D02*
D03*
X1062000Y806000D02*
D03*
X1069999Y150000D02*
D03*
X1062000Y102000D02*
D03*
X1069999Y86000D02*
D03*
X1062000Y70000D02*
D03*
X1069999Y54000D02*
D03*
X1062000Y38000D02*
D03*
X1053999Y917999D02*
D03*
X1046000Y902000D02*
D03*
X1053999Y886000D02*
D03*
X1046000Y869999D02*
D03*
X1053999Y853999D02*
D03*
X1046000Y837999D02*
D03*
X1053999Y822000D02*
D03*
X1046000Y806000D02*
D03*
X1053999Y790000D02*
D03*
Y150000D02*
D03*
Y118000D02*
D03*
X1046000Y102000D02*
D03*
X1053999Y86000D02*
D03*
X1046000Y70000D02*
D03*
X1053999Y54000D02*
D03*
X1046000Y38000D02*
D03*
X1037999Y917999D02*
D03*
X1029999Y902000D02*
D03*
X1037999Y886000D02*
D03*
X1029999Y869999D02*
D03*
X1037999Y853999D02*
D03*
X1029999Y837999D02*
D03*
X1037999Y822000D02*
D03*
X1029999Y806000D02*
D03*
X1037999Y790000D02*
D03*
X1029999Y102000D02*
D03*
X1037999Y86000D02*
D03*
X1029999Y70000D02*
D03*
X1037999Y54000D02*
D03*
X1029999Y38000D02*
D03*
X1022000Y917999D02*
D03*
X1013999Y902000D02*
D03*
X1022000Y886000D02*
D03*
Y853999D02*
D03*
Y822000D02*
D03*
Y790000D02*
D03*
X1013999Y390000D02*
D03*
Y358000D02*
D03*
Y326000D02*
D03*
Y294000D02*
D03*
Y262000D02*
D03*
Y230000D02*
D03*
X1022000Y118000D02*
D03*
Y86000D02*
D03*
X1013999Y70000D02*
D03*
X1022000Y54000D02*
D03*
X1013999Y38000D02*
D03*
X1006000Y917999D02*
D03*
X997999Y774000D02*
D03*
X1006000Y758000D02*
D03*
X997999Y742000D02*
D03*
X1006000Y726000D02*
D03*
Y694000D02*
D03*
X997999Y358000D02*
D03*
X1006000Y342000D02*
D03*
X997999Y326000D02*
D03*
X1006000Y310000D02*
D03*
X997999Y294000D02*
D03*
X1006000Y278000D02*
D03*
X997999Y262000D02*
D03*
X1006000Y118000D02*
D03*
X997999Y102000D02*
D03*
Y70000D02*
D03*
X1006000Y54000D02*
D03*
X997999Y38000D02*
D03*
X989999Y917999D02*
D03*
Y758000D02*
D03*
X982000Y742000D02*
D03*
Y422000D02*
D03*
Y390000D02*
D03*
X989999Y374000D02*
D03*
Y342000D02*
D03*
X982000Y326000D02*
D03*
X989999Y310000D02*
D03*
Y278000D02*
D03*
Y214000D02*
D03*
Y118000D02*
D03*
Y86000D02*
D03*
Y54000D02*
D03*
X982000Y38000D02*
D03*
X973999Y917999D02*
D03*
X966000Y742000D02*
D03*
X973999Y726000D02*
D03*
X966000Y710000D02*
D03*
X973999Y630000D02*
D03*
Y598000D02*
D03*
Y502000D02*
D03*
Y470000D02*
D03*
X966000Y262000D02*
D03*
X973999Y246000D02*
D03*
X966000Y230000D02*
D03*
X973999Y214000D02*
D03*
Y118000D02*
D03*
X966000Y102000D02*
D03*
X957999Y726000D02*
D03*
Y630000D02*
D03*
Y502000D02*
D03*
X949999Y422000D02*
D03*
X957999Y374000D02*
D03*
Y246000D02*
D03*
X949999Y230000D02*
D03*
X957999Y214000D02*
D03*
X949999Y134000D02*
D03*
Y102000D02*
D03*
X957999Y22000D02*
D03*
X942000Y374000D02*
D03*
Y246000D02*
D03*
X933999Y230000D02*
D03*
X942000Y214000D02*
D03*
Y150000D02*
D03*
X933999Y134000D02*
D03*
X942000Y118000D02*
D03*
X933999Y102000D02*
D03*
X942000Y86000D02*
D03*
Y22000D02*
D03*
X917999Y710000D02*
D03*
Y678000D02*
D03*
X926000Y406000D02*
D03*
Y246000D02*
D03*
X917999Y230000D02*
D03*
X926000Y214000D02*
D03*
X917999Y102000D02*
D03*
X926000Y22000D02*
D03*
X902000Y869999D02*
D03*
X909999Y853999D02*
D03*
X902000Y646000D02*
D03*
Y390000D02*
D03*
X909999Y246000D02*
D03*
X902000Y230000D02*
D03*
X909999Y214000D02*
D03*
X902000Y102000D02*
D03*
X909999Y86000D02*
D03*
X902000Y38000D02*
D03*
X909999Y22000D02*
D03*
X902000Y6000D02*
D03*
X886000Y869999D02*
D03*
X893999Y853999D02*
D03*
X886000Y837999D02*
D03*
X893999Y310000D02*
D03*
X886000Y6000D02*
D03*
X869999Y869999D02*
D03*
X877999Y853999D02*
D03*
X869999Y837999D02*
D03*
X877999Y822000D02*
D03*
Y598000D02*
D03*
X869999Y582000D02*
D03*
X877999Y566000D02*
D03*
Y406000D02*
D03*
Y374000D02*
D03*
Y342000D02*
D03*
Y22000D02*
D03*
X853999Y869999D02*
D03*
X862000Y853999D02*
D03*
X853999Y837999D02*
D03*
X862000Y822000D02*
D03*
Y86000D02*
D03*
X837999Y933999D02*
D03*
Y869999D02*
D03*
X846000Y853999D02*
D03*
X837999Y837999D02*
D03*
Y646000D02*
D03*
Y582000D02*
D03*
Y550000D02*
D03*
X822000Y933999D02*
D03*
X829999Y917999D02*
D03*
X822000Y902000D02*
D03*
X829999Y886000D02*
D03*
X822000Y869999D02*
D03*
X829999Y853999D02*
D03*
Y662000D02*
D03*
X822000Y646000D02*
D03*
X829999Y630000D02*
D03*
Y566000D02*
D03*
X822000Y550000D02*
D03*
X829999Y534000D02*
D03*
X822000Y518000D02*
D03*
Y294000D02*
D03*
X806000Y933999D02*
D03*
X813999Y917999D02*
D03*
X806000Y902000D02*
D03*
X813999Y886000D02*
D03*
Y566000D02*
D03*
X806000Y550000D02*
D03*
X813999Y534000D02*
D03*
X806000Y518000D02*
D03*
X790000Y933999D02*
D03*
X797999Y917999D02*
D03*
X790000Y902000D02*
D03*
X797999Y566000D02*
D03*
X790000Y550000D02*
D03*
X797999Y534000D02*
D03*
X790000Y518000D02*
D03*
X797999Y502000D02*
D03*
X774000Y933999D02*
D03*
X782000Y917999D02*
D03*
Y853999D02*
D03*
X758000Y933999D02*
D03*
X766000Y917999D02*
D03*
Y566000D02*
D03*
X758000Y70000D02*
D03*
X742000Y933999D02*
D03*
X750000Y917999D02*
D03*
Y566000D02*
D03*
X742000Y550000D02*
D03*
Y70000D02*
D03*
X726000Y933999D02*
D03*
X734000Y566000D02*
D03*
X726000Y550000D02*
D03*
X734000Y534000D02*
D03*
X726000Y422000D02*
D03*
X710000Y933999D02*
D03*
X718000Y917999D02*
D03*
Y566000D02*
D03*
X670000Y917999D02*
D03*
X662000Y902000D02*
D03*
X654000Y917999D02*
D03*
X646000Y902000D02*
D03*
X654000Y886000D02*
D03*
X638000Y917999D02*
D03*
X630000Y902000D02*
D03*
X638000Y886000D02*
D03*
X622000Y917999D02*
D03*
X614000Y902000D02*
D03*
X622000Y886000D02*
D03*
X598000Y262000D02*
D03*
X582000Y869999D02*
D03*
Y262000D02*
D03*
X566000Y869999D02*
D03*
Y837999D02*
D03*
Y550000D02*
D03*
X550000Y837999D02*
D03*
Y742000D02*
D03*
Y710000D02*
D03*
Y550000D02*
D03*
Y262000D02*
D03*
X542000Y694000D02*
D03*
X534000Y262000D02*
D03*
X518000Y902000D02*
D03*
Y710000D02*
D03*
X526000Y694000D02*
D03*
Y438000D02*
D03*
X510000Y853999D02*
D03*
Y694000D02*
D03*
X502000Y678000D02*
D03*
Y646000D02*
D03*
X510000Y534000D02*
D03*
Y438000D02*
D03*
Y54000D02*
D03*
X486000Y710000D02*
D03*
X494000Y694000D02*
D03*
X486000Y678000D02*
D03*
X494000Y662000D02*
D03*
X486000Y646000D02*
D03*
X494000Y630000D02*
D03*
X470000Y902000D02*
D03*
X478000Y694000D02*
D03*
X470000Y678000D02*
D03*
X478000Y662000D02*
D03*
X470000Y646000D02*
D03*
X478000Y630000D02*
D03*
X470000Y614000D02*
D03*
X454000Y933999D02*
D03*
Y902000D02*
D03*
X462000Y758000D02*
D03*
X454000Y742000D02*
D03*
X462000Y726000D02*
D03*
X454000Y710000D02*
D03*
X462000Y694000D02*
D03*
X454000Y678000D02*
D03*
X462000Y662000D02*
D03*
X454000Y646000D02*
D03*
X462000Y630000D02*
D03*
X454000Y614000D02*
D03*
Y358000D02*
D03*
X438000Y933999D02*
D03*
X446000Y917999D02*
D03*
X438000Y742000D02*
D03*
X446000Y726000D02*
D03*
X438000Y710000D02*
D03*
X446000Y694000D02*
D03*
Y470000D02*
D03*
X430000Y886000D02*
D03*
Y758000D02*
D03*
X422000Y742000D02*
D03*
X430000Y726000D02*
D03*
X422000Y710000D02*
D03*
X430000Y694000D02*
D03*
X406000Y742000D02*
D03*
X414000Y726000D02*
D03*
Y694000D02*
D03*
Y374000D02*
D03*
X398000Y726000D02*
D03*
Y694000D02*
D03*
X374000Y933999D02*
D03*
Y902000D02*
D03*
X382000Y886000D02*
D03*
X366000Y917999D02*
D03*
X358000Y902000D02*
D03*
X350000Y917999D02*
D03*
X342000Y902000D02*
D03*
X350000Y758000D02*
D03*
X342000Y742000D02*
D03*
X350000Y726000D02*
D03*
Y694000D02*
D03*
X342000Y422000D02*
D03*
X326000Y902000D02*
D03*
X334000Y758000D02*
D03*
Y726000D02*
D03*
X326000Y646000D02*
D03*
Y390000D02*
D03*
X310000Y902000D02*
D03*
X318000Y758000D02*
D03*
X310000Y742000D02*
D03*
X318000Y726000D02*
D03*
X310000Y678000D02*
D03*
X318000Y406000D02*
D03*
X310000Y390000D02*
D03*
X294000Y902000D02*
D03*
X302000Y758000D02*
D03*
Y726000D02*
D03*
X294000Y678000D02*
D03*
Y646000D02*
D03*
X302000Y374000D02*
D03*
X286000Y917999D02*
D03*
X278000Y902000D02*
D03*
Y742000D02*
D03*
X270000Y886000D02*
D03*
Y662000D02*
D03*
Y566000D02*
D03*
X246000Y869999D02*
D03*
Y837999D02*
D03*
Y806000D02*
D03*
X214000Y933999D02*
D03*
Y902000D02*
D03*
X222000Y886000D02*
D03*
X214000Y869999D02*
D03*
X222000Y853999D02*
D03*
Y822000D02*
D03*
X214000Y806000D02*
D03*
X222000Y790000D02*
D03*
X214000Y774000D02*
D03*
X222000Y758000D02*
D03*
X214000Y742000D02*
D03*
X198000Y933999D02*
D03*
X206000Y917999D02*
D03*
X198000Y902000D02*
D03*
X206000Y758000D02*
D03*
X198000Y742000D02*
D03*
X206000Y22000D02*
D03*
X198000Y6000D02*
D03*
X182000Y933999D02*
D03*
Y902000D02*
D03*
X190000Y438000D02*
D03*
X182000Y70000D02*
D03*
Y38000D02*
D03*
X190000Y22000D02*
D03*
X182000Y6000D02*
D03*
X166000Y933999D02*
D03*
Y902000D02*
D03*
X174000Y758000D02*
D03*
X166000Y38000D02*
D03*
Y6000D02*
D03*
X150000Y933999D02*
D03*
X158000Y917999D02*
D03*
Y886000D02*
D03*
X150000Y869999D02*
D03*
Y837999D02*
D03*
Y518000D02*
D03*
Y486000D02*
D03*
X158000Y470000D02*
D03*
Y118000D02*
D03*
X150000Y6000D02*
D03*
X134000Y933999D02*
D03*
X142000Y886000D02*
D03*
X134000Y869999D02*
D03*
X142000Y630000D02*
D03*
Y502000D02*
D03*
Y470000D02*
D03*
Y406000D02*
D03*
X134000Y390000D02*
D03*
X142000Y342000D02*
D03*
X134000Y166000D02*
D03*
Y134000D02*
D03*
Y102000D02*
D03*
Y6000D02*
D03*
X118000Y933999D02*
D03*
X126000Y853999D02*
D03*
X118000Y837999D02*
D03*
Y806000D02*
D03*
Y582000D02*
D03*
Y550000D02*
D03*
X126000Y534000D02*
D03*
X118000Y198000D02*
D03*
Y134000D02*
D03*
X126000Y118000D02*
D03*
X118000Y38000D02*
D03*
Y6000D02*
D03*
X102000Y933999D02*
D03*
X110000Y917999D02*
D03*
Y853999D02*
D03*
X102000Y837999D02*
D03*
X110000Y822000D02*
D03*
X102000Y806000D02*
D03*
Y742000D02*
D03*
X110000Y566000D02*
D03*
Y534000D02*
D03*
Y406000D02*
D03*
Y374000D02*
D03*
Y214000D02*
D03*
X102000Y198000D02*
D03*
Y134000D02*
D03*
Y38000D02*
D03*
Y6000D02*
D03*
X86000Y933999D02*
D03*
X94000Y917999D02*
D03*
X86000Y902000D02*
D03*
Y869999D02*
D03*
X94000Y853999D02*
D03*
X86000Y837999D02*
D03*
X94000Y822000D02*
D03*
X86000Y806000D02*
D03*
X94000Y790000D02*
D03*
X86000Y774000D02*
D03*
X94000Y758000D02*
D03*
X86000Y742000D02*
D03*
Y646000D02*
D03*
X94000Y630000D02*
D03*
X86000Y614000D02*
D03*
Y230000D02*
D03*
X94000Y86000D02*
D03*
X86000Y70000D02*
D03*
Y38000D02*
D03*
X94000Y22000D02*
D03*
X86000Y6000D02*
D03*
X70000Y933999D02*
D03*
X78000Y886000D02*
D03*
Y853999D02*
D03*
X70000Y837999D02*
D03*
X78000Y822000D02*
D03*
Y790000D02*
D03*
Y758000D02*
D03*
X70000Y742000D02*
D03*
Y678000D02*
D03*
X78000Y630000D02*
D03*
X70000Y614000D02*
D03*
Y230000D02*
D03*
Y198000D02*
D03*
Y166000D02*
D03*
Y102000D02*
D03*
X78000Y86000D02*
D03*
X70000Y70000D02*
D03*
X78000Y54000D02*
D03*
X70000Y6000D02*
D03*
X54000Y933999D02*
D03*
X62000Y917999D02*
D03*
Y853999D02*
D03*
X54000Y806000D02*
D03*
Y774000D02*
D03*
X62000Y342000D02*
D03*
X54000Y326000D02*
D03*
Y294000D02*
D03*
Y262000D02*
D03*
Y230000D02*
D03*
Y198000D02*
D03*
Y134000D02*
D03*
X62000Y118000D02*
D03*
X54000Y102000D02*
D03*
Y6000D02*
D03*
X38000Y933999D02*
D03*
X46000Y886000D02*
D03*
Y853999D02*
D03*
X38000Y837999D02*
D03*
X46000Y822000D02*
D03*
X38000Y806000D02*
D03*
X46000Y790000D02*
D03*
X38000Y774000D02*
D03*
X46000Y758000D02*
D03*
Y662000D02*
D03*
Y630000D02*
D03*
Y598000D02*
D03*
Y566000D02*
D03*
Y534000D02*
D03*
Y502000D02*
D03*
Y470000D02*
D03*
Y438000D02*
D03*
Y406000D02*
D03*
Y374000D02*
D03*
Y342000D02*
D03*
Y310000D02*
D03*
Y278000D02*
D03*
Y246000D02*
D03*
Y214000D02*
D03*
Y182000D02*
D03*
Y118000D02*
D03*
Y86000D02*
D03*
Y22000D02*
D03*
X38000Y6000D02*
D03*
X22000Y933999D02*
D03*
X30000Y917999D02*
D03*
X22000Y902000D02*
D03*
Y869999D02*
D03*
Y837999D02*
D03*
Y806000D02*
D03*
Y774000D02*
D03*
Y710000D02*
D03*
Y646000D02*
D03*
Y614000D02*
D03*
Y582000D02*
D03*
Y550000D02*
D03*
Y518000D02*
D03*
Y486000D02*
D03*
Y454000D02*
D03*
Y422000D02*
D03*
Y390000D02*
D03*
Y358000D02*
D03*
Y294000D02*
D03*
Y262000D02*
D03*
Y230000D02*
D03*
Y198000D02*
D03*
Y166000D02*
D03*
Y134000D02*
D03*
Y102000D02*
D03*
Y70000D02*
D03*
X30000Y54000D02*
D03*
X22000Y38000D02*
D03*
X30000Y22000D02*
D03*
X22000Y6000D02*
D03*
X6000Y933999D02*
D03*
X14000Y917999D02*
D03*
X6000Y902000D02*
D03*
X14000Y886000D02*
D03*
X6000Y869999D02*
D03*
X14000Y853999D02*
D03*
X6000Y837999D02*
D03*
X14000Y822000D02*
D03*
X6000Y806000D02*
D03*
X14000Y790000D02*
D03*
X6000Y774000D02*
D03*
X14000Y758000D02*
D03*
X6000Y710000D02*
D03*
X14000Y694000D02*
D03*
Y662000D02*
D03*
X6000Y646000D02*
D03*
X14000Y630000D02*
D03*
X6000Y614000D02*
D03*
X14000Y598000D02*
D03*
X6000Y582000D02*
D03*
X14000Y566000D02*
D03*
X6000Y550000D02*
D03*
X14000Y534000D02*
D03*
X6000Y518000D02*
D03*
X14000Y502000D02*
D03*
X6000Y486000D02*
D03*
X14000Y470000D02*
D03*
X6000Y454000D02*
D03*
X14000Y438000D02*
D03*
X6000Y422000D02*
D03*
X14000Y406000D02*
D03*
X6000Y390000D02*
D03*
X14000Y374000D02*
D03*
X6000Y358000D02*
D03*
X14000Y342000D02*
D03*
X6000Y326000D02*
D03*
X14000Y310000D02*
D03*
X6000Y294000D02*
D03*
X14000Y278000D02*
D03*
X6000Y262000D02*
D03*
X14000Y246000D02*
D03*
X6000Y230000D02*
D03*
X14000Y214000D02*
D03*
X6000Y198000D02*
D03*
X14000Y182000D02*
D03*
X6000Y166000D02*
D03*
X14000Y150000D02*
D03*
X6000Y134000D02*
D03*
X14000Y118000D02*
D03*
X6000Y102000D02*
D03*
X14000Y86000D02*
D03*
X6000Y70000D02*
D03*
X14000Y54000D02*
D03*
X6000Y38000D02*
D03*
X14000Y22000D02*
D03*
X577750Y265750D02*
D03*
X563000Y384903D02*
D03*
X565000Y317500D02*
D03*
X602500Y335000D02*
D03*
X650949Y386600D02*
D03*
X678860Y402585D02*
D03*
X695000Y404000D02*
D03*
X585750Y364250D02*
D03*
X594000Y372500D02*
D03*
X599000Y405097D02*
D03*
X539712Y373451D02*
D03*
X143000Y610000D02*
D03*
X185000Y121250D02*
D03*
X241000Y161000D02*
D03*
X243000Y137000D02*
D03*
Y131000D02*
D03*
X265000D02*
D03*
X264000Y147000D02*
D03*
Y152000D02*
D03*
X269000Y111000D02*
D03*
X242000Y92000D02*
D03*
Y98000D02*
D03*
Y104000D02*
D03*
X322000Y228000D02*
D03*
X571000Y30000D02*
D03*
X591000D02*
D03*
X611000Y31000D02*
D03*
X631000D02*
D03*
X643000D02*
D03*
X655000D02*
D03*
X976613Y172227D02*
D03*
X1008000Y171000D02*
D03*
X190500Y497750D02*
D03*
X283892Y493146D02*
D03*
X283750Y501000D02*
D03*
X190250Y607250D02*
D03*
X539000Y417250D02*
D03*
X462000Y440000D02*
D03*
X463750Y469649D02*
D03*
X439000Y470086D02*
D03*
X502000Y468000D02*
D03*
X480487Y468168D02*
D03*
X422500Y470372D02*
D03*
X407000Y468914D02*
D03*
X392442Y467412D02*
D03*
X377604Y467716D02*
D03*
X362469Y467479D02*
D03*
X320000Y470000D02*
D03*
X326000D02*
D03*
X332000D02*
D03*
X329000Y474000D02*
D03*
X323000D02*
D03*
X317000D02*
D03*
X124750Y295750D02*
D03*
X145000Y291750D02*
D03*
Y297750D02*
D03*
X120000Y298000D02*
D03*
X651633Y585708D02*
D03*
X654000Y450500D02*
D03*
X648000Y441750D02*
D03*
X659250D02*
D03*
X669250Y441250D02*
D03*
X584457Y403430D02*
D03*
X575000Y404500D02*
D03*
X590950Y432708D02*
D03*
X556250Y417500D02*
D03*
X551000D02*
D03*
X668257Y386591D02*
D03*
X555500Y82355D02*
D03*
X567579Y76428D02*
D03*
X607000Y63750D02*
D03*
X642750Y62979D02*
D03*
X655000Y79521D02*
D03*
X667194Y34008D02*
D03*
X917000Y182000D02*
D03*
X901000Y185000D02*
D03*
X223000Y218000D02*
D03*
Y224000D02*
D03*
X213000Y232000D02*
D03*
X812000Y371000D02*
D03*
X471000Y316000D02*
D03*
X175000Y333000D02*
D03*
X190000D02*
D03*
X241000Y349000D02*
D03*
X356250Y223500D02*
D03*
X339000Y185250D02*
D03*
X72462Y696699D02*
D03*
X729000Y133500D02*
D03*
X572000Y182000D02*
D03*
X86523Y701954D02*
D03*
X754250Y882500D02*
D03*
X767200Y874400D02*
D03*
X701000Y833750D02*
D03*
X719000Y856750D02*
D03*
X730250D02*
D03*
X739000Y854750D02*
D03*
X752000Y855750D02*
D03*
X770000Y852000D02*
D03*
X727500Y865000D02*
D03*
X703500Y863500D02*
D03*
X717500Y864750D02*
D03*
X740000Y882000D02*
D03*
X690557Y137703D02*
D03*
D166*
X651000Y117000D02*
D03*
X660000D02*
D03*
X670000D02*
D03*
X618000Y214000D02*
D03*
X612000Y219000D02*
D03*
X641000Y214000D02*
D03*
X647000Y219000D02*
D03*
X685000Y522500D02*
D03*
X198000Y290000D02*
D03*
Y302000D02*
D03*
Y314000D02*
D03*
X295000Y106000D02*
D03*
X284000Y96000D02*
D03*
X295000D02*
D03*
X242000Y567000D02*
D03*
Y576000D02*
D03*
Y585000D02*
D03*
X653000Y214000D02*
D03*
X422000Y129000D02*
D03*
X606000Y214000D02*
D03*
X416250Y154000D02*
D03*
X422000Y141000D02*
D03*
X271250Y634000D02*
D03*
X491000Y147000D02*
D03*
X419000Y220000D02*
D03*
X432000Y216000D02*
D03*
X442000D02*
D03*
X494000Y219000D02*
D03*
Y209000D02*
D03*
Y199000D02*
D03*
Y189000D02*
D03*
X493000Y167000D02*
D03*
X477000Y125000D02*
D03*
X489000Y124000D02*
D03*
Y136000D02*
D03*
X477000D02*
D03*
X416000Y180000D02*
D03*
Y190000D02*
D03*
Y200000D02*
D03*
X329750Y609000D02*
D03*
X320000Y662000D02*
D03*
X310000D02*
D03*
X293000Y614000D02*
D03*
X302000Y637000D02*
D03*
Y646000D02*
D03*
Y655000D02*
D03*
X497500Y742500D02*
D03*
X542500D02*
D03*
X512500D02*
D03*
X527500D02*
D03*
X713750Y523250D02*
D03*
X724000Y510500D02*
D03*
X700000Y700000D02*
D03*
X242000Y558000D02*
D03*
X671000Y8000D02*
D03*
X680000D02*
D03*
X689000D02*
D03*
X698000D02*
D03*
X819000Y102000D02*
D03*
X812000Y95000D02*
D03*
X805000Y88000D02*
D03*
X794000Y157000D02*
D03*
X803000D02*
D03*
X794000Y166000D02*
D03*
X802750Y186250D02*
D03*
X793500D02*
D03*
X803000Y166000D02*
D03*
X796500Y206000D02*
D03*
X803750Y212250D02*
D03*
X645000Y805000D02*
D03*
X655000D02*
D03*
X665000D02*
D03*
X652500Y870000D02*
D03*
X662500Y860000D02*
D03*
X652500D02*
D03*
X642500D02*
D03*
Y870000D02*
D03*
X662500D02*
D03*
X687500Y700000D02*
D03*
X712500D02*
D03*
Y687500D02*
D03*
X700000D02*
D03*
X687500D02*
D03*
Y675000D02*
D03*
X700000D02*
D03*
X712500D02*
D03*
X485000Y915000D02*
D03*
X472500D02*
D03*
X460000D02*
D03*
Y927500D02*
D03*
X472500D02*
D03*
X485000D02*
D03*
Y940000D02*
D03*
X472500D02*
D03*
X460000D02*
D03*
X565000Y715000D02*
D03*
X532500D02*
D03*
X500000D02*
D03*
X467500D02*
D03*
X557500Y742500D02*
D03*
X482500D02*
D03*
X467500D02*
D03*
X657500Y522500D02*
D03*
X647500D02*
D03*
X635000D02*
D03*
X646263Y492969D02*
D03*
X622500Y522500D02*
D03*
X588809Y513580D02*
D03*
D167*
X870000Y465000D02*
D03*
Y905000D02*
D03*
X580000D02*
D03*
Y465000D02*
D03*
M02*
