G04*
G04 #@! TF.GenerationSoftware,Altium Limited,Altium Designer,25.3.3 (18)*
G04*
G04 Layer_Color=8421504*
%FSLAX44Y44*%
%MOMM*%
G71*
G04*
G04 #@! TF.SameCoordinates,CF69704A-5354-45C7-9BAD-F186B8640CAA*
G04*
G04*
G04 #@! TF.FilePolarity,Positive*
G04*
G01*
G75*
G04:AMPARAMS|DCode=21|XSize=0.6mm|YSize=1.45mm|CornerRadius=0mm|HoleSize=0mm|Usage=FLASHONLY|Rotation=135.000|XOffset=0mm|YOffset=0mm|HoleType=Round|Shape=Rectangle|*
%AMROTATEDRECTD21*
4,1,4,0.7248,0.3005,-0.3005,-0.7248,-0.7248,-0.3005,0.3005,0.7248,0.7248,0.3005,0.0*
%
%ADD21ROTATEDRECTD21*%

%ADD22R,0.2000X0.7000*%
%ADD23R,1.0500X0.9000*%
%ADD24R,1.7200X1.0500*%
%ADD25R,0.8000X0.9500*%
%ADD26R,0.9100X0.8300*%
%ADD27R,1.0000X1.4000*%
%ADD28R,1.2700X2.5400*%
%ADD29R,3.4300X1.6500*%
%ADD30R,0.6000X1.2000*%
%ADD31R,1.3200X0.5900*%
%ADD32R,0.9500X0.8000*%
%ADD33R,1.1000X0.2500*%
%ADD34R,0.9000X0.2500*%
%ADD35R,2.0000X1.7000*%
%ADD36R,1.3800X1.7000*%
%ADD37R,1.6500X3.4300*%
%ADD38R,2.5400X1.2700*%
%ADD39R,1.5000X2.0200*%
%ADD40R,1.2000X0.3000*%
%ADD41R,1.2000X0.6000*%
%ADD42R,0.6350X0.6100*%
%ADD43R,2.7062X0.9542*%
%ADD44R,2.0000X4.5000*%
%ADD45R,0.6450X0.9000*%
%ADD46R,0.9000X1.0500*%
%ADD47R,1.2954X1.9050*%
%ADD48R,0.6604X1.5494*%
%ADD49R,0.9542X2.7062*%
%ADD50R,1.4500X0.6000*%
G04:AMPARAMS|DCode=51|XSize=0.95mm|YSize=0.8mm|CornerRadius=0mm|HoleSize=0mm|Usage=FLASHONLY|Rotation=135.000|XOffset=0mm|YOffset=0mm|HoleType=Round|Shape=Rectangle|*
%AMROTATEDRECTD51*
4,1,4,0.6187,-0.0530,0.0530,-0.6187,-0.6187,0.0530,-0.0530,0.6187,0.6187,-0.0530,0.0*
%
%ADD51ROTATEDRECTD51*%

%ADD52R,0.5000X0.7000*%
%ADD53R,0.6100X0.6350*%
%ADD54R,1.2000X2.7500*%
%ADD55R,0.3000X1.5500*%
%ADD56R,0.3000X1.2500*%
%ADD57R,0.5900X1.3200*%
%ADD58R,0.7000X1.2000*%
%ADD59R,1.0000X1.2000*%
%ADD60R,1.0000X0.8000*%
%ADD61R,1.0000X2.8000*%
%ADD62R,1.3000X1.9000*%
G36*
X875700Y933744D02*
X880439Y932382D01*
X884882Y930244D01*
X888904Y927391D01*
X892391Y923904D01*
X895244Y919882D01*
X897382Y915439D01*
X898744Y910700D01*
X899019Y908250D01*
X888720D01*
X888416Y909674D01*
X887486Y912433D01*
X886145Y915016D01*
X884426Y917365D01*
X882368Y919424D01*
X880019Y921143D01*
X877436Y922485D01*
X874678Y923415D01*
X873253Y923719D01*
X873250D01*
Y934019D01*
X875700Y933744D01*
D02*
G37*
G36*
X866750Y923720D02*
X865326Y923416D01*
X862567Y922486D01*
X859984Y921145D01*
X857635Y919426D01*
X855576Y917368D01*
X853857Y915019D01*
X852515Y912436D01*
X851585Y909678D01*
X851281Y908253D01*
X851281D01*
Y908250D01*
X840981D01*
X841256Y910700D01*
X842618Y915439D01*
X844756Y919882D01*
X847609Y923904D01*
X851096Y927391D01*
X855118Y930244D01*
X859561Y932382D01*
X864300Y933744D01*
X866750Y934019D01*
X866750D01*
Y923720D01*
D02*
G37*
G36*
X585700Y933744D02*
X590439Y932382D01*
X594882Y930244D01*
X598904Y927391D01*
X602391Y923904D01*
X605243Y919882D01*
X607382Y915439D01*
X608744Y910700D01*
X609019Y908250D01*
X598720D01*
X598416Y909674D01*
X597486Y912433D01*
X596145Y915016D01*
X594426Y917365D01*
X592368Y919424D01*
X590019Y921143D01*
X587436Y922485D01*
X584678Y923415D01*
X583253Y923719D01*
X583250D01*
Y934019D01*
X585700Y933744D01*
D02*
G37*
G36*
X576750Y923720D02*
X575326Y923416D01*
X572567Y922486D01*
X569984Y921145D01*
X567635Y919426D01*
X565576Y917368D01*
X563857Y915019D01*
X562515Y912436D01*
X561585Y909678D01*
X561281Y908253D01*
X561281D01*
Y908250D01*
X550981D01*
X551256Y910700D01*
X552618Y915439D01*
X554757Y919882D01*
X557609Y923904D01*
X561096Y927391D01*
X565118Y930244D01*
X569561Y932382D01*
X574300Y933744D01*
X576750Y934019D01*
X576750D01*
Y923720D01*
D02*
G37*
G36*
X899019Y901750D02*
X898744Y899300D01*
X897382Y894561D01*
X895244Y890118D01*
X892391Y886096D01*
X888904Y882609D01*
X884882Y879756D01*
X880439Y877618D01*
X875700Y876256D01*
X873250Y875981D01*
Y875981D01*
Y886280D01*
X874674Y886584D01*
X877433Y887514D01*
X880016Y888855D01*
X882365Y890574D01*
X884424Y892632D01*
X886143Y894981D01*
X887485Y897564D01*
X888415Y900322D01*
X888719Y901747D01*
Y901747D01*
Y901750D01*
X899019Y901750D01*
D02*
G37*
G36*
X851584Y900326D02*
X852514Y897567D01*
X853855Y894984D01*
X855574Y892635D01*
X857632Y890576D01*
X859981Y888857D01*
X862564Y887515D01*
X865322Y886585D01*
X866747Y886281D01*
X866747Y886281D01*
X866750D01*
X866750Y875981D01*
X864300Y876256D01*
X859561Y877618D01*
X855118Y879756D01*
X851096Y882609D01*
X847609Y886096D01*
X844756Y890118D01*
X842618Y894561D01*
X841256Y899300D01*
X840981Y901750D01*
X840982Y901750D01*
X851280D01*
X851584Y900326D01*
D02*
G37*
G36*
X609019Y901750D02*
X608744Y899300D01*
X607382Y894561D01*
X605243Y890118D01*
X602391Y886096D01*
X598904Y882609D01*
X594882Y879756D01*
X590439Y877618D01*
X585700Y876256D01*
X583250Y875981D01*
Y875981D01*
Y886280D01*
X584674Y886584D01*
X587433Y887514D01*
X590016Y888855D01*
X592365Y890574D01*
X594424Y892632D01*
X596143Y894981D01*
X597485Y897564D01*
X598415Y900322D01*
X598719Y901747D01*
Y901747D01*
Y901750D01*
X609019Y901750D01*
D02*
G37*
G36*
X561584Y900326D02*
X562514Y897567D01*
X563855Y894984D01*
X565574Y892635D01*
X567632Y890576D01*
X569981Y888857D01*
X572564Y887515D01*
X575322Y886585D01*
X576747Y886281D01*
X576747Y886281D01*
X576750D01*
X576750Y875981D01*
X574300Y876256D01*
X569561Y877618D01*
X565118Y879756D01*
X561096Y882609D01*
X557609Y886096D01*
X554757Y890118D01*
X552618Y894561D01*
X551256Y899300D01*
X550981Y901750D01*
X550981Y901750D01*
X561280D01*
X561584Y900326D01*
D02*
G37*
G36*
X763800Y872600D02*
X762200D01*
Y878200D01*
X763800D01*
Y872600D01*
D02*
G37*
G36*
X759800D02*
X758200D01*
Y878200D01*
X759800D01*
Y872600D01*
D02*
G37*
G36*
X755800D02*
X754200D01*
Y878200D01*
X755800D01*
Y872600D01*
D02*
G37*
G36*
X751800D02*
X750200D01*
Y878200D01*
X751800D01*
Y872600D01*
D02*
G37*
G36*
X747800D02*
X746200D01*
Y878200D01*
X747800D01*
Y872600D01*
D02*
G37*
G36*
X743800D02*
X742200D01*
Y878200D01*
X743800D01*
Y872600D01*
D02*
G37*
G36*
X739800D02*
X738200D01*
Y878200D01*
X739800D01*
Y872600D01*
D02*
G37*
G36*
X735800D02*
X734200D01*
Y878200D01*
X735800D01*
Y872600D01*
D02*
G37*
G36*
X731800D02*
X730200D01*
Y878200D01*
X731800D01*
Y872600D01*
D02*
G37*
G36*
X727800D02*
X726200D01*
Y878200D01*
X727800D01*
Y872600D01*
D02*
G37*
G36*
X723800D02*
X722200D01*
Y878200D01*
X723800D01*
Y872600D01*
D02*
G37*
G36*
X719800D02*
X718200D01*
Y878200D01*
X719800D01*
Y872600D01*
D02*
G37*
G36*
X715800D02*
X714200D01*
Y878200D01*
X715800D01*
Y872600D01*
D02*
G37*
G36*
X711800D02*
X710200D01*
Y878200D01*
X711800D01*
Y872600D01*
D02*
G37*
G36*
X707800D02*
X706200D01*
Y878200D01*
X707800D01*
Y872600D01*
D02*
G37*
G36*
X703800D02*
X702200D01*
Y878200D01*
X703800D01*
Y872600D01*
D02*
G37*
G36*
X699800D02*
X698200D01*
Y878200D01*
X699800D01*
Y872600D01*
D02*
G37*
G36*
X695800D02*
X694200D01*
Y878200D01*
X695800D01*
Y872600D01*
D02*
G37*
G36*
X691800D02*
X690200D01*
Y878200D01*
X691800D01*
Y872600D01*
D02*
G37*
G36*
X687800D02*
X686200D01*
Y878200D01*
X687800D01*
Y872600D01*
D02*
G37*
G36*
X763800Y841800D02*
X762200D01*
Y847400D01*
X763800D01*
Y841800D01*
D02*
G37*
G36*
X759800D02*
X758200D01*
Y847400D01*
X759800D01*
Y841800D01*
D02*
G37*
G36*
X755800D02*
X754200D01*
Y847400D01*
X755800D01*
Y841800D01*
D02*
G37*
G36*
X751800D02*
X750200D01*
Y847400D01*
X751800D01*
Y841800D01*
D02*
G37*
G36*
X747800D02*
X746200D01*
Y847400D01*
X747800D01*
Y841800D01*
D02*
G37*
G36*
X743800D02*
X742200D01*
Y847400D01*
X743800D01*
Y841800D01*
D02*
G37*
G36*
X739800D02*
X738200D01*
Y847400D01*
X739800D01*
Y841800D01*
D02*
G37*
G36*
X735800D02*
X734200D01*
Y847400D01*
X735800D01*
Y841800D01*
D02*
G37*
G36*
X731800D02*
X730200D01*
Y847400D01*
X731800D01*
Y841800D01*
D02*
G37*
G36*
X727800D02*
X726200D01*
Y847400D01*
X727800D01*
Y841800D01*
D02*
G37*
G36*
X723800D02*
X722200D01*
Y847400D01*
X723800D01*
Y841800D01*
D02*
G37*
G36*
X719800D02*
X718200D01*
Y847400D01*
X719800D01*
Y841800D01*
D02*
G37*
G36*
X715800D02*
X714200D01*
Y847400D01*
X715800D01*
Y841800D01*
D02*
G37*
G36*
X711800D02*
X710200D01*
Y847400D01*
X711800D01*
Y841800D01*
D02*
G37*
G36*
X707800D02*
X706200D01*
Y847400D01*
X707800D01*
Y841800D01*
D02*
G37*
G36*
X703800D02*
X702200D01*
Y847400D01*
X703800D01*
Y841800D01*
D02*
G37*
G36*
X699800D02*
X698200D01*
Y847400D01*
X699800D01*
Y841800D01*
D02*
G37*
G36*
X695800D02*
X694200D01*
Y847400D01*
X695800D01*
Y841800D01*
D02*
G37*
G36*
X691800D02*
X690200D01*
Y847400D01*
X691800D01*
Y841800D01*
D02*
G37*
G36*
X687800D02*
X686200D01*
Y847400D01*
X687800D01*
Y841800D01*
D02*
G37*
G36*
X875700Y493744D02*
X880439Y492382D01*
X884882Y490243D01*
X888904Y487391D01*
X892391Y483904D01*
X895244Y479882D01*
X897382Y475439D01*
X898744Y470700D01*
X899019Y468250D01*
X888720D01*
X888416Y469674D01*
X887486Y472433D01*
X886145Y475016D01*
X884426Y477365D01*
X882368Y479424D01*
X880019Y481143D01*
X877436Y482485D01*
X874678Y483415D01*
X873253Y483719D01*
X873250D01*
Y494019D01*
X875700Y493744D01*
D02*
G37*
G36*
X866750Y483720D02*
X865326Y483416D01*
X862567Y482486D01*
X859984Y481145D01*
X857635Y479426D01*
X855576Y477368D01*
X853857Y475019D01*
X852515Y472436D01*
X851585Y469678D01*
X851281Y468253D01*
X851281D01*
Y468250D01*
X840981D01*
X841256Y470700D01*
X842618Y475439D01*
X844756Y479882D01*
X847609Y483904D01*
X851096Y487391D01*
X855118Y490243D01*
X859561Y492382D01*
X864300Y493744D01*
X866750Y494019D01*
X866750D01*
Y483720D01*
D02*
G37*
G36*
X585700Y493744D02*
X590439Y492382D01*
X594882Y490243D01*
X598904Y487391D01*
X602391Y483904D01*
X605243Y479882D01*
X607382Y475439D01*
X608744Y470700D01*
X609019Y468250D01*
X598720D01*
X598416Y469674D01*
X597486Y472433D01*
X596145Y475016D01*
X594426Y477365D01*
X592368Y479424D01*
X590019Y481143D01*
X587436Y482485D01*
X584678Y483415D01*
X583253Y483719D01*
X583250D01*
Y494019D01*
X585700Y493744D01*
D02*
G37*
G36*
X576750Y483720D02*
X575326Y483416D01*
X572567Y482486D01*
X569984Y481145D01*
X567635Y479426D01*
X565576Y477368D01*
X563857Y475019D01*
X562515Y472436D01*
X561585Y469678D01*
X561281Y468253D01*
X561281D01*
Y468250D01*
X550981D01*
X551256Y470700D01*
X552618Y475439D01*
X554757Y479882D01*
X557609Y483904D01*
X561096Y487391D01*
X565118Y490243D01*
X569561Y492382D01*
X574300Y493744D01*
X576750Y494019D01*
X576750D01*
Y483720D01*
D02*
G37*
G36*
X899019Y461750D02*
X898744Y459300D01*
X897382Y454561D01*
X895244Y450118D01*
X892391Y446096D01*
X888904Y442609D01*
X884882Y439757D01*
X880439Y437618D01*
X875700Y436256D01*
X873250Y435981D01*
Y435981D01*
Y446280D01*
X874674Y446584D01*
X877433Y447514D01*
X880016Y448855D01*
X882365Y450574D01*
X884424Y452632D01*
X886143Y454981D01*
X887485Y457564D01*
X888415Y460322D01*
X888719Y461747D01*
Y461747D01*
Y461750D01*
X899019Y461750D01*
D02*
G37*
G36*
X851584Y460326D02*
X852514Y457567D01*
X853855Y454984D01*
X855574Y452635D01*
X857632Y450576D01*
X859981Y448857D01*
X862564Y447515D01*
X865322Y446585D01*
X866747Y446281D01*
X866747Y446281D01*
X866750D01*
X866750Y435981D01*
X864300Y436256D01*
X859561Y437618D01*
X855118Y439757D01*
X851096Y442609D01*
X847609Y446096D01*
X844756Y450118D01*
X842618Y454561D01*
X841256Y459300D01*
X840981Y461750D01*
X840982Y461750D01*
X851280D01*
X851584Y460326D01*
D02*
G37*
G36*
X609019Y461750D02*
X608744Y459300D01*
X607382Y454561D01*
X605243Y450118D01*
X602391Y446096D01*
X598904Y442609D01*
X594882Y439757D01*
X590439Y437618D01*
X585700Y436256D01*
X583250Y435981D01*
Y435981D01*
Y446280D01*
X584674Y446584D01*
X587433Y447514D01*
X590016Y448855D01*
X592365Y450574D01*
X594424Y452632D01*
X596143Y454981D01*
X597485Y457564D01*
X598415Y460322D01*
X598719Y461747D01*
Y461747D01*
Y461750D01*
X609019Y461750D01*
D02*
G37*
G36*
X561584Y460326D02*
X562514Y457567D01*
X563855Y454984D01*
X565574Y452635D01*
X567632Y450576D01*
X569981Y448857D01*
X572564Y447515D01*
X575322Y446585D01*
X576747Y446281D01*
X576747Y446281D01*
X576750D01*
X576750Y435981D01*
X574300Y436256D01*
X569561Y437618D01*
X565118Y439757D01*
X561096Y442609D01*
X557609Y446096D01*
X554757Y450118D01*
X552618Y454561D01*
X551256Y459300D01*
X550981Y461750D01*
X550981Y461750D01*
X561280D01*
X561584Y460326D01*
D02*
G37*
G36*
X500675Y376190D02*
X495341D01*
X493055Y380000D01*
X495341Y383810D01*
X500675D01*
Y376190D01*
D02*
G37*
G36*
X491277Y380000D02*
X493563Y376190D01*
X486451D01*
Y383810D01*
X493563D01*
X491277Y380000D01*
D02*
G37*
G36*
X524175Y364440D02*
X517063D01*
X519349Y368250D01*
X517063Y372060D01*
X524175D01*
Y364440D01*
D02*
G37*
G36*
X517571Y368250D02*
X515285Y364440D01*
X509951D01*
Y372060D01*
X515285D01*
X517571Y368250D01*
D02*
G37*
G36*
X559049Y363690D02*
X553715D01*
X551429Y367500D01*
X553715Y371310D01*
X559049D01*
Y363690D01*
D02*
G37*
G36*
X549651Y367500D02*
X551937Y363690D01*
X544825D01*
Y371310D01*
X551937D01*
X549651Y367500D01*
D02*
G37*
G36*
X524175Y352940D02*
X517063D01*
X519349Y356750D01*
X517063Y360560D01*
X524175D01*
Y352940D01*
D02*
G37*
G36*
X517571Y356750D02*
X515285Y352940D01*
X509951D01*
Y360560D01*
X515285D01*
X517571Y356750D01*
D02*
G37*
G36*
X559049Y351940D02*
X553715D01*
X551429Y355750D01*
X553715Y359560D01*
X559049D01*
Y351940D01*
D02*
G37*
G36*
X549651Y355750D02*
X551937Y351940D01*
X544825D01*
Y359560D01*
X551937D01*
X549651Y355750D01*
D02*
G37*
G36*
X573549Y78690D02*
X566437D01*
X568723Y82500D01*
X566437Y86310D01*
X573549D01*
Y78690D01*
D02*
G37*
G36*
X566945Y82500D02*
X564659Y78690D01*
X559325D01*
Y86310D01*
X564659D01*
X566945Y82500D01*
D02*
G37*
G36*
X743549Y21190D02*
X738215D01*
X735929Y25000D01*
X738215Y28810D01*
X743549D01*
Y21190D01*
D02*
G37*
G36*
X734151Y25000D02*
X736437Y21190D01*
X729325D01*
Y28810D01*
X736437D01*
X734151Y25000D01*
D02*
G37*
G36*
X723175Y21190D02*
X716063D01*
X718349Y25000D01*
X716063Y28810D01*
X723175D01*
Y21190D01*
D02*
G37*
G36*
X716571Y25000D02*
X714285Y21190D01*
X708951D01*
Y28810D01*
X714285D01*
X716571Y25000D01*
D02*
G37*
D21*
X721739Y290798D02*
D03*
X712759Y299778D02*
D03*
X703779Y308759D02*
D03*
X694798Y317739D02*
D03*
X683202Y252261D02*
D03*
X674221Y261241D02*
D03*
X665241Y270222D02*
D03*
X656261Y279202D02*
D03*
D22*
X723000Y410400D02*
D03*
Y379600D02*
D03*
X719000Y410400D02*
D03*
Y379600D02*
D03*
X715000Y410400D02*
D03*
Y379600D02*
D03*
X711000Y410400D02*
D03*
Y379600D02*
D03*
X707000Y410400D02*
D03*
Y379600D02*
D03*
X703000Y410400D02*
D03*
Y379600D02*
D03*
X699000Y410400D02*
D03*
Y379600D02*
D03*
X695000Y410400D02*
D03*
Y379600D02*
D03*
X691000Y410400D02*
D03*
Y379600D02*
D03*
X687000Y410400D02*
D03*
Y379600D02*
D03*
X683000Y410400D02*
D03*
Y379600D02*
D03*
X679000Y410400D02*
D03*
Y379600D02*
D03*
X675000Y410400D02*
D03*
Y379600D02*
D03*
X671000Y410400D02*
D03*
Y379600D02*
D03*
X667000Y410400D02*
D03*
Y379600D02*
D03*
X663000Y410400D02*
D03*
Y379600D02*
D03*
X659000Y410400D02*
D03*
Y379600D02*
D03*
X655000Y410400D02*
D03*
Y379600D02*
D03*
X651000Y410400D02*
D03*
Y379600D02*
D03*
X647000Y410400D02*
D03*
Y379600D02*
D03*
X643000Y410400D02*
D03*
Y379600D02*
D03*
X639000Y410400D02*
D03*
Y379600D02*
D03*
X635000Y410400D02*
D03*
Y379600D02*
D03*
X631000Y410400D02*
D03*
Y379600D02*
D03*
X627000Y410400D02*
D03*
Y379600D02*
D03*
X623000Y410400D02*
D03*
Y379600D02*
D03*
X619000Y410400D02*
D03*
Y379600D02*
D03*
X615000Y410400D02*
D03*
Y379600D02*
D03*
X611000Y410400D02*
D03*
Y379600D02*
D03*
X607000Y410400D02*
D03*
Y379600D02*
D03*
X603000Y410400D02*
D03*
Y379600D02*
D03*
X599000Y410400D02*
D03*
Y379600D02*
D03*
X595000Y410400D02*
D03*
Y379600D02*
D03*
X591000Y410400D02*
D03*
Y379600D02*
D03*
X587000Y410400D02*
D03*
Y379600D02*
D03*
X583000Y410400D02*
D03*
Y379600D02*
D03*
X579000Y410400D02*
D03*
Y379600D02*
D03*
X575000Y410400D02*
D03*
Y379600D02*
D03*
X571000Y410400D02*
D03*
Y379600D02*
D03*
X567000Y410400D02*
D03*
Y379600D02*
D03*
X563000Y410400D02*
D03*
Y379600D02*
D03*
X559000Y410400D02*
D03*
Y379600D02*
D03*
X555000Y410400D02*
D03*
Y379600D02*
D03*
X551000Y410400D02*
D03*
Y379600D02*
D03*
X547000Y410400D02*
D03*
Y379600D02*
D03*
X543000Y410400D02*
D03*
Y379600D02*
D03*
X539000Y410400D02*
D03*
Y379600D02*
D03*
X535000Y410400D02*
D03*
Y379600D02*
D03*
X531000Y410400D02*
D03*
Y379600D02*
D03*
X527000Y410400D02*
D03*
Y379600D02*
D03*
X723000Y70400D02*
D03*
Y39600D02*
D03*
X719000Y70400D02*
D03*
Y39600D02*
D03*
X715000Y70400D02*
D03*
Y39600D02*
D03*
X711000Y70400D02*
D03*
Y39600D02*
D03*
X707000Y70400D02*
D03*
Y39600D02*
D03*
X703000Y70400D02*
D03*
Y39600D02*
D03*
X699000Y70400D02*
D03*
Y39600D02*
D03*
X695000Y70400D02*
D03*
Y39600D02*
D03*
X691000Y70400D02*
D03*
Y39600D02*
D03*
X687000Y70400D02*
D03*
Y39600D02*
D03*
X683000Y70400D02*
D03*
Y39600D02*
D03*
X679000Y70400D02*
D03*
Y39600D02*
D03*
X675000Y70400D02*
D03*
Y39600D02*
D03*
X671000Y70400D02*
D03*
Y39600D02*
D03*
X667000Y70400D02*
D03*
Y39600D02*
D03*
X663000Y70400D02*
D03*
Y39600D02*
D03*
X659000Y70400D02*
D03*
Y39600D02*
D03*
X655000Y70400D02*
D03*
Y39600D02*
D03*
X651000Y70400D02*
D03*
Y39600D02*
D03*
X647000Y70400D02*
D03*
Y39600D02*
D03*
X643000Y70400D02*
D03*
Y39600D02*
D03*
X639000Y70400D02*
D03*
Y39600D02*
D03*
X635000Y70400D02*
D03*
Y39600D02*
D03*
X631000Y70400D02*
D03*
Y39600D02*
D03*
X627000Y70400D02*
D03*
Y39600D02*
D03*
X623000Y70400D02*
D03*
Y39600D02*
D03*
X619000Y70400D02*
D03*
Y39600D02*
D03*
X615000Y70400D02*
D03*
Y39600D02*
D03*
X611000Y70400D02*
D03*
Y39600D02*
D03*
X607000Y70400D02*
D03*
Y39600D02*
D03*
X603000Y70400D02*
D03*
Y39600D02*
D03*
X599000Y70400D02*
D03*
Y39600D02*
D03*
X595000Y70400D02*
D03*
Y39600D02*
D03*
X591000Y70400D02*
D03*
Y39600D02*
D03*
X587000Y70400D02*
D03*
Y39600D02*
D03*
X583000Y70400D02*
D03*
Y39600D02*
D03*
X579000Y70400D02*
D03*
Y39600D02*
D03*
X575000Y70400D02*
D03*
Y39600D02*
D03*
X571000Y70400D02*
D03*
Y39600D02*
D03*
X567000Y70400D02*
D03*
Y39600D02*
D03*
X563000Y70400D02*
D03*
Y39600D02*
D03*
X559000Y70400D02*
D03*
Y39600D02*
D03*
X555000Y70400D02*
D03*
Y39600D02*
D03*
X551000Y70400D02*
D03*
Y39600D02*
D03*
X547000Y70400D02*
D03*
Y39600D02*
D03*
X543000Y70400D02*
D03*
Y39600D02*
D03*
X539000Y70400D02*
D03*
Y39600D02*
D03*
X535000Y70400D02*
D03*
Y39600D02*
D03*
X531000Y70400D02*
D03*
Y39600D02*
D03*
X527000Y70400D02*
D03*
Y39600D02*
D03*
D23*
X715000Y324500D02*
D03*
Y340500D02*
D03*
X253000Y557000D02*
D03*
Y573000D02*
D03*
X120000Y242000D02*
D03*
Y258000D02*
D03*
X227500Y178000D02*
D03*
Y162000D02*
D03*
D24*
X753000Y306400D02*
D03*
Y335600D02*
D03*
X770000Y219600D02*
D03*
Y190400D02*
D03*
D25*
X289000Y722250D02*
D03*
X276000D02*
D03*
X564750Y536000D02*
D03*
X577750D02*
D03*
X281000Y60000D02*
D03*
X294000D02*
D03*
X806000Y440000D02*
D03*
X819000D02*
D03*
X806000Y422500D02*
D03*
X819000D02*
D03*
X571500Y195000D02*
D03*
X558500D02*
D03*
X661500Y15000D02*
D03*
X648500D02*
D03*
X601500D02*
D03*
X588500D02*
D03*
X940500Y170000D02*
D03*
X953500D02*
D03*
D26*
X548250Y535500D02*
D03*
X533250D02*
D03*
X260000Y702500D02*
D03*
X275000D02*
D03*
X260000Y685000D02*
D03*
X275000D02*
D03*
X955500Y183000D02*
D03*
X940500D02*
D03*
D27*
X268929Y576651D02*
D03*
Y554651D02*
D03*
X284929D02*
D03*
Y576651D02*
D03*
D28*
X230000Y450000D02*
D03*
Y544000D02*
D03*
Y573000D02*
D03*
Y667000D02*
D03*
D29*
X268850Y497000D02*
D03*
X191150D02*
D03*
X268850Y620000D02*
D03*
X191150D02*
D03*
D30*
X763000Y412000D02*
D03*
X772500D02*
D03*
X782000D02*
D03*
Y435000D02*
D03*
X772500D02*
D03*
X763000D02*
D03*
D31*
X146450Y722000D02*
D03*
Y703000D02*
D03*
X123550D02*
D03*
Y712500D02*
D03*
Y722000D02*
D03*
X156760Y305230D02*
D03*
Y286230D02*
D03*
X133860D02*
D03*
Y295730D02*
D03*
Y305230D02*
D03*
D32*
X105000Y711500D02*
D03*
Y698500D02*
D03*
X113000Y299500D02*
D03*
Y286500D02*
D03*
X120000Y216500D02*
D03*
Y229500D02*
D03*
X139000Y244500D02*
D03*
Y257500D02*
D03*
X139000Y220000D02*
D03*
Y233000D02*
D03*
X285000Y671500D02*
D03*
Y658500D02*
D03*
X893000Y184500D02*
D03*
Y171500D02*
D03*
D33*
X53000Y694500D02*
D03*
Y718500D02*
D03*
Y714500D02*
D03*
Y698500D02*
D03*
Y710500D02*
D03*
Y706500D02*
D03*
Y702500D02*
D03*
Y690500D02*
D03*
Y686500D02*
D03*
D34*
X65000Y720500D02*
D03*
Y716500D02*
D03*
Y712500D02*
D03*
Y708500D02*
D03*
Y704500D02*
D03*
Y700500D02*
D03*
Y696500D02*
D03*
Y692500D02*
D03*
Y688500D02*
D03*
Y684500D02*
D03*
D35*
X17000Y731000D02*
D03*
Y674000D02*
D03*
D36*
X50600Y731000D02*
D03*
X50598Y674405D02*
D03*
D37*
X230000Y305000D02*
D03*
Y412700D02*
D03*
D38*
X183000Y343850D02*
D03*
Y373850D02*
D03*
X277000Y343850D02*
D03*
Y373850D02*
D03*
D39*
X28750Y216200D02*
D03*
Y322800D02*
D03*
X68750D02*
D03*
Y216200D02*
D03*
D40*
X74750Y257000D02*
D03*
Y262000D02*
D03*
Y252000D02*
D03*
Y287000D02*
D03*
Y282000D02*
D03*
Y272000D02*
D03*
Y267000D02*
D03*
Y277000D02*
D03*
D41*
Y245500D02*
D03*
Y237500D02*
D03*
Y301500D02*
D03*
Y293500D02*
D03*
D42*
X76530Y30000D02*
D03*
X88470D02*
D03*
X49030D02*
D03*
X60970D02*
D03*
X309030Y205000D02*
D03*
X320970D02*
D03*
X309030Y192500D02*
D03*
X320970D02*
D03*
X309030Y180000D02*
D03*
X320970D02*
D03*
X309030Y167500D02*
D03*
X320970D02*
D03*
X309030Y155000D02*
D03*
X320970D02*
D03*
X309030Y142500D02*
D03*
X320970D02*
D03*
X334030Y135000D02*
D03*
X345970D02*
D03*
X334030Y147500D02*
D03*
X345970D02*
D03*
X334030Y160000D02*
D03*
X345970D02*
D03*
X334030Y172500D02*
D03*
X345970D02*
D03*
X334030Y197500D02*
D03*
X345970D02*
D03*
X334030Y210000D02*
D03*
X345970D02*
D03*
Y185000D02*
D03*
X334030D02*
D03*
X559030Y165000D02*
D03*
X570970D02*
D03*
X410970Y210000D02*
D03*
X399030D02*
D03*
X501530Y177500D02*
D03*
X513470D02*
D03*
X501530Y155000D02*
D03*
X513470D02*
D03*
X513140Y135377D02*
D03*
X501200D02*
D03*
X501530Y122500D02*
D03*
X513470D02*
D03*
X410970Y142500D02*
D03*
X399030D02*
D03*
X410970Y130000D02*
D03*
X399030D02*
D03*
X50970Y920000D02*
D03*
X39030D02*
D03*
X80970D02*
D03*
X69030D02*
D03*
X410970Y165000D02*
D03*
X399030D02*
D03*
D43*
X170000Y253750D02*
D03*
Y221250D02*
D03*
X205000Y253750D02*
D03*
Y221250D02*
D03*
X455000Y103750D02*
D03*
Y136250D02*
D03*
X465000Y191250D02*
D03*
Y223750D02*
D03*
D44*
X237500Y230000D02*
D03*
X267500D02*
D03*
D45*
X262500Y171000D02*
D03*
X253000D02*
D03*
X272000D02*
D03*
X262500Y194000D02*
D03*
X253000D02*
D03*
X272000D02*
D03*
D46*
X240500Y192500D02*
D03*
X224500D02*
D03*
X724500Y237500D02*
D03*
X740500D02*
D03*
X177000Y920000D02*
D03*
X193000D02*
D03*
D47*
X308000Y104478D02*
D03*
X252000D02*
D03*
D48*
X295000Y78678D02*
D03*
X285000D02*
D03*
X275000D02*
D03*
X265000D02*
D03*
D49*
X251250Y142500D02*
D03*
X283750D02*
D03*
D50*
X739750Y180950D02*
D03*
Y193650D02*
D03*
Y206350D02*
D03*
Y219050D02*
D03*
X685250Y180950D02*
D03*
Y193650D02*
D03*
Y206350D02*
D03*
Y219050D02*
D03*
D51*
X711404Y155404D02*
D03*
X720596Y164596D02*
D03*
X739596Y159596D02*
D03*
X730404Y150404D02*
D03*
D52*
X719000Y139500D02*
D03*
Y124500D02*
D03*
X697000Y137500D02*
D03*
Y152500D02*
D03*
D53*
X502500Y61530D02*
D03*
Y73470D02*
D03*
X490000Y61530D02*
D03*
Y73470D02*
D03*
X450000Y61530D02*
D03*
Y73470D02*
D03*
X437500Y61530D02*
D03*
Y73470D02*
D03*
X477500D02*
D03*
Y61530D02*
D03*
X425000Y73470D02*
D03*
Y61530D02*
D03*
X410000Y226530D02*
D03*
Y238470D02*
D03*
X430000Y226530D02*
D03*
Y238470D02*
D03*
X442500Y226530D02*
D03*
Y238470D02*
D03*
X487500Y226530D02*
D03*
Y238470D02*
D03*
X502500Y226530D02*
D03*
Y238470D02*
D03*
X433000Y132970D02*
D03*
Y121030D02*
D03*
D54*
X306500Y465000D02*
D03*
X513500D02*
D03*
D55*
X317500Y457250D02*
D03*
X322500D02*
D03*
X325000Y532750D02*
D03*
X327500Y457250D02*
D03*
X330000Y532750D02*
D03*
X332500Y457250D02*
D03*
X335000Y532750D02*
D03*
X337500Y457250D02*
D03*
X360000Y532750D02*
D03*
X362500Y457250D02*
D03*
X365000Y532750D02*
D03*
X367500Y457250D02*
D03*
X370000Y532750D02*
D03*
X372500Y457250D02*
D03*
X375000Y532750D02*
D03*
X377500Y457250D02*
D03*
X380000Y532750D02*
D03*
X382500Y457250D02*
D03*
X385000Y532750D02*
D03*
X387500Y457250D02*
D03*
X390000Y532750D02*
D03*
X392500Y457250D02*
D03*
X395000Y532750D02*
D03*
X397500Y457250D02*
D03*
X400000Y532750D02*
D03*
X402500Y457250D02*
D03*
X405000Y532750D02*
D03*
X407500Y457250D02*
D03*
X410000Y532750D02*
D03*
X412500Y457250D02*
D03*
X415000Y532750D02*
D03*
X417500Y457250D02*
D03*
X420000Y532750D02*
D03*
X422500Y457250D02*
D03*
X425000Y532750D02*
D03*
X427500Y457250D02*
D03*
X430000Y532750D02*
D03*
X432500Y457250D02*
D03*
X435000Y532750D02*
D03*
X437500Y457250D02*
D03*
X440000Y532750D02*
D03*
X442500Y457250D02*
D03*
X445000Y532750D02*
D03*
X447500Y457250D02*
D03*
X450000Y532750D02*
D03*
X452500Y457250D02*
D03*
X455000Y532750D02*
D03*
X457500Y457250D02*
D03*
X460000Y532750D02*
D03*
X462500Y457250D02*
D03*
X465000Y532750D02*
D03*
X467500Y457250D02*
D03*
X470000Y532750D02*
D03*
X472500Y457250D02*
D03*
X475000Y532750D02*
D03*
X477500Y457250D02*
D03*
X480000Y532750D02*
D03*
X482500Y457250D02*
D03*
X485000Y532750D02*
D03*
X487500Y457250D02*
D03*
X490000Y532750D02*
D03*
X492500Y457250D02*
D03*
X495000Y532750D02*
D03*
X497500Y457250D02*
D03*
X500000Y532750D02*
D03*
X502500Y457250D02*
D03*
D56*
X320000Y534250D02*
D03*
D57*
X926500Y148550D02*
D03*
X907500D02*
D03*
Y171450D02*
D03*
X917000D02*
D03*
X926500D02*
D03*
D58*
X1063000Y181500D02*
D03*
X1052000D02*
D03*
X1041000D02*
D03*
X1030000D02*
D03*
X1019000D02*
D03*
X1008000D02*
D03*
X997000D02*
D03*
X986000D02*
D03*
X976500D02*
D03*
D59*
X1078500D02*
D03*
X967000Y138500D02*
D03*
D60*
Y76500D02*
D03*
D61*
Y35000D02*
D03*
D62*
X1102000Y30500D02*
D03*
M02*
